<?xml version="1.0" encoding="utf-8"?>
<!-- Generator: Adobe Illustrator 13.0.0, SVG Export Plug-In  -->
<!DOCTYPE svg PUBLIC "-//W3C//DTD SVG 1.1//EN" "http://www.w3.org/Graphics/SVG/1.1/DTD/svg11.dtd" [
	<!ENTITY ns_flows "http://ns.adobe.com/Flows/1.0/">
]>
<svg version="1.1"
	 xmlns="http://www.w3.org/2000/svg" xmlns:xlink="http://www.w3.org/1999/xlink" xmlns:a="http://ns.adobe.com/AdobeSVGViewerExtensions/3.0/"
	 x="0px" y="0px" width="504px" height="505px" viewBox="-0.027 -0.609 504 505" enable-background="new -0.027 -0.609 504 505"
	 xml:space="preserve">
<defs>
</defs>
<rect x="0.5" y="0.5" fill="#FFFFFF" stroke="#000000" width="502" height="503"/>
<rect x="19.5" y="17.5" stroke="#000000" width="467" height="469"/>
<rect x="52.5" y="50.5" fill="#FFFFFF" stroke="#000000" width="401" height="399"/>
<polygon stroke="#000000" points="77.973,216.501 81.973,198.501 101.973,164.501 149.973,113.501 176.973,94.501 191.973,86.501 
	231.973,73.501 278.973,69.501 319.973,72.501 357.973,78.501 383.973,87.501 397.973,98.501 401.973,106.501 359.973,130.501 
	342.973,116.501 341.973,138.501 287.973,161.501 274.973,145.501 273.973,166.501 211.973,194.501 208.973,184.501 
	201.973,172.501 196.973,179.501 196.973,190.501 197.973,198.501 143.973,217.501 136.973,208.501 130.973,199.501 
	128.973,207.501 127.973,219.501 93.973,230.501 80.973,230.501 76.973,225.501 "/>
<polygon stroke="#000000" points="114.973,382.501 139.973,322.501 145.973,314.501 155.973,310.501 170.973,308.501 
	185.973,312.501 250.973,355.501 311.973,317.501 318.973,314.501 327.973,314.501 383.973,374.501 409.973,375.501 
	424.973,380.501 431.973,387.501 431.973,393.501 429.973,398.501 424.973,402.501 416.973,404.501 232.973,406.501 
	224.973,403.501 160.973,362.501 155.973,362.501 145.973,390.501 190.973,407.501 197.973,411.501 202.973,418.501 
	200.973,426.501 194.973,431.501 184.973,431.501 171.973,428.501 114.973,405.501 110.973,401.501 109.973,396.501 "/>
<polygon fill="#FFFFFF" stroke="#000000" points="286.973,373.501 317.973,348.501 341.973,375.501 "/>
<polygon stroke="#000000" points="244.973,207.501 263.973,198.501 307.973,303.501 289.973,309.501 "/>
<ellipse stroke="#000000" cx="160.473" cy="274.001" rx="29.5" ry="27.5"/>
<polygon stroke="#000000" points="192.973,93.501 218.973,85.501 207.973,69.501 191.973,71.501 "/>
</svg>
