<?xml version="1.0" standalone="no"?>
<!DOCTYPE svg PUBLIC "-//W3C//DTD SVG 1.1//EN" "http://www.w3.org/Graphics/SVG/1.1/DTD/svg11.dtd">
<!--
   ***************************************************************************
   Bundesanstalt fuer Strassenwesen
   RWB-Symbol
   Bezeichnung:
   Zelt- und Wohnwagenplatz
   Eingefuehrt durch:
   Katalog der Verkehrszeichen - VzKat 1992 -
   Ausdehnung in cm:
         X_min     X_max     Y_min     Y_max
         0.00000  15.00000   0.00000  15.00000
-->
<svg width="150" height="150" version="1.1" xmlns="http://www.w3.org/2000/svg">
<!--
   ***************************************************************************
      INHALT
-->
<path fill="white" fill-rule="evenodd" stroke="black" stroke-width="0.25" d="M0 150L0 0L150 0L150 150L0 150Z" />
<!--
      INHALT
       ZELT
-->
<path fill="black" fill-rule="evenodd" stroke="none" d="M75 70.5084L33.3333 70.5084L33.3333 67.7306L38.8889 67.7306L73.3171 17.4124L69.3957 11.6811L71.6882 10.1125L75 14.9528L78.3117 10.1125L80.6043 11.6811L76.6829 17.4124L111.1111 67.7306L116.6667 67.7306L116.6667 70.5084L75 70.5084Z" />
<path fill="white" fill-rule="evenodd" stroke="none" d="M75 67.7306L58.8889 67.7306L75 44.1836L91.1111 67.7306L75 67.7306Z" />
<!--
      WOHNWAGEN
       Umrandung Fahrzeug
-->
<path fill="black" fill-rule="evenodd" stroke="none" d="M33.3333 127.6898L73.1861 127.6898A8.3027 8.3027 0 0 1 85.64015 120.499450879999A8.3027 8.3027 0 0 1 89.7915 127.6898L111.6452 127.6897A1.6605 1.6605 0 0 0 113.280564682973 126.317023910897L116.641465336021 107.220920200371A1.6605 1.6605 0 0 0 116.641464632738 106.645275803678L113.280564080153 87.5490726640042A1.6605 1.6605 0 0 0 111.6452 86.1764L48.3435 86.1764A1.6605 1.6605 0 0 0 46.7081359700827 87.5490723785794L43.3520360203181 106.617972093155A1.6605 1.6605 0 0 0 43.3621902310267 107.246319392743L46.9497 124.3687L33.3333 124.3687L33.3333 127.6898Z" />
<!--
      ** TUER  **
-->
<path fill="white" fill-rule="evenodd" stroke="none" d="M54.9203 124.3687A0.8303 0.8303 0 0 1 54.09 123.5384L54.09 93.6488A0.8303 0.8303 0 0 1 54.9203 92.8185L68.2046 92.8185A0.8303 0.8303 0 0 1 69.0349 93.6488L69.0349 123.5384A0.8303 0.8303 0 0 1 68.2046 124.3687L54.9203 124.3687Z" />
<!--
      ** FENSTER **
-->
<path fill="white" fill-rule="evenodd" stroke="none" d="M88.131 103.612A0.8303 0.8303 0 0 1 87.3007 102.7817L87.3007 93.6488A0.8303 0.8303 0 0 1 88.131 92.8185L107.2271 92.8185A0.8303 0.8303 0 0 1 108.0574 93.6488L108.0574 102.7817A0.8303 0.8303 0 0 1 107.2271 103.612L88.131 103.612Z" />
<!--
      ** RAD **
-->
<path fill="black" fill-rule="evenodd" stroke="none" d="M88.1309 127.6898A6.6421 6.6421 0 0 0 78.16775 121.937572665523A6.6421 6.6421 0 0 0 78.16775 133.442027334477A6.6421 6.6421 0 0 0 88.1309 127.6898Z" />
</svg>
