<?xml version="1.0" standalone="no"?>
<!DOCTYPE svg PUBLIC "-//W3C//DTD SVG 1.1//EN" "http://www.w3.org/Graphics/SVG/1.1/DTD/svg11.dtd">
<!--
   ***************************************************************************
   Bundesanstalt fuer Strassenwesen
   RWB-Symbol
   Bezeichnung:
   Auto im Reisezug
   Ausdehnung in cm:
         X_min     X_max     Y_min     Y_max
         0.00000  15.00000   0.00000  15.00000
-->
<svg width="150" height="150" version="1.1" xmlns="http://www.w3.org/2000/svg">
<!--
   ***************************************************************************
-->
<path fill="white" fill-rule="evenodd" stroke="black" stroke-width="0.25" d="M0 150L0 0L150 0L150 150L0 150Z" />
<!--
      * SYMBOL AUTOZUG *
-->
<path fill="black" fill-rule="evenodd" stroke="none" d="M10 140A9 9 0 0 0 17.7942286340599 126.5A9 9 0 0 0 10 122L10 140Z" />
<path fill="black" fill-rule="evenodd" stroke="none" d="M39 131A9 9 0 0 0 25.5 123.20577136594A9 9 0 0 0 25.5 138.79422863406A9 9 0 0 0 39 131Z" />
<path fill="black" fill-rule="evenodd" stroke="none" d="M129 131A9 9 0 0 0 115.5 123.20577136594A9 9 0 0 0 115.5 138.79422863406A9 9 0 0 0 129 131Z" />
<path fill="black" fill-rule="evenodd" stroke="none" d="M140 140A9 9 0 0 1 132.20577136594 126.5A9 9 0 0 1 140 122L140 140Z" />
<path fill="black" fill-rule="evenodd" stroke="none" d="M10 120L10 105L140 105L140 120L10 120Z" />
<!--
      Symbol PKW seitlich (links)
-->
<path fill="black" fill-rule="evenodd" stroke="none" d="M58 94A9 9 0 0 1 71.5 86.2057713659401A9 9 0 0 1 71.5 101.79422863406A9 9 0 0 1 58 94Z" />
<path fill="black" fill-rule="evenodd" stroke="none" d="M78.25 94L83.875 94A2.25 2.25 0 0 0 86.125 91.75L86.125 81.281A2.25 2.25 0 0 0 84.2448980232638 79.0616137216822L52.375 73.75L37.2839902576697 58.6590097423303A2.25 2.25 0 0 0 35.693 58L10 58L10 62.5L13 62.5L13 76L10 76L10 94L55.75 94A11.25 11.25 0 0 1 72.625 84.2572142074251A11.25 11.25 0 0 1 78.25 94Z
  M16.375 76L47.409 76A1.125 1.125 0 0 0 48.3832785792575 74.3125A1.125 1.125 0 0 0 48.2044951288349 74.0795048711651L37.2839902576697 63.1590097423303A2.25 2.25 0 0 0 35.693 62.5L16.375 62.5L16.375 76Z" />
<path fill="black" fill-rule="evenodd" stroke="none" d="M105.125 94A9 9 0 0 1 118.625 86.2057713659401A9 9 0 0 1 118.625 101.79422863406A9 9 0 0 1 105.125 94Z" />
<path fill="black" fill-rule="evenodd" stroke="none" d="M140 94L140 76L115.0569 76A2.25 2.25 0 0 1 113.108342841485 72.625A2.25 2.25 0 0 1 113.46590974233 72.1590097423303L122.46590974233 63.1590097423303A2.25 2.25 0 0 1 124.0569 62.5L140 62.5L140 58L119.4142 58A2.25 2.25 0 0 0 118.008636089465 58.4930452215834L96.9694360894648 75.3243452215833A2.25 2.25 0 0 0 96.125 77.0813L96.125 91.75A2.25 2.25 0 0 0 98.375 94L102.875 94A11.25 11.25 0 0 1 119.75 84.2572142074251A11.25 11.25 0 0 1 125.375 94L140 94Z" />
</svg>
