<?xml version="1.0" encoding="UTF-8" standalone="no"?>
<svg
   xmlns:dc="http://purl.org/dc/elements/1.1/"
   xmlns:cc="http://creativecommons.org/ns#"
   xmlns:rdf="http://www.w3.org/1999/02/22-rdf-syntax-ns#"
   xmlns:svg="http://www.w3.org/2000/svg"
   xmlns="http://www.w3.org/2000/svg"
   viewBox="0 0 113.38667 113.38667"
   height="113.38667"
   width="113.38667"
   xml:space="preserve"
   id="svg2"
   version="1.1"><metadata
     id="metadata8"><rdf:RDF><cc:Work
         rdf:about=""><dc:format>image/svg+xml</dc:format><dc:type
           rdf:resource="http://purl.org/dc/dcmitype/StillImage" /></cc:Work></rdf:RDF></metadata><defs
     id="defs6" /><g
     transform="matrix(1.3333333,0,0,-1.3333333,0,113.38667)"
     id="g10"><g
       transform="scale(0.1)"
       id="g12"><path
         id="path14"
         style="fill:#ee2c30;fill-opacity:1;fill-rule:nonzero;stroke:none"
         d="m 425.195,850.391 c 234.832,0 425.2,-190.368 425.2,-425.196 C 850.395,190.367 660.027,0 425.195,0 190.367,0 0,190.367 0,425.195 0,660.023 190.367,850.391 425.195,850.391 v 0" /><path
         id="path16"
         style="fill:#ffffff;fill-opacity:1;fill-rule:nonzero;stroke:none"
         d="m 425.234,708.695 c 38.512,0 75.274,-7.406 110.293,-22.215 33.899,-14.335 63.946,-34.609 90.149,-60.812 26.199,-26.195 46.469,-56.242 60.804,-90.141 14.813,-35.019 22.215,-71.789 22.215,-110.297 0,-38.507 -7.402,-75.273 -22.215,-110.292 -14.335,-33.899 -34.605,-63.946 -60.804,-90.149 -26.203,-26.199 -56.25,-46.469 -90.149,-60.805 -35.019,-14.808 -71.781,-22.214 -110.293,-22.214 -38.511,0 -75.273,7.406 -110.293,22.214 -33.894,14.336 -63.945,34.606 -90.144,60.805 -26.203,26.203 -46.473,56.25 -60.813,90.149 -14.808,35.019 -22.218,71.785 -22.218,110.292 0,38.508 7.41,75.278 22.218,110.297 14.34,33.899 34.61,63.946 60.813,90.141 26.199,26.203 56.25,46.477 90.144,60.812 35.02,14.809 71.782,22.215 110.293,22.215 v 0" /><path
         id="path18"
         style="fill:#231f20;fill-opacity:1;fill-rule:nonzero;stroke:none"
         d="m 342.18,398.227 c -20.887,0 -37.84,-16.957 -37.41,-37.762 0.363,-20.199 17.32,-36.039 37.621,-36 20.164,0.07 36.972,15.801 37.371,35.887 0.429,20.882 -16.598,37.875 -37.582,37.875 v 0" /><path
         id="path20"
         style="fill:#231f20;fill-opacity:1;fill-rule:nonzero;stroke:none"
         d="m 604.363,398.227 c -20.949,0 -37.98,-16.993 -37.547,-37.875 0.395,-20.086 17.207,-35.817 37.329,-35.887 20.343,-0.039 37.3,15.801 37.656,36 0.433,20.805 -16.524,37.762 -37.438,37.762 v 0" /><path
         id="path22"
         style="fill:#231f20;fill-opacity:1;fill-rule:nonzero;stroke:none"
         d="m 142.051,402.477 162.828,-0.18 v 0 c -0.43,-0.438 -1.152,-1.227 -1.582,-1.695 -0.652,-0.684 -1.406,-1.508 -2.02,-2.231 v 0 l -1.8,-2.125 v 0 c -0.215,-0.289 -0.575,-0.683 -0.789,-0.937 v 0 l -155.954,-0.11 v 0 c 1.043,-9.215 2.485,-18.429 4.395,-27.609 0.539,-2.629 1.113,-5.254 1.726,-7.883 h 147.168 v 0 c 0.071,0.758 0.145,2.914 0.25,3.707 2.379,24.481 21.926,44.496 46.516,44.281 24.766,-0.254 43.883,-20.882 45.824,-45.468 0,-0.469 0.075,-1.153 0.114,-1.622 v 0 l 9.14,-0.105 v 0 c 0.106,0.5 0.215,1.258 0.285,1.762 0.039,0.789 0.039,1.586 0.039,2.34 -0.039,0.937 -0.144,1.875 -0.324,2.843 -0.07,0.504 -0.25,1.332 -0.355,1.871 v 0 l 35.383,12.852 120.207,-0.105 -2.016,-4.211 v 0 c 0,0.109 -1.621,-5.332 -1.731,-7.778 0,-1.113 -0.429,-5.008 -0.363,-5.761 0.039,-0.54 0,-3.313 0.11,-3.813 v 0 l 9.144,0.105 v 0 c 0.035,0.469 0.109,1.153 0.109,1.622 1.911,24.586 21.059,45.214 45.79,45.468 24.625,0.215 44.136,-19.8 46.546,-44.281 0.114,-0.793 0.149,-1.836 0.184,-2.555 v 0 l 51.266,-0.328 v 0 c 2.664,11.524 4.64,23.297 5.832,35.352 v 0 l -59.727,-0.574 v 0 c -0.215,0.254 -0.574,0.648 -0.789,0.937 v 0 l -1.766,2.125 v 0 c -0.613,0.723 -1.371,1.547 -2.015,2.231 -0.434,0.468 -1.153,1.257 -1.586,1.695 v 0 l 66.387,-0.473 v 0 c 1.945,24.34 0.644,49.504 -4.141,75.063 -3.531,18.578 -8.645,36.32 -15.305,53.027 v 0 l -180.031,0.07 0.285,-126.578 58.75,-0.246 v 0 c -0.644,-0.683 -1.508,-1.73 -2.156,-2.453 -0.109,-0.105 -0.289,-0.285 -0.395,-0.461 -0.429,-0.402 -1.007,-1.086 -1.367,-1.516 -0.504,-0.683 -1.047,-1.332 -1.515,-2.089 -0.215,-0.356 -0.504,-0.934 -0.715,-1.293 H 385.09 v 0 c -0.219,0.359 -0.504,0.937 -0.727,1.293 -0.461,0.757 -1.004,1.406 -1.508,2.089 -0.359,0.43 -0.937,1.114 -1.367,1.516 -0.105,0.176 -0.289,0.356 -0.394,0.461 -0.649,0.723 -1.516,1.77 -2.164,2.453 v 0 l 58.754,0.246 0.25,126.578 -276.512,-0.105 v 0 C 144.93,488.766 138.453,445.855 142.051,402.477 v 0" /><path
         id="path24"
         style="fill:#ffffff;fill-opacity:1;fill-rule:nonzero;stroke:none"
         d="m 342.641,377.055 c -9.106,0.039 -16.27,-7.664 -15.661,-16.739 0.579,-8.058 7.493,-14.218 15.661,-14.109 8.035,0.141 14.547,6.406 14.941,14.324 0.469,8.719 -6.156,16.418 -14.941,16.524 v 0" /><path
         id="path26"
         style="fill:#ffffff;fill-opacity:1;fill-rule:nonzero;stroke:none"
         d="m 603.93,377.055 c -8.785,-0.106 -15.407,-7.805 -14.942,-16.524 0.364,-7.918 6.914,-14.183 14.942,-14.324 8.175,-0.109 15.05,6.051 15.66,14.109 0.613,9.075 -6.555,16.778 -15.66,16.739 v 0" /></g></g></svg>