<?xml version="1.0" encoding="UTF-8" standalone="no"?>
<svg
   xmlns:dc="http://purl.org/dc/elements/1.1/"
   xmlns:cc="http://creativecommons.org/ns#"
   xmlns:rdf="http://www.w3.org/1999/02/22-rdf-syntax-ns#"
   xmlns:svg="http://www.w3.org/2000/svg"
   xmlns="http://www.w3.org/2000/svg"
   viewBox="0 0 113.76 113.76"
   height="113.76"
   width="113.76"
   xml:space="preserve"
   id="svg2"
   version="1.1"><metadata
     id="metadata8"><rdf:RDF><cc:Work
         rdf:about=""><dc:format>image/svg+xml</dc:format><dc:type
           rdf:resource="http://purl.org/dc/dcmitype/StillImage" /></cc:Work></rdf:RDF></metadata><defs
     id="defs6" /><g
     transform="matrix(1.3333333,0,0,-1.3333333,0,113.76)"
     id="g10"><g
       transform="scale(0.1)"
       id="g12"><path
         id="path14"
         style="fill:#ffffff;fill-opacity:1;fill-rule:nonzero;stroke:none"
         d="M 426.617,851.809 C 191.82,851.809 1.41797,661.402 1.41797,426.609 1.41797,191.816 191.82,1.41797 426.617,1.41797 c 234.789,0 425.192,190.39803 425.192,425.19103 0,234.793 -190.403,425.2 -425.192,425.2 v 0" /><path
         id="path16"
         style="fill:none;stroke:#231f20;stroke-width:2.83500004;stroke-linecap:butt;stroke-linejoin:round;stroke-miterlimit:4;stroke-dasharray:none;stroke-opacity:1"
         d="M 426.617,851.809 C 191.82,851.809 1.41797,661.402 1.41797,426.609 1.41797,191.816 191.82,1.41797 426.617,1.41797 c 234.789,0 425.192,190.39803 425.192,425.19103 0,234.793 -190.403,425.2 -425.192,425.2 v 0" /><path
         id="path18"
         style="fill:#1a67bb;fill-opacity:1;fill-rule:nonzero;stroke:none"
         d="m 426.617,837.637 c 55.746,0 109.067,-10.766 159.965,-32.301 49.172,-20.801 92.727,-50.172 130.656,-88.102 37.938,-37.933 67.305,-81.48 88.106,-130.652 21.531,-50.902 32.293,-104.223 32.293,-159.973 0,-55.746 -10.762,-109.07 -32.293,-159.968 C 784.543,217.473 755.176,173.918 717.238,135.984 679.309,98.0586 635.754,68.6914 586.582,47.8906 535.684,26.3594 482.363,15.5859 426.617,15.5859 c -55.746,0 -109.074,10.7735 -159.972,32.3047 -49.168,20.8008 -92.723,50.168 -130.653,88.0934 -37.9334,37.934 -67.3006,81.489 -88.1014,130.657 -21.5312,50.898 -32.3008,104.222 -32.3008,159.968 0,55.75 10.7696,109.071 32.3008,159.973 20.8008,49.172 50.168,92.719 88.1014,130.652 37.93,37.93 81.485,67.301 130.653,88.102 50.898,21.535 104.226,32.301 159.972,32.301 v 0" /><path
         id="path20"
         style="fill:#ffffff;fill-opacity:1;fill-rule:nonzero;stroke:none"
         d="m 127.523,567.301 558.61,1.113 v 0 c 4.18,0 8.574,-0.539 12.14,-2.23 3.204,-1.621 5.899,-4.25 7.918,-7.164 v 0 L 771.32,458.398 v 0 c 0.711,-1.226 1.368,-2.734 1.758,-4.101 0.652,-1.77 0.652,-8.75 0.652,-10.621 v 0 l 0.137,-94.035 v 0 c 0,-4.106 -1.179,-8.606 -4.316,-11.262 -3.418,-2.883 -8.457,-3.457 -12.852,-3.457 h -103.75 v 0 c 0.071,2.012 0.137,5 0,7.09 -1.914,30.707 -28.34,53.457 -58.894,53.855 -31.211,0.324 -58.762,-22.355 -60.84,-53.711 -0.078,-2.019 -0.078,-4.898 -0.078,-6.914 v 0 l -274.317,0.324 v 0 c 0,1.446 0,3.528 -0.148,5.079 -2.012,30.601 -28.582,53.027 -59.07,53.132 -30.497,0 -56.344,-22.679 -59.547,-53.132 -0.141,-1.551 -0.325,-3.782 -0.325,-5.403 v 0 l -47.4097,-0.32 v 0 c -3.0976,-0.145 -6.2305,1.367 -8.5351,3.523 -2.5547,2.739 -3.9219,6.703 -3.9219,10.403 v 0 l -0.4688,90.902 v 0 c 0,2.16 0.1407,4.645 0.3946,6.734 0.2539,3.239 0.9726,8.532 1.8359,11.336 v 0 l 23.547,97.344 v 0 c 0.973,4.25 4.461,7.816 8.316,9.652 4.211,2.086 9.5,2.485 14.035,2.485 v 0" /><path
         id="path22"
         style="fill:#ffffff;fill-opacity:1;fill-rule:nonzero;stroke:none"
         d="m 199.816,384.602 c 27.215,0 49.247,-22.286 49.247,-49.68 0,-27.512 -22.106,-49.758 -49.321,-49.758 -27.144,0 -49.176,22.031 -49.355,49.359 -0.141,27.645 22.031,50.079 49.429,50.079 v 0" /><path
         id="path24"
         style="fill:#ffffff;fill-opacity:1;fill-rule:nonzero;stroke:none"
         d="m 593.945,385.355 c 27.539,-0.253 49.172,-23.468 48.782,-51.195 -0.403,-27.176 -22.364,-49.14 -49.434,-49.211 -27.355,-0.066 -49.785,21.965 -50.109,49.426 -0.399,28.406 22.609,51.305 50.761,50.98 v 0" /><path
         id="path26"
         style="fill:#1a67bb;fill-opacity:1;fill-rule:nonzero;stroke:none"
         d="m 116.906,546.598 20.594,0.179 -23.297,-94.859 H 93.7617 l 23.1443,94.68 v 0" /><path
         id="path28"
         style="fill:#1a67bb;fill-opacity:1;fill-rule:nonzero;stroke:none"
         d="m 152.652,546.852 63.11,0.32 0.648,-95.18 -86.828,-0.328 23.07,95.188 v 0" /><path
         id="path30"
         style="fill:#1a67bb;fill-opacity:1;fill-rule:nonzero;stroke:none"
         d="m 229.586,547.172 h 70.703 l -0.539,-95.254 h -69.836 l -0.328,95.254 v 0" /><path
         id="path32"
         style="fill:#1a67bb;fill-opacity:1;fill-rule:nonzero;stroke:none"
         d="m 313.574,547.172 h 69.59 l 0.176,-95.254 h -69.766 v 95.254" /><path
         id="path34"
         style="fill:#1a67bb;fill-opacity:1;fill-rule:nonzero;stroke:none"
         d="m 397.492,547.172 70.879,-0.32 0.867,-95.188 h -71.351 l -0.395,95.508 v 0" /><path
         id="path36"
         style="fill:#1a67bb;fill-opacity:1;fill-rule:nonzero;stroke:none"
         d="m 482.195,546.887 72.649,0.324 0.937,-95.723 -72.468,0.25 -1.118,95.149 v 0" /><path
         id="path38"
         style="fill:#1a67bb;fill-opacity:1;fill-rule:nonzero;stroke:none"
         d="m 568.848,547.172 h 71.027 l 0.652,-94.856 -70.703,-0.652 -0.976,95.508 v 0" /><path
         id="path40"
         style="fill:#1a67bb;fill-opacity:1;fill-rule:nonzero;stroke:none"
         d="m 654.348,547.211 h 43.347 l 59.289,-94.863 H 654.602 l -0.254,94.863 v 0" /><path
         id="path42"
         style="fill:#1a67bb;fill-opacity:1;fill-rule:nonzero;stroke:none"
         d="m 199.633,356.23 c 11.594,0 20.773,-9.714 20.519,-21.386 -0.14,-11.153 -9.179,-20.266 -20.265,-20.266 -11.086,-0.066 -20.199,8.86 -20.594,20.024 -0.324,11.66 8.785,21.558 20.34,21.628 v 0" /><path
         id="path44"
         style="fill:#1a67bb;fill-opacity:1;fill-rule:nonzero;stroke:none"
         d="m 593.762,356.445 c 11.883,-0.105 21.199,-10.222 20.41,-22.207 -0.606,-10.652 -9.785,-18.652 -20.52,-18.718 -10.832,-0.079 -20.261,7.878 -21.054,18.718 -0.801,12.168 9.035,22.285 21.164,22.207 v 0" /></g></g></svg>