<?xml version="1.0" encoding="UTF-8" standalone="no"?>
<svg
   xmlns:dc="http://purl.org/dc/elements/1.1/"
   xmlns:cc="http://creativecommons.org/ns#"
   xmlns:rdf="http://www.w3.org/1999/02/22-rdf-syntax-ns#"
   xmlns:svg="http://www.w3.org/2000/svg"
   xmlns="http://www.w3.org/2000/svg"
   viewBox="0 0 113.38667 113.38667"
   height="113.38667"
   width="113.38667"
   xml:space="preserve"
   id="svg2"
   version="1.1"><metadata
     id="metadata8"><rdf:RDF><cc:Work
         rdf:about=""><dc:format>image/svg+xml</dc:format><dc:type
           rdf:resource="http://purl.org/dc/dcmitype/StillImage" /></cc:Work></rdf:RDF></metadata><defs
     id="defs6" /><g
     transform="matrix(1.3333333,0,0,-1.3333333,0,113.38667)"
     id="g10"><g
       transform="scale(0.1)"
       id="g12"><path
         id="path14"
         style="fill:#ee2c30;fill-opacity:1;fill-rule:nonzero;stroke:none"
         d="m 425.195,850.391 c 234.832,0 425.2,-190.368 425.2,-425.196 C 850.395,190.367 660.027,0 425.195,0 190.367,0 0,190.367 0,425.195 0,660.023 190.367,850.391 425.195,850.391 v 0" /><path
         id="path16"
         style="fill:#ffffff;fill-opacity:1;fill-rule:nonzero;stroke:none"
         d="m 425.234,708.695 c 38.512,0 75.274,-7.406 110.293,-22.215 33.899,-14.335 63.946,-34.609 90.149,-60.812 26.199,-26.195 46.469,-56.242 60.804,-90.141 14.813,-35.019 22.215,-71.789 22.215,-110.297 0,-38.507 -7.402,-75.273 -22.215,-110.292 -14.335,-33.899 -34.605,-63.946 -60.804,-90.149 -26.203,-26.199 -56.25,-46.469 -90.149,-60.805 -35.019,-14.808 -71.781,-22.214 -110.293,-22.214 -38.511,0 -75.273,7.406 -110.293,22.214 -33.894,14.336 -63.945,34.606 -90.144,60.805 -26.203,26.203 -46.473,56.25 -60.813,90.149 -14.808,35.019 -22.218,71.785 -22.218,110.292 0,38.508 7.41,75.278 22.218,110.297 14.34,33.899 34.61,63.946 60.813,90.141 26.199,26.203 56.25,46.477 90.144,60.812 35.02,14.809 71.782,22.215 110.293,22.215 v 0" /><path
         id="path18"
         style="fill:#231f20;fill-opacity:1;fill-rule:nonzero;stroke:none"
         d="m 282.055,400.207 c 20.375,0 36.578,-16.738 36.578,-36.578 0.504,-20.375 -15.699,-37.617 -36.578,-37.617 -20.375,0 -36.578,16.703 -36.578,37.617 0,19.84 16.707,36.578 36.578,36.578 v 0" /><path
         id="path20"
         style="fill:#231f20;fill-opacity:1;fill-rule:nonzero;stroke:none"
         d="m 542.73,400.207 c 20.883,0 38.125,-17.242 37.622,-38.125 -0.543,-19.871 -17.247,-35.535 -37.114,-35.535 -20.379,0 -37.082,15.664 -37.59,36.043 -0.535,20.375 16.168,37.617 37.082,37.617 v 0" /><path
         id="path22"
         style="fill:#231f20;fill-opacity:1;fill-rule:nonzero;stroke:none"
         d="m 637.844,404.887 h -58.496 l 5.218,-6.805 48.055,-1.047 v -13.566 l -34.988,-12.531 v 0 c 0,-0.543 0.504,-8.348 0.504,-8.891 h -9.399 v 0 c 0,0.543 0,1.582 0,1.582 -2.09,24.555 -20.879,45.434 -45.433,45.434 -24.551,0.539 -44.422,-19.84 -46.508,-43.887 0,-1.039 0,-2.086 -0.508,-2.586 v 0 l -169.809,0.5 v 0 c 0,0.539 0,1.582 0,2.086 0.54,24.047 -20.343,42.301 -44.39,42.301 -23.504,0 -43.344,-18.789 -44.387,-42.301 0,-1.039 0,-2.086 0,-2.586 h -21.961 l 0.543,5.219 v 0 c -0.543,0.504 -1.59,0.504 -2.629,1.546 -1.043,1.04 -1.043,2.625 -1.043,3.129 v 4.719 c 0,0.504 0,3.129 0.535,3.637 0.508,1.039 2.09,1.039 3.137,1.039 h 5.219 l 5.219,50.687 v 0 c 0,2.09 1.047,4.719 2.593,6.266 2.086,2.09 6.266,3.137 6.801,3.137 v 0 l 6.266,0.535 15.66,33.41 v 0 c 3.168,6.297 13.605,13.606 22.465,13.606 h 51.226 l -0.539,-91.942 167.688,-0.543 6.262,6.809 -168.192,0.504 1.043,126.968 299.848,0.504 V 404.887" /><path
         id="path24"
         style="fill:#ffffff;fill-opacity:1;fill-rule:nonzero;stroke:none"
         d="m 282.055,378.246 c 8.351,0 15.156,-6.766 15.156,-14.617 0,-8.895 -6.266,-15.66 -14.652,-15.66 -8.86,-0.535 -15.661,6.765 -15.661,15.121 0,8.39 6.801,15.156 15.157,15.156 v 0" /><path
         id="path26"
         style="fill:#ffffff;fill-opacity:1;fill-rule:nonzero;stroke:none"
         d="m 543.27,378.75 c 8.894,0 15.16,-7.848 14.617,-16.703 0,-7.848 -6.77,-14.113 -14.617,-14.113 -8.348,0 -15.157,5.757 -15.657,14.113 -0.543,8.855 6.766,16.703 15.657,16.703 v 0" /><path
         id="path28"
         style="fill:#ffffff;fill-opacity:1;fill-rule:nonzero;stroke:none"
         d="m 285.184,475.41 26.64,-0.543 v -32.898 l -42.297,0.535 15.657,32.906 v 0" /><path
         id="path30"
         style="fill:#ffffff;fill-opacity:1;fill-rule:nonzero;stroke:none"
         d="m 263.77,475.41 h 11.519 l -15.156,-33.441 h -10.985 l 14.622,33.441 v 0" /></g></g></svg>