<?xml version="1.0" encoding="UTF-8" standalone="no"?>
<svg
   xmlns:dc="http://purl.org/dc/elements/1.1/"
   xmlns:cc="http://creativecommons.org/ns#"
   xmlns:rdf="http://www.w3.org/1999/02/22-rdf-syntax-ns#"
   xmlns:svg="http://www.w3.org/2000/svg"
   xmlns="http://www.w3.org/2000/svg"
   viewBox="0 0 113.38667 113.38667"
   height="113.38667"
   width="113.38667"
   xml:space="preserve"
   id="svg2"
   version="1.1"><metadata
     id="metadata8"><rdf:RDF><cc:Work
         rdf:about=""><dc:format>image/svg+xml</dc:format><dc:type
           rdf:resource="http://purl.org/dc/dcmitype/StillImage" /></cc:Work></rdf:RDF></metadata><defs
     id="defs6" /><g
     transform="matrix(1.3333333,0,0,-1.3333333,0,113.38667)"
     id="g10"><g
       transform="scale(0.1)"
       id="g12"><path
         id="path14"
         style="fill:#ee2c30;fill-opacity:1;fill-rule:nonzero;stroke:none"
         d="m 425.195,850.395 c 234.832,0 425.196,-190.368 425.196,-425.2 C 850.391,190.371 660.027,0 425.195,0 190.367,0 0,190.371 0,425.195 c 0,234.832 190.367,425.2 425.195,425.2 v 0" /><path
         id="path16"
         style="fill:#ffffff;fill-opacity:1;fill-rule:nonzero;stroke:none"
         d="m 425.23,708.695 c 38.508,0 75.278,-7.402 110.297,-22.215 33.899,-14.335 63.946,-34.605 90.149,-60.804 26.199,-26.203 46.465,-56.25 60.797,-90.149 14.816,-35.019 22.218,-71.781 22.218,-110.293 0,-38.511 -7.402,-75.273 -22.218,-110.293 C 672.141,281.047 651.875,250.996 625.676,224.797 599.473,198.594 569.426,178.32 535.527,163.984 500.508,149.18 463.738,141.77 425.23,141.77 c -38.507,0 -75.273,7.41 -110.292,22.214 -33.899,14.336 -63.946,34.61 -90.149,60.813 -26.199,26.199 -46.469,56.25 -60.805,90.144 -14.808,35.02 -22.218,71.782 -22.218,110.293 0,38.512 7.41,75.274 22.218,110.293 14.336,33.899 34.606,63.946 60.805,90.149 26.203,26.199 56.25,46.469 90.149,60.804 35.019,14.813 71.785,22.215 110.292,22.215 v 0" /><path
         id="path18"
         style="fill:#231f20;fill-opacity:1;fill-rule:nonzero;stroke:none"
         d="m 283.961,298.359 h 42.98 v -35.421 h 79.168 v 0 c 0.18,0 3.778,13.859 19.512,14.406 9.32,0.351 17.57,-6.121 20.27,-14.406 h 78.257 v 35.421 h 42.454 v -85.754 h -42.454 v 35.434 h -78.433 v 0 c -2.707,-9.543 -11.313,-15.117 -19.371,-14.941 -8.965,0.172 -17.899,6.121 -19.875,14.941 h -79.528 v -35.434 h -42.98 v 85.754" /><path
         id="path20"
         style="fill:#231f20;fill-opacity:1;fill-rule:nonzero;stroke:none"
         d="m 284.121,311.777 -0.176,8.274 h 282.801 l -0.008,-8.254 -282.617,-0.02" /><path
         id="path22"
         style="fill:#231f20;fill-opacity:1;fill-rule:nonzero;stroke:none"
         d="m 283.512,332.313 0.898,277.195 v 0 c -0.183,5.75 1.25,11.504 4.653,16.355 5.195,8.094 14.332,12.582 23.824,11.867 h 226.566 v 0 c 8.594,0.54 16.836,-3.414 22.02,-10.605 3.047,-4.137 4.66,-9.348 4.66,-14.562 v 0 l 0.847,-280.356 -283.468,0.106 v 0" /><path
         id="path24"
         style="fill:#f6842a;fill-opacity:1;fill-rule:nonzero;stroke:none"
         d="m 311.836,361.816 225.918,-0.027 -0.242,248.285 -226.211,-0.722 0.535,-247.536 v 0" /></g></g></svg>