<?xml version="1.0" encoding="UTF-8" standalone="no"?>
<svg
   xmlns:dc="http://purl.org/dc/elements/1.1/"
   xmlns:cc="http://creativecommons.org/ns#"
   xmlns:rdf="http://www.w3.org/1999/02/22-rdf-syntax-ns#"
   xmlns:svg="http://www.w3.org/2000/svg"
   xmlns="http://www.w3.org/2000/svg"
   viewBox="0 0 113.38667 113.38667"
   height="113.38667"
   width="113.38667"
   xml:space="preserve"
   id="svg2"
   version="1.1"><metadata
     id="metadata8"><rdf:RDF><cc:Work
         rdf:about=""><dc:format>image/svg+xml</dc:format><dc:type
           rdf:resource="http://purl.org/dc/dcmitype/StillImage" /></cc:Work></rdf:RDF></metadata><defs
     id="defs6" /><g
     transform="matrix(1.3333333,0,0,-1.3333333,0,113.38667)"
     id="g10"><g
       transform="scale(0.1)"
       id="g12"><path
         id="path14"
         style="fill:#ee2c30;fill-opacity:1;fill-rule:nonzero;stroke:none"
         d="m 850.391,425.199 c 0,234.824 -190.368,425.196 -425.196,425.196 C 190.367,850.395 0,660.023 0,425.199 0,190.371 190.367,0 425.195,0 660.023,0 850.391,190.371 850.391,425.199 v 0" /><path
         id="path16"
         style="fill:#ffffff;fill-opacity:1;fill-rule:nonzero;stroke:none"
         d="m 708.656,425.199 c 0,156.563 -126.898,283.461 -283.461,283.461 -156.562,0 -283.465,-126.898 -283.465,-283.461 0,-156.566 126.903,-283.465 283.465,-283.465 156.563,0 283.461,126.899 283.461,283.465 v 0" /><path
         id="path18"
         style="fill:#231f20;fill-opacity:1;fill-rule:nonzero;stroke:none"
         d="M 616.535,396.867 H 233.852 v 0 c -15.618,0 -28.329,12.707 -28.329,28.332 0,15.66 12.711,28.367 28.329,28.367 h 382.683 v 0 c 15.664,0 28.367,-12.707 28.367,-28.367 0,-15.625 -12.703,-28.332 -28.367,-28.332 v 0" /><path
         id="path20"
         style="fill:#231f20;fill-opacity:1;fill-rule:nonzero;stroke:none"
         d="m 299.664,486.184 h 58.574 v 12.636 h -41.367 l 40.645,73.618 v 12.925 h -56.559 v -12.636 h 38.52 l -39.813,-72.649 v -13.894" /><path
         id="path22"
         style="fill:#231f20;fill-opacity:1;fill-rule:nonzero;stroke:none"
         d="m 372.023,497.809 c 3.422,-4.25 7.415,-7.379 12.098,-9.504 4.535,-2.231 9.535,-3.242 14.797,-3.242 5.539,0 10.652,1.011 15.336,3.101 4.676,2.125 8.672,5.254 12.055,9.5 3.39,4.145 6.086,9.543 8.101,15.949 1.836,6.371 2.848,14.039 2.848,22.715 v 0 c 0,8.391 -1.012,15.664 -2.848,21.891 -2.015,6.265 -4.711,11.519 -8.101,15.804 -3.383,4.102 -7.379,7.379 -11.914,9.504 -4.676,2.121 -9.649,3.133 -14.942,3.133 -5.543,0 -10.508,-1.012 -15.191,-3.133 -4.676,-2.125 -8.817,-5.254 -12.239,-9.394 -3.386,-4.25 -6.085,-9.649 -7.957,-16.059 -1.98,-6.371 -2.988,-14.074 -2.988,-22.719 0,-8.386 1.008,-15.656 2.988,-21.882 1.872,-6.266 4.571,-11.524 7.957,-15.664 v 0" /><path
         id="path24"
         style="fill:#231f20;fill-opacity:1;fill-rule:nonzero;stroke:none"
         d="m 447.77,486.184 h 47.914 v 12.636 h -32.543 v 86.543 H 447.77 v -99.179" /><path
         id="path26"
         style="fill:#231f20;fill-opacity:1;fill-rule:nonzero;stroke:none"
         d="m 502.773,486.184 h 47.915 v 12.636 h -32.543 v 86.543 h -15.372 v -99.179" /><path
         id="path28"
         style="fill:#231f20;fill-opacity:1;fill-rule:nonzero;stroke:none"
         d="m 226.797,265.07 h 18.109 v 0 c 7.129,0 13.395,1.153 18.758,3.563 5.399,2.269 10.008,5.547 13.641,9.972 3.636,4.391 6.23,9.645 8.14,15.911 1.871,6.265 2.735,13.214 2.735,21.027 v 0 c 0,10.801 -1.516,19.617 -4.645,26.457 -3.094,6.66 -7.129,11.773 -11.844,15.34 -2.882,2.121 -6.265,3.851 -10.007,5.109 -3.891,1.297 -8.536,1.836 -14.004,1.836 H 226.797 V 265.07" /><path
         id="path30"
         style="fill:#231f20;fill-opacity:1;fill-rule:nonzero;stroke:none"
         d="m 304.34,276.734 c 2.988,-4.25 6.519,-7.379 10.621,-9.504 4,-2.269 8.391,-3.273 13,-3.273 4.894,0 9.394,1.004 13.5,3.129 4.141,2.125 7.633,5.258 10.652,9.508 2.989,4.133 5.367,9.535 7.129,15.945 1.621,6.371 2.488,14.039 2.488,22.715 v 0 c 0,8.391 -0.867,15.66 -2.488,21.891 -1.762,6.261 -4.14,11.515 -7.129,15.8 -3.019,4.106 -6.511,7.383 -10.511,9.504 -4.141,2.125 -8.497,3.133 -13.141,3.133 -4.856,0 -9.25,-1.008 -13.352,-3.133 -4.14,-2.121 -7.781,-5.258 -10.769,-9.398 -2.988,-4.246 -5.36,-9.645 -7.016,-16.055 -1.726,-6.371 -2.625,-14.078 -2.625,-22.715 0,-8.386 0.899,-15.66 2.625,-21.886 1.656,-6.266 4.028,-11.52 7.016,-15.661 v 0" /><path
         id="path32"
         style="fill:#231f20;fill-opacity:1;fill-rule:nonzero;stroke:none"
         d="m 370.688,364.285 v -63.394 c 0,-4.825 0.253,-8.93 0.867,-12.352 0.613,-3.562 1.621,-6.836 3.133,-9.934 2.125,-4.574 5.363,-8.097 9.503,-10.691 4.106,-2.699 9.11,-3.957 15.012,-3.957 5.871,0 10.871,1.258 14.977,3.957 4.14,2.703 7.379,6.266 9.504,10.836 1.511,3.098 2.484,6.371 3.093,9.789 0.618,3.422 0.864,7.527 0.864,12.352 v 63.394 H 414.18 v -64.367 c 0,-8.102 -1.227,-13.93 -3.746,-17.785 -2.625,-3.817 -6.371,-5.828 -11.231,-5.828 -10.008,0 -15.012,7.847 -15.012,23.613 v 64.367 h -13.503 v 0" /><path
         id="path34"
         style="fill:#231f20;fill-opacity:1;fill-rule:nonzero;stroke:none"
         d="m 427.969,265.07 h 13.496 l 6.625,24.875 h 31.648 l 6.621,-24.875 h 14.004 l -28.406,99.215 H 457.238 L 427.969,265.07 v 0" /><path
         id="path36"
         style="fill:#231f20;fill-opacity:1;fill-rule:nonzero;stroke:none"
         d="m 506.594,265.07 h 12.488 v 79.344 h 0.254 l 30.891,-79.344 h 16.375 v 99.215 h -12.489 v -79.887 h -0.254 l -30.89,79.887 H 506.594 V 265.07" /><path
         id="path38"
         style="fill:#231f20;fill-opacity:1;fill-rule:nonzero;stroke:none"
         d="m 578.918,265.07 h 44.637 v 12.672 H 592.418 V 310 h 28.258 v 12.672 h -28.258 v 28.98 h 29.77 v 12.633 h -43.27 V 265.07" /><path
         id="path40"
         style="fill:#ffffff;fill-opacity:1;fill-rule:nonzero;stroke:none"
         d="m 382.715,507.348 c -3.852,6.808 -5.688,16.203 -5.688,28.007 0,7.239 0.539,13.36 1.836,18.329 1.153,4.964 2.7,9.105 4.825,12.199 1.98,2.988 4.429,5.293 7.128,6.699 2.7,1.293 5.688,1.981 8.637,1.981 7.129,0 12.531,-3.387 16.348,-10.227 3.707,-6.801 5.543,-16.195 5.543,-28.008 v 0 c 0,-7.234 -0.543,-13.355 -1.692,-18.32 -1.261,-4.973 -2.843,-9.11 -4.824,-12.102 -2.121,-3.129 -4.535,-5.398 -7.273,-6.66 -2.7,-1.437 -5.649,-2.121 -8.637,-2.121 -7.129,0 -12.531,3.383 -16.203,10.223 v 0" /><path
         id="path42"
         style="fill:#ffffff;fill-opacity:1;fill-rule:nonzero;stroke:none"
         d="m 240.297,277.457 v 74.481 h 5.976 v 0 c 4.899,0 9.149,-0.864 12.637,-2.7 3.528,-1.836 6.375,-4.281 8.641,-7.523 2.121,-3.277 3.742,-7.129 4.863,-11.52 1.004,-4.429 1.508,-9.398 1.508,-14.652 v 0 c 0,-11.809 -2.231,-21.168 -6.77,-27.867 -4.601,-6.801 -11.484,-10.219 -20.879,-10.219 h -5.976 v 0" /><path
         id="path44"
         style="fill:#ffffff;fill-opacity:1;fill-rule:nonzero;stroke:none"
         d="m 313.703,286.273 c -3.348,6.801 -5,16.204 -5,28.008 0,7.239 0.5,13.356 1.652,18.328 0.973,4.965 2.375,9.106 4.25,12.2 1.727,2.988 3.852,5.293 6.227,6.695 2.375,1.301 5.004,1.984 7.629,1.984 6.266,0 11.016,-3.386 14.402,-10.226 3.242,-6.801 4.864,-16.199 4.864,-28.008 v 0 c 0,-7.234 -0.508,-13.356 -1.516,-18.324 -1.117,-4.969 -2.484,-9.106 -4.246,-12.098 -1.871,-3.129 -3.996,-5.398 -6.375,-6.656 -2.375,-1.442 -5.004,-2.125 -7.629,-2.125 -6.231,0 -10.984,3.383 -14.258,10.222 v 0" /><path
         id="path46"
         style="fill:#ffffff;fill-opacity:1;fill-rule:nonzero;stroke:none"
         d="m 451.332,302.328 12.887,47.914 h 0.254 l 12.129,-47.914 h -25.27 v 0" /></g></g></svg>