<?xml version="1.0" encoding="UTF-8" standalone="no"?>
<svg
   xmlns:dc="http://purl.org/dc/elements/1.1/"
   xmlns:cc="http://creativecommons.org/ns#"
   xmlns:rdf="http://www.w3.org/1999/02/22-rdf-syntax-ns#"
   xmlns:svg="http://www.w3.org/2000/svg"
   xmlns="http://www.w3.org/2000/svg"
   viewBox="0 0 113.76 113.76"
   height="113.76"
   width="113.76"
   xml:space="preserve"
   id="svg2"
   version="1.1"><metadata
     id="metadata8"><rdf:RDF><cc:Work
         rdf:about=""><dc:format>image/svg+xml</dc:format><dc:type
           rdf:resource="http://purl.org/dc/dcmitype/StillImage" /></cc:Work></rdf:RDF></metadata><defs
     id="defs6" /><g
     transform="matrix(1.3333333,0,0,-1.3333333,0,113.76)"
     id="g10"><g
       transform="scale(0.1)"
       id="g12"><path
         id="path14"
         style="fill:#ffffff;fill-opacity:1;fill-rule:nonzero;stroke:none"
         d="M 426.617,851.809 C 191.82,851.809 1.41797,661.402 1.41797,426.609 1.41797,191.816 191.82,1.41797 426.617,1.41797 c 234.789,0 425.192,190.39803 425.192,425.19103 0,234.793 -190.403,425.2 -425.192,425.2 v 0" /><path
         id="path16"
         style="fill:none;stroke:#231f20;stroke-width:2.83500004;stroke-linecap:butt;stroke-linejoin:round;stroke-miterlimit:4;stroke-dasharray:none;stroke-opacity:1"
         d="M 426.617,851.809 C 191.82,851.809 1.41797,661.402 1.41797,426.609 1.41797,191.816 191.82,1.41797 426.617,1.41797 c 234.789,0 425.192,190.39803 425.192,425.19103 0,234.793 -190.403,425.2 -425.192,425.2 v 0" /><path
         id="path18"
         style="fill:#1a67bb;fill-opacity:1;fill-rule:nonzero;stroke:none"
         d="m 426.652,837.695 c -226.984,0 -411.0504,-184.066 -411.0504,-411.05 0,-226.977 184.0664,-411.0473 411.0504,-411.0473 226.981,0 411.043,184.0703 411.043,411.0473 0,226.984 -184.062,411.05 -411.043,411.05 v 0" /><path
         id="path20"
         style="fill:#ffffff;fill-opacity:1;fill-rule:nonzero;stroke:none"
         d="m 314.652,624.828 45.036,14.363 20.449,-11.664 -9.106,-12.672 -14.183,5.614 -28.727,-8.242 -5.91,-14.258 33.879,-0.504 -19.692,-32.543 209.668,-0.359 9.969,18.253 v 0 c -6.445,-0.253 -19.187,1.508 -25.164,4.426 -4.394,2.121 -8.496,8.141 -5.508,12.133 1.082,1.441 3.563,2.125 5.36,2.379 1.836,0.285 10.695,0.176 12.57,0.176 8.348,-0.11 29.305,2.523 37.441,4.14 v 0 l 16.914,3.957 v 0 c 3.028,0.543 7.059,0.973 9.969,-0.105 2.703,-1.008 5.156,-3.059 6.086,-5.867 0.801,-2.45 0.145,-5.364 -0.859,-7.742 -1.153,-2.661 -5.832,-8.028 -20.41,-11.196 v 0 l -17.786,-1.508 -11.347,-19.875 32.949,-69.804 v 0 c 16.594,6.59 36.535,10.011 54.141,7.633 27.285,-3.637 52.453,-16.668 71.172,-37.047 19.082,-20.731 30.351,-47.661 31.035,-76.032 0.683,-30.488 -10.801,-59.968 -31.571,-82.007 -21.601,-22.856 -51.484,-35.598 -82.589,-35.704 -28.797,-0.117 -56.739,10.547 -77.833,30.418 -10.261,9.676 -18.503,21.485 -24.48,34.305 -5.039,10.805 -8.566,22.285 -10.117,34.129 -0.43,3.633 -0.86,8.816 -1.153,12.414 v 0 l -41.542,0.289 v 0 c -1.329,-3.633 -2.883,-7.379 -5.04,-10.617 -2.226,-3.238 -4.972,-6.231 -8.281,-8.313 -1.262,-0.761 -3.164,-1.765 -4.492,-2.382 v 0 l 4.492,-17.102 9.258,2.238 1.688,-7.343 -24.442,-6.77 -2.305,7.309 8.536,2.625 -4.25,16.632 v 0 c -12.782,-2.304 -26.387,1.7 -34.848,11.555 -7.887,9.254 -10.801,21.856 -7.238,33.516 0.289,0.832 0.718,2.164 1.043,2.988 v 0 L 297.59,500.09 284.883,481.477 v 0 c 28.222,-22.684 48.562,-57.313 46.582,-93.528 -3.457,-64.695 -54.715,-117.363 -118.543,-115.808 -62.57,1.472 -109.766,55.972 -112.18,119.515 -1.4725,37.188 17.571,71.891 47.883,92.84 35.457,24.449 82.977,26.856 121.316,7.383 v 0 l 56.594,89.894 -30.89,1.043 19.007,42.012 v 0" /><path
         id="path22"
         style="fill:#1a67bb;fill-opacity:1;fill-rule:nonzero;stroke:none"
         d="m 225.266,388.02 50.547,79.921 v 0 c 24.945,-19.226 39.054,-47.628 37.546,-78.015 -2.593,-54.106 -43.238,-100.192 -96.589,-100.793 -54.43,-0.656 -97.305,45.215 -99.934,100.398 -1.586,32.328 14.902,62.571 41.039,81.035 18.719,13.18 41.578,18.829 64.332,18.18 13.281,-0.43 28.332,-4.176 39.348,-11.519 v 0 l -51.516,-81 v 0 c -0.105,-0.25 -3.422,-5.403 -3.457,-5.692 -0.758,-3.344 0.684,-6.836 3.457,-8.816 3.598,-2.594 8.457,-2.34 11.774,0.578 v 0 l 3.453,5.723 v 0" /><path
         id="path24"
         style="fill:#1a67bb;fill-opacity:1;fill-rule:nonzero;stroke:none"
         d="m 639.297,407.965 -35.418,72.215 v 0 c 29.734,9.429 62.461,6.047 88.457,-10.946 27.539,-18 45.605,-48.597 44.531,-81.863 -1.73,-54.391 -42.519,-100.73 -96.125,-101.949 -51.121,-1.152 -93.523,38.555 -100.586,89.961 -0.215,1.586 -0.468,3.851 -0.644,5.437 v 0 l 77.648,1.004 v 0 c 3.281,-9.644 12.313,-17.957 22.391,-17.058 10.769,0.937 19.121,9.824 19.551,20.804 0.429,11.34 -8.426,21.278 -19.805,22.395 v 0" /><path
         id="path26"
         style="fill:#1a67bb;fill-opacity:1;fill-rule:nonzero;stroke:none"
         d="m 325.922,547.031 208.512,-0.32 -70.809,-121.828 v 0 c 1.219,2.195 -15.48,5.722 -14.875,3.203 v 0 l -2.48,10.945 7.812,2.34 -2.012,6.59 -23.765,-6.231 1.804,-6.804 7.84,2.019 2.492,-9.793 v 0 c -4.179,-1.261 -9.863,-4.464 -12.964,-7.597 v 0 l -122.11,93.851 20.555,33.625 v 0" /><path
         id="path28"
         style="fill:#1a67bb;fill-opacity:1;fill-rule:nonzero;stroke:none"
         d="m 553.223,545.699 28.945,-59.078 v 0 c -31.824,-16.195 -51.727,-53.277 -57.527,-89.242 v 0 l -39.524,-0.539 v 0 c -0.652,3.527 -1.98,7.812 -3.601,11.051 -1.516,2.882 -3.782,6.117 -6.016,8.386 v 0 l 77.723,129.422 v 0" /><path
         id="path30"
         style="fill:#1a67bb;fill-opacity:1;fill-rule:nonzero;stroke:none"
         d="m 589.98,473.375 34.133,-70.129 v 0 c -1.406,-1.223 -3.097,-3.348 -3.965,-4.965 v 0 l -79.453,-0.863 v 0 c 0.868,31.211 23.262,60.008 49.285,75.957 v 0" /><path
         id="path32"
         style="fill:#1a67bb;fill-opacity:1;fill-rule:nonzero;stroke:none"
         d="m 425.352,399.938 27.363,-19.262 3.312,-12.203 v 0 c -15.988,-3.493 -30.964,9.574 -31.179,26.132 0,1.551 0.289,3.786 0.504,5.333 v 0" /><path
         id="path34"
         style="fill:#1a67bb;fill-opacity:1;fill-rule:nonzero;stroke:none"
         d="m 434.531,413.004 c 2.383,1.867 5.657,3.742 8.535,4.355 v 0 l 3.352,-13.281 -11.887,8.926 v 0" /><path
         id="path36"
         style="fill:#1a67bb;fill-opacity:1;fill-rule:nonzero;stroke:none"
         d="m 452.969,410.051 -2.235,7.918 v 0 c 2.02,0.398 4.786,-0.141 6.766,-0.504 v 0 l -4.531,-7.414 v 0" /><path
         id="path38"
         style="fill:#1a67bb;fill-opacity:1;fill-rule:nonzero;stroke:none"
         d="m 463.664,398.316 6.512,10.836 v 0 c -0.215,-0.289 4.746,-7.707 5.293,-10.91 v 0 l -11.805,0.074 v 0" /><path
         id="path40"
         style="fill:#1a67bb;fill-opacity:1;fill-rule:nonzero;stroke:none"
         d="m 460.598,381.145 13.25,0.105 v 0 c -1.66,-2.883 -3.965,-6.156 -6.485,-8.422 -0.965,-0.863 -2.48,-2.09 -3.562,-2.918 v 0 l -3.203,11.235 v 0" /></g></g></svg>