<?xml version="1.0" encoding="UTF-8" standalone="no"?>
<svg
   xmlns:dc="http://purl.org/dc/elements/1.1/"
   xmlns:cc="http://creativecommons.org/ns#"
   xmlns:rdf="http://www.w3.org/1999/02/22-rdf-syntax-ns#"
   xmlns:svg="http://www.w3.org/2000/svg"
   xmlns="http://www.w3.org/2000/svg"
   viewBox="0 0 113.38667 113.38667"
   height="113.38667"
   width="113.38667"
   xml:space="preserve"
   id="svg2"
   version="1.1"><metadata
     id="metadata8"><rdf:RDF><cc:Work
         rdf:about=""><dc:format>image/svg+xml</dc:format><dc:type
           rdf:resource="http://purl.org/dc/dcmitype/StillImage" /></cc:Work></rdf:RDF></metadata><defs
     id="defs6" /><g
     transform="matrix(1.3333333,0,0,-1.3333333,0,113.38667)"
     id="g10"><g
       transform="scale(0.1)"
       id="g12"><path
         id="path14"
         style="fill:#ee2c30;fill-opacity:1;fill-rule:nonzero;stroke:none"
         d="m 425.195,850.395 c 234.832,0 425.196,-190.368 425.196,-425.2 C 850.391,190.371 660.027,0 425.195,0 190.367,0 0,190.371 0,425.195 c 0,234.832 190.367,425.2 425.195,425.2 v 0" /><path
         id="path16"
         style="fill:#ffffff;fill-opacity:1;fill-rule:nonzero;stroke:none"
         d="m 425.23,708.695 c 38.508,0 75.278,-7.402 110.297,-22.215 33.899,-14.335 63.946,-34.605 90.149,-60.804 26.199,-26.203 46.465,-56.25 60.797,-90.149 14.816,-35.019 22.218,-71.781 22.218,-110.293 0,-38.511 -7.402,-75.273 -22.218,-110.293 C 672.141,281.047 651.875,250.996 625.676,224.797 599.473,198.594 569.426,178.32 535.527,163.984 500.508,149.18 463.738,141.77 425.23,141.77 c -38.507,0 -75.273,7.41 -110.292,22.214 -33.899,14.336 -63.946,34.61 -90.149,60.813 -26.199,26.199 -46.469,56.25 -60.805,90.144 -14.808,35.02 -22.218,71.782 -22.218,110.293 0,38.512 7.41,75.274 22.218,110.293 14.336,33.899 34.606,63.946 60.805,90.149 26.203,26.199 56.25,46.469 90.149,60.804 35.019,14.813 71.785,22.215 110.292,22.215 v 0" /><path
         id="path18"
         style="fill:#231f20;fill-opacity:1;fill-rule:nonzero;stroke:none"
         d="m 516.094,426.164 -6.336,-0.398 v 0 c 0.172,-0.43 0.465,-1.184 0.64,-1.621 v 0 l 0.403,-1.04 v 0 c 1.394,-3.277 2.801,-1.726 3.996,-5.902 1.148,-4.535 0.32,-10.515 -2.707,-12.457 -1.504,-1.012 -4.246,-0.574 -5.215,-0.433 -3.859,0.574 -8.496,2.445 -9.941,6.335 -0.391,1.082 -0.469,2.704 -0.5,3.856 -0.079,2.121 0.148,5.574 0.324,7.699 0.105,0.973 0.215,2.379 0.285,3.348 v 0 l -4.531,-0.18 -6.196,57.637 -23.972,23.004 2.586,-62.711 20.492,-43.813 -9.004,-5.543 23.473,-63 50.187,-90.144 -3.711,-2.344 v 0 c 0.149,-0.391 0.469,-0.969 0.723,-1.289 v 0 l 1.973,-1.73 v 0 c 0.722,-0.614 1.367,-1.661 1.835,-2.489 0.547,-1.047 1.192,-2.375 1.407,-3.484 0.144,-0.688 0.183,-2.168 0.215,-2.817 0,-0.425 0.109,-1.98 0.109,-2.41 0.074,-0.754 0.105,-1.726 0.144,-2.48 v 0 l -22.218,-8.645 -24.364,-0.066 -0.144,3.379 v 0 c -0.039,0.429 -0.039,0.937 0,1.367 0.039,0.793 0.254,1.555 0.574,2.273 0.32,0.825 0.867,1.614 1.555,2.192 0.75,0.652 2.183,1.258 3.094,1.621 0.75,0.293 2.265,0.867 3.015,1.082 v 0 l 2.52,0.684 v 0 c 0.793,0.253 1.664,0.578 2.414,1.003 0.683,0.403 1.367,0.903 1.836,1.555 0.398,0.535 0.656,1.289 0.871,1.942 0.172,0.539 0.359,1.293 0.496,1.867 v 0 l -4.57,-1.504 -49.25,79.699 -34.09,72.074 -45.43,-150.738 -2.594,0.652 -4.39,-19.55 -42.735,12.46 v 0 c -0.179,0.395 -0.429,1.008 -0.468,1.438 -0.071,0.645 0.214,1.406 0.503,2.02 0.403,0.824 0.973,1.613 1.661,2.23 0.867,0.789 2.05,1.297 3.164,1.621 1.191,0.359 2.453,0.535 3.672,0.613 v 0 l 5.043,0.071 v 0 c 0.753,0.039 2.953,0.144 3.707,0.172 0.867,0.043 2.628,0.148 3.492,0.226 0.937,0.067 2.304,0.281 3.133,0.793 0.539,0.391 1.007,0.965 1.402,1.543 0.648,1.004 1.152,2.625 1.476,3.75 v 0 l -11.734,5.066 34.453,145.192 -5.508,2.34 8.672,52.847 -13.715,37.981 -8.605,-12.528 -2.266,-3.207 -3.527,-2.878 -40.648,-33.012 -2.446,2.953 v 0 c -0.105,-0.359 -0.289,-0.898 -0.359,-1.293 -0.215,-0.758 -0.36,-1.621 -0.469,-2.379 v 0 l -0.355,-2.41 v 0 c -0.075,-0.652 -0.254,-1.582 -0.578,-2.16 -0.329,-0.574 -1.012,-1.082 -1.586,-1.442 -0.754,-0.433 -1.618,-0.828 -2.481,-0.937 v 0 l -1.805,-0.031 v 0 c -1.8,-0.114 -3.457,-1.411 -4.64,-2.633 v 0 l -2.305,-2.375 v 0 c -0.824,-0.754 -1.91,-1.547 -2.949,-1.762 -1.91,-0.359 -3.856,0.684 -4.758,2.34 -1.762,3.234 -0.504,7.879 0.254,11.551 0.363,1.8 0.937,3.82 1.805,5.441 0.75,1.367 1.687,2.594 2.875,3.563 v 0 l 2.918,2.195 2.3,1.98 v 0 c 0.543,0.43 1.372,1.004 1.95,1.403 v 0 l -2.305,3.785 40.066,36.281 17.571,68.942 v 0 c 2.371,9.543 6.695,9.793 10.367,10.91 v 0 l 19.871,6.121 v 0 c 0.32,3.269 -2.379,6.047 -5.367,6.66 -0.535,0.105 -3.168,0.609 -3.703,0.754 -1.516,0.433 -3.352,0.933 -4.43,2.195 -1.621,1.695 -0.832,6.809 -1.152,8.676 0,0.394 0.074,2.019 -1.121,2.519 v 0 l -1.184,0.543 v 0 c -0.469,0.29 -0.824,0.75 -1.008,1.329 -0.144,0.507 -0.105,1.086 0,1.621 0.324,1.047 1.766,2.738 2.375,3.672 0.508,0.832 1.227,1.984 1.727,2.808 -0.36,1.117 -0.535,2.485 -0.5,3.637 0,1.687 0.211,4.215 0.359,5.902 v 0 l -11.305,1.012 0.973,5.254 11.09,0.394 v 0 c 0.176,1.153 0.75,3.707 1.078,4.789 v 0 l 0.934,3.239 v 0 c 0.539,1.261 2.269,6.914 3.027,8.027 0.898,1.301 3.234,3.352 4.715,3.426 2.125,0.14 5.832,-0.942 7.808,-1.481 1.77,-0.504 4.469,-1.722 6.305,-1.722 0.574,0.031 2.121,0.5 2.699,0.64 3.129,0.973 6.801,1.196 10.078,0.832 2.231,-0.254 4.676,-1.586 5.614,-3.746 1.371,-3.019 1.836,-7.633 2.629,-10.652 v 0 l 7.128,-0.723 -0.363,-7.054 -8.777,0.039 v 0 c 0.25,-1.95 0.57,-4.215 0.539,-6.161 -0.074,-2.953 -0.941,-6.082 -1.871,-8.816 v 0 l -4.395,-9.687 v 0 c -0.468,-2.266 0.254,-4.645 1.407,-6.661 0.714,-1.222 1.835,-2.375 2.804,-3.238 v 0 l 6.446,0.645 v 0 c 4.25,0.289 6.835,-1.078 10.976,-5.254 v 0 l 59.543,-61.918 v 0 c 3.789,-4.141 6.914,-11.09 7.703,-18.004 v 0 l 7.102,-68.758 v 0" /></g></g></svg>