<?xml version="1.0" encoding="UTF-8" standalone="no"?>
<svg
   xmlns:dc="http://purl.org/dc/elements/1.1/"
   xmlns:cc="http://creativecommons.org/ns#"
   xmlns:rdf="http://www.w3.org/1999/02/22-rdf-syntax-ns#"
   xmlns:svg="http://www.w3.org/2000/svg"
   xmlns="http://www.w3.org/2000/svg"
   viewBox="0 0 113.77333 113.77333"
   height="113.77333"
   width="113.77333"
   xml:space="preserve"
   id="svg2"
   version="1.1"><metadata
     id="metadata8"><rdf:RDF><cc:Work
         rdf:about=""><dc:format>image/svg+xml</dc:format><dc:type
           rdf:resource="http://purl.org/dc/dcmitype/StillImage" /></cc:Work></rdf:RDF></metadata><defs
     id="defs6" /><g
     transform="matrix(1.3333333,0,0,-1.3333333,0,113.77333)"
     id="g10"><g
       transform="scale(0.1)"
       id="g12"><path
         id="path14"
         style="fill:#ffffff;fill-opacity:1;fill-rule:nonzero;stroke:none"
         d="M 546.977,833.883 C 440.664,865.172 334.961,855.641 235.984,805.832 137.012,755.984 66.3789,676.754 28.2188,572.738 -9.94141,468.73 -7.32031,362.598 35.9141,260.602 79.1797,158.566 153.629,82.8984 254.941,38.0078 490.691,-66.4297 764.387,61.5703 835.383,309.473 899.617,533.824 770.824,767.992 546.977,833.883 v 0" /><path
         id="path16"
         style="fill:none;stroke:#231f20;stroke-width:2.83500004;stroke-linecap:butt;stroke-linejoin:round;stroke-miterlimit:4;stroke-dasharray:none;stroke-opacity:1"
         d="M 546.977,833.883 C 440.664,865.172 334.961,855.641 235.984,805.832 137.012,755.984 66.3789,676.754 28.2188,572.738 -9.94141,468.73 -7.32031,362.598 35.9141,260.602 79.1797,158.566 153.629,82.8984 254.941,38.0078 490.691,-66.4297 764.387,61.5703 835.383,309.473 899.617,533.824 770.824,767.992 546.977,833.883 v 0" /><path
         id="path18"
         style="fill:#1a67bb;fill-opacity:1;fill-rule:nonzero;stroke:none"
         d="m 542.973,820.289 c 43.941,-12.934 84.425,-32.516 121.453,-58.742 35.804,-25.359 66.785,-55.774 92.933,-91.25 25.879,-35.106 45.7,-73.344 59.45,-114.707 13.945,-41.953 20.918,-84.949 20.918,-128.992 0,-38.301 -5.325,-76.039 -15.969,-113.219 -12.82,-44.781 -32.457,-85.957 -58.899,-123.531 -25.445,-36.16 -56.07,-67.426 -91.867,-93.7855 C 635.746,70.1055 597.328,50.2383 555.727,36.4609 513.734,22.5508 470.754,15.5898 426.777,15.5898 c -57.496,0 -112.859,11.793 -166.093,35.379 C 161.77,94.7891 91.1953,166.508 48.9609,266.129 26.7148,318.609 15.5898,371.848 15.5898,425.852 c 0,47.554 8.6446,94.886 25.9336,142.007 37.2539,101.555 104.2036,176.664 200.8356,225.309 59.008,29.715 119.903,44.566 182.668,44.566 39.118,0 78.43,-5.816 117.946,-17.445 v 0" /><path
         id="path20"
         style="fill:#ffffff;fill-opacity:1;fill-rule:nonzero;stroke:none"
         d="m 357.297,332.406 27.883,9.125 12.668,-7.41 -5.645,-8.035 -8.769,3.562 -17.809,-5.238 -3.66,-9.051 21,-0.316 -12.199,-20.648 129.894,-0.243 6.18,11.602 v 0 c -3.996,-0.176 -11.895,0.941 -15.59,2.793 -2.719,1.359 -5.273,5.168 -3.422,7.723 0.668,0.91 2.215,1.324 3.324,1.5 1.145,0.175 6.618,0.105 7.793,0.105 5.176,-0.07 18.145,1.609 23.184,2.617 v 0 l 10.484,2.516 v 0 c 1.879,0.351 4.364,0.629 6.18,-0.067 1.68,-0.628 3.195,-1.918 3.766,-3.703 0.504,-1.57 0.097,-3.425 -0.536,-4.925 -0.71,-1.68 -3.601,-5.102 -12.636,-7.094 v 0 l -11.024,-0.977 -7.019,-12.613 20.394,-44.297 v 0 c 10.285,4.191 22.649,6.359 33.567,4.856 16.898,-2.309 32.488,-10.59 44.082,-23.512 11.824,-13.176 18.812,-30.254 19.218,-48.25 0.434,-19.352 -6.691,-38.078 -19.558,-52.055 -13.371,-14.5 -31.883,-22.601 -51.172,-22.676 -17.836,-0.066 -35.141,6.711 -48.211,19.325 -6.348,6.144 -11.457,13.621 -15.152,21.761 -3.125,6.848 -5.309,14.149 -6.285,21.664 -0.266,2.305 -0.536,5.586 -0.704,7.895 v 0 l -25.734,0.172 v 0 c -0.844,-2.305 -1.785,-4.68 -3.125,-6.742 -1.379,-2.063 -3.094,-3.946 -5.144,-5.274 -0.77,-0.488 -1.95,-1.121 -2.79,-1.504 v 0 l 2.79,-10.867 5.75,1.438 1.039,-4.684 -15.153,-4.297 -1.41,4.645 5.274,1.679 -2.622,10.551 v 0 c -7.929,-1.469 -16.363,1.078 -21.601,7.336 -4.875,5.867 -6.688,13.871 -4.469,21.277 0.164,0.524 0.434,1.364 0.633,1.887 v 0 l -74.25,59.285 -7.863,-11.804 v 0 c 17.468,-14.395 30.074,-36.372 28.863,-59.364 -2.148,-41.047 -33.902,-74.48 -73.449,-73.504 -38.77,0.942 -68,35.532 -69.512,75.848 -0.906,23.613 10.887,45.625 29.664,58.937 21.977,15.512 51.406,17.051 75.16,4.684 v 0 l 35.078,57.051 -19.148,0.664 11.793,26.652 v 0" /><path
         id="path22"
         style="fill:#1a67bb;fill-opacity:1;fill-rule:nonzero;stroke:none"
         d="m 301.875,182.133 31.313,50.73 v 0 c 15.46,-12.195 24.195,-30.218 23.253,-49.508 -1.613,-34.339 -26.777,-63.582 -59.839,-63.968 -33.731,-0.418 -60.274,28.687 -61.922,63.726 -0.973,20.504 9.242,39.684 25.433,51.422 11.59,8.352 25.77,11.949 39.848,11.531 8.23,-0.281 17.574,-2.652 24.394,-7.3 v 0 L 292.438,187.34 v 0 c -0.071,-0.141 -2.122,-3.422 -2.157,-3.598 -0.468,-2.133 0.442,-4.332 2.157,-5.59 2.214,-1.644 5.238,-1.504 7.289,0.348 v 0 l 2.148,3.633 v 0" /><path
         id="path24"
         style="fill:#1a67bb;fill-opacity:1;fill-rule:nonzero;stroke:none"
         d="m 558.398,194.773 -21.937,45.832 v 0 c 18.414,5.977 38.707,3.844 54.801,-6.953 17.062,-11.418 28.254,-30.847 27.582,-51.949 -1.074,-34.515 -26.344,-63.933 -59.535,-64.699 -31.688,-0.734 -57.961,24.453 -62.329,57.082 -0.132,1.019 -0.3,2.449 -0.402,3.457 v 0 l 48.113,0.633 v 0 c 2.02,-6.113 7.629,-11.387 13.872,-10.832 6.656,0.597 11.832,6.254 12.101,13.207 0.27,7.199 -5.211,13.523 -12.266,14.222 v 0" /><path
         id="path26"
         style="fill:#1a67bb;fill-opacity:1;fill-rule:nonzero;stroke:none"
         d="m 364.234,283.004 129.184,-0.211 -43.883,-77.313 v 0 c 0.778,1.399 -9.574,3.633 -9.203,2.024 v 0 l -1.547,6.953 4.84,1.473 -1.242,4.187 -14.715,-3.945 1.105,-4.332 4.875,1.289 1.543,-6.215 v 0 c -2.589,-0.805 -6.113,-2.832 -8.027,-4.824 v 0 l -75.664,59.57 12.734,21.344 v 0" /><path
         id="path28"
         style="fill:#1a67bb;fill-opacity:1;fill-rule:nonzero;stroke:none"
         d="m 505.055,282.16 17.937,-37.488 v 0 c -19.719,-10.27 -32.051,-33.817 -35.648,-56.629 v 0 l -24.492,-0.352 v 0 c -0.403,2.235 -1.211,4.961 -2.215,7.02 -0.946,1.82 -2.356,3.883 -3.735,5.316 v 0 l 48.153,82.133 v 0" /><path
         id="path30"
         style="fill:#1a67bb;fill-opacity:1;fill-rule:nonzero;stroke:none"
         d="m 527.875,236.301 21.133,-44.508 v 0 c -0.871,-0.77 -1.914,-2.133 -2.449,-3.145 v 0 l -49.223,-0.562 v 0 c 0.535,19.812 14.414,38.082 30.539,48.215 v 0" /><path
         id="path32"
         style="fill:#1a67bb;fill-opacity:1;fill-rule:nonzero;stroke:none"
         d="m 425.852,189.727 16.964,-12.227 2.051,-7.754 v 0 c -9.91,-2.203 -19.183,6.078 -19.316,16.594 0,0.98 0.168,2.41 0.301,3.387 v 0" /><path
         id="path34"
         style="fill:#1a67bb;fill-opacity:1;fill-rule:nonzero;stroke:none"
         d="m 431.523,197.887 c 1.481,1.191 3.497,2.379 5.278,2.765 v 0 l 2.082,-8.425 -7.36,5.66 v 0" /><path
         id="path36"
         style="fill:#1a67bb;fill-opacity:1;fill-rule:nonzero;stroke:none"
         d="m 442.984,196.078 -1.379,5.031 v 0 c 1.243,0.246 2.958,-0.101 4.2,-0.312 v 0 l -2.821,-4.719 v 0" /><path
         id="path38"
         style="fill:#1a67bb;fill-opacity:1;fill-rule:nonzero;stroke:none"
         d="m 449.563,188.629 4.031,6.879 v 0 c -0.137,-0.176 2.953,-4.887 3.293,-6.914 v 0 l -7.324,0.035 v 0" /><path
         id="path40"
         style="fill:#1a67bb;fill-opacity:1;fill-rule:nonzero;stroke:none"
         d="m 447.727,177.754 8.195,0.07 v 0 c -1.004,-1.816 -2.449,-3.914 -3.996,-5.344 -0.61,-0.562 -1.543,-1.328 -2.219,-1.851 v 0 l -1.98,7.125 v 0" /><path
         id="path42"
         style="fill:#ffffff;fill-opacity:1;fill-rule:nonzero;stroke:none"
         d="m 358.367,757.543 c 0,0 -6.765,6.828 1.184,7.996 7.949,1.141 7.137,0 8.828,5.789 1.711,5.793 3.523,8.633 6.262,8.391 2.761,-0.285 4.164,1.804 5.98,0.988 1.859,-0.746 3.789,-1.781 5.734,-1.914 1.977,-0.109 7.711,0.773 9,0 1.293,-0.75 3.922,-1.785 3.922,-4.621 0,-2.844 -0.941,-11.59 1.055,-12.512 1.926,-0.922 5.953,-2.597 5.43,-5.281 -0.528,-2.711 -1.93,-2.602 -4.664,-2.602 -2.762,0 -4.45,-0.636 -4.297,-2.312 0.133,-1.676 1.297,-4.516 1.187,-7.578 -0.175,-3.125 -2.519,-9.442 -4.582,-12.399 -2.078,-2.949 -1.156,-4.113 -1.047,-5.148 0.129,-1.035 1.418,-1.914 2.477,-2.844 1.047,-0.902 19.535,-12.726 22.398,-14.82 2.871,-2.067 7.844,-4.778 8.719,-14.051 0.942,-9.266 0.133,-14.82 2.344,-19.332 2.211,-4.516 3.789,-16.625 5.215,-26.184 1.445,-9.496 2.625,-17.531 2.734,-20.367 0.133,-2.844 2.344,-7.465 2.871,-8.746 0.524,-1.281 11.715,-24.906 14.215,-28.496 0,0 1.285,-2.203 0.238,-2.844 -1.05,-0.633 -1.578,-2.07 0.282,-2.703 1.816,-0.64 3.636,-3.726 4.406,-5.156 0.808,-1.387 1.969,-4.758 1.051,-6.563 -0.946,-1.828 -3.395,-3.851 -1.426,-6.054 1.953,-2.203 3.351,-3.367 4.683,-5.395 1.297,-2.09 5.739,-9.187 6.266,-10.703 0.484,-1.562 1.641,-2.996 3.219,-3.238 1.578,-0.239 7.312,-0.922 10.054,-1.914 2.715,-1.059 6.743,-3.367 8.739,-3.367 1.926,0 5.32,0 8.586,-1.036 3.242,-1.039 3.39,-0.113 3.39,0.922 0,0.992 0.243,2.156 -1.16,2.664 -1.465,0.528 -4.441,1.563 -5.387,3.766 -0.875,2.203 -2.843,5.551 -1.554,9.668 0,0 -1.289,6.187 0.922,9.379 2.211,3.238 6.261,5.554 7.664,5.554 1.465,0 3.394,-1.035 4.972,-0.511 1.578,0.511 2.211,1.148 3.918,0.511 1.688,-0.64 3.746,-1.785 5.211,-1.914 1.403,-0.16 3.219,-0.402 4.274,-1.148 1.05,-0.816 3.394,-1.961 4.312,-3.633 0.899,-1.695 0.899,-2.449 0.766,-5.922 -0.11,-3.484 -0.11,-7.23 0.527,-8.394 0.653,-1.168 0.653,-3.875 -0.394,-4.864 -1.008,-1.035 -4.055,-2.734 -5.586,-2.734 -1.575,0 -1.836,-0.504 -1.836,-1.43 0,-0.878 -0.504,-3.589 -0.266,-4.363 0.266,-0.789 0.266,-1.824 1.817,-2.465 1.578,-0.64 7.558,-4.359 9.527,-6.562 1.949,-2.18 5.453,-5.266 5.738,-6.055 0.242,-0.773 -0.523,-1.281 -0.523,-1.281 0,0 0,-0.922 1.051,-2.598 1.003,-1.691 3.761,-6.668 4.687,-10.195 0.898,-3.481 3.875,-13.141 3.875,-15.063 0,-1.914 1.969,-8.914 1.969,-9.906 0,-1.035 -1.156,-0.797 -1.156,-0.797 0,0 0.765,-3.082 0.765,-4.511 0,-1.411 -0.133,-2.446 -1.293,-3.086 -1.183,-0.633 -1.183,-1.668 -2.476,-1.668 -1.313,0 -0.918,0.632 -2.211,1.273 -1.293,0.641 -2.496,0.926 -2.211,2.07 0.238,1.168 0.109,4.36 0.109,5.043 0,0.641 -0.242,1.274 -0.766,1.274 -0.527,0 -1.82,0.64 -1.82,2.562 0,1.957 -0.68,6.075 -1.051,7.465 -0.394,1.449 0.239,3.871 -0.394,5.039 -0.656,1.164 -5.848,7.113 -6.789,8.789 -0.879,1.672 -1.684,0.106 -1.684,-0.797 0,-0.879 0.153,-9.269 0.918,-10.828 0.766,-1.527 0,-3.593 1.465,-6.676 1.402,-3.105 4.668,-16.652 5.191,-18.566 0.485,-1.937 1.954,-4.93 2.059,-7.75 0.133,-2.84 1.578,-6.961 -2.211,-6.848 -3.766,0.176 -5.851,-1.386 -9.242,-0.246 -3.395,1.168 -3.633,0 -3.527,-1.429 0.132,-1.387 0.66,-6.539 1.578,-8.985 0.898,-2.465 -1.16,-10.062 0.132,-12.66 1.293,-2.555 2.872,-3.043 3.262,-3.836 0.528,-1.035 0.899,-3.629 -1.445,-7.746 -2.344,-4.121 -9.484,-6.082 -10.774,-1.809 -1.335,4.231 0.243,5.047 1.161,6.43 0.898,1.453 0.898,3.371 -0.68,4.758 -1.535,1.43 -4.688,9.18 -5.344,10.988 -0.633,1.805 -3.637,11.078 -4.269,13.016 -0.657,1.937 -1.688,3.476 -2.739,1.273 -1.05,-2.175 -3.523,-7.332 -3.109,-9.668 0.348,-2.308 1.008,-4.621 1.008,-6.824 0,-2.203 -1.184,-10.703 -1.949,-13.012 -0.766,-2.316 0,-2.953 0.414,-4.406 0.351,-1.387 2.343,-4.23 0.527,-5.508 -1.863,-1.32 -11.867,-5.308 -13.445,-5.836 -1.535,-0.484 -3.77,2.204 -2.758,4.914 1.047,2.727 4.441,4.754 4.969,5.79 0.523,1.035 0.523,1.457 -0.239,4.117 -0.812,2.711 -1.453,14.578 -0.922,16.386 0.528,1.805 0.922,5.153 -0.769,6.317 -1.707,1.148 -2.098,4.781 -1.707,6.695 0.375,1.918 1.293,8.281 1.055,9.274 -0.289,1.035 0.238,2.203 -1.446,2.73 -1.711,0.508 -9.902,4.621 -10.539,7.332 -0.652,2.731 0,5.152 2.063,7.754 2.097,2.555 9.922,14.555 11.582,20.105 1.687,5.551 3.265,12.375 3.265,16.254 0,3.829 0.286,6.563 -1.054,7.196 -1.289,0.64 -15.219,7.359 -17.672,7.226 -2.492,-0.113 -11.629,5.043 -13.051,6.957 -1.402,1.961 -3.508,3.348 -6.371,13.258 -2.871,9.953 -2.211,10.461 -4.559,10.59 -2.34,0.113 -7.945,2.07 -9.523,5.156 -1.535,3.102 1.859,6.961 -1.184,5.946 -2.976,-1.036 -3.222,-1.958 -5.32,1.652 -2.063,3.633 -13.297,29.508 -16.672,40.738 -3.391,11.231 -3.234,5.152 -3.234,3.238 0,-1.957 1.179,-13.828 2.054,-16.25 0.942,-2.445 0.809,-6.035 1.055,-9.8 0.238,-3.743 1.57,-16.895 2.625,-22.047 1.008,-5.149 -0.922,-3.586 -2.625,-4.246 -1.691,-0.641 -2.105,-1.938 -1.93,-3 0.11,-0.989 -2.105,-19.153 -2.519,-22.922 -0.352,-3.723 -3.637,-24.598 -4.027,-26.403 -0.372,-1.808 -0.372,-2.71 0,-4.406 0.39,-1.672 6.132,-33.758 6.132,-36.863 0,-3.082 2.758,-15.699 2.868,-17.66 0.128,-1.914 -0.399,-1.809 -0.77,-2.949 -0.395,-1.168 0.246,-1.563 0.898,-3.239 0.637,-1.676 3.375,-2.316 2.981,-5.527 -0.371,-3.238 -1.93,-3.984 -3.633,-6.188 -1.691,-2.203 -5.215,-12.089 -11.191,-14.929 -6,-2.844 -10.692,-1.211 -11.739,1.625 -1.054,2.843 -0.527,7.008 2.977,8.394 0,0 1.859,1.035 2.102,2.071 0.281,1.054 0,2.441 -1.403,2.57 -1.465,0.156 -1.711,4.676 -3.285,15.223 -1.555,10.57 -4.137,22.285 -5.715,27.832 -1.574,5.55 -7.426,29.64 -8.082,31.449 -0.633,1.808 -1.16,6.957 -0.765,10.195 0.371,3.238 -0.395,24.883 -2.629,15.215 -2.215,-9.668 -6.789,-25.523 -7.664,-28.496 -0.922,-2.949 -1.184,-4.625 -1.184,-5.942 0,-1.281 1.293,-48.71 0.523,-70.757 0,0 0.133,-1.278 -1.027,-1.387 -1.184,-0.176 0.633,-2.492 0.879,-3.656 0.281,-1.145 2.344,-5.547 -1.164,-7.067 -3.524,-1.543 -8.848,-2.183 -12.484,-4.273 -3.676,-2.024 -13.161,-4.121 -19.008,-1.918 -5.891,2.203 0.113,11.476 8.715,10.945 0,0 3.503,0.399 0.64,1.168 0,0 -1.164,0.11 -1.054,2.836 0.128,2.711 0.128,41.621 -1.27,57.371 -1.465,15.746 -3.809,33.231 -0.285,49.086 3.504,15.879 4.707,33.649 2.496,34.043 -2.211,0.402 -4.973,0.641 -4.441,4.516 0.519,3.879 3.109,26.05 4.289,33.008 1.16,6.937 5.078,13.019 4.839,17.027 -0.285,3.984 -0.414,23.32 -3.808,16.734 -3.375,-6.562 -5.567,-9.511 -5.719,-17.793 -0.133,-8.215 -3.004,-22.398 -4.051,-25.769 -1.008,-3.344 -2.98,-16.645 -3.109,-20.258 -0.109,-3.59 -1.926,-1.676 -3.266,-1.539 -1.293,0.152 -2.976,1.32 -3.39,-0.883 -0.352,-2.203 0.519,-2.203 0.941,-4.269 0.391,-2.047 1.402,-6.036 -2.344,-9.008 -3.812,-2.996 -4.968,-6.192 -10.293,-5.551 -5.347,0.641 -6.922,5.152 -6.394,10.043 0.523,4.91 1.945,8.258 3.762,10.066 1.867,1.782 1.207,2.598 0.156,2.95 -1.047,0.394 -3.395,-0.114 -3.153,2.992 0.282,3.086 4.204,29.883 4.688,36.207 0.519,6.297 -0.113,20.765 3.043,29.636 3.09,8.899 9.348,32.637 10.926,43.957 1.535,11.344 7.668,18.059 11.48,20.239 3.742,2.203 28.379,11.363 29.672,12.64 1.27,1.301 3.262,3.743 1.684,6.934 -1.578,3.238 -4.555,7.008 -4.555,11.633 0,4.644 0.527,8.738 -1.051,9.398 -1.531,0.664 -4.051,1.832 -4.293,2.469 v 0" /></g></g></svg>