<?xml version="1.0" encoding="UTF-8" standalone="no"?>
<svg
   xmlns:dc="http://purl.org/dc/elements/1.1/"
   xmlns:cc="http://creativecommons.org/ns#"
   xmlns:rdf="http://www.w3.org/1999/02/22-rdf-syntax-ns#"
   xmlns:svg="http://www.w3.org/2000/svg"
   xmlns="http://www.w3.org/2000/svg"
   viewBox="0 0 113.38667 113.38667"
   height="113.38667"
   width="113.38667"
   xml:space="preserve"
   id="svg2"
   version="1.1"><metadata
     id="metadata8"><rdf:RDF><cc:Work
         rdf:about=""><dc:format>image/svg+xml</dc:format><dc:type
           rdf:resource="http://purl.org/dc/dcmitype/StillImage" /></cc:Work></rdf:RDF></metadata><defs
     id="defs6" /><g
     transform="matrix(1.3333333,0,0,-1.3333333,0,113.38667)"
     id="g10"><g
       transform="scale(0.1)"
       id="g12"><path
         id="path14"
         style="fill:#ee2c30;fill-opacity:1;fill-rule:nonzero;stroke:none"
         d="m 425.195,850.391 c 234.832,0 425.2,-190.368 425.2,-425.196 C 850.395,190.367 660.027,0 425.195,0 190.367,0 0,190.367 0,425.195 0,660.023 190.367,850.391 425.195,850.391 v 0" /><path
         id="path16"
         style="fill:#ffffff;fill-opacity:1;fill-rule:nonzero;stroke:none"
         d="m 143.887,460.648 h 562.605 v 0 c -3.168,25.778 -9.859,50.723 -20.047,74.844 -14.332,33.879 -34.597,63.938 -60.804,90.149 -26.207,26.207 -56.27,46.472 -90.149,60.8 -35.023,14.793 -71.781,22.211 -110.301,22.211 -38.519,0 -75.273,-7.418 -110.304,-22.211 -33.875,-14.328 -63.934,-34.593 -90.145,-60.8 -26.172,-26.211 -46.437,-56.27 -60.801,-90.149 -10.191,-24.121 -16.886,-49.066 -20.054,-74.844 v 0" /><path
         id="path18"
         style="fill:#ffffff;fill-opacity:1;fill-rule:nonzero;stroke:none"
         d="M 706.492,389.766 H 143.887 v 0 c 3.168,-25.778 9.863,-50.723 20.054,-74.879 14.364,-33.875 34.629,-63.934 60.801,-90.145 26.211,-26.172 56.27,-46.441 90.145,-60.804 35.031,-14.797 71.785,-22.215 110.304,-22.215 38.52,0 75.278,7.418 110.301,22.215 33.879,14.363 63.942,34.632 90.149,60.804 26.207,26.211 46.472,56.27 60.804,90.145 10.188,24.156 16.879,49.101 20.047,74.879 v 0" /><path
         id="path20"
         style="fill:#231f20;fill-opacity:1;fill-rule:nonzero;stroke:none"
         d="m 541.18,529.48 v -35.242 c 0,-0.609 0,-1.258 -0.106,-1.91 -0.035,-0.609 -0.179,-1.512 -0.539,-2.051 -0.394,-0.543 -1.082,-0.898 -1.726,-1.078 -0.684,-0.179 -1.512,-0.219 -2.2,-0.219 h -13.82 v 0 c -0.543,0 -1.226,0.04 -1.805,0.18 -0.609,0.18 -1.293,0.434 -1.687,0.938 -0.328,0.394 -0.508,0.937 -0.574,1.406 -0.149,0.719 -0.215,1.476 -0.215,2.191 v 32.149 c -0.797,-0.074 -2.199,-0.36 -2.957,-0.43 -12.383,-1.941 -32.832,-2.559 -45.395,-2.809 -7.308,-0.179 -39.097,-0.828 -46.441,-0.828 -14.074,0 -29.125,0.395 -43.238,0.938 -13.172,0.504 -31.317,1.441 -44.497,2.16 v 0 l -3.019,0.145 v -32.762 c -0.109,-0.828 -0.363,-1.656 -0.867,-2.235 -0.469,-0.503 -1.043,-0.824 -1.688,-1.003 -0.254,-0.04 -2.23,-0.04 -2.484,-0.04 h -13 v 0 c -0.215,0 -1.402,0 -1.656,0.04 -0.715,0.14 -1.473,0.468 -1.977,1.043 -0.508,0.578 -0.723,1.476 -0.797,2.234 0,0.18 0,1.867 0,2.121 v 35.387 l -9.32,-0.035 v 0 c -0.324,0 -1.871,-0.075 -2.199,0.035 -0.789,0.144 -1.473,0.543 -2.082,1.117 -0.508,0.504 -0.868,1.223 -1.047,1.945 -0.215,0.863 -0.18,2.555 -0.145,3.524 0.254,3.636 0.071,8.859 -0.07,12.531 -0.18,4.105 -0.469,9.933 -0.828,14.004 -0.504,5.328 -1.367,10.765 -2.735,15.945 -0.289,1.086 -1.121,4 -1.261,5.078 -0.399,2.489 -0.289,5.039 0.109,7.528 0.469,2.66 1.293,5.359 2.555,7.773 2.015,3.852 5.109,7.094 8.75,9.613 2.551,1.727 5.539,3.168 8.601,3.742 0.535,0.145 1.368,0.215 1.946,0.325 v 0 l 36.929,48.347 v 0 c 0.438,0.539 0.868,1.043 1.336,1.512 0.539,0.508 1.192,1.043 1.875,1.371 0.864,0.395 2.016,0.535 2.989,0.57 0.394,0 1.761,0 2.191,0 h 134.426 v 0 c 0.679,0 1.586,0 2.269,-0.035 0.864,-0.07 1.867,-0.254 2.699,-0.609 0.825,-0.285 1.547,-0.828 2.161,-1.481 0.07,-0.066 1.406,-1.722 1.511,-1.867 v 0 l 38.125,-48.203 v 0 c 0.75,-0.215 1.871,-0.578 2.625,-0.863 2.555,-0.867 5.039,-2.051 7.239,-3.641 3.023,-2.125 5.543,-4.965 7.379,-8.207 1.91,-3.344 3.132,-7.09 3.308,-10.906 0.149,-2.918 -0.898,-8.746 -1.398,-11.629 -0.614,-3.129 -1.157,-6.691 -1.551,-9.902 -0.469,-3.383 -0.938,-7.055 -1.297,-10.508 -0.25,-3.027 -0.504,-6.195 -0.57,-9.184 -0.114,-3.343 0,-6.656 0.32,-9.863 0.074,-1.008 0.215,-2.875 0.18,-3.852 -0.074,-1.007 -0.289,-2.125 -0.864,-2.949 -0.503,-0.722 -1.257,-1.261 -2.125,-1.515 -0.359,-0.067 -1.656,-0.067 -2.015,-0.067 v 0 l -9.328,0.031 v 0" /><path
         id="path22"
         style="fill:#231f20;fill-opacity:1;fill-rule:nonzero;stroke:none"
         d="m 448.883,229.926 -54.828,-0.36 v 0 c -1.121,0 -2.235,0 -2.992,0 -0.719,0.36 -1.473,0.36 -1.836,0.723 -1.118,0.356 -1.875,0.719 -2.27,1.434 -0.355,0.757 -0.719,1.48 -0.719,2.199 0,0.723 0,1.437 0,2.164 0.364,0.715 0.719,1.434 1.477,2.156 0,0.363 1.117,1.078 1.512,1.078 0.363,0.364 0.718,0.723 1.117,1.118 v 0 l -13.071,16.996 v 0 c 0,0 -1.117,2.156 -2.988,1.437 -1.472,-0.359 -1.472,-2.558 -1.472,-2.558 v 0 l -0.395,-10.473 v 0 c 0,-0.36 0,-1.442 -0.363,-1.801 0,-0.363 0,-1.078 -0.36,-1.078 -0.394,-0.363 -2.629,-1.082 -3.386,-1.082 -0.36,0 -0.715,0.355 -1.114,0.355 0,-0.714 -0.359,-1.078 -0.359,-1.796 -6.34,-28.227 -44.391,-36.543 -64.152,-17.387 -11.555,10.871 -16.414,27.863 -7.094,43.773 0.394,0.719 1.121,1.805 1.875,2.16 v 0 l -1.875,1.079 v 0 c 0,0.363 -0.719,1.085 -0.719,1.441 0,0.359 0,0.723 0,1.48 0.359,0.356 0.719,1.442 1.477,1.797 1.871,2.16 4.101,4.321 6.336,5.762 2.629,2.195 5.617,3.637 8.961,5.078 2.988,1.434 6.699,2.875 10.043,3.27 2.992,0.722 5.98,1.086 9.328,0.722 1.152,0 4.859,-0.359 5.254,-0.359 v 7.559 c 0,0.398 0,1.835 0.722,2.558 0.758,0.719 2.625,0.719 2.988,0.359 1.114,-0.359 3.747,-1.082 3.747,-1.082 0.355,0.36 1.113,1.082 1.472,1.442 0.758,0.723 1.516,1.437 2.231,1.801 1.515,1.441 3.746,2.156 5.976,2.519 4.106,0.36 7.453,-0.363 11.199,-1.441 v 0 l 4.461,-1.442 v 0 c 0.399,0.364 5.219,2.164 6.34,2.164 1.114,0 2.625,0 3.739,-0.359 1.48,-0.363 9.328,-2.16 10.082,-2.16 0.363,0 1.117,0.355 1.476,0.719 v 0 l -2.23,8.316 v 0 c -0.364,0.723 -1.871,3.637 -1.871,3.996 -0.364,0.719 -0.758,1.438 -0.758,2.16 -0.36,0.719 -0.36,1.442 -0.723,2.157 0,0.363 0,0.722 0,1.082 -0.394,0 -1.113,-0.36 -1.508,-0.36 -0.758,-0.359 -1.48,-0.722 -1.875,-0.722 -0.355,0 -0.718,0.363 -1.472,0.363 -0.364,0.359 -0.758,0.719 -0.758,1.078 -0.363,0.359 -0.719,1.078 -0.719,1.836 -0.394,0.359 -0.394,0.723 -0.758,1.078 -0.394,0.363 -0.758,0.723 -1.117,1.086 0,0 -0.394,0 -0.758,0 -0.355,0 -0.75,0 -0.75,0 h -1.48 v 0 c -0.356,0 -0.75,0 -0.75,0 -0.363,0.355 -0.758,0.355 -1.121,0.719 0,0.359 0,1.078 0,1.437 0,0.719 0,1.442 -0.36,2.16 -0.394,0.36 -0.394,1.118 -0.757,1.836 v 0 l -2.629,5.399 v 0 c -0.715,1.082 -0.715,2.558 -0.715,3.636 0,1.442 0,2.883 0.355,4.325 0.36,1.441 1.117,2.914 1.875,4.355 1.871,2.52 4.86,4.676 7.449,5.758 1.872,0.394 3.352,0.754 5.223,0.754 1.512,0.363 7.094,-0.36 8.567,-1.113 1.117,-0.723 2.265,-1.082 3.386,-2.164 1.114,-1.079 1.836,-1.793 2.594,-2.879 1.508,-2.161 1.867,-4.711 2.23,-6.875 0,-1.442 0.395,-3.598 0.395,-4.715 0.359,0 6.695,-1.082 8.207,-1.082 1.113,0 8.211,-0.715 9.32,-1.078 1.481,-0.364 9.692,-4.321 11.559,-5.797 2.594,-2.52 12.672,-10.832 17.535,-15.551 2.988,-2.156 6.332,-5.762 9.32,-7.918 1.118,-1.121 7.059,-6.16 8.207,-7.602 1.122,-1.109 2.235,-2.55 3.352,-3.992 0.758,-1.441 1.113,-3.242 1.473,-5.078 0.398,-1.078 0.398,-2.519 0.398,-3.961 0,-1.078 -0.398,-2.156 -0.758,-3.234 0,-1.836 -0.355,-2.563 -1.508,-3.641 v 0 l 14.184,-9.031 0.758,1.078 v 0 c 1.871,2.52 4.101,5.434 5.969,7.234 0.363,0.719 2.238,2.161 2.593,2.524 0.364,0.359 0.758,1.078 0.758,1.473 0,0.722 0,1.078 -0.394,1.441 -0.719,1.437 -2.235,2.156 -4.465,2.879 -0.754,0.363 -1.875,0.719 -2.988,1.082 v 0 l -6.336,2.156 v 0 c -0.364,0.395 -1.114,0.395 -1.477,1.117 -1.117,1.078 -1.117,3.602 0,4.68 0.719,0.359 1.113,0.723 1.871,1.082 v 0 l 58.18,1.082 7.812,-0.363 v 0 c 0.75,-0.719 2.625,-3.242 2.625,-3.961 0.364,-0.715 0.364,-1.801 0,-2.52 0,-0.722 -0.758,-1.472 -1.117,-1.836 v 0 l -1.508,-1.8 v 0 c -0.758,-0.356 -1.121,-1.079 -1.48,-1.797 0,-0.364 0,-0.723 0,-1.082 0,-0.719 0,-1.082 0.359,-1.438 0.363,-0.359 1.121,-0.722 1.516,-1.117 1.836,-1.078 4.101,-3.242 5.582,-4.684 1.871,-1.433 2.98,-3.632 4.101,-5.796 0.754,-1.079 1.473,-2.52 1.868,-3.958 0,-0.359 0,-1.082 0.363,-1.437 0.359,0 1.512,0 1.512,0 0.718,0 1.117,0 1.476,-0.398 0.36,0 0.758,-0.36 1.117,-0.719 0,-0.363 0,-1.801 0,-1.801 v -24.23 c 0,-0.356 0,-1.434 -0.359,-1.797 -0.398,-0.364 -0.758,-0.723 -1.117,-1.078 -0.399,0 -1.117,0 -1.871,0 -0.399,0 -1.121,0 -1.516,0 -0.719,0.355 -1.113,0.714 -1.836,0.714 0,0.364 -0.394,0.364 -0.758,0.364 0,-0.364 -0.394,-0.723 -0.394,-1.442 -5.219,-11.953 -19.363,-21.707 -33.547,-21.707 -17.141,0 -33.195,10.477 -37.297,27.864 -0.359,0.359 -0.359,1.082 -0.758,1.441 v 0 l -31.316,-11.953 v 0" /><path
         id="path24"
         style="fill:#ffffff;fill-opacity:1;fill-rule:nonzero;stroke:none"
         d="m 317.301,599.684 c 9.394,0.035 17.172,-7.309 17.246,-16.563 0,-9.359 -7.887,-16.887 -17.461,-16.738 -9.328,0.105 -16.777,7.597 -16.742,16.738 0.105,9.109 7.668,16.488 16.957,16.563 v 0" /><path
         id="path26"
         style="fill:#ffffff;fill-opacity:1;fill-rule:nonzero;stroke:none"
         d="m 392.25,583.051 v -37.656 h -49.391 v 0 c -0.218,0 -1.621,0 -1.906,0 -1.656,0.144 -3.387,0.683 -4.504,1.871 -1.004,1.078 -1.398,2.519 -1.258,3.961 0.145,0.898 0.36,1.8 0.829,2.558 v 0 l 15.55,25.918 v 0 c 0.25,0.469 0.719,1.227 1.082,1.621 0.61,0.645 1.332,1.188 2.196,1.442 0.828,0.32 2.125,0.355 3.023,0.355 v 0 l 2.156,-0.07 h 32.223 v 0" /><path
         id="path28"
         style="fill:#ffffff;fill-opacity:1;fill-rule:nonzero;stroke:none"
         d="m 395.922,583.051 h 59.219 v -37.656 h -59.219 v 37.656" /><path
         id="path30"
         style="fill:#ffffff;fill-opacity:1;fill-rule:nonzero;stroke:none"
         d="m 459.281,583.051 h 31.395 v 0 c 0.828,0 2.054,0 2.844,0 1.007,-0.071 2.304,-0.18 3.238,-0.649 0.758,-0.359 1.48,-0.972 1.98,-1.656 0.215,-0.324 0.793,-1.258 0.973,-1.547 v 0 l 15.34,-25.168 v 0 c 0.355,-0.609 0.679,-1.293 0.863,-1.976 0.43,-1.371 0.246,-2.844 -0.508,-4.071 -0.793,-1.328 -2.125,-2.191 -3.707,-2.554 -0.289,-0.035 -2.699,-0.035 -3.062,-0.035 h -49.356 v 37.656" /><path
         id="path32"
         style="fill:#ffffff;fill-opacity:1;fill-rule:nonzero;stroke:none"
         d="m 533.695,599.789 c 9.434,-0.07 16.993,-7.633 16.953,-16.851 -0.066,-9.352 -7.918,-16.844 -17.496,-16.704 -9.359,0.075 -16.953,7.493 -17.023,16.672 -0.035,9.434 7.918,16.992 17.566,16.883 v 0" /><path
         id="path34"
         style="fill:#ffffff;fill-opacity:1;fill-rule:nonzero;stroke:none"
         d="m 528.148,611.094 c -0.718,0 -1.976,-0.035 -2.699,-0.035 v 0 l -49.027,3.816 v 0 c -15.195,1.148 -40.613,1.148 -55.84,1.078 -12.707,-0.109 -36.324,-0.289 -48.996,-0.824 v 0 l -45.973,-2.918 v 0 c -0.863,-0.07 -1.8,-0.109 -2.664,-0.18 v 0 l 31.571,40.426 v 0 c 0.222,0.324 0.652,0.863 0.972,1.117 0.543,0.574 1.227,1.047 2.02,1.293 0.718,0.289 1.621,0.438 2.41,0.469 0.683,0.039 1.406,0.039 2.09,0.039 H 488.59 v 0 c 0.683,0 1.547,0 2.23,-0.039 0.789,-0.031 1.582,-0.18 2.34,-0.395 0.684,-0.253 1.332,-0.609 1.867,-1.046 0.469,-0.395 0.981,-0.969 1.375,-1.473 v 0 l 31.746,-41.328 v 0" /><path
         id="path36"
         style="fill:#ffffff;fill-opacity:1;fill-rule:nonzero;stroke:none"
         d="m 380.191,287.418 h -23.507 v 0 c -0.754,0 2.234,3.961 4.101,5.434 1.875,1.441 4.106,1.441 5.977,1.441 2.23,0 4.465,-0.355 6.695,-1.441 1.875,-1.079 3.746,-2.555 5.223,-3.997 0.398,-0.359 1.117,-1.078 1.511,-1.437 v 0" /><path
         id="path38"
         style="fill:#ffffff;fill-opacity:1;fill-rule:nonzero;stroke:none"
         d="m 336.953,254.156 4.5,6.481 v 0 c 3.352,-3.242 5.223,-7.598 4.824,-11.559 0,-4.355 -1.836,-8.316 -4.824,-11.195 -3.383,-3.278 -7.449,-4.719 -11.949,-4.719 -4.465,0 -8.93,1.801 -11.914,5.078 -2.992,2.883 -4.504,6.84 -4.504,10.836 -0.356,4.32 1.512,8.317 4.863,11.559 2.989,2.914 10.797,3.992 10.797,3.992 v 0 l 0.399,-7.234 v 0 c -0.399,0 -3.348,-0.719 -4.106,-1.082 -0.758,-0.715 -1.516,-1.079 -1.871,-1.801 -1.48,-1.473 -2.23,-3.278 -2.23,-5.434 0,-2.16 0.355,-4.355 2.23,-6.156 1.512,-1.797 4.102,-2.524 6.336,-2.524 3.742,0 7.449,1.082 8.965,6.161 0.359,2.156 -0.758,5.761 -0.758,6.839 -0.359,0.395 -0.359,0.395 -0.758,0.758 v 0" /><path
         id="path40"
         style="fill:#ffffff;fill-opacity:1;fill-rule:nonzero;stroke:none"
         d="m 393.617,251.926 -10.078,15.551 v 0 c -1.117,2.519 -1.117,5.793 0.758,7.953 1.508,1.441 4.101,1.441 6.332,-0.719 2.988,-2.918 4.105,-8.676 4.105,-11.234 0,-2.879 -1.117,-7.594 -1.117,-11.551 v 0" /><path
         id="path42"
         style="fill:#ffffff;fill-opacity:1;fill-rule:nonzero;stroke:none"
         d="m 446.578,247.242 -10.441,1.078 v 0 c 0.355,0.364 1.871,4 2.629,5.078 1.113,2.52 3.707,4.676 6.332,7.239 2.988,2.879 6.336,4.32 9.328,6.117 v 0 l -7.848,-19.512 v 0" /><path
         id="path44"
         style="fill:#ffffff;fill-opacity:1;fill-rule:nonzero;stroke:none"
         d="m 509.734,252.73 c -0.601,-1.128 -1.007,-2.519 -1.007,-3.867 0,-4.484 3.789,-8.156 8.406,-8.156 3.613,0 6.695,2.227 7.883,5.34 v 0 l 7.015,-3.43 v 0 c -2.597,-5.433 -8.203,-9.398 -14.922,-9.398 -8.933,0 -16.031,6.879 -16.031,15.547 0,2.89 0.375,5.066 1.867,7.218 v 0 l 6.789,-3.254 v 0" /><path
         id="path46"
         style="fill:#ffffff;fill-opacity:1;fill-rule:nonzero;stroke:none"
         d="m 525.094,251.813 1.472,0.359 5.977,1.441 v 0 c -2.23,6.157 -8.207,10.836 -15.301,10.836 -1.871,0 -3.707,-0.355 -5.222,-0.719 v 0 l 2.992,-6.875 v 0 c 0.754,0 1.511,0 2.23,0 3.387,0 6.336,-2.164 7.852,-5.042 v 0" /></g></g></svg>