<?xml version="1.0" encoding="UTF-8" standalone="no"?>
<svg
   xmlns:dc="http://purl.org/dc/elements/1.1/"
   xmlns:cc="http://creativecommons.org/ns#"
   xmlns:rdf="http://www.w3.org/1999/02/22-rdf-syntax-ns#"
   xmlns:svg="http://www.w3.org/2000/svg"
   xmlns="http://www.w3.org/2000/svg"
   viewBox="0 0 113.38667 113.38667"
   height="113.38667"
   width="113.38667"
   xml:space="preserve"
   id="svg2"
   version="1.1"><metadata
     id="metadata8"><rdf:RDF><cc:Work
         rdf:about=""><dc:format>image/svg+xml</dc:format><dc:type
           rdf:resource="http://purl.org/dc/dcmitype/StillImage" /></cc:Work></rdf:RDF></metadata><defs
     id="defs6" /><g
     transform="matrix(1.3333333,0,0,-1.3333333,0,113.38667)"
     id="g10"><g
       transform="scale(0.1)"
       id="g12"><path
         id="path14"
         style="fill:#ee2c30;fill-opacity:1;fill-rule:nonzero;stroke:none"
         d="m 425.195,850.395 c 234.832,0 425.196,-190.368 425.196,-425.2 C 850.391,190.371 660.027,0 425.195,0 190.367,0 0,190.371 0,425.195 c 0,234.832 190.367,425.2 425.195,425.2 v 0" /><path
         id="path16"
         style="fill:#ffffff;fill-opacity:1;fill-rule:nonzero;stroke:none"
         d="m 425.23,708.695 c 38.508,0 75.278,-7.402 110.297,-22.215 33.899,-14.335 63.946,-34.605 90.149,-60.804 26.199,-26.203 46.465,-56.25 60.797,-90.149 14.816,-35.019 22.218,-71.781 22.218,-110.293 0,-38.511 -7.402,-75.273 -22.218,-110.293 C 672.141,281.047 651.875,250.996 625.676,224.797 599.473,198.594 569.426,178.32 535.527,163.984 500.508,149.18 463.738,141.77 425.23,141.77 c -38.507,0 -75.273,7.41 -110.292,22.214 -33.899,14.336 -63.946,34.61 -90.149,60.813 -26.199,26.199 -46.469,56.25 -60.805,90.144 -14.808,35.02 -22.218,71.782 -22.218,110.293 0,38.512 7.41,75.274 22.218,110.293 14.336,33.899 34.606,63.946 60.805,90.149 26.203,26.199 56.25,46.469 90.149,60.804 35.019,14.813 71.785,22.215 110.292,22.215 v 0" /><path
         id="path18"
         style="fill:#231f20;fill-opacity:1;fill-rule:nonzero;stroke:none"
         d="m 269.313,478.148 v -18.109 h 56.195 v 0 c 7.269,-7.633 19.043,-11.445 28.113,-14.293 13.57,-4.785 27.18,-7.633 41.688,-9.539 14.511,-0.973 28.121,-1.906 42.589,-0.973 15.403,0.973 31.75,2.879 47.161,6.7 9.074,2.839 21.738,6.66 29.914,11.445 3.601,1.91 7.234,3.816 10.875,6.66 h 55.293 v 18.109 H 547.59 v 0 c 2.73,2.875 5.437,7.633 7.273,10.516 2.696,4.75 5.43,9.5 7.235,15.223 3.632,12.422 5.429,25.742 4.535,39.097 -1.797,13.356 -7.238,25.743 -14.504,36.25 -8.176,11.414 -19.043,20.954 -30.82,28.582 -12.707,7.637 -26.282,12.422 -40.793,16.204 -16.305,3.816 -32.645,5.726 -48.953,6.699 -21.743,0 -44.422,-1.91 -65.27,-7.633 -17.207,-4.754 -33.516,-12.387 -48.023,-23.832 -12.707,-10.481 -21.782,-23.832 -27.215,-39.098 -3.606,-11.449 -5.442,-23.832 -3.606,-36.215 1.805,-12.421 5.442,-24.804 11.774,-35.277 1.8,-3.82 4.539,-6.699 6.34,-10.516 h -36.25 v 0" /><path
         id="path20"
         style="fill:#231f20;fill-opacity:1;fill-rule:nonzero;stroke:none"
         d="m 546.836,369.57 c -0.938,0 -2.129,0.938 -2.09,3.063 v 0 l 0.039,14.972 h -7.234 v 9.543 h -94.289 v 0 c -2.707,-6.695 -9.969,-10.511 -16.344,-9.543 -6.336,0.942 -10.871,4.754 -13.574,9.543 h -98.817 v -9.543 h -7.238 v -13.39 c 0,-1.871 0,-3.781 -0.898,-4.711 -0.903,-0.981 -1.801,-0.981 -3.637,-0.981 h -12.672 v 0 c -0.902,0 -2.738,0 -3.637,0.981 -0.898,0.93 -0.898,2.84 -0.898,4.711 v 24.805 c -3.637,0 -6.336,2.878 -6.336,6.699 0,4.75 2.699,7.594 6.336,7.594 v 27.648 c 0,1.008 0,1.945 0,1.945 0,1.903 0,2.84 0.898,3.778 0.899,0.972 3.637,0.972 5.434,0.972 h 9.074 v 0 c 1.801,0 4.535,0 5.438,-0.972 0.898,-0.938 0.898,-1.875 0.898,-2.844 0,-0.934 0,-1.871 0,-2.879 v -18.109 c 0.899,0 5.477,0 5.477,0 1.761,0 1.761,0 1.761,-1.911 v -7.628 h 98.817 v 0 c 2.703,5.726 9.074,10.511 15.41,10.511 7.269,0 12.711,-4.785 15.406,-11.445 h 93.391 v 10.473 h 7.234 v 16.203 c 0,0.968 0,4.785 4.531,4.785 h 10.868 v 0 c 4.543,0 4.543,-3.817 4.543,-5.727 v -27.644 c 3.632,0 6.336,-2.848 6.336,-6.699 0,-3.782 -2.704,-6.622 -6.336,-6.622 v -21.96 c 0,-0.973 0,-1.907 0,-2.844 0,-0.973 0,-2.84 -2.707,-2.84 v 0 l -15.184,0.066 v 0" /><path
         id="path22"
         style="fill:#231f20;fill-opacity:1;fill-rule:nonzero;stroke:none"
         d="m 579.348,274.961 c -8.578,-1.863 -17.102,-2.84 -23.762,-3.777 -25.637,-1.868 -47.488,-1.868 -76.934,4.714 -5.691,0.938 -31.316,6.59 -37.05,7.532 -13.282,1.902 -26.602,1.902 -39.883,0 -10.442,-1.875 -20.879,-3.75 -31.324,-5.657 -7.629,-1.875 -22.821,-4.675 -30.418,-5.652 -12.344,-1.875 -25.629,-1.875 -38.918,-0.937 -10.473,0 -20.914,1.914 -30.418,3.777 -9.469,1.875 -18.036,4.719 -25.629,6.594 v 15.086 c 6.66,-2.852 17.097,-5.657 23.758,-7.571 9.468,-1.863 18.035,-2.8 27.539,-3.738 10.437,-0.937 20.879,-0.937 31.324,-0.937 9.5,0.937 20.914,1.875 30.418,4.675 18.969,5.657 37.98,9.438 57.922,9.438 10.437,0 20.882,0 31.363,-1.867 7.586,-0.977 17.059,-2.852 24.656,-4.715 19.942,-4.719 43.699,-8.496 63.645,-8.496 12.351,0 24.695,0.965 36.109,2.84 11.379,2.8 22.785,4.714 34.16,8.457 v -14.114 c -7.597,-1.875 -17.058,-3.777 -26.558,-5.652 v 0" /><path
         id="path24"
         style="fill:#231f20;fill-opacity:1;fill-rule:nonzero;stroke:none"
         d="m 578.879,302.434 c -8.574,-1.875 -17.102,-2.844 -23.762,-3.782 -25.637,-1.875 -47.488,-1.875 -76.933,4.719 -5.696,0.938 -31.321,6.578 -37.051,7.52 -13.281,1.914 -26.602,1.914 -39.883,0 -10.441,-1.868 -20.879,-3.743 -31.32,-5.645 -7.629,-1.875 -22.825,-4.687 -30.418,-5.656 -12.348,-1.875 -25.633,-1.875 -38.914,-0.938 -10.481,0 -20.918,1.907 -30.422,3.782 -9.469,1.875 -18.035,4.714 -25.633,6.589 v 15.079 c 6.656,-2.84 17.098,-5.657 23.758,-7.559 9.469,-1.875 18.039,-2.805 27.539,-3.738 10.437,-0.942 20.883,-0.942 31.324,-0.942 9.5,0.942 20.91,1.875 30.418,4.68 18.973,5.652 37.981,9.434 57.926,9.434 10.437,0 20.879,0 31.355,-1.875 7.59,-0.965 17.063,-2.84 24.66,-4.715 19.942,-4.719 43.7,-8.496 63.645,-8.496 12.352,0 24.695,0.972 36.109,2.847 11.379,2.805 22.786,4.707 34.161,8.457 v -14.109 c -7.594,-1.875 -17.059,-3.777 -26.559,-5.652 v 0" /><path
         id="path26"
         style="fill:#f6842a;fill-opacity:1;fill-rule:nonzero;stroke:none"
         d="m 355.891,460.434 c 0.539,-0.18 1.043,-0.395 1.586,-0.536 13.097,-4.429 25.628,-7.632 38.949,-8.929 9,-0.903 17.601,-1.403 26.207,-1.403 4.754,0 9.547,0.141 14.437,0.43 15.266,1.043 30.598,2.445 44.641,6.297 8.816,2.414 20.152,6.375 26.961,10.227 13.281,7.562 26.531,16.234 34.773,30.203 2.778,4.679 4.61,8.066 5.766,11.847 2.625,8.785 4.285,17.743 4.285,26.352 0,2.16 -0.105,4.355 -0.359,6.48 -0.981,9.899 -5.403,19.797 -11.782,28.871 -6.796,9.684 -16.187,18.145 -26.777,24.766 -10.984,6.875 -23.262,11.231 -37.117,14.652 -15.664,3.887 -30.957,6.301 -45.969,6.301 -21.172,0 -42.625,-1.836 -61.996,-7.164 -15.945,-4.394 -30.672,-11.195 -43.344,-21.422 -10.726,-8.636 -18.254,-19.726 -22.535,-32.328 -2.304,-6.695 -3.527,-13.75 -3.527,-20.699 0,-2.734 0.18,-5.434 0.539,-8.066 1.582,-10.688 4.898,-20.985 9.937,-29.805 0.575,-1.008 1.188,-1.981 2.157,-3.422 1.226,-1.871 2.199,-4.461 4.504,-7.164 10.761,-12.527 24.296,-20.59 38.664,-25.488 v 0" /></g></g></svg>