<?xml version="1.0" encoding="UTF-8" standalone="no"?>
<svg
   xmlns:dc="http://purl.org/dc/elements/1.1/"
   xmlns:cc="http://creativecommons.org/ns#"
   xmlns:rdf="http://www.w3.org/1999/02/22-rdf-syntax-ns#"
   xmlns:svg="http://www.w3.org/2000/svg"
   xmlns="http://www.w3.org/2000/svg"
   viewBox="0 0 113.38667 113.38667"
   height="113.38667"
   width="113.38667"
   xml:space="preserve"
   id="svg2"
   version="1.1"><metadata
     id="metadata8"><rdf:RDF><cc:Work
         rdf:about=""><dc:format>image/svg+xml</dc:format><dc:type
           rdf:resource="http://purl.org/dc/dcmitype/StillImage" /></cc:Work></rdf:RDF></metadata><defs
     id="defs6" /><g
     transform="matrix(1.3333333,0,0,-1.3333333,0,113.38667)"
     id="g10"><g
       transform="scale(0.1)"
       id="g12"><path
         id="path14"
         style="fill:#ee2c30;fill-opacity:1;fill-rule:nonzero;stroke:none"
         d="m 425.195,850.391 c 234.832,0 425.2,-190.368 425.2,-425.196 C 850.395,190.367 660.027,0 425.195,0 190.367,0 0,190.367 0,425.195 0,660.023 190.367,850.391 425.195,850.391 v 0" /><path
         id="path16"
         style="fill:#ffffff;fill-opacity:1;fill-rule:nonzero;stroke:none"
         d="m 425.234,708.695 c 38.512,0 75.274,-7.406 110.293,-22.215 33.899,-14.335 63.946,-34.609 90.149,-60.812 26.199,-26.195 46.469,-56.242 60.804,-90.141 14.813,-35.019 22.215,-71.789 22.215,-110.297 0,-38.507 -7.402,-75.273 -22.215,-110.292 -14.335,-33.899 -34.605,-63.946 -60.804,-90.149 -26.203,-26.199 -56.25,-46.469 -90.149,-60.805 -35.019,-14.808 -71.781,-22.214 -110.293,-22.214 -38.511,0 -75.273,7.406 -110.293,22.214 -33.894,14.336 -63.945,34.606 -90.144,60.805 -26.203,26.203 -46.473,56.25 -60.813,90.149 -14.808,35.019 -22.218,71.785 -22.218,110.292 0,38.508 7.41,75.278 22.218,110.297 14.34,33.899 34.61,63.946 60.813,90.141 26.199,26.203 56.25,46.477 90.144,60.812 35.02,14.809 71.782,22.215 110.293,22.215 v 0" /><path
         id="path18"
         style="fill:#231f20;fill-opacity:1;fill-rule:nonzero;stroke:none"
         d="m 222.012,433.141 -2.934,3.175 v 0 c -4.113,4.446 21.317,18.532 32.477,22.434 7.855,2.746 28.574,6.41 33,6.41 v 12.356 c 0,0.597 0,2.945 1.172,4.125 1.175,1.172 3.867,0.777 4.722,0.586 1.715,-0.387 5.899,-1.766 5.899,-1.766 0.586,0.594 1.773,1.766 2.359,2.352 1.176,1.187 9.434,6.484 12.977,7.07 6.484,0.586 11.793,-0.586 17.691,-2.36 v 0 l 7.078,-2.351 v 0 c 2.434,-0.813 7.602,3.605 10.031,3.527 4.344,-0.152 25.278,-7.234 24.196,-3.023 v 0 l -3.563,13.621 v 0 c -0.523,1.976 -3.726,14.203 -5.304,15.308 -0.446,0.301 -1.59,-0.132 -2.411,-0.726 -2.172,-1.582 -6.058,-1.106 -6.609,1.254 -0.402,1.707 -1.137,3.633 -2.188,4.769 -1.062,1.149 -7.089,2.211 -8.843,2.356 -0.938,0.066 -1.957,0.808 -1.774,1.758 0.438,2.316 1.188,4.711 -0.586,7.656 v 0 l -4.125,8.234 v 0 c -1.179,1.774 -1.179,4.715 -1.179,6.473 0,2.355 0,4.711 0.586,7.066 1.769,11.184 13.562,17.067 23.007,17.664 7.668,0.586 21.235,-0.597 26.543,-21.191 0.586,-2.355 0.586,-5.887 0.586,-7.652 1.035,0 20.977,-1.055 27.719,-3.532 7.891,-2.902 33.379,-22.117 46.008,-34.73 8.383,-6.254 24.156,-19.973 33.035,-31.785 1.891,-3.774 4.254,-8.215 3.406,-14.653 -0.215,-1.593 -2.23,-9.468 -3.992,-11.238 v 0 l 22.406,-14.711 14.743,17.653 v 0 c 1.796,1.753 2.023,4.046 1.445,5.519 -0.895,2.285 -4.395,2.723 -7.93,3.902 v 0 l -14.742,5.289 v 0 c -0.594,0.594 -5.031,1.5 -4.305,6.493 0.477,3.293 3.543,4.664 4.899,4.699 v 0 l 92.004,1.758 12.394,-0.586 v 0 c 1.481,-0.071 3.66,-1.918 4.653,-4.348 1.429,-3.551 0.277,-6.637 -0.696,-7.687 v 0 l -7.258,-7.653 v 0 c -0.316,-1.867 0.399,-2.84 1.528,-3.859 0.855,-0.785 14.351,-12.168 17.699,-18.82 1.172,-1.774 1.23,-8.418 2.926,-8.364 3.676,0.117 7.09,-2.258 7.09,-5.179 v -39.438 c 0,-0.586 -0.153,-2.133 -0.586,-2.945 -0.594,-1.098 -3.133,-1.664 -4.805,-1.606 -3.402,0.118 -5.813,1.606 -6.402,1.606 0,-0.586 -10.582,-37.344 -53.672,-37.668 -51.418,-0.399 -60.121,47.691 -60.157,47.68 v 0 l -49.632,-19.887 -86.621,-0.117 v 0 c -1.774,0 -11.125,-0.211 -12.497,6.101 -1,4.563 6,10.961 6.602,11.547 v 0 l -20.648,27.664 v 0 c 0,0 -1.774,3.524 -4.723,2.352 -2.359,-0.586 -2.359,-4.125 -2.359,-4.125 v 0 l -0.211,-17.051 v 0 c 0,-0.586 0,-3.34 -1.551,-4.727 -1.938,-1.722 -5.817,-0.597 -7.527,-0.597 -5.426,-27.93 -30.079,-49.028 -59.645,-49.028 -33.539,0 -60.75,27.16 -60.75,60.629 0,11.875 3.426,22.965 9.344,32.317 v 0" /><path
         id="path20"
         style="fill:#ffffff;fill-opacity:1;fill-rule:nonzero;stroke:none"
         d="m 375.297,404.453 -15.91,25.309 v 0 c -1.805,4.105 -1.805,9.433 1.148,12.957 2.375,2.344 6.516,2.344 10.047,-1.188 4.715,-4.715 6.477,-14.109 6.477,-18.25 0,-4.718 -1.762,-12.347 -1.762,-18.828 v 0" /><path
         id="path22"
         style="fill:#ffffff;fill-opacity:1;fill-rule:nonzero;stroke:none"
         d="m 458.992,396.82 -16.519,1.766 v 0 c 0,0 6.476,11.769 12.379,17.676 4.718,4.679 11.812,9.398 16.531,12.347 v 0 L 458.992,396.82 v 0" /><path
         id="path24"
         style="fill:#ffffff;fill-opacity:1;fill-rule:nonzero;stroke:none"
         d="m 354.059,462.195 h -37.157 v 0 c 0,0 5.293,11.774 15.914,11.2 3.567,0 5.907,0.574 10.622,-2.379 4.136,-2.95 7.664,-5.864 10.621,-8.821 v 0" /><path
         id="path26"
         style="fill:#ffffff;fill-opacity:1;fill-rule:nonzero;stroke:none"
         d="m 285.375,407.539 6.871,10.305 v 0 c 4.613,-4.676 7.445,-10.985 7.445,-18.063 0,-14.312 -11.64,-25.929 -25.98,-25.929 -14.34,0 -25.977,11.617 -25.977,25.929 0,13.934 11.028,25.309 24.848,25.903 v 0 l 0.617,-11.829 v 0 c -7.547,-0.23 -13.59,-6.417 -13.59,-13.992 0,-7.722 6.293,-14.008 14.032,-14.008 7.742,0 14.035,6.286 14.035,14.008 0,2.836 -0.844,5.473 -2.301,7.676 v 0" /><path
         id="path28"
         style="fill:#ffffff;fill-opacity:1;fill-rule:nonzero;stroke:none"
         d="m 583.754,394.387 10.391,-5.172 v 0 c -3.977,-9.18 -13.137,-15.59 -23.786,-15.59 -14.289,0 -25.89,11.582 -25.89,25.844 0,4.691 1.254,9.094 3.453,12.894 v 0 l 10.652,-5.215 v 0 c -1.496,-2.25 -2.363,-4.945 -2.363,-7.839 0,-7.832 6.367,-14.188 14.215,-14.188 6.094,0 11.316,3.859 13.328,9.266 v 0" /><path
         id="path30"
         style="fill:#ffffff;fill-opacity:1;fill-rule:nonzero;stroke:none"
         d="m 594.957,407.582 -11.277,-3.18 v 0 c -2.055,5.309 -7.211,9.082 -13.254,9.082 -1.321,0 -2.59,-0.171 -3.793,-0.511 v 0 l -4.453,11.015 v 0 c 2.57,0.856 5.32,1.325 8.179,1.325 11.465,0 21.18,-7.442 24.598,-17.731 v 0" /></g></g></svg>