<?xml version="1.0" encoding="UTF-8" standalone="no"?>
<svg
   xmlns:dc="http://purl.org/dc/elements/1.1/"
   xmlns:cc="http://creativecommons.org/ns#"
   xmlns:rdf="http://www.w3.org/1999/02/22-rdf-syntax-ns#"
   xmlns:svg="http://www.w3.org/2000/svg"
   xmlns="http://www.w3.org/2000/svg"
   viewBox="0 0 113.10667 113.10667"
   height="113.10667"
   width="113.10667"
   xml:space="preserve"
   id="svg2"
   version="1.1"><metadata
     id="metadata8"><rdf:RDF><cc:Work
         rdf:about=""><dc:format>image/svg+xml</dc:format><dc:type
           rdf:resource="http://purl.org/dc/dcmitype/StillImage" /></cc:Work></rdf:RDF></metadata><defs
     id="defs6" /><g
     transform="matrix(1.3333333,0,0,-1.3333333,0,113.10667)"
     id="g10"><g
       transform="scale(0.1)"
       id="g12"><path
         id="path14"
         style="fill:#ee2c30;fill-opacity:1;fill-rule:nonzero;stroke:none"
         d="M 636.719,792.309 C 840.059,674.918 909.727,414.918 792.324,211.582 674.922,8.25391 414.91,-61.4258 211.578,55.9688 8.23828,173.359 -61.4258,433.363 55.9727,636.699 173.375,840.035 433.379,909.703 636.719,792.309 v 0" /><path
         id="path16"
         style="fill:#ffffff;fill-opacity:1;fill-rule:nonzero;stroke:none"
         d="M 197.969,594.98 423.051,465.043 649.719,595.879 v 0 c -22.824,30.019 -50.793,54.57 -83.879,73.68 -33.328,19.218 -68.86,31.207 -106.582,35.886 -36.531,4.535 -72.672,1.981 -108.453,-7.593 -35.817,-9.575 -68.356,-25.485 -97.723,-47.657 -21.062,-15.906 -39.414,-34.3 -55.113,-55.215 v 0" /><path
         id="path18"
         style="fill:#ffffff;fill-opacity:1;fill-rule:nonzero;stroke:none"
         d="M 389.277,142.734 V 402.68 l -226.66,130.875 v 0 C 152.605,509.801 145.984,485 142.781,459.195 c -4.535,-36.5 -2.015,-72.636 7.594,-108.453 9.574,-35.781 25.449,-68.351 47.66,-97.683 22.895,-30.344 51.043,-55.149 84.371,-74.407 33.371,-19.218 68.899,-31.199 106.621,-35.879 0.071,0 0.18,-0.039 0.25,-0.039 v 0" /><path
         id="path20"
         style="fill:#ffffff;fill-opacity:1;fill-rule:nonzero;stroke:none"
         d="M 685.234,534.566 460.156,404.625 V 142.949 c 12.489,1.621 24.949,4.102 37.332,7.41 35.774,9.582 68.352,25.489 97.727,47.657 30.305,22.933 55.105,51.047 74.363,84.406 19.262,33.34 31.211,68.855 35.93,106.582 4.492,36.535 1.972,72.672 -7.598,108.488 -3.418,12.778 -7.668,25.121 -12.676,37.074 v 0" /><path
         id="path22"
         style="fill:#231f20;fill-opacity:1;fill-rule:nonzero;stroke:none"
         d="m 287.969,317.91 -37.512,-0.254 v 0 c -0.754,0 -1.512,0 -2.016,0 -0.543,0.254 -1.043,0.254 -1.293,0.508 -0.757,0.254 -1.257,0.5 -1.511,1.008 -0.289,0.508 -0.543,1.004 -0.543,1.512 0,0.5 0,1.004 0,1.515 0.254,0.496 0.543,1.004 1.043,1.512 0,0.246 0.758,0.754 1.011,0.754 0.25,0.254 0.504,0.535 0.75,0.789 v 0 l -8.921,11.887 v 0 c 0,0 -0.758,1.5 -2.02,1.004 -1.043,-0.254 -1.043,-1.766 -1.043,-1.766 v 0 l -0.25,-7.344 v 0 c 0,-0.258 0,-1.008 -0.254,-1.262 0,-0.253 0,-0.753 -0.254,-0.753 -0.25,-0.254 -1.797,-0.758 -2.301,-0.758 -0.253,0 -0.507,0.254 -0.753,0.254 0,-0.508 -0.254,-0.754 -0.254,-1.262 -4.36,-19.766 -30.383,-25.594 -43.883,-12.168 -7.922,7.598 -11.238,19.512 -4.863,30.637 0.253,0.504 0.753,1.257 1.257,1.511 v 0 l -1.257,0.75 v 0 c 0,0.258 -0.504,0.766 -0.504,1.02 0,0.242 0,0.496 0,1.004 0.254,0.285 0.504,1.047 1.011,1.301 1.293,1.5 2.805,3.015 4.356,4.023 1.762,1.512 3.812,2.516 6.117,3.563 2.051,1.015 4.57,2.023 6.875,2.277 2.055,0.496 4.106,0.75 6.371,0.496 0.793,0 3.352,-0.254 3.606,-0.254 v 5.332 c 0,0.254 0,1.262 0.5,1.762 0.504,0.504 1.765,0.504 2.019,0.254 0.789,-0.254 2.555,-0.754 2.555,-0.754 0.254,0.254 0.789,0.754 1.043,1.004 0.504,0.508 1.008,1.011 1.512,1.258 1.042,1.011 2.554,1.515 4.101,1.769 2.809,0.25 5.078,-0.254 7.633,-1.012 v 0 l 3.062,-1.004 v 0 c 0.25,0.247 3.598,1.512 4.356,1.512 0.758,0 1.762,0 2.555,-0.254 1.007,-0.254 6.371,-1.511 6.878,-1.511 0.25,0 0.75,0.253 1.004,0.5 v 0 l -1.511,5.835 v 0 c -0.25,0.504 -1.293,2.52 -1.293,2.774 -0.254,0.504 -0.504,1.008 -0.504,1.512 -0.254,0.5 -0.254,1.007 -0.504,1.547 0,0.253 0,0.5 0,0.753 -0.254,0 -0.758,-0.253 -1.012,-0.253 -0.5,-0.247 -1.043,-0.5 -1.293,-0.5 -0.254,0 -0.508,0.253 -1.012,0.253 -0.246,0.247 -0.5,0.5 -0.5,0.758 -0.253,0.246 -0.503,0.754 -0.503,1.258 -0.254,0.25 -0.254,0.504 -0.543,0.758 -0.25,0.25 -0.5,0.504 -0.754,0.75 0,0 -0.25,0 -0.504,0 -0.25,0 -0.504,0 -0.504,0 h -1.043 v 0 c -0.258,0 -0.504,0 -0.504,0 -0.254,0.254 -0.504,0.254 -0.758,0.508 0,0.25 0,0.754 0,1.007 0,0.5 0,1.012 -0.254,1.512 -0.25,0.25 -0.25,0.793 -0.504,1.297 v 0 l -1.797,3.777 v 0 c -0.507,0.758 -0.507,1.77 -0.507,2.52 0,1.047 0,2.055 0.254,3.062 0.253,1.012 0.757,2.016 1.293,3.024 1.261,1.766 3.316,3.312 5.082,4.07 1.293,0.25 2.3,0.504 3.562,0.504 1.043,0.25 4.859,-0.254 5.902,-0.758 0.758,-0.504 1.516,-0.758 2.266,-1.547 0.797,-0.757 1.301,-1.261 1.805,-2.015 1.008,-1.516 1.258,-3.278 1.511,-4.793 0,-1.039 0.29,-2.551 0.29,-3.309 0.246,0 4.57,-0.758 5.582,-0.758 0.789,0 5.613,-0.503 6.406,-0.757 1.004,-0.25 6.625,-3.02 7.883,-4.067 1.796,-1.762 8.671,-7.594 11.988,-10.867 2.051,-1.516 4.355,-4.035 6.406,-5.582 0.758,-0.758 4.824,-4.281 5.613,-5.289 0.758,-0.762 1.516,-1.805 2.274,-2.813 0.535,-1.007 0.789,-2.265 1.043,-3.523 0.25,-0.766 0.25,-1.77 0.25,-2.777 0,-0.789 -0.25,-1.551 -0.504,-2.301 0,-1.262 -0.254,-1.77 -1.043,-2.524 v 0 l 9.723,-6.336 0.5,0.762 v 0 c 1.261,1.758 2.808,3.809 4.066,5.067 0.258,0.507 1.551,1.515 1.805,1.769 0.25,0.254 0.504,0.754 0.504,1.008 0,0.508 0,0.762 -0.254,1.004 -0.504,1.015 -1.551,1.551 -3.059,2.058 -0.508,0.247 -1.301,0.5 -2.055,0.754 v 0 l -4.316,1.516 v 0 c -0.254,0.254 -0.797,0.254 -1.047,0.75 -0.758,0.762 -0.758,2.52 0,3.281 0.539,0.242 0.793,0.5 1.293,0.754 v 0 l 39.781,0.789 5.368,-0.254 v 0 c 0.503,-0.535 1.796,-2.304 1.796,-2.804 0.254,-0.504 0.254,-1.258 0,-1.766 0,-0.496 -0.503,-1.004 -0.753,-1.258 v 0 l -1.043,-1.262 v 0 c -0.504,-0.253 -0.758,-0.753 -1.012,-1.3 0,-0.243 0,-0.496 0,-0.75 0,-0.508 0,-0.75 0.254,-1.004 0.254,-0.254 0.758,-0.508 1.008,-0.762 1.296,-0.754 2.804,-2.269 3.851,-3.273 1.262,-1.004 2.016,-2.559 2.809,-4.075 0.508,-0.75 1.008,-1.757 1.258,-2.761 0,-0.254 0,-0.762 0.253,-1.016 0.254,0 1.047,0 1.047,0 0.5,0 0.754,0 1.004,-0.242 0.254,0 0.504,-0.254 0.758,-0.508 0,-0.254 0,-1.301 0,-1.301 v -16.953 c 0,-0.254 0,-1.004 -0.254,-1.262 -0.25,-0.253 -0.504,-0.507 -0.754,-0.757 -0.254,0 -0.754,0 -1.297,0 -0.25,0 -0.757,0 -1.007,0 -0.5,0.25 -0.754,0.504 -1.258,0.504 0,0.253 -0.289,0.253 -0.543,0.253 0,-0.253 -0.246,-0.507 -0.246,-1.003 -3.567,-8.36 -13.254,-15.196 -22.969,-15.196 -11.738,0 -22.684,7.344 -25.488,19.512 -0.254,0.254 -0.254,0.754 -0.543,1.008 v 0 l -21.422,-8.352 v 0" /><path
         id="path24"
         style="fill:#231f20;fill-opacity:1;fill-rule:nonzero;stroke:none"
         d="m 604.59,323.563 -22.539,-0.504 0.254,-8.286 3.75,0.254 v -2.515 l -10.266,-0.254 -0.254,2.515 3.528,0.254 -0.247,8.032 h -4.539 v 0 c -1.472,0 -2.988,0 -4.25,0.504 -4.746,1.515 -8.496,5.253 -8.992,10.292 -0.254,3.528 1.262,7.024 3.738,9.543 0.254,0.254 0.754,0.508 0.754,0.75 v 0 l -2.734,4.036 1.223,2.238 v 0 c 0.254,1.004 1.011,2.262 1.011,3.269 v 0 L 545.762,365.5 v 0 c -0.75,0.508 -2.012,1.262 -2.766,2.02 -0.762,0.503 -1.512,1.257 -1.98,2.015 -0.762,0.754 -2.266,5 -2.266,5.758 v 0 l -4.004,-7.773 v 0 l 1.016,-0.508 c 5.976,-4.785 7.988,-6.551 10.508,-11.043 3.242,-5.051 4.753,-10.801 5.253,-16.86 0,0 -0.753,-0.75 -1.003,-0.75 v 0 l -1.77,-0.214 v 0 c 0.508,-22.11 -21.27,-37.696 -42.043,-30.422 -20.273,7.304 -27.535,32.394 -14.258,49.504 v 0 l -1.258,1.003 v 0 c -0.761,0.5 -1.257,1.262 -0.761,1.731 v 0 l 1.015,1.008 v 0 c 1.731,1.765 4.5,4.285 6.731,5.793 3.523,2.265 7.273,3.996 11.265,4.754 6.77,1.511 13.536,1.004 20.051,-1.477 0.508,0 1.231,-0.254 1.731,-0.504 v 0 l 4.754,10.047 v 0 c -0.215,0 -5.008,-1.266 -5.508,-1.266 -0.215,0 -0.723,0 -0.977,0.254 -0.254,0.254 -0.5,0.504 -0.5,1.012 v 7.516 -0.5 c 0,0 -0.254,1.511 0.5,2.269 0.254,0.25 0.977,0.504 1.477,0.504 1.258,0 2.515,-0.254 3.777,-0.504 v 0 l 5.266,-1.012 2.222,5.004 v 0 c -2.476,0 -5.507,3.024 -5.507,6.301 0,2.52 0.507,5.508 3.527,5.508 0.762,0 2.234,0.254 2.988,0.254 v 0 l 23.543,-0.254 v -2.988 h -23.789 v 0 c -1.726,0 -2.984,-1.004 -2.984,-2.266 0,-2.269 1.004,-2.773 2.222,-3.023 v 0 l 5.762,-1.512 -3.738,-8.027 v 0 c 0.5,0.246 4.25,1.257 6.262,1.003 3.242,-0.503 6.265,-1.257 9.5,-3.523 3.996,-2.519 7.019,-7.523 7.785,-11.305 v 0 l 0.242,-6.015 v 0 c 0,-1.258 0.215,-2.52 0.723,-3.782 1.257,-2.515 4.289,-4.746 7.531,-6.511 1.758,-0.75 5.254,-1.512 7.262,-2.02 1.73,-0.246 6.015,-1.761 6.742,-0.5 v 0 l 18.277,35.426 v 0 c -0.496,0 -4.5,1.004 -5.762,1.508 -2.222,1.012 -5.254,2.23 -5.75,4.504 -0.761,2.015 1.504,4.785 3.993,4.031 2.777,0 6.769,-1.77 10.039,-1.77 2.738,-0.246 8.246,0.512 11.015,0.512 3.242,0 4.504,-5.047 2.746,-7.277 -0.508,-1.258 -2.746,-3.024 -5.261,-3.528 -1.516,-0.253 -5.254,0 -5.508,0.504 v 0 l 7.781,-17.566 v 0 c 0.715,0.215 1.719,0.719 2.734,0.973 3.235,0.754 7.024,1.004 10.508,0.754 8.789,-0.754 17.031,-5.004 23.035,-11.555 2.746,-2.738 5.012,-6.262 6.02,-10.039 0.254,-0.508 0.254,-1.016 0.254,-1.016 v 0 l 3.738,-0.246 v 0 c 0.254,0 1.262,0 1.516,-0.254 0.254,-0.215 0.254,-0.722 0.254,-1.23 v -14.328 c 0,-0.497 0,-1.004 -0.508,-1.258 v 0 l -5.512,-1.258 v 0 c -3.992,-13.07 -15.516,-22.356 -29.051,-23.363 -12.273,-0.758 -23.761,5.293 -30.273,15.84 v 0" /><path
         id="path26"
         style="fill:#231f20;fill-opacity:1;fill-rule:nonzero;stroke:none"
         d="m 503.203,565.313 v -24.176 c 0,-0.395 0,-0.86 -0.058,-1.289 -0.032,-0.43 -0.125,-1.043 -0.379,-1.41 -0.286,-0.372 -0.754,-0.614 -1.196,-0.739 -0.468,-0.121 -1.023,-0.156 -1.492,-0.156 h -9.465 v 0 c -0.371,0 -0.84,0.035 -1.218,0.129 -0.442,0.121 -0.911,0.301 -1.153,0.644 -0.222,0.274 -0.351,0.645 -0.41,0.95 -0.098,0.492 -0.156,1.011 -0.156,1.504 v 22.058 c -0.535,-0.062 -1.504,-0.25 -2,-0.308 -8.488,-1.325 -22.485,-1.754 -31.067,-1.938 -5.007,-0.121 -26.761,-0.555 -31.773,-0.555 -9.645,0 -19.945,0.282 -29.59,0.649 -9.012,0.336 -21.445,0.984 -30.465,1.472 v 0 l -2.062,0.094 v -22.453 c -0.059,-0.555 -0.25,-1.137 -0.598,-1.535 -0.312,-0.34 -0.719,-0.555 -1.156,-0.676 -0.156,-0.035 -1.531,-0.035 -1.692,-0.035 h -8.89 v 0 c -0.156,0 -0.973,0 -1.125,0.035 -0.5,0.094 -1.031,0.309 -1.379,0.703 -0.344,0.403 -0.469,1.016 -0.531,1.539 0,0.121 0,1.289 0,1.446 v 24.261 l -6.387,-0.027 v 0 c -0.223,0 -1.285,-0.031 -1.504,0.027 -0.531,0.094 -1.004,0.371 -1.406,0.766 -0.348,0.344 -0.598,0.832 -0.723,1.324 -0.156,0.613 -0.125,1.754 -0.094,2.426 0.157,2.484 0.032,6.086 -0.062,8.598 -0.121,2.8 -0.313,6.793 -0.563,9.586 -0.347,3.66 -0.941,7.375 -1.879,10.937 -0.187,0.738 -0.753,2.731 -0.843,3.469 -0.285,1.722 -0.223,3.469 0.062,5.16 0.313,1.848 0.871,3.687 1.75,5.348 1.379,2.64 3.508,4.851 5.981,6.57 1.754,1.199 3.789,2.184 5.886,2.578 0.375,0.094 0.938,0.156 1.348,0.215 v 0 l 25.266,33.144 v 0 c 0.281,0.372 0.593,0.707 0.906,1.047 0.375,0.336 0.816,0.707 1.285,0.922 0.594,0.274 1.375,0.367 2.035,0.399 0.278,0 1.219,0 1.504,0 h 91.985 v 0 c 0.464,0 1.089,0 1.558,-0.032 0.598,-0.031 1.289,-0.152 1.848,-0.402 0.566,-0.215 1.062,-0.578 1.472,-1.008 0.071,-0.066 0.977,-1.203 1.036,-1.289 v 0 l 26.078,-33.055 v 0 c 0.535,-0.156 1.289,-0.398 1.812,-0.585 1.758,-0.582 3.449,-1.411 4.953,-2.485 2.071,-1.476 3.789,-3.414 5.039,-5.621 1.321,-2.305 2.161,-4.887 2.286,-7.492 0.097,-2 -0.625,-5.992 -0.965,-7.961 -0.41,-2.148 -0.785,-4.606 -1.067,-6.785 -0.312,-2.336 -0.625,-4.856 -0.879,-7.219 -0.183,-2.062 -0.339,-4.238 -0.41,-6.297 -0.058,-2.273 0,-4.547 0.227,-6.762 0.055,-0.671 0.152,-1.96 0.125,-2.64 -0.039,-0.672 -0.195,-1.442 -0.598,-2.028 -0.351,-0.492 -0.847,-0.855 -1.441,-1.011 -0.246,-0.059 -1.125,-0.059 -1.379,-0.059 v 0 l -6.387,0.028 v 0" /><path
         id="path28"
         style="fill:#ffffff;fill-opacity:1;fill-rule:nonzero;stroke:none"
         d="m 350.133,613.418 c 6.445,0.031 11.765,-5.008 11.801,-11.336 0,-6.418 -5.387,-11.578 -11.93,-11.484 -6.387,0.09 -11.488,5.218 -11.457,11.484 0.062,6.234 5.226,11.301 11.586,11.336 v 0" /><path
         id="path30"
         style="fill:#ffffff;fill-opacity:1;fill-rule:nonzero;stroke:none"
         d="m 401.41,601.977 v -25.805 h -33.785 v 0 c -0.152,0 -1.125,0 -1.312,0 -1.129,0.094 -2.321,0.465 -3.067,1.293 -0.687,0.738 -0.973,1.719 -0.879,2.703 0.094,0.613 0.25,1.227 0.563,1.75 v 0 l 10.648,17.785 v 0 c 0.188,0.309 0.5,0.828 0.746,1.106 0.41,0.433 0.91,0.796 1.504,0.984 0.567,0.215 1.442,0.242 2.067,0.242 v 0 l 1.476,-0.058 h 22.039 v 0" /><path
         id="path32"
         style="fill:#ffffff;fill-opacity:1;fill-rule:nonzero;stroke:none"
         d="m 403.926,601.977 h 40.515 v -25.805 h -40.515 v 25.805" /><path
         id="path34"
         style="fill:#ffffff;fill-opacity:1;fill-rule:nonzero;stroke:none"
         d="m 447.195,601.977 h 21.477 v 0 c 0.566,0 1.418,0 1.941,0 0.696,-0.036 1.606,-0.125 2.231,-0.43 0.523,-0.246 0.996,-0.676 1.344,-1.137 0.16,-0.215 0.558,-0.859 0.683,-1.074 v 0 l 10.488,-17.238 v 0 c 0.254,-0.426 0.469,-0.887 0.598,-1.344 0.281,-0.953 0.156,-1.969 -0.344,-2.801 -0.562,-0.918 -1.472,-1.504 -2.539,-1.746 -0.215,-0.035 -1.844,-0.035 -2.097,-0.035 h -33.782 v 25.805" /><path
         id="path36"
         style="fill:#ffffff;fill-opacity:1;fill-rule:nonzero;stroke:none"
         d="m 498.137,613.492 c 6.441,-0.058 11.609,-5.222 11.582,-11.551 -0.031,-6.418 -5.422,-11.546 -11.965,-11.453 -6.414,0.059 -11.609,5.129 -11.641,11.426 -0.039,6.481 5.41,11.641 12.024,11.578 v 0" /><path
         id="path38"
         style="fill:#ffffff;fill-opacity:1;fill-rule:nonzero;stroke:none"
         d="m 494.375,621.207 c -0.5,0 -1.348,-0.035 -1.848,-0.035 v 0 l -33.562,2.613 v 0 c -10.391,0.801 -27.766,0.801 -38.195,0.735 -8.704,-0.055 -24.856,-0.184 -33.528,-0.551 v 0 l -31.465,-1.996 v 0 c -0.597,-0.063 -1.226,-0.094 -1.816,-0.121 v 0 l 21.602,27.703 v 0 c 0.156,0.215 0.437,0.586 0.66,0.769 0.375,0.399 0.843,0.707 1.375,0.891 0.5,0.18 1.129,0.273 1.66,0.308 0.469,0.032 0.969,0.032 1.441,0.032 h 86.598 v 0 c 0.469,0 1.062,0 1.531,-0.032 0.535,-0.035 1.094,-0.128 1.602,-0.277 0.468,-0.152 0.91,-0.402 1.277,-0.707 0.313,-0.273 0.656,-0.676 0.938,-1.012 v 0 l 21.73,-28.32 v 0" /><path
         id="path40"
         style="fill:#ffffff;fill-opacity:1;fill-rule:nonzero;stroke:none"
         d="m 541.633,336.016 h -18.547 v 0 c 0,-2.52 -3.242,-4.786 -6.262,-4.786 -4.5,0 -8.25,5.254 -5.972,9.036 0,0.504 0.464,1.004 0.711,1.511 v 0 l -10.508,15.09 v 0 c -14.258,-12.316 -10.008,-35.433 7.519,-41.984 15.266,-5.75 31.797,4.797 33.059,21.133 v 0" /><path
         id="path42"
         style="fill:#ffffff;fill-opacity:1;fill-rule:nonzero;stroke:none"
         d="m 522.227,341.457 8.242,17.059 v 0 c 0.254,-0.254 0.754,-0.5 1.008,-0.75 3.023,-1.77 5.25,-4.504 7.019,-7.278 1.758,-3.015 2.734,-6.515 2.988,-9.797 0.254,-0.496 0.254,-1.003 0.254,-1.257 v 0 l -18.254,-0.5 v 0 c 0,0.254 0,0.754 -0.254,1.515 -0.253,0.5 -0.757,1.008 -1.003,1.008 v 0" /><path
         id="path44"
         style="fill:#ffffff;fill-opacity:1;fill-rule:nonzero;stroke:none"
         d="m 514.199,343.438 -10.769,15.078 v 0 c 0.504,0.254 0.758,0.507 1.258,0.761 2.988,1.731 6.523,2.735 10.007,3.235 3.75,0.254 7.746,0 11.274,-1.504 0.254,-0.254 0.75,-0.508 1.004,-0.508 v 0 l -8.028,-16.816 v 0 c -0.254,0 -1.007,0.504 -2.226,0.504 -0.762,0 -1.77,0 -2.52,-0.75 v 0" /><path
         id="path46"
         style="fill:#ffffff;fill-opacity:1;fill-rule:nonzero;stroke:none"
         d="m 595.305,347.391 16.265,36.437 6.77,-14.832 v 0 c -0.254,-0.254 -0.75,-0.504 -1.008,-0.758 -3.992,-2.015 -7.273,-4.789 -10.262,-8.023 -3.015,-3.535 -5.754,-7.57 -6.765,-12.063 0,-0.254 -0.246,-0.761 -0.246,-1.011 v 0 l -4.754,0.25 v 0" /><path
         id="path48"
         style="fill:#ffffff;fill-opacity:1;fill-rule:nonzero;stroke:none"
         d="m 622.266,360.137 5.507,-13.067 v 0 c 0,0 0,-0.254 -0.253,-0.254 -0.75,0 -2.266,-1.757 -2.266,-2.773 H 609.48 v 0 c 0.508,4.035 2.278,8.027 4.758,11.055 2.266,2.265 5,4.035 8.028,5.039 v 0" /><path
         id="path50"
         style="fill:#ffffff;fill-opacity:1;fill-rule:nonzero;stroke:none"
         d="m 657.148,340.949 -14.753,0.254 v 0 c 0,0.254 -1.008,3.277 -3.5,5.254 -2.008,1.512 -4.532,1.766 -7.02,1.766 v 0 l -6.008,13.32 v 0 c 7.024,2.266 14.758,1.008 20.774,-3.281 6.004,-3.996 9.754,-10.293 10.507,-17.313 v 0" /><path
         id="path52"
         style="fill:#ffffff;fill-opacity:1;fill-rule:nonzero;stroke:none"
         d="m 633.066,327.734 v -1.757 h 8.282 v -2.52 h -27.285 v 0 c 0.246,-0.508 0.496,-1.016 0.75,-1.258 6.515,-8.535 18.253,-10.304 28.046,-6.015 8.243,3.496 14.004,11.308 14.258,20.339 0,0.497 0,1.004 0,1.262 h -14.512 v 0 c 0,-2.773 -1.003,-5.293 -2.773,-7.308 -1.727,-1.766 -4.246,-2.743 -6.766,-2.743 v 0" /><path
         id="path54"
         style="fill:#ffffff;fill-opacity:1;fill-rule:nonzero;stroke:none"
         d="m 240.992,358.152 h -16.094 v 0 c -0.503,0 1.547,2.778 2.805,3.782 1.262,1.043 2.809,1.043 4.07,1.043 1.547,0 3.059,-0.243 4.61,-1.043 1.258,-0.75 2.558,-1.758 3.562,-2.762 0.254,-0.254 0.758,-0.762 1.047,-1.02 v 0" /><path
         id="path56"
         style="fill:#ffffff;fill-opacity:1;fill-rule:nonzero;stroke:none"
         d="m 211.328,334.836 3.059,4.531 v 0 c 2.301,-2.269 3.562,-5.293 3.312,-8.097 0,-3.028 -1.297,-5.801 -3.312,-7.852 -2.309,-2.266 -5.114,-3.273 -8.172,-3.273 -3.063,0 -6.121,1.261 -8.172,3.527 -2.051,2.051 -3.063,4.824 -3.063,7.598 -0.25,3.058 1.012,5.828 3.317,8.097 2.051,2.051 7.41,2.813 7.41,2.813 v 0 l 0.254,-5.082 v 0 c -0.254,0 -2.305,-0.504 -2.809,-0.758 -0.5,-0.5 -1.004,-0.754 -1.293,-1.262 -1.007,-1.004 -1.511,-2.265 -1.511,-3.808 0,-1.512 0.254,-3.028 1.511,-4.29 1.039,-1.257 2.809,-1.765 4.356,-1.765 2.555,0 5.113,0.762 6.117,4.289 0.258,1.512 -0.5,4.07 -0.5,4.824 -0.254,0.254 -0.254,0.254 -0.504,0.508 v 0" /><path
         id="path58"
         style="fill:#ffffff;fill-opacity:1;fill-rule:nonzero;stroke:none"
         d="m 250.098,333.281 -6.91,10.867 v 0 c -0.754,1.809 -0.754,4.075 0.539,5.586 1.007,1.008 2.773,1.008 4.32,-0.507 2.051,-2.008 2.808,-6.082 2.808,-7.84 0,-2.02 -0.757,-5.332 -0.757,-8.106 v 0" /><path
         id="path60"
         style="fill:#ffffff;fill-opacity:1;fill-rule:nonzero;stroke:none"
         d="m 286.277,330.012 -7.129,0.75 v 0 c 0.254,0.254 1.262,2.773 1.805,3.566 0.75,1.766 2.52,3.27 4.317,5.039 2.054,2.02 4.355,3.055 6.371,4.317 v 0 l -5.364,-13.672 v 0" /><path
         id="path62"
         style="fill:#ffffff;fill-opacity:1;fill-rule:nonzero;stroke:none"
         d="m 329.531,333.828 c -0.414,-0.789 -0.691,-1.769 -0.691,-2.703 0,-3.137 2.59,-5.715 5.75,-5.715 2.469,0 4.582,1.563 5.39,3.738 v 0 l 4.801,-2.398 v 0 c -1.777,-3.801 -5.609,-6.582 -10.207,-6.582 -6.117,0 -10.972,4.824 -10.972,10.887 0,2.023 0.261,3.543 1.281,5.058 v 0 l 4.648,-2.285 v 0" /><path
         id="path64"
         style="fill:#ffffff;fill-opacity:1;fill-rule:nonzero;stroke:none"
         d="m 340.098,333.176 1.011,0.254 4.102,1.004 v 0 c -1.551,4.316 -5.617,7.597 -10.477,7.597 -1.257,0 -2.554,-0.254 -3.562,-0.508 v 0 l 2.016,-4.824 v 0 c 0.539,0 1.039,0 1.546,0 2.301,0 4.36,-1.515 5.364,-3.523 v 0" /></g></g></svg>