<?xml version="1.0" encoding="UTF-8" standalone="no"?>
<svg
   xmlns:dc="http://purl.org/dc/elements/1.1/"
   xmlns:cc="http://creativecommons.org/ns#"
   xmlns:rdf="http://www.w3.org/1999/02/22-rdf-syntax-ns#"
   xmlns:svg="http://www.w3.org/2000/svg"
   xmlns="http://www.w3.org/2000/svg"
   viewBox="0 0 113.76 113.76"
   height="113.76"
   width="113.76"
   xml:space="preserve"
   id="svg2"
   version="1.1"><metadata
     id="metadata8"><rdf:RDF><cc:Work
         rdf:about=""><dc:format>image/svg+xml</dc:format><dc:type
           rdf:resource="http://purl.org/dc/dcmitype/StillImage" /></cc:Work></rdf:RDF></metadata><defs
     id="defs6" /><g
     transform="matrix(1.3333333,0,0,-1.3333333,0,113.76)"
     id="g10"><g
       transform="scale(0.1)"
       id="g12"><path
         id="path14"
         style="fill:#ffffff;fill-opacity:1;fill-rule:nonzero;stroke:none"
         d="m 426.617,851.813 c 234.821,0 425.199,-190.383 425.199,-425.204 C 851.816,191.789 661.438,1.41797 426.617,1.41797 191.793,1.41797 1.41797,191.789 1.41797,426.609 1.41797,661.43 191.793,851.813 426.617,851.813 v 0" /><path
         id="path16"
         style="fill:none;stroke:#231f20;stroke-width:2.83500004;stroke-linecap:butt;stroke-linejoin:round;stroke-miterlimit:4;stroke-dasharray:none;stroke-opacity:1"
         d="m 426.617,851.813 c 234.821,0 425.199,-190.383 425.199,-425.204 C 851.816,191.789 661.438,1.41797 426.617,1.41797 191.793,1.41797 1.41797,191.789 1.41797,426.609 1.41797,661.43 191.793,851.813 426.617,851.813 v 0" /><path
         id="path18"
         style="fill:#1a67bb;fill-opacity:1;fill-rule:nonzero;stroke:none"
         d="m 426.578,837.602 c 55.758,0 109.078,-10.766 159.985,-32.297 49.171,-20.797 92.714,-50.164 130.656,-88.094 37.929,-37.934 67.293,-81.484 88.086,-130.652 21.531,-50.907 32.304,-104.231 32.304,-159.981 0,-55.754 -10.773,-109.078 -32.304,-159.984 C 784.512,217.422 755.148,173.867 717.219,135.938 679.277,98.0078 635.734,68.6445 586.563,47.8438 535.656,26.3203 482.336,15.5469 426.578,15.5469 370.824,15.5469 317.5,26.3203 266.598,47.8438 217.426,68.6445 173.871,98.0078 135.941,135.938 98.0117,173.867 68.6484,217.422 47.8477,266.594 26.3203,317.5 15.5508,370.824 15.5508,426.578 c 0,55.75 10.7695,109.074 32.2969,159.981 20.8007,49.168 50.164,92.718 88.0933,130.652 37.93,37.93 81.485,67.297 130.657,88.094 50.902,21.531 104.226,32.297 159.98,32.297 v 0" /><path
         id="path20"
         style="fill:#ffffff;fill-opacity:1;fill-rule:nonzero;stroke:none"
         d="m 535.547,282.832 c 0.039,-1.699 -3.777,-4.504 -5.574,-6.16 -1.516,-1.262 -3.098,-2.453 -4.864,-3.567 -1.222,-0.683 -4.57,-2.734 -5.507,-3.777 -0.469,-0.324 -3.059,-4.355 -3.243,-4.933 v 0 l -7.304,-9.004 -4.758,-6.875 -5.574,-6.219 -2.59,-6.231 v 0 c -0.574,-1.406 -2.598,-4.211 -3.426,-5.722 -1.652,-2.344 -3.312,-4.864 -4.387,-7.637 -1.367,-2.227 -2.449,-5.078 -2.625,-7.734 -0.148,-0.91 -0.441,-3.965 -1.125,-4.25 -0.468,-0.332 -2.195,-0.547 -2.656,-0.332 -1.484,-0.215 -4.109,-0.789 -5.332,-1.258 -1.582,-0.176 -4.648,-1.074 -6.043,-1.731 -1.23,-0.566 -2.559,-1.543 -3.098,-2.695 -0.359,-0.789 -0.253,-1.941 -0.078,-2.84 0,-0.429 0.977,-3.926 0.977,-4.14 0.176,-1.153 0.363,-2.52 0.578,-3.672 -0.254,-2.129 -1.191,-4.289 -2.09,-6.27 -0.793,-1.758 -2.453,-4.277 -3.418,-5.832 v 0 l -35.715,0.078 v 0 c 0.758,1.543 1.657,3.418 2.555,4.961 1.977,3.887 4.645,8.899 7.887,12.383 2.09,2.305 7.019,5.977 9.715,8.215 1.086,0.859 4.648,3.672 5.722,4.461 1.231,0.683 2.559,1.73 3.43,2.344 0.066,1.152 0.105,2.804 0.43,3.808 0.535,3.027 2.441,6.055 4.5,8.43 1.972,2.558 4.355,4.754 6.73,6.699 1.656,1.074 4.141,2.586 5.723,3.563 0.535,1.652 1.218,3.593 1.765,4.96 v 0 L 481.047,255 v 0 c 1.082,2.805 4.141,11.23 5.437,13.938 v 0 l 7.813,15.156 v 0 c 1.504,3.484 2.988,6.875 4.035,10.293 0.352,1.218 0.82,2.879 0.965,4.031 0,1.152 -0.145,2.051 -0.176,2.988 -0.254,1.582 -0.683,3.418 -1.406,4.961 v 0 l -4.102,8.211 v 0 c -1.699,3.274 -2.879,6.477 -3.535,9.867 -1.367,4.532 -2.265,9.176 -2.801,13.535 -0.793,4.286 -1.406,8.641 -1.73,12.958 v 0 l -0.613,11.843 v 0 c 0,1.41 -0.176,3.246 -0.391,4.614 -1.66,-0.215 -4.355,-0.508 -6.055,-0.981 -4.035,-0.934 -9.785,-2.305 -13.793,-3.348 -4.351,-1.074 -10.504,-2.546 -14.715,-4.062 v 0 l -16.601,-6.191 v 0 c -4.82,-1.297 -12.992,-2.559 -17.711,-3.497 -5.793,-0.789 -19.328,-3.093 -25.125,-3.703 -6.34,-0.574 -13.066,-0.758 -19.66,-0.254 -4.93,0.254 -14.465,1.907 -19.578,2.59 -3.168,0.508 -6.735,1.192 -10.266,1.66 -1.941,0.254 -4.75,0.75 -6.766,0.938 0.254,-1.836 0.18,-4.609 0.18,-6.484 0.074,-3.926 0.363,-7.989 0.684,-12.168 0.215,-5.293 0.793,-11.192 1.515,-16.629 0.071,-0.469 2.989,-18.078 2.989,-18.762 0.359,-2.266 2.55,-17.207 3.129,-19.473 0.902,-5 2.054,-9.824 3.531,-14.797 0.469,-1.793 2.195,-7.742 2.699,-9.539 0.105,-0.683 1.688,-8.75 1.797,-9.14 0.394,-1.153 1.043,-2.703 1.66,-3.821 0.43,-0.828 0.789,-1.941 1.402,-2.73 v 0 l 3.133,-5.149 1.262,-4.246 v 0 c 0.32,-0.656 1.219,-1.914 1.902,-2.492 0.543,-0.605 1.696,-1.836 1.836,-2.988 0.363,-1.113 0.039,-2.266 -0.32,-3.524 -0.719,-1.437 -2.488,-2.589 -3.961,-3.273 -0.863,-0.398 -2.734,-1.336 -3.313,-2.129 -0.648,-0.508 -0.793,-1.433 -0.828,-2.625 0.035,-0.683 0.723,-2.238 1.153,-3.176 v 0 l 2.304,-6.582 v 0 c 0.36,-1.086 1.473,-3.672 1.657,-5.039 0.254,-1.804 -0.684,-5.691 -1.153,-7.558 v 0 l -1.586,-6.192 v 0 c -0.359,-1.23 -0.933,-2.879 -1.476,-4.14 -1.153,-0.184 -2.629,-0.36 -3.887,-0.293 -3.129,-0.391 -6.91,-0.469 -10.078,-0.391 v 0 l -7.633,0.324 -7.383,0.106 v 0 c -0.25,0 -4.461,0.363 -4.929,0.254 -1.008,-0.106 -2.45,-0.078 -3.418,-0.254 0.031,1.222 0.105,3.273 0.359,4.394 0.539,3.203 1.945,6.114 3.453,8.848 1.117,2.492 2.809,4.609 4.789,6.633 v 0 l 4.035,4.5 v 0 c 0.825,1.035 1.868,2.375 2.231,3.633 0.359,0.683 0.504,1.835 0.574,2.804 0.184,2.274 -0.254,5.946 -0.684,8.25 -0.179,3.742 -0.793,8.391 -0.793,12.168 0.071,1.367 -0.07,3.887 -0.25,5.215 -0.363,0.793 -1.835,4.356 -2.125,5.254 -1.117,1.945 -1.585,3.926 -2.339,5.91 -0.039,0.684 -0.828,2.695 -0.969,3.633 v 0 l -4.758,9.219 v 0 c -0.535,1.511 -3.344,8.535 -3.707,10.078 -2.41,6.187 -8.422,18.035 -11.195,24.051 -1.621,3.378 -7.664,15.293 -9.324,18.574 v 0 l -10.114,18.293 v 0 c -1.301,2.011 -3.926,6.765 -5.402,8.926 -1.008,1.687 -2.738,4.031 -3.777,5.679 -1.836,-0.465 -3.786,-0.75 -5.473,-1.179 v 0 l -20.813,-4.219 v 0 c -3.777,-0.711 -12.992,-2.41 -17.027,-3.485 -3.309,-0.683 -13.172,-2.851 -16.488,-3.312 -1.473,-0.254 -3.887,-0.293 -5.36,-0.508 -0.543,-1.301 -1.226,-3.387 -1.765,-4.891 -0.324,-1.449 -2.52,-10.265 -2.879,-11.632 -0.617,-2.703 -2.699,-11.309 -3.063,-13.899 -0.179,-1.836 -0.468,-3.992 -0.179,-6.043 0.328,-2.019 1.117,-4.218 2.09,-5.976 0.789,-1.66 1.656,-3.457 2.66,-4.715 1.406,-1.836 3.136,-3.496 4.972,-4.57 1.868,-0.872 4.676,-1.379 6.692,-1.661 v 0 l 9.832,-1.156 v 0 c 1.332,-0.105 5.324,-0.75 6.914,-0.75 0.644,0.11 2.84,0.176 3.418,-0.183 1.004,-0.325 1.941,-1.836 2.304,-2.52 0.536,-0.859 1.473,-2.121 2.551,-2.629 1.121,-0.574 3.063,-0.508 4.469,-0.359 1.945,0.293 6.332,0.574 8.277,0.644 2.196,-0.109 4.61,-0.461 6.411,-1.652 2.085,-1.113 4.101,-3.348 5.402,-5.508 0.898,-1.512 1.867,-3.387 2.84,-5.183 1.117,-2.344 2.16,-4.758 3.168,-7.168 0.867,-2.161 1.656,-4.571 2.019,-7.09 0.5,-2.051 1.113,-4.719 1.367,-6.77 -1.226,0.11 -2.773,0.574 -3.746,0.871 -2.05,0.684 -4.429,1.758 -6.226,2.696 -0.797,0.293 -2.305,0.722 -3.168,1.191 -0.469,-0.109 -3.781,0.391 -4.035,0.359 -0.789,0.11 -1.762,0.286 -2.485,0.578 -0.535,0.391 -2.445,2.051 -3.054,2.266 -1.336,1.543 -3.243,2.41 -5.114,3.164 -1.48,0.32 -2.988,0.613 -4.718,0.613 v 0 l -6.336,-0.539 v 0 c -1.293,-0.074 -2.735,0.246 -3.961,0.246 -2.52,0.442 -5.075,1.016 -7.09,1.915 -2.879,1.152 -6.41,3.027 -9.039,4.746 -1.836,1.152 -5.903,3.859 -8.282,4.648 -2.875,1.438 -7.269,2.59 -10.257,3.274 v 0 l -10.977,2.703 v 0 c -1.766,0.683 -4.359,1.261 -6.051,1.875 -1.652,0.754 -3.742,1.906 -4.715,3.379 -1.441,1.691 -1.871,4.824 -2.125,6.843 0.075,1.614 -0.429,10.364 -0.609,11.914 -0.254,5.325 -0.723,10.942 -1.226,16.235 -0.43,4.824 -0.973,9.363 -1.403,14.148 -0.469,3.242 -0.902,8.281 -0.863,11.485 0.141,2.988 0.43,6.3 1.797,8.789 1.332,2.519 3.531,4.636 5.976,6.328 3.024,2.558 7.633,4.933 11.411,6.66 3.425,1.836 14.042,6.953 17.57,8.789 1.762,1.152 12.133,7.668 14.043,8.816 4.207,2.918 8.785,5.618 13.101,8.032 5.078,2.804 9.793,5.578 14.832,8.281 1.582,0.894 3.493,1.867 5.149,2.519 -0.578,1.547 -1.551,3.778 -1.981,5.145 -1.152,2.738 -2.195,8.605 -2.843,11.594 v 0 l -2.77,13.246 v 0 c -0.797,4.969 -2.055,11.269 -2.668,16.453 -0.18,1.367 -0.539,3.855 -0.754,5.223 -0.828,1.003 -2.051,2.699 -2.918,3.777 -2.379,3.383 -5.722,8.207 -7.992,11.879 -1.91,2.734 -4.824,6.984 -6.695,9.972 v 0 l -8.75,11.45 v 0 c -0.864,1.332 -2.121,2.988 -3.094,4.465 -1.227,0.07 -4.211,0.07 -5.434,0.179 -3.242,0.285 -6.734,0.539 -10.152,0.469 -2.23,0.105 -8.824,0.469 -11.016,0.574 -3.316,0.289 -6.734,0.504 -10.152,1.262 -2.269,0.394 -4.754,0.898 -7.019,1.762 -2.051,0.468 -4.934,1.226 -6.77,1.91 -0.359,-0.504 -0.863,-1.078 -1.227,-1.332 v 0 l -4.32,-3.203 v 0 c -0.355,-0.215 -2.875,-2.235 -3.055,-2.235 -0.253,-0.07 -4.503,-0.504 -4.757,-0.648 -0.719,-0.106 -4.536,-1.262 -5.254,-1.582 -2.446,-0.758 -4.461,-1.371 -6.66,-1.442 -1.762,0.071 -3.524,0.215 -5.039,0.504 -2.34,0.684 -4.395,2.016 -6.372,3.098 -1.875,1.117 -3.457,2.305 -5.113,3.742 -1.406,1.152 -2.808,2.594 -3.531,4.141 -1.113,2.554 -1.184,6.336 -0.789,9.035 v 0 l 1.941,13.211 v 0 c 0.469,3.601 0.723,7.312 0.469,10.695 0.184,5.004 -0.648,10.332 -1.438,15.047 -0.429,3.203 -1.582,9.574 -1.222,12.887 v 0 l 1.078,7.707 v 0 c 0.43,0.969 0.609,4.676 0.684,5.722 0.25,4.172 0.793,8.891 2.019,12.602 1.152,4.176 3.168,7.848 5.359,11.41 0.973,1.332 2.809,4.535 3.422,6.301 0.184,1.148 0.071,2.519 -0.359,3.851 -0.148,1.153 -0.863,2.625 -1.227,3.563 -0.355,0.863 -1.761,3.887 -2.086,4.754 v 0 l -3.601,6.187 v 0 c -0.43,0.868 -0.719,2.235 -1.152,3.172 1.48,0.321 2.558,1.188 4.031,1.153 2.988,-0.075 6.59,-1.407 9.289,-2.7 2.594,-1.441 5.726,-3.062 8.207,-4.898 1.836,-1.297 3.851,-2.844 5.508,-4.535 1.48,-1.113 3.097,-2.735 4.32,-3.996 1.047,0.793 3.137,1.761 4.355,2.445 3.856,1.91 10.192,2.484 14.583,2.883 4.14,0.359 8.964,0.469 12.925,0.394 21.742,-0.289 45.539,-11.05 63.719,-21.957 15.551,-9 31.426,-19.55 44.746,-31.144 2.305,-1.942 26.969,-26.203 29.235,-28.188 3.886,-3.633 7.847,-7.453 12.027,-10.8 0.898,-0.86 2.84,-2.407 3.598,-3.204 0.972,0.364 2.66,0.758 3.597,1.153 2.305,0.758 4.684,1.765 6.77,2.808 1.586,0.614 3.242,1.547 4.5,2.629 1.047,0.934 2.199,1.797 3.062,2.985 0.61,0.867 0.973,1.769 1.403,2.703 v 0 l 0.722,4.574 v 0 c 0.789,3.055 2.949,6.082 4.965,8.711 2.664,2.664 5.613,5.109 8.711,6.945 v 0 l 12.027,6.012 v 0 c 1.078,0.863 2.481,1.441 3.344,2.484 0.684,0.614 1.332,1.442 1.66,2.125 0.106,0.684 -0.074,2.051 -0.179,2.735 -0.329,2.304 -0.758,4.824 -1.336,6.949 v 0 l -3.598,14.109 v 0 c -1.547,5.547 -2.813,11.453 -3.816,17.067 -1.008,5.402 -1.872,11.773 -1.622,17.281 0.106,5.113 1.079,10.078 2.559,15.121 1.078,2.988 2.371,5.902 4.57,8.387 0.434,0.468 1.223,1.547 1.473,2.015 0.109,0.684 -0.32,1.981 -0.609,2.45 v 0 l -1.731,5.507 v 0 c -0.715,1.762 -1.687,3.457 -2.914,5.149 -0.683,1.226 -1.836,2.305 -2.914,3.273 -0.254,0.473 -1.117,0.973 -1.621,1.157 -0.543,0.214 -1.695,-0.215 -2.125,-0.504 -0.863,-0.364 -2.09,-0.399 -3.063,-0.653 -1.687,-0.179 -3.418,-0.211 -5.039,0.473 -1.293,0.754 -2.195,1.867 -2.988,2.805 -1.004,1.336 -1.398,2.918 -1.906,4.25 -0.07,0.898 -0.613,2.625 -0.899,3.308 -0.324,0.578 -0.937,1.262 -1.656,1.153 -0.254,0 -0.863,-0.321 -1.117,-0.321 -0.465,-0.433 -1.691,-0.937 -2.195,-0.863 -0.469,0.43 -0.969,1.836 -1.082,2.445 -0.43,1.762 -0.504,3.852 -0.325,5.977 0.149,1.187 0.325,3.308 0.254,4.461 -0.433,0.793 -1.152,2.125 -1.652,2.808 -0.797,1.368 -1.621,2.918 -2.414,4.469 -0.688,2.121 -1.227,4.422 -1.371,6.727 -0.11,2.742 0.683,5.617 1.91,8.14 1.402,2.446 3.598,4.571 6.047,6.371 2.414,1.692 7.594,3.313 10.476,3.961 v 0 l 9.219,2.84 v 0 c 2.016,0.758 4.93,1.336 7.129,1.442 2.231,-0.18 4.422,-0.754 6.191,-1.547 3.344,-1.621 6.223,-4.43 8.528,-7.129 2.09,-2.446 3.961,-5.473 5.113,-8.352 0.574,-1.765 1.047,-4.031 1.227,-5.578 0.25,-1.836 0.504,-3.82 0.789,-5.617 0.429,-2.953 0.758,-7.344 0.937,-10.297 0.11,-1.152 0.176,-3.531 0.285,-4.609 0.36,-1.078 0.864,-2.125 1.551,-3.278 0.645,-1.761 1.692,-3.672 2.844,-5.144 1.117,-1.262 2.519,-2.414 3.777,-3.418 v 0 l 11.848,-5.403 v 0 c 6.117,-2.773 11.117,-7.019 15.152,-11.988 3.426,-4.426 6.27,-9.578 8.172,-14.867 v 0 l 7.492,-19.008 v 0 c 2.801,-6.086 7.344,-13.609 11.055,-19.297 2.734,-4.281 5.938,-9.144 8.855,-13.355 1.145,-1.258 3.059,-3.996 3.958,-5.508 1.042,-2.234 1.835,-4.574 1.55,-7.199 -0.398,-3.063 -2.636,-6.375 -4.285,-8.895 -1.476,-1.836 -2.988,-3.672 -4.394,-5.508 v 0 l -5.977,-6.082 v 0 c -0.969,-0.757 -2.09,-1.835 -2.695,-2.703 0.683,-0.718 1.511,-2.015 1.902,-2.914 2.481,-3.562 4.031,-8.312 5.293,-12.207 1.77,-5.613 2.988,-11.121 3.781,-16.879 0.614,-4.968 1.114,-10.007 1.153,-15.121 -0.11,-1.621 -0.286,-3.886 -0.286,-5.582 2.872,0.149 7.012,0.543 9.641,0.723 8.613,0.14 17.461,0.215 26.25,-0.074 4.863,0.074 19.656,-0.469 24.59,-0.754 6.66,-0.215 17.383,-0.903 23.504,-3.024 4.68,-1.73 12.129,-6.191 16.203,-8.89 1.648,-0.868 3.242,-1.91 4.824,-2.809 1.473,0.106 4.356,0.973 5.789,1.258 7.598,1.726 16.414,3.566 24.199,4.176 10,1.113 20.372,0.863 30.129,-1.012 8.426,-1.836 16.161,-4.711 23.438,-9.141 6.914,-4.066 12.812,-9.285 17.566,-15.515 4.532,-6.157 9.289,-15.735 12.383,-22.5 3.567,-8.028 7.09,-16.164 10.442,-24.192 2.878,-7.058 6.23,-15.41 8.671,-22.644 v 0 l 6.7,-20.59 v 0 c 1.296,-3.969 3.132,-7.961 5.144,-11.738 2.883,-4.895 6.485,-10.254 11.485,-13.711 2.128,-1.621 11.093,-6.196 13.468,-7.453 2.266,-1.043 5.547,-2.918 7.989,-4.247 1.043,-0.578 2.957,-1.875 3.066,-3.031 0.43,-1.109 -0.684,-2.664 -1.231,-3.386 -1.074,-1.622 -2.55,-2.801 -4.21,-3.782 -2.481,-1.543 -5.614,-2.195 -8.536,-2.086 -3.847,-0.324 -8.671,0.465 -12.449,1.231 -6.914,1.582 -13.613,3.992 -19.914,6.804 -7.129,3.489 -13.816,8.309 -19.687,13.321 -5.614,4.57 -10.692,9.894 -15.086,15.183 -6.047,8.032 -10.91,18.114 -14.504,27.004 -2.879,6.77 -5.262,13.825 -7.781,20.7 -2.012,5.507 -5.977,16.742 -8.352,22.031 -2.734,5.836 -5.977,11.844 -10.371,16.777 -4.102,4.824 -9.031,8.781 -14.649,11.953 -4.285,2.41 -9.031,4.461 -13.789,5.508 -3.523,0.609 -7.304,0.828 -11.054,0.285 -1.219,-0.144 -3.418,-0.465 -4.825,-0.863 1.125,-0.973 2.637,-2.879 3.43,-3.957 2.52,-3.567 4.356,-8.317 5.684,-12.352 2.371,-7.054 3.855,-14.539 4.461,-22.062 0.539,-7.457 -0.176,-15.266 -1.836,-22.649 -1.836,-7.164 -4.715,-14.722 -7.774,-21.562 0,0 -6.445,-14.149 -6.699,-14.149 -1.289,-2.953 -4.141,-8.859 -5.789,-11.875 -0.363,-0.761 -1.152,-2.199 -1.77,-2.992 0.899,-1.043 1.836,-2.593 2.668,-3.308 1.836,-2.813 5,-6.082 7.274,-8.426 2.336,-2.481 5.43,-5.805 8.242,-7.988 0.793,-0.618 2.441,-1.77 3.059,-2.563 0.613,-0.867 1.043,-2.195 1.218,-3.348 v 0 l 0.911,-4.753 1.218,-5.325 v 0 c 0.254,-2.519 0,-7.746 -0.183,-10.222 -0.071,-3.203 -0.071,-6.516 0.117,-9.719 0.066,-4.395 0.535,-9.434 1.836,-13.613 0.926,-3.309 2.371,-6.59 4.461,-9.649 1.582,-2.226 4.062,-4.179 6.222,-5.937 1.231,-0.789 2.489,-1.727 3.602,-2.489 -0.145,-1.007 -0.43,-2.226 -0.535,-3.125 -0.254,-1.836 0,-3.671 0.898,-5.226 0.899,-1.258 2.559,-2.195 4.285,-2.371 1.008,-0.403 2.227,-0.403 3.204,-0.254 v 0 l 5.253,0.976 v 0 c 0.508,0 3.137,0.391 3.606,0.391 0.75,0.039 2.187,0.32 2.695,0.184 1.082,-0.438 1.66,-1.153 2.266,-1.805 0.828,-0.859 1.805,-2.52 2.195,-3.379 0.539,-0.617 4.074,-6.875 4.434,-7.559 v 0 l 4.211,-9.289 v 0 c 0.32,-0.683 1.297,-2.41 1.218,-3.32 -0.175,-0.711 -1.074,-1.289 -1.835,-1.836 -0.606,-0.351 -1.836,-0.75 -2.735,-0.859 -1.472,-0.176 -3.164,-0.469 -4.824,-0.684 -2.664,-0.066 -5.613,-0.469 -8.535,-0.644 v 0 l -9.285,-0.118 v 0 c -1.477,-0.175 -4.141,-0.351 -5.43,0.118 -1.875,0.5 -3.781,1.836 -5.039,3.093 v 0 l -5.695,5.149 v 0 c -0.789,0.644 -8.243,6.476 -9.141,7.16 -3.066,2.598 -6.66,5.586 -8.789,8.75 -2.52,3.602 -4.609,9.969 -5.613,14.043 -0.754,2.012 -4.102,14.148 -4.786,16.23 -1.007,3.778 -2.48,8.856 -3.781,12.711 -0.183,1.543 -0.976,3.743 -1.66,5.215 v 0 l -2.586,4.328 -2.344,4.961 v 0 c -1.261,2.129 -5.293,4.649 -7.453,5.723 -3.164,1.914 -6.445,3.965 -9.219,6.445 v 0 l -6.765,6.406 v 0 c -2.051,2.024 -4.492,3.79 -6.692,5.586 -0.976,0.579 -2.382,1.297 -3.347,1.543 -1.113,0.403 -2.414,0.442 -3.059,0.11 -0.801,-0.356 -1.726,-1.074 -2.09,-1.906 -0.437,-0.79 -0.722,-1.946 -0.867,-2.84 -0.109,-1.047 -1.582,-6.66 -1.691,-7.707 -0.977,-3.821 -1.582,-8.028 -2.266,-12.024 -0.105,-1.363 -1.043,-8.316 -1.445,-9.754 -0.43,-1.66 -1.289,-4.543 -1.836,-6.406 v 0" /><path
         id="path22"
         style="fill:#1a67bb;fill-opacity:1;fill-rule:nonzero;stroke:none"
         d="m 396.445,528.961 2.446,-19.981 v 0 c -1.145,-0.433 -2.981,-1.3 -4.133,-1.984 -3.317,-1.398 -7.996,-2.949 -11.305,-3.851 -4.215,-1.219 -10.48,-3.204 -14.293,-4.711 -1.695,-0.438 -4.394,-1.262 -5.976,-1.696 -1.153,-0.429 -3.028,-0.648 -4.5,-1.043 -0.543,0.614 -1.477,1.297 -2.02,2.016 v 0 l -2.805,2.559 -2.199,2.015 v 0 c -0.933,0.645 -1.726,1.656 -2.555,2.301 v 0 l 16.165,9.977 v 0 c 0.468,-0.364 1.585,-0.942 2.125,-1.336 1.476,-0.469 3.168,-0.969 5.078,-1.368 1.472,-0.289 3.418,-0.468 4.894,0.18 1.188,0.399 2.481,1.551 3.602,2.629 0.359,0.469 1.183,1.477 1.332,2.305 0.429,0.683 0.176,2.445 0.066,3.382 v 0 l -0.32,2.051 v 0 c -0.074,0.469 -0.109,1.367 -0.254,1.836 0.758,0.215 1.98,0.684 2.699,0.758 v 0 l 4.469,1.293 4.207,1.805 v 0 c 0.973,0.285 2.305,0.715 3.277,0.863 v 0" /><path
         id="path24"
         style="fill:#1a67bb;fill-opacity:1;fill-rule:nonzero;stroke:none"
         d="m 187.105,541.414 c 0.504,-1.547 1.297,-4.031 2.016,-5.793 0.793,-1.801 3.672,-7.129 4.719,-8.785 0.285,-1.152 3.598,-6.949 4.246,-8.102 0.324,-0.32 4.43,-7.019 4.719,-7.449 0.715,-1.695 1.472,-3.82 1.941,-5.656 0.684,-2.484 1.477,-5.18 1.91,-7.879 0,-0.223 0.719,-3.785 0.719,-4.215 0.434,-0.683 0.5,-1.621 0.863,-2.269 -1.656,-0.215 -4.14,-0.25 -5.937,-0.325 -0.973,0.18 -6.086,0.325 -6.949,0.469 -1.942,0 -8.102,0.215 -10.082,0.684 -1.977,0.215 -7.594,1.297 -9.684,1.945 -1.473,0.285 -5.004,0.899 -6.481,1.473 -0.828,0.254 -2.375,0.758 -3.242,1.226 -0.105,0.864 -0.535,2.16 -0.609,2.809 -0.215,2.051 -0.359,4.824 0.074,6.945 0.504,1.946 2.125,4.399 3.598,6.051 v 0 l 5.328,6.555 v 0 c 2.305,2.804 4.609,5.828 6.586,9.105 1.769,3.063 3.277,6.481 4.824,9.758 0.363,0.898 1.152,2.41 1.441,3.453 v 0" /></g></g></svg>