<?xml version="1.0" encoding="UTF-8" standalone="no"?>
<svg
   xmlns:dc="http://purl.org/dc/elements/1.1/"
   xmlns:cc="http://creativecommons.org/ns#"
   xmlns:rdf="http://www.w3.org/1999/02/22-rdf-syntax-ns#"
   xmlns:svg="http://www.w3.org/2000/svg"
   xmlns="http://www.w3.org/2000/svg"
   viewBox="0 0 113.38667 113.38667"
   height="113.38667"
   width="113.38667"
   xml:space="preserve"
   id="svg2"
   version="1.1"><metadata
     id="metadata8"><rdf:RDF><cc:Work
         rdf:about=""><dc:format>image/svg+xml</dc:format><dc:type
           rdf:resource="http://purl.org/dc/dcmitype/StillImage" /></cc:Work></rdf:RDF></metadata><defs
     id="defs6" /><g
     transform="matrix(1.3333333,0,0,-1.3333333,0,113.38667)"
     id="g10"><g
       transform="scale(0.1)"
       id="g12"><path
         id="path14"
         style="fill:#ee2c30;fill-opacity:1;fill-rule:nonzero;stroke:none"
         d="m 425.195,850.391 c 234.832,0 425.2,-190.368 425.2,-425.196 C 850.395,190.367 660.027,0 425.195,0 190.367,0 0,190.367 0,425.195 0,660.023 190.367,850.391 425.195,850.391 v 0" /><path
         id="path16"
         style="fill:#ffffff;fill-opacity:1;fill-rule:nonzero;stroke:none"
         d="m 425.234,708.695 c 38.512,0 75.274,-7.406 110.293,-22.215 33.899,-14.335 63.946,-34.609 90.149,-60.812 26.199,-26.195 46.469,-56.242 60.804,-90.141 14.813,-35.019 22.215,-71.789 22.215,-110.297 0,-38.507 -7.402,-75.273 -22.215,-110.292 -14.335,-33.899 -34.605,-63.946 -60.804,-90.149 -26.203,-26.199 -56.25,-46.469 -90.149,-60.805 -35.019,-14.808 -71.781,-22.214 -110.293,-22.214 -38.511,0 -75.273,7.406 -110.293,22.214 -33.894,14.336 -63.945,34.606 -90.144,60.805 -26.203,26.203 -46.473,56.25 -60.813,90.149 -14.808,35.019 -22.218,71.785 -22.218,110.292 0,38.508 7.41,75.278 22.218,110.297 14.34,33.899 34.61,63.946 60.813,90.141 26.199,26.203 56.25,46.477 90.144,60.812 35.02,14.809 71.782,22.215 110.293,22.215 v 0" /><path
         id="path18"
         style="fill:#231f20;fill-opacity:1;fill-rule:nonzero;stroke:none"
         d="m 596.117,363.699 v -51.156 c 0,-1.293 0,-1.941 0,-2.586 0,-1.301 -0.644,-2.594 -1.332,-3.242 0,-0.652 -1.328,-1.293 -2.012,-1.293 -1.332,-0.652 -2.668,-0.652 -3.347,-0.652 h -20.164 v 0 c -1.332,0 -2.016,0 -2.66,0 -1.372,0.652 -2.016,0.652 -2.7,1.945 -0.683,0 -0.683,1.293 -0.683,1.941 -0.653,0.653 -0.653,1.946 -0.653,3.242 v 46.618 c -1.332,-0.645 -3.347,-0.645 -4.031,-0.645 -18.793,-3.242 -48.351,-3.891 -67.14,-4.535 -10.766,0 -57.743,-1.301 -68.508,-1.301 -20.809,0 -42.946,0.653 -63.789,1.945 -19.481,0.649 -45.653,1.95 -65.129,2.59 v 0 l -4.676,0.653 v -47.914 c 0,-0.653 -0.684,-1.946 -1.367,-3.246 -0.653,-0.641 -1.332,-1.293 -2.668,-1.293 h -3.383 -19.437 -2.016 c -1.367,0 -2.02,0.652 -3.387,1.293 -0.648,1.3 -0.648,2.593 -0.648,3.246 0,0.648 0,3.234 0,3.234 v 51.156 h -14.114 v 0 c 0,0 -2.699,0 -3.347,0 -0.684,0.653 -2.016,1.301 -2.699,1.946 -0.684,0.648 -1.329,1.945 -1.329,2.593 -0.683,1.297 -0.683,3.887 -0.683,5.184 0.683,5.148 0,12.926 0,18.105 0,5.836 -0.652,14.258 -1.332,20.739 -0.688,7.777 -2.02,15.515 -4.035,22.648 0,1.941 -1.332,5.828 -1.332,7.774 -0.684,3.242 -0.684,7.125 0,11.011 0.648,3.891 2.015,7.781 3.347,11.02 3.352,5.832 8.063,10.332 13.43,13.574 3.348,2.59 8.059,5.18 12.094,5.828 1.332,0 2.015,0 3.347,0.649 v 0 l 54.399,69.949 v 0 c 0.648,0.648 1.332,1.297 2.015,1.941 0.649,0.649 1.332,1.945 2.665,1.945 1.367,0.649 2.703,1.297 4.031,1.297 0.679,0 2.699,0 3.347,0 h 198.11 v 0 c 1.328,0 2.664,0 3.344,0 1.335,-0.648 2.703,-0.648 4.035,-1.297 1.332,0 2.015,-1.296 3.347,-1.945 l 2.016,-2.594 v 0 l 56.414,-69.945 v 0 c 0.645,-0.648 2.66,-1.293 3.344,-1.293 4.035,-1.301 7.383,-3.242 10.765,-5.187 4.68,-3.243 8.032,-7.09 10.731,-12.274 3.348,-4.535 4.715,-10.367 5.359,-15.554 0,-4.536 -1.328,-12.958 -2.011,-16.848 -1.332,-4.535 -2.016,-9.684 -2.665,-14.219 -0.683,-5.187 -1.367,-10.367 -1.367,-15.555 -0.648,-4.535 -1.336,-9.07 -1.336,-13.605 0,-4.535 0,-9.074 0.688,-14.219 0,-1.301 0,-3.887 0,-5.187 0,-1.293 0,-3.239 -1.367,-4.535 -0.653,-0.645 -1.336,-1.946 -2.668,-1.946 -0.684,0 -2.7,0 -3.383,0 h -13.43 v 0" /><path
         id="path20"
         style="fill:#ffffff;fill-opacity:1;fill-rule:nonzero;stroke:none"
         d="m 266.18,465.078 c 13.429,0 24.84,-10.367 24.84,-23.973 0,-13.578 -11.411,-24.589 -25.528,-23.941 -13.426,0 -24.84,11.016 -24.84,23.941 0.688,12.958 11.414,23.973 25.528,23.973 v 0" /><path
         id="path22"
         style="fill:#ffffff;fill-opacity:1;fill-rule:nonzero;stroke:none"
         d="m 376.305,441.211 v -54.398 h -72.504 v 0 c -0.688,0 -2.703,0 -2.703,0 -2.66,0 -5.36,0.648 -6.696,2.589 -1.332,1.301 -2.015,3.243 -2.015,5.836 0,1.293 0.683,2.594 1.336,3.239 v 0 l 22.82,37.546 v 0 c 0,0.653 0.684,1.946 1.367,2.594 1.332,1.297 2.016,1.946 3.352,1.946 1.332,0.648 3.347,0.648 4.715,0.648 h 50.328 v 0" /><path
         id="path24"
         style="fill:#ffffff;fill-opacity:1;fill-rule:nonzero;stroke:none"
         d="m 381.738,441.211 h 87.301 v -54.398 h -87.301 v 54.398" /><path
         id="path26"
         style="fill:#ffffff;fill-opacity:1;fill-rule:nonzero;stroke:none"
         d="m 475.055,441.211 h 46.328 v 0 c 1.332,0 3.347,0 4.031,0 1.332,0 3.352,-0.648 4.684,-1.297 1.367,0 2.699,-1.297 3.382,-1.945 0,-0.645 0.645,-1.946 1.329,-2.594 v 0 l 22.828,-36.25 v 0 c 0,-0.648 0.683,-1.941 0.683,-2.594 0.649,-2.59 0.649,-4.535 -0.683,-6.476 -0.649,-1.946 -2.664,-3.242 -5.367,-3.242 -0.684,0 -4.032,0 -4.715,0 h -72.5 v 54.398" /><path
         id="path28"
         style="fill:#ffffff;fill-opacity:1;fill-rule:nonzero;stroke:none"
         d="m 584.492,465.078 c 14.078,0 25.524,-11.015 25.524,-23.973 -0.684,-13.578 -12.094,-24.589 -26.207,-24.589 -13.426,0 -24.84,11.011 -24.84,23.972 0,14.223 11.414,25.239 25.523,24.59 v 0" /><path
         id="path30"
         style="fill:#ffffff;fill-opacity:1;fill-rule:nonzero;stroke:none"
         d="m 576.316,481.926 c -0.64,0 -2.66,0 -4.031,0 v 0 l -71.816,5.183 v 0 c -22.864,1.946 -59.762,1.946 -82.621,1.297 -18.789,0 -53.028,0 -71.825,-0.648 v 0 l -67.82,-4.535 h -4.031 l 46.332,58.281 v 0 c 0.684,0.648 1.332,1.301 1.332,1.949 1.367,0.645 2.016,1.293 3.383,1.942 0.648,0 1.976,0.644 3.351,0.644 1.328,0 2.012,0 3.344,0 H 517.93 v 0 c 1.328,0 2.66,0 3.343,0 1.332,0 2.668,-0.644 4.036,-0.644 0.648,-0.649 1.332,-0.649 2.664,-1.297 0.683,-0.645 1.367,-1.946 2.011,-2.594 v 0 l 46.332,-59.578 v 0" /></g></g></svg>