<?xml version="1.0" encoding="UTF-8" standalone="no"?>
<svg
   xmlns:dc="http://purl.org/dc/elements/1.1/"
   xmlns:cc="http://creativecommons.org/ns#"
   xmlns:rdf="http://www.w3.org/1999/02/22-rdf-syntax-ns#"
   xmlns:svg="http://www.w3.org/2000/svg"
   xmlns="http://www.w3.org/2000/svg"
   viewBox="0 0 113.38667 113.38667"
   height="113.38667"
   width="113.38667"
   xml:space="preserve"
   id="svg2"
   version="1.1"><metadata
     id="metadata8"><rdf:RDF><cc:Work
         rdf:about=""><dc:format>image/svg+xml</dc:format><dc:type
           rdf:resource="http://purl.org/dc/dcmitype/StillImage" /></cc:Work></rdf:RDF></metadata><defs
     id="defs6" /><g
     transform="matrix(1.3333333,0,0,-1.3333333,0,113.38667)"
     id="g10"><g
       transform="scale(0.1)"
       id="g12"><path
         id="path14"
         style="fill:#ee2c30;fill-opacity:1;fill-rule:nonzero;stroke:none"
         d="m 850.391,425.195 c 0,234.828 -190.36,425.196 -425.192,425.196 C 190.371,850.391 0,660.023 0,425.195 0,190.371 190.371,0 425.199,0 660.031,0 850.391,190.371 850.391,425.195 v 0" /><path
         id="path16"
         style="fill:#ffffff;fill-opacity:1;fill-rule:nonzero;stroke:none"
         d="m 708.664,425.195 c 0,156.563 -126.906,283.461 -283.465,283.461 -156.566,0 -283.465,-126.898 -283.465,-283.461 0,-156.562 126.899,-283.465 283.465,-283.465 156.559,0 283.465,126.903 283.465,283.465 v 0" /><path
         id="path18"
         style="fill:#231f20;fill-opacity:1;fill-rule:nonzero;stroke:none"
         d="M 616.535,396.863 H 233.859 v 0 c -15.625,0 -28.332,12.707 -28.332,28.332 0,15.66 12.707,28.371 28.332,28.371 h 382.676 v 0 c 15.664,0 28.367,-12.711 28.367,-28.371 0,-15.625 -12.703,-28.332 -28.367,-28.332 v 0" /><path
         id="path20"
         style="fill:#231f20;fill-opacity:1;fill-rule:nonzero;stroke:none"
         d="m 237.422,486.176 h 15.371 v 40.215 h 9.254 v 0 c 10.406,0 18.394,2.554 23.793,7.812 5.258,5.113 7.961,12.492 7.961,22.031 v 0 c 0,9.543 -2.703,16.778 -8.102,21.746 -5.402,4.969 -12.816,7.383 -22.07,7.383 h -26.207 v -99.187" /><path
         id="path22"
         style="fill:#231f20;fill-opacity:1;fill-rule:nonzero;stroke:none"
         d="m 310.898,497.809 c 3.418,-4.25 7.379,-7.383 12.094,-9.508 4.571,-2.231 9.543,-3.238 14.797,-3.238 5.582,0 10.691,1.007 15.375,3.097 4.711,2.121 8.711,5.254 12.129,9.5 3.422,4.141 6.125,9.543 8.102,15.953 1.871,6.367 2.843,14.039 2.843,22.715 v 0 c 0,8.391 -0.972,15.66 -2.843,21.887 -1.977,6.262 -4.68,11.523 -8.102,15.805 -3.418,4.105 -7.418,7.382 -11.988,9.5 -4.676,2.125 -9.68,3.136 -14.942,3.136 -5.539,0 -10.547,-1.011 -15.222,-3.136 -4.719,-2.118 -8.825,-5.254 -12.243,-9.395 -3.421,-4.246 -6.121,-9.648 -7.992,-16.055 -1.976,-6.371 -2.988,-14.078 -2.988,-22.715 0,-8.386 1.012,-15.66 2.988,-21.886 1.871,-6.266 4.571,-11.52 7.992,-15.66 v 0" /><path
         id="path24"
         style="fill:#231f20;fill-opacity:1;fill-rule:nonzero;stroke:none"
         d="m 386.82,486.176 h 47.957 v 12.637 h -32.586 v 86.55 H 386.82 v -99.187" /><path
         id="path26"
         style="fill:#231f20;fill-opacity:1;fill-rule:nonzero;stroke:none"
         d="m 441.863,486.176 h 15.414 v 99.187 h -15.414 v -99.187" /><path
         id="path28"
         style="fill:#231f20;fill-opacity:1;fill-rule:nonzero;stroke:none"
         d="m 466.602,486.176 h 58.644 v 12.637 h -41.437 l 40.714,73.625 v 12.925 h -56.66 v -12.636 h 38.582 l -39.843,-72.653 v -13.898" /><path
         id="path30"
         style="fill:#231f20;fill-opacity:1;fill-rule:nonzero;stroke:none"
         d="m 535,486.176 h 50.832 v 12.637 h -35.461 v 32.257 h 32.18 v 12.676 h -32.18 v 28.981 h 33.906 v 12.636 H 535 v -99.187" /><path
         id="path32"
         style="fill:#231f20;fill-opacity:1;fill-rule:nonzero;stroke:none"
         d="m 597.531,486.176 h 15.371 v 99.187 h -15.371 v -99.187" /><path
         id="path34"
         style="fill:#231f20;fill-opacity:1;fill-rule:nonzero;stroke:none"
         d="m 248.043,265.07 h 15.371 v 40.243 h 9.254 v 0 c 10.363,0 18.324,2.558 23.758,7.812 5.254,5.117 7.953,12.488 7.953,22.031 v 0 c 0,9.539 -2.699,16.778 -8.094,21.746 -5.441,4.973 -12.816,7.383 -22.07,7.383 H 248.043 V 265.07" /><path
         id="path36"
         style="fill:#231f20;fill-opacity:1;fill-rule:nonzero;stroke:none"
         d="m 321.445,276.73 c 3.383,-4.25 7.383,-7.375 12.063,-9.503 4.57,-2.266 9.539,-3.27 14.793,-3.27 5.547,0 10.695,1.004 15.371,3.125 4.683,2.129 8.676,5.262 12.101,9.512 3.418,4.129 6.118,9.527 8.098,15.945 1.836,6.367 2.844,14.031 2.844,22.715 v 0 c 0,8.391 -1.008,15.652 -2.844,21.887 -1.98,6.257 -4.68,11.519 -8.098,15.8 -3.425,4.11 -7.418,7.379 -11.953,9.508 -4.683,2.121 -9.683,3.125 -14.941,3.125 -5.543,0 -10.516,-1.004 -15.231,-3.125 -4.679,-2.129 -8.82,-5.261 -12.203,-9.402 -3.418,-4.246 -6.117,-9.649 -7.992,-16.055 -1.976,-6.367 -2.988,-14.07 -2.988,-22.715 0,-8.386 1.012,-15.656 2.988,-21.882 1.875,-6.274 4.574,-11.528 7.992,-15.665 v 0" /><path
         id="path38"
         style="fill:#231f20;fill-opacity:1;fill-rule:nonzero;stroke:none"
         d="m 397.262,265.07 h 47.886 v 12.664 h -32.515 v 86.551 H 397.262 V 265.07" /><path
         id="path40"
         style="fill:#231f20;fill-opacity:1;fill-rule:nonzero;stroke:none"
         d="m 452.266,265.07 h 15.382 v 99.215 H 452.266 V 265.07" /><path
         id="path42"
         style="fill:#231f20;fill-opacity:1;fill-rule:nonzero;stroke:none"
         d="m 543.391,267.227 -0.578,14.472 v 0 c -2.411,-1.551 -4.969,-2.695 -7.958,-3.523 -2.992,-0.871 -6.406,-1.301 -10.226,-1.301 -9.246,0 -16.524,3.273 -21.922,9.973 -5.402,6.66 -8.098,16.347 -8.098,29.265 0,6.27 0.86,11.668 2.414,16.348 1.543,4.531 3.848,8.391 6.551,11.379 2.696,2.984 5.832,5.105 9.395,6.656 3.527,1.438 7.375,2.16 11.23,2.16 4.102,0 7.664,-0.578 10.656,-1.582 2.989,-1.125 5.684,-2.414 7.958,-3.672 v 0 l 0.578,14.328 v 0 c -2.129,1.004 -4.973,1.875 -8.536,2.696 -3.71,0.722 -7.667,1.148 -11.953,1.148 -6.945,0 -13.066,-1.289 -18.613,-3.699 -5.578,-2.41 -10.117,-5.977 -13.965,-10.371 -3.82,-4.539 -6.808,-9.941 -8.82,-16.055 -2.129,-6.269 -3.133,-13.066 -3.133,-20.633 0,-6.945 1.004,-13.644 2.84,-19.726 1.875,-6.113 4.57,-11.516 8.281,-16.231 3.672,-4.679 8.391,-8.242 14.082,-10.949 5.684,-2.695 12.383,-3.953 20.051,-3.953 3.711,0 7.234,0.281 10.801,0.859 3.562,0.684 6.551,1.407 8.965,2.411 v 0" /><path
         id="path44"
         style="fill:#231f20;fill-opacity:1;fill-rule:nonzero;stroke:none"
         d="m 551.563,265.07 h 50.753 v 12.664 H 566.934 V 310 h 32.109 v 12.664 h -32.109 v 28.988 h 33.839 v 12.633 h -49.21 V 265.07" /><path
         id="path46"
         style="fill:#ffffff;fill-opacity:1;fill-rule:nonzero;stroke:none"
         d="m 252.793,538.453 v 34.848 h 6.984 v 0 c 6.121,0 10.692,-1.442 13.828,-4.141 2.989,-2.847 4.536,-7.383 4.536,-13.5 v 0 c 0,-5.543 -1.407,-9.648 -4.25,-12.637 -2.879,-2.988 -7.563,-4.57 -14.258,-4.57 h -6.84 v 0" /><path
         id="path48"
         style="fill:#ffffff;fill-opacity:1;fill-rule:nonzero;stroke:none"
         d="m 321.555,507.348 c -3.817,6.804 -5.692,16.199 -5.692,28.007 0,7.239 0.578,13.356 1.875,18.321 1.114,4.972 2.703,9.113 4.825,12.207 1.98,2.988 4.429,5.293 7.125,6.695 2.699,1.301 5.687,1.985 8.675,1.985 7.129,0 12.532,-3.387 16.383,-10.227 3.707,-6.809 5.543,-16.199 5.543,-28.008 v 0 c 0,-7.234 -0.578,-13.359 -1.691,-18.324 -1.297,-4.969 -2.844,-9.106 -4.86,-12.098 -2.121,-3.133 -4.535,-5.398 -7.234,-6.66 -2.738,-1.437 -5.727,-2.121 -8.715,-2.121 -7.09,0 -12.523,3.383 -16.234,10.223 v 0" /><path
         id="path50"
         style="fill:#ffffff;fill-opacity:1;fill-rule:nonzero;stroke:none"
         d="m 263.414,317.371 v 34.856 h 6.981 v 0 c 6.085,0 10.66,-1.446 13.789,-4.141 2.988,-2.852 4.539,-7.383 4.539,-13.508 v 0 c 0,-5.535 -1.403,-9.644 -4.25,-12.633 -2.84,-2.992 -7.559,-4.574 -14.219,-4.574 h -6.84 v 0" /><path
         id="path52"
         style="fill:#ffffff;fill-opacity:1;fill-rule:nonzero;stroke:none"
         d="m 332.102,286.27 c -3.848,6.804 -5.684,16.203 -5.684,28.007 0,7.239 0.574,13.36 1.836,18.332 1.144,4.961 2.699,9.098 4.855,12.196 1.981,2.988 4.391,5.293 7.09,6.699 2.703,1.301 5.692,1.984 8.68,1.984 7.129,0 12.527,-3.39 16.34,-10.226 3.711,-6.809 5.582,-16.199 5.582,-28.008 v 0 c 0,-7.234 -0.574,-13.359 -1.727,-18.328 -1.261,-4.961 -2.844,-9.106 -4.824,-12.094 -2.125,-3.133 -4.57,-5.398 -7.273,-6.656 -2.7,-1.446 -5.688,-2.129 -8.676,-2.129 -7.09,0 -12.488,3.387 -16.199,10.223 v 0" /></g></g></svg>