<?xml version="1.0" encoding="UTF-8" standalone="no"?>
<svg
   xmlns:dc="http://purl.org/dc/elements/1.1/"
   xmlns:cc="http://creativecommons.org/ns#"
   xmlns:rdf="http://www.w3.org/1999/02/22-rdf-syntax-ns#"
   xmlns:svg="http://www.w3.org/2000/svg"
   xmlns="http://www.w3.org/2000/svg"
   viewBox="0 0 113.78667 113.77333"
   height="113.77333"
   width="113.78667"
   xml:space="preserve"
   id="svg2"
   version="1.1"><metadata
     id="metadata8"><rdf:RDF><cc:Work
         rdf:about=""><dc:format>image/svg+xml</dc:format><dc:type
           rdf:resource="http://purl.org/dc/dcmitype/StillImage" /></cc:Work></rdf:RDF></metadata><defs
     id="defs6" /><g
     transform="matrix(1.3333333,0,0,-1.3333333,0,113.77333)"
     id="g10"><g
       transform="scale(0.1)"
       id="g12"><path
         id="path14"
         style="fill:#ffffff;fill-opacity:1;fill-rule:nonzero;stroke:none"
         d="m 546.996,833.863 c -106.269,31.352 -212,21.813 -311,-28.047 C 137.066,756.031 66.3633,676.758 28.2383,572.754 -9.95703,468.676 -7.32813,362.582 35.9414,260.563 79.1797,158.609 153.664,82.9023 254.93,38.0078 490.727,-66.4258 764.438,61.5547 835.43,309.449 899.688,533.801 770.883,767.98 546.996,833.863 v 0" /><path
         id="path16"
         style="fill:none;stroke:#231f20;stroke-width:2.83500004;stroke-linecap:butt;stroke-linejoin:round;stroke-miterlimit:4;stroke-dasharray:none;stroke-opacity:1"
         d="m 546.996,833.863 c -106.269,31.352 -212,21.813 -311,-28.047 C 137.066,756.031 66.3633,676.758 28.2383,572.754 -9.95703,468.676 -7.32813,362.582 35.9414,260.563 79.1797,158.609 153.664,82.9023 254.93,38.0078 490.727,-66.4258 764.438,61.5547 835.43,309.449 899.688,533.801 770.883,767.98 546.996,833.863 v 0" /><path
         id="path18"
         style="fill:#1a67bb;fill-opacity:1;fill-rule:nonzero;stroke:none"
         d="M 447.891,837.102 V 16.1172 c 36.644,1.875 72.613,8.6445 107.89,20.3437 41.582,13.75 80.028,33.6211 115.274,59.5782 35.781,26.3559 66.383,57.6369 91.836,93.7809 26.461,37.582 46.074,78.731 58.898,123.516 10.652,37.187 15.984,74.949 15.984,113.258 0,44.062 -6.992,87.051 -20.918,128.988 -13.75,41.363 -33.554,79.594 -59.437,114.731 -26.172,35.46 -57.129,65.878 -92.949,91.226 -37.012,26.242 -77.512,45.789 -121.465,58.75 v 0 c -31.828,9.359 -63.539,14.977 -95.113,16.813 v 0" /><path
         id="path20"
         style="fill:#1a67bb;fill-opacity:1;fill-rule:nonzero;stroke:none"
         d="M 405.375,16.1172 V 837.246 c -55.84,-2.773 -110.16,-17.5 -163.012,-44.101 C 145.742,744.508 78.7773,669.414 41.5586,567.891 24.2422,520.734 15.6016,473.395 15.6016,425.875 c 0,-54.004 11.1211,-107.281 33.4062,-159.77 C 91.2344,166.496 161.797,94.7813 260.652,50.9688 307.273,30.3438 355.512,18.7109 405.375,16.1172 v 0" /><path
         id="path22"
         style="fill:#ffffff;fill-opacity:1;fill-rule:nonzero;stroke:none"
         d="m 260.219,386.848 -20.446,0.433 -0.324,-0.898 v 0 c 0,-0.039 -0.109,-0.395 -0.109,-0.434 -0.61,-1.508 -1.293,-3.097 -2.231,-4.429 -1.113,-1.692 -2.593,-3.344 -4.32,-4.497 -0.215,-0.109 -0.539,-0.328 -0.758,-0.437 -0.25,-0.18 -1.293,-0.68 -1.547,-0.824 v 0 l 2.161,-9.434 5.007,0.899 0.864,-3.45 -12.567,-3.39 -0.972,3.785 4.105,1.328 -2.269,8.965 v 0 c -0.43,-0.11 -1.188,-0.215 -1.692,-0.289 -6.297,-0.899 -12.199,1.586 -16.414,6.554 -4.109,4.75 -5.617,11.95 -3.781,18.036 0.074,0.105 0.109,0.394 0.179,0.574 v 0 l 0.36,1.047 -62.281,50.398 -6.586,-10.008 v 0 c 11.988,-9.683 19.476,-22.679 22.07,-38.265 2.66,-15.52 -0.219,-30.352 -8.355,-43.672 -8.168,-13.317 -19.942,-22.356 -34.559,-26.496 -14.691,-4.141 -29.1954,-2.625 -42.7696,4.535 -7.0586,3.707 -13.3906,8.894 -18.5039,15.191 -5.1446,6.266 -8.9649,13.61 -11.3399,21.422 -2.375,7.918 -3.2383,16.203 -2.4804,24.375 0.789,8.242 3.1289,16.196 6.9062,23.473 3.7813,7.234 8.8945,13.609 15.0508,18.828 6.2305,5.145 13.3555,8.957 21.0234,11.262 7.5938,2.234 15.6602,2.918 23.5474,1.875 7.878,-1.008 15.48,-3.563 22.394,-7.668 v 0 l 28.648,49.246 -16.085,0.543 9.898,22.64 23.434,7.778 10.621,-6.262 -4.75,-6.875 -7.344,3.055 -14.941,-4.461 -3.098,-7.668 17.605,-0.289 -10.187,-17.531 109.004,-0.215 5.187,9.828 v 0 c -0.609,-0.039 -1.476,-0.039 -2.125,-0.039 -1.226,0.039 -3.926,0.543 -5.113,0.828 -1.621,0.289 -4.387,0.902 -5.828,1.621 -1.301,0.613 -2.559,1.691 -3.098,3.172 -0.359,1.039 -0.469,2.445 0.215,3.344 0.609,0.796 1.836,1.191 2.773,1.3 1.008,0.141 5.543,0.106 6.516,0.106 2.484,-0.074 7.672,0.609 10.082,0.898 1.797,0.215 5.684,0.723 7.453,1.012 0.641,0.031 1.293,0.215 1.942,0.32 v 0 l 8.82,2.125 v 0 c 1.621,0.289 3.598,0.578 5.184,-0.035 1.402,-0.574 2.625,-1.695 3.128,-3.207 0.438,-1.219 0.11,-2.914 -0.429,-4.137 -0.614,-1.406 -1.512,-2.812 -2.774,-3.636 -1.004,-0.684 -3.703,-1.407 -4.965,-1.762 v 0 l -6.265,-1.91 v 0 c -1.442,-0.321 -2.738,-0.61 -4.211,-0.758 -0.652,-0.074 -1.441,-0.105 -2.16,-0.18 v 0 l -5.403,-9.359 17.68,-36.867 v 0 c 12.422,4.824 25.305,5.402 38.051,1.586 12.711,-3.817 23.363,-11.41 31.316,-22.391 7.992,-10.941 12.102,-23.687 12.137,-37.441 0,-13.715 -4.035,-26.461 -11.988,-37.438 -7.492,-10.476 -17.535,-17.93 -29.449,-21.961 -11.954,-4.101 -24.262,-4.211 -36.29,-0.398 -12.058,3.82 -22.21,11.019 -29.918,21.351 -7.703,10.297 -11.984,22.285 -12.636,35.278 v 0" /><path
         id="path24"
         style="fill:#ffffff;fill-opacity:1;fill-rule:nonzero;stroke:none"
         d="m 561.801,606.094 c 0,0 -7.547,7.617 1.324,8.922 8.867,1.273 7.965,0 9.844,6.461 1.906,6.461 3.929,9.628 6.988,9.355 3.074,-0.32 4.637,2.016 6.668,1.109 2.078,-0.836 4.223,-1.992 6.402,-2.14 2.196,-0.121 8.598,0.859 10.039,0 1.442,-0.836 4.375,-1.988 4.375,-5.156 0,-3.168 -1.054,-12.926 1.172,-13.954 2.149,-1.031 6.645,-2.902 6.055,-5.894 -0.586,-3.024 -2.148,-2.902 -5.199,-2.902 -3.082,0 -4.961,-0.711 -4.793,-2.579 0.148,-1.867 1.441,-5.039 1.32,-8.449 -0.195,-3.488 -2.808,-10.539 -5.101,-13.832 -2.325,-3.289 -1.301,-4.594 -1.18,-5.75 0.148,-1.152 1.594,-2.133 2.765,-3.168 1.172,-1.008 21.793,-14.195 24.989,-16.531 3.203,-2.309 8.746,-5.332 9.722,-15.672 1.055,-10.34 0.149,-16.535 2.618,-21.566 2.464,-5.039 4.222,-18.551 5.816,-29.211 1.609,-10.586 2.93,-19.555 3.051,-22.723 0.148,-3.172 2.613,-8.328 3.199,-9.754 0.59,-1.422 13.07,-27.781 15.859,-31.785 0,0 1.442,-2.457 0.27,-3.168 -1.176,-0.715 -1.766,-2.309 0.316,-3.023 2.028,-0.715 4.055,-4.153 4.907,-5.746 0.906,-1.551 2.203,-5.309 1.171,-7.321 -1.05,-2.043 -3.785,-4.301 -1.585,-6.758 2.171,-2.457 3.738,-3.754 5.23,-6.015 1.437,-2.336 6.398,-10.246 6.984,-11.938 0.539,-1.75 1.832,-3.343 3.59,-3.613 1.766,-0.27 8.16,-1.031 11.219,-2.141 3.023,-1.175 7.523,-3.754 9.746,-3.754 2.145,0 5.934,0 9.574,-1.156 3.617,-1.152 3.789,-0.125 3.789,1.035 0,1.102 0.27,2.407 -1.297,2.969 -1.64,0.59 -4.96,1.742 -6.007,4.203 -0.977,2.457 -3.18,6.188 -1.735,10.781 0,0 -1.445,6.903 1.024,10.465 2.468,3.614 6.988,6.192 8.55,6.192 1.637,0 3.786,-1.153 5.547,-0.567 1.758,0.567 2.469,1.278 4.371,0.567 1.883,-0.715 4.18,-1.989 5.817,-2.141 1.562,-0.172 3.594,-0.437 4.765,-1.273 1.172,-0.907 3.782,-2.188 4.809,-4.055 1,-1.891 1,-2.727 0.856,-6.609 -0.125,-3.879 -0.125,-8.059 0.589,-9.356 0.731,-1.305 0.731,-4.328 -0.445,-5.43 -1.121,-1.156 -4.516,-3.046 -6.226,-3.046 -1.762,0 -2.055,-0.567 -2.055,-1.598 0,-0.981 -0.563,-4.004 -0.293,-4.863 0.293,-0.883 0.293,-2.039 2.031,-2.754 1.758,-0.711 8.43,-4.864 10.625,-7.317 2.176,-2.433 6.086,-5.871 6.402,-6.754 0.27,-0.859 -0.585,-1.425 -0.585,-1.425 0,0 0,-1.032 1.171,-2.903 1.121,-1.89 4.2,-7.441 5.231,-11.371 1,-3.883 4.32,-14.668 4.32,-16.801 0,-2.14 2.203,-9.953 2.203,-11.054 0,-1.157 -1.3,-0.887 -1.3,-0.887 0,0 0.855,-3.441 0.855,-5.039 0,-1.57 -0.148,-2.723 -1.441,-3.434 -1.317,-0.714 -1.317,-1.867 -2.758,-1.867 -1.465,0 -1.028,0.711 -2.465,1.422 -1.445,0.711 -2.789,1.035 -2.473,2.309 0.27,1.304 0.121,4.863 0.121,5.625 0,0.714 -0.265,1.425 -0.851,1.425 -0.586,0 -2.028,0.715 -2.028,2.852 0,2.187 -0.757,6.777 -1.171,8.324 -0.438,1.621 0.269,4.328 -0.438,5.625 -0.734,1.305 -6.527,7.934 -7.574,9.805 -0.977,1.867 -1.887,0.121 -1.887,-0.883 0,-0.988 0.172,-10.34 1.031,-12.09 0.856,-1.695 0,-4.004 1.637,-7.441 1.563,-3.461 5.199,-18.57 5.789,-20.707 0.539,-2.164 2.176,-5.504 2.297,-8.649 0.145,-3.168 1.758,-7.765 -2.473,-7.64 -4.199,0.199 -6.519,-1.551 -10.308,-0.27 -3.781,1.305 -4.051,0 -3.93,-1.597 0.149,-1.547 0.734,-7.293 1.758,-10.024 1.004,-2.75 -1.293,-11.226 0.148,-14.121 1.438,-2.852 3.196,-3.395 3.637,-4.277 0.586,-1.153 1,-4.055 -1.613,-8.649 -2.61,-4.59 -10.574,-6.777 -12.016,-2.011 -1.492,4.718 0.27,5.625 1.297,7.175 1,1.621 1,3.758 -0.758,5.305 -1.715,1.598 -5.23,10.238 -5.965,12.258 -0.707,2.015 -4.054,12.355 -4.765,14.515 -0.731,2.164 -1.879,3.883 -3.051,1.426 -1.172,-2.429 -3.934,-8.179 -3.473,-10.785 0.395,-2.578 1.125,-5.156 1.125,-7.613 0,-2.457 -1.316,-11.938 -2.172,-14.516 -0.855,-2.586 0,-3.297 0.461,-4.918 0.395,-1.547 2.618,-4.715 0.586,-6.137 -2.074,-1.476 -13.234,-5.925 -15,-6.515 -1.707,-0.535 -4.195,2.461 -3.074,5.48 1.172,3.047 4.961,5.305 5.547,6.465 0.586,1.152 0.586,1.621 -0.27,4.59 -0.906,3.023 -1.617,16.262 -1.027,18.277 0.59,2.016 1.027,5.75 -0.855,7.047 -1.907,1.281 -2.344,5.332 -1.907,7.473 0.414,2.133 1.442,9.234 1.172,10.34 -0.316,1.152 0.27,2.457 -1.609,3.043 -1.906,0.566 -11.039,5.16 -11.754,8.183 -0.734,3.047 0,5.75 2.301,8.649 2.344,2.847 11.062,16.234 12.918,22.425 1.886,6.192 3.644,13.805 3.644,18.133 0,4.27 0.317,7.317 -1.172,8.032 -1.441,0.71 -16.976,8.203 -19.718,8.054 -2.782,-0.121 -12.973,5.625 -14.559,7.766 -1.562,2.187 -3.906,3.73 -7.109,14.785 -3.2,11.102 -2.465,11.668 -5.078,11.816 -2.618,0.122 -8.875,2.309 -10.633,5.75 -1.707,3.465 2.078,7.758 -1.317,6.633 -3.32,-1.16 -3.59,-2.187 -5.937,1.84 -2.293,4.051 -14.828,32.918 -18.59,45.445 -3.789,12.528 -3.617,5.75 -3.617,3.614 0,-2.188 1.32,-15.426 2.301,-18.133 1.046,-2.723 0.902,-6.727 1.171,-10.93 0.27,-4.176 1.758,-18.84 2.93,-24.59 1.121,-5.746 -1.027,-4.004 -2.93,-4.742 -1.886,-0.707 -2.351,-2.16 -2.152,-3.34 0.121,-1.105 -2.348,-21.371 -2.808,-25.57 -0.391,-4.152 -4.055,-27.441 -4.5,-29.453 -0.415,-2.016 -0.415,-3.024 0,-4.914 0.445,-1.871 6.843,-37.66 6.843,-41.121 0,-3.438 3.078,-17.516 3.203,-19.703 0.145,-2.141 -0.441,-2.012 -0.855,-3.289 -0.441,-1.305 0.269,-1.747 1,-3.614 0.711,-1.867 3.762,-2.582 3.32,-6.164 -0.414,-3.613 -2.148,-4.449 -4.051,-6.906 -1.886,-2.453 -5.816,-13.484 -12.484,-16.652 -6.695,-3.172 -11.926,-1.356 -13.098,1.816 -1.171,3.168 -0.586,7.812 3.325,9.359 0,0 2.074,1.157 2.343,2.309 0.317,1.176 0,2.727 -1.562,2.875 -1.633,0.172 -1.902,5.207 -3.664,16.977 -1.735,11.789 -4.617,24.855 -6.375,31.046 -1.762,6.192 -8.285,33.067 -9.02,35.079 -0.707,2.015 -1.293,7.765 -0.851,11.378 0.414,3.606 -0.442,27.758 -2.93,16.973 -2.469,-10.789 -7.574,-28.473 -8.551,-31.789 -1.023,-3.289 -1.316,-5.16 -1.316,-6.629 0,-1.426 1.437,-54.34 0.582,-78.93 0,0 0.148,-1.429 -1.152,-1.55 -1.317,-0.196 0.714,-2.774 0.984,-4.075 0.316,-1.277 2.609,-6.195 -1.301,-7.886 -3.93,-1.719 -9.867,-2.434 -13.922,-4.766 -4.105,-2.262 -14.679,-4.594 -21.203,-2.141 -6.574,2.461 0.121,12.805 9.719,12.215 0,0 3.914,0.438 0.711,1.301 0,0 -1.293,0.121 -1.172,3.164 0.144,3.024 0.144,46.43 -1.418,63.996 -1.637,17.563 -4.25,37.071 -0.316,54.754 3.906,17.711 5.25,37.535 2.781,37.981 -2.465,0.437 -5.543,0.711 -4.961,5.031 0.594,4.328 3.473,29.066 4.793,36.828 1.293,7.734 5.668,14.516 5.398,18.984 -0.316,4.45 -0.465,26.016 -4.254,18.672 -3.757,-7.32 -6.203,-10.609 -6.375,-19.847 -0.144,-9.164 -3.343,-24.981 -4.515,-28.743 -1.125,-3.734 -3.328,-18.574 -3.473,-22.601 -0.121,-4.004 -2.148,-1.867 -3.637,-1.719 -1.441,0.172 -3.328,1.473 -3.789,-0.98 -0.39,-2.457 0.586,-2.457 1.051,-4.766 0.442,-2.285 1.567,-6.734 -2.613,-10.051 -4.25,-3.34 -5.547,-6.898 -11.481,-6.187 -5.961,0.711 -7.718,5.75 -7.132,11.203 0.585,5.48 2.171,9.207 4.199,11.226 2.074,1.985 1.34,2.895 0.168,3.289 -1.172,0.442 -3.782,-0.121 -3.512,3.34 0.316,3.438 4.684,33.336 5.223,40.387 0.59,7.027 -0.121,23.164 3.398,33.066 3.442,9.922 10.43,36.403 12.192,49.028 1.71,12.652 8.55,20.148 12.796,22.578 4.184,2.457 31.661,12.676 33.106,14.101 1.418,1.446 3.64,4.176 1.883,7.735 -1.758,3.613 -5.086,7.812 -5.086,12.976 0,5.18 0.586,9.75 -1.172,10.485 -1.707,0.738 -4.52,2.039 -4.789,2.75 v 0" /><path
         id="path26"
         style="fill:#1a67bb;fill-opacity:1;fill-rule:nonzero;stroke:none"
         d="m 131.879,433.469 -26.277,-43.125 -1.797,-3.063 v 0 c -1.192,-1.984 -4.2152,-1.476 -6.1605,-0.289 -1.6211,0.938 -2.5898,2.957 -1.7617,4.719 0.1406,0.359 1.6172,2.734 1.836,3.062 v 0 l 26.7852,43.735 v 0 c -11.414,6.336 -23.762,7.957 -36.3634,4.898 -12.5625,-3.172 -22.8945,-10.367 -30.2734,-21.351 -7.418,-10.981 -10.4805,-23.543 -9.0391,-36.789 1.4805,-13.356 7.2032,-24.84 16.8125,-33.77 5.1836,-4.824 11.1602,-8.457 17.7461,-10.836 6.5547,-2.305 13.4688,-3.238 20.3793,-2.734 6.914,0.504 13.64,2.445 19.797,5.722 6.16,3.243 11.667,7.778 16.097,13.247 4.426,5.546 7.77,11.953 9.754,18.796 2.051,6.875 2.699,14.11 2.016,21.204 -0.758,7.164 -2.879,14.074 -6.231,20.339 -3.344,6.336 -7.879,11.805 -13.32,16.235 v 0" /><path
         id="path28"
         style="fill:#1a67bb;fill-opacity:1;fill-rule:nonzero;stroke:none"
         d="m 309.398,387.027 -40.394,-0.535 v 0 c 0.797,-11.668 5.004,-22.254 12.457,-31.105 7.418,-8.824 16.922,-14.621 27.973,-17.067 11.015,-2.41 21.996,-1.117 32.254,3.813 10.191,4.972 18.218,12.82 23.507,23.191 4.938,9.61 6.879,20.086 5.688,30.957 -1.184,10.801 -5.36,20.629 -12.274,28.797 -6.843,8.246 -15.625,13.899 -25.777,16.563 -10.227,2.699 -20.519,2.199 -30.348,-1.547 v 0 l 18.399,-38.918 v 0 c 2.16,-0.145 4.211,-0.895 5.937,-2.196 1.805,-1.292 3.098,-3.097 3.887,-5.148 0.758,-2.09 0.973,-4.32 0.543,-6.516 -0.434,-2.16 -1.406,-4.175 -2.914,-5.757 -1.406,-1.586 -3.137,-2.633 -5.113,-3.204 -1.946,-0.542 -4,-0.507 -5.942,0.067 -1.945,0.543 -3.672,1.621 -5.074,3.203 -1.406,1.516 -2.379,3.352 -2.809,5.402 v 0" /><path
         id="path30"
         style="fill:#1a67bb;fill-opacity:1;fill-rule:nonzero;stroke:none"
         d="m 157.984,476.203 108.465,-0.18 -36.683,-65.199 v 0 c -1.293,0.324 -3.094,0.899 -4.465,1.008 -1.008,0.18 -2.375,0.18 -3.383,0.18 v 0 l -1.297,5.871 4.031,1.226 -1.004,3.598 -12.39,-3.383 0.941,-3.672 4.106,1.11 1.293,-5.254 v 0 c -1.258,-0.395 -2.989,-1.008 -4.102,-1.762 -0.828,-0.543 -1.949,-1.66 -2.664,-2.344 v 0 l -63.543,50.621 10.695,18.18 v 0" /><path
         id="path32"
         style="fill:#1a67bb;fill-opacity:1;fill-rule:nonzero;stroke:none"
         d="m 260.688,395.129 -19.942,0.07 v 0 c -0.144,0.719 -0.359,1.946 -0.574,2.668 -0.328,1.078 -0.832,2.231 -1.301,3.309 -0.5,0.898 -1.039,1.91 -1.687,2.734 -0.11,0.184 -0.329,0.469 -0.434,0.617 v 0 l -1.008,1.114 40.43,69.879 14.328,-30.817 v 0 c -7.996,-4.754 -14.871,-11.379 -19.984,-19.336 -5.793,-9 -9.176,-19.437 -9.828,-30.238 v 0" /><path
         id="path34"
         style="fill:#1a67bb;fill-opacity:1;fill-rule:nonzero;stroke:none"
         d="m 209.711,396.855 14.223,-10.332 1.73,-6.621 v 0 c -0.402,-0.113 -0.976,-0.285 -1.406,-0.328 -8.102,-1.183 -14.688,5.977 -14.793,14.442 0,0.789 0.105,2.082 0.246,2.839 v 0" /><path
         id="path36"
         style="fill:#1a67bb;fill-opacity:1;fill-rule:nonzero;stroke:none"
         d="m 214.469,403.84 0.574,0.508 v 0 c 0.07,0.031 0.289,0.215 0.324,0.215 0.824,0.609 1.621,1.113 2.594,1.398 0.285,0.039 0.641,0.184 0.93,0.289 v 0 l 1.73,-7.23 -6.152,4.82 v 0" /><path
         id="path38"
         style="fill:#1a67bb;fill-opacity:1;fill-rule:nonzero;stroke:none"
         d="m 224.004,402.258 -1.113,4.32 v 0 c 0.363,0.035 0.972,0.141 1.332,0.141 0.324,-0.031 0.824,-0.141 1.078,-0.215 l 0.398,-0.035 v 0 l 0.684,-0.18 -2.379,-4.031 v 0" /><path
         id="path40"
         style="fill:#1a67bb;fill-opacity:1;fill-rule:nonzero;stroke:none"
         d="m 229.586,395.957 3.383,5.871 0.648,-1.012 0.289,-0.468 v 0 c 0.574,-0.864 1.227,-2.125 1.547,-3.168 0.11,-0.356 0.215,-0.899 0.289,-1.297 v 0 l -6.156,0.074 v 0" /><path
         id="path42"
         style="fill:#1a67bb;fill-opacity:1;fill-rule:nonzero;stroke:none"
         d="m 227.965,386.703 6.914,0.074 v 0 c -0.109,-0.179 -0.652,-1.191 -0.758,-1.367 -0.074,-0.144 -0.289,-0.433 -0.394,-0.613 -0.649,-0.934 -1.407,-1.836 -2.2,-2.555 -0.105,-0.148 -0.504,-0.469 -0.644,-0.578 v 0 l -1.258,-1.008 -1.66,6.047 v 0" /><path
         id="path44"
         style="fill:#1a67bb;fill-opacity:1;fill-rule:nonzero;stroke:none"
         d="m 312.852,398.801 c -0.579,-0.324 -1.188,-0.828 -1.657,-1.403 -0.32,-0.433 -0.644,-0.937 -0.863,-1.515 v 0 l -40.711,-0.43 v 0 c 0.32,9.899 3.598,19.473 9.426,27.328 4.289,5.754 9.832,10.473 16.203,13.676 v 0 l 17.602,-37.656 v 0" /></g></g></svg>