<?xml version="1.0" encoding="UTF-8" standalone="no"?>
<svg
   xmlns:dc="http://purl.org/dc/elements/1.1/"
   xmlns:cc="http://creativecommons.org/ns#"
   xmlns:rdf="http://www.w3.org/1999/02/22-rdf-syntax-ns#"
   xmlns:svg="http://www.w3.org/2000/svg"
   xmlns="http://www.w3.org/2000/svg"
   viewBox="0 0 113.76 113.76"
   height="113.76"
   width="113.76"
   xml:space="preserve"
   id="svg2"
   version="1.1"><metadata
     id="metadata8"><rdf:RDF><cc:Work
         rdf:about=""><dc:format>image/svg+xml</dc:format><dc:type
           rdf:resource="http://purl.org/dc/dcmitype/StillImage" /></cc:Work></rdf:RDF></metadata><defs
     id="defs6" /><g
     transform="matrix(1.3333333,0,0,-1.3333333,0,113.76)"
     id="g10"><g
       transform="scale(0.1)"
       id="g12"><path
         id="path14"
         style="fill:#ffffff;fill-opacity:1;fill-rule:nonzero;stroke:none"
         d="m 426.617,851.809 c 234.574,0 425.192,-190.621 425.192,-425.2 C 851.809,192.031 661.191,1.41797 426.617,1.41797 192.035,1.41797 1.41797,192.031 1.41797,426.609 c 0,234.579 190.61703,425.2 425.19903,425.2 v 0" /><path
         id="path16"
         style="fill:none;stroke:#231f20;stroke-width:2.83500004;stroke-linecap:butt;stroke-linejoin:round;stroke-miterlimit:4;stroke-dasharray:none;stroke-opacity:1"
         d="m 426.617,851.809 c 234.574,0 425.192,-190.621 425.192,-425.2 C 851.809,192.031 661.191,1.41797 426.617,1.41797 192.035,1.41797 1.41797,192.031 1.41797,426.609 c 0,234.579 190.61703,425.2 425.19903,425.2 v 0" /><path
         id="path18"
         style="fill:#1a67bb;fill-opacity:1;fill-rule:nonzero;stroke:none"
         d="m 426.543,837.598 c 55.684,0 108.977,-10.778 159.875,-32.325 49.16,-20.82 92.715,-50.203 130.664,-88.16 37.957,-37.949 67.344,-81.504 88.152,-130.668 21.555,-50.894 32.336,-104.183 32.336,-159.867 0,-55.687 -10.781,-108.98 -32.336,-159.867 C 784.426,217.539 755.039,173.984 717.082,136.035 679.133,98.0859 635.578,68.7031 586.418,47.8828 535.52,26.3281 482.227,15.5469 426.543,15.5469 370.855,15.5469 317.57,26.3281 266.672,47.8828 217.512,68.7031 173.949,98.0859 136,136.035 98.0469,173.984 68.6641,217.539 47.8477,266.711 26.293,317.598 15.5195,370.891 15.5195,426.578 c 0,55.684 10.7735,108.973 32.3282,159.867 20.8164,49.164 50.1992,92.719 88.1523,130.668 37.949,37.957 81.512,67.34 130.672,88.16 50.898,21.547 104.183,32.325 159.871,32.325 v 0" /><path
         id="path20"
         style="fill:#ffffff;fill-opacity:1;fill-rule:nonzero;stroke:none"
         d="m 314.293,707.371 c 0,0 -11.125,11.164 1.949,13.074 13.067,1.871 11.731,0 14.504,9.465 2.809,9.469 5.797,14.113 10.293,13.719 4.539,-0.469 6.844,2.949 9.832,1.621 3.059,-1.227 6.231,-2.922 9.434,-3.137 3.234,-0.179 12.668,1.262 14.793,0 2.125,-1.222 6.445,-2.914 6.445,-7.558 0,-4.645 -1.547,-18.934 1.73,-20.45 3.165,-1.511 9.79,-4.246 8.922,-8.636 -0.863,-4.43 -3.168,-4.246 -7.664,-4.246 -4.535,0 -7.308,-1.047 -7.054,-3.785 0.214,-2.735 2.125,-7.379 1.941,-12.383 -0.285,-5.114 -4.141,-15.446 -7.523,-20.27 -3.422,-4.824 -1.911,-6.726 -1.727,-8.422 0.215,-1.691 2.336,-3.129 4.066,-4.644 1.727,-1.477 32.114,-20.805 36.825,-24.231 4.718,-3.383 12.89,-7.808 14.332,-22.965 1.547,-15.16 0.214,-24.23 3.851,-31.609 3.641,-7.379 6.227,-27.176 8.571,-42.801 2.375,-15.519 4.316,-28.66 4.503,-33.3 0.215,-4.645 3.848,-12.208 4.707,-14.293 0.868,-2.09 19.266,-40.719 23.368,-46.586 0,0 2.121,-3.598 0.39,-4.645 -1.718,-1.039 -2.586,-3.383 0.469,-4.426 2.988,-1.043 5.977,-6.082 7.238,-8.425 1.336,-2.266 3.242,-7.774 1.727,-10.727 -1.543,-2.988 -5.574,-6.301 -2.332,-9.898 3.203,-3.602 5.508,-5.508 7.703,-8.825 2.121,-3.418 9.426,-15.008 10.293,-17.496 0.793,-2.551 2.695,-4.89 5.293,-5.293 2.59,-0.386 12.023,-1.511 16.523,-3.133 4.465,-1.718 11.086,-5.507 14.368,-5.507 3.164,0 8.738,0 14.109,-1.692 5.324,-1.687 5.578,-0.172 5.578,1.516 0,1.621 0.398,3.523 -1.906,4.355 -2.41,0.871 -7.313,2.559 -8.856,6.153 -1.445,3.601 -4.679,9.078 -2.558,15.808 0,0 -2.121,10.114 1.511,15.332 3.633,5.293 10.293,9.074 12.598,9.074 2.414,0 5.586,-1.691 8.176,-0.824 2.586,0.824 3.633,1.871 6.445,0.824 2.774,-1.042 6.153,-2.914 8.563,-3.128 2.304,-0.254 5.293,-0.653 7.023,-1.875 1.727,-1.329 5.586,-3.204 7.09,-5.938 1.484,-2.773 1.484,-3.996 1.258,-9.684 -0.176,-5.687 -0.176,-11.812 0.871,-13.714 1.074,-1.911 1.074,-6.332 -0.645,-7.953 -1.66,-1.704 -6.66,-4.465 -9.191,-4.465 -2.586,0 -3.016,-0.828 -3.016,-2.344 0,-1.445 -0.832,-5.867 -0.429,-7.129 0.429,-1.301 0.429,-2.988 2.988,-4.031 2.586,-1.047 12.41,-7.129 15.652,-10.727 3.203,-3.562 8.965,-8.601 9.434,-9.898 0.402,-1.262 -0.86,-2.09 -0.86,-2.09 0,0 0,-1.516 1.719,-4.25 1.66,-2.774 6.203,-10.906 7.703,-16.668 1.477,-5.684 6.379,-21.496 6.379,-24.621 0,-3.137 3.242,-14.578 3.242,-16.199 0,-1.692 -1.914,-1.301 -1.914,-1.301 0,0 1.262,-5.039 1.262,-7.383 0,-2.305 -0.219,-3.992 -2.121,-5.039 -1.941,-1.043 -1.941,-2.734 -4.07,-2.734 -2.16,0 -1.516,1.046 -3.633,2.089 -2.129,1.047 -4.102,1.516 -3.633,3.379 0.391,1.914 0.176,7.129 0.176,8.254 0,1.043 -0.403,2.078 -1.262,2.078 -0.867,0 -2.988,1.047 -2.988,4.18 0,3.203 -1.113,9.941 -1.727,12.207 -0.644,2.371 0.399,6.34 -0.644,8.242 -1.086,1.907 -9.621,11.629 -11.164,14.367 -1.446,2.735 -2.774,0.172 -2.774,-1.3 0,-1.438 0.254,-15.157 1.516,-17.715 1.258,-2.481 0,-5.86 2.41,-10.906 2.305,-5.071 7.668,-27.207 8.535,-30.344 0.793,-3.172 3.203,-8.067 3.379,-12.676 0.215,-4.637 2.59,-11.375 -3.633,-11.191 -6.191,0.285 -9.617,-2.266 -15.195,-0.399 -5.574,1.91 -5.977,0 -5.789,-2.336 0.215,-2.273 1.074,-10.691 2.586,-14.687 1.476,-4.031 -1.903,-16.453 0.215,-20.703 2.129,-4.18 4.718,-4.969 5.363,-6.27 0.867,-1.687 1.484,-5.937 -2.375,-12.664 -3.848,-6.738 -15.586,-9.941 -17.715,-2.949 -2.195,6.902 0.402,8.242 1.914,10.508 1.477,2.371 1.477,5.507 -1.121,7.773 -2.519,2.344 -7.695,15.008 -8.781,17.969 -1.043,2.949 -5.977,18.105 -7.02,21.269 -1.074,3.172 -2.773,5.692 -4.504,2.09 -1.726,-3.566 -5.789,-11.984 -5.105,-15.801 0.574,-3.781 1.648,-7.558 1.648,-11.164 0,-3.601 -1.941,-17.5 -3.203,-21.277 -1.258,-3.781 0,-4.824 0.684,-7.199 0.578,-2.266 3.859,-6.914 0.871,-8.992 -3.059,-2.168 -19.512,-8.684 -22.109,-9.543 -2.52,-0.789 -6.192,3.593 -4.532,8.027 1.727,4.465 7.305,7.773 8.172,9.465 0.86,1.687 0.86,2.383 -0.398,6.738 -1.328,4.422 -2.375,23.828 -1.516,26.777 0.871,2.958 1.516,8.426 -1.258,10.333 -2.804,1.875 -3.457,7.812 -2.804,10.945 0.605,3.137 2.121,13.535 1.73,15.156 -0.469,1.691 0.391,3.606 -2.383,4.465 -2.804,0.828 -16.269,7.559 -17.316,11.992 -1.074,4.461 0,8.418 3.39,12.664 3.458,4.18 16.309,23.801 19.043,32.871 2.774,9.074 5.36,20.235 5.36,26.563 0,6.269 0.469,10.73 -1.727,11.777 -2.121,1.043 -25.019,12.024 -29.054,11.809 -4.102,-0.176 -19.11,8.242 -21.454,11.375 -2.304,3.203 -5.761,5.468 -10.48,21.672 -4.707,16.273 -3.633,17.097 -7.48,17.316 -3.856,0.176 -13.067,3.387 -15.665,8.426 -2.519,5.07 3.059,11.375 -1.941,9.715 -4.894,-1.692 -5.293,-3.204 -8.75,2.699 -3.379,5.941 -21.852,48.242 -27.394,66.601 -5.583,18.36 -5.329,8.422 -5.329,5.293 0,-3.203 1.946,-22.605 3.387,-26.566 1.547,-4 1.332,-9.863 1.727,-16.02 0.394,-6.121 2.59,-27.613 4.316,-36.035 1.66,-8.429 -1.508,-5.871 -4.316,-6.949 -2.774,-1.047 -3.457,-3.168 -3.168,-4.898 0.179,-1.621 -3.457,-31.325 -4.141,-37.473 -0.578,-6.086 -5.976,-40.219 -6.625,-43.164 -0.613,-2.949 -0.613,-4.426 0,-7.199 0.649,-2.735 10.082,-55.196 10.082,-60.262 0,-5.039 4.535,-25.676 4.715,-28.879 0.215,-3.125 -0.648,-2.949 -1.258,-4.824 -0.648,-1.903 0.395,-2.547 1.473,-5.293 1.047,-2.735 5.543,-3.777 4.898,-9.031 -0.613,-5.293 -3.168,-6.516 -5.976,-10.118 -2.774,-3.593 -8.571,-19.765 -18.399,-24.406 -9.863,-4.648 -17.566,-1.98 -19.297,2.668 -1.726,4.637 -0.863,11.445 4.899,13.711 0,0 3.062,1.688 3.457,3.387 0.469,1.73 0,3.996 -2.305,4.211 -2.414,0.254 -2.808,7.625 -5.402,24.871 -2.551,17.285 -6.801,36.437 -9.395,45.508 -2.59,9.074 -12.207,48.457 -13.285,51.406 -1.043,2.949 -1.91,11.379 -1.258,16.672 0.61,5.293 -0.652,40.672 -4.324,24.871 -3.633,-15.801 -11.156,-41.719 -12.598,-46.582 -1.511,-4.824 -1.941,-7.559 -1.941,-9.719 0,-2.09 2.125,-79.637 0.863,-115.672 0,0 0.215,-2.09 -1.695,-2.265 -1.941,-0.293 1.047,-4.071 1.441,-5.977 0.469,-1.875 3.852,-9.07 -1.91,-11.551 -5.793,-2.519 -14.539,-3.566 -20.515,-6.984 -6.051,-3.32 -21.637,-6.738 -31.25,-3.133 -9.684,3.594 0.179,18.75 14.332,17.891 0,0 5.754,0.644 1.039,1.902 0,0 -1.907,0.188 -1.723,4.648 0.215,4.426 0.215,68.04 -2.09,93.782 -2.414,25.742 -6.265,54.324 -0.469,80.242 5.762,25.957 7.739,55.004 4.106,55.652 -3.637,0.653 -8.176,1.047 -7.309,7.387 0.864,6.332 5.11,42.586 7.055,53.957 1.91,11.344 8.348,21.281 7.953,27.832 -0.469,6.516 -0.683,38.121 -6.265,27.359 -5.54,-10.726 -9.141,-15.55 -9.395,-29.086 -0.215,-13.429 -4.93,-36.613 -6.66,-42.121 -1.653,-5.472 -4.891,-27.214 -5.11,-33.121 -0.183,-5.867 -3.171,-2.738 -5.363,-2.523 -2.125,0.254 -4.898,2.164 -5.582,-1.434 -0.574,-3.605 0.867,-3.605 1.551,-6.988 0.648,-3.344 2.305,-9.863 -3.856,-14.723 -6.261,-4.894 -8.171,-10.117 -16.918,-9.07 -8.785,1.043 -11.375,8.422 -10.511,16.414 0.863,8.027 3.203,13.504 6.191,16.449 3.063,2.918 1.981,4.25 0.254,4.828 -1.73,0.649 -5.582,-0.183 -5.187,4.895 0.468,5.039 6.914,48.855 7.707,59.187 0.863,10.293 -0.18,33.946 5.004,48.45 5.074,14.547 15.371,53.355 17.964,71.863 2.52,18.539 12.598,29.516 18.864,33.078 6.156,3.602 46.652,18.578 48.777,20.664 2.09,2.125 5.367,6.125 2.773,11.344 -2.593,5.289 -7.488,11.445 -7.488,19.004 0,7.597 0.863,14.293 -1.73,15.375 -2.52,1.082 -6.66,2.988 -7.055,4.027 v 0" /></g></g></svg>