<?xml version="1.0" encoding="UTF-8" standalone="no"?>
<svg
   xmlns:dc="http://purl.org/dc/elements/1.1/"
   xmlns:cc="http://creativecommons.org/ns#"
   xmlns:rdf="http://www.w3.org/1999/02/22-rdf-syntax-ns#"
   xmlns:svg="http://www.w3.org/2000/svg"
   xmlns="http://www.w3.org/2000/svg"
   viewBox="0 0 113.38667 113.38667"
   height="113.38667"
   width="113.38667"
   xml:space="preserve"
   id="svg2"
   version="1.1"><metadata
     id="metadata8"><rdf:RDF><cc:Work
         rdf:about=""><dc:format>image/svg+xml</dc:format><dc:type
           rdf:resource="http://purl.org/dc/dcmitype/StillImage" /></cc:Work></rdf:RDF></metadata><defs
     id="defs6" /><g
     transform="matrix(1.3333333,0,0,-1.3333333,0,113.38667)"
     id="g10"><g
       transform="scale(0.1)"
       id="g12"><path
         id="path14"
         style="fill:#ee2c30;fill-opacity:1;fill-rule:nonzero;stroke:none"
         d="m 425.195,850.391 c 234.832,0 425.2,-190.368 425.2,-425.196 C 850.395,190.367 660.027,0 425.195,0 190.367,0 0,190.367 0,425.195 0,660.023 190.367,850.391 425.195,850.391 v 0" /><path
         id="path16"
         style="fill:#ffffff;fill-opacity:1;fill-rule:nonzero;stroke:none"
         d="m 425.234,708.695 c 38.512,0 75.274,-7.406 110.293,-22.215 33.899,-14.335 63.946,-34.609 90.149,-60.812 26.199,-26.195 46.469,-56.242 60.804,-90.141 14.813,-35.019 22.215,-71.789 22.215,-110.297 0,-38.507 -7.402,-75.273 -22.215,-110.292 -14.335,-33.899 -34.605,-63.946 -60.804,-90.149 -26.203,-26.199 -56.25,-46.469 -90.149,-60.805 -35.019,-14.808 -71.781,-22.214 -110.293,-22.214 -38.511,0 -75.273,7.406 -110.293,22.214 -33.894,14.336 -63.945,34.606 -90.144,60.805 -26.203,26.203 -46.473,56.25 -60.813,90.149 -14.808,35.019 -22.218,71.785 -22.218,110.292 0,38.508 7.41,75.278 22.218,110.297 14.34,33.899 34.61,63.946 60.813,90.141 26.199,26.203 56.25,46.477 90.144,60.812 35.02,14.809 71.782,22.215 110.293,22.215 v 0" /><path
         id="path18"
         style="fill:#231f20;fill-opacity:1;fill-rule:nonzero;stroke:none"
         d="m 223.77,523.762 376.242,0.75 v 0 c 2.765,0 5.754,-0.395 8.168,-1.547 2.125,-1.078 3.961,-2.844 5.328,-4.824 v 0 l 43.844,-67.93 v 0 c 0.468,-0.793 0.906,-1.836 1.195,-2.734 0.426,-1.227 0.426,-5.946 0.426,-7.168 v 0 l 0.109,-63.5 v 0 c 0,-2.778 -0.824,-5.797 -2.914,-7.598 -2.305,-1.945 -5.691,-2.309 -8.641,-2.309 h -69.875 v 0 c 0.032,1.336 0.106,3.352 0,4.758 -1.297,20.735 -19.082,36.07 -39.675,36.36 -21.024,0.21 -39.563,-15.086 -40.965,-36.25 -0.074,-1.375 -0.074,-3.317 -0.074,-4.645 v 0 l -184.715,0.215 v 0 c 0,0.973 0,2.371 -0.11,3.418 -1.367,20.664 -19.258,35.785 -39.777,35.859 -20.559,0 -37.945,-15.304 -40.106,-35.859 -0.105,-1.047 -0.214,-2.555 -0.214,-3.633 v 0 l -31.934,-0.223 v 0 c -2.09,-0.14 -4.215,0.907 -5.762,2.379 -1.722,1.836 -2.625,4.504 -2.625,6.985 v 0 l -0.324,61.379 v 0 c 0,1.441 0.109,3.132 0.254,4.539 0.176,2.195 0.645,5.754 1.262,7.664 v 0 l 15.84,65.703 v 0 c 0.644,2.879 3.019,5.254 5.613,6.515 2.844,1.407 6.375,1.696 9.43,1.696 v 0" /><path
         id="path20"
         style="fill:#231f20;fill-opacity:1;fill-rule:nonzero;stroke:none"
         d="m 272.48,400.387 c 18.325,0 33.157,-15.012 33.157,-33.516 0,-18.574 -14.871,-33.59 -33.196,-33.59 -18.285,0 -33.121,14.867 -33.226,33.301 -0.11,18.684 14.832,33.805 33.265,33.805 v 0" /><path
         id="path22"
         style="fill:#231f20;fill-opacity:1;fill-rule:nonzero;stroke:none"
         d="m 537.906,400.93 c 18.539,-0.184 33.117,-15.84 32.832,-34.563 -0.25,-18.359 -15.047,-33.16 -33.261,-33.191 -18.434,-0.074 -33.551,14.793 -33.77,33.332 -0.25,19.156 15.227,34.637 34.199,34.422 v 0" /><path
         id="path24"
         style="fill:#ffffff;fill-opacity:1;fill-rule:nonzero;stroke:none"
         d="m 216.68,509.789 13.855,0.109 -15.691,-64.007 h -13.75 l 15.586,63.898 v 0" /><path
         id="path26"
         style="fill:#ffffff;fill-opacity:1;fill-rule:nonzero;stroke:none"
         d="m 240.801,509.934 42.515,0.218 0.43,-64.222 -58.496,-0.223 15.551,64.227 v 0" /><path
         id="path28"
         style="fill:#ffffff;fill-opacity:1;fill-rule:nonzero;stroke:none"
         d="m 292.566,510.188 h 47.629 l -0.394,-64.297 h -47.02 l -0.215,64.297 v 0" /><path
         id="path30"
         style="fill:#ffffff;fill-opacity:1;fill-rule:nonzero;stroke:none"
         d="m 349.086,510.188 h 46.871 l 0.113,-64.297 h -46.984 v 64.297" /><path
         id="path32"
         style="fill:#ffffff;fill-opacity:1;fill-rule:nonzero;stroke:none"
         d="m 405.645,510.152 47.734,-0.218 0.574,-64.227 h -48.058 l -0.25,64.445 v 0" /><path
         id="path34"
         style="fill:#ffffff;fill-opacity:1;fill-rule:nonzero;stroke:none"
         d="m 462.703,509.973 48.922,0.215 0.648,-64.622 -48.816,0.18 -0.754,64.227 v 0" /><path
         id="path36"
         style="fill:#ffffff;fill-opacity:1;fill-rule:nonzero;stroke:none"
         d="m 521.023,510.152 h 47.844 l 0.434,-64.007 -47.629,-0.438 -0.649,64.445 v 0" /><path
         id="path38"
         style="fill:#ffffff;fill-opacity:1;fill-rule:nonzero;stroke:none"
         d="m 578.656,510.188 h 29.199 l 39.922,-64.012 h -68.972 l -0.149,64.012 v 0" /><path
         id="path40"
         style="fill:#ffffff;fill-opacity:1;fill-rule:nonzero;stroke:none"
         d="m 272.441,381.305 c 7.778,0 13.969,-6.547 13.789,-14.434 -0.109,-7.523 -6.156,-13.644 -13.64,-13.644 -7.453,-0.075 -13.61,5.937 -13.863,13.496 -0.215,7.851 5.906,14.547 13.714,14.582 v 0" /><path
         id="path42"
         style="fill:#ffffff;fill-opacity:1;fill-rule:nonzero;stroke:none"
         d="m 537.836,381.449 c 7.988,-0.07 14.293,-6.914 13.75,-14.972 -0.43,-7.239 -6.621,-12.606 -13.82,-12.637 -7.313,-0.074 -13.645,5.293 -14.188,12.637 -0.543,8.168 6.086,15.007 14.258,14.972 v 0" /></g></g></svg>