<?xml version="1.0" encoding="UTF-8" standalone="no"?>
<svg
   xmlns:dc="http://purl.org/dc/elements/1.1/"
   xmlns:cc="http://creativecommons.org/ns#"
   xmlns:rdf="http://www.w3.org/1999/02/22-rdf-syntax-ns#"
   xmlns:svg="http://www.w3.org/2000/svg"
   xmlns="http://www.w3.org/2000/svg"
   viewBox="0 0 94.866669 132.65334"
   height="132.65334"
   width="94.866669"
   xml:space="preserve"
   id="svg2"
   version="1.1"><metadata
     id="metadata8"><rdf:RDF><cc:Work
         rdf:about=""><dc:format>image/svg+xml</dc:format><dc:type
           rdf:resource="http://purl.org/dc/dcmitype/StillImage" /></cc:Work></rdf:RDF></metadata><defs
     id="defs6" /><g
     transform="matrix(1.3333333,0,0,-1.3333333,0,132.65333)"
     id="g10"><g
       transform="scale(0.1)"
       id="g12"><path
         id="path14"
         style="fill:#ffffff;fill-opacity:1;fill-rule:nonzero;stroke:none"
         d="m 1.41797,1.41797 h 708.66 v 992.09 h -708.66 z" /><path
         id="path16"
         style="fill:none;stroke:#231f20;stroke-width:2.83500004;stroke-linecap:butt;stroke-linejoin:miter;stroke-miterlimit:4;stroke-dasharray:none;stroke-opacity:1"
         d="M 1.41797,1.41797 H 710.078 V 993.508 H 1.41797 V 1.41797" /><path
         id="path18"
         style="fill:#1a67bb;fill-opacity:1;fill-rule:nonzero;stroke:none"
         d="m 15.5859,15.5977 h 680.313 v 963.773 H 15.5859 Z" /><path
         id="path20"
         style="fill:#ffffff;fill-opacity:1;fill-rule:nonzero;stroke:none"
         d="m 307.848,318.078 v -45.976 l -78.84,-0.032 v -46.765 l -142.5627,0.039 v -46.77 H 270.695 v 46.77 h 80.168 v 46.726 h 79.168 v 46.758 l 78.621,0.078 v 46.692 h 102.246 v 46.757 H 480.5 v -46.691 l -93.918,0.039 v -46.902 l -25.848,0.027 v 0 c 0,3.176 -0.039,7.422 -0.254,12.383 -0.074,0.832 -0.324,1.555 -0.792,2.129 -0.395,0.617 -0.899,1.262 -1.442,1.797 -1.258,1.261 -2.699,2.558 -3.527,4.035 -1.043,1.836 -0.867,3.848 0.039,6.043 0.754,1.875 3.129,4.324 2.765,7.316 v 0 l -26.746,76.817 v 0 c -0.972,2.343 -1.871,4.715 -2.629,7.129 -0.824,3.062 -0.753,6.265 -0.355,9.429 1.723,11.199 2.012,22.864 4.645,33.34 0.75,2.879 1.902,6.301 4.71,5.832 2.055,-0.359 2.055,-3.348 2.239,-5.293 0.644,-5.582 0.824,-11.305 2.265,-16.449 1.473,-4.609 6.157,-7.992 10.297,-11.988 v 0 l 58.18,-46.223 v 0 c 0.926,-0.508 1.973,-1.043 3.203,-1.043 1.758,0 1.863,0.606 2.625,0.859 1.984,0.539 4.426,-0.363 4.426,-2.16 0,-1.187 -0.606,-2.261 -1.301,-3.242 -3.379,-4.246 -6.004,-8.199 -8.711,-12.129 -1.726,-2.41 -4.715,-7.09 -6.297,-8.922 -2.551,-2.992 -3.488,-9.297 -0.109,-11.418 5.508,-3.386 13.723,0.539 16.094,2.813 v 0 l 10.476,11.515 v 0 c 1.653,1.336 6.801,7.809 8.176,10.184 1.223,2.129 2.414,7.813 3.273,9.297 0.575,0.715 2.371,1.328 2.45,1.328 0.214,0.039 3.488,0.613 4.386,0.969 v 0 l 13.426,12.137 v 0 c -1.035,1.542 -2.336,3.671 -4.062,5.402 -0.575,0.574 -1.258,1.07 -2.024,1.473 -0.68,0.285 -1.687,0.722 -2.476,0.937 -1.047,0.363 -2.2,0.684 -3.164,0.859 -2.024,0.618 -3.887,1.692 -5.04,3.204 -0.871,0.976 -1.73,2.453 -2.519,3.601 v 0 l -62.07,54.793 v 0 c 0.359,11.523 4.863,25.199 7.996,37.945 1.648,6.981 2.843,14.043 3.058,21.203 0.106,6.086 -2.558,11.95 -1.66,18.106 0.508,3.566 3.711,5.945 5.332,8.176 v 0 l -17.14,85.429 v 0 c -0.067,1.004 0.148,2.051 0.898,2.735 1.406,1.043 3.027,-0.61 3.965,-1.985 2.59,-4.027 4.785,-8.851 6.808,-12.234 8.094,-13.609 11.375,-28.875 15.047,-44.066 1.075,-4.43 1.399,-9.215 3.125,-13.036 0.578,-1.328 2.16,-1.941 3.645,-2.265 1.648,-0.32 3.379,-0.395 4.961,-0.32 1.043,-1.911 2.156,-4.25 1.804,-5.946 -1.296,-5.758 -1.445,-8.996 0.93,-12.418 2.742,-3.922 6.121,-7.273 9.903,-10.293 2.234,-1.875 5.398,-2.883 8.32,-2.09 1.621,0.465 3.242,1.512 3.523,3.059 0.617,3.457 1.192,6.91 1.797,10.367 0.578,3.961 -0.605,8.067 -4.57,10.696 -1.297,0.824 -2.559,1.835 -2.988,3.168 -0.469,1.796 0.793,4.246 1.445,6.007 2.551,6.95 -0.145,14.723 -1.875,22.535 -3.848,17.825 -5.145,36.29 -12.488,53.43 -5.723,13.496 -15.235,25.524 -24.082,37.797 -6.418,8.785 -13.145,17.461 -20.559,25.668 -6.551,7.273 -14.793,13.176 -24.52,16.449 -7.882,2.274 -17.636,2.379 -23.722,7.239 -4.969,4.035 -4.75,10.941 -2.774,16.449 0.899,2.668 2.668,5.152 4.715,7.129 3.238,3.64 5.582,7.886 6.77,12.422 1.332,4.503 1.582,9.144 2.484,13.644 0.359,2.195 1.656,4.285 3.816,5.473 2.051,1.226 4.575,1.187 7.524,0.718 1.836,-0.539 4.644,-1.187 6.191,-0.429 3.852,1.332 2.016,6.082 -3.382,6.73 -3.961,0.504 -7.305,0.973 -9.833,2.809 -2.765,2.265 -2.191,7.019 -2.66,10.582 -0.394,3.062 -2.015,5.976 -4.429,8.176 -3.309,2.914 -8.461,3.382 -13.246,3.382 -3.457,0.18 -7.165,-0.179 -10.547,0.575 -6.231,1.582 -14.578,5.433 -19.188,2.882 -3.023,-1.656 -4.504,-4.574 -5.437,-7.453 -1.192,-4.031 -1.66,-8.64 -4.825,-11.808 -2.375,-2.235 -6.156,-1.836 -9.539,-1.442 -2.199,0.289 -4.75,0.395 -6.695,-0.644 -1.152,-0.543 -1.512,-1.945 -1.226,-3.137 0.468,-1.941 2.808,-3.308 5.039,-3.851 2.488,-0.719 4.793,-0.864 6.949,-1.473 3.672,-1.402 4.25,-5.582 3.457,-8.859 -0.649,-2.34 -1.656,-4.606 -3.098,-6.731 -1.297,-1.98 -2.515,-3.926 -3.742,-5.973 -0.578,-1.156 -1.227,-2.453 -0.504,-3.855 0.684,-1.762 2.914,-2.41 3.598,-3.996 0.683,-1.801 0.613,-3.742 0.289,-5.543 v 0 l 3.887,-0.758 -2.051,-1.332 v 0 c -1.477,-1.262 -0.543,-3.098 -0.395,-4.645 0.215,-1.906 -0.109,-4.101 0.758,-6.011 0.645,-1.399 1.762,-1.867 2.879,-2.266 2.844,-0.969 5.723,-1.117 8.277,-2.234 1.875,-0.754 2.989,-2.59 3.383,-4.426 0.254,-0.902 0.328,-1.875 0.289,-2.773 -0.109,-4.969 -2.445,-9.575 -5.797,-13.426 -2.34,-2.274 -4.859,-4.504 -7.054,-6.809 -1.622,-1.687 -2.809,-3.707 -3.567,-5.828 -0.644,-1.977 -1.152,-3.996 -1.437,-6.051 -0.289,-1.976 -0.614,-4.027 -0.793,-6.117 -0.469,-4.141 -0.899,-8.316 -1.258,-12.422 -0.289,-3.418 -0.539,-6.801 -0.719,-10.258 -0.109,-2.554 -0.219,-5.113 -0.219,-7.707 0,-0.355 0,-0.75 0,-1.113 0.039,-1.047 0.11,-2.484 0.11,-3.531 0.035,-0.758 0.035,-1.547 0.07,-2.305 0.039,-2.051 0.074,-4.101 0.106,-6.117 0,-1.047 0,-2.051 0,-3.098 -0.032,-1.652 -0.106,-3.347 -0.176,-5.039 -0.145,-1.511 -0.285,-3.023 -0.508,-4.574 -0.215,-1.613 -0.535,-3.27 -1.004,-4.891 -0.434,-1.441 -0.973,-2.847 -1.621,-4.25 -0.539,-1.117 -1.152,-2.269 -1.797,-3.382 -1.047,-1.801 -2.199,-3.567 -3.351,-5.258 v 0 l -39.383,-55.477 1.332,-5.652 v 0 c -0.543,-0.934 -1.078,-1.871 -1.657,-2.735 -0.324,-0.433 -0.613,-0.863 -0.937,-1.332 -0.07,-0.109 -0.18,-0.214 -0.254,-0.324 -0.246,-0.289 -0.574,-0.683 -0.824,-0.937 -0.18,-0.215 -0.395,-0.43 -0.574,-0.649 -0.684,-0.793 -1.368,-1.582 -1.985,-2.375 -0.32,-0.433 -0.574,-0.863 -0.824,-1.332 -0.578,-1.117 -0.937,-2.304 -1.078,-3.531 -0.184,-1.547 -0.149,-3.129 0.141,-4.676 0.394,-2.125 1.152,-4.176 2.269,-6.086 1.039,-1.8 2.406,-3.383 4.102,-4.75 1.547,-1.258 3.351,-2.304 5.293,-3.058 1.582,-0.614 3.312,-0.942 5.039,-0.973 1.187,0 2.304,0.215 3.382,0.5 0.758,0.219 1.477,0.543 2.09,1.012 0.469,0.355 0.868,0.793 1.153,1.297 0.398,0.679 0.683,1.406 0.933,2.121 0.254,0.937 0.395,1.871 0.328,2.847 -0.074,0.899 -0.254,1.762 -0.648,2.661 -0.074,0.148 -0.148,0.289 -0.215,0.433 -0.148,0.324 -0.328,0.688 -0.508,0.973 -0.109,0.183 -0.175,0.429 -0.324,0.609 -0.215,0.363 -0.394,0.758 -0.609,1.188 -0.149,0.183 -0.215,0.394 -0.289,0.617 -0.289,0.683 -0.469,1.367 -0.469,2.086 0,0.648 0.109,1.297 0.363,1.906 0.215,0.543 0.61,1.078 1.078,1.441 0.61,0.43 1.258,0.758 1.977,0.938 0.723,0.215 1.515,0.289 2.269,0.25 0.829,-0.074 1.657,-0.215 2.414,-0.469 0.36,-0.109 0.719,-0.25 1.043,-0.355 0.43,-0.184 0.829,-0.364 1.262,-0.543 v 0 l 24.262,32.402 v 0 c 0.32,0.395 0.719,0.789 1.078,1.113 0.254,0.254 0.578,0.504 0.867,0.723 0.395,0.215 0.754,0.356 1.223,0.43 0.43,0.07 0.828,0.035 1.222,-0.074 0.254,-0.071 0.508,-0.18 0.649,-0.325 0.289,-0.179 0.543,-0.394 0.758,-0.609 0.215,-0.254 0.394,-0.574 0.543,-0.863 0.14,-0.289 0.215,-0.614 0.246,-0.938 0.074,-0.359 0.074,-0.758 0.148,-1.187 0,-0.539 0,-1.043 -0.074,-1.547 v 0 l -2.305,-37.836 v 0 c 0.035,-0.469 0.11,-0.973 0.18,-1.477 0.035,-0.359 0.145,-0.722 0.254,-1.082 0.144,-0.539 0.43,-1.113 0.793,-1.617 0.25,-0.394 0.644,-0.723 1.078,-0.973 0.832,-0.507 1.762,-0.902 2.734,-1.117 1.586,-0.289 3.204,-0.469 4.789,-0.469 0.973,0 1.946,0 2.883,-0.035 1.727,-0.039 3.453,-0.074 5.18,-0.144 0.039,-0.215 0.148,-0.469 0.18,-0.684 0.039,-0.18 0.074,-0.363 0.109,-0.539 0.074,-0.324 0.105,-0.613 0.105,-0.902 0.04,-0.215 0,-0.43 0,-0.684 -0.031,-0.394 -0.14,-0.758 -0.214,-1.187 -0.215,-0.684 -0.395,-1.368 -0.645,-2.016 -0.07,-0.254 -0.109,-0.504 -0.18,-0.719 -0.218,-0.613 -0.433,-1.476 -0.613,-2.125 -0.144,-0.465 -0.289,-0.902 -0.359,-1.371 -0.254,-0.824 -0.469,-1.652 -0.688,-2.445 -0.105,-0.395 -0.25,-0.828 -0.355,-1.227 -0.11,-0.394 -0.254,-0.75 -0.363,-1.113 -0.36,-1.012 -0.864,-2.449 -1.184,-3.457 -0.254,-0.758 -0.504,-1.473 -0.793,-2.266 -0.758,-2.089 -1.481,-4.14 -2.164,-6.261 -0.359,-1.086 -0.684,-2.125 -0.969,-3.211 -0.363,-1.293 -0.719,-2.66 -1.008,-3.992 -0.722,-3.278 -1.332,-6.555 -1.941,-9.829 -0.223,-1.082 -0.438,-2.125 -0.652,-3.203 -0.36,-2.125 -0.789,-4.25 -1.153,-6.336 v 0 l -4.211,-43.812 v 0 c -0.429,-4.789 -1.402,-9.684 -1.152,-14.578 0.105,-1.797 0.394,-3.711 0.793,-5.364 v 0 l 27.039,-86.367 v 0 c 0.57,-1.902 3.094,-2.625 3.164,-2.695 1.223,-0.801 3.672,-1.375 3.926,-3.211 0.648,-3.312 -5.039,-5.402 -9.149,-7.16 -8.132,-3.281 -22.64,-3.633 -19.296,-12.059 1.589,-4.035 8.644,-2.558 13.468,-3.351 v 0 l 6.192,0.148 v 0" /></g></g></svg>