<?xml version="1.0" encoding="UTF-8" standalone="no"?>
<svg
   xmlns:dc="http://purl.org/dc/elements/1.1/"
   xmlns:cc="http://creativecommons.org/ns#"
   xmlns:rdf="http://www.w3.org/1999/02/22-rdf-syntax-ns#"
   xmlns:svg="http://www.w3.org/2000/svg"
   xmlns="http://www.w3.org/2000/svg"
   viewBox="0 0 94.866669 94.866669"
   height="94.866669"
   width="94.866669"
   xml:space="preserve"
   id="svg2"
   version="1.1"><metadata
     id="metadata8"><rdf:RDF><cc:Work
         rdf:about=""><dc:format>image/svg+xml</dc:format><dc:type
           rdf:resource="http://purl.org/dc/dcmitype/StillImage" /></cc:Work></rdf:RDF></metadata><defs
     id="defs6" /><g
     transform="matrix(1.3333333,0,0,-1.3333333,0,94.866667)"
     id="g10"><g
       transform="scale(0.1)"
       id="g12"><path
         id="path14"
         style="fill:#ffffff;fill-opacity:1;fill-rule:nonzero;stroke:none"
         d="m 1.41406,1.41797 h 708.664 v 708.656 H 1.41406 Z" /><path
         id="path16"
         style="fill:none;stroke:#231f20;stroke-width:2.83500004;stroke-linecap:butt;stroke-linejoin:miter;stroke-miterlimit:4;stroke-dasharray:none;stroke-opacity:1"
         d="M 1.41406,1.41797 H 710.078 V 710.074 H 1.41406 V 1.41797" /><path
         id="path18"
         style="fill:#1a67bb;fill-opacity:1;fill-rule:nonzero;stroke:none"
         d="m 15.6016,15.5938 h 680.324 v 680.332 H 15.6016 Z" /><path
         id="path20"
         style="fill:#fcd213;fill-opacity:1;fill-rule:nonzero;stroke:none"
         d="m 72.3008,369.117 129.0942,127.153 5.796,-4.504 v 0 c -0.898,-3.055 -1.976,-6.297 -2.878,-9.36 -2.555,-9.031 -3.817,-18.789 -2.735,-28.148 2.336,-19.836 9.613,-39.492 19.043,-57.203 5.613,-10.082 11.234,-19.84 17.387,-29.379 1.656,-2.52 3.816,-6.153 5.613,-8.676 0.402,7.957 2.559,19.117 3.82,26.895 3.813,22.175 17.965,51.765 36.469,72.324 10.688,11.914 24.082,21.633 38.41,29.051 28.477,14.613 60.95,20.558 92.844,15.695 21.563,-3.238 42.051,-12.457 60.012,-24.735 14.687,-9.894 27.363,-22.171 37.722,-36.429 9.582,-13.352 16.672,-28.508 21.211,-44.207 3.243,-10.981 5.254,-22.356 5.977,-33.731 0.363,-7.383 0.176,-18.218 0,-25.597 v 0 l 58.926,59.328 v 0 c 1.984,2.015 1.984,6.519 1.621,9.219 v 0 l -0.36,4.496 4.004,5.796 34.989,-33.73 v 0 c -1.805,-0.898 -4.356,-1.801 -6.161,-2.16 -1.074,-0.18 -2.91,0 -3.996,0 -1.257,0 -3.457,0 -4.714,-0.399 -2.911,-0.539 -5.43,-2.699 -7.454,-4.859 v 0 L 517.977,270.801 v 0 c -15.625,-16.778 -34.454,-33.918 -54.391,-45.285 -24.836,-14.442 -54.223,-19.844 -83.051,-18.223 -16.855,0.898 -34.457,4.141 -49.863,11.379 -18.859,8.82 -37.004,22.351 -52.777,36.074 -6.512,5.762 -13.207,11.738 -19.762,17.5 -10.692,9.754 -22.102,19.836 -33.34,29.043 -20.121,16.781 -41.898,31.395 -65.262,43.094 -14.691,7.597 -33.554,15.519 -49.863,17.676 -7.453,0.906 -15.4453,0.726 -22.8555,-0.18 -4.7187,-0.535 -9.7969,-1.078 -14.332,-1.797 v 0 l -0.1797,9.035 v 0" /><path
         id="path22"
         style="fill:#1a67bb;fill-opacity:1;fill-rule:nonzero;stroke:none"
         d="m 392.266,452.531 c 53.535,0 96.992,-43.273 96.992,-96.554 0,-53.282 -43.457,-96.555 -96.992,-96.555 -53.532,0 -96.985,43.273 -96.985,96.555 0,53.281 43.453,96.554 96.985,96.554 v 0" /></g></g></svg>