<?xml version="1.0" encoding="UTF-8" standalone="no"?>
<svg
   xmlns:dc="http://purl.org/dc/elements/1.1/"
   xmlns:cc="http://creativecommons.org/ns#"
   xmlns:rdf="http://www.w3.org/1999/02/22-rdf-syntax-ns#"
   xmlns:svg="http://www.w3.org/2000/svg"
   xmlns="http://www.w3.org/2000/svg"
   viewBox="0 0 94.866669 132.66667"
   height="132.66667"
   width="94.866669"
   xml:space="preserve"
   id="svg2"
   version="1.1"><metadata
     id="metadata8"><rdf:RDF><cc:Work
         rdf:about=""><dc:format>image/svg+xml</dc:format><dc:type
           rdf:resource="http://purl.org/dc/dcmitype/StillImage" /></cc:Work></rdf:RDF></metadata><defs
     id="defs6" /><g
     transform="matrix(1.3333333,0,0,-1.3333333,0,132.66667)"
     id="g10"><g
       transform="scale(0.1)"
       id="g12"><path
         id="path14"
         style="fill:#ffffff;fill-opacity:1;fill-rule:nonzero;stroke:none"
         d="m 1.41797,1.41797 h 708.66 v 992.164 h -708.66 z" /><path
         id="path16"
         style="fill:none;stroke:#231f20;stroke-width:2.83500004;stroke-linecap:butt;stroke-linejoin:miter;stroke-miterlimit:4;stroke-dasharray:none;stroke-opacity:1"
         d="M 1.41797,1.41797 H 710.078 V 993.582 H 1.41797 V 1.41797" /><path
         id="path18"
         style="fill:#1a67bb;fill-opacity:1;fill-rule:nonzero;stroke:none"
         d="m 15.6016,15.6055 h 680.289 v 963.789 H 15.6016 Z" /><path
         id="path20"
         style="fill:#ffffff;fill-opacity:1;fill-rule:nonzero;stroke:none"
         d="M 107.727,391.191 H 603.77 V 887.238 H 107.727 Z" /><path
         id="path22"
         style="fill:#231f20;fill-opacity:1;fill-rule:nonzero;stroke:none"
         d="m 188.258,518.238 -0.074,39.098 v 0 c -1.586,1.582 -3.926,3.812 -5.434,5.394 -5.187,5.333 -9.797,11.161 -13.754,17.395 -3.351,5.25 -6.121,10.758 -8.391,16.48 -2.914,7.528 -4.75,15.594 -5.796,23.583 -1.258,9.722 -1.258,19.515 0.039,29.16 1.55,11.16 5.039,21.961 9.972,32.078 4.571,9.215 10.438,17.851 17.641,25.308 6.875,7.125 15.621,13.496 24.082,18.754 9.074,5.649 18.863,10.696 28.586,15.117 13.68,6.231 27.793,11.485 42.266,15.594 12.019,3.418 24.402,5.973 36.789,7.77 11.554,1.695 23.254,2.594 34.957,2.808 14.504,0.328 28.945,-0.535 43.269,-2.519 14.223,-1.977 28.371,-5.254 42.082,-9.426 15.09,-4.539 29.738,-10.555 43.742,-17.57 12.782,-6.371 25.125,-13.824 36.434,-22.426 9.57,-7.348 17.676,-16.746 24.152,-26.863 5.047,-7.844 9.11,-16.34 11.817,-25.231 2.441,-7.957 3.633,-16.527 4.023,-24.808 0.36,-8.168 -0.07,-16.375 -1.582,-24.407 -2.012,-10.617 -6.047,-20.808 -11.515,-30.199 -4.004,-6.949 -8.895,-13.535 -14.766,-19.082 -1.262,-1.226 -3.242,-2.918 -4.609,-4.105 v 0 l 0.109,-42.012 35.391,0.109 -0.176,-13.648 -403.746,0.254 0.039,13.5 34.453,-0.106 v 0" /><path
         id="path24"
         style="fill:#ffffff;fill-opacity:1;fill-rule:nonzero;stroke:none"
         d="m 352.559,534.836 c -1.696,0 -3.383,0.289 -4.965,0.93 -1.586,0.617 -3.028,1.515 -4.25,2.703 -1.223,1.152 -2.16,2.558 -2.844,4.105 -0.652,1.508 -1.008,3.168 -1.008,4.86 0,1.652 0.324,3.308 0.973,4.898 0.683,1.508 1.621,2.914 2.84,4.098 1.191,1.152 2.629,2.125 4.215,2.742 1.582,0.644 3.238,0.969 4.964,0.93 8.317,-0.106 14.332,-7.704 12.391,-15.586 -1.367,-5.614 -6.445,-9.614 -12.316,-9.68 v 0" /><path
         id="path26"
         style="fill:#ffffff;fill-opacity:1;fill-rule:nonzero;stroke:none"
         d="m 330.094,518.305 c -6.586,4.898 -11.196,11.379 -13.571,19.117 -2.339,7.707 -2.089,15.664 0.758,23.223 2.77,7.632 7.774,13.824 14.688,18.253 6.84,4.43 14.652,6.551 22.859,6.043 7.848,-0.429 15.047,-3.093 21.238,-7.878 6.161,-4.754 10.516,-11.055 12.782,-18.434 2.265,-7.418 2.121,-14.977 -0.321,-22.32 -2.492,-7.27 -6.984,-13.426 -13.293,-18.036 h 134.61 l 0.039,31.645 v 0 c -0.254,-0.18 -0.938,-0.617 -1.231,-0.758 -1.621,-0.683 -3.886,-0.828 -5.574,-0.863 v 0 l -106.672,-0.18 v 0 c -0.281,24.012 -20.449,43.235 -44.965,42.766 -23.648,-0.5 -42.695,-19.297 -43.05,-42.586 v 0 l -23.547,0.035 -0.18,132.012 v 0 c 0.106,1.836 -0.254,3.636 -1.078,5.258 -1.836,3.457 -5.582,5.507 -9.543,5.328 v 0 l -52.703,0.105 v 0 c -3.527,0.215 -6.985,-1.113 -9.395,-3.637 -2.234,-2.339 -3.386,-5.433 -3.203,-8.566 V 548.438 h -9.004 l 0.071,-29.95 130.285,-0.183 v 0" /><path
         id="path28"
         style="fill:#ffffff;fill-opacity:1;fill-rule:nonzero;stroke:none"
         d="m 425.93,636.75 -31.758,-0.074 v 0 c -2.16,-0.141 -4.277,0.543 -5.859,1.984 -1.446,1.258 -2.344,2.985 -2.598,4.856 v 0 l 0.039,37.336 v 0 c -0.293,2.296 0.391,4.675 1.941,6.441 1.692,1.98 4.211,3.094 6.836,3.023 v 0 l 68.438,-0.035 v 0 c 2.707,0.254 5.254,-0.718 7.168,-2.554 1.758,-1.731 2.695,-4.106 2.629,-6.52 V 643.77 c -0.039,-2.165 -1.086,-4.18 -2.813,-5.547 -1.113,-0.899 -2.48,-1.438 -3.918,-1.582 v 0 l -40.105,0.109 v 0" /><path
         id="path30"
         style="fill:#231f20;fill-opacity:1;fill-rule:nonzero;stroke:none"
         d="m 216.73,548.512 -0.07,129.746 v 0 c -0.219,1.582 0.395,3.129 1.582,4.176 0.938,0.898 2.231,1.367 3.567,1.367 v 0 l 49.281,-0.074 v 0 c 1.945,0.113 3.785,-0.754 4.863,-2.301 0.684,-1.008 1.004,-2.164 0.973,-3.383 v 0 l -0.363,-129.605 -59.833,0.074 v 0" /><path
         id="path32"
         style="fill:#ffffff;fill-opacity:1;fill-rule:nonzero;stroke:none"
         d="m 225.695,636.855 0.039,38.086 42.657,-0.031 -0.11,-38.269 -42.586,0.214 v 0" /></g></g></svg>