<?xml version="1.0" encoding="UTF-8" standalone="no"?>
<svg
   xmlns:dc="http://purl.org/dc/elements/1.1/"
   xmlns:cc="http://creativecommons.org/ns#"
   xmlns:rdf="http://www.w3.org/1999/02/22-rdf-syntax-ns#"
   xmlns:svg="http://www.w3.org/2000/svg"
   xmlns="http://www.w3.org/2000/svg"
   viewBox="0 0 94.866669 132.66667"
   height="132.66667"
   width="94.866669"
   xml:space="preserve"
   id="svg2"
   version="1.1"><metadata
     id="metadata8"><rdf:RDF><cc:Work
         rdf:about=""><dc:format>image/svg+xml</dc:format><dc:type
           rdf:resource="http://purl.org/dc/dcmitype/StillImage" /></cc:Work></rdf:RDF></metadata><defs
     id="defs6" /><g
     transform="matrix(1.3333333,0,0,-1.3333333,0,132.66667)"
     id="g10"><g
       transform="scale(0.1)"
       id="g12"><path
         id="path14"
         style="fill:#ffffff;fill-opacity:1;fill-rule:nonzero;stroke:none"
         d="m 1.41797,1.41797 h 708.66 v 992.164 h -708.66 z" /><path
         id="path16"
         style="fill:none;stroke:#231f20;stroke-width:2.83500004;stroke-linecap:butt;stroke-linejoin:miter;stroke-miterlimit:4;stroke-dasharray:none;stroke-opacity:1"
         d="M 1.41797,1.41797 H 710.078 V 993.582 H 1.41797 V 1.41797" /><path
         id="path18"
         style="fill:#1a67bb;fill-opacity:1;fill-rule:nonzero;stroke:none"
         d="m 15.6016,15.6055 h 680.289 v 963.789 H 15.6016 Z" /><path
         id="path20"
         style="fill:#ffffff;fill-opacity:1;fill-rule:nonzero;stroke:none"
         d="M 107.727,391.191 H 603.77 V 887.238 H 107.727 Z" /><path
         id="path22"
         style="fill:#231f20;fill-opacity:1;fill-rule:nonzero;stroke:none"
         d="m 209.672,825.75 c 1.551,1.148 3.926,2.879 5.547,3.816 1.91,1.153 5.871,2.875 7.773,3.739 2.594,1.086 7.528,3.172 10.266,3.746 1.328,0.215 3.308,0.437 4.644,0.578 1.473,-0.43 3.524,-1.008 4.93,-1.582 3.922,-1.59 7.883,-4.465 11.125,-7.277 5.07,-4.391 10.117,-9.864 14.504,-14.977 4.719,-5.465 9.219,-11.156 13.43,-16.992 4.066,-5.754 8.535,-12.594 11.343,-19.074 1.614,-3.672 2.95,-7.559 3.704,-11.594 0.363,-1.727 0.652,-4.246 0.074,-5.903 -0.254,-0.796 -0.903,-1.73 -1.332,-2.378 v 0 L 275.844,747.34 v 0 c -0.969,2.164 -2.485,5.113 -3.528,7.203 -3.601,6.98 -7.742,13.676 -12.312,20.086 -5.223,7.418 -11.344,14.762 -17.391,21.457 -4.644,5.184 -10.328,11.086 -15.695,15.41 v 0 l -13.715,10.797 v 0 c -1.078,0.934 -2.558,2.449 -3.531,3.457 v 0 m 206.785,-245.484 10.625,12.742 v 0 c 1.074,1.226 2.266,2.594 3.379,3.746 1.621,1.508 3.535,2.879 5.652,3.672 0.977,0.429 2.305,0.719 3.418,0.429 1.231,-0.289 2.492,-1.582 3.321,-2.519 v 0 l 1.906,-2.594 11.765,-13.535 v 0 c 1.477,0.363 3.645,0.867 5.188,1.152 5.008,0.864 10.625,0.793 15.691,0.289 2.278,-0.214 13.469,-1.8 15.625,-2.156 4.114,-0.578 11.203,-1.73 15.02,-3.457 2.805,-1.226 5.613,-3.172 8.027,-5.262 1.797,-1.507 3.918,-3.597 4.961,-5.828 0.793,-1.804 1.153,-4.035 1.231,-5.976 0.07,-2.735 -0.36,-6.192 -0.789,-8.86 -0.618,-4.39 -1.7,-9.863 -3.321,-13.964 -0.605,-1.586 -1.758,-3.817 -2.519,-5.329 -3.235,1.153 -6.985,2.52 -10.149,3.743 -7.879,2.879 -15.84,5.976 -23.652,9.144 -6.953,2.883 -13.934,5.836 -20.809,8.93 -7.277,3.312 -14.941,7.058 -21.886,10.945 -5.938,3.309 -11.7,6.91 -17.246,10.801 -1.512,1.078 -3.954,2.805 -5.438,3.887 v 0 M 218.676,451.957 c 1.043,0.508 3.238,1.59 4.285,2.09 8.242,4.035 17.062,7.922 25.629,10.945 8.601,3.028 17.32,5.399 26.246,7.199 10.437,2.02 20.984,3.172 31.605,3.313 10.692,0.144 22.176,-0.793 32.797,-2.086 11.055,-1.371 22.246,-3.242 33.235,-5.398 8.816,-1.731 18.64,-3.895 27.39,-5.911 2.051,-0.429 26.75,-6.191 28.797,-6.621 8.285,-1.8 19.34,-3.742 27.942,-3.531 6.945,0.223 14.543,1.731 20.48,5.621 5.328,3.527 9.434,8.637 11.336,14.832 1.73,5.613 1.484,11.735 -0.352,17.352 -0.574,1.73 -1.699,4.246 -2.41,5.976 -1.769,-1.226 -4.433,-2.953 -6.418,-3.746 -4.062,-1.801 -9.14,-2.156 -13.562,-2.015 -7.961,0.289 -16.203,2.156 -23.801,4.609 -8.855,2.879 -18.145,6.98 -26.531,11.09 -8.535,4.172 -17.246,8.926 -25.196,14.035 -9.289,5.977 -21.132,15.191 -29.777,22.18 -14.867,11.949 -32.039,26.207 -46.043,39.238 -15.48,14.398 -30.207,29.809 -43.562,46.293 -11.953,14.687 -22.86,30.246 -32.864,46.301 -9.582,15.402 -18.582,31.75 -25.925,48.343 -5.829,13.25 -11.047,28.012 -15.551,41.903 -2.231,6.844 -4.785,15.34 -6.266,22.394 -0.535,2.668 -1.113,6.192 -0.898,8.93 0.289,2.734 1.406,6.047 2.519,8.566 1.91,4.536 4.571,9.434 7.957,12.965 1.407,1.508 3.891,3.449 5.578,4.75 0.832,-0.504 2.02,-1.226 2.883,-1.73 4.5,-2.805 9.36,-6.981 13.141,-10.586 5.723,-5.254 11.121,-10.797 16.34,-16.485 6.125,-6.625 11.883,-13.539 17.535,-20.593 4.215,-5.328 9.433,-12.383 12.531,-18.43 1.184,-2.449 2.734,-6.121 3.813,-8.641 -0.864,-0.652 -1.911,-1.441 -2.7,-2.089 -2.304,-1.797 -5.074,-4.391 -6.191,-7.059 -0.898,-2.156 -1.113,-4.676 -0.973,-6.981 0.215,-3.382 1.547,-7.203 2.809,-10.367 1.762,-4.246 3.926,-8.461 6.625,-12.133 3.168,-4.464 7.594,-8.71 11.664,-12.242 v 0 l 17.891,-14.613 v 0 c 6.117,-5.254 14.293,-13.395 19.906,-19.223 4.719,-4.898 11.629,-12.027 15.84,-17.355 4.718,-5.828 11.269,-15.692 15.41,-21.957 5.363,-8.207 10.984,-16.703 16.492,-24.699 3.848,-5.614 8.711,-12.383 13.027,-17.567 2.52,-3.023 5.907,-6.554 9.364,-8.351 2.949,-1.586 6.328,-2.375 9.648,-2.09 3.203,0.289 6.262,1.582 8.781,3.601 0.977,0.789 2.371,2.161 3.309,3.168 1.406,-0.937 3.859,-2.664 5.254,-3.597 5.801,-3.821 11.777,-7.344 17.82,-10.727 5.59,-3.031 15.481,-7.996 21.203,-10.805 5.762,-2.804 15.774,-7.703 21.817,-10.148 3.242,-1.301 21.894,-7.566 25.207,-8.711 2.801,-0.937 7.234,-2.453 9.968,-3.457 -0.398,-1.301 -1.042,-3.168 -1.621,-4.394 -1.328,-2.95 -3.711,-6.481 -5.613,-9.141 -2.051,-2.813 -4.719,-6.266 -7.238,-8.645 -1.434,-1.293 -3.602,-3.023 -5.145,-4.175 0.43,-1.223 1.192,-3.168 1.621,-4.395 2.801,-7.918 5.321,-18.07 3.711,-26.352 -1.73,-8.71 -7.023,-16.128 -14.082,-21.234 -6.808,-5.043 -15.48,-7.492 -23.906,-8.281 -11.125,-1.012 -23.789,1.004 -34.699,3.598 v 0 l -29.238,7.847 v 0 c -7.95,2.016 -17.461,3.891 -25.516,5.399 -10.52,2.019 -23.66,4.25 -34.313,5.402 -10.187,1.012 -20.484,1.367 -30.742,1.078 -9.508,-0.215 -19.222,-1.078 -28.586,-2.809 -8.566,-1.582 -17.855,-4.171 -26.242,-6.839 -6.914,-2.157 -15.016,-5.039 -21.457,-8.274 -1.695,-0.867 -4.32,-2.308 -5.941,-3.242 v 0 l -6.047,8.707 v 0" /></g></g></svg>