<?xml version="1.0" encoding="UTF-8" standalone="no"?>
<svg
   viewBox="0 0 66.519999 66.519997"
   height="66.519997"
   width="66.519997"
   xml:space="preserve"
   id="svg2"
   version="1.1"
   sodipodi:docname="CH_4.59.svg"
   inkscape:version="1.2.2 (b0a8486541, 2022-12-01)"
   xmlns:inkscape="http://www.inkscape.org/namespaces/inkscape"
   xmlns:sodipodi="http://sodipodi.sourceforge.net/DTD/sodipodi-0.dtd"
   xmlns="http://www.w3.org/2000/svg"
   xmlns:svg="http://www.w3.org/2000/svg"
   xmlns:rdf="http://www.w3.org/1999/02/22-rdf-syntax-ns#"
   xmlns:cc="http://creativecommons.org/ns#"
   xmlns:dc="http://purl.org/dc/elements/1.1/"><sodipodi:namedview
     id="namedview16"
     pagecolor="#505050"
     bordercolor="#eeeeee"
     borderopacity="1"
     inkscape:showpageshadow="0"
     inkscape:pageopacity="0"
     inkscape:pagecheckerboard="0"
     inkscape:deskcolor="#505050"
     showgrid="false"
     inkscape:zoom="9.7245953"
     inkscape:cx="66.480916"
     inkscape:cy="33.21475"
     inkscape:window-width="1920"
     inkscape:window-height="1128"
     inkscape:window-x="3840"
     inkscape:window-y="0"
     inkscape:window-maximized="1"
     inkscape:current-layer="svg2" /><metadata
     id="metadata8"><rdf:RDF><cc:Work
         rdf:about=""><dc:format>image/svg+xml</dc:format><dc:type
           rdf:resource="http://purl.org/dc/dcmitype/StillImage" /></cc:Work></rdf:RDF></metadata><defs
     id="defs6" /><path
     id="path22"
     style="fill:#231f20;fill-opacity:1;fill-rule:nonzero;stroke:none;stroke-width:0.133333"
     d="m 38.030239,26.55686 7.522399,-4.9364 -4.212533,-3.7828 -0.0912,-0.1 -0.06973,-0.1136 -0.05267,-0.1172 -0.0312,-0.1292 -0.0073,-0.1276 0.012,-0.132267 0.0364,-0.127066 0.05733,-0.1224 0.129734,-0.1724 0.167733,-0.1296 0.1948,-0.08653 0.216133,-0.02707 15.4656,-0.02867 0.232266,0.02867 0.2188,0.08227 0.192134,0.131734 0.1604,0.1776 0.1032,0.208933 0.05253,0.230667 -0.0047,0.2376 -0.05987,0.230133 -5.837067,14.046933 -0.0744,0.136933 -0.08853,0.125067 -0.1052,0.107733 -0.1224,0.08707 -0.134933,0.06667 -0.1412,0.0504 -0.149467,0.024 h -0.156267 l -0.266133,-0.05733 -0.2348,-0.132266 -0.192267,-0.192134 -0.133866,-0.242266 -1.949467,-5.388 -1.4036,0.945333 v 0 c -5.622933,3.763067 -7.865066,10.918266 -5.407333,17.221866 v 0 l 2.1532,5.544267 h -14.4792 l -0.2068,-6.862933 -0.8016,-26.805733 h 2.402667 l 4.682266,12 v 0 c 0.755734,-0.689067 1.562534,-1.310934 2.414134,-1.8704 v 0" /><path
     id="path24"
     style="fill:#231f20;fill-opacity:1;fill-rule:nonzero;stroke:none;stroke-width:0.133333"
     d="m 10.351039,50.095926 13.0828,-33.671866 h 2.4068 l -0.2448,8.083333 -0.7672,25.588533 h -14.4776" /></svg>
