<?xml version="1.0" encoding="UTF-8" standalone="no"?>
<svg
   xmlns:dc="http://purl.org/dc/elements/1.1/"
   xmlns:cc="http://creativecommons.org/ns#"
   xmlns:rdf="http://www.w3.org/1999/02/22-rdf-syntax-ns#"
   xmlns:svg="http://www.w3.org/2000/svg"
   xmlns="http://www.w3.org/2000/svg"
   viewBox="0 0 94.866669 132.66667"
   height="132.66667"
   width="94.866669"
   xml:space="preserve"
   id="svg2"
   version="1.1"><metadata
     id="metadata8"><rdf:RDF><cc:Work
         rdf:about=""><dc:format>image/svg+xml</dc:format><dc:type
           rdf:resource="http://purl.org/dc/dcmitype/StillImage" /></cc:Work></rdf:RDF></metadata><defs
     id="defs6" /><g
     transform="matrix(1.3333333,0,0,-1.3333333,0,132.66667)"
     id="g10"><g
       transform="scale(0.1)"
       id="g12"><path
         id="path14"
         style="fill:#ffffff;fill-opacity:1;fill-rule:nonzero;stroke:none"
         d="m 1.41797,1.41797 h 708.66 v 992.121 h -708.66 z" /><path
         id="path16"
         style="fill:none;stroke:#231f20;stroke-width:2.83500004;stroke-linecap:butt;stroke-linejoin:miter;stroke-miterlimit:4;stroke-dasharray:none;stroke-opacity:1"
         d="M 1.41797,1.41797 H 710.078 V 993.539 H 1.41797 V 1.41797" /><path
         id="path18"
         style="fill:#ee2c30;fill-opacity:1;fill-rule:nonzero;stroke:none"
         d="M 632.609,979.359 15.6016,98.2227 V 15.6055 H 78.8867 L 695.891,896.773 v 82.586 h -63.282" /><path
         id="path20"
         style="fill:#007f46;fill-opacity:1;fill-rule:nonzero;stroke:none"
         d="M 532.129,650.57 695.891,884.426 V 15.6055 H 87.5234 L 362.141,407.781 v 0 c 22.422,0.293 69.043,1.235 81.172,1.555 24.414,0.539 64.265,1.797 88.386,5.684 1.438,0.187 4.211,0.722 5.723,0.898 v -64.863 c 0,-1.446 0.176,-2.957 0.43,-4.395 0.175,-0.937 0.539,-2.019 1.152,-2.812 0.723,-1.004 2.051,-1.543 3.312,-1.907 1.043,-0.253 2.411,-0.359 3.457,-0.359 h 26.922 v 0 c 1.34,0 2.922,0.106 4.25,0.469 1.258,0.363 2.598,1.086 3.387,2.16 0.723,1.082 1.008,2.879 1.074,4.141 0.188,1.257 0.188,2.625 0.188,3.816 v 71.094 l 18.183,-0.11 v 0 c 0.711,0 3.203,0 3.914,0.188 1.7,0.469 3.094,1.543 4.114,2.988 1.152,1.731 1.582,3.953 1.687,5.977 0.071,1.984 -0.183,5.761 -0.359,7.738 -0.645,6.516 -0.793,13.211 -0.645,19.871 0.172,6.082 0.645,12.492 1.18,18.539 0.684,6.945 1.582,14.363 2.492,21.238 0.789,6.414 1.863,13.649 3.016,19.95 0.976,5.793 3.027,17.527 2.773,23.398 -0.359,7.668 -2.773,15.262 -6.511,22.027 -3.567,6.52 -8.458,12.207 -14.329,16.567 -4.285,3.168 -9.109,5.578 -14.082,7.308 -1.504,0.536 -3.672,1.258 -5.175,1.723 v 0 l -45.723,59.906 v 0" /><path
         id="path22"
         style="fill:#007f46;fill-opacity:1;fill-rule:nonzero;stroke:none"
         d="m 567.012,565.066 c -18.789,0.184 -34.305,-14.972 -34.239,-34.05 0.11,-18.504 14.903,-33.411 33.157,-33.59 18.613,-0.285 33.953,14.797 34.023,33.699 0.106,18.609 -14.582,33.762 -32.941,33.941 v 0" /><path
         id="path24"
         style="fill:#007f46;fill-opacity:1;fill-rule:nonzero;stroke:none"
         d="m 145.598,564.926 c -18.075,-0.071 -32.801,-14.977 -32.981,-33.332 -0.066,-18.434 14.438,-33.52 32.617,-33.774 18.614,-0.285 33.95,14.907 33.95,33.774 -0.071,18.605 -15.227,33.441 -33.586,33.332 v 0" /><path
         id="path26"
         style="fill:#007f46;fill-opacity:1;fill-rule:nonzero;stroke:none"
         d="M 226.344,411.563 15.6016,110.566 V 979.359 H 623.965 L 425.461,695.895 h -200.41 v 0 c -0.797,0 -3.457,0 -4.289,0 -1.871,-0.075 -4.067,-0.364 -5.758,-1.153 -1.371,-0.648 -2.594,-1.73 -3.672,-2.734 -0.902,-0.973 -1.766,-1.985 -2.59,-3.063 v 0 l -71.894,-97.484 v 0 c -1.153,-0.184 -2.77,-0.363 -3.817,-0.617 -5.976,-1.188 -11.769,-4.067 -16.777,-7.59 -7.02,-5.078 -13.066,-11.559 -16.9923,-19.336 -2.4844,-4.895 -4.1015,-10.293 -5.0039,-15.73 -0.789,-4.969 -0.9726,-10.118 -0.1797,-15.157 0.2891,-2.195 1.875,-8.066 2.4102,-10.222 2.668,-10.481 4.3557,-21.422 5.3667,-32.149 0.684,-8.246 1.227,-19.98 1.583,-28.187 0.289,-7.418 0.617,-18.004 0.179,-25.317 -0.07,-1.968 -0.179,-5.32 0.254,-7.117 0.359,-1.445 1.082,-2.922 2.051,-3.894 1.187,-1.184 2.519,-1.973 4.035,-2.266 0.609,-0.18 3.633,-0.07 4.281,-0.07 v 0 l 18.145,0.07 v -71.352 c 0,-0.464 0,-3.882 0,-4.246 0.18,-1.551 0.543,-3.347 1.515,-4.543 1.004,-1.148 2.52,-1.797 3.918,-2.05 0.469,-0.106 2.774,-0.106 3.204,-0.106 h 25.312 v 0 c 0.465,0 4.391,0 4.82,0.106 1.266,0.363 2.414,0.98 3.278,1.984 1.011,1.152 1.547,2.883 1.726,4.504 v 66.054 l 5.871,-0.285 v 0 c 13.106,-0.722 28.731,-1.59 44.317,-2.382 v 0" /><path
         id="path28"
         style="fill:#007f46;fill-opacity:1;fill-rule:nonzero;stroke:none"
         d="m 257.125,455.523 34.52,49.282 v 26.605 h -62.707 l -4.176,0.184 v 0 c -1.801,0 -4.289,-0.11 -5.871,-0.727 -1.692,-0.535 -3.133,-1.617 -4.286,-2.879 -0.718,-0.824 -1.617,-2.375 -2.16,-3.277 v 0 l -30.273,-52.305 v 0 c -0.902,-1.511 -1.332,-3.347 -1.621,-5.148 -0.254,-2.879 0.539,-5.758 2.519,-7.957 2.125,-2.41 5.508,-3.488 8.711,-3.778 0.543,0 3.313,0 3.746,0 h 61.598 v 0" /><path
         id="path30"
         style="fill:#007f46;fill-opacity:1;fill-rule:nonzero;stroke:none"
         d="m 298.848,515.102 11.41,16.308 h -11.41 v -16.308" /><path
         id="path32"
         style="fill:#007f46;fill-opacity:1;fill-rule:nonzero;stroke:none"
         d="m 448.711,531.41 -26.563,-37.941 v -37.946 h 96.125 v 0 c 0.711,0 5.36,0 5.965,0.106 3.028,0.723 5.625,2.414 7.239,5.148 1.406,2.411 1.765,5.399 0.976,8.207 -0.363,1.371 -0.976,2.7 -1.691,3.961 v 0 l -29.844,50.688 v 0 c -0.359,0.648 -1.512,2.519 -1.98,3.168 -0.977,1.367 -2.305,2.629 -3.821,3.351 -1.797,0.899 -4.355,1.153 -6.336,1.258 -1.504,0 -3.918,0 -5.508,0 h -34.562 v 0" /><path
         id="path34"
         style="fill:#007f46;fill-opacity:1;fill-rule:nonzero;stroke:none"
         d="m 521.223,634.98 -29.739,-42.441 59.473,-4.789 v 0 c 1.438,0 3.848,0.105 5.254,0.105 v 0 l -34.988,47.125 v 0" /><path
         id="path36"
         style="fill:#007f46;fill-opacity:1;fill-rule:nonzero;stroke:none"
         d="m 414.121,482.016 -18.543,-26.493 h 18.543 v 26.493" /><path
         id="path38"
         style="fill:#007f46;fill-opacity:1;fill-rule:nonzero;stroke:none"
         d="m 356.664,597.652 55.621,79.453 h -179.57 v 0 c -1.332,0 -2.735,0 -4.067,-0.113 -1.515,-0.066 -3.312,-0.355 -4.75,-0.898 -1.515,-0.543 -2.847,-1.442 -3.894,-2.594 -0.645,-0.574 -1.438,-1.652 -1.867,-2.266 v 0 L 156.645,589.73 v 0 c 1.695,0.11 3.492,0.184 5.187,0.36 v 0 l 89.531,5.867 v 0 c 24.657,1.078 70.633,1.481 95.399,1.656 3.097,0.039 6.406,0.039 9.902,0.039 v 0" /></g></g></svg>