<?xml version="1.0" encoding="UTF-8" standalone="no"?>
<svg
   viewBox="0 0 66.519999 66.519997"
   height="66.519997"
   width="66.519997"
   xml:space="preserve"
   id="svg2"
   version="1.1"
   sodipodi:docname="CH_4.59.1.svg"
   inkscape:version="1.2.2 (b0a8486541, 2022-12-01)"
   xmlns:inkscape="http://www.inkscape.org/namespaces/inkscape"
   xmlns:sodipodi="http://sodipodi.sourceforge.net/DTD/sodipodi-0.dtd"
   xmlns="http://www.w3.org/2000/svg"
   xmlns:svg="http://www.w3.org/2000/svg"
   xmlns:rdf="http://www.w3.org/1999/02/22-rdf-syntax-ns#"
   xmlns:cc="http://creativecommons.org/ns#"
   xmlns:dc="http://purl.org/dc/elements/1.1/"><sodipodi:namedview
     id="namedview16"
     pagecolor="#505050"
     bordercolor="#eeeeee"
     borderopacity="1"
     inkscape:showpageshadow="0"
     inkscape:pageopacity="0"
     inkscape:pagecheckerboard="0"
     inkscape:deskcolor="#505050"
     showgrid="false"
     inkscape:zoom="9.7245953"
     inkscape:cx="66.378084"
     inkscape:cy="33.21475"
     inkscape:window-width="1920"
     inkscape:window-height="1128"
     inkscape:window-x="3840"
     inkscape:window-y="0"
     inkscape:window-maximized="1"
     inkscape:current-layer="svg2" /><metadata
     id="metadata8"><rdf:RDF><cc:Work
         rdf:about=""><dc:format>image/svg+xml</dc:format><dc:type
           rdf:resource="http://purl.org/dc/dcmitype/StillImage" /></cc:Work></rdf:RDF></metadata><defs
     id="defs6" /><path
     id="path22"
     style="fill:#231f20;fill-opacity:1;fill-rule:nonzero;stroke:none;stroke-width:0.133333"
     d="M 37.984379,49.796201 H 28.535445 V 39.204468 c 0,-4.730667 -2.358799,-9.1484 -6.287466,-11.779066 v 0 l -1.370267,-0.9188 -1.915733,5.2916 -0.131733,0.2376 -0.186934,0.1896 -0.2308,0.1276 -0.264,0.0572 h -0.151066 l -0.1464,-0.02387 -0.139067,-0.04587 -0.131733,-0.0672 -0.1208,-0.08853 -0.102667,-0.106267 -0.08853,-0.119333 -0.06973,-0.136933 -5.736533,-13.7948 -0.05987,-0.228667 -0.0025,-0.230666 0.05107,-0.225067 0.102533,-0.2088 0.156267,-0.1724 0.1896,-0.129733 0.213467,-0.08227 0.2308,-0.026 15.186399,0.026 0.214667,0.0292 0.1916,0.08173 0.1656,0.1292 0.127066,0.1708 0.05533,0.119867 0.03373,0.124933 0.01147,0.127067 -0.0067,0.1276 -0.03133,0.124 -0.05053,0.1208 -0.0692,0.107333 -0.08707,0.1036 -4.136933,3.712533 4.195333,2.753067 v 0 c 3.1964,2.097467 5.1188,5.661467 5.1188,9.479733 0,-3.825466 1.929066,-7.392133 5.128533,-9.486933 v 0 l 4.183333,-2.745867 -4.138,-3.712533 -0.08587,-0.1036 -0.06987,-0.107333 -0.05053,-0.1208 -0.02853,-0.124 -0.01,-0.1276 0.01253,-0.127067 0.03333,-0.124933 0.05787,-0.119867 0.124933,-0.1708 0.165067,-0.1292 0.1948,-0.08173 0.210933,-0.0292 15.187066,-0.026 0.230134,0.026 0.213599,0.08227 0.190134,0.129733 0.155733,0.1724 0.1036,0.2088 0.05,0.225067 -0.0027,0.230666 -0.05987,0.228667 -5.7328,13.7948 -0.06973,0.136933 -0.08907,0.119333 -0.105733,0.106267 -0.119867,0.08853 -0.132267,0.0672 -0.139066,0.04587 -0.146267,0.02387 h -0.151067 l -0.264133,-0.0572 -0.230133,-0.1276 -0.1876,-0.1896 -0.132267,-0.2376 -1.914533,-5.2916 -1.380267,0.925466 v 0 c -3.9192,2.624 -6.278666,7.041733 -6.278666,11.7724 v 10.591733" /></svg>
