<?xml version="1.0" encoding="UTF-8" standalone="no"?>
<svg
   xmlns:dc="http://purl.org/dc/elements/1.1/"
   xmlns:cc="http://creativecommons.org/ns#"
   xmlns:rdf="http://www.w3.org/1999/02/22-rdf-syntax-ns#"
   xmlns:svg="http://www.w3.org/2000/svg"
   xmlns="http://www.w3.org/2000/svg"
   viewBox="0 0 94.866669 94.866669"
   height="94.866669"
   width="94.866669"
   xml:space="preserve"
   id="svg2"
   version="1.1"><metadata
     id="metadata8"><rdf:RDF><cc:Work
         rdf:about=""><dc:format>image/svg+xml</dc:format><dc:type
           rdf:resource="http://purl.org/dc/dcmitype/StillImage" /></cc:Work></rdf:RDF></metadata><defs
     id="defs6" /><g
     transform="matrix(1.3333333,0,0,-1.3333333,0,94.866667)"
     id="g10"><g
       transform="scale(0.1)"
       id="g12"><path
         id="path14"
         style="fill:#ffffff;fill-opacity:1;fill-rule:nonzero;stroke:none"
         d="m 1.41797,1.41797 h 708.66 v 708.656 h -708.66 z" /><path
         id="path16"
         style="fill:none;stroke:#231f20;stroke-width:2.83500004;stroke-linecap:butt;stroke-linejoin:miter;stroke-miterlimit:4;stroke-dasharray:none;stroke-opacity:1"
         d="M 1.41797,1.41797 H 710.078 V 710.074 H 1.41797 V 1.41797" /><path
         id="path18"
         style="fill:#1a67bb;fill-opacity:1;fill-rule:nonzero;stroke:none"
         d="M 15.6016,695.891 H 695.891 V 15.5977 H 15.6016 V 695.891" /><path
         id="path20"
         style="fill:#ffffff;fill-opacity:1;fill-rule:nonzero;stroke:none"
         d="M 86.4453,529.746 283.98,632.133 646.281,527.844 V 483.305 L 283.98,586.625 86.4453,483.305 v 46.441" /><path
         id="path22"
         style="fill:#ffffff;fill-opacity:1;fill-rule:nonzero;stroke:none"
         d="m 310.402,100.625 h -68.039 v 382.68 h 191.7 v 0 c 15.8,0 32.98,-6.153 43.312,-19.867 13.711,-17.821 13.027,-34.997 13.027,-34.997 v -128.23 c 0,-8.93 -2.734,-28.109 -16.484,-41.832 -12.355,-12.344 -25.422,-17.168 -39.855,-17.168 H 310.402 V 100.625" /><path
         id="path24"
         style="fill:#1a67bb;fill-opacity:1;fill-rule:nonzero;stroke:none"
         d="m 310.227,300.07 v 122.758 h 97.558 v 0 c 4.141,0 8.926,0 11.699,-2.734 2.735,-2.735 3.418,-5.477 3.418,-11.664 v -93.961 c 0,-4.789 -1.367,-8.926 -4.101,-10.981 -2.774,-2.738 -5.508,-3.418 -10.332,-3.418 h -98.242 v 0" /></g></g></svg>