<?xml version="1.0" encoding="UTF-8" standalone="no"?>
<svg
   viewBox="0 0 94.866669 132.66667"
   height="132.66667"
   width="94.866669"
   xml:space="preserve"
   id="svg2"
   version="1.1"
   sodipodi:docname="CH_4.10.svg"
   inkscape:version="1.2.2 (b0a8486541, 2022-12-01)"
   xmlns:inkscape="http://www.inkscape.org/namespaces/inkscape"
   xmlns:sodipodi="http://sodipodi.sourceforge.net/DTD/sodipodi-0.dtd"
   xmlns="http://www.w3.org/2000/svg"
   xmlns:svg="http://www.w3.org/2000/svg"
   xmlns:rdf="http://www.w3.org/1999/02/22-rdf-syntax-ns#"
   xmlns:cc="http://creativecommons.org/ns#"
   xmlns:dc="http://purl.org/dc/elements/1.1/"><sodipodi:namedview
     id="namedview12099"
     pagecolor="#505050"
     bordercolor="#eeeeee"
     borderopacity="1"
     inkscape:showpageshadow="0"
     inkscape:pageopacity="0"
     inkscape:pagecheckerboard="0"
     inkscape:deskcolor="#505050"
     showgrid="false"
     inkscape:zoom="6.7989947"
     inkscape:cx="47.433483"
     inkscape:cy="78.099781"
     inkscape:window-width="1920"
     inkscape:window-height="1048"
     inkscape:window-x="1920"
     inkscape:window-y="0"
     inkscape:window-maximized="1"
     inkscape:current-layer="svg2" /><metadata
     id="metadata8"><rdf:RDF><cc:Work
         rdf:about=""><dc:format>image/svg+xml</dc:format><dc:type
           rdf:resource="http://purl.org/dc/dcmitype/StillImage" /></cc:Work></rdf:RDF></metadata><defs
     id="defs6" /><path
     id="path14"
     style="fill:#ffffff;fill-opacity:1;fill-rule:nonzero;stroke:none;stroke-width:0.133333"
     d="M 0.18906266,132.47761 H 94.67706 V 0.19481065 H 0.18906266 Z" /><path
     id="path16"
     style="fill:none;stroke:#231f20;stroke-width:0.378;stroke-linecap:butt;stroke-linejoin:miter;stroke-miterlimit:4;stroke-dasharray:none;stroke-opacity:1"
     d="M 0.18906266,132.47761 H 94.677064 V 0.19480665 H 0.18906266 V 132.47761" /><path
     id="path18"
     style="fill:#1a67bb;fill-opacity:1;fill-rule:nonzero;stroke:none;stroke-width:0.133333"
     d="M 2.0802133,130.58594 H 92.785411 V 2.0854066 H 2.0802133 Z" /><path
     id="path20"
     style="fill:#ffffff;fill-opacity:1;fill-rule:nonzero;stroke:none;stroke-width:0.133333"
     d="M 14.3636,80.507871 H 80.502665 V 14.368806 H 14.3636 Z" /><path
     id="path32"
     style="fill:#231f20;fill-opacity:1;fill-rule:nonzero;stroke:none;stroke-width:0.133333"
     d="m 25.014533,43.495339 h 5.073466 v 0 c -0.254666,-0.484933 -0.633333,-0.849467 -0.888,-1.339067 -0.888,-1.339066 -1.397333,-2.923466 -1.651066,-4.507333 -0.25,-1.583867 0,-3.168667 0.5084,-4.632267 0.762933,-1.948933 2.030666,-3.657333 3.806666,-4.996399 2.0308,-1.464534 4.310533,-2.439067 6.719867,-3.0484 2.918266,-0.729734 6.0912,-0.974534 9.134399,-0.974534 2.2844,0.125067 4.564534,0.369867 6.849467,0.8548 2.030133,0.489467 3.9312,1.098934 5.707333,2.073334 1.6468,0.974 3.1728,2.193866 4.310933,3.652666 1.017067,1.339067 1.776,2.928667 2.030134,4.632267 0.128666,1.7036 -0.124934,3.412533 -0.6344,4.996933 -0.2536,0.7296 -0.6328,1.339067 -1.011467,1.948933 -0.2552,0.364534 -0.634267,0.974 -1.018133,1.339067 h 4.693733 v 2.318267 h -7.737067 v 0 c -0.5088,0.364533 -1.012933,0.605199 -1.521866,0.849999 -1.142133,0.609334 -2.918133,1.098934 -4.1848,1.463467 -2.1552,0.484933 -4.440133,0.729733 -6.595333,0.854667 -2.031333,0.119866 -3.931733,0 -5.962,-0.124934 -2.0308,-0.2448 -3.9312,-0.609466 -5.836933,-1.219333 -1.2672,-0.364533 -2.913067,-0.85 -3.931333,-1.823866 h -7.862 v -2.318267" /><path
     id="path34"
     style="fill:#231f20;fill-opacity:1;fill-rule:nonzero;stroke:none;stroke-width:0.133333"
     d="m 63.855732,57.377072 c -0.1292,0 -0.2932,-0.120267 -0.288,-0.394267 v 0 l 0.0052,-1.909866 H 62.559865 V 53.853605 H 49.364532 v 0 c -0.378533,0.854267 -1.396267,1.343734 -2.284267,1.219334 -0.888133,-0.120267 -1.522399,-0.609867 -1.901066,-1.219334 H 31.354666 v 1.219334 h -1.012 v 1.7088 c 0,0.2396 0,0.4844 -0.124933,0.604266 -0.129734,0.124934 -0.254667,0.124934 -0.509334,0.124934 h -1.7756 v 0 c -0.124933,0 -0.3792,0 -0.5088,-0.124934 -0.125066,-0.119866 -0.125066,-0.364666 -0.125066,-0.604266 v -3.168134 c -0.508267,0 -0.888,-0.369333 -0.888,-0.8548 0,-0.609333 0.379733,-0.9744 0.888,-0.9744 v -3.532266 c 0,-0.125067 0,-0.2448 0,-0.2448 0,-0.2448 0,-0.364667 0.125066,-0.485467 0.1296,-0.124 0.5088,-0.124 0.762934,-0.124 h 1.267733 v 0 c 0.253733,0 0.633333,0 0.763067,0.124 0.124933,0.1208 0.124933,0.240667 0.124933,0.3656 0,0.119867 0,0.2396 0,0.364667 v 2.313466 c 0.124,0 0.763067,0 0.763067,0 0.248933,0 0.248933,0 0.248933,0.2448 v 0.974 h 13.824533 v 0 c 0.378667,-0.7292 1.266667,-1.339066 2.154666,-1.339066 1.017734,0 1.777067,0.609866 2.155734,1.459333 h 13.070266 v -1.339067 h 1.013067 v -2.068666 c 0,-0.125067 0,-0.609467 0.6328,-0.609467 h 1.5224 v 0 c 0.633866,0 0.633866,0.4844 0.633866,0.7292 v 3.5328 c 0.507734,0 0.888,0.364533 0.888,0.854133 0,0.485467 -0.380266,0.85 -0.888,0.85 v 2.8032 c 0,0.124934 0,0.2448 0,0.364534 0,0.125066 0,0.364666 -0.380266,0.364666 v 0 l -2.126,-0.0089 v 0" /><path
     id="path36"
     style="fill:#231f20;fill-opacity:1;fill-rule:nonzero;stroke:none;stroke-width:0.133333"
     d="m 68.013065,71.272938 c -1.138,0.240134 -2.279733,0.364534 -3.167733,0.484934 -3.427067,0.2448 -6.3412,0.2448 -10.2776,-0.61 -0.757867,-0.119734 -4.184933,-0.85 -4.943733,-0.973867 -1.776134,-0.2448 -3.552667,-0.2448 -5.328133,0 -1.396934,0.2448 -2.788534,0.4896 -4.186,0.734267 -1.012,0.2396 -3.042667,0.6048 -4.0604,0.7292 -1.6464,0.2448 -3.4224,0.2448 -5.1984,0.1204 -1.3964,0 -2.788533,-0.2448 -4.0604,-0.484934 -1.267733,-0.2448 -2.41,-0.609333 -3.422933,-0.854133 v -1.949467 c 0.888,0.3656 2.284933,0.7296 3.172933,0.9744 1.2672,0.2448 2.409867,0.364534 3.677067,0.485467 1.396266,0.123867 2.789066,0.123867 4.185333,0.123867 1.266666,-0.123867 2.789066,-0.2448 4.055733,-0.609334 2.539067,-0.729733 5.074,-1.2192 7.738133,-1.2192 1.3968,0 2.792667,0 4.185867,0.2448 1.0172,0.1208 2.283866,0.3656 3.296933,0.6104 2.664,0.6088 5.837467,1.094267 8.501466,1.094267 1.645867,0 3.296934,-0.120933 4.8188,-0.365733 1.5208,-0.364534 3.0432,-0.609334 4.565067,-1.094267 v 1.824533 c -1.012933,0.2448 -2.2796,0.4896 -3.552,0.7344 v 0" /><path
     id="path38"
     style="fill:#231f20;fill-opacity:1;fill-rule:nonzero;stroke:none;stroke-width:0.133333"
     d="m 67.945332,67.716138 c -1.138,0.2396 -2.279734,0.364534 -3.167734,0.4844 -3.427066,0.2448 -6.341199,0.2448 -10.277599,-0.609333 -0.757867,-0.119867 -4.184934,-0.8496 -4.943734,-0.974533 -1.7756,-0.2448 -3.551599,-0.2448 -5.327599,0 -1.3964,0.2448 -2.788534,0.4896 -4.185467,0.7344 -1.012933,0.240133 -3.0432,0.604666 -4.060933,0.7296 -1.646267,0.2448 -3.4224,0.2448 -5.1984,0.119866 -1.396933,0 -2.789067,-0.2448 -4.0604,-0.4844 -1.267733,-0.2448 -2.4104,-0.609866 -3.4224,-0.854666 v -1.9484 c 0.888,0.364 2.2844,0.7296 3.1724,0.9744 1.267733,0.2448 2.409333,0.364666 3.677067,0.4844 1.3964,0.125066 2.788533,0.125066 4.185466,0.125066 1.267067,-0.125066 2.788533,-0.2448 4.056133,-0.609466 2.539067,-0.7296 5.073467,-1.2192 7.7376,-1.2192 1.396267,0 2.793733,0 4.185333,0.2448 1.0172,0.1192 2.285467,0.364 3.296934,0.6088 2.664,0.6104 5.837466,1.0948 8.501599,1.0948 1.6468,0 3.297867,-0.119734 4.818667,-0.364534 1.5224,-0.364666 3.0432,-0.609466 4.565067,-1.094266 v 1.823866 c -1.012934,0.2448 -2.2796,0.4896 -3.552,0.7344 v 0" /></svg>
