<?xml version="1.0" encoding="UTF-8" standalone="no"?>
<svg
   xmlns:dc="http://purl.org/dc/elements/1.1/"
   xmlns:cc="http://creativecommons.org/ns#"
   xmlns:rdf="http://www.w3.org/1999/02/22-rdf-syntax-ns#"
   xmlns:svg="http://www.w3.org/2000/svg"
   xmlns="http://www.w3.org/2000/svg"
   xmlns:sodipodi="http://sodipodi.sourceforge.net/DTD/sodipodi-0.dtd"
   xmlns:inkscape="http://www.inkscape.org/namespaces/inkscape"
   viewBox="0 0 94.866669 132.66667"
   height="132.66667"
   width="94.866669"
   xml:space="preserve"
   id="svg2"
   version="1.1"
   sodipodi:docname="CH-Hinweissignal-Feuerlöscher.svg"
   inkscape:version="0.92.1 r15371"><sodipodi:namedview
     pagecolor="#ffffff"
     bordercolor="#666666"
     borderopacity="1"
     objecttolerance="10"
     gridtolerance="10"
     guidetolerance="10"
     inkscape:pageopacity="0"
     inkscape:pageshadow="2"
     inkscape:window-width="811"
     inkscape:window-height="665"
     id="namedview13"
     showgrid="false"
     inkscape:pagecheckerboard="true"
     inkscape:zoom="1.7788944"
     inkscape:cx="15.787163"
     inkscape:cy="80.584124"
     inkscape:window-x="1116"
     inkscape:window-y="307"
     inkscape:window-maximized="0"
     inkscape:current-layer="svg2" /><metadata
     id="metadata8"><rdf:RDF><cc:Work
         rdf:about=""><dc:format>image/svg+xml</dc:format><dc:type
           rdf:resource="http://purl.org/dc/dcmitype/StillImage" /><dc:title></dc:title></cc:Work></rdf:RDF></metadata><defs
     id="defs6" /><g
     transform="matrix(1.3333333,0,0,-1.3333333,0,132.66667)"
     id="g10"><g
       transform="scale(0.1)"
       id="g12"><path
         id="path14"
         style="fill:#ffffff;fill-opacity:1;fill-rule:nonzero;stroke:none"
         d="m 1.41797,1.41797 h 708.66 v 992.164 h -708.66 z" /><path
         id="path16"
         style="fill:none;stroke:#231f20;stroke-width:2.83500004;stroke-linecap:butt;stroke-linejoin:miter;stroke-miterlimit:4;stroke-dasharray:none;stroke-opacity:1"
         d="M 1.41797,1.41797 H 710.078 V 993.582 H 1.41797 V 1.41797" /><path
         id="path18"
         style="fill:#1a67bb;fill-opacity:1;fill-rule:nonzero;stroke:none"
         d="m 15.6016,15.6055 h 680.289 v 963.789 H 15.6016 Z" /><path
         id="path20"
         style="fill:#ffffff;fill-opacity:1;fill-rule:nonzero;stroke:none"
         d="M 107.727,391.191 H 603.77 V 887.238 H 107.727 Z" /><path
         id="path24"
         style="fill:#ffffff;fill-opacity:1;fill-rule:nonzero;stroke:none"
         d="m 376.75,516.148 v 100.836 h 67 V 516.148 h -67 v 0" /></g></g><path
     inkscape:connector-curvature="0"
     d="m 42.635074,21.899113 v 2.803579 h 2.862572 l -0.06343,6.910857 v 0 c -1.975965,0.864383 -3.359235,2.838041 -3.359235,5.143016 v 31.414501 c 0,3.096094 2.501707,5.607159 5.589888,5.607159 3.087233,0 5.590023,-2.511065 5.590023,-5.607159 v 0 l 0.0184,-31.384924 v 0 c 0,-2.305382 -1.401124,-4.352169 -3.378712,-5.211803 v 0 l 0.0053,-6.876395 h 1.679076 l 2.011402,3.814762 h 4.022263 l -4.022263,-6.618342 -10.955249,0.0048 v 0 M 40.51117,23.30093 28.21174,19.935522 v 6.73068 L 40.51117,23.30093"
     style="fill:#ee2c30;fill-opacity:1;fill-rule:nonzero;stroke:none;stroke-width:0.13546547"
     id="path18-7" /></svg>