<?xml version="1.0" encoding="UTF-8" standalone="no"?>
<svg
   xmlns:dc="http://purl.org/dc/elements/1.1/"
   xmlns:cc="http://creativecommons.org/ns#"
   xmlns:rdf="http://www.w3.org/1999/02/22-rdf-syntax-ns#"
   xmlns:svg="http://www.w3.org/2000/svg"
   xmlns="http://www.w3.org/2000/svg"
   viewBox="0 0 94.866669 132.66667"
   height="132.66667"
   width="94.866669"
   xml:space="preserve"
   id="svg2"
   version="1.1"><metadata
     id="metadata8"><rdf:RDF><cc:Work
         rdf:about=""><dc:format>image/svg+xml</dc:format><dc:type
           rdf:resource="http://purl.org/dc/dcmitype/StillImage" /></cc:Work></rdf:RDF></metadata><defs
     id="defs6" /><g
     transform="matrix(1.3333333,0,0,-1.3333333,0,132.66667)"
     id="g10"><g
       transform="scale(0.1)"
       id="g12"><path
         id="path14"
         style="fill:#ffffff;fill-opacity:1;fill-rule:nonzero;stroke:none"
         d="m 1.41797,1.41797 h 708.66 v 992.164 h -708.66 z" /><path
         id="path16"
         style="fill:none;stroke:#231f20;stroke-width:2.83500004;stroke-linecap:butt;stroke-linejoin:miter;stroke-miterlimit:4;stroke-dasharray:none;stroke-opacity:1"
         d="M 1.41797,1.41797 H 710.078 V 993.582 H 1.41797 V 1.41797" /><path
         id="path18"
         style="fill:#1a67bb;fill-opacity:1;fill-rule:nonzero;stroke:none"
         d="m 15.6016,15.6055 h 680.289 v 963.789 H 15.6016 Z" /><path
         id="path20"
         style="fill:#ffffff;fill-opacity:1;fill-rule:nonzero;stroke:none"
         d="M 107.727,391.191 H 603.77 V 887.238 H 107.727 Z" /><path
         id="path22"
         style="fill:#231f20;fill-opacity:1;fill-rule:nonzero;stroke:none"
         d="m 270.695,800.441 64.618,37.188 h 42.226 l 63.223,-35.781 V 786.402 H 370.488 V 761.27 h 70.274 v -13.821 l -63.223,-36.687 v -77.758 c 0,-0.758 0.254,-2.375 0.402,-3.277 0.215,-1.368 0.614,-3.129 1.219,-4.391 0.656,-1.258 1.77,-2.375 2.774,-3.273 1.261,-1.122 2.773,-2.125 4.289,-2.629 0.75,-0.254 2.011,-0.508 2.879,-0.614 V 440.801 H 324.625 V 618.82 c 0.504,0.106 1.367,0.106 1.871,0.254 1.152,0.254 2.156,0.719 3.168,1.367 0.758,0.5 1.512,1.258 2.121,2.016 0.613,0.609 1.117,1.512 1.625,2.266 0.754,1.48 1.653,3.242 1.762,5.004 0.141,0.648 0.141,1.656 0.141,2.273 v 78.762 l -64.618,36.543 v 13.965 h 71.137 v 25.132 h -71.137 v 14.039" /></g></g></svg>