<?xml version="1.0" encoding="UTF-8" standalone="no"?>
<svg
   xmlns:dc="http://purl.org/dc/elements/1.1/"
   xmlns:cc="http://creativecommons.org/ns#"
   xmlns:rdf="http://www.w3.org/1999/02/22-rdf-syntax-ns#"
   xmlns:svg="http://www.w3.org/2000/svg"
   xmlns="http://www.w3.org/2000/svg"
   viewBox="0 0 94.866669 132.66667"
   height="132.66667"
   width="94.866669"
   xml:space="preserve"
   id="svg2"
   version="1.1"><metadata
     id="metadata8"><rdf:RDF><cc:Work
         rdf:about=""><dc:format>image/svg+xml</dc:format><dc:type
           rdf:resource="http://purl.org/dc/dcmitype/StillImage" /></cc:Work></rdf:RDF></metadata><defs
     id="defs6" /><g
     transform="matrix(1.3333333,0,0,-1.3333333,0,132.66667)"
     id="g10"><g
       transform="scale(0.1)"
       id="g12"><path
         id="path14"
         style="fill:#ffffff;fill-opacity:1;fill-rule:nonzero;stroke:none"
         d="m 1.41797,1.41797 h 708.66 v 992.164 h -708.66 z" /><path
         id="path16"
         style="fill:none;stroke:#231f20;stroke-width:2.83500004;stroke-linecap:butt;stroke-linejoin:miter;stroke-miterlimit:4;stroke-dasharray:none;stroke-opacity:1"
         d="M 1.41797,1.41797 H 710.078 V 993.582 H 1.41797 V 1.41797" /><path
         id="path18"
         style="fill:#1a67bb;fill-opacity:1;fill-rule:nonzero;stroke:none"
         d="m 15.6016,15.6055 h 680.289 v 963.789 H 15.6016 Z" /><path
         id="path20"
         style="fill:#ffffff;fill-opacity:1;fill-rule:nonzero;stroke:none"
         d="M 107.727,391.191 H 603.77 V 887.238 H 107.727 Z" /><path
         id="path22"
         style="fill:#231f20;fill-opacity:1;fill-rule:nonzero;stroke:none"
         d="M 554.16,568.672 H 157.297 v 0 c 0,-0.504 0,-1.004 0,-1.004 0.5,-4.539 1.043,-9.074 3.058,-13.074 2.02,-5.039 5.579,-9.574 9.649,-13.098 4.57,-4.035 10.656,-7.062 17.242,-8.066 2.016,-0.504 4.067,-0.504 5.582,-0.504 h 330.375 v 0 c 4.063,0.504 7.629,2.015 11.152,3.527 5.586,3.527 10.665,7.563 14.219,13.102 3.567,5.039 5.586,11.05 5.586,17.101 0,0.504 0,1.512 0,2.016 v 0" /><path
         id="path24"
         style="fill:#231f20;fill-opacity:1;fill-rule:nonzero;stroke:none"
         d="m 206.039,731.32 c 0,-1.007 0,-2.019 0,-3.023 0,-7.559 1.008,-15.625 2.02,-23.688 1.546,-11.558 4.57,-23.652 8.636,-34.738 3.563,-10.078 8.102,-19.117 13.18,-28.191 4.066,-7.055 8.637,-14.11 13.715,-20.664 6.586,-8.059 13.207,-15.586 20.805,-22.641 6.085,-5.547 12.168,-10.586 18.793,-15.121 0.503,-0.504 1.007,-1.008 1.511,-1.516 h 142.598 v 0 c 1.512,1.012 3.562,2.016 4.57,3.028 5.078,3.527 11.16,9.074 15.223,13.101 3.535,3.531 8.613,8.535 12.168,12.059 4.582,5.039 9.152,11.09 12.715,17.14 0.5,0.504 1.007,2.016 1.515,3.024 v 0 l 61.414,33.73 v 0 c 1.008,0.508 2.52,1.512 3.528,2.016 3.054,2.519 6.082,5.547 8.64,8.57 3.02,4.535 4.571,9.574 5.578,14.614 0.508,5.546 0.508,10.585 -1.007,15.589 -1.551,5.039 -4.071,9.575 -7.637,13.102 -2.52,3.531 -5.574,6.551 -9.649,8.57 -4.031,2.52 -9.101,4.535 -14.179,4.535 -1.004,0.504 -2.559,0.504 -4.071,0.504 H 206.039 v 0" /><path
         id="path26"
         style="fill:#ffffff;fill-opacity:1;fill-rule:nonzero;stroke:none"
         d="m 502.395,716.203 c 0,-1.012 0,-2.019 0,-3.027 0,-4.031 -1.008,-8.567 -1.516,-12.598 -0.508,-5.543 -2.012,-12.098 -3.055,-17.644 -1.515,-5.039 -3.539,-10.547 -5.586,-16.086 v 0 l -4.531,-11.09 v 0 c 0,-1.012 -0.547,-2.016 -0.547,-3.028 v 0 l 39.102,23.692 v 0 l 3.562,1.976 c 2.52,2.02 4.531,4.536 5.578,7.563 1.512,3.527 2.02,7.559 1.512,11.086 0,3.531 -1.512,7.055 -3.562,10.082 -2.012,2.519 -4.571,5.039 -7.598,6.555 -2.551,1.004 -5.078,1.507 -8.137,2.011 0,0 -2.012,0.508 -2.519,0.508 h -12.703 v 0" /></g></g></svg>