<?xml version="1.0" encoding="UTF-8" standalone="no"?>
<svg
   xmlns:dc="http://purl.org/dc/elements/1.1/"
   xmlns:cc="http://creativecommons.org/ns#"
   xmlns:rdf="http://www.w3.org/1999/02/22-rdf-syntax-ns#"
   xmlns:svg="http://www.w3.org/2000/svg"
   xmlns="http://www.w3.org/2000/svg"
   viewBox="0 0 94.866669 132.66667"
   height="132.66667"
   width="94.866669"
   xml:space="preserve"
   id="svg2"
   version="1.1"><metadata
     id="metadata8"><rdf:RDF><cc:Work
         rdf:about=""><dc:format>image/svg+xml</dc:format><dc:type
           rdf:resource="http://purl.org/dc/dcmitype/StillImage" /></cc:Work></rdf:RDF></metadata><defs
     id="defs6" /><g
     transform="matrix(1.3333333,0,0,-1.3333333,0,132.66667)"
     id="g10"><g
       transform="scale(0.1)"
       id="g12"><path
         id="path14"
         style="fill:#ffffff;fill-opacity:1;fill-rule:nonzero;stroke:none"
         d="m 1.41797,1.41797 h 708.66 v 992.121 h -708.66 z" /><path
         id="path16"
         style="fill:none;stroke:#231f20;stroke-width:2.83500004;stroke-linecap:butt;stroke-linejoin:miter;stroke-miterlimit:4;stroke-dasharray:none;stroke-opacity:1"
         d="M 1.41797,1.41797 H 710.078 V 993.539 H 1.41797 V 1.41797" /><path
         id="path18"
         style="fill:#1a67bb;fill-opacity:1;fill-rule:nonzero;stroke:none"
         d="m 15.6016,15.6055 h 680.289 v 963.754 H 15.6016 Z" /><path
         id="path20"
         style="fill:#ffffff;fill-opacity:1;fill-rule:nonzero;stroke:none"
         d="M 107.727,391.191 H 603.77 V 887.234 H 107.727 Z" /><path
         id="path22"
         style="fill:#231f20;fill-opacity:1;fill-rule:nonzero;stroke:none"
         d="m 178.57,504.555 v 204.734 l 93.278,92.914 h 171.543 l 89.531,-91.406 V 504.555 H 178.57 v 0" /><path
         id="path24"
         style="fill:#ffffff;fill-opacity:1;fill-rule:nonzero;stroke:none"
         d="m 249.961,516.617 h -60.195 v 35.492 h 60.195 v -35.492" /><path
         id="path26"
         style="fill:#ffffff;fill-opacity:1;fill-rule:nonzero;stroke:none"
         d="m 249.961,565 h -60.195 v 35.492 h 60.195 V 565" /><path
         id="path28"
         style="fill:#ffffff;fill-opacity:1;fill-rule:nonzero;stroke:none"
         d="M 522.375,516.617 H 462.18 v 35.492 h 60.195 v -35.492" /><path
         id="path30"
         style="fill:#ffffff;fill-opacity:1;fill-rule:nonzero;stroke:none"
         d="M 522.375,565 H 462.18 v 35.492 h 60.195 V 565" /><path
         id="path32"
         style="fill:#ffffff;fill-opacity:1;fill-rule:nonzero;stroke:none"
         d="M 522.375,611.797 H 462.18 v 36.254 h 60.195 v -36.254" /><path
         id="path34"
         style="fill:#ffffff;fill-opacity:1;fill-rule:nonzero;stroke:none"
         d="m 249.961,611.797 h -60.195 v 36.254 h 60.195 v -36.254" /><path
         id="path36"
         style="fill:#ffffff;fill-opacity:1;fill-rule:nonzero;stroke:none"
         d="m 253.305,660.18 c 0.617,2.125 1.3,4.25 1.945,6.34 v 0 l -65.484,28.437 V 660.18 h 63.539 v 0" /><path
         id="path38"
         style="fill:#ffffff;fill-opacity:1;fill-rule:nonzero;stroke:none"
         d="m 260.074,678.039 c 3.563,7.274 7.852,14.074 12.817,20.34 v 0 l -44.711,44.894 -38.414,-36.218 70.308,-29.016 v 0" /><path
         id="path40"
         style="fill:#ffffff;fill-opacity:1;fill-rule:nonzero;stroke:none"
         d="m 281.496,707.813 c 5.184,5.148 10.906,9.753 17.063,13.675 v 0 l -27.469,64.043 -34.629,-33.945 45.035,-43.773 v 0" /><path
         id="path42"
         style="fill:#ffffff;fill-opacity:1;fill-rule:nonzero;stroke:none"
         d="m 308.926,727.395 c 6.625,3.242 13.644,5.902 20.953,7.703 v 0 l -7.707,55.726 h -40.645 l 27.399,-63.429 v 0" /><path
         id="path44"
         style="fill:#ffffff;fill-opacity:1;fill-rule:nonzero;stroke:none"
         d="m 342.77,737.543 c 4.39,0.578 8.816,0.832 13.355,0.832 5.469,0 10.906,-0.395 16.16,-1.227 v 0 l 7.168,53.676 h -44.43 l 7.747,-53.281 v 0" /><path
         id="path46"
         style="fill:#ffffff;fill-opacity:1;fill-rule:nonzero;stroke:none"
         d="m 383.66,734.809 c 6.77,-1.911 13.324,-4.321 19.516,-7.414 v 0 l 25.887,63.429 h -38.418 l -6.985,-56.015 v 0" /><path
         id="path48"
         style="fill:#ffffff;fill-opacity:1;fill-rule:nonzero;stroke:none"
         d="m 456.457,667.742 c 0.898,-2.484 1.66,-5.004 2.41,-7.562 h 63.469 v 37.047 l -65.879,-29.485 v 0" /><path
         id="path50"
         style="fill:#ffffff;fill-opacity:1;fill-rule:nonzero;stroke:none"
         d="m 438.926,698.809 c 4.894,-6.118 9.179,-12.778 12.707,-19.801 v 0 l 70.703,28.805 -38.301,36.214 -45.109,-45.218 v 0" /><path
         id="path52"
         style="fill:#ffffff;fill-opacity:1;fill-rule:nonzero;stroke:none"
         d="m 413.078,721.816 c 6.336,-4 12.274,-8.675 17.527,-13.894 v 0 l 45.04,45.215 -35.321,37.726 -27.246,-69.047 v 0" /></g></g></svg>