<?xml version="1.0" encoding="UTF-8" standalone="no"?>
<svg
   xmlns:dc="http://purl.org/dc/elements/1.1/"
   xmlns:cc="http://creativecommons.org/ns#"
   xmlns:rdf="http://www.w3.org/1999/02/22-rdf-syntax-ns#"
   xmlns:svg="http://www.w3.org/2000/svg"
   xmlns="http://www.w3.org/2000/svg"
   viewBox="0 0 94.866669 132.66667"
   height="132.66667"
   width="94.866669"
   xml:space="preserve"
   id="svg2"
   version="1.1"><metadata
     id="metadata8"><rdf:RDF><cc:Work
         rdf:about=""><dc:format>image/svg+xml</dc:format><dc:type
           rdf:resource="http://purl.org/dc/dcmitype/StillImage" /></cc:Work></rdf:RDF></metadata><defs
     id="defs6" /><g
     transform="matrix(1.3333333,0,0,-1.3333333,0,132.66667)"
     id="g10"><g
       transform="scale(0.1)"
       id="g12"><path
         id="path14"
         style="fill:#ffffff;fill-opacity:1;fill-rule:nonzero;stroke:none"
         d="m 1.41797,1.41797 h 708.66 v 992.164 h -708.66 z" /><path
         id="path16"
         style="fill:none;stroke:#231f20;stroke-width:2.83500004;stroke-linecap:butt;stroke-linejoin:miter;stroke-miterlimit:4;stroke-dasharray:none;stroke-opacity:1"
         d="M 1.41797,1.41797 H 710.078 V 993.582 H 1.41797 V 1.41797" /><path
         id="path18"
         style="fill:#1a67bb;fill-opacity:1;fill-rule:nonzero;stroke:none"
         d="m 15.6016,15.6055 h 680.289 v 963.789 H 15.6016 Z" /><path
         id="path20"
         style="fill:#ffffff;fill-opacity:1;fill-rule:nonzero;stroke:none"
         d="M 107.727,391.191 H 603.77 V 887.238 H 107.727 Z" /><path
         id="path22"
         style="fill:#231f20;fill-opacity:1;fill-rule:nonzero;stroke:none"
         d="m 444.328,479.066 h -177.16 v 23.688 h 22.641 v 0 c 2.414,0 7.203,-0.574 10.406,2.519 3.312,3.207 2.734,7.887 2.734,10.981 v 139.719 c 0,2.988 -0.32,7.09 -2.84,9.285 -2.414,2.164 -6.769,2.379 -10.086,2.379 h -22.855 v 23.152 H 408.645 V 522.09 c 0,-4.465 -0.93,-11.774 2.382,-15.664 3.203,-3.778 10.184,-3.672 14.18,-3.672 h 19.121 v -23.688" /><path
         id="path24"
         style="fill:#231f20;fill-opacity:1;fill-rule:nonzero;stroke:none"
         d="m 355.188,702.23 c -34.778,-0.214 -63.145,27.829 -63.829,62.606 -0.683,35.926 28.153,65.449 63.934,65.703 35.352,0.106 64.043,-28.406 64.258,-63.648 0.359,-35.68 -28.692,-64.512 -64.363,-64.661 v 0" /></g></g></svg>