<?xml version="1.0" encoding="UTF-8" standalone="no"?>
<svg
   xmlns:dc="http://purl.org/dc/elements/1.1/"
   xmlns:cc="http://creativecommons.org/ns#"
   xmlns:rdf="http://www.w3.org/1999/02/22-rdf-syntax-ns#"
   xmlns:svg="http://www.w3.org/2000/svg"
   xmlns="http://www.w3.org/2000/svg"
   viewBox="0 0 94.866669 132.65334"
   height="132.65334"
   width="94.866669"
   xml:space="preserve"
   id="svg2"
   version="1.1"><metadata
     id="metadata8"><rdf:RDF><cc:Work
         rdf:about=""><dc:format>image/svg+xml</dc:format><dc:type
           rdf:resource="http://purl.org/dc/dcmitype/StillImage" /></cc:Work></rdf:RDF></metadata><defs
     id="defs6" /><g
     transform="matrix(1.3333333,0,0,-1.3333333,0,132.65333)"
     id="g10"><g
       transform="scale(0.1)"
       id="g12"><path
         id="path14"
         style="fill:#ffffff;fill-opacity:1;fill-rule:nonzero;stroke:none"
         d="m 1.41797,1.41797 h 708.625 v 992.082 H 1.41797 Z" /><path
         id="path16"
         style="fill:none;stroke:#231f20;stroke-width:2.83500004;stroke-linecap:butt;stroke-linejoin:miter;stroke-miterlimit:4;stroke-dasharray:none;stroke-opacity:1"
         d="M 1.41797,1.41797 H 710.043 V 993.5 H 1.41797 V 1.41797" /><path
         id="path18"
         style="fill:#1a67bb;fill-opacity:1;fill-rule:nonzero;stroke:none"
         d="m 15.5898,15.5859 h 680.313 v 963.781 H 15.5898 Z" /><path
         id="path20"
         style="fill:#ffffff;fill-opacity:1;fill-rule:nonzero;stroke:none"
         d="m 384.859,335.684 c 0,0 1.758,-3.614 4.227,-2.664 2.394,0.859 19.309,10.359 19.309,10.359 0,0 1.746,2.355 0.554,5.969 -1.199,3.535 -4.461,11.308 -6.297,13.66 0,0 6.934,2.039 5.098,6.836 -1.75,4.785 -15.715,48.445 -17.461,57.636 -1.836,9.18 -5.742,32.661 0,56.766 5.742,24.109 11.16,73.102 9.649,88.887 0,0 0.878,1.73 3.269,1.73 2.473,0 6.379,-0.863 6.934,5.336 0.644,6.285 3.918,30.469 -11.719,63.606 -6.063,12.797 -4.863,43.105 -6.387,51.429 0,0 0,3.536 2.793,0.313 2.715,-3.297 15.637,-11.934 20.5,-32.977 4.785,-21.125 9.969,-44.289 9.969,-47.586 0,-3.214 1.758,-4.476 4.23,-4.476 2.391,0 5.43,-0.863 3.594,-5.024 -1.836,-4.16 -5.109,-10.367 -2.07,-18.14 2.949,-7.692 9.324,-8.321 15.066,-6.199 5.742,2.039 12.051,7.691 7.578,16.332 -4.539,8.636 -9.726,12.796 -7.019,15.703 2.715,2.984 6.387,-0.235 4.226,8.636 -2.07,8.95 -8.132,53.789 -12.363,65.094 -4.226,11.309 -8.457,16.332 -15.391,23.481 -6.941,7.144 -27.441,30.621 -33.183,38.004 -5.742,7.46 -19.942,15.156 -28.711,18.453 -8.699,3.3 -12.051,7.461 -11.727,15.152 0.317,7.699 4.786,7.145 7.817,8.953 3.031,1.727 9.965,9.188 12.125,15.391 0,0 0.554,2.746 2.715,1.254 2.07,-1.489 8.691,1.73 4.785,4.711 -3.918,2.984 -2.395,2.359 -0.879,8.324 1.512,5.969 3.582,14.605 -3.906,20.496 -7.579,5.965 -21.461,8.949 -26.571,13.426 -5.183,4.394 -14.515,2.672 -17.226,-1.254 -2.715,-3.848 -6.957,-10.168 -9.348,-13.149 -2.398,-2.984 -3.367,-5.07 -6.246,-3.793 -3.031,0 -6.66,2.707 -7.957,-0.984 -0.785,-2.551 3.059,-3.672 5.125,-4.926 2.094,-1.07 6.25,-0.582 4.176,-4.746 -2.449,-4.281 0.492,-4.406 -3.18,-12.605 -1.594,-3.309 -3.676,-7.106 -0.617,-8.7 3.062,-0.488 0.246,-13.957 5.363,-17.605 4.227,-2.121 8.457,-0.941 8.141,-5.656 -0.324,-4.789 1.195,-6.516 -4.231,-9.5 -5.425,-2.985 -21.699,-12.801 -27.117,-19.082 -5.508,-6.203 -9.973,-19.317 -11.168,-30.543 -1.281,-11.309 -4.23,-36.594 -6.703,-44.055 -2.395,-7.375 -1.516,-13.348 -16.91,-26.379 -15.395,-13.117 -26.242,-28.586 -28.317,-30.937 -2.152,-2.36 -2.714,-4.477 -1.273,-7.461 1.512,-2.907 0,-4.082 -1.441,-5.34 -1.512,-1.18 -12.996,-9.188 -13.954,-13.977 -0.878,-4.711 -4.468,-16.57 0.958,-18.375 5.421,-1.804 10.207,-5.656 19.3,3.848 9.094,9.5 2.391,18.453 8.457,17.512 6.059,-0.868 7.817,-1.493 13.321,5.101 5.425,6.516 25.281,22.305 30.707,29.371 5.504,7.141 13.961,17.821 20.898,36.59 0,0 7.817,-35.414 5.981,-41.933 -1.75,-6.516 -3.907,-31.485 -4.786,-35.961 -0.957,-4.395 1.754,-2.672 3.274,-3.219 1.512,-0.629 4.547,-2.121 0,-6.598 -4.469,-4.394 -35.578,-32.664 -43.156,-40.672 -7.493,-8.007 -17.465,-17.277 -13.243,-31.488 4.231,-14.289 15.957,-66.582 16.914,-74.914 0.875,-8.32 5.985,-38 12.684,-37.453 6.621,0.625 12.918,-1.492 6.621,-5.34 -6.383,-3.848 -17.789,-9.5 -25.051,-11.309 -7.254,-1.718 -16.968,-3.554 -16.648,-13.367 v 0 l -17.938,0.008 v 46.691 h -130.39 v -46.757 h 102.238 v -46.7 l 78.629,-0.07 v -46.765 h 79.16 v -46.731 h 80.176 v -46.758 h 184.246 v 46.758 l -142.559,-0.027 v 46.758 l -78.847,0.039 v 45.964 l -44.238,-0.058 v 0 c -0.762,-0.781 20.234,12.336 25.421,17.676 v 0" /><path
         id="path22"
         style="fill:#1a67bb;fill-opacity:1;fill-rule:nonzero;stroke:none"
         d="m 305.254,372 0.644,-4.312 16.5,3.687 -0.429,2.738 v 0 c -0.324,1.903 0.961,2.633 0.851,4.746 0.539,3.907 -4.738,12.45 -1.39,12.762 3.351,0.313 2.043,2.238 2.359,8.758 0.316,6.516 -8.25,38.391 -20.934,83.621 0,0 -1.515,4.16 4.547,9.496 6.059,5.34 26.239,22.852 29.274,24.344 3.031,1.492 4.226,-1.18 3.906,-3.531 -0.32,-2.438 -4.785,-21.125 -4.227,-43.426 0.637,-22.301 9.094,-68.938 12.364,-78.442 3.351,-9.5 7.941,-34.949 8.816,-37.304 0.879,-2.364 2.313,-4.746 4.07,-3.797 1.836,0.859 5.52,-1.223 1.614,-5.07 -3.918,-3.926 -7.653,-6.094 -13.395,-7.586 -5.746,-1.496 -17.609,-4.914 -16.969,-18.262 v 0 l 0.348,-1.719 -8.336,0.008 0.086,46.152 -33.199,-0.031 v 0 c 7.148,2.621 8.476,2.746 11.465,4.856 v 0 l 2.035,2.312 v 0" /></g></g></svg>