<?xml version="1.0" encoding="UTF-8" standalone="no"?>
<svg
   xmlns:dc="http://purl.org/dc/elements/1.1/"
   xmlns:cc="http://creativecommons.org/ns#"
   xmlns:rdf="http://www.w3.org/1999/02/22-rdf-syntax-ns#"
   xmlns:svg="http://www.w3.org/2000/svg"
   xmlns="http://www.w3.org/2000/svg"
   viewBox="0 0 94.866669 132.66667"
   height="132.66667"
   width="94.866669"
   xml:space="preserve"
   id="svg2"
   version="1.1"><metadata
     id="metadata8"><rdf:RDF><cc:Work
         rdf:about=""><dc:format>image/svg+xml</dc:format><dc:type
           rdf:resource="http://purl.org/dc/dcmitype/StillImage" /></cc:Work></rdf:RDF></metadata><defs
     id="defs6" /><g
     transform="matrix(1.3333333,0,0,-1.3333333,0,132.66667)"
     id="g10"><g
       transform="scale(0.1)"
       id="g12"><path
         id="path14"
         style="fill:#ffffff;fill-opacity:1;fill-rule:nonzero;stroke:none"
         d="m 1.41797,1.41797 h 708.66 v 992.121 h -708.66 z" /><path
         id="path16"
         style="fill:none;stroke:#231f20;stroke-width:2.83500004;stroke-linecap:butt;stroke-linejoin:miter;stroke-miterlimit:4;stroke-dasharray:none;stroke-opacity:1"
         d="M 1.41797,1.41797 H 710.078 V 993.539 H 1.41797 V 1.41797" /><path
         id="path18"
         style="fill:#007f46;fill-opacity:1;fill-rule:nonzero;stroke:none"
         d="m 15.5859,15.5977 h 680.313 v 963.773 H 15.5859 Z" /><path
         id="path20"
         style="fill:#ffffff;fill-opacity:1;fill-rule:nonzero;stroke:none"
         d="m 581.594,423.262 v -71.094 c 0,-1.191 0,-2.559 -0.188,-3.816 -0.066,-1.262 -0.351,-3.059 -1.074,-4.141 -0.789,-1.074 -2.129,-1.797 -3.387,-2.16 -1.328,-0.363 -2.91,-0.469 -4.25,-0.469 h -26.922 v 0 c -1.046,0 -2.414,0.106 -3.457,0.359 -1.261,0.364 -2.589,0.903 -3.312,1.907 -0.613,0.793 -0.977,1.875 -1.152,2.812 -0.254,1.438 -0.43,2.949 -0.43,4.395 v 64.863 c -1.512,-0.176 -4.285,-0.711 -5.723,-0.898 -24.121,-3.887 -63.972,-5.145 -88.386,-5.684 -14.25,-0.359 -76.172,-1.621 -90.43,-1.621 -27.434,0 -56.735,0.832 -84.168,1.902 -25.668,0.981 -61.02,2.883 -86.688,4.328 v 0 l -5.871,0.285 v -66.054 c -0.179,-1.621 -0.715,-3.352 -1.726,-4.504 -0.864,-1.004 -2.012,-1.621 -3.278,-1.984 -0.429,-0.106 -4.355,-0.106 -4.82,-0.106 H 141.02 v 0 c -0.43,0 -2.735,0 -3.204,0.106 -1.398,0.253 -2.914,0.902 -3.918,2.05 -0.972,1.196 -1.335,2.992 -1.515,4.543 0,0.364 0,3.782 0,4.246 v 71.352 l -18.145,-0.07 v 0 c -0.648,0 -3.672,-0.11 -4.281,0.07 -1.516,0.293 -2.848,1.082 -4.035,2.266 -0.969,0.972 -1.692,2.449 -2.051,3.894 -0.433,1.797 -0.324,5.149 -0.254,7.117 0.438,7.313 0.11,17.899 -0.179,25.317 -0.356,8.207 -0.899,19.941 -1.583,28.187 -1.011,10.727 -2.6987,21.668 -5.3667,32.149 -0.5352,2.156 -2.1211,8.027 -2.4102,10.222 -0.7929,5.039 -0.6093,10.188 0.1797,15.157 0.9024,5.437 2.5195,10.835 5.0039,15.73 3.9263,7.777 9.9723,14.258 16.9923,19.336 5.008,3.523 10.801,6.402 16.777,7.59 1.047,0.254 2.664,0.433 3.817,0.617 v 0 l 71.894,97.484 v 0 c 0.824,1.078 1.688,2.09 2.59,3.063 1.078,1.004 2.301,2.086 3.672,2.734 1.691,0.789 3.887,1.078 5.758,1.153 0.832,0 3.492,0 4.289,0 h 261.758 v 0 c 1.328,0 3.125,0 4.461,-0.075 1.691,-0.105 3.632,-0.465 5.253,-1.187 1.582,-0.61 3.028,-1.727 4.18,-2.988 0.176,-0.18 2.766,-3.524 2.949,-3.778 v 0 l 74.2,-97.203 v 0 c 1.503,-0.465 3.671,-1.187 5.175,-1.723 4.973,-1.73 9.797,-4.14 14.082,-7.308 5.871,-4.36 10.762,-10.047 14.329,-16.567 3.738,-6.765 6.152,-14.359 6.511,-22.027 0.254,-5.871 -1.797,-17.605 -2.773,-23.398 -1.153,-6.301 -2.227,-13.536 -3.016,-19.95 -0.91,-6.875 -1.808,-14.293 -2.492,-21.238 -0.535,-6.047 -1.008,-12.457 -1.18,-18.539 -0.148,-6.66 0,-13.355 0.645,-19.871 0.176,-1.977 0.43,-5.754 0.359,-7.738 -0.105,-2.024 -0.535,-4.246 -1.687,-5.977 -1.02,-1.445 -2.414,-2.519 -4.114,-2.988 -0.711,-0.188 -3.203,-0.188 -3.914,-0.188 v 0 l -18.183,0.11 v 0" /><path
         id="path22"
         style="fill:#007f46;fill-opacity:1;fill-rule:nonzero;stroke:none"
         d="m 145.598,564.926 c 18.359,0.109 33.515,-14.727 33.586,-33.332 0,-18.867 -15.336,-34.059 -33.95,-33.774 -18.179,0.254 -32.683,15.34 -32.617,33.774 0.18,18.355 14.906,33.261 32.981,33.332 v 0" /><path
         id="path24"
         style="fill:#007f46;fill-opacity:1;fill-rule:nonzero;stroke:none"
         d="m 291.645,531.41 v -75.887 h -96.118 v 0 c -0.433,0 -3.203,0 -3.746,0 -3.203,0.29 -6.586,1.368 -8.711,3.778 -1.98,2.199 -2.773,5.078 -2.519,7.957 0.289,1.801 0.719,3.637 1.621,5.148 v 0 l 30.273,52.305 v 0 c 0.543,0.902 1.442,2.453 2.16,3.277 1.153,1.262 2.594,2.344 4.286,2.879 1.582,0.617 4.07,0.727 5.871,0.727 v 0 l 4.176,-0.184 h 62.707 v 0" /><path
         id="path26"
         style="fill:#007f46;fill-opacity:1;fill-rule:nonzero;stroke:none"
         d="M 298.848,531.41 H 414.121 V 455.523 H 298.848 v 75.887" /><path
         id="path28"
         style="fill:#007f46;fill-opacity:1;fill-rule:nonzero;stroke:none"
         d="m 422.148,531.41 h 61.125 v 0 c 1.59,0 4.004,0 5.508,0 1.981,-0.105 4.539,-0.359 6.336,-1.258 1.516,-0.722 2.844,-1.984 3.821,-3.351 0.468,-0.649 1.621,-2.52 1.98,-3.168 v 0 l 29.844,-50.688 v 0 c 0.715,-1.261 1.328,-2.59 1.691,-3.961 0.789,-2.808 0.43,-5.796 -0.976,-8.207 -1.614,-2.734 -4.211,-4.425 -7.239,-5.148 -0.605,-0.106 -5.254,-0.106 -5.965,-0.106 h -96.125 v 75.887" /><path
         id="path30"
         style="fill:#007f46;fill-opacity:1;fill-rule:nonzero;stroke:none"
         d="m 567.012,565.066 c 18.359,-0.179 33.047,-15.332 32.941,-33.941 -0.07,-18.902 -15.41,-33.984 -34.023,-33.699 -18.254,0.179 -33.047,15.086 -33.157,33.59 -0.066,19.078 15.45,34.234 34.239,34.05 v 0" /><path
         id="path32"
         style="fill:#007f46;fill-opacity:1;fill-rule:nonzero;stroke:none"
         d="m 556.211,587.855 c -1.406,0 -3.816,-0.105 -5.254,-0.105 v 0 l -95.508,7.672 v 0 c -29.558,2.371 -79.023,2.371 -108.687,2.191 -24.766,-0.175 -70.742,-0.578 -95.399,-1.656 v 0 l -89.531,-5.867 v 0 c -1.695,-0.176 -3.492,-0.25 -5.187,-0.36 v 0 l 61.492,81.504 v 0 c 0.429,0.614 1.222,1.692 1.867,2.266 1.047,1.152 2.379,2.051 3.894,2.594 1.438,0.543 3.235,0.832 4.75,0.898 1.332,0.113 2.735,0.113 4.067,0.113 h 246.457 v 0 c 1.328,0 3.027,0 4.355,-0.113 1.512,-0.066 3.094,-0.355 4.539,-0.793 1.329,-0.469 2.59,-1.183 3.672,-2.082 0.86,-0.832 1.867,-1.984 2.657,-2.988 v 0 l 61.816,-83.274 v 0" /></g></g></svg>