<?xml version="1.0" encoding="UTF-8" standalone="no"?>
<svg
   xmlns:dc="http://purl.org/dc/elements/1.1/"
   xmlns:cc="http://creativecommons.org/ns#"
   xmlns:rdf="http://www.w3.org/1999/02/22-rdf-syntax-ns#"
   xmlns:svg="http://www.w3.org/2000/svg"
   xmlns="http://www.w3.org/2000/svg"
   viewBox="0 0 94.866669 132.66667"
   height="132.66667"
   width="94.866669"
   xml:space="preserve"
   id="svg2"
   version="1.1"><metadata
     id="metadata8"><rdf:RDF><cc:Work
         rdf:about=""><dc:format>image/svg+xml</dc:format><dc:type
           rdf:resource="http://purl.org/dc/dcmitype/StillImage" /></cc:Work></rdf:RDF></metadata><defs
     id="defs6" /><g
     transform="matrix(1.3333333,0,0,-1.3333333,0,132.66667)"
     id="g10"><g
       transform="scale(0.1)"
       id="g12"><path
         id="path14"
         style="fill:#ffffff;fill-opacity:1;fill-rule:nonzero;stroke:none"
         d="m 1.41797,1.41797 h 708.66 v 992.164 h -708.66 z" /><path
         id="path16"
         style="fill:none;stroke:#231f20;stroke-width:2.83500004;stroke-linecap:butt;stroke-linejoin:miter;stroke-miterlimit:4;stroke-dasharray:none;stroke-opacity:1"
         d="M 1.41797,1.41797 H 710.078 V 993.582 H 1.41797 V 1.41797" /><path
         id="path18"
         style="fill:#1a67bb;fill-opacity:1;fill-rule:nonzero;stroke:none"
         d="m 15.6016,15.6055 h 680.289 v 963.789 H 15.6016 Z" /><path
         id="path20"
         style="fill:#ffffff;fill-opacity:1;fill-rule:nonzero;stroke:none"
         d="M 107.727,391.191 H 603.77 V 887.238 H 107.727 Z" /><path
         id="path22"
         style="fill:#231f20;fill-opacity:1;fill-rule:nonzero;stroke:none"
         d="m 425.285,440.801 v 28.222 l -0.148,3.602 v 0 c -0.106,2.23 -1.875,3.891 -2.989,4.352 -0.507,0.402 -1.113,0.906 -1.621,1.265 -0.507,0.504 -1.113,1.113 -1.367,1.762 -1.258,1.871 -1.004,4.859 -1.004,7.09 v 68.293 c 0.352,-5.758 1.621,-11.625 2.879,-16.844 1.367,-4.754 3.098,-9.617 5.363,-14.004 2.372,-4.359 5.469,-8.465 8.965,-11.988 2.879,-3.098 6.367,-5.977 10.254,-7.848 3.75,-1.984 8.602,-2.238 12.352,-0.758 2.629,1.008 5,2.52 6.984,4.391 8.094,8.711 7.988,21.816 5.613,32.328 -0.613,2.988 -3.738,11.848 -4.753,14.582 -2.59,7.629 -4.708,15.227 -6.223,23.109 -3.133,16.094 -4.61,48.278 -4.61,64.008 0.11,2.989 0.11,15.34 0.254,18.36 0.246,3.855 1.223,14.976 1.621,18.828 0.754,8.496 0.86,20.992 -0.507,29.703 -0.399,3.633 -1.114,9.105 -1.875,12.598 -0.254,1.406 -1.758,7.382 -2.118,8.89 -0.507,1.875 -3.496,13.824 -4.113,15.84 -0.137,0.254 -2.117,7.344 -2.117,8.75 0,2.125 0.469,4.719 1.367,6.481 l 0.977,1.871 c 0.242,0.613 0.136,1.98 0.136,2.629 0,1.222 -0.136,3.347 -0.5,4.355 -0.507,1.371 -2.234,2.629 -3.64,2.883 -0.469,0.109 -1.367,0.355 -1.867,0.504 -0.723,0.715 -4.356,5.976 -4.969,6.98 -1.621,1.875 -3.496,3.492 -5.508,4.754 -1.73,0.969 -3.605,1.727 -5.617,2.231 -2.625,0.359 -5.723,0 -8.348,0 v 24.843 c 0,13.965 -4.609,24.336 -20.957,24.336 v 0 l -101.379,0.504 v 0 c -6.726,0 -11.336,-1.621 -16.195,-5.617 -4.75,-3.492 -6.52,-12.133 -6.52,-17.75 V 485.98 c 0,-1.617 0,-3.492 -0.718,-4.859 -0.649,-1.371 -1.512,-2.629 -3.242,-3.492 v 0 l -2.122,-1.113 v 0 c -1.261,-0.758 -2.769,-1.153 -2.769,-3.028 v 0 l -0.113,-2.734 -0.504,-29.953 h 161.648 v 0" /><path
         id="path24"
         style="fill:#ffffff;fill-opacity:1;fill-rule:nonzero;stroke:none"
         d="m 401.484,684.086 v 83.125 H 295.645 v -83.125 h 105.839 v 0" /><path
         id="path26"
         style="fill:#ffffff;fill-opacity:1;fill-rule:nonzero;stroke:none"
         d="m 401.484,786.906 v 27.465 H 295.645 v -27.465 h 105.839 v 0" /><path
         id="path28"
         style="fill:#ffffff;fill-opacity:1;fill-rule:nonzero;stroke:none"
         d="m 425.207,732.727 9.609,3.382 v 0 c 1.122,0.469 2.489,0.61 3.387,1.473 1.113,0.867 1.223,2.125 1.223,3.492 v 10.727 l -6.367,4.14 v 7.348 l -7.852,-4.359 v -26.203" /><path
         id="path30"
         style="fill:#ffffff;fill-opacity:1;fill-rule:nonzero;stroke:none"
         d="m 418.047,761.344 19.219,9.359 v 0 c -0.508,2.988 -2.012,5.977 -3.633,8.102 -0.977,1.258 -2.383,2.519 -3.602,3.383 -1.261,0.757 -2.629,1.367 -3.996,1.765 -2.265,0.719 -5.762,0.465 -7.988,0 v -22.609" /><path
         id="path32"
         style="fill:#ffffff;fill-opacity:1;fill-rule:nonzero;stroke:none"
         d="m 444.285,744.352 c -0.105,-1.727 -0.359,-4.356 -0.359,-6.086 v 0 l -0.391,-22.715 v 0 c -0.508,-6.512 -1.23,-12.848 -2.488,-19.223 -1.113,-5.867 -2.734,-12.742 -4.25,-18.465 v 0 l -5,-18.722 v 0 c -1.727,-6.516 -3.348,-13.352 -4.863,-19.981 -1.004,-4.246 -1.981,-9.5 -2.625,-13.863 -0.618,-4.75 -0.977,-11.336 -1.223,-16.234 -0.254,-5.219 -0.508,-11.731 -0.762,-17.098 -0.254,-4.61 -0.496,-11.485 -0.644,-16.09 -0.106,-4.5 -0.106,-9.977 0,-14.473 0.254,-5.507 1.008,-10.98 2.011,-16.347 1.622,-6.875 4.61,-14.614 8.106,-20.731 1.516,-2.633 3.633,-6.125 5.613,-8.465 2.524,-3.023 5.512,-5.507 8.86,-7.379 3.015,-1.617 7.265,-2.23 10.617,-0.359 1.875,0.863 3.64,2.484 5.008,4.102 1.867,2.234 3.339,5.004 4.355,7.851 2.012,6.266 1.504,13.246 0.137,19.473 -0.899,4.246 -2.762,10.262 -3.992,14.367 -2.012,6.371 -5.11,16.488 -6.516,22.965 -1.875,7.848 -2.988,16.598 -3.848,24.59 -0.761,6.375 -1.258,13.211 -1.375,19.582 -0.136,6.121 0.36,16.094 0.614,22.211 0.507,12.133 1.113,24.336 1.367,36.468 0.254,5.114 0.398,12.204 0.148,17.356 -0.148,5.617 -0.644,11.23 -1.515,16.844 -0.614,4.613 -1.473,9.363 -2.481,13.824 -0.762,3.637 -1.766,7.492 -2.734,10.984 -0.508,1.653 -1.258,4.137 -1.77,5.614 v 0" /><path
         id="path34"
         style="fill:#ffffff;fill-opacity:1;fill-rule:nonzero;stroke:none"
         d="M 418.047,726.352 V 619.145 c 1.758,12.097 5.254,27.722 9.101,40.07 1.125,3.344 4.758,15.332 5.618,18.715 1.621,5.871 3.132,11.992 3.992,18.113 0.617,4.461 1.379,13.102 1.769,17.707 0.106,1.621 0.614,8.496 0.723,9.977 0.145,1.261 0.145,2.625 0.145,3.738 0,0.652 0,1.621 -0.399,2.125 -0.215,0.398 -0.617,0.652 -0.969,0.867 -0.398,0.145 -0.906,0.145 -1.375,0.145 -0.754,0 -1.867,-0.254 -2.629,-0.36 v 0 l -2.265,-0.652 -13.711,-3.238 v 0" /></g></g></svg>