<?xml version="1.0" encoding="UTF-8" standalone="no"?>
<svg
   xmlns:dc="http://purl.org/dc/elements/1.1/"
   xmlns:cc="http://creativecommons.org/ns#"
   xmlns:rdf="http://www.w3.org/1999/02/22-rdf-syntax-ns#"
   xmlns:svg="http://www.w3.org/2000/svg"
   xmlns="http://www.w3.org/2000/svg"
   viewBox="0 0 94.866669 132.66667"
   height="132.66667"
   width="94.866669"
   xml:space="preserve"
   id="svg2"
   version="1.1"><metadata
     id="metadata8"><rdf:RDF><cc:Work
         rdf:about=""><dc:format>image/svg+xml</dc:format><dc:type
           rdf:resource="http://purl.org/dc/dcmitype/StillImage" /></cc:Work></rdf:RDF></metadata><defs
     id="defs6" /><g
     transform="matrix(1.3333333,0,0,-1.3333333,0,132.66667)"
     id="g10"><g
       transform="scale(0.1)"
       id="g12"><path
         id="path14"
         style="fill:#ffffff;fill-opacity:1;fill-rule:nonzero;stroke:none"
         d="m 1.41797,1.41797 h 708.66 v 992.164 h -708.66 z" /><path
         id="path16"
         style="fill:none;stroke:#231f20;stroke-width:2.83500004;stroke-linecap:butt;stroke-linejoin:miter;stroke-miterlimit:4;stroke-dasharray:none;stroke-opacity:1"
         d="M 1.41797,1.41797 H 710.078 V 993.582 H 1.41797 V 1.41797" /><path
         id="path18"
         style="fill:#1a67bb;fill-opacity:1;fill-rule:nonzero;stroke:none"
         d="m 15.6016,15.6016 h 680.293 v 963.793 H 15.6016 Z" /><path
         id="path20"
         style="fill:#ffffff;fill-opacity:1;fill-rule:nonzero;stroke:none"
         d="M 107.727,391.191 H 603.77 V 887.23 H 107.727 Z" /><path
         id="path22"
         style="fill:#231f20;fill-opacity:1;fill-rule:nonzero;stroke:none"
         d="m 171.48,440.797 v 172.406 c 0,1.047 0,3.129 0,4.211 1.043,6.301 2.051,12.602 5.153,17.856 4.133,7.343 9.285,14.726 16.523,18.937 7.235,4.176 15.477,6.301 23.758,6.301 7.199,0 13.391,-2.125 19.586,-5.258 5.18,-3.168 10.332,-7.379 14.469,-12.637 3.094,-4.175 5.148,-8.39 7.199,-13.644 1.047,-4.211 1.047,-8.422 1.047,-12.637 v -34.664 c 1.043,1.043 3.094,1.043 4.14,1.043 v 0 l 19.618,8.422 v 0 c 11.34,4.176 22.683,7.344 34.054,8.39 12.387,2.122 23.727,3.168 36.11,4.215 13.426,0 26.855,-1.047 40.285,-4.215 12.383,-2.089 24.766,-5.253 37.148,-9.468 v 0 l 17.535,-7.344 v 0 c 1.047,0 2.086,-1.043 3.098,-1.043 0,1.043 0,3.133 0,4.211 0,3.129 0,7.344 1.043,10.512 1.047,5.254 4.141,9.429 7.238,13.644 3.094,5.254 8.243,9.469 13.387,12.637 7.238,4.176 15.484,7.344 23.762,6.297 9.289,0 17.531,-3.168 24.769,-8.422 5.145,-3.133 10.332,-8.387 13.426,-13.649 2.051,-5.253 4.102,-10.507 4.102,-16.843 0,-1.047 1.047,-3.129 1.047,-4.176 V 454.477 h -19.622 v 35.714 H 470.82 v -49.394 h -19.617 v 49.394 H 259.215 v -35.714 h -18.578 v 35.714 H 191.098 V 440.797 H 171.48 v 0" /><path
         id="path24"
         style="fill:#231f20;fill-opacity:1;fill-rule:nonzero;stroke:none"
         d="m 379.641,780.074 c 0.859,-0.429 1.699,-0.429 2.562,-0.429 1.723,0 3.445,0.859 4.742,2.152 v 0 l 50.438,50.851 3.453,-3.453 -51.734,-51.707 v 0 c -1.723,-1.726 -4.313,-3.019 -6.899,-3.019 -1.703,0 -3.859,0.429 -5.152,1.293 v 0 l -19.844,-20.274 9.059,-9.898 v 0 c 0,0.43 3.882,2.16 5.609,1.726 2.59,-0.429 3.883,-0.859 5.605,-2.589 v 0 l 51.711,-52.164 v 0 c 3.016,-2.993 4.747,-9.895 -0.867,-15.071 -3.445,-3.449 -9.054,-3.883 -12.504,-0.429 v 0 l -53.004,53 v 0 c -2.156,2.16 -3.019,3.882 -3.449,5.179 -0.429,2.156 0.863,5.176 2.586,6.899 v 0 l -9.058,9.058 -9.461,-9.058 v 0 c 2.586,-2.59 3.882,-7.332 -0.864,-12.078 v 0 l -53.027,-53 v 0 c -3.43,-3.454 -9.035,-3.02 -12.488,0.429 -5.606,5.176 -3.879,12.078 -0.86,15.071 v 0 l 51.711,52.164 v 0 c 1.723,1.73 3.016,2.16 5.606,2.589 3.015,0.434 5.605,-1.726 5.605,-1.726 v 0 l 9.922,9.898 -12.512,12.512 -2.152,1.723 v 0 c -0.863,0.429 -2.59,0.863 -3.883,0.863 h -2.156 v 0 c -0.863,0 -3.883,1.293 -4.746,1.723 -0.43,0.433 -1.293,0.867 -1.723,1.296 v 0 l -45.672,45.239 v 0 c -0.433,0.429 -4.746,5.176 -5.175,8.195 -0.864,3.02 0,6.902 1.296,9.918 0.86,2.59 2.586,4.75 4.309,6.473 v 0 l 58.609,-56.91 v 0 c 0,0 -0.429,-2.133 -0.429,-3.43 0,-1.293 0,-3.016 0.429,-4.309 0.434,-0.863 4.746,-6.472 4.746,-6.472 v 0 l 12.915,-12.938 20.273,20.703 v 0 c -1.293,1.723 -2.156,3.453 -2.156,5.582 0,2.586 1.293,5.176 3.015,6.903 v 0 l 51.282,52.164 3.015,-3.453 -49.98,-50.868 v 0 c -1.293,-1.297 -2.156,-3.019 -2.156,-4.746 0,-0.836 0.429,-1.699 0.863,-2.566 v 0 l 54.726,55.164 2.59,-3.02 -54.726,-55.16 v 0" /><path
         id="path26"
         style="fill:#ffffff;fill-opacity:1;fill-rule:nonzero;stroke:none"
         d="m 259.176,539.398 v 28.372 c 2.054,1.078 3.094,2.125 5.152,2.125 2.082,1.043 20.664,8.386 22.715,9.468 11.375,4.18 21.668,6.301 33.047,8.387 11.34,2.125 22.68,3.168 33.012,3.168 13.425,-1.043 26.855,-2.125 39.238,-4.211 12.387,-3.164 23.726,-6.301 35.101,-10.516 7.2,-2.086 13.395,-5.253 20.625,-8.421 1.047,0 2.055,-1.047 3.102,-1.047 V 539.398 H 259.176 v 0" /><path
         id="path28"
         style="fill:#ffffff;fill-opacity:1;fill-rule:nonzero;stroke:none"
         d="m 332.656,777.434 -52.136,51.277 v 0 c -0.868,0.867 -2.59,2.16 -4.313,0.43 -1.73,-1.293 -0.863,-3.883 0.43,-5.149 v 0 l 44.832,-44.402 v 0 c 0.429,-0.43 1.269,-0.863 1.699,-1.293 4.312,-2.59 9.488,-0.863 9.488,-0.863 v 0" /></g></g></svg>