<?xml version="1.0" encoding="UTF-8" standalone="no"?>
<svg
   xmlns:dc="http://purl.org/dc/elements/1.1/"
   xmlns:cc="http://creativecommons.org/ns#"
   xmlns:rdf="http://www.w3.org/1999/02/22-rdf-syntax-ns#"
   xmlns:svg="http://www.w3.org/2000/svg"
   xmlns="http://www.w3.org/2000/svg"
   viewBox="0 0 94.866669 94.866669"
   height="94.866669"
   width="94.866669"
   xml:space="preserve"
   id="svg2"
   version="1.1"><metadata
     id="metadata8"><rdf:RDF><cc:Work
         rdf:about=""><dc:format>image/svg+xml</dc:format><dc:type
           rdf:resource="http://purl.org/dc/dcmitype/StillImage" /></cc:Work></rdf:RDF></metadata><defs
     id="defs6" /><g
     transform="matrix(1.3333333,0,0,-1.3333333,0,94.866667)"
     id="g10"><g
       transform="scale(0.1)"
       id="g12"><path
         id="path14"
         style="fill:#ffffff;fill-opacity:1;fill-rule:nonzero;stroke:none"
         d="m 1.41797,1.41797 h 708.66 v 708.656 h -708.66 z" /><path
         id="path16"
         style="fill:none;stroke:#231f20;stroke-width:2.83500004;stroke-linecap:butt;stroke-linejoin:miter;stroke-miterlimit:4;stroke-dasharray:none;stroke-opacity:1"
         d="M 1.41797,1.41797 H 710.078 V 710.074 H 1.41797 V 1.41797" /><path
         id="path18"
         style="fill:#1a67bb;fill-opacity:1;fill-rule:nonzero;stroke:none"
         d="m 15.5859,15.5859 h 680.313 v 680.313 H 15.5859 Z" /><path
         id="path20"
         style="fill:#ffffff;fill-opacity:1;fill-rule:nonzero;stroke:none"
         d="M 299.531,100.625 H 214.027 V 582.523 H 455.02 v 0 c 19.863,0 41.464,-7.777 54.425,-25.058 17.285,-22.426 16.414,-44.024 16.414,-44.024 V 351.945 c 0,-11.234 -3.457,-35.425 -20.73,-52.668 C 489.57,283.723 473.156,277.676 455.02,277.676 H 299.531 V 100.625" /><path
         id="path22"
         style="fill:#1a67bb;fill-opacity:1;fill-rule:nonzero;stroke:none"
         d="m 299.457,351.871 v 154.582 h 122.652 v 0 c 5.188,0 11.231,0 14.688,-3.457 3.457,-3.449 4.328,-6.906 4.328,-14.683 V 370.016 c 0,-6.047 -1.73,-11.231 -5.187,-13.825 -3.458,-3.457 -6.915,-4.32 -12.958,-4.32 H 299.457 v 0" /></g></g></svg>