<?xml version="1.0" encoding="UTF-8" standalone="no"?>
<svg
   xmlns:dc="http://purl.org/dc/elements/1.1/"
   xmlns:cc="http://creativecommons.org/ns#"
   xmlns:rdf="http://www.w3.org/1999/02/22-rdf-syntax-ns#"
   xmlns:svg="http://www.w3.org/2000/svg"
   xmlns="http://www.w3.org/2000/svg"
   viewBox="0 0 94.866669 132.66667"
   height="132.66667"
   width="94.866669"
   xml:space="preserve"
   id="svg2"
   version="1.1"><metadata
     id="metadata8"><rdf:RDF><cc:Work
         rdf:about=""><dc:format>image/svg+xml</dc:format><dc:type
           rdf:resource="http://purl.org/dc/dcmitype/StillImage" /></cc:Work></rdf:RDF></metadata><defs
     id="defs6" /><g
     transform="matrix(1.3333333,0,0,-1.3333333,0,132.66667)"
     id="g10"><g
       transform="scale(0.1)"
       id="g12"><path
         id="path14"
         style="fill:#ffffff;fill-opacity:1;fill-rule:nonzero;stroke:none"
         d="m 1.41797,1.41797 h 708.688 v 992.164 H 1.41797 Z" /><path
         id="path16"
         style="fill:none;stroke:#231f20;stroke-width:2.83500004;stroke-linecap:butt;stroke-linejoin:miter;stroke-miterlimit:4;stroke-dasharray:none;stroke-opacity:1"
         d="M 1.41797,1.41797 H 710.105 V 993.582 H 1.41797 V 1.41797" /><path
         id="path18"
         style="fill:#1a67bb;fill-opacity:1;fill-rule:nonzero;stroke:none"
         d="m 15.5898,299.055 h 680.301 V 979.364 H 15.5898 Z" /><path
         id="path20"
         style="fill:#ffffff;fill-opacity:1;fill-rule:nonzero;stroke:none"
         d="m 295.898,377.012 26.207,366.761 -80.136,-18.785 v 0 c -3.098,-0.687 -6.301,0.395 -8.281,2.84 -2.375,2.848 -2.594,6.949 -0.579,10.082 v 0 l 112.938,172.258 v 0 c 2.156,3.312 5.793,5.332 9.754,5.437 4.101,0.071 7.988,-1.98 10.262,-5.472 v 0 L 478.34,737.477 v 0 c 1.953,-2.954 1.875,-6.801 -0.215,-9.649 -1.945,-2.773 -5.359,-4.066 -8.633,-3.312 v 0 l -81.074,18.433 24.258,-365.828 -116.778,-0.109 v 0" /><path
         id="path22"
         style="fill:#ee2c30;fill-opacity:1;fill-rule:nonzero;stroke:none"
         d="m 66.1094,36.8477 c -2.7735,0 -5.3555,1.414 -6.8047,3.7695 -1.5352,2.5078 -1.5859,5.6445 -0.1172,8.1719 v 0 L 186,266.75 v 0 c 1.352,2.332 3.82,3.797 6.496,3.887 2.891,0.097 5.594,-1.387 7.039,-3.887 v 0 L 326.301,48.8789 v 0 c 1.469,-2.5195 1.441,-5.6641 -0.074,-8.1367 -1.446,-2.4102 -4.075,-3.8945 -6.895,-3.8945 H 66.1094 v 0" /><path
         id="path24"
         style="fill:#ffffff;fill-opacity:1;fill-rule:nonzero;stroke:none"
         d="M 289.379,62.0117 95.8789,62.0313 192.641,228.293 289.379,62.0117" /><path
         id="path26"
         style="fill:#231f20;fill-opacity:1;fill-rule:nonzero;stroke:none"
         d="m 207.496,82.3438 0.07,60.3902 -9.832,-2.41 v 0 c -0.664,-0.168 -1.351,0.098 -1.734,0.645 -0.398,0.566 -0.398,1.289 -0.02,1.855 v 0 l 16.848,24.649 v 0 c 0.285,0.429 0.785,0.711 1.305,0.711 0.547,0.019 1.066,-0.262 1.375,-0.711 v 0 l 16.894,-24.688 v 0 c 0.379,-0.566 0.356,-1.301 -0.019,-1.847 -0.379,-0.547 -1.07,-0.801 -1.707,-0.633 v 0 l -9.883,2.402 -0.211,-60.332 -13.086,-0.0312 v 0" /><path
         id="path28"
         style="fill:#231f20;fill-opacity:1;fill-rule:nonzero;stroke:none"
         d="m 164.535,164.758 13.18,-0.235 0.117,-60.441 9.977,2.363 v 0 c 0.593,0.149 1.234,-0.117 1.566,-0.613 0.352,-0.519 0.352,-1.184 0,-1.672 v 0 L 172.449,79.2773 v 0 c -0.304,-0.4492 -0.828,-0.7109 -1.371,-0.7109 -0.523,0.0274 -0.996,0.2813 -1.277,0.7109 v 0 l -16.828,24.8047 v 0 c -0.332,0.5 -0.356,1.164 -0.047,1.699 0.355,0.598 1.062,0.879 1.754,0.715 v 0 l 9.789,-2.453 0.066,60.715 v 0" /><path
         id="path30"
         style="fill:#231f20;fill-opacity:1;fill-rule:nonzero;stroke:none"
         d="m 477.148,222.16 19.579,6.082 8.886,-4.941 -3.965,-5.36 -6.152,2.383 -12.5,-3.496 -2.566,-6.035 14.738,-0.215 -8.559,-13.769 91.164,-0.157 4.278,7.852 v 0 c -0.528,-0.031 -2.766,0.086 -3.281,0.086 -2.286,0.117 -5.469,0.656 -7.598,1.66 -1.082,0.508 -2.141,1.348 -2.57,2.473 -0.332,0.859 -0.399,1.933 0.168,2.675 0.468,0.606 1.55,0.887 2.332,1.004 0.8,0.118 4.652,0.071 5.468,0.071 2.016,-0.032 6.465,0.488 8.45,0.722 1.601,0.184 6.25,0.723 7.824,1.024 v 0 l 7.359,1.672 v 0 c 1.32,0.234 3.067,0.418 4.34,-0.039 1.18,-0.422 2.242,-1.289 2.645,-2.473 0.351,-1.055 0.07,-2.285 -0.383,-3.289 -0.496,-1.113 -1.25,-2.16 -2.313,-2.844 -0.851,-0.535 -3.152,-1.113 -4.148,-1.367 v 0 l -5.039,-1.289 v 0 c -1.614,-0.438 -3.617,-0.488 -5.317,-0.555 v 0 l -4.715,-7.734 14.317,-29.543 v 0 c 1.633,0.625 4.082,1.562 5.754,2.051 5.758,1.679 11.863,1.953 17.808,1.183 11.86,-1.535 22.805,-7.051 30.942,-15.676 8.297,-8.789 13.203,-20.175 13.484,-32.175 0.305,-12.911 -4.695,-25.4027 -13.723,-34.7191 -9.382,-9.668 -22.382,-15.0781 -35.917,-15.1172 -12.516,-0.0469 -24.668,4.4726 -33.836,12.8828 -4.461,4.1016 -8.047,9.0898 -10.633,14.5117 -2.199,4.5708 -3.735,9.4418 -4.414,14.4528 -0.188,1.532 -0.383,3.719 -0.5,5.262 v 0 l -18.067,0.117 v 0 c -0.117,-0.301 -0.254,-0.722 -0.371,-1.023 -0.449,-1.242 -1.062,-2.383 -1.816,-3.477 -0.965,-1.367 -2.168,-2.629 -3.613,-3.515 -0.54,-0.325 -1.368,-0.743 -1.954,-1.008 v 0 l 1.668,-6.961 4.133,0.937 0.918,-3.379 -10.488,-2.6362 -0.828,2.9572 3.394,1.027 -1.843,7.031 v 0 c -0.403,-0.07 -1.008,-0.187 -1.407,-0.226 -5.168,-0.684 -10.332,1.25 -13.75,5.117 -3.418,3.918 -4.695,9.258 -3.136,14.191 0.121,0.352 0.304,0.907 0.441,1.258 v 0 l -52.109,39.543 -5.516,-7.871 v 0 c 1.363,-1.074 3.301,-2.59 4.566,-3.762 10.266,-9.148 16.438,-22.195 15.688,-35.828 -1.516,-27.3747 -23.801,-49.6677 -51.555,-49.0232 -27.207,0.6328 -47.726,23.6992 -48.789,50.5862 -0.637,15.75 7.637,30.429 20.82,39.304 14.336,9.622 32.664,11.887 48.582,5.098 1.204,-0.535 2.993,-1.394 4.172,-1.98 v 0 l 24.618,38.054 -13.434,0.442 8.269,17.773 v 0" /><path
         id="path32"
         style="fill:#ffffff;fill-opacity:1;fill-rule:nonzero;stroke:none"
         d="m 438.242,121.887 21.981,33.828 v 0 c 0.683,-0.52 1.601,-1.211 2.238,-1.731 9.414,-7.683 14.695,-19.238 14.082,-31.289 -1.133,-22.8981 -18.801,-42.402 -42,-42.6559 -23.676,-0.2813 -42.309,19.1211 -43.457,42.4919 -0.688,13.68 6.48,26.473 17.848,34.297 8.136,5.567 18.086,7.969 27.968,7.695 5.039,-0.168 10.489,-1.105 14.903,-3.527 0.636,-0.371 1.601,-0.957 2.218,-1.348 v 0 l -22.402,-34.296 v 0 c -0.051,-0.098 -1.484,-2.286 -1.516,-2.403 -0.332,-1.414 0.317,-2.89 1.516,-3.719 1.555,-1.105 3.672,-1.007 5.117,0.223 v 0 l 1.504,2.434 v 0" /><path
         id="path34"
         style="fill:#ffffff;fill-opacity:1;fill-rule:nonzero;stroke:none"
         d="m 618.184,130.344 -15.403,30.566 v 0 c 0.754,0.235 1.887,0.586 2.641,0.801 12.168,3.418 25.183,1.348 35.816,-5.43 11.985,-7.617 19.836,-20.578 19.367,-34.648 -0.753,-23.0197 -18.488,-42.6369 -41.789,-43.1564 -22.234,-0.4883 -40.679,16.3203 -43.75,38.0784 -0.086,0.672 -0.203,1.629 -0.281,2.304 v 0 l 33.77,0.418 v 0 c 0.234,-0.672 0.617,-1.648 0.965,-2.285 1.75,-3.191 5.121,-5.242 8.781,-4.941 4.668,0.402 8.301,4.172 8.484,8.808 0.168,4.317 -2.664,8.204 -6.914,9.231 -0.469,0.117 -1.199,0.215 -1.687,0.254 v 0" /><path
         id="path36"
         style="fill:#ffffff;fill-opacity:1;fill-rule:nonzero;stroke:none"
         d="m 481.992,189.121 90.676,-0.137 -30.664,-51.14 v 0 c -1.059,0.301 -2.641,0.691 -3.723,0.84 -0.832,0.086 -2.051,0.086 -2.883,0.086 v 0 l -1.082,4.64 3.399,0.977 -0.867,2.793 -10.332,-2.629 0.781,-2.891 3.418,0.86 1.082,-4.141 v 0 c -1.016,-0.301 -2.531,-0.801 -3.418,-1.356 -0.711,-0.441 -1.633,-1.281 -2.219,-1.867 v 0 l -53.105,39.727 8.937,14.238 v 0" /><path
         id="path38"
         style="fill:#ffffff;fill-opacity:1;fill-rule:nonzero;stroke:none"
         d="m 580.754,188.516 12.594,-25 v 0 c -1.231,-0.606 -2.95,-1.512 -4.129,-2.215 -10.617,-6.36 -17.188,-17.852 -19.856,-29.824 -0.347,-1.68 -0.75,-4.036 -1.035,-5.735 v 0 l -17.195,-0.234 v 0 c -0.117,0.605 -0.305,1.496 -0.469,2.101 -0.281,0.887 -0.664,1.766 -1.086,2.586 -0.398,0.743 -0.879,1.516 -1.394,2.168 -0.332,0.422 -0.848,0.996 -1.219,1.379 v 0 l 33.789,54.774 v 0" /><path
         id="path40"
         style="fill:#ffffff;fill-opacity:1;fill-rule:nonzero;stroke:none"
         d="m 596.727,157.949 14.836,-29.676 v 0 c -0.301,-0.253 -0.754,-0.656 -0.997,-0.957 -0.253,-0.304 -0.539,-0.793 -0.722,-1.144 v 0 l -34.551,-0.371 v 0 c 0.02,0.793 0.098,1.933 0.168,2.726 1.031,11.231 8.348,20.996 17.82,27.286 0.996,0.671 2.434,1.531 3.446,2.136 v 0" /><path
         id="path42"
         style="fill:#ffffff;fill-opacity:1;fill-rule:nonzero;stroke:none"
         d="m 525.105,126.875 11.907,-8.152 1.433,-5.176 v 0 c -0.32,-0.07 -0.84,-0.188 -1.172,-0.254 -6.699,-0.957 -12.285,4.637 -12.382,11.328 0,0.645 0.121,1.602 0.214,2.254 v 0" /><path
         id="path44"
         style="fill:#ffffff;fill-opacity:1;fill-rule:nonzero;stroke:none"
         d="m 529.141,132.383 c 0.214,0.168 0.539,0.422 0.75,0.586 0.851,0.605 1.964,1.047 2.953,1.25 v 0 l 1.461,-5.614 -5.164,3.778 v 0" /><path
         id="path46"
         style="fill:#ffffff;fill-opacity:1;fill-rule:nonzero;stroke:none"
         d="m 537.129,131.125 -0.969,3.359 v 0 c 0.871,0.184 2.07,-0.07 2.949,-0.207 v 0 l -1.98,-3.152 v 0" /><path
         id="path48"
         style="fill:#ffffff;fill-opacity:1;fill-rule:nonzero;stroke:none"
         d="m 541.848,126.145 2.832,4.589 v 0 c 0.211,-0.304 0.543,-0.793 0.75,-1.093 0.5,-0.723 1.086,-1.672 1.328,-2.493 0.09,-0.3 0.183,-0.742 0.234,-1.023 v 0 l -5.144,0.02 v 0" /><path
         id="path50"
         style="fill:#ffffff;fill-opacity:1;fill-rule:nonzero;stroke:none"
         d="m 540.477,118.887 5.753,0.051 v 0 c -0.253,-0.442 -0.632,-1.125 -0.937,-1.536 -0.52,-0.75 -1.184,-1.425 -1.863,-2.031 -0.422,-0.371 -1.086,-0.887 -1.555,-1.23 v 0 l -1.398,4.746 v 0" /></g></g></svg>