<?xml version="1.0" encoding="UTF-8" standalone="no"?>
<svg
   xmlns:dc="http://purl.org/dc/elements/1.1/"
   xmlns:cc="http://creativecommons.org/ns#"
   xmlns:rdf="http://www.w3.org/1999/02/22-rdf-syntax-ns#"
   xmlns:svg="http://www.w3.org/2000/svg"
   xmlns="http://www.w3.org/2000/svg"
   viewBox="0 0 94.866669 132.66667"
   height="132.66667"
   width="94.866669"
   xml:space="preserve"
   id="svg2"
   version="1.1"><metadata
     id="metadata8"><rdf:RDF><cc:Work
         rdf:about=""><dc:format>image/svg+xml</dc:format><dc:type
           rdf:resource="http://purl.org/dc/dcmitype/StillImage" /></cc:Work></rdf:RDF></metadata><defs
     id="defs6" /><g
     transform="matrix(1.3333333,0,0,-1.3333333,0,132.66667)"
     id="g10"><g
       transform="scale(0.1)"
       id="g12"><path
         id="path14"
         style="fill:#ffffff;fill-opacity:1;fill-rule:nonzero;stroke:none"
         d="m 1.41797,1.41797 h 708.66 v 992.121 h -708.66 z" /><path
         id="path16"
         style="fill:none;stroke:#231f20;stroke-width:2.83500004;stroke-linecap:butt;stroke-linejoin:miter;stroke-miterlimit:4;stroke-dasharray:none;stroke-opacity:1"
         d="M 1.41797,1.41797 H 710.078 V 993.539 H 1.41797 V 1.41797" /><path
         id="path18"
         style="fill:#1a67bb;fill-opacity:1;fill-rule:nonzero;stroke:none"
         d="m 15.5625,15.5664 h 680.328 v 963.793 H 15.5625 Z" /><path
         id="path20"
         style="fill:#ffffff;fill-opacity:1;fill-rule:nonzero;stroke:none"
         d="M 192.754,419.523 H 518.73 V 93.5469 H 192.754 V 419.523" /><path
         id="path22"
         style="fill:#ffffff;fill-opacity:1;fill-rule:nonzero;stroke:none"
         d="m 292.008,462.035 h -77.981 v 439.422 h 219.715 v 0 c 18.106,0 34.668,-2.379 51.192,-21.281 14.179,-16.524 13.386,-41.723 13.386,-41.723 V 691.215 c 0,-10.262 -5.507,-34.668 -18.894,-48.063 -11.016,-12.601 -29.16,-19.691 -45.684,-19.691 H 292.008 V 462.035" /><path
         id="path24"
         style="fill:#1a67bb;fill-opacity:1;fill-rule:nonzero;stroke:none"
         d="M 291.934,691.145 V 832.117 H 403.75 v 0 c 4.719,0 11.809,0 14.98,-3.957 2.336,-3.926 2.336,-5.508 2.336,-12.601 V 707.668 c 0,-5.512 -1.543,-9.438 -3.925,-11.809 -3.125,-3.132 -7.09,-4.714 -12.598,-4.714 H 291.934 v 0" /><path
         id="path26"
         style="fill:#1a67bb;fill-opacity:1;fill-rule:nonzero;stroke:none"
         d="m 335.461,104.055 v 71.023 h -9.973 v 0 c -0.972,0 -3.062,0 -4.031,0.188 -1.047,0.172 -2.019,0.535 -2.957,1.043 -0.969,0.5 -1.867,1.152 -2.66,1.906 -0.723,0.683 -1.332,1.473 -1.836,2.305 -0.789,1.328 -1.512,2.703 -2.09,4.136 -0.18,0.403 -1.293,3.352 -1.441,3.742 v 0 l -65.336,171.973 v 0 c -0.723,1.914 -1.012,4.18 -1.117,6.192 -0.036,1.335 0.035,2.707 0.289,4.003 0.254,1.289 0.609,2.52 1.152,3.704 0.574,1.23 1.258,2.41 2.121,3.496 1.078,1.367 2.305,2.664 3.641,3.816 1.941,1.648 4.027,3.098 6.297,4.277 4.101,2.2 8.351,4.141 12.707,5.801 5.832,2.227 11.703,4.317 17.605,6.262 4.496,1.512 9.035,2.84 13.645,4.031 4.171,1.086 8.351,2.051 12.597,2.883 4.211,0.867 8.461,1.551 12.742,2.156 4.25,0.574 8.536,1.047 12.856,1.367 4.285,0.325 8.605,0.547 12.887,0.618 4.281,0.066 8.535,0.039 12.785,-0.149 4.246,-0.176 8.496,-0.469 12.742,-0.859 4.641,-0.469 9.289,-1.043 13.926,-1.731 4.648,-0.679 9.258,-1.472 13.828,-2.41 3.957,-0.789 7.883,-1.687 11.808,-2.703 3.926,-1.008 7.774,-2.082 11.661,-3.273 3.132,-0.977 6.269,-2.051 9.363,-3.204 3.098,-1.152 6.125,-2.414 9.141,-3.781 2.558,-1.121 5.332,-2.488 7.746,-3.887 1.941,-1.187 3.816,-2.515 5.507,-4.031 1.219,-1.086 2.305,-2.273 3.204,-3.64 1.113,-1.692 1.98,-3.528 2.515,-5.469 0.539,-2.051 0.793,-4.184 0.727,-6.34 -0.078,-1.648 -0.254,-3.926 -0.793,-5.508 v 0 l -59.91,-173.484 v 0 c -0.391,-1.113 -0.793,-2.27 -1.223,-3.418 -0.574,-1.477 -1.258,-2.91 -2.051,-4.277 -0.469,-0.833 -1.043,-1.625 -1.726,-2.278 -0.723,-0.754 -1.582,-1.394 -2.481,-1.902 -0.937,-0.508 -1.918,-0.903 -2.961,-1.153 -1.113,-0.253 -2.265,-0.402 -3.418,-0.402 h -9.824 v -71.023 h -47.664 v 0" /><path
         id="path28"
         style="fill:#ffffff;fill-opacity:1;fill-rule:nonzero;stroke:none"
         d="m 402.492,354.07 -4.101,-20.515 v 0 c -0.469,0.175 -1.153,0.402 -1.582,0.539 -1.77,0.508 -4.289,0.933 -6.086,1.226 -5.157,0.793 -10.301,1.504 -15.489,2.121 -3.203,0.364 -6.406,0.645 -9.648,0.832 -5.898,0.321 -11.801,0.282 -17.742,-0.07 -6.696,-0.398 -13.391,-1.121 -20.051,-2.195 -3.816,-0.617 -7.598,-1.34 -11.344,-2.238 -2.914,-0.645 -5.793,-1.473 -8.636,-2.372 v 0 l -15.086,-5.226 v 0 c -0.829,-0.254 -1.946,-0.496 -2.77,-0.496 -1.078,0.027 -2.125,0.359 -3.062,0.894 -1.043,0.578 -1.977,1.477 -2.774,2.446 -0.504,0.652 -1.328,1.726 -1.656,2.488 v 0 l -8.422,19.902 v 0 c -0.434,0.977 -0.758,1.985 -0.973,3.028 -0.359,1.511 -0.394,3.054 -0.07,4.57 0.145,0.832 0.434,1.582 0.789,2.344 0.328,0.754 0.758,1.433 1.301,2.05 0.969,1.192 2.23,2.161 3.523,2.95 1.262,0.722 2.774,1.406 4.141,1.945 2.305,0.937 4.644,1.805 7.055,2.52 3.781,1.191 7.632,2.273 11.484,3.242 6.66,1.687 14.152,3.418 20.918,4.5 5.582,0.898 11.23,1.543 16.887,1.906 6.836,0.437 13.675,0.574 20.55,0.437 8.106,-0.144 16.165,-0.656 24.231,-1.55 7.129,-0.754 14.219,-1.907 21.199,-3.418 8.254,-1.77 17.57,-4.438 25.637,-6.875 1.687,-0.508 4.031,-1.301 5.613,-2.09 0.899,-0.434 1.945,-1.086 2.559,-1.875 0.617,-0.754 0.976,-1.758 1.152,-2.735 0.176,-1.046 0.149,-2.16 -0.039,-3.207 -0.137,-0.828 -0.359,-1.66 -0.645,-2.449 v 0 l -8.105,-21.953 v 0 c -0.281,-0.828 -0.645,-1.699 -1.035,-2.449 -0.574,-1.152 -1.406,-2.309 -2.449,-3.098 -0.981,-0.761 -2.2,-1.191 -3.391,-1.472 -0.965,-0.215 -2.012,-0.325 -3.016,-0.254 -0.871,0.039 -1.808,0.254 -2.629,0.465 v 0 l -8.281,2.882 v 0 c -0.683,0.254 -1.621,0.535 -2.304,0.75 v 0 l 4.316,20.305 -9.969,2.195 v 0" /><path
         id="path30"
         style="fill:#1a67bb;fill-opacity:1;fill-rule:nonzero;stroke:none"
         d="m 287.758,361.633 3.601,-10.578 -8.062,-2.703 -3.567,10.586 8.028,2.695" /><path
         id="path32"
         style="fill:#1a67bb;fill-opacity:1;fill-rule:nonzero;stroke:none"
         d="m 323.293,371.426 2.305,-11.055 -8.785,-2.078 -2.165,11.258 8.645,1.875" /><path
         id="path34"
         style="fill:#1a67bb;fill-opacity:1;fill-rule:nonzero;stroke:none"
         d="m 360.773,374.016 0.067,-10.942 -9.324,-0.215 0.359,11.157 h 8.898" /><path
         id="path36"
         style="fill:#1a67bb;fill-opacity:1;fill-rule:nonzero;stroke:none"
         d="m 397.707,370.918 -1.621,-11.336 -9.504,1.191 1.652,11.231 9.473,-1.086" /><path
         id="path38"
         style="fill:#1a67bb;fill-opacity:1;fill-rule:nonzero;stroke:none"
         d="m 432.91,360.664 -3.347,-10.547 -8.282,2.332 3.602,10.774 8.027,-2.559" /></g></g></svg>