<?xml version="1.0" encoding="UTF-8" standalone="no"?>
<svg
   xmlns:dc="http://purl.org/dc/elements/1.1/"
   xmlns:cc="http://creativecommons.org/ns#"
   xmlns:rdf="http://www.w3.org/1999/02/22-rdf-syntax-ns#"
   xmlns:svg="http://www.w3.org/2000/svg"
   xmlns="http://www.w3.org/2000/svg"
   viewBox="0 0 94.866669 132.66667"
   height="132.66667"
   width="94.866669"
   xml:space="preserve"
   id="svg2"
   version="1.1"><metadata
     id="metadata8"><rdf:RDF><cc:Work
         rdf:about=""><dc:format>image/svg+xml</dc:format><dc:type
           rdf:resource="http://purl.org/dc/dcmitype/StillImage" /></cc:Work></rdf:RDF></metadata><defs
     id="defs6" /><g
     transform="matrix(1.3333333,0,0,-1.3333333,0,132.66667)"
     id="g10"><g
       transform="scale(0.1)"
       id="g12"><path
         id="path14"
         style="fill:#ffffff;fill-opacity:1;fill-rule:nonzero;stroke:none"
         d="m 1.41797,1.41797 h 708.66 v 992.164 h -708.66 z" /><path
         id="path16"
         style="fill:none;stroke:#231f20;stroke-width:2.83500004;stroke-linecap:butt;stroke-linejoin:miter;stroke-miterlimit:4;stroke-dasharray:none;stroke-opacity:1"
         d="M 1.41797,1.41797 H 710.078 V 993.582 H 1.41797 V 1.41797" /><path
         id="path18"
         style="fill:#1a67bb;fill-opacity:1;fill-rule:nonzero;stroke:none"
         d="m 15.6016,15.6055 h 680.289 v 963.789 H 15.6016 Z" /><path
         id="path20"
         style="fill:#ffffff;fill-opacity:1;fill-rule:nonzero;stroke:none"
         d="M 107.727,391.191 H 603.77 V 887.238 H 107.727 Z" /><path
         id="path22"
         style="fill:#231f20;fill-opacity:1;fill-rule:nonzero;stroke:none"
         d="m 405.48,688.77 c 1.797,-0.903 3.563,-0.903 5.36,-0.903 3.566,0 7.168,1.801 9.863,4.469 v 0 l 105.02,105.945 7.199,-7.16 -107.715,-107.75 v 0 c -3.594,-3.605 -8.996,-6.305 -14.367,-6.305 -3.563,0 -8.055,0.903 -10.723,2.7 v 0 l -41.328,-42.227 18.859,-20.625 v 0 c 0,0.899 8.067,4.5 11.668,3.598 5.403,-0.903 8.094,-1.801 11.661,-5.399 v 0 L 508.652,506.426 v 0 c 6.301,-6.223 9.903,-20.625 -1.797,-31.391 -7.167,-7.199 -18.828,-8.101 -26.023,-0.898 v 0 l -110.383,110.41 v 0 c -4.461,4.5 -6.258,8.101 -7.156,10.801 -0.91,4.5 1.797,10.765 5.359,14.363 v 0 l -18.828,18.863 -19.73,-18.863 v 0 c 5.398,-5.398 8.101,-15.262 -1.797,-25.164 v 0 L 217.883,474.137 v 0 c -7.125,-7.203 -18.789,-6.301 -25.992,0.898 -11.664,10.766 -8.063,25.168 -1.797,31.391 v 0 L 297.77,615.113 v 0 c 3.597,3.598 6.296,4.496 11.66,5.399 6.304,0.902 11.703,-3.598 11.703,-3.598 v 0 l 20.625,20.625 -26.024,26.066 -4.504,3.563 v 0 c -1.8,0.898 -5.367,1.801 -8.062,1.801 h -4.5 v 0 c -1.801,0 -8.102,2.703 -9.863,3.601 -0.903,0.899 -2.7,1.801 -3.598,2.7 v 0 l -95.113,94.246 v 0 c -0.903,0.902 -9.867,10.8 -10.766,17.101 -1.805,6.266 0,14.363 2.699,20.664 1.801,5.399 5.368,9.864 8.965,13.461 v 0 L 313.031,702.199 v 0 c 0,0 -0.902,-4.469 -0.902,-7.164 0,-2.699 0,-6.265 0.902,-8.965 0.899,-1.8 9.899,-13.5 9.899,-13.5 v 0 l 26.894,-26.965 42.188,43.165 v 0 c -2.696,3.566 -4.492,7.164 -4.492,11.625 0,5.367 2.695,10.769 6.3,14.367 v 0 l 106.766,108.679 6.269,-7.195 -104.07,-105.988 v 0 c -2.668,-2.699 -4.472,-6.262 -4.472,-9.863 0,-1.762 0.906,-3.563 1.804,-5.36 v 0 L 514.055,809.98 519.453,803.684 405.48,688.77 v 0" /><path
         id="path24"
         style="fill:#ffffff;fill-opacity:1;fill-rule:nonzero;stroke:none"
         d="M 307.668,683.262 199.094,790.109 v 0 c -1.766,1.801 -5.367,4.5 -8.965,0.899 -3.602,-2.703 -1.805,-8.098 0.898,-10.762 v 0 l 93.348,-92.488 v 0 c 0.898,-0.895 2.629,-1.797 3.527,-2.699 9.004,-5.399 19.766,-1.797 19.766,-1.797 v 0" /></g></g></svg>