<?xml version="1.0" encoding="UTF-8" standalone="no"?>
<svg
   xmlns:dc="http://purl.org/dc/elements/1.1/"
   xmlns:cc="http://creativecommons.org/ns#"
   xmlns:rdf="http://www.w3.org/1999/02/22-rdf-syntax-ns#"
   xmlns:svg="http://www.w3.org/2000/svg"
   xmlns="http://www.w3.org/2000/svg"
   viewBox="0 0 94.866669 94.866669"
   height="94.866669"
   width="94.866669"
   xml:space="preserve"
   id="svg2"
   version="1.1"><metadata
     id="metadata8"><rdf:RDF><cc:Work
         rdf:about=""><dc:format>image/svg+xml</dc:format><dc:type
           rdf:resource="http://purl.org/dc/dcmitype/StillImage" /></cc:Work></rdf:RDF></metadata><defs
     id="defs6" /><g
     transform="matrix(1.3333333,0,0,-1.3333333,0,94.866667)"
     id="g10"><g
       transform="scale(0.1)"
       id="g12"><path
         id="path14"
         style="fill:#ffffff;fill-opacity:1;fill-rule:nonzero;stroke:none"
         d="m 1.41797,1.41797 h 708.66 v 708.656 h -708.66 z" /><path
         id="path16"
         style="fill:none;stroke:#231f20;stroke-width:2.83500004;stroke-linecap:butt;stroke-linejoin:miter;stroke-miterlimit:4;stroke-dasharray:none;stroke-opacity:1"
         d="M 1.41797,1.41797 H 710.078 V 710.074 H 1.41797 V 1.41797" /><path
         id="path18"
         style="fill:#1a67bb;fill-opacity:1;fill-rule:nonzero;stroke:none"
         d="M 15.6016,695.93 H 695.93 V 15.6016 H 15.6016 V 695.93" /><path
         id="path20"
         style="fill:#ffffff;fill-opacity:1;fill-rule:nonzero;stroke:none"
         d="m 107.727,136.055 v 439.379 h 198.214 v 0 c 3.418,0 7.454,-0.395 10.872,-0.789 10.082,-1.227 19.871,-4.321 28.835,-9 8.606,-4.5 16.379,-10.372 22.899,-17.5 5.793,-6.266 10.547,-13.426 14.219,-21.133 3.203,-6.801 5.613,-14.004 6.914,-21.414 0.64,-3.746 1.508,-9.18 1.508,-13 v 0 l -0.29,-107.313 v 0 c 0,-2.918 -0.933,-8.211 -1.472,-11.055 -1.731,-9.035 -5.074,-17.675 -9.719,-25.597 -4.684,-7.879 -10.586,-15.008 -17.535,-21.02 -6.297,-5.441 -13.32,-9.937 -20.809,-13.394 -8.136,-3.746 -16.883,-6.336 -25.812,-7.203 -3.383,-0.321 -6.766,-0.5 -10.153,-0.5 H 182.102 V 136.055 h -74.375 v 0" /><path
         id="path22"
         style="fill:#ffffff;fill-opacity:1;fill-rule:nonzero;stroke:none"
         d="m 476.188,263.605 h -85 v -42.519 h 85 v -85.031 h 42.511 v 85.031 h 85.071 v 42.519 h -85.071 v 85.067 h -42.511 v -85.067" /><path
         id="path24"
         style="fill:#1a67bb;fill-opacity:1;fill-rule:nonzero;stroke:none"
         d="m 182.066,375.348 v 130.57 H 306.48 v 0 c 1.008,0 2.125,-0.105 3.063,-0.43 0.648,-0.218 1.473,-0.687 2.051,-1.008 0.613,-0.398 1.472,-0.941 2.015,-1.402 0.539,-0.543 1.079,-1.262 1.512,-1.91 0.469,-0.723 0.934,-1.547 1.188,-2.34 0.289,-0.793 0.543,-1.765 0.543,-2.629 v 0 l -0.364,-110.125 v 0 c 0,-0.898 -0.07,-1.91 -0.32,-2.808 -0.184,-0.754 -0.578,-1.578 -0.938,-2.27 -0.433,-0.75 -0.937,-1.582 -1.515,-2.191 -0.535,-0.649 -1.258,-1.227 -1.977,-1.731 -0.648,-0.465 -1.441,-0.937 -2.195,-1.222 -1.152,-0.43 -2.734,-0.504 -4.035,-0.504 H 182.066 v 0" /></g></g></svg>