<?xml version="1.0" encoding="UTF-8" standalone="no"?>
<svg
   xmlns:dc="http://purl.org/dc/elements/1.1/"
   xmlns:cc="http://creativecommons.org/ns#"
   xmlns:rdf="http://www.w3.org/1999/02/22-rdf-syntax-ns#"
   xmlns:svg="http://www.w3.org/2000/svg"
   xmlns="http://www.w3.org/2000/svg"
   viewBox="0 0 94.866669 132.66667"
   height="132.66667"
   width="94.866669"
   xml:space="preserve"
   id="svg2"
   version="1.1"><metadata
     id="metadata8"><rdf:RDF><cc:Work
         rdf:about=""><dc:format>image/svg+xml</dc:format><dc:type
           rdf:resource="http://purl.org/dc/dcmitype/StillImage" /></cc:Work></rdf:RDF></metadata><defs
     id="defs6" /><g
     transform="matrix(1.3333333,0,0,-1.3333333,0,132.66667)"
     id="g10"><g
       transform="scale(0.1)"
       id="g12"><path
         id="path14"
         style="fill:#ffffff;fill-opacity:1;fill-rule:nonzero;stroke:none"
         d="m 1.41797,1.41797 h 708.66 v 992.121 h -708.66 z" /><path
         id="path16"
         style="fill:none;stroke:#231f20;stroke-width:2.83500004;stroke-linecap:butt;stroke-linejoin:miter;stroke-miterlimit:4;stroke-dasharray:none;stroke-opacity:1"
         d="M 1.41797,1.41797 H 710.078 V 993.539 H 1.41797 V 1.41797" /><path
         id="path18"
         style="fill:#1a67bb;fill-opacity:1;fill-rule:nonzero;stroke:none"
         d="m 15.5625,15.5664 h 680.328 v 963.793 H 15.5625 Z" /><path
         id="path20"
         style="fill:#ffffff;fill-opacity:1;fill-rule:nonzero;stroke:none"
         d="m 292.008,462.035 h -77.981 v 439.422 h 219.715 v 0 c 18.106,0 34.668,-2.379 51.192,-21.281 14.179,-16.524 13.386,-41.723 13.386,-41.723 V 691.215 c 0,-10.262 -5.507,-34.668 -18.894,-48.063 -11.016,-12.601 -29.16,-19.691 -45.684,-19.691 H 292.008 V 462.035" /><path
         id="path22"
         style="fill:#1a67bb;fill-opacity:1;fill-rule:nonzero;stroke:none"
         d="M 291.934,691.145 V 832.117 H 403.75 v 0 c 4.719,0 11.809,0 14.98,-3.957 2.336,-3.926 2.336,-5.508 2.336,-12.601 V 707.668 c 0,-5.512 -1.543,-9.438 -3.925,-11.809 -3.125,-3.132 -7.09,-4.714 -12.598,-4.714 H 291.934 v 0" /><path
         id="path24"
         style="fill:#ffffff;fill-opacity:1;fill-rule:nonzero;stroke:none"
         d="M 192.754,419.523 H 518.73 V 93.5469 H 192.754 V 419.523" /><path
         id="path26"
         style="fill:#1a67bb;fill-opacity:1;fill-rule:nonzero;stroke:none"
         d="m 355.727,400.051 c 38.308,0 74.519,-16.164 102.496,-42.668 27.57,-25.664 40.754,-63.789 40.351,-101.485 -0.828,-38.117 -16.054,-74.16 -43.23,-100.656 -26.75,-25.66 -62.141,-40.176 -99.188,-40.176 -37.472,0 -73.254,14.907 -100.004,41.438 -26.785,25.676 -42.011,61.277 -42.406,98.574 -0.832,38.516 12.344,77.473 40.75,103.535 27.574,25.274 63.395,41.438 101.231,41.438 v 0" /><path
         id="path28"
         style="fill:#ffffff;fill-opacity:1;fill-rule:nonzero;stroke:none"
         d="m 355.727,391.367 c 35.789,0 70.378,-15.332 96.734,-40.176 25.918,-24.043 38.262,-59.648 37.832,-95.293 -0.391,-35.593 -15.223,-69.98 -40.711,-94.824 -25.129,-24.043 -58.859,-37.297 -93.457,-37.297 -34.992,0 -68.727,14.082 -93.855,38.528 -25.09,24.445 -39.493,58 -40.317,92.773 -0.828,36.035 11.52,72.5 37.871,96.945 26.313,24.442 60.082,39.344 95.903,39.344 v 0" /><path
         id="path30"
         style="fill:#1a67bb;fill-opacity:1;fill-rule:nonzero;stroke:none"
         d="M 247.082,307.707 322.824,272.5 v 0 c 0,-0.43 -0.429,-1.262 -0.429,-1.262 -0.832,-2.488 -1.661,-4.539 -2.059,-6.621 -0.395,-2.488 -0.824,-4.539 -0.824,-6.629 0,-2.48 0.429,-5.359 0.824,-7.84 0.398,-2.089 1.227,-3.75 2.059,-5.8 0.429,-0.43 0.824,-1.262 0.824,-1.692 v 0 l -75.313,-34.773 v 0 c -0.429,0.43 -0.824,1.258 -1.261,2.09 -1.622,3.699 -3.274,8.269 -4.497,12.41 -1.656,6.191 -3.316,11.992 -4.14,18.222 -0.828,5.793 -1.227,12.024 -1.227,17.813 0,5.371 0.399,10.77 1.227,16.133 0.43,5 1.656,10.371 2.883,15.332 1.257,4.972 2.875,10.371 4.964,15.344 0.395,0.828 0.79,1.648 1.227,2.48 v 0" /><path
         id="path32"
         style="fill:#1a67bb;fill-opacity:1;fill-rule:nonzero;stroke:none"
         d="m 463.977,308.066 c 0.437,-0.832 0.828,-2.05 1.257,-2.878 3.282,-6.625 5.762,-14.075 6.993,-21.524 2.48,-10.371 3.308,-21.574 2.882,-31.906 -0.402,-7.051 -1.66,-14.11 -2.882,-20.735 -1.661,-7.019 -4.11,-14.07 -6.59,-21.089 -0.403,-0.43 -0.832,-2.09 -1.223,-2.922 v 0 l -74.922,35.215 v 0 c 0.403,0.82 0.403,1.652 0.832,2.082 0.828,2.058 1.219,4.136 1.66,5.796 0.789,2.051 0.789,4.536 0.789,6.625 0,2.047 -0.398,4.54 -0.789,7.02 -0.441,2.09 -0.832,4.57 -1.66,6.621 -0.429,0.828 -0.832,1.66 -0.832,2.09 v 0 l 74.485,35.605 v 0" /></g></g></svg>