<?xml version="1.0" encoding="UTF-8" standalone="no"?>
<svg
   xmlns:dc="http://purl.org/dc/elements/1.1/"
   xmlns:cc="http://creativecommons.org/ns#"
   xmlns:rdf="http://www.w3.org/1999/02/22-rdf-syntax-ns#"
   xmlns:svg="http://www.w3.org/2000/svg"
   xmlns="http://www.w3.org/2000/svg"
   viewBox="0 0 94.866669 132.66667"
   height="132.66667"
   width="94.866669"
   xml:space="preserve"
   id="svg2"
   version="1.1"><metadata
     id="metadata8"><rdf:RDF><cc:Work
         rdf:about=""><dc:format>image/svg+xml</dc:format><dc:type
           rdf:resource="http://purl.org/dc/dcmitype/StillImage" /></cc:Work></rdf:RDF></metadata><defs
     id="defs6" /><g
     transform="matrix(1.3333333,0,0,-1.3333333,0,132.66667)"
     id="g10"><g
       transform="scale(0.1)"
       id="g12"><path
         id="path14"
         style="fill:#ffffff;fill-opacity:1;fill-rule:nonzero;stroke:none"
         d="m 1.41797,1.41797 h 708.66 v 992.121 h -708.66 z" /><path
         id="path16"
         style="fill:none;stroke:#231f20;stroke-width:2.83500004;stroke-linecap:butt;stroke-linejoin:miter;stroke-miterlimit:4;stroke-dasharray:none;stroke-opacity:1"
         d="M 1.41797,1.41797 H 710.078 V 993.539 H 1.41797 V 1.41797" /><path
         id="path18"
         style="fill:#007f46;fill-opacity:1;fill-rule:nonzero;stroke:none"
         d="m 328.652,556.539 0.328,15.586 -109.296,0.902 L 152.832,305.48 15.6016,109.453 V 979.359 H 624.719 L 451.309,731.715 400.227,943.938 h -23.262 l 3.601,-256.25 h 39.922 L 390.43,644.773 H 58.1172 v -36.105 h 69.7658 v -71.031 h 35.027 l 18.977,71.031 h 183.269 l -36.504,-52.129" /><path
         id="path20"
         style="fill:#007f46;fill-opacity:1;fill-rule:nonzero;stroke:none"
         d="m 113.086,50.9844 h 204.516 l 6.589,301.5036 58.965,84.2 3.535,-385.7036 H 613.66 L 489.824,573.027 h -11.191 l 24.941,35.641 h 25.383 l 16.277,-71.031 h 34.993 v 71.031 h 73.152 v 36.105 H 528.848 L 695.891,883.344 V 15.6055 H 88.2813 l 24.8047,35.3789" /><path
         id="path22"
         style="fill:#ffffff;fill-opacity:1;fill-rule:nonzero;stroke:none"
         d="m 313.281,943.938 -64.148,-256.25 82.187,0.464 6.118,255.786 h -24.157" /><path
         id="path24"
         style="fill:#ee2c30;fill-opacity:1;fill-rule:nonzero;stroke:none"
         d="M 79.6445,15.6055 695.891,895.691 v 83.668 H 633.359 L 15.6016,97.1094 V 15.6055 h 64.0429" /></g></g></svg>