<?xml version="1.0" encoding="UTF-8" standalone="no"?>
<svg
   xmlns:dc="http://purl.org/dc/elements/1.1/"
   xmlns:cc="http://creativecommons.org/ns#"
   xmlns:rdf="http://www.w3.org/1999/02/22-rdf-syntax-ns#"
   xmlns:svg="http://www.w3.org/2000/svg"
   xmlns="http://www.w3.org/2000/svg"
   viewBox="0 0 94.866669 94.866669"
   height="94.866669"
   width="94.866669"
   xml:space="preserve"
   id="svg2"
   version="1.1"><metadata
     id="metadata8"><rdf:RDF><cc:Work
         rdf:about=""><dc:format>image/svg+xml</dc:format><dc:type
           rdf:resource="http://purl.org/dc/dcmitype/StillImage" /></cc:Work></rdf:RDF></metadata><defs
     id="defs6" /><g
     transform="matrix(1.3333333,0,0,-1.3333333,0,94.866667)"
     id="g10"><g
       transform="scale(0.1)"
       id="g12"><path
         id="path14"
         style="fill:#ffffff;fill-opacity:1;fill-rule:nonzero;stroke:none"
         d="m 1.41406,1.41797 h 708.664 v 708.656 H 1.41406 Z" /><path
         id="path16"
         style="fill:none;stroke:#231f20;stroke-width:2.83500004;stroke-linecap:butt;stroke-linejoin:miter;stroke-miterlimit:4;stroke-dasharray:none;stroke-opacity:1"
         d="M 1.41406,1.41797 H 710.078 V 710.074 H 1.41406 V 1.41797" /><path
         id="path18"
         style="fill:#1a67bb;fill-opacity:1;fill-rule:nonzero;stroke:none"
         d="M 244.418,284.48 15.8164,55.8477 V 695.641 H 655.574 L 451.523,491.59 v 0 c -11.515,5.328 -23.652,9.215 -36.144,11.086 -31.895,4.863 -64.367,-1.078 -92.84,-15.696 -14.332,-7.414 -27.719,-17.136 -38.414,-29.05 -18.504,-20.555 -32.652,-50.145 -36.469,-72.325 -1.261,-7.777 -3.418,-18.937 -3.812,-26.89 -1.805,2.519 -3.961,6.152 -5.617,8.672 -6.157,9.543 -11.774,19.297 -17.391,29.379 -9.43,17.711 -16.707,37.371 -19.043,57.203 -1.082,9.363 0.18,19.117 2.738,28.152 0.899,3.059 1.977,6.301 2.875,9.359 v 0 l -5.797,4.5 -129.0895,-127.152 0.1758,-9.035 v 0 c 4.5352,0.719 9.6133,1.262 14.332,1.797 7.4141,0.906 15.4027,1.086 22.8557,0.183 16.308,-2.16 35.176,-10.078 49.863,-17.675 23.363,-11.7 45.141,-26.313 65.27,-43.094 6.476,-5.293 12.992,-10.906 19.402,-16.524 v 0" /><path
         id="path20"
         style="fill:#1a67bb;fill-opacity:1;fill-rule:nonzero;stroke:none"
         d="M 527.156,416.922 696.141,585.91 V 15.3125 H 125.547 L 329.375,219.102 v 0 c 0.508,-0.247 1.012,-0.469 1.512,-0.715 15.41,-7.235 33.008,-10.477 49.863,-11.375 28.84,-1.621 58.215,3.781 83.047,18.211 19.953,11.379 38.769,28.519 54.394,45.293 v 0 l 98.965,105.152 v 0 c 2.024,2.16 4.543,4.324 7.453,4.859 1.258,0.399 3.457,0.399 4.715,0.399 1.086,0 2.922,-0.18 3.996,0 1.805,0.359 4.364,1.262 6.16,2.16 v 0 l -34.988,33.73 -4.004,-5.796 0.36,-4.497 v 0 c 0.363,-2.699 0.363,-7.203 -1.621,-9.218 v 0 l -58.926,-59.328 v 0 c 0.176,7.378 0.363,18.214 0,25.597 -0.723,11.379 -2.735,22.75 -5.977,33.731 -1.941,6.66 -4.316,13.246 -7.168,19.617 v 0" /><path
         id="path22"
         style="fill:#ee2c30;fill-opacity:1;fill-rule:nonzero;stroke:none"
         d="M 115.32,15.5938 695.887,596.168 v 99.719 H 665.332 L 15.6016,46.1211 V 15.5938 H 115.32" /><path
         id="path24"
         style="fill:#fcd213;fill-opacity:1;fill-rule:nonzero;stroke:none"
         d="m 527.156,416.922 c 2.852,-6.371 5.227,-12.957 7.168,-19.617 3.242,-10.981 5.254,-22.352 5.977,-33.731 0.363,-7.383 0.176,-18.219 0,-25.597 v 0 l 58.926,59.328 v 0 c 1.984,2.015 1.984,6.519 1.621,9.218 v 0 l -0.36,4.497 4.004,5.796 34.988,-33.73 v 0 c -1.796,-0.898 -4.355,-1.801 -6.16,-2.16 -1.074,-0.18 -2.91,0 -3.996,0 -1.258,0 -3.457,0 -4.715,-0.399 -2.91,-0.535 -5.429,-2.699 -7.453,-4.859 v 0 L 518.191,270.516 v 0 c -15.625,-16.774 -34.441,-33.914 -54.394,-45.293 -24.832,-14.43 -54.207,-19.832 -83.047,-18.211 -16.855,0.898 -34.453,4.14 -49.863,11.375 -0.5,0.246 -1.004,0.468 -1.512,0.715 v 0 l 42.266,42.265 v 0 c 6.699,-1.476 13.679,-2.226 20.839,-2.226 53.536,0 96.993,43.273 96.993,96.547 0,7.277 -0.832,14.367 -2.344,21.167 v 0 l 40.027,40.067 v 0" /><path
         id="path26"
         style="fill:#fcd213;fill-opacity:1;fill-rule:nonzero;stroke:none"
         d="m 244.418,284.48 c -6.41,5.618 -12.926,11.231 -19.402,16.524 -20.129,16.781 -41.907,31.394 -65.27,43.094 -14.687,7.597 -33.555,15.515 -49.863,17.675 -7.453,0.903 -15.4416,0.723 -22.8557,-0.183 -4.7187,-0.535 -9.7968,-1.078 -14.332,-1.797 v 0 l -0.1758,9.035 129.0895,127.152 5.797,-4.5 v 0 c -0.898,-3.058 -1.976,-6.3 -2.875,-9.359 -2.558,-9.035 -3.82,-18.789 -2.738,-28.152 2.336,-19.832 9.613,-39.492 19.043,-57.203 5.617,-10.082 11.234,-19.836 17.391,-29.379 1.656,-2.52 3.812,-6.153 5.617,-8.672 0.394,7.953 2.551,19.113 3.812,26.89 3.817,22.18 17.965,51.77 36.469,72.325 10.695,11.914 24.082,21.636 38.414,29.05 28.473,14.618 60.945,20.559 92.84,15.696 12.492,-1.871 24.629,-5.758 36.144,-11.086 v 0 l -41.007,-41.004 v 0 c -5.868,1.078 -11.875,1.656 -18.036,1.656 -53.527,0 -96.976,-43.273 -96.976,-96.554 0,-6.266 0.609,-12.418 1.762,-18.36 v 0 L 244.418,284.48 v 0" /><path
         id="path28"
         style="fill:#1a67bb;fill-opacity:1;fill-rule:nonzero;stroke:none"
         d="m 297.266,337.328 113.25,113.258 v 0 c -5.868,1.078 -11.875,1.656 -18.036,1.656 -53.527,0 -96.976,-43.273 -96.976,-96.554 0,-6.266 0.609,-12.418 1.762,-18.36 v 0" /><path
         id="path30"
         style="fill:#1a67bb;fill-opacity:1;fill-rule:nonzero;stroke:none"
         d="M 487.129,376.855 371.641,261.367 v 0 c 6.699,-1.476 13.679,-2.226 20.839,-2.226 53.536,0 96.993,43.273 96.993,96.547 0,7.277 -0.832,14.367 -2.344,21.167 v 0" /></g></g></svg>