<?xml version="1.0" encoding="UTF-8" standalone="no"?>
<svg
   xmlns:dc="http://purl.org/dc/elements/1.1/"
   xmlns:cc="http://creativecommons.org/ns#"
   xmlns:rdf="http://www.w3.org/1999/02/22-rdf-syntax-ns#"
   xmlns:svg="http://www.w3.org/2000/svg"
   xmlns="http://www.w3.org/2000/svg"
   viewBox="0 0 94.866669 132.66667"
   height="132.66667"
   width="94.866669"
   xml:space="preserve"
   id="svg2"
   version="1.1"><metadata
     id="metadata8"><rdf:RDF><cc:Work
         rdf:about=""><dc:format>image/svg+xml</dc:format><dc:type
           rdf:resource="http://purl.org/dc/dcmitype/StillImage" /></cc:Work></rdf:RDF></metadata><defs
     id="defs6" /><g
     transform="matrix(1.3333333,0,0,-1.3333333,0,132.66667)"
     id="g10"><g
       transform="scale(0.1)"
       id="g12"><path
         id="path14"
         style="fill:#ffffff;fill-opacity:1;fill-rule:nonzero;stroke:none"
         d="m 1.41797,1.41797 h 708.66 v 992.164 h -708.66 z" /><path
         id="path16"
         style="fill:none;stroke:#231f20;stroke-width:2.83500004;stroke-linecap:butt;stroke-linejoin:miter;stroke-miterlimit:4;stroke-dasharray:none;stroke-opacity:1"
         d="M 1.41797,1.41797 H 710.078 V 993.582 H 1.41797 V 1.41797" /><path
         id="path18"
         style="fill:#1a67bb;fill-opacity:1;fill-rule:nonzero;stroke:none"
         d="m 15.6016,15.6055 h 680.289 v 963.789 H 15.6016 Z" /><path
         id="path20"
         style="fill:#ffffff;fill-opacity:1;fill-rule:nonzero;stroke:none"
         d="M 107.727,391.191 H 603.77 V 887.238 H 107.727 Z" /><path
         id="path22"
         style="fill:#231f20;fill-opacity:1;fill-rule:nonzero;stroke:none"
         d="m 153.766,504.918 403.961,-0.328 v 11.558 h -66.426 v 172.153 h 34.707 L 410.234,795.148 294.602,688.301 h 37.507 V 516.148 H 271.633 L 236.387,627.57 v 0 c 4.25,-1.621 11.015,-4.25 15.371,-5.761 8.281,-3.059 16.812,-5.797 25.347,-8.426 9.68,-2.805 20.805,-5.758 30.883,-7.27 4.25,-0.797 10.407,-1.441 14.653,-1.875 -6.371,4.356 -15.477,10.586 -21.743,15.157 -8.421,6.125 -16.597,12.531 -24.41,19.296 -8.027,6.875 -15.73,14.184 -22.968,21.711 -3.778,4.032 -8.852,9.68 -12.524,13.715 2.016,-0.543 5.688,-1.73 7.699,-2.379 4.825,-1.441 9.832,-2.84 14.801,-4.14 6.152,-1.657 13.141,-3.164 19.406,-3.922 3.418,-0.469 8.274,-0.789 11.7,-1.008 -2.235,1.547 -5.188,3.602 -7.344,5.258 -4.25,3.168 -9.223,7.304 -13.25,10.656 -8.75,7.414 -18.324,16.051 -26.281,24.227 -7.2,7.523 -14.075,15.48 -20.34,23.652 -6.731,8.711 -13.032,17.785 -18.934,26.93 -5.687,8.816 -11.015,17.996 -16.094,27.035 -0.363,0.758 -6.406,11.551 -6.769,12.308 -1.043,2.09 -4.141,7.418 -5.184,9.508 0.106,-3.492 0.36,-8.176 0.574,-11.664 0.254,-1.984 0.833,-11.015 1.083,-13 0.687,-9.14 1.296,-19.402 1.66,-28.543 0.461,-14.078 0.105,-28.691 -0.469,-42.734 -0.723,-15.914 -2.164,-32.727 -4.504,-48.528 -2.016,-13.539 -4.859,-26.929 -8.422,-40.105 -1.515,-5.797 -3.531,-12.352 -5.797,-17.891 -0.722,-1.765 -1.871,-4.464 -2.593,-6.226 2.593,1.762 6.265,4.137 8.859,5.902 6.406,4.465 12.562,9.469 18.359,14.723 4.75,4.14 9.36,8.605 13.715,13.07 2.484,2.52 5.688,5.797 8.063,8.277 -1.547,-3.812 -3.922,-9.359 -5.684,-13.175 -3.785,-8.063 -8.75,-16.125 -13.863,-23.543 -5.293,-7.739 -11.699,-15.84 -17.602,-23.11 -3.203,-3.925 -8.644,-10.371 -11.847,-14.187 1.187,0.324 2.847,0.758 4.035,1.187 3.168,0.973 6.265,2.09 9.32,3.387 9.004,3.816 17.535,8.93 25.094,14.723 6.519,4.785 12.457,10.152 18.109,15.8 2.629,2.743 5.469,5.692 7.953,8.606 1.047,1.117 2.235,2.519 3.172,3.602 v 0 l 23.438,-92.665 -99.18,0.106 -0.113,-11.336 v 0" /><path
         id="path24"
         style="fill:#ffffff;fill-opacity:1;fill-rule:nonzero;stroke:none"
         d="m 376.75,516.148 v 100.836 h 67 V 516.148 h -67 v 0" /></g></g></svg>