<?xml version="1.0" encoding="UTF-8" standalone="no"?>
<svg
   xmlns:dc="http://purl.org/dc/elements/1.1/"
   xmlns:cc="http://creativecommons.org/ns#"
   xmlns:rdf="http://www.w3.org/1999/02/22-rdf-syntax-ns#"
   xmlns:svg="http://www.w3.org/2000/svg"
   xmlns="http://www.w3.org/2000/svg"
   xmlns:sodipodi="http://sodipodi.sourceforge.net/DTD/sodipodi-0.dtd"
   xmlns:inkscape="http://www.inkscape.org/namespaces/inkscape"
   version="1.0"
   width="30.614328"
   height="35.553535"
   id="svg2617"
   inkscape:version="0.48.0 r9654"
   sodipodi:docname="CH-Zusatztafel-Mountain-Bike.svg">
  <metadata
     id="metadata19">
    <rdf:RDF>
      <cc:Work
         rdf:about="">
        <dc:format>image/svg+xml</dc:format>
        <dc:type
           rdf:resource="http://purl.org/dc/dcmitype/StillImage" />
      </cc:Work>
    </rdf:RDF>
  </metadata>
  <sodipodi:namedview
     pagecolor="#ffffff"
     bordercolor="#666666"
     borderopacity="1"
     objecttolerance="10"
     gridtolerance="10"
     guidetolerance="10"
     inkscape:pageopacity="0"
     inkscape:pageshadow="2"
     inkscape:window-width="1024"
     inkscape:window-height="688"
     id="namedview17"
     showgrid="false"
     fit-margin-top="0"
     fit-margin-left="0"
     fit-margin-right="0"
     fit-margin-bottom="0"
     inkscape:zoom="0.70710678"
     inkscape:cx="120.6182"
     inkscape:cy="-57.081344"
     inkscape:window-x="-8"
     inkscape:window-y="-8"
     inkscape:window-maximized="1"
     inkscape:current-layer="svg2617" />
  <defs
     id="defs2619" />
  <g
     transform="translate(-144.69917,-580.3035)"
     id="layer1">
    <g
       transform="matrix(1.249992,0,0,-1.249992,-210.0162,1130.78)"
       style="font-style:normal;font-variant:normal;font-weight:normal;font-stretch:normal;letter-spacing:normal;word-spacing:normal;text-anchor:start;fill:none;stroke:#000000;stroke-linecap:butt;stroke-linejoin:miter;stroke-miterlimit:10.43299961;stroke-opacity:1;stroke-dasharray:none;stroke-dashoffset:0"
       id="g10"
       xml:space="preserve">
<path
   d="m 299.69,437.45 -0.01,-0.06 -0.02,-0.05 -0.01,-0.05 -0.02,-0.05 -0.01,-0.05 -0.02,-0.06 -0.03,-0.11 -0.02,-0.05 -0.02,-0.05 -0.02,-0.06 -0.02,-0.05 -0.02,-0.05 -0.02,-0.05 -0.02,-0.05 -0.02,-0.04 c -0.3,-0.57 -0.91,-0.96 -1.52,-1 -0.69,-0.01 -1.22,0.62 -1.32,1.31 -0.06,0.44 0.02,0.98 0.14,1.41 l 0,0 2.98,-0.89 z"
   style="fill:#000000;fill-rule:nonzero;stroke-width:0"
   id="path12"
   inkscape:connector-curvature="0" />
<path
   d="m 296.75,438.63 0.02,0.05 0.01,0.04 0.04,0.1 0.03,0.09 0.03,0.1 0.04,0.09 0.02,0.05 0.02,0.04 0.02,0.05 0.02,0.04 0.02,0.04 0.02,0.05 c 0.23,0.5 0.7,0.89 1.23,0.96 0.59,0.07 1.18,-0.31 1.43,-0.83 l 0,0 0.92,-2.06 -3.87,1.19 z"
   style="fill:#000000;fill-rule:nonzero;stroke-width:0"
   id="path14"
   inkscape:connector-curvature="0" />
<path
   d="m 303.12,436.9 3.37,-2.97 0,0 c 0.26,-0.22 0.2,-0.67 0.08,-1 -0.15,-0.38 -0.57,-0.9 -0.87,-1.16 -0.11,-0.08 -0.25,-0.15 -0.37,-0.11 -0.17,0.07 -0.31,0.3 -0.38,0.46 l 0,0 -0.42,0.88 0,0 c -0.21,0.44 -0.62,1.12 -0.89,1.54 l 0,0 -1.08,1.46 0,0 c -0.09,0.08 -0.4,0.34 -0.49,0.43 -0.06,0.07 -0.1,0.17 -0.08,0.27 0.07,0.33 0.88,0.43 1.13,0.2 z"
   style="fill:#000000;fill-rule:nonzero;stroke-width:0"
   id="path16"
   inkscape:connector-curvature="0" />
<path
   d="m 305.16,430.86 -0.06,0.18 -0.07,0.19 -0.07,0.18 -0.08,0.19 -0.08,0.18 -0.08,0.19 -0.16,0.37 -0.18,0.36 -0.18,0.36 -0.18,0.36 -0.2,0.35 c -0.36,0.66 -0.8,1.35 -1.33,1.93 -0.36,0.39 -0.85,0.75 -1.38,0.83 -0.6,0.1 -1.31,-0.2 -1.82,-0.54 l 0,0 -6.09,-3.88 0,0 c -0.63,0.25 -1.32,-0.18 -1.37,-0.85 -0.04,-0.64 0.64,-1.2 1.26,-1.02 0.2,0.06 0.38,0.18 0.51,0.35 l 0,0 1.35,-1.13 -2.71,-3.05 -0.51,-0.58 0,0 c -0.91,0.76 -2,1.14 -3.19,1.12 -2.38,-0.06 -4.41,-1.9 -4.69,-4.26 -0.14,-1.19 0.13,-2.3 0.8,-3.28 0.37,-0.54 0.83,-1 1.39,-1.36 1.63,-1.03 3.9,-0.98 5.5,0.2 1.57,1.18 2.28,3.32 1.75,5.2 -0.18,0.62 -0.48,1.2 -0.88,1.7 l 0,0 1.15,1.34 2.05,-7.76 2.99,-0.98 0,0 c -0.63,-3.2 2.03,-6.07 5.28,-5.73 2.6,0.28 4.53,2.64 4.32,5.21 -0.11,1.29 -0.68,2.4 -1.66,3.26 -0.98,0.85 -2.16,1.25 -3.47,1.17 l 0,0 -0.36,2.2 2.59,2.94 0,0 c 0.24,0.27 0.42,0.61 0.47,0.97 0.04,0.3 0.02,0.61 -0.03,0.9 -0.12,0.74 -0.32,1.47 -0.58,2.19 z"
   style="fill:#000000;fill-rule:nonzero;stroke-width:0"
   id="path18"
   inkscape:connector-curvature="0" />
<polygon
   points="295.11,428.16 296.39,429.54 294.59,431.04 299.16,433.75 301.57,429.13 301.57,429.13 297.69,428.3 297.58,427.25 "
   style="fill:#ffffff;fill-rule:nonzero;stroke:#ffffff;stroke-width:0"
   id="polygon20" />
<path
   d="m 303.31,420.31 0.15,0 0.14,-0.01 0.14,-0.02 0.15,-0.02 0.14,-0.02 0.13,-0.04 0.14,-0.03 0.14,-0.05 0.13,-0.05 0.13,-0.05 0.13,-0.06 0.12,-0.06 0.12,-0.07 0.12,-0.07 0.12,-0.08 0.11,-0.08 0.11,-0.09 0.11,-0.09 0.1,-0.09 0.1,-0.1 0.1,-0.1 0.09,-0.11 0.08,-0.11 0.09,-0.11 0.07,-0.11 0.08,-0.12 0.07,-0.13 0.06,-0.12 0.06,-0.13 0.05,-0.13 0.05,-0.13 0.04,-0.14 c 0.41,-1.46 -0.18,-3.08 -1.49,-3.93 -1.15,-0.73 -2.66,-0.72 -3.8,0.03 -1.17,0.76 -1.75,2.15 -1.55,3.47 l 0,0 3.27,-1.03 0,0 c 0.19,-0.06 0.4,-0.03 0.57,0.09 0.19,0.14 0.28,0.38 0.23,0.62 l 0,0 -0.6,3.27 z"
   style="fill:#ffffff;fill-rule:nonzero;stroke:#ffffff;stroke-width:0"
   id="path22"
   inkscape:connector-curvature="0" />
<path
   d="m 301.84,417.72 0.8,-0.27 0,0 c 0.05,-0.02 0.1,0 0.13,0.04 0.02,0.02 0.03,0.06 0.02,0.09 l 0,0 -0.43,2.6 0,0 c -0.47,-0.11 -0.9,-0.33 -1.28,-0.64 -0.4,-0.34 -0.73,-0.77 -0.93,-1.27 l 0,0 1.69,-0.55 z"
   style="fill:#ffffff;fill-rule:nonzero;stroke:#ffffff;stroke-width:0"
   id="path24"
   inkscape:connector-curvature="0" />
<polygon
   points="299.44,425.59 299.44,425.59 300.61,425.14 298.76,421.91 "
   style="fill:#ffffff;fill-rule:nonzero;stroke:#ffffff;stroke-width:0"
   id="polygon26" />
<polygon
   points="301.5,426.73 301.5,426.73 299.6,426.53 301.1,426 "
   style="fill:#ffffff;fill-rule:nonzero;stroke:#ffffff;stroke-width:0"
   id="polygon28" />
<path
   d="m 290.9,424.8 -0.07,0.06 -0.07,0.05 -0.07,0.05 -0.07,0.05 -0.07,0.05 -0.07,0.04 -0.07,0.04 -0.07,0.04 -0.08,0.04 -0.07,0.04 -0.08,0.03 -0.07,0.04 -0.08,0.03 -0.07,0.03 -0.08,0.03 -0.08,0.02 -0.08,0.02 -0.07,0.03 -0.08,0.01 -0.08,0.02 -0.08,0.02 -0.09,0.01 -0.08,0.01 -0.08,0.01 -0.08,0.01 -0.09,0.01 -0.08,0 -0.08,0 -0.09,0 -0.08,0 -0.09,-0.01 -0.09,0 c -1.84,-0.15 -3.27,-1.76 -3.18,-3.62 0.08,-1.8 1.59,-3.28 3.39,-3.31 1.79,-0.04 3.33,1.32 3.53,3.09 0.1,0.88 -0.12,1.71 -0.65,2.42 l 0,0 -2.05,-2.25 -0.83,-0.22 0,0 c -0.29,-0.08 -0.59,0.13 -0.63,0.43 -0.02,0.24 0.13,0.47 0.37,0.54 l 0,0 0.64,0.16 1.9,1.98 z"
   style="fill:#ffffff;fill-rule:nonzero;stroke:#ffffff;stroke-width:0"
   id="path30"
   inkscape:connector-curvature="0" />
<path
   d="m 298.86,418.71 0.05,0.13 0.06,0.14 0.06,0.13 0.07,0.12 0.07,0.13 0.08,0.12 0.08,0.13 0.08,0.11 0.09,0.12 0.09,0.11 0.09,0.11 0.1,0.11 0.1,0.1 0.11,0.11 0.11,0.09 0.11,0.1 c 0.54,0.45 1.2,0.78 1.9,0.93 l 0,0 -0.22,1.46 -3.11,-3.1 0,0 c -0.24,-0.24 -0.57,-0.35 -0.9,-0.31 -0.59,0.07 -1.01,0.59 -0.94,1.18 l 0,0 0.58,5.55 -3.07,1.12 -0.14,-0.13 2.03,-7.73 2.52,-0.83 z"
   style="fill:#ffffff;fill-rule:nonzero;stroke:#ffffff;stroke-width:0"
   id="path32"
   inkscape:connector-curvature="0" />
</g>  </g>
</svg>
