<?xml version="1.0" encoding="UTF-8" standalone="no"?>
<svg
   version="1.0"
   width="116.69926"
   height="35.437275"
   id="svg1891"
   sodipodi:docname="CH-Zusatztafel-Autoverlad_auf_Eisenbahn.svg"
   inkscape:version="1.1.2 (b8e25be833, 2022-02-05)"
   xmlns:inkscape="http://www.inkscape.org/namespaces/inkscape"
   xmlns:sodipodi="http://sodipodi.sourceforge.net/DTD/sodipodi-0.dtd"
   xmlns="http://www.w3.org/2000/svg"
   xmlns:svg="http://www.w3.org/2000/svg">
  <sodipodi:namedview
     id="namedview12"
     pagecolor="#ffffff"
     bordercolor="#666666"
     borderopacity="1.0"
     inkscape:pageshadow="2"
     inkscape:pageopacity="0.0"
     inkscape:pagecheckerboard="true"
     showgrid="false"
     inkscape:zoom="10.728432"
     inkscape:cx="75.267292"
     inkscape:cy="21.484967"
     inkscape:window-width="1920"
     inkscape:window-height="1001"
     inkscape:window-x="-9"
     inkscape:window-y="-9"
     inkscape:window-maximized="1"
     inkscape:current-layer="svg1891" />
  <defs
     id="defs1893" />
  <g
     transform="translate(-335.9361,-551.7865)"
     id="layer1">
    <g
       transform="matrix(1.249992,0,0,-1.249992,23.63809,1100.533)"
       style="font-style:normal;font-variant:normal;font-weight:normal;font-stretch:normal;letter-spacing:normal;word-spacing:normal;text-anchor:start;fill:none;fill-opacity:1;stroke:#000000;stroke-linecap:butt;stroke-linejoin:miter;stroke-miterlimit:10.433;stroke-dasharray:none;stroke-dashoffset:0;stroke-opacity:1"
       id="g10"
       xml:space="preserve">
<path
   id="path12"
   style="fill:#000000;fill-rule:nonzero;stroke-width:0"
   d="M 20.074219,0 16.238281,4.6132812 11.587891,5.3125 c -0.025,0 -0.850391,0.125 -0.900391,0.125 C 10.400002,5.4875 10.037889,5.5750011 9.7753906,5.75 9.5003924,5.9249989 9.3121084,6.1632829 9.1621094,6.4257812 9.0121103,6.7007795 8.9378904,6.9878925 8.9003906,7.2753906 L 8.4375,10.863281 c -0.025,0.212499 -0.050781,0.449611 -0.050781,0.66211 0,0.199998 0.025001,0.487891 0.125,0.65039 0.099999,0.149999 0.2386728,0.260938 0.3886718,0.335938 0.1999987,0.075 0.3871108,0.125 0.5996094,0.125 h 3.3007808 c 0.025,0.199998 0.075,0.464064 0.125,0.664062 0.124999,0.524997 0.312111,1.037503 0.59961,1.5 0.249998,0.424998 0.562892,0.799221 0.90039,1.136719 0.199999,0.187499 0.485939,0.41172 0.710938,0.574219 H 4.5742188 V 20.6875 H 13.625 c -0.412497,0.462497 -1.025002,1.137894 -1.3125,1.650391 -0.387498,0.674995 -0.599609,1.461333 -0.599609,2.236328 0,0.837494 0.24883,1.675004 0.673828,2.375 0.287498,0.462497 0.850783,1.062893 1.238281,1.46289 H 0 V 35.4375 h 116.69922 v -7.025391 h -12.61328 c 0.3875,-0.374997 0.95078,-0.912112 1.23828,-1.349609 0.5125,-0.724995 0.79961,-1.574615 0.84961,-2.474609 0.05,-0.787495 -0.10039,-1.588286 -0.46289,-2.300782 -0.2625,-0.499996 -0.825,-1.162112 -1.1875,-1.599609 h 8.28906 v -4.175781 h -10.53906 c 0.1875,-0.162499 0.48828,-0.38672 0.67578,-0.574219 0.3375,-0.337498 0.62578,-0.724221 0.86328,-1.136719 0.25,-0.412497 0.42422,-0.864065 0.51172,-1.289062 0.075,-0.274998 0.14922,-0.637502 0.19922,-0.875 0.2,0 0.51367,0.025 0.70117,0 0.2625,-0.05 0.55,-0.124611 0.75,-0.28711 0.175,-0.149999 0.29883,-0.362892 0.36133,-0.58789 0.0875,-0.212499 0.10156,-0.574221 0.10156,-0.824219 V 7.6367188 c 0,-0.3624977 -0.075,-0.7250022 -0.1875,-1.0625 -0.125,-0.324998 -0.31289,-0.6117202 -0.58789,-0.8242188 -0.2875,-0.2374985 -0.65117,-0.3882819 -1.01367,-0.4882812 -0.325,-0.0625 -0.97461,-0.1000002 -1.28711,-0.125 L 94.236328,4.6132812 89.5625,0 h -18.25 L 67.511719,4.6132812 61.9375,5.1621094 c -0.262498,0.0375 -0.538283,0.075 -0.800781,0.125 -0.262499,0.074999 -0.537111,0.1625009 -0.78711,0.3125 -0.249998,0.1999987 -0.44961,0.4746113 -0.599609,0.7871094 -0.137499,0.312498 -0.213281,0.6636741 -0.238281,1.0136718 l -0.28711,3.5117184 c -0.025,0.249999 -0.025,0.487111 0,0.72461 0,0.199998 0.03711,0.438282 0.16211,0.613281 0.124999,0.174999 0.313673,0.2625 0.513672,0.3125 0.199998,0.075 0.51211,0.07422 0.724609,0.07422 h 2.662109 c 0.0625,0.199998 0.075,0.513673 0.125,0.701172 0.125,0.537496 0.312893,1.075393 0.587891,1.52539 0.287498,0.437497 0.624612,0.824612 1.037109,1.16211 0.174999,0.149999 0.462892,0.348829 0.650391,0.486328 H 51.650391 c 0.249998,-0.162499 0.573829,-0.448439 0.798828,-0.648438 0.337498,-0.337498 0.613673,-0.713284 0.826172,-1.113281 0.199998,-0.362498 0.36211,-0.774612 0.474609,-1.162109 0.0625,-0.287499 0.137891,-0.676174 0.150391,-0.951172 0.137499,0 0.298829,-0.02383 0.423828,-0.04883 0.287498,-0.05 0.551173,-0.150392 0.763672,-0.337891 0.174999,-0.149999 0.3,-0.337892 0.375,-0.525391 0.1,-0.274998 0.111328,-0.650001 0.111328,-0.9375 V 7.6875 c 0,-0.3874975 -0.08711,-0.7996117 -0.28711,-1.1621094 -0.199998,-0.312498 -0.450392,-0.587501 -0.77539,-0.75 C 54.174221,5.5753919 53.749607,5.4496091 53.349609,5.4121094 L 52.087891,5.3125 42.923828,4.6132812 38.4375,0 Z m 2,12.650391 h 22.638672 c 0,0.187498 0.025,0.48672 0.0625,0.699218 0.0875,0.512497 0.248829,1.012113 0.486328,1.47461 0.249998,0.437497 0.562112,0.850002 0.974609,1.1875 0.212499,0.174999 0.588674,0.376173 0.826172,0.513672 H 19.636719 c 0.237498,-0.199999 0.588282,-0.450392 0.800781,-0.650391 0.362498,-0.362498 0.674221,-0.737112 0.949219,-1.162109 0.262498,-0.449997 0.451172,-0.937504 0.576172,-1.4375 0.05,-0.199999 0.08633,-0.462501 0.111328,-0.625 z m 50.349609,0 h 22.75 c 0.025,0.212498 0.05117,0.586329 0.07617,0.798828 0.075,0.487497 0.273829,0.951565 0.486328,1.351562 0.212499,0.412498 0.500003,0.824221 0.875,1.136719 0.212499,0.199999 0.600393,0.450392 0.837891,0.587891 H 70.224609 C 70.424608,16.387892 70.712892,16.162499 70.900391,16 c 0.362497,-0.349998 0.64883,-0.712503 0.923828,-1.125 0.287498,-0.512497 0.4625,-1.062504 0.5625,-1.625 0.025,-0.174999 0.03711,-0.43711 0.03711,-0.599609 z M 19.275391,20.6875 h 4.90039 c -0.324998,0.387498 -0.750001,0.974221 -1,1.386719 -0.437497,0.749995 -0.751172,1.576177 -0.763672,2.451172 -0.0375,0.824994 0.174612,1.650004 0.59961,2.375 0.262498,0.487497 0.801565,1.086721 1.164062,1.511718 h -4.90039 c 0.362497,-0.424997 0.87422,-1.049612 1.136718,-1.537109 0.412498,-0.724995 0.651172,-1.525005 0.638672,-2.375 0,-0.799995 -0.275002,-1.625395 -0.6875,-2.337891 -0.262498,-0.449997 -0.750393,-1.049612 -1.08789,-1.474609 z m 10.449218,0 H 88.3125 c -0.337498,0.387498 -0.825002,0.949222 -1.0625,1.386719 -0.437497,0.749995 -0.688672,1.576177 -0.701172,2.451172 -0.025,0.824994 0.150784,1.650004 0.550781,2.375 0.262499,0.487497 0.825393,1.111721 1.212891,1.511718 H 29.724609 C 30.062107,27.987112 30.59883,27.362497 30.861328,26.875 31.273825,26.150005 31.5125,25.349995 31.5,24.5 31.5,23.687505 31.273825,22.874605 30.861328,22.162109 30.56133,21.712112 30.062107,21.112497 29.724609,20.6875 Z m 64.361329,0 H 98.875 c -0.349998,0.462497 -0.851568,1.150394 -1.101562,1.650391 -0.337498,0.699995 -0.536719,1.486333 -0.511719,2.236328 0.05,0.937494 0.363285,1.812505 0.925781,2.5625 0.287498,0.424997 0.825002,0.925393 1.1875,1.27539 h -5.289062 c 0.387493,-0.399997 0.950783,-1.023831 1.238281,-1.486328 0.412497,-0.699995 0.613281,-1.526568 0.613281,-2.351562 0,-0.749995 -0.125784,-1.535942 -0.488281,-2.210938 -0.287498,-0.524996 -0.925788,-1.225784 -1.363281,-1.675781 z"
   transform="matrix(0.80000512,0,0,-0.80000512,249.84001,439.00001)" />





</g>
  </g>
</svg>
