<?xml version="1.0" encoding="UTF-8" standalone="no"?>
<svg
   version="1.0"
   width="64.427002"
   height="35.437271"
   id="svg1891"
   sodipodi:docname="CH-Zusatztafel-Fahrrad (1).svg"
   inkscape:version="1.1.2 (b8e25be833, 2022-02-05)"
   xmlns:inkscape="http://www.inkscape.org/namespaces/inkscape"
   xmlns:sodipodi="http://sodipodi.sourceforge.net/DTD/sodipodi-0.dtd"
   xmlns="http://www.w3.org/2000/svg"
   xmlns:svg="http://www.w3.org/2000/svg">
  <sodipodi:namedview
     id="namedview12"
     pagecolor="#ffffff"
     bordercolor="#666666"
     borderopacity="1.0"
     inkscape:pageshadow="2"
     inkscape:pageopacity="0.0"
     inkscape:pagecheckerboard="true"
     showgrid="false"
     showguides="true"
     inkscape:guide-bbox="true"
     inkscape:snap-intersection-paths="true"
     inkscape:snap-smooth-nodes="true"
     inkscape:snap-bbox="true"
     inkscape:bbox-nodes="true"
     inkscape:snap-bbox-edge-midpoints="true"
     inkscape:zoom="11.313709"
     inkscape:cx="33.808543"
     inkscape:cy="17.721864"
     inkscape:window-width="1920"
     inkscape:window-height="1001"
     inkscape:window-x="-9"
     inkscape:window-y="-9"
     inkscape:window-maximized="1"
     inkscape:current-layer="svg1891" />
  <defs
     id="defs1893" />
  <g
     transform="translate(-295.6573,-403.215)"
     id="layer1">
    <g
       transform="matrix(1.249992,0,0,-1.249992,-47.79048,951.9615)"
       style="font-style:normal;font-variant:normal;font-weight:normal;font-stretch:normal;letter-spacing:normal;word-spacing:normal;text-anchor:start;fill:none;fill-opacity:1;stroke:#000000;stroke-linecap:butt;stroke-linejoin:miter;stroke-miterlimit:10.433;stroke-dasharray:none;stroke-dashoffset:0;stroke-opacity:1"
       id="g10"
       xml:space="preserve">






</g>
  </g>
  <path
     id="path30"
     style="fill:#231f20;fill-opacity:1;fill-rule:nonzero;stroke:none;stroke-width:0.227253"
     d="m 25.597656,0 -4.449218,1.3828125 -1.878907,4.0390625 3.052735,0.099609 -5.59375,8.648438 c -0.26793,-0.13317 -0.675607,-0.329592 -0.949219,-0.451172 -3.617411,-1.542819 -7.7831196,-1.02647 -11.0410158,1.160156 -2.995873,2.016869 -4.8752287,5.35241 -4.7304687,8.931641 0.24157,6.110147 4.9050248,11.352289 11.0878905,11.496094 6.307175,0.146465 11.37033,-4.919647 11.714844,-11.140625 0.17044,-3.098137 -1.231475,-6.063671 -3.564453,-8.142578 -0.287474,-0.266343 -0.727364,-0.611399 -1.03711,-0.855469 l 1.253907,-1.789063 11.841797,8.986328 c -0.03114,0.07976 -0.07406,0.20712 -0.101563,0.28711 -0.354288,1.121038 -0.06386,2.334233 0.712891,3.224609 0.77675,0.878787 1.950558,1.317551 3.125,1.162109 0.09067,-0.0089 0.228732,-0.03487 0.320312,-0.05078 l 0.417969,1.597657 -0.771485,0.232421 0.189454,0.673829 2.382812,-0.59961 -0.208984,-0.767578 -0.939453,0.212891 -0.378907,-1.582032 c 0.133171,-0.06022 0.322597,-0.156608 0.445313,-0.230468 0.328382,-0.201346 0.601011,-0.488173 0.820312,-0.798829 0.171348,-0.248613 0.310074,-0.506814 0.41211,-0.789062 0.02659,-0.0684 0.05739,-0.164022 0.08398,-0.232422 l 4.107422,0.02734 c 0.02659,0.350651 0.07056,0.847161 0.113281,1.195312 0.154305,1.138764 0.502224,2.244476 1.001953,3.283204 0.587676,1.232141 1.402241,2.366728 2.416016,3.298828 2.083453,1.911241 4.845159,2.938364 7.689453,2.927734 3.075867,-0.0089 6.030022,-1.238467 8.16211,-3.435547 2.051636,-2.117178 3.18845,-4.956565 3.11914,-7.890625 -0.06386,-2.727034 -1.178937,-5.313222 -3.064453,-7.310547 -1.849156,-1.960055 -4.336032,-3.213667 -7.03125,-3.5625 -1.351018,-0.174985 -2.738354,-0.113979 -4.046875,0.267578 -0.379966,0.111127 -0.935538,0.324764 -1.306641,0.466797 L 45.720703,7.2578125 46.791016,5.5019531 C 47.177345,5.4867281 47.633213,5.47454 48,5.375 L 49.144531,5.0820312 C 49.370875,5.0243082 49.894498,4.8930644 50.087891,4.7714844 50.32946,4.6160434 50.500563,4.377932 50.613281,4.125 50.716231,3.896838 50.780942,3.6167051 50.701172,3.3769531 50.60959,3.1078851 50.367768,2.9123062 50.099609,2.8164062 49.810317,2.7125164 49.413254,2.7534606 49.113281,2.8066406 L 47.441406,3.1875 c -0.357696,0.068402 -1.415466,0.1906119 -1.779297,0.2324219 -0.451097,0.053178 -1.461779,0.1713625 -1.919921,0.1640625 -0.185439,0 -1.060386,-0.011195 -1.242188,0.015625 -0.177712,0.026589 -0.422942,0.0908 -0.529297,0.2285156 -0.12885,0.168621 -0.114512,0.4122109 -0.03906,0.6074219 0.09749,0.255659 0.338096,0.447055 0.583984,0.5625 0.483822,0.228161 1.207062,0.3503631 1.726563,0.3769531 0.117035,0 0.626104,0.026531 0.746093,0.019531 l -0.972656,1.7851563 -20.716797,-0.037109 1.945313,-3.1289062 -3.34961,-0.048828 0.582031,-1.3710938 2.841797,-0.7949219 1.398438,0.5429688 0.900391,-1.21875 z M 22.25,8.890625 l 20.605469,0.03125 -6.96875,11.621094 c -0.240661,-0.0684 -0.599815,-0.157546 -0.845703,-0.191407 -0.189075,-0.01954 -0.465223,-0.01953 -0.654297,-0.01953 l -0.246094,-1.054687 0.771484,-0.220703 -0.197265,-0.634766 -2.347656,0.597656 0.177734,0.65625 0.777344,-0.195312 0.246093,0.941406 c -0.230889,0.0684 -0.575769,0.182469 -0.777343,0.308594 -0.161577,0.100218 -0.370738,0.290658 -0.503907,0.423828 L 20.21875,12.126953 Z m 22.443359,0.1367188 2.861329,5.6816402 c -0.27975,0.137715 -0.669568,0.344148 -0.9375,0.503907 -2.412745,1.445328 -3.905408,4.056673 -4.511719,6.777343 -0.07886,0.381785 -0.171562,0.916632 -0.236328,1.302735 l -3.908203,0.05273 c -0.02659,-0.137488 -0.0682,-0.339074 -0.105469,-0.476562 -0.06386,-0.201573 -0.152145,-0.401543 -0.248047,-0.587891 -0.09045,-0.168849 -0.19937,-0.344019 -0.316406,-0.492188 -0.07545,-0.0959 -0.193032,-0.227416 -0.277344,-0.314453 z M 11.582031,14.476562 c 0.140374,-8.86e-4 0.279565,1.5e-5 0.419922,0.0039 1.145128,0.03818 2.383624,0.250375 3.386719,0.800781 0.144532,0.08431 0.363692,0.217785 0.503906,0.306641 l -5.089844,7.794921 c -0.01159,0.02227 -0.338431,0.518333 -0.345703,0.544922 -0.07545,0.321336 0.07323,0.657311 0.345703,0.845704 0.353377,0.251114 0.83373,0.228742 1.16211,-0.05078 l 0.341797,-0.552734 4.996093,-7.6875 c 0.155215,0.118172 0.363053,0.274406 0.507813,0.392578 2.139359,1.745984 3.340477,4.372705 3.201172,7.111328 -0.257478,5.203658 -4.272883,9.63566 -9.544922,9.69336 -5.3804371,0.06393 -9.6160672,-4.345171 -9.8769532,-9.65625 -0.15635,-3.10882 1.4732306,-6.016897 4.0566406,-7.794922 1.73337,-1.186047 3.8299475,-1.738657 5.9355466,-1.751954 z m 41.34375,0.275391 c 1.934525,-0.01003 3.850458,0.542594 5.511719,1.601563 2.723625,1.730985 4.508925,4.6756 4.402344,7.873046 -0.171122,5.231291 -4.200875,9.690537 -9.496094,9.808594 -5.052738,0.110968 -9.245466,-3.709707 -9.943359,-8.654297 -0.01954,-0.152713 -0.04672,-0.370041 -0.06445,-0.523437 l 7.675781,-0.0957 c 0.05318,0.152714 0.139666,0.374771 0.21875,0.519531 0.397692,0.725163 1.164349,1.19145 1.996093,1.123047 1.060817,-0.09136 1.886147,-0.948409 1.927735,-2.001953 0.03818,-0.98105 -0.606442,-1.864268 -1.572266,-2.097656 -0.106581,-0.02659 -0.271913,-0.04778 -0.382812,-0.05664 l -3.5,-6.947266 c 0.171349,-0.0534 0.428261,-0.13278 0.599609,-0.18164 0.864129,-0.242735 1.747624,-0.362631 2.626953,-0.367188 z m -4.603515,1.222656 3.373046,6.744141 c -0.0684,0.05749 -0.17134,0.148394 -0.226562,0.216797 -0.0575,0.06909 -0.122476,0.180001 -0.164062,0.259765 l -7.851563,0.08398 c 0.0046,-0.180211 0.0212,-0.438929 0.03711,-0.619141 0.234298,-2.552276 1.896291,-4.771752 4.048828,-6.201172 0.226344,-0.152486 0.553224,-0.346887 0.783204,-0.484375 z m -13.644532,5.31836 c 0.179329,-0.0072 0.388481,0.03525 0.550782,0.06055 l -0.449219,0.716796 -0.220703,-0.763671 c 0.03711,-0.0078 0.07776,-0.012 0.11914,-0.01367 z m -0.873046,0.07422 0.332031,1.27539 -1.171875,-0.857422 c 0.04863,-0.03818 0.121971,-0.0975 0.169922,-0.134765 0.193392,-0.137488 0.445169,-0.237072 0.669922,-0.283203 z m 2.691406,0.791015 c 0.04795,0.06909 0.122881,0.181825 0.169922,0.25 0.113626,0.164304 0.245786,0.379831 0.300781,0.566406 0.02045,0.06818 0.0431,0.168564 0.05469,0.232422 l -1.169922,-0.0059 z m -4.449219,0.876953 2.705078,1.853516 0.326172,1.175781 c -0.07272,0.01591 -0.190177,0.04359 -0.265625,0.05859 -1.522367,0.217481 -2.79241,-1.05367 -2.814453,-2.574219 0,-0.146578 0.0277,-0.365503 0.04883,-0.513672 z m 4.800781,1.804688 c -0.0575,0.100446 -0.143577,0.256208 -0.21289,0.349609 -0.118171,0.17044 -0.269523,0.323222 -0.423828,0.460938 -0.0959,0.08431 -0.246934,0.201347 -0.353516,0.279297 l -0.316406,-1.078126 z" />
</svg>
