<?xml version="1.0" encoding="UTF-8" standalone="no"?>
<svg
   version="1.0"
   width="87.436958"
   height="35.449772"
   id="svg1905"
   sodipodi:docname="CH-Zusatztafel-Gesellschaftswagen.svg"
   inkscape:version="1.1.2 (b8e25be833, 2022-02-05)"
   xmlns:inkscape="http://www.inkscape.org/namespaces/inkscape"
   xmlns:sodipodi="http://sodipodi.sourceforge.net/DTD/sodipodi-0.dtd"
   xmlns="http://www.w3.org/2000/svg"
   xmlns:svg="http://www.w3.org/2000/svg">
  <sodipodi:namedview
     id="namedview19"
     pagecolor="#ffffff"
     bordercolor="#666666"
     borderopacity="1.0"
     inkscape:pageshadow="2"
     inkscape:pageopacity="0.0"
     inkscape:pagecheckerboard="true"
     showgrid="false"
     inkscape:snap-intersection-paths="true"
     inkscape:snap-smooth-nodes="true"
     inkscape:snap-bbox="true"
     inkscape:bbox-nodes="true"
     inkscape:snap-bbox-edge-midpoints="true"
     showguides="true"
     inkscape:guide-bbox="true"
     inkscape:zoom="8"
     inkscape:cx="43.5625"
     inkscape:cy="7.6875"
     inkscape:window-width="1920"
     inkscape:window-height="1001"
     inkscape:window-x="-9"
     inkscape:window-y="-9"
     inkscape:window-maximized="1"
     inkscape:current-layer="svg1905" />
  <defs
     id="defs1907" />
  <g
     transform="translate(-259.1387,-391.7801)"
     id="layer1">
    <g
       transform="matrix(1.249992,0,0,-1.249992,-67.78424,940.5766)"
       style="font-style:normal;font-variant:normal;font-weight:normal;font-stretch:normal;letter-spacing:normal;word-spacing:normal;text-anchor:start;fill:none;fill-opacity:1;stroke:#000000;stroke-linecap:butt;stroke-linejoin:miter;stroke-miterlimit:10.433;stroke-dasharray:none;stroke-dashoffset:0;stroke-opacity:1"
       id="g10"
       xml:space="preserve">
<path
   id="path12"
   style="fill:#000000;fill-rule:nonzero;stroke-width:0"
   d="M 76.400391,0 6.0625,0.13671875 c -0.5749963,0 -1.2367221,0.0625016 -1.7617188,0.3125 C 3.8132844,0.67421731 3.3624993,1.1371127 3.25,1.6621094 L 0.28710938,13.824219 C 0.17461009,14.174217 0.08749984,14.850003 0.0625,15.25 0.02500024,15.499998 0,15.825392 0,16.087891 l 0.0625,11.375 c 0,0.449997 0.17578325,0.949611 0.48828125,1.287109 0.29999808,0.274998 0.68594005,0.461719 1.08593755,0.449219 l 5.9628906,-0.04883 c 0,-0.199999 0.013281,-0.474611 0.050781,-0.66211 0.3874975,-3.812475 3.6496336,-6.65039 7.4746096,-6.65039 3.849975,0.0125 7.19922,2.812915 7.449219,6.65039 0.025,0.187499 0.02539,0.450001 0.02539,0.625 L 57.125,29.150391 c 0,-0.237499 -7.81e-4,-0.613283 0.01172,-0.863282 0.262498,-3.912475 3.737134,-6.75039 7.662109,-6.71289 3.849975,0.05 7.164064,2.900806 7.414063,6.738281 0.0125,0.262498 0.0125,0.62422 0,0.886719 h 13.0625 c 0.549996,0 1.18633,-0.075 1.611328,-0.4375 0.399997,-0.337498 0.550781,-0.885941 0.550781,-1.398438 l -0.02539,-11.763672 c 0,-0.224998 -0.0012,-1.11172 -0.07617,-1.324218 -0.05,-0.174999 -0.13711,-0.363673 -0.22461,-0.513672 L 78.912109,1.1757812 C 78.662111,0.81328357 78.323826,0.4871081 77.923828,0.28710938 77.461331,0.07461073 76.912887,0 76.400391,0 Z M 59.861328,2.6503906 59.974609,14.625 50.861328,14.599609 50.724609,2.6992188 Z M 17.199219,2.6621094 17.287109,14.5625 6.3496094,14.599609 9.2617188,2.6992188 Z m 1.726562,0 h 8.898438 L 27.75,14.574219 h -8.787109 z m 10.560547,0 H 38.25 l 0.02539,11.9121096 h -8.789063 z m 10.576172,0 8.923828,0.037109 0.113281,11.9003906 h -8.988281 z m 21.5625,0 h 8.949219 L 70.650391,14.511719 61.75,14.599609 Z m 10.775391,0 h 5.449218 l 7.47461,11.8496096 H 72.423828 Z M 7.3496094,2.7128906 4.4121094,14.574219 H 1.8378906 L 4.75,2.7382812 Z"
   transform="matrix(0.80000512,0,0,-0.80000512,261.54003,439.04001)" />










<path
   d="m 273.68,417.82 0.1,-0.01 0.11,-0.01 0.11,-0.01 0.1,-0.02 0.1,-0.02 0.1,-0.03 0.1,-0.04 0.09,-0.03 0.1,-0.05 0.08,-0.04 0.09,-0.06 0.09,-0.05 0.08,-0.06 0.08,-0.07 0.07,-0.06 0.07,-0.08 0.07,-0.07 0.07,-0.08 0.06,-0.08 0.05,-0.08 0.06,-0.09 0.05,-0.09 0.04,-0.09 0.04,-0.1 0.04,-0.09 0.03,-0.1 0.03,-0.1 0.02,-0.1 0.01,-0.11 0.01,-0.1 0.01,-0.11 v -0.11 c -0.01,-1.12 -0.92,-2.02 -2.04,-2.02 -1.12,-0.02 -2.03,0.88 -2.08,2 -0.03,1.16 0.89,2.15 2.06,2.16 z"
   style="display:none;fill:#ffffff;fill-rule:nonzero;stroke:#ffffff;stroke-width:0"
   id="path34" />

</g>
  </g>
  <path
     id="ellipse1676"
     style="display:inline;fill:#000000;fill-opacity:1;stroke-width:0.996999"
     d="M 15.175781 23 A 6.2124596 6.2125001 0 0 0 8.9628906 29.212891 A 6.2124596 6.2125001 0 0 0 15.175781 35.425781 A 6.2124596 6.2125001 0 0 0 21.386719 29.212891 A 6.2124596 6.2125001 0 0 0 15.175781 23 z M 15.175781 26.525391 A 2.6875041 2.6875217 0 0 1 17.863281 29.212891 A 2.6875041 2.6875217 0 0 1 15.175781 31.900391 A 2.6875041 2.6875217 0 0 1 12.488281 29.212891 A 2.6875041 2.6875217 0 0 1 15.175781 26.525391 z " />
  <path
     id="path2401"
     style="display:inline;fill:#000000;fill-opacity:1;stroke-width:0.996999"
     d="m 64.612484,23 a 6.2124596,6.2125001 0 0 0 -6.21289,6.212891 6.2124596,6.2125001 0 0 0 6.21289,6.21289 6.2124596,6.2125001 0 0 0 6.210938,-6.21289 A 6.2124596,6.2125001 0 0 0 64.612484,23 Z m 0,3.525391 a 2.6875041,2.6875217 0 0 1 2.6875,2.6875 2.6875041,2.6875217 0 0 1 -2.6875,2.6875 2.6875041,2.6875217 0 0 1 -2.6875,-2.6875 2.6875041,2.6875217 0 0 1 2.6875,-2.6875 z" />
</svg>
