<?xml version="1.0" encoding="UTF-8" standalone="no"?>
<!DOCTYPE svg PUBLIC "-//W3C//DTD SVG 1.0//EN" "http://www.w3.org/TR/2001/REC-SVG-20010904/DTD/svg10.dtd">
<svg
   xmlns:svg="http://www.w3.org/2000/svg"
   xmlns="http://www.w3.org/2000/svg"
   version="1.0"
   width="55.099648"
   height="35.454632"
   id="svg1899">
  <defs
     id="defs1901" />
  <g
     transform="translate(-706.7359,-483.2061)"
     id="layer1">
    <g
       transform="matrix(1.249992,0,0,-1.249992,363.6381,1030.395)"
       style="font-style:normal;font-variant:normal;font-weight:normal;font-stretch:normal;letter-spacing:normal;word-spacing:normal;text-anchor:start;fill:none;fill-opacity:1;stroke:black;stroke-linecap:butt;stroke-linejoin:miter;stroke-miterlimit:10.43299961;stroke-dasharray:none;stroke-dashoffset:0;stroke-opacity:1"
       id="g10"
       xml:space="preserve">
<path
   d="M 316.34,424.8 L 316.59,424.49 L 316.83,424.16 L 317.05,423.83 L 317.27,423.49 L 317.46,423.14 L 317.65,422.78 L 317.81,422.41 L 317.97,422.04 L 318.1,421.65 L 318.22,421.26 L 318.32,420.86 L 318.41,420.46 L 318.44,420.25 L 318.47,420.04 L 318.5,419.84 L 318.52,419.63 L 318.54,419.42 L 318.55,419.2 L 318.56,418.99 L 318.56,418.78 C 318.56,413.63 314.36,409.43 309.23,409.43 C 305.04,409.43 301.48,412.21 300.31,416.03 L 300.31,416.03 L 300.31,416.03 L 289.41,416.03 L 289.41,416.03 L 289.41,416.03 C 288.98,412.3 285.81,409.39 281.97,409.39 C 277.84,409.39 274.48,412.76 274.48,416.89 C 274.48,418.83 275.21,420.6 276.43,421.94 C 276.54,422.55 276.8,423.53 277.4,424.24 C 278.34,425.37 280.51,425.98 282.37,426.61 C 283.88,427.12 288.63,428.16 291.99,428.62 C 292.04,429.38 292.22,431.59 293.07,433.65 C 294.02,435.94 294.54,436.52 294.32,437.19 C 294.11,437.86 294.81,437.56 294.97,437.38 C 295.12,437.19 295.48,436.7 295.03,435.79 C 294.59,434.91 293.15,431.71 292.96,428.74 C 293.29,428.77 293.58,428.8 293.85,428.81 C 293.95,429.38 294.08,430 294.13,430.28 C 294.22,430.75 295.22,433.81 295.79,435.1 C 296.35,436.38 296.28,436.2 296.28,436.2 C 296.28,436.2 296.58,437.36 298.06,437.43 C 299.54,437.49 301.77,437.69 303.27,437.74 C 304.76,437.79 308.1,437.7 309.62,437.55 C 311.12,437.38 311.05,437.45 311.33,436.96 C 311.62,436.49 311.62,436.49 311.62,436.49 C 311.62,436.49 312.43,434.53 312.88,433.12 C 313.32,431.71 313.83,429.51 313.88,429.14 C 313.94,428.79 313.81,428.54 314.11,428.41 C 314.42,428.27 316.05,427.62 317.04,426.88 C 318.02,426.15 318.11,426.11 318.13,426.02 C 318.17,425.93 318.26,425.84 317.9,425.69 C 317.57,425.56 316.94,425.24 316.34,424.8 L 316.34,424.8 L 316.34,424.8 L 316.34,424.8 L 316.34,424.8 z "
   style="fill:black;fill-rule:nonzero;stroke-width:0"
   id="path18" /><path
   d="M 291.96,423.35 L 291.96,423.45 L 291.96,423.56 L 291.96,423.68 L 291.96,423.81 L 291.96,423.95 L 291.96,424.1 L 291.95,424.26 L 291.95,424.42 L 291.95,424.6 L 291.95,424.77 L 291.95,424.96 L 291.95,425.14 L 291.95,425.52 L 291.95,425.91 L 291.95,426.29 L 291.95,426.48 L 291.95,426.66 L 291.95,426.84 L 291.95,427.02 L 291.95,427.19 L 291.96,427.35 L 291.96,427.5 L 291.96,427.65 L 291.96,427.79 L 291.96,427.92 L 291.96,428.03 L 291.96,428.14 L 291.97,428.23 L 291.97,428.3 C 289.67,428 285.93,427.39 282.43,426.33 C 280.75,425.82 279.3,425.34 278.45,424.76 C 277.25,423.93 276.93,422.91 276.81,422.32 C 278.16,423.61 279.97,424.4 281.97,424.4 C 284.21,424.4 286.23,423.41 287.61,421.84 L 287.61,421.84 L 287.61,421.84 L 291.96,423.35 L 291.96,423.35 L 291.96,423.35 z "
   style="fill:white;fill-rule:nonzero;stroke-width:0"
   id="path12" />
<path
   d="M 292.96,428.43 L 292.96,428.42 L 292.95,428.42 L 292.95,428.41 L 292.95,428.41 L 292.95,428.4 L 292.95,428.4 L 292.95,428.39 L 292.95,428.39 L 292.95,428.38 L 292.95,428.37 L 292.95,428.37 L 292.95,428.36 L 292.95,428.36 L 292.95,428.35 L 292.95,428.34 L 292.95,428.34 C 292.9,426 292.96,424.36 293,423.71 L 293,423.71 L 293,423.71 L 293.76,423.98 L 293.76,423.98 L 293.76,423.98 C 293.75,424.68 293.74,427.48 293.74,427.91 C 293.74,428.05 293.76,428.27 293.8,428.52 C 293.59,428.5 293.31,428.47 292.96,428.43 L 292.96,428.43 L 292.96,428.43 L 292.96,428.43 L 292.96,428.43 z "
   style="fill:white;fill-rule:nonzero;stroke-width:0"
   id="path14" />
<path
   d="M 297.94,430.98 L 297.94,430.98 L 297.94,430.98 L 297.94,430.98 C 298.01,431.05 298.14,431.07 298.23,431 L 298.23,431 L 298.23,431 L 301.02,428.74 L 301.02,428.74 L 301.02,428.74 C 301.11,428.67 301.12,428.54 301.06,428.46 L 301.06,428.46 L 301.06,428.46 L 301.06,428.46 L 301.06,428.46 L 301.06,428.46 C 300.99,428.37 300.87,428.37 300.78,428.44 L 300.78,428.44 L 300.78,428.44 L 299.69,429.32 L 299.69,429.32 L 299.69,429.32 C 299.58,429.36 299.46,429.36 299.37,429.22 C 299.18,428.92 298.27,427.69 298.27,427.69 C 298.27,427.69 298.2,427.55 298.26,427.43 C 298.31,427.3 298.38,427.05 298.2,426.88 C 298.04,426.73 295.52,424.29 295.02,423.84 L 295.02,423.84 L 295.02,423.84 L 295.03,422.34 L 299.14,422.34 L 299.14,422.34 L 299.14,422.34 C 299.26,422.7 299.59,423.57 300.38,424.71 C 301.42,426.23 303.51,428.32 306.98,429.14 L 306.98,429.14 L 306.98,429.14 L 305.43,436.89 L 305.43,436.89 L 305.43,436.89 C 305.43,436.89 301.36,436.8 299.59,436.66 C 297.83,436.53 297.7,436.53 297.52,436.48 C 297.34,436.43 297.11,436.35 296.92,435.91 C 296.74,435.48 295.09,432.25 294.66,429.49 C 294.62,429.24 295.46,430.62 295.94,431 C 296.04,431.08 296.21,431.14 296.39,431.1 C 296.56,431.05 296.71,430.87 296.74,430.69 C 296.76,430.51 296.96,429.44 296.96,429.44 C 296.96,429.44 296.98,429.12 297.05,429.05 C 297.11,428.99 297.59,428.32 297.59,428.32 C 297.59,428.32 297.7,428.25 297.79,428.32 C 297.88,428.41 299.08,429.6 299.08,429.6 C 299.08,429.6 299.16,429.66 299.12,429.77 L 299.12,429.77 L 299.12,429.77 L 297.98,430.69 L 297.98,430.69 L 297.98,430.69 C 297.89,430.76 297.88,430.89 297.94,430.98 L 297.94,430.98 L 297.94,430.98 L 297.94,430.98 z "
   style="fill:white;fill-rule:nonzero;stroke-width:0"
   id="path16" />

<path
   d="M 281.97,412.78 L 282.18,412.79 L 282.39,412.8 L 282.59,412.83 L 282.79,412.87 L 282.99,412.91 L 283.19,412.97 L 283.38,413.03 L 283.56,413.11 L 283.75,413.19 L 283.92,413.28 L 284.09,413.38 L 284.26,413.49 L 284.42,413.6 L 284.58,413.72 L 284.73,413.85 L 284.87,413.99 L 285.01,414.13 L 285.13,414.28 L 285.26,414.44 L 285.37,414.6 L 285.48,414.77 L 285.58,414.94 L 285.67,415.12 L 285.75,415.3 L 285.82,415.48 L 285.89,415.68 L 285.94,415.87 L 285.99,416.07 L 286.03,416.27 L 286.05,416.48 L 286.07,416.68 L 286.07,416.89 C 286.07,419.16 284.23,421.01 281.97,421.01 C 279.71,421.01 277.86,419.16 277.86,416.89 C 277.86,414.63 279.71,412.78 281.97,412.78 L 281.97,412.78 L 281.97,412.78 L 281.97,412.78 z "
   style="fill:white;fill-opacity:1;fill-rule:nonzero;stroke-width:0"
   id="path20" />
<path
   d="M 309.23,413.62 L 309.49,413.62 L 309.75,413.64 L 310.01,413.68 L 310.26,413.72 L 310.51,413.78 L 310.76,413.85 L 311,413.93 L 311.23,414.02 L 311.46,414.13 L 311.68,414.24 L 311.9,414.37 L 312.1,414.5 L 312.31,414.64 L 312.5,414.8 L 312.69,414.96 L 312.87,415.13 L 313.04,415.31 L 313.2,415.5 L 313.35,415.69 L 313.5,415.89 L 313.63,416.1 L 313.76,416.32 L 313.87,416.54 L 313.97,416.77 L 314.07,417.01 L 314.15,417.25 L 314.22,417.49 L 314.27,417.74 L 314.32,417.99 L 314.35,418.25 L 314.37,418.51 L 314.38,418.78 C 314.38,421.62 312.07,423.93 309.23,423.93 C 306.39,423.93 304.07,421.62 304.07,418.78 C 304.07,415.93 306.39,413.62 309.23,413.62 L 309.23,413.62 L 309.23,413.62 L 309.23,413.62 z "
   style="fill:white;fill-opacity:1;fill-rule:nonzero;stroke-width:0"
   id="path22" />
<path
   d="M 301.9,425.36 L 301.91,425.37 L 301.93,425.4 L 301.96,425.44 L 302.01,425.5 L 302.08,425.57 L 302.15,425.66 L 302.25,425.75 L 302.35,425.86 L 302.47,425.98 L 302.6,426.1 L 302.75,426.24 L 302.92,426.38 L 303.09,426.52 L 303.28,426.67 L 303.49,426.82 L 303.71,426.98 L 303.94,427.13 L 304.19,427.28 L 304.45,427.44 L 304.73,427.59 L 305.02,427.73 L 305.33,427.87 L 305.65,428.01 L 305.99,428.14 L 306.34,428.25 L 306.7,428.37 L 307.08,428.47 L 307.47,428.55 L 307.88,428.63 L 308.31,428.69 L 308.75,428.74 L 309.2,428.77 C 314.12,429.01 317.26,426.43 317.7,425.95 L 317.7,425.95 L 317.7,425.95 L 316.87,425.51 L 316.87,425.51 L 316.87,425.51 C 316.83,425.49 314.57,428.11 309.76,428.25 C 306.05,428.35 303.25,426.54 302.08,425.37 C 301.9,425.18 301.9,425.36 301.9,425.36 L 301.9,425.36 L 301.9,425.36 L 301.9,425.36 z "
   style="fill:black;fill-rule:nonzero;stroke-width:0"
   id="path24" />
<path
   d="M 306.88,436.85 L 308.52,429.39 L 308.52,429.39 L 308.52,429.39 C 308.52,429.39 310.02,429.58 312.49,429.25 C 312.49,429.25 312.85,429.25 312.78,429.69 C 312.71,430.13 312.18,433.82 310.77,436.32 C 310.77,436.32 310.69,436.57 310.12,436.65 C 309.56,436.71 308.13,436.82 306.88,436.85 L 306.88,436.85 L 306.88,436.85 L 306.88,436.85 z "
   style="fill:white;fill-rule:nonzero;stroke-width:0"
   id="path26" />
<path
   d="M 281.97,415.38 L 282.05,415.38 L 282.13,415.38 L 282.2,415.39 L 282.28,415.41 L 282.35,415.42 L 282.42,415.44 L 282.49,415.47 L 282.56,415.5 L 282.63,415.53 L 282.7,415.56 L 282.76,415.6 L 282.82,415.64 L 282.88,415.68 L 282.94,415.72 L 283,415.77 L 283.05,415.82 L 283.1,415.88 L 283.15,415.93 L 283.19,415.99 L 283.24,416.05 L 283.27,416.11 L 283.31,416.17 L 283.35,416.24 L 283.38,416.31 L 283.4,416.37 L 283.43,416.45 L 283.45,416.52 L 283.46,416.59 L 283.48,416.67 L 283.49,416.74 L 283.49,416.82 L 283.5,416.89 C 283.5,417.74 282.81,418.42 281.97,418.42 C 281.13,418.42 280.45,417.74 280.45,416.89 C 280.45,416.06 281.13,415.38 281.97,415.38 L 281.97,415.38 L 281.97,415.38 L 281.97,415.38 z "
   style="fill:black;fill-rule:nonzero;stroke-width:0"
   id="path28" />
<path
   d="M 309.23,417.25 L 309.31,417.26 L 309.38,417.26 L 309.46,417.27 L 309.53,417.29 L 309.61,417.3 L 309.68,417.32 L 309.75,417.35 L 309.82,417.37 L 309.89,417.4 L 309.95,417.44 L 310.01,417.47 L 310.08,417.51 L 310.14,417.56 L 310.19,417.6 L 310.25,417.65 L 310.3,417.7 L 310.35,417.75 L 310.4,417.81 L 310.44,417.87 L 310.49,417.93 L 310.53,417.99 L 310.56,418.05 L 310.6,418.12 L 310.63,418.19 L 310.65,418.25 L 310.68,418.32 L 310.7,418.4 L 310.72,418.47 L 310.73,418.55 L 310.74,418.62 L 310.74,418.7 L 310.75,418.78 C 310.75,419.62 310.07,420.3 309.23,420.3 C 308.38,420.3 307.7,419.62 307.7,418.78 C 307.7,417.94 308.38,417.25 309.23,417.25 L 309.23,417.25 L 309.23,417.25 L 309.23,417.25 z "
   style="fill:black;fill-rule:nonzero;stroke-width:0"
   id="path30" />
</g>  </g>
</svg>
