<?xml version="1.0" encoding="UTF-8" standalone="no"?>
<!DOCTYPE svg PUBLIC "-//W3C//DTD SVG 1.0//EN" "http://www.w3.org/TR/2001/REC-SVG-20010904/DTD/svg10.dtd">
<svg
   xmlns:svg="http://www.w3.org/2000/svg"
   xmlns="http://www.w3.org/2000/svg"
   version="1.0"
   width="97.424377"
   height="35.437313"
   id="svg1903">
  <defs
     id="defs1905" />
  <g
     transform="translate(-248.4307,-371.7864)"
     id="layer1">
    <g
       transform="matrix(1.249992,0,0,-1.249992,-73.50477,920.6204)"
       style="font-style:normal;font-variant:normal;font-weight:normal;font-stretch:normal;letter-spacing:normal;word-spacing:normal;text-anchor:start;fill:none;fill-opacity:1;stroke:black;stroke-linecap:butt;stroke-linejoin:miter;stroke-miterlimit:10.43299961;stroke-dasharray:none;stroke-dashoffset:0;stroke-opacity:1"
       id="g10"
       xml:space="preserve">
<path
   d="M 274.8,427.06 L 274.79,439.07 L 335.49,439.07 L 335.49,420.1 L 333.21,420.1 L 333.64,419.38 L 334.86,419.38 L 334.86,415.95 L 333.72,415.95 L 333.72,415.95 C 333.71,416.11 333.7,416.35 333.7,416.52 C 333.42,419.95 330.57,422.63 327.12,422.61 C 323.7,422.59 320.88,419.93 320.67,416.52 C 320.66,416.35 320.66,416.11 320.66,415.95 L 320.66,415.95 L 319.75,415.95 L 319.75,415.95 C 319.75,416.08 319.74,416.26 319.73,416.39 C 319.52,419.8 316.73,422.49 313.32,422.5 C 309.91,422.5 307.17,419.78 306.85,416.39 C 306.83,416.26 306.82,416.08 306.82,415.95 L 306.82,415.95 L 295,415.95 L 293.16,422.87 L 286.65,422.87 L 286.65,422.87 C 286.75,422.86 286.88,422.83 286.98,422.81 C 287.15,422.78 287.36,422.74 287.53,422.7 C 287.69,422.64 287.85,422.6 288.01,422.53 C 288.12,422.49 288.27,422.43 288.38,422.38 C 288.44,422.35 288.57,422.29 288.64,422.26 L 288.64,422.26 L 292.5,422.26 L 292.5,415.95 L 291.55,415.95 L 291.55,415.95 C 291.55,416.07 291.55,416.25 291.54,416.36 C 291.39,419.64 288.67,422.2 285.4,422.17 C 282.19,422.16 279.55,419.64 279.38,416.44 C 279.38,416.3 279.38,416.09 279.38,415.95 L 279.38,415.95 L 273.61,415.95 L 273.61,415.95 C 273.6,416.09 273.59,416.29 273.58,416.42 C 273.45,418.11 272.69,419.71 271.41,420.83 C 270.26,421.85 268.76,422.38 267.22,422.35 C 265.55,422.32 263.96,421.65 262.8,420.45 C 261.81,419.43 261.18,418.09 261.14,416.66 C 261.13,416.46 261.14,416.16 261.15,415.95 L 261.15,415.95 L 257.55,415.95 L 257.55,418.15 L 258.73,418.14 L 259.62,425 L 259.64,425.28 L 259.64,425.28 C 259.67,425.48 259.71,425.71 259.79,425.9 C 259.94,426.26 260.23,426.55 260.56,426.76 C 260.75,426.88 260.97,426.98 261.2,427.02 C 261.27,427.04 261.38,427.05 261.46,427.06 L 261.46,427.06 L 264.22,432.7 L 264.22,432.7 C 264.24,432.73 264.31,432.88 264.32,432.9 C 264.42,433.06 264.55,433.2 264.72,433.3 C 264.87,433.38 265.03,433.44 265.2,433.46 C 265.23,433.46 265.48,433.46 265.52,433.46 L 265.52,433.46 L 273.96,433.46 L 273.96,422.26 L 282.3,422.26 L 282.3,422.26 C 282.36,422.28 282.44,422.32 282.49,422.35 C 282.68,422.43 282.88,422.5 283.07,422.55 C 283.32,422.62 283.6,422.7 283.84,422.75 C 284,422.79 284.18,422.84 284.33,422.87 L 284.33,422.87 L 274.8,422.87 L 274.8,426.39 L 295.66,426.39 L 297.49,419.38 L 306.95,419.38 L 306.95,419.38 C 306.97,419.42 306.99,419.48 307,419.52 C 307.05,419.61 307.11,419.71 307.16,419.8 C 307.2,419.85 307.25,419.92 307.29,419.97 C 307.32,420.01 307.37,420.06 307.41,420.1 L 307.41,420.1 L 298.09,420.1 L 296.2,427.06 L 274.8,427.06 z "
   style="fill:black;fill-rule:nonzero;stroke-width:0"
   id="path12" />
<path
   d="M 267.23,421.21 L 267.5,421.21 L 267.76,421.19 L 268.03,421.16 L 268.29,421.12 L 268.54,421.06 L 268.79,420.99 L 269.04,420.91 L 269.28,420.82 L 269.51,420.72 L 269.74,420.61 L 269.96,420.48 L 270.18,420.35 L 270.39,420.21 L 270.59,420.05 L 270.78,419.89 L 270.97,419.72 L 271.14,419.54 L 271.31,419.36 L 271.47,419.16 L 271.62,418.96 L 271.75,418.75 L 271.88,418.53 L 272,418.3 L 272.11,418.07 L 272.2,417.84 L 272.29,417.6 L 272.36,417.35 L 272.42,417.09 L 272.47,416.84 L 272.5,416.58 L 272.52,416.31 L 272.53,416.04 C 272.52,413.17 270.18,410.88 267.31,410.88 C 264.47,410.89 262.16,413.17 262.15,416.02 C 262.13,418.85 264.4,421.18 267.23,421.21 z "
   style="fill:black;fill-rule:nonzero;stroke-width:0"
   id="path14" />
<path
   d="M 285.4,421.3 L 285.67,421.29 L 285.94,421.27 L 286.2,421.24 L 286.46,421.19 L 286.72,421.14 L 286.97,421.06 L 287.22,420.98 L 287.46,420.89 L 287.69,420.78 L 287.92,420.67 L 288.14,420.54 L 288.35,420.4 L 288.56,420.26 L 288.76,420.1 L 288.95,419.93 L 289.14,419.76 L 289.31,419.57 L 289.48,419.38 L 289.63,419.18 L 289.78,418.98 L 289.92,418.76 L 290.04,418.54 L 290.16,418.31 L 290.26,418.08 L 290.36,417.84 L 290.44,417.59 L 290.51,417.34 L 290.56,417.09 L 290.61,416.83 L 290.64,416.56 L 290.66,416.29 L 290.66,416.02 C 290.65,413.15 288.32,410.84 285.44,410.84 C 282.58,410.84 280.25,413.16 280.23,416.02 C 280.21,418.91 282.52,421.28 285.4,421.3 z "
   style="fill:black;fill-rule:nonzero;stroke-width:0"
   id="path16" />
<path
   d="M 313.31,421.3 L 313.59,421.29 L 313.86,421.27 L 314.12,421.24 L 314.38,421.19 L 314.64,421.13 L 314.89,421.06 L 315.14,420.98 L 315.38,420.88 L 315.62,420.77 L 315.84,420.66 L 316.07,420.53 L 316.28,420.39 L 316.49,420.24 L 316.69,420.08 L 316.88,419.91 L 317.07,419.74 L 317.24,419.55 L 317.41,419.36 L 317.56,419.16 L 317.71,418.95 L 317.85,418.73 L 317.98,418.51 L 318.09,418.28 L 318.2,418.04 L 318.29,417.8 L 318.37,417.56 L 318.44,417.3 L 318.5,417.05 L 318.55,416.78 L 318.58,416.52 L 318.6,416.25 L 318.6,415.97 C 318.59,413.05 316.19,410.71 313.27,410.72 C 310.37,410.73 308.01,413.09 308.01,416 C 308.01,418.93 310.38,421.31 313.31,421.3 z "
   style="fill:black;fill-rule:nonzero;stroke-width:0"
   id="path18" />
<path
   d="M 327.17,421.3 L 327.44,421.29 L 327.71,421.27 L 327.97,421.24 L 328.23,421.19 L 328.48,421.13 L 328.73,421.06 L 328.98,420.98 L 329.22,420.89 L 329.45,420.78 L 329.68,420.67 L 329.9,420.54 L 330.11,420.4 L 330.32,420.26 L 330.52,420.1 L 330.71,419.94 L 330.89,419.76 L 331.06,419.58 L 331.23,419.39 L 331.39,419.19 L 331.53,418.99 L 331.67,418.77 L 331.8,418.55 L 331.91,418.33 L 332.02,418.1 L 332.11,417.86 L 332.2,417.61 L 332.27,417.36 L 332.33,417.11 L 332.38,416.85 L 332.41,416.59 L 332.43,416.32 L 332.44,416.05 C 332.44,413.17 330.11,410.84 327.23,410.82 C 324.32,410.79 321.94,413.12 321.92,416.03 C 321.91,418.93 324.27,421.29 327.17,421.3 z "
   style="fill:black;fill-rule:nonzero;stroke-width:0"
   id="path20" />
<polygon
   points="264.66,431.14 265.9,431.14 264.16,427.06 262.71,427.06 264.66,431.14 "
   style="fill:white;fill-rule:nonzero;stroke:white;stroke-width:0"
   id="polygon22" />
<polygon
   points="267.07,431.14 271.33,431.14 271.33,427.06 265.32,427.06 267.07,431.14 "
   style="fill:white;fill-rule:nonzero;stroke:white;stroke-width:0"
   id="polygon24" />
<polygon
   points="319.24,420.09 321.18,420.09 320.79,419.38 319.68,419.38 319.24,420.09 "
   style="fill:white;fill-rule:nonzero;stroke:white;stroke-width:0"
   id="polygon26" />
<path
   d="M 267.27,418.02 L 267.37,418.01 L 267.47,418 L 267.56,417.99 L 267.66,417.97 L 267.75,417.95 L 267.84,417.92 L 267.92,417.89 L 268.01,417.85 L 268.09,417.81 L 268.17,417.76 L 268.25,417.72 L 268.33,417.66 L 268.4,417.61 L 268.47,417.55 L 268.53,417.48 L 268.6,417.42 L 268.66,417.35 L 268.72,417.28 L 268.77,417.2 L 268.82,417.12 L 268.86,417.04 L 268.91,416.96 L 268.95,416.88 L 268.98,416.79 L 269.01,416.7 L 269.04,416.61 L 269.06,416.52 L 269.08,416.42 L 269.09,416.33 L 269.1,416.23 L 269.1,416.13 L 269.1,416.04 C 269.06,415.05 268.26,414.29 267.29,414.26 C 266.26,414.23 265.38,415.01 265.32,416.02 C 265.27,417.13 266.17,418.04 267.27,418.02 z "
   style="fill:white;fill-rule:nonzero;stroke:white;stroke-width:0"
   id="path28" />
<path
   d="M 285.45,417.98 L 285.54,417.98 L 285.64,417.97 L 285.74,417.96 L 285.83,417.94 L 285.93,417.92 L 286.02,417.89 L 286.11,417.86 L 286.19,417.83 L 286.28,417.79 L 286.36,417.74 L 286.44,417.69 L 286.52,417.64 L 286.59,417.59 L 286.66,417.53 L 286.73,417.46 L 286.79,417.4 L 286.85,417.33 L 286.91,417.26 L 286.97,417.18 L 287.02,417.11 L 287.07,417.03 L 287.11,416.94 L 287.15,416.86 L 287.19,416.77 L 287.22,416.68 L 287.24,416.59 L 287.27,416.5 L 287.29,416.4 L 287.3,416.31 L 287.31,416.21 L 287.31,416.11 L 287.31,416.01 C 287.27,415.01 286.44,414.21 285.43,414.23 C 284.46,414.23 283.68,415 283.62,415.97 C 283.57,417.04 284.38,417.97 285.45,417.98 z "
   style="fill:white;fill-rule:nonzero;stroke:white;stroke-width:0"
   id="path30" />
<path
   d="M 313.29,417.84 L 313.39,417.84 L 313.48,417.84 L 313.58,417.83 L 313.68,417.82 L 313.77,417.8 L 313.86,417.78 L 313.95,417.76 L 314.04,417.73 L 314.13,417.69 L 314.21,417.65 L 314.3,417.61 L 314.38,417.57 L 314.46,417.52 L 314.53,417.47 L 314.61,417.41 L 314.68,417.35 L 314.74,417.29 L 314.81,417.23 L 314.87,417.16 L 314.92,417.09 L 314.98,417.01 L 315.03,416.94 L 315.07,416.86 L 315.11,416.77 L 315.15,416.69 L 315.19,416.6 L 315.21,416.51 L 315.24,416.42 L 315.26,416.33 L 315.27,416.23 L 315.28,416.14 L 315.29,416.04 C 315.29,414.96 314.38,414.11 313.3,414.15 C 312.29,414.18 311.5,415.01 311.52,416.01 C 311.53,416.99 312.3,417.81 313.29,417.84 z "
   style="fill:white;fill-rule:nonzero;stroke:white;stroke-width:0"
   id="path32" />
<path
   d="M 327.2,417.93 L 327.3,417.92 L 327.39,417.91 L 327.48,417.9 L 327.57,417.88 L 327.66,417.86 L 327.75,417.83 L 327.83,417.8 L 327.92,417.77 L 328,417.73 L 328.08,417.69 L 328.15,417.64 L 328.22,417.59 L 328.3,417.54 L 328.36,417.48 L 328.43,417.42 L 328.49,417.36 L 328.55,417.3 L 328.61,417.23 L 328.66,417.16 L 328.71,417.09 L 328.76,417.01 L 328.8,416.93 L 328.84,416.85 L 328.88,416.77 L 328.91,416.68 L 328.94,416.6 L 328.96,416.51 L 328.98,416.42 L 329,416.33 L 329.01,416.24 L 329.01,416.14 L 329.02,416.05 C 329.02,415.05 328.23,414.23 327.23,414.21 C 326.18,414.17 325.3,415 325.29,416.05 C 325.27,417.11 326.15,417.95 327.2,417.93 z "
   style="fill:white;fill-rule:nonzero;stroke:white;stroke-width:0"
   id="path34" />
</g>  </g>
</svg>
