<?xml version="1.0" encoding="UTF-8" standalone="no"?>
<svg
   version="1.0"
   width="68.612061"
   height="35.425289"
   id="svg1895"
   sodipodi:docname="CH-Zusatztafel-Wohnmotorwagen.svg"
   inkscape:version="1.1.2 (b8e25be833, 2022-02-05)"
   xmlns:inkscape="http://www.inkscape.org/namespaces/inkscape"
   xmlns:sodipodi="http://sodipodi.sourceforge.net/DTD/sodipodi-0.dtd"
   xmlns="http://www.w3.org/2000/svg"
   xmlns:svg="http://www.w3.org/2000/svg">
  <sodipodi:namedview
     id="namedview14"
     pagecolor="#ffffff"
     bordercolor="#666666"
     borderopacity="1.0"
     inkscape:pageshadow="2"
     inkscape:pageopacity="0.0"
     inkscape:pagecheckerboard="0"
     showgrid="false"
     showguides="true"
     inkscape:guide-bbox="true"
     inkscape:snap-intersection-paths="true"
     inkscape:snap-smooth-nodes="true"
     inkscape:snap-bbox="true"
     inkscape:bbox-nodes="true"
     inkscape:snap-bbox-midpoints="false"
     inkscape:snap-bbox-edge-midpoints="true"
     inkscape:zoom="11.313709"
     inkscape:cx="30.096232"
     inkscape:cy="24.527766"
     inkscape:window-width="1920"
     inkscape:window-height="1001"
     inkscape:window-x="-9"
     inkscape:window-y="-9"
     inkscape:window-maximized="1"
     inkscape:current-layer="svg1895" />
  <defs
     id="defs1897" />
  <g
     transform="translate(-268.5511,-366.0781)"
     id="layer1">
    <g
       transform="matrix(1.249992,0,0,-1.249992,-67.78424,914.9996)"
       style="font-style:normal;font-variant:normal;font-weight:normal;font-stretch:normal;letter-spacing:normal;word-spacing:normal;text-anchor:start;fill:none;fill-opacity:1;stroke:#000000;stroke-linecap:butt;stroke-linejoin:miter;stroke-miterlimit:10.433;stroke-dasharray:none;stroke-dashoffset:0;stroke-opacity:1"
       id="g10"
       xml:space="preserve">


<path
   d="m 269.07,418.12 h 0.86 v 5.31 0 c 0,0.05 0.01,0.4 0.01,0.43 0.01,0.19 0.01,0.46 0.05,0.64 0.03,0.19 0.09,0.4 0.14,0.58 0.06,0.16 0.13,0.35 0.19,0.5 v 0 l 0.16,0.42 1.98,5.98 h 11.15 v -13.3 h 1.16 v 14.07 h -12.31 v 4.07 0 c 0,0.11 0,0.35 0,0.45 0.04,0.26 0.11,0.51 0.22,0.74 0.09,0.17 0.21,0.33 0.34,0.48 0.16,0.16 0.34,0.33 0.55,0.43 0.17,0.09 0.38,0.14 0.57,0.17 0.11,0.02 0.31,0.05 0.42,0.05 v 0 h 45.39 v 0 c 0.15,0 0.32,0 0.48,-0.01 0.27,-0.03 0.53,-0.09 0.79,-0.19 0.3,-0.12 0.57,-0.31 0.81,-0.52 0.21,-0.19 0.4,-0.41 0.56,-0.64 0.11,-0.16 0.22,-0.33 0.3,-0.52 0.09,-0.2 0.15,-0.41 0.18,-0.63 0.01,-0.11 0.02,-0.23 0.02,-0.34 v 0 -18.17 h 0.87 v -2.51 h -8.24 v 0 c -0.02,0.08 -0.06,0.19 -0.09,0.27 -0.09,0.29 -0.22,0.58 -0.37,0.85 -0.41,0.72 -1.03,1.3 -1.75,1.72 -0.71,0.41 -1.51,0.65 -2.34,0.64 -0.79,-0.01 -1.55,-0.25 -2.23,-0.65 -0.74,-0.42 -1.37,-1.02 -1.76,-1.77 -0.13,-0.23 -0.24,-0.5 -0.33,-0.75 -0.03,-0.09 -0.08,-0.21 -0.11,-0.31 v 0 h -22.55 v 0 c -0.03,0.09 -0.07,0.2 -0.1,0.28 -0.11,0.29 -0.24,0.6 -0.4,0.87 -0.4,0.71 -1.02,1.28 -1.72,1.69 -0.7,0.4 -1.49,0.63 -2.29,0.63 -0.9,0 -1.78,-0.27 -2.53,-0.76 -0.63,-0.41 -1.15,-0.94 -1.54,-1.59 -0.15,-0.25 -0.28,-0.52 -0.38,-0.8 -0.03,-0.09 -0.07,-0.22 -0.1,-0.32 v 0 h -6.06 z"
   style="fill:#000000;fill-rule:nonzero;stroke-width:0"
   id="path16" />
<path
   d="m 279.73,415.64 0.06,-0.01 h 0.05 l 0.06,-0.01 0.06,-0.02 0.05,-0.01 0.06,-0.02 0.05,-0.02 0.05,-0.03 0.05,-0.02 0.05,-0.03 0.04,-0.03 0.05,-0.03 0.04,-0.04 0.04,-0.03 0.04,-0.04 0.04,-0.04 0.04,-0.05 0.03,-0.04 0.03,-0.05 0.03,-0.04 0.03,-0.05 0.03,-0.05 0.02,-0.05 0.02,-0.06 0.02,-0.05 0.02,-0.05 0.01,-0.06 0.02,-0.06 0.01,-0.05 v -0.06 l 0.01,-0.06 v -0.06 c 0.01,-0.63 -0.48,-1.17 -1.11,-1.21 -0.69,-0.03 -1.29,0.51 -1.31,1.21 -0.02,0.7 0.6,1.25 1.31,1.22 z"
   style="display:none;fill:#ffffff;fill-rule:nonzero;stroke:#ffffff;stroke-width:0"
   id="path18" />

<path
   id="polygon22"
   style="fill:#ffffff;fill-rule:nonzero;stroke:#ffffff;stroke-width:0"
   d="M 34.150391,7.9882812 V 28.275391 h 9.960937 V 7.9882812 Z m 13.736328,0 V 18.150391 H 63.587891 V 7.9882812 Z M 5.375,10.287109 2.5253906,18.150391 H 16.224609 v -7.863282 z"
   transform="matrix(0.80000512,0,0,-0.80000512,269.06999,439.14001)" />


</g>
  </g>
  <path
     id="path1255"
     style="display:inline;fill:#000000;fill-opacity:1"
     d="M 13.199219 26.375 A 4.5125842 4.5124984 0 0 0 8.6875 30.886719 A 4.5125842 4.5124984 0 0 0 13.199219 35.400391 A 4.5125842 4.5124984 0 0 0 17.712891 30.886719 A 4.5125842 4.5124984 0 0 0 13.199219 26.375 z M 13.199219 29.373047 A 1.5140109 1.5139821 0 0 1 14.712891 30.886719 A 1.5140109 1.5139821 0 0 1 13.199219 32.400391 A 1.5140109 1.5139821 0 0 1 11.685547 30.886719 A 1.5140109 1.5139821 0 0 1 13.199219 29.373047 z " />
  <path
     id="path2346"
     style="display:inline;fill:#000000;fill-opacity:1"
     d="m 52.636418,26.374844 a 4.5125842,4.5124984 0 0 0 -4.511719,4.511719 4.5125842,4.5124984 0 0 0 4.511719,4.513672 4.5125842,4.5124984 0 0 0 4.513672,-4.513672 4.5125842,4.5124984 0 0 0 -4.513672,-4.511719 z m 0,2.998047 a 1.5140109,1.5139821 0 0 1 1.513672,1.513672 1.5140109,1.5139821 0 0 1 -1.513672,1.513672 1.5140109,1.5139821 0 0 1 -1.513672,-1.513672 1.5140109,1.5139821 0 0 1 1.513672,-1.513672 z" />
</svg>
