<?xml version="1.0" encoding="UTF-8" standalone="no"?>
<svg
   version="1.0"
   width="102.61185"
   height="35.425625"
   id="svg1887"
   sodipodi:docname="CH-Zusatztafel-Autoverlad_auf_Fähre.svg"
   inkscape:version="1.1.2 (b8e25be833, 2022-02-05)"
   xmlns:inkscape="http://www.inkscape.org/namespaces/inkscape"
   xmlns:sodipodi="http://sodipodi.sourceforge.net/DTD/sodipodi-0.dtd"
   xmlns="http://www.w3.org/2000/svg"
   xmlns:svg="http://www.w3.org/2000/svg">
  <sodipodi:namedview
     id="namedview10"
     pagecolor="#ffffff"
     bordercolor="#666666"
     borderopacity="1.0"
     inkscape:pageshadow="2"
     inkscape:pageopacity="0.0"
     inkscape:pagecheckerboard="0"
     showgrid="false"
     inkscape:zoom="12.20132"
     inkscape:cx="51.346903"
     inkscape:cy="30.857317"
     inkscape:window-width="1920"
     inkscape:window-height="1001"
     inkscape:window-x="-9"
     inkscape:window-y="-9"
     inkscape:window-maximized="1"
     inkscape:current-layer="svg1887" />
  <defs
     id="defs1889" />
  <g
     transform="translate(-240.1226,-360.3637)"
     id="layer1">
    <g
       transform="matrix(1.249992,0,0,-1.249992,-79.60031,908.1352)"
       style="font-style:normal;font-variant:normal;font-weight:normal;font-stretch:normal;letter-spacing:normal;word-spacing:normal;text-anchor:start;fill:none;fill-opacity:1;stroke:#000000;stroke-linecap:butt;stroke-linejoin:miter;stroke-miterlimit:10.433;stroke-dasharray:none;stroke-dashoffset:0;stroke-opacity:1"
       id="g10"
       xml:space="preserve">
<path
   id="path12"
   style="fill:#000000;fill-rule:nonzero;stroke-width:0"
   d="m 18.625,0 -3.400391,4.0507812 -4.074218,0.625 -0.78711,0.099609 c -0.262498,0.0625 -0.5882824,0.1378915 -0.800781,0.2753906 -0.2374985,0.162499 -0.4257821,0.3625017 -0.5507812,0.625 -0.1124993,0.2374985 -0.1863285,0.4625019 -0.2363282,0.75 L 8.375,9.5742188 C 8.35,9.7367177 8.349609,9.962501 8.349609,10.125 8.324609,10.324999 8.3500002,10.54922 8.4375,10.699219 8.5125,10.836718 8.6503914,10.9375 8.7753906,11 8.9503895,11.075 9.1125013,11.113281 9.3125,11.113281 h 2.886719 c 0.025,0.162499 0.06328,0.387501 0.113281,0.5625 0.112499,0.474997 0.287892,0.924612 0.525391,1.34961 0.224998,0.362497 0.49883,0.700002 0.798828,1 0.162499,0.149999 0.438282,0.361719 0.613281,0.511718 H 6.875 l 1.375,4.47461 -0.4121094,-0.1875 C 7.000396,18.386722 5.7624943,17.799607 4.875,17.474609 3.8375066,17.099612 2.7257741,16.813281 1.6132812,16.738281 1.1757841,16.700781 0.42499728,16.699219 0,16.699219 v 5.851562 c 0.41249736,-0.025 1.0757839,-7.81e-4 1.4882812,0.01172 0.9749938,0.05 2.0234435,0.363284 2.9609376,0.738281 0.6874956,0.262499 2.3250043,1.062502 3,1.375 0.8624944,0.424998 1.9515682,0.911721 2.8515622,1.199219 0.974994,0.287498 1.961335,0.462891 2.986328,0.462891 1.024994,0 2.076179,-0.150783 3.076172,-0.425782 1.062493,-0.324998 2.360944,-0.898831 3.335938,-1.361328 0.812495,-0.374997 2.326568,-1.113283 3.164062,-1.363281 1.099993,-0.362498 2.237117,-0.5625 3.41211,-0.5625 1.012493,-0.0125 2.087506,0.112111 3.0625,0.412109 0.824994,0.274999 2.212505,0.963284 3,1.363282 0.987493,0.487497 2.287897,1.11133 3.33789,1.423828 1.074993,0.337498 2.211726,0.513672 3.324219,0.513672 1.137493,0 2.262898,-0.175784 3.337891,-0.550782 0.724995,-0.237498 2.686332,-1.237892 3.361328,-1.58789 0.849994,-0.424998 1.874615,-0.886721 2.787109,-1.136719 1.074993,-0.324998 2.17657,-0.45 3.289063,-0.4375 0.937494,0 1.887115,0.124611 2.787109,0.412109 0.874994,0.262499 2.025396,0.838284 2.837891,1.238282 0.787495,0.399997 2.061724,1.062502 2.886718,1.375 1.037494,0.387497 2.137117,0.675 3.22461,0.6875 1.062493,0.025 2.150788,-0.175393 3.175781,-0.462891 0.974994,-0.299998 2.061334,-0.774612 2.986328,-1.224609 0.674996,-0.312498 2.387895,-1.112111 3.087891,-1.34961 1.212492,-0.437497 2.462117,-0.638281 3.724609,-0.675781 1.062493,-0.0125 2.163288,0.09922 3.175781,0.386719 0.874995,0.249998 2.113287,0.863674 2.925782,1.263672 0.899994,0.462497 2.274615,1.12422 3.224609,1.449218 1.087493,0.362498 2.224617,0.600782 3.349609,0.613282 0.999994,0.025 2.025788,-0.112502 2.988282,-0.375 0.912494,-0.237499 1.937505,-0.688675 2.8125,-1.076172 0.324998,-0.149999 2.475002,-1.148439 2.8125,-1.273438 0.962493,-0.374997 1.998444,-0.700782 3.023439,-0.863281 0.51249,-0.0625 1.2875,-0.0875 1.8125,-0.125 V 16.69922 h -0.0254 -0.0117 -0.0117 -0.0137 -0.0117 -0.0137 -0.0117 l -0.0117,0.01367 h -0.0137 -0.0254 -0.0117 -0.0117 -0.0137 -0.0117 -0.0137 l -0.0117,0.01172 h -0.0117 -0.0254 -0.0137 -0.0234 -0.0137 -0.0117 l -0.0137,-0.01172 h -0.0117 -0.0117 -0.0137 -0.0117 -0.0137 -0.0234 -0.0137 -0.0117 -0.0137 l -0.0234,-0.01367 h -0.0137 -0.0117 -0.0254 -0.0117 -0.0254 l -0.0254,-0.01172 c -0.8625,-0.1 -1.66173,0.150001 -2.44922,0.375 -1.049993,0.287498 -2.187897,0.774612 -3.150391,1.224609 -0.687495,0.312498 -1.362504,0.662893 -2,1.025391 C 94.29961,19.375 94.112499,19.47461 94,19.537109 l 1.787109,-5 H 90.798828 C 90.973827,14.38711 91.23711,14.174999 91.412109,14 c 0.287499,-0.299998 0.536721,-0.637502 0.761719,-1 0.212499,-0.337498 0.350391,-0.712503 0.462891,-1.125 0.0625,-0.212499 0.112891,-0.52422 0.15039,-0.761719 0.174999,0 0.44922,0.0125 0.636719,0 0.212499,-0.05 0.476564,-0.113673 0.664063,-0.263672 0.149999,-0.124999 0.249219,-0.298829 0.324218,-0.486328 0.0625,-0.212498 0.0625,-0.5375011 0.0625,-0.7499998 V 6.7128906 c 0,-0.3249979 -0.05078,-0.6382831 -0.175781,-0.9257812 -0.1,-0.2874982 -0.27422,-0.5488294 -0.511719,-0.7363282 -0.249998,-0.2124986 -0.575392,-0.337891 -0.90039,-0.4003906 -0.249999,-0.0625 -0.887502,-0.1125001 -1.125,-0.125 l -8,-0.4746094 L 79.650391,0 H 63.636719 l -3.361328,4.0507812 -4.875,0.4863282 c -0.237499,0.025 -0.500783,0.063672 -0.738282,0.1386718 -0.199998,0.0375 -0.462891,0.1242197 -0.65039,0.2617188 -0.237499,0.162499 -0.42461,0.4132829 -0.53711,0.6757812 C 53.34961,5.8757796 53.2625,6.2003927 53.25,6.5253906 l -0.263672,3.0625 c -0.025,0.2124987 -0.025,0.4496104 0,0.6621094 0.025,0.174999 0.03789,0.38672 0.150391,0.511719 0.112499,0.149999 0.276173,0.238281 0.451172,0.300781 0.174999,0.05 0.48711,0.05078 0.662109,0.05078 h 2.324219 c 0.0375,0.187499 0.04961,0.436329 0.09961,0.611328 0.112499,0.487497 0.275392,0.938284 0.525391,1.363282 0.237498,0.374997 0.537893,0.725001 0.90039,1 0.149999,0.149999 0.39922,0.311719 0.574219,0.449218 h -12.32422 c 0.199999,-0.174999 0.500002,-0.39961 0.6875,-0.599609 0.299998,-0.274998 0.537111,-0.600393 0.72461,-0.962891 0.174999,-0.337497 0.32461,-0.674611 0.412109,-1.037109 0.0625,-0.237498 0.126563,-0.58672 0.164063,-0.824219 0.112499,0 0.26211,-0.03906 0.349609,-0.03906 0.249998,-0.0375 0.486329,-0.137111 0.673828,-0.28711 0.149999,-0.124999 0.2625,-0.298829 0.3125,-0.486328 0.1,-0.249998 0.113281,-0.5390639 0.113281,-0.7890622 V 6.7753906 c 0,-0.3499977 -0.075,-0.7253925 -0.25,-1.0253906 -0.149999,-0.2624983 -0.400001,-0.5132823 -0.6875,-0.6757812 -0.299998,-0.162499 -0.675392,-0.2500004 -1.02539,-0.3125 l -1.09961,-0.0625 -8.0625,-0.6484376 L 34.75,0 Z m 1.738281,11.113281 H 40.25 c 0.025,0.162499 0.025,0.448829 0.0625,0.611328 0.0625,0.449997 0.212501,0.900784 0.4375,1.300782 0.212499,0.399997 0.500393,0.76133 0.837891,1.048828 0.187498,0.137499 0.51211,0.337891 0.724609,0.46289 H 18.238281 c 0.187499,-0.174999 0.48633,-0.400391 0.673828,-0.58789 0.324998,-0.299998 0.600393,-0.636721 0.837891,-1.011719 0.237498,-0.412497 0.399219,-0.825394 0.511719,-1.275391 0.0375,-0.149999 0.07656,-0.386329 0.101562,-0.548828 z m 44.261719,0 h 19.962891 c 0.0125,0.212499 0.03594,0.510939 0.08594,0.710938 0.0625,0.412497 0.200392,0.813674 0.400391,1.201172 0.199998,0.362497 0.451174,0.69883 0.763672,0.986328 0.212498,0.162499 0.535939,0.375391 0.773437,0.52539 H 62.662109 C 62.824608,14.38711 63.087501,14.20078 63.25,14.050781 c 0.299998,-0.274998 0.612501,-0.625393 0.8125,-0.96289 0.262498,-0.449997 0.4125,-0.938676 0.5,-1.451172 0.0125,-0.149999 0.025,-0.385939 0.0625,-0.523438 z"
   transform="matrix(0.80000512,0,0,-0.80000512,255.77996,438.22)" />
<path
   d="m 337.87,417.61 h -0.02 -0.01 -0.03 -0.03 -0.03 -0.03 -0.03 -0.03 -0.03 -0.03 -0.03 -0.03 -0.03 -0.03 -0.03 -0.03 -0.01 -0.02 c -0.63,-0.02 -1.34,-0.17 -1.96,-0.37 -0.85,-0.26 -1.72,-0.62 -2.52,-1 -0.43,-0.19 -2.08,-0.95 -2.52,-1.12 -0.93,-0.32 -1.89,-0.51 -2.87,-0.51 -0.77,0 -1.55,0.12 -2.3,0.32 -0.7,0.23 -1.56,0.6 -2.25,0.93 -0.63,0.3 -1.99,0.94 -2.68,1.19 -0.93,0.33 -1.92,0.52 -2.91,0.54 -0.99,0 -2,-0.2 -2.93,-0.51 -0.82,-0.26 -1.72,-0.63 -2.52,-1 -0.59,-0.28 -1.93,-0.89 -2.53,-1.08 -0.89,-0.29 -1.82,-0.44 -2.76,-0.39 -0.73,0.05 -1.48,0.24 -2.18,0.5 -0.72,0.25 -1.55,0.64 -2.23,0.97 -0.59,0.29 -1.71,0.83 -2.32,1.03 -0.89,0.31 -1.81,0.48 -2.77,0.48 -0.92,-0.02 -1.85,-0.2 -2.74,-0.49 -0.73,-0.26 -1.86,-0.78 -2.55,-1.15 -0.65,-0.32 -1.61,-0.76 -2.32,-0.98 -0.8,-0.24 -1.64,-0.36 -2.49,-0.36 -0.84,0 -1.65,0.12 -2.46,0.34 -0.8,0.22 -1.65,0.59 -2.4,0.97 -0.53,0.26 -2.11,1.04 -2.68,1.23 -0.92,0.3 -1.89,0.44 -2.86,0.44 -0.78,-0.02 -1.59,-0.14 -2.35,-0.35 -0.81,-0.23 -1.75,-0.67 -2.5,-1.05 -0.64,-0.32 -1.9,-0.95 -2.57,-1.15 -0.83,-0.29 -1.72,-0.43 -2.6,-0.43 -0.79,0 -1.58,0.1 -2.35,0.32 -0.65,0.2 -1.61,0.66 -2.22,0.98 -0.68,0.33 -1.64,0.82 -2.37,1.07 -0.83,0.31 -1.72,0.53 -2.61,0.59 -0.35,0.02 -0.86,0.02 -1.22,0.02 v 0 -4.67 0 c 0.32,0.02 0.79,0 1.12,-0.02 0.78,-0.02 1.62,-0.29 2.37,-0.58 0.55,-0.22 1.86,-0.85 2.4,-1.1 0.69,-0.34 1.56,-0.74 2.28,-0.96 0.78,-0.24 1.57,-0.38 2.39,-0.38 0.82,0 1.66,0.13 2.46,0.35 0.85,0.25 1.89,0.72 2.67,1.09 0.65,0.31 1.86,0.88 2.53,1.09 0.88,0.29 1.79,0.44 2.73,0.47 0.81,0 1.67,-0.09 2.45,-0.35 0.66,-0.21 1.79,-0.77 2.4,-1.09 0.81,-0.41 1.81,-0.89 2.67,-1.14 0.86,-0.28 1.77,-0.42 2.66,-0.42 0.91,0 1.81,0.14 2.67,0.45 0.58,0.19 2.15,0.99 2.69,1.26 0.68,0.34 1.5,0.72 2.23,0.92 0.86,0.26 1.74,0.38 2.63,0.37 0.75,-0.03 1.51,-0.13 2.23,-0.35 0.7,-0.21 1.62,-0.66 2.27,-0.99 0.63,-0.32 1.65,-0.85 2.31,-1.11 0.83,-0.31 1.71,-0.52 2.58,-0.55 0.85,-0.01 1.72,0.14 2.54,0.38 0.78,0.24 1.65,0.62 2.39,0.97 0.56,0.26 1.91,0.91 2.47,1.09 0.97,0.34 1.97,0.53 2.98,0.56 0.85,0.01 1.73,-0.09 2.54,-0.33 0.7,-0.21 1.69,-0.68 2.34,-1.01 0.72,-0.36 1.82,-0.91 2.58,-1.16 0.87,-0.29 1.78,-0.47 2.68,-0.5 0.82,-0.01 1.62,0.09 2.39,0.32 0.71,0.18 1.57,0.54 2.25,0.84 0.36,0.18 1.88,0.87 2.25,1.03 0.77,0.31 1.6,0.56 2.42,0.68 0.41,0.05 1.03,0.09 1.45,0.1 v 0 z"
   style="fill:#000000;fill-rule:nonzero;stroke-width:0"
   id="path14" />


</g>
  </g>
</svg>
