<?xml version="1.0" encoding="UTF-8" standalone="no"?>
<!DOCTYPE svg PUBLIC "-//W3C//DTD SVG 1.0//EN" "http://www.w3.org/TR/2001/REC-SVG-20010904/DTD/svg10.dtd">
<svg
   xmlns:svg="http://www.w3.org/2000/svg"
   xmlns="http://www.w3.org/2000/svg"
   version="1.0"
   width="106.29932"
   height="106.29932"
   id="svg1885">
  <defs
     id="defs1887" />
  <g
     transform="translate(-192.5647,-379.2125)"
     id="layer1">
    <g
       transform="matrix(1.249992,0,0,-1.249992,-124.9333,963.3838)"
       style="font-style:normal;font-variant:normal;font-weight:normal;font-stretch:normal;letter-spacing:normal;word-spacing:normal;text-anchor:start;fill:none;fill-opacity:1;stroke:black;stroke-linecap:butt;stroke-linejoin:miter;stroke-miterlimit:10.43299961;stroke-dasharray:none;stroke-dashoffset:0;stroke-opacity:1"
       id="g10"
       xml:space="preserve">
<polygon
   points="254,382.3 339.04,382.3 339.04,467.34 254,467.34 254,382.3 "
   style="fill:black;fill-rule:nonzero;stroke-width:0"
   id="polygon12" />
<polygon
   points="254.85,383.16 338.19,383.16 338.19,466.49 254.85,466.49 254.85,383.16 "
   style="fill:white;fill-rule:nonzero;stroke:white;stroke-width:0"
   id="polygon14" />
<polygon
   points="300.78,432.2 300.78,445.06 309.28,449.94 309.26,454.88 304.92,457.39 300.79,454.95 300.79,459.79 296.53,462.24 292.28,459.79 292.28,454.93 288.11,457.39 283.76,454.88 283.75,449.94 292.28,445.04 292.28,432.19 281.12,438.63 281.14,448.43 276.86,450.89 272.51,448.38 272.55,443.59 268.37,446 264.11,443.54 264.12,438.63 268.32,436.21 264.11,433.82 264.11,428.8 268.38,426.32 276.88,431.26 288.02,424.83 276.87,418.4 268.38,423.32 264.11,420.84 264.11,415.82 268.3,413.45 264.11,411.03 264.11,406.12 268.37,403.67 272.56,406.1 272.52,401.27 276.86,398.76 281.15,401.21 281.13,411.04 292.28,417.48 292.28,404.6 283.76,399.71 283.77,394.77 288.12,392.26 292.28,394.71 292.28,389.87 296.52,387.41 300.77,389.86 300.77,394.7 304.93,392.26 309.27,394.77 309.29,399.71 300.77,404.6 300.77,417.46 311.91,411.04 311.89,401.21 316.17,398.76 320.52,401.27 320.47,406.1 324.67,403.67 328.92,406.12 328.93,411.03 324.73,413.45 328.92,415.82 328.92,420.84 324.65,423.32 316.16,418.4 305.02,424.83 316.15,431.26 324.66,426.32 328.93,428.8 328.93,433.82 324.71,436.21 328.91,438.63 328.92,443.54 324.67,446 320.48,443.59 320.52,448.38 316.18,450.89 311.89,448.43 311.91,438.63 300.78,432.2 "
   style="fill:black;fill-rule:nonzero;stroke-width:0"
   id="polygon16" />
</g>  </g>
</svg>
