<?xml version="1.0" encoding="UTF-8" standalone="no"?>
<!DOCTYPE svg PUBLIC "-//W3C//DTD SVG 1.0//EN" "http://www.w3.org/TR/2001/REC-SVG-20010904/DTD/svg10.dtd">
<svg
   xmlns:svg="http://www.w3.org/2000/svg"
   xmlns="http://www.w3.org/2000/svg"
   version="1.0"
   width="106.29932"
   height="106.29932"
   id="svg1901">
  <defs
     id="defs1903" />
  <g
     transform="translate(-281.1361,-422.0697)"
     id="layer1">
    <g
       transform="matrix(1.249992,0,0,-1.249992,-36.36191,1006.241)"
       style="font-style:normal;font-variant:normal;font-weight:normal;font-stretch:normal;letter-spacing:normal;word-spacing:normal;text-anchor:start;fill:none;fill-opacity:1;stroke:black;stroke-linecap:butt;stroke-linejoin:miter;stroke-miterlimit:10.43299961;stroke-dasharray:none;stroke-dashoffset:0;stroke-opacity:1"
       id="g10"
       xml:space="preserve">
<polygon
   points="254,382.3 339.04,382.3 339.04,467.34 254,467.34 254,382.3 "
   style="fill:black;fill-rule:nonzero;stroke-width:0"
   id="polygon12" />
<polygon
   points="254.71,383.02 338.33,383.02 338.33,466.64 254.71,466.64 254.71,383.02 "
   style="fill:white;fill-rule:nonzero;stroke:white;stroke-width:0"
   id="polygon14" />
<path
   d="M 272.38,396.05 L 274.8,396.67 L 273.68,398.14 L 273.22,397.8 L 271.38,400.28 L 276.09,403.78 L 276.46,403.11 L 278,404.43 L 274.99,407.52 L 276.46,408.95 L 279.68,405.71 L 294.45,416.53 L 295.86,414.62 L 280.72,403.46 L 281.07,402.96 L 289.2,408.88 L 290.45,407.2 L 282.95,401.64 L 282.95,401.64 C 282.84,401.66 282.69,401.66 282.58,401.66 C 281.41,401.73 280.25,401.4 279.23,400.82 C 278.28,400.28 277.5,399.5 276.94,398.55 C 276.38,397.6 276.07,396.52 276.09,395.42 C 276.12,394.86 276.22,394.27 276.38,393.73 C 276.44,393.52 276.57,393.22 276.63,393 L 276.63,393 L 260.27,389.5 L 260.4,388.88 L 259.49,388.68 L 259.36,389.31 L 257.22,388.86 L 256.83,390.67 L 271.99,394.77 L 272.38,396.05 z "
   style="fill:black;fill-rule:nonzero;stroke-width:0"
   id="path16" />
<path
   d="M 275.73,424.1 L 275.75,424.1 L 275.77,424.11 L 275.82,424.12 L 275.87,424.14 L 275.92,424.15 L 275.97,424.17 L 276.03,424.18 L 276.14,424.21 L 276.19,424.23 L 276.25,424.24 L 276.3,424.26 L 276.35,424.27 L 276.4,424.28 L 276.45,424.29 L 276.48,424.3 L 276.5,424.3 L 276.52,424.31 L 276.55,424.31 C 278.28,424.75 280.07,424.92 281.85,424.92 C 283.81,424.9 285.8,424.62 287.73,424.12 C 289.61,423.6 291.45,422.84 293.13,421.88 C 294.86,420.88 296.44,419.65 297.85,418.22 C 299.23,416.82 300.44,415.26 301.43,413.55 C 302.43,411.85 303.18,409.99 303.7,408.09 C 304.16,406.45 304.44,404.74 304.48,403.04 C 304.48,402.77 304.48,402.41 304.48,402.15 L 304.48,402.15 L 303.18,402.15 L 303.18,402.15 C 303.18,402.41 303.18,402.75 303.16,403.01 C 303.12,404.61 302.86,406.21 302.43,407.74 C 301.93,409.54 301.22,411.29 300.27,412.91 C 299.34,414.5 298.21,415.97 296.89,417.29 C 295.57,418.61 294.08,419.76 292.48,420.71 C 290.88,421.64 289.18,422.37 287.38,422.84 C 285.59,423.34 283.7,423.56 281.85,423.58 C 280.2,423.6 278.47,423.47 276.89,423.06 C 276.66,423 276.31,422.91 276.07,422.82 L 276.07,422.82 L 275.73,424.1 z "
   style="fill:black;fill-rule:nonzero;stroke-width:0"
   id="path18" />
<path
   d="M 282.28,401.14 L 282.57,401.14 L 282.86,401.12 L 283.14,401.08 L 283.42,401.03 L 283.7,400.97 L 283.97,400.89 L 284.23,400.8 L 284.48,400.7 L 284.74,400.58 L 284.98,400.46 L 285.21,400.32 L 285.44,400.17 L 285.67,400.02 L 285.88,399.85 L 286.08,399.67 L 286.28,399.48 L 286.46,399.28 L 286.64,399.08 L 286.81,398.86 L 286.97,398.64 L 287.11,398.41 L 287.25,398.17 L 287.37,397.93 L 287.48,397.67 L 287.59,397.42 L 287.67,397.15 L 287.75,396.88 L 287.81,396.61 L 287.86,396.33 L 287.9,396.05 L 287.92,395.76 L 287.93,395.46 C 287.93,392.36 285.39,389.82 282.26,389.82 C 279.15,389.82 276.62,392.36 276.62,395.46 C 276.62,398.6 279.15,401.14 282.28,401.14 z "
   style="fill:black;fill-rule:nonzero;stroke-width:0"
   id="path20" />
<path
   d="M 273.66,431.66 L 273.69,431.66 L 273.71,431.67 L 273.73,431.68 L 273.76,431.68 L 273.81,431.7 L 273.87,431.71 L 273.92,431.72 L 273.98,431.74 L 274.04,431.75 L 274.1,431.77 L 274.15,431.78 L 274.21,431.79 L 274.27,431.81 L 274.33,431.82 L 274.38,431.84 L 274.43,431.85 L 274.46,431.86 L 274.48,431.86 L 274.5,431.87 L 274.53,431.88 C 276.93,432.41 279.39,432.74 281.86,432.74 C 284.52,432.74 287.18,432.39 289.75,431.68 C 292.3,430.99 294.75,429.95 297.04,428.63 C 299.35,427.3 301.51,425.65 303.39,423.75 C 305.27,421.88 306.89,419.78 308.21,417.48 C 309.54,415.18 310.57,412.69 311.26,410.12 C 311.91,407.81 312.28,405.41 312.32,403.04 C 312.32,402.77 312.32,402.41 312.32,402.15 L 312.32,402.15 L 311.18,402.15 L 311.18,402.15 C 311.18,402.39 311.18,402.75 311.18,402.99 C 311.13,405.28 310.77,407.59 310.14,409.8 C 309.47,412.26 308.5,414.63 307.22,416.86 C 305.95,419.09 304.39,421.14 302.57,422.95 C 300.75,424.77 298.7,426.32 296.47,427.62 C 294.27,428.87 291.91,429.87 289.47,430.54 C 287.01,431.2 284.43,431.57 281.86,431.59 C 279.5,431.59 277.14,431.29 274.85,430.75 C 274.61,430.69 274.23,430.6 274.01,430.54 L 274.01,430.54 L 273.66,431.66 z "
   style="fill:black;fill-rule:nonzero;stroke-width:0"
   id="path22" />
<path
   d="M 271.57,439.3 L 271.59,439.31 L 271.61,439.32 L 271.64,439.32 L 271.66,439.33 L 271.69,439.34 L 271.71,439.34 L 271.74,439.35 L 271.77,439.36 L 271.82,439.37 L 271.88,439.39 L 271.94,439.4 L 272,439.41 L 272.06,439.43 L 272.12,439.44 L 272.18,439.46 L 272.24,439.47 L 272.27,439.48 L 272.29,439.48 L 272.32,439.49 L 272.34,439.5 L 272.37,439.5 L 272.39,439.51 L 272.41,439.51 L 272.43,439.52 C 275.5,440.21 278.68,440.64 281.84,440.64 C 285.19,440.64 288.57,440.19 291.8,439.3 C 295.03,438.44 298.12,437.14 301.02,435.48 C 303.94,433.8 306.62,431.72 309,429.35 C 311.38,426.97 313.43,424.31 315.09,421.42 C 316.76,418.5 318.05,415.39 318.92,412.15 C 319.74,409.17 320.2,406.1 320.24,403.04 C 320.26,402.75 320.26,402.41 320.26,402.15 L 320.26,402.15 L 319.33,402.15 L 319.33,402.15 C 319.33,402.41 319.33,402.77 319.31,403.04 C 319.2,406.02 318.81,409.02 318.03,411.91 C 317.19,415.09 315.91,418.14 314.25,420.96 C 312.63,423.77 310.64,426.37 308.35,428.68 C 306.01,431.01 303.38,433.04 300.5,434.7 C 297.71,436.3 294.68,437.54 291.57,438.38 C 288.39,439.24 285.11,439.71 281.82,439.71 C 278.79,439.7 275.66,439.24 272.69,438.59 C 272.45,438.55 272.04,438.44 271.83,438.4 L 271.83,438.4 L 271.57,439.3 z "
   style="fill:black;fill-rule:nonzero;stroke-width:0"
   id="path24" />
<path
   d="M 269.52,446.89 L 269.55,446.89 L 269.57,446.9 L 269.59,446.91 L 269.62,446.91 L 269.67,446.92 L 269.72,446.94 L 269.78,446.95 L 269.83,446.97 L 269.89,446.98 L 269.95,446.99 L 270,447.01 L 270.06,447.02 L 270.11,447.04 L 270.17,447.05 L 270.22,447.06 L 270.27,447.08 L 270.3,447.08 L 270.32,447.09 L 270.34,447.1 L 270.37,447.1 C 274.13,448.03 277.98,448.51 281.85,448.51 C 285.91,448.51 289.95,447.96 293.87,446.91 C 297.74,445.87 301.46,444.32 304.94,442.31 C 308.46,440.28 311.73,437.81 314.61,434.92 C 317.44,432.07 319.9,428.83 321.91,425.33 C 323.93,421.83 325.52,418.09 326.56,414.18 C 327.54,410.55 328.03,406.77 328.14,402.99 C 328.14,402.75 328.14,402.41 328.14,402.15 L 328.14,402.15 L 327.38,402.15 L 327.38,402.15 C 327.36,402.41 327.36,402.73 327.36,402.99 C 327.25,406.68 326.8,410.42 325.85,413.98 C 324.83,417.83 323.25,421.53 321.24,424.98 C 319.25,428.39 316.86,431.57 314.04,434.38 C 311.23,437.21 308.03,439.65 304.55,441.66 C 301.13,443.62 297.46,445.14 293.65,446.17 C 289.8,447.21 285.82,447.77 281.85,447.77 C 278.06,447.77 274.24,447.23 270.54,446.39 C 270.32,446.32 269.93,446.24 269.72,446.2 L 269.72,446.2 L 269.52,446.89 z "
   style="fill:black;fill-rule:nonzero;stroke-width:0"
   id="path26" />
<path
   d="M 267.46,454.54 L 267.48,454.54 L 267.5,454.54 L 267.53,454.55 L 267.55,454.55 L 267.57,454.56 L 267.6,454.57 L 267.62,454.57 L 267.65,454.58 L 267.7,454.59 L 267.76,454.61 L 267.81,454.62 L 267.87,454.64 L 267.92,454.65 L 267.98,454.67 L 268.03,454.68 L 268.08,454.7 L 268.11,454.71 L 268.13,454.71 L 268.16,454.72 L 268.18,454.73 L 268.2,454.73 L 268.22,454.74 L 268.24,454.75 L 268.26,454.75 C 272.71,455.9 277.28,456.46 281.86,456.46 C 286.59,456.46 291.33,455.83 295.91,454.58 C 300.48,453.35 304.87,451.54 308.95,449.15 C 313.06,446.78 316.82,443.88 320.17,440.52 C 323.52,437.17 326.42,433.41 328.78,429.3 C 331.16,425.2 332.97,420.77 334.23,416.19 C 335.39,411.93 336.11,407.46 336.06,403.04 C 336.04,402.8 336.04,402.39 336.04,402.15 L 336.04,402.15 L 335.57,402.15 L 335.57,402.15 C 335.57,402.39 335.57,402.8 335.57,403.04 C 335.52,407.44 334.88,411.82 333.73,416.06 C 332.5,420.62 330.7,424.98 328.34,429.07 C 326.01,433.13 323.13,436.86 319.83,440.17 C 316.5,443.5 312.76,446.37 308.69,448.72 C 304.63,451.06 300.28,452.87 295.77,454.08 C 291.22,455.29 286.55,455.92 281.84,455.94 C 277.3,455.94 272.78,455.42 268.39,454.28 C 268.18,454.21 267.81,454.12 267.59,454.06 L 267.59,454.06 L 267.46,454.54 z "
   style="fill:black;fill-rule:nonzero;stroke-width:0"
   id="path28" />
<path
   d="M 282.33,399.08 L 282.51,399.08 L 282.7,399.06 L 282.88,399.03 L 283.05,399 L 283.23,398.96 L 283.4,398.91 L 283.57,398.85 L 283.73,398.78 L 283.89,398.71 L 284.04,398.63 L 284.19,398.54 L 284.34,398.44 L 284.48,398.34 L 284.62,398.23 L 284.75,398.11 L 284.87,397.99 L 284.99,397.87 L 285.1,397.73 L 285.21,397.6 L 285.31,397.45 L 285.4,397.31 L 285.49,397.15 L 285.57,397 L 285.64,396.84 L 285.7,396.67 L 285.76,396.51 L 285.81,396.33 L 285.85,396.16 L 285.88,395.98 L 285.9,395.8 L 285.91,395.62 L 285.92,395.43 C 285.9,393.45 284.3,391.85 282.31,391.85 C 280.32,391.82 278.7,393.45 278.7,395.43 C 278.68,397.44 280.32,399.08 282.33,399.08 z "
   style="fill:white;fill-rule:nonzero;stroke:white;stroke-width:0"
   id="path30" />
<path
   d="M 282.28,398.6 L 282.44,398.6 L 282.6,398.58 L 282.76,398.56 L 282.92,398.53 L 283.07,398.49 L 283.22,398.45 L 283.37,398.4 L 283.51,398.34 L 283.65,398.27 L 283.79,398.2 L 283.92,398.13 L 284.05,398.04 L 284.17,397.95 L 284.29,397.86 L 284.41,397.76 L 284.51,397.65 L 284.62,397.54 L 284.72,397.43 L 284.81,397.31 L 284.9,397.18 L 284.98,397.05 L 285.05,396.92 L 285.12,396.79 L 285.18,396.65 L 285.24,396.5 L 285.29,396.36 L 285.33,396.21 L 285.36,396.06 L 285.39,395.9 L 285.41,395.75 L 285.42,395.59 L 285.42,395.43 C 285.42,393.7 284.01,392.31 282.28,392.31 C 280.55,392.29 279.12,393.68 279.12,395.43 C 279.11,397.18 280.53,398.6 282.28,398.6 z "
   style="fill:black;fill-rule:nonzero;stroke-width:0"
   id="path32" />
</g>  </g>
</svg>
