<?xml version="1.0" encoding="UTF-8" standalone="no"?>
<svg
   xmlns:dc="http://purl.org/dc/elements/1.1/"
   xmlns:cc="http://creativecommons.org/ns#"
   xmlns:rdf="http://www.w3.org/1999/02/22-rdf-syntax-ns#"
   xmlns:svg="http://www.w3.org/2000/svg"
   xmlns="http://www.w3.org/2000/svg"
   viewBox="0 0 114.04 112.90667"
   height="112.90667"
   width="114.04"
   xml:space="preserve"
   id="svg2"
   version="1.1"><metadata
     id="metadata8"><rdf:RDF><cc:Work
         rdf:about=""><dc:format>image/svg+xml</dc:format><dc:type
           rdf:resource="http://purl.org/dc/dcmitype/StillImage" /></cc:Work></rdf:RDF></metadata><defs
     id="defs6" /><g
     transform="matrix(1.3333333,0,0,-1.3333333,0,112.90667)"
     id="g10"><g
       transform="scale(0.1)"
       id="g12"><path
         id="path14"
         style="fill:#231f20;fill-opacity:1;fill-rule:nonzero;stroke:none"
         d="m 328.27,842.109 10.214,-4.734 9.368,-4.707 9.433,-5.012 9.172,-5.09 8.641,-4.937 7.664,-4.465 7.738,-4.57 7.793,-4.637 7.762,-4.707 7.761,-4.809 7.707,-4.871 7.657,-4.914 7.558,-4.968 7.5,-5.02 7.317,-5.078 7.183,-5.117 6.953,-5.11 6.946,-5.215 6.843,-5.293 6.848,-5.417 6.777,-5.45 6.739,-5.554 6.679,-5.664 6.602,-5.696 6.57,-5.722 6.516,-5.829 6.434,-5.871 6.367,-5.898 6.301,-5.93 6.269,-5.965 5.984,-5.832 5.997,-5.894 5.929,-5.969 5.891,-5.969 5.828,-6.07 5.781,-6.066 5.762,-6.133 5.684,-6.172 5.656,-6.238 5.586,-6.282 5.515,-6.296 5.481,-6.379 5.418,-6.446 5.34,-6.472 5.316,-6.516 5.176,-6.484 5.117,-6.543 5.066,-6.582 5.008,-6.614 4.934,-6.675 4.914,-6.719 4.832,-6.789 4.766,-6.785 4.699,-6.848 4.668,-6.856 4.597,-6.921 4.532,-6.954 4.492,-6.996 4.422,-6.98 4.394,-7.063 4.328,-7.058 4.258,-7.09 4.121,-6.887 4.121,-7.09 4.121,-7.195 4.122,-7.324 4.152,-7.402 4.121,-7.5 4.09,-7.54 4.082,-7.57 4.051,-7.594 4.027,-7.609 3.941,-7.566 3.918,-7.5 3.848,-7.461 3.777,-7.407 3.684,-7.261 3.613,-7.16 3.848,-7.598 3.984,-8.086 4.121,-8.391 4.121,-8.648 4.051,-8.731 3.946,-8.691 3.71,-8.566 3.45,-8.282 3.093,-7.871 3.098,-8.496 2.969,-8.652 2.824,-8.731 2.691,-8.828 25.239,-87.656 v 0 C 868.332,104.629 835.098,44.9023 777.813,28.7695 v 0 L 675.398,0 v 0 c -14.746,-4.16016 -29.929,4.875 -33.367,19.8047 v 0 L 603.719,186.086 v 0 c -3.242,13.973 5.109,28.016 18.871,31.875 v 0 l 72.398,20.379 v 0 c 13.215,3.723 23.637,13.918 27.617,27.07 3.989,13.137 1.028,27.41 -7.898,37.852 v 0 l -35.996,42.136 -6.68,7.5 -6.672,7.297 -6.433,6.856 -6.406,6.75 -6.473,6.746 -6.574,6.789 -6.602,6.785 -6.641,6.777 -6.64,6.719 -6.574,6.653 -6.336,6.445 -7.012,7.254 -7.363,7.707 -7.215,7.769 -6.742,7.512 -5.828,6.887 -6.028,7.664 -6.336,8.703 -6.367,9.062 -6.094,8.895 -5.449,8.086 -5.312,7.937 -5.684,8.696 -5.789,9.109 -5.695,9.172 -5.313,8.895 -4.695,8.281 -23.403,45.586 -6.226,10.703 -7.082,10.605 -7.832,9.688 -7.16,7.258 -7.832,6.648 -8.27,6.066 -6.68,4.227 -7.179,3.855 -7.324,2.793 -5.079,1.125 -5.269,0.45 -5.215,-0.45 -6.406,-2.214 -6.235,-3.711 -5.515,-4.231 -0.188,-3.254 -3.687,0.012 -1.535,-1.355 -22.442,-26.797 v 0 C 350.41,608.879 335.156,606.66 323.777,614.23 v 0 l -136.289,90.75 v 0 c -12.226,8.118 -15.633,24.583 -7.664,36.922 v 0 l 28.328,43.782 19.864,28.972 v 0 c 22.238,32.434 64.629,44.055 100.254,27.453 v 0 M 2.35156,14.8359 C 8.37891,11.457 15.7695,9.10156 24.5195,7.12891 c 8.75,-1.70703 18.4961,-2.35547 29.2578,-2.35547 22.5118,0 40.6563,5.99996 53.7737,18.13676 13.113,12.1015 19.508,28.914 19.508,50.457 v 0 c 0,10.0898 -1.356,18.8594 -4.391,25.9101 -3.031,7.0627 -7.387,13.4647 -12.426,18.8597 -5.047,5.386 -11.1014,10.429 -18.1522,14.793 -7.0507,4.406 -14.4453,8.761 -22.1679,13.125 -5.7227,3.379 -10.7617,6.418 -14.8164,9.445 -4.3633,3.008 -7.7305,5.691 -10.086,8.73 -2.6836,2.696 -4.6992,5.731 -5.7226,9.102 -0.9883,3.035 -1.6602,6.719 -1.6602,10.77 0,9.074 3.0274,16.816 9.0899,22.539 6.0273,5.734 14.4336,8.757 25.539,8.757 8.3789,0 16.4532,-1.011 23.5352,-3.023 7.0512,-2.355 13.1172,-4.707 18.4842,-7.402 v 0 l 0.996,32.285 v 0 c -4.363,1.707 -10.761,3.719 -18.4958,5.39 -8.0664,1.668 -17.1289,2.696 -27.2032,2.696 -9.4375,0 -18.1562,-1.34 -26.5664,-3.684 C 34.5977,238.965 27.207,234.902 20.8086,229.863 14.4414,224.473 9.40234,218.098 5.68359,210.359 2.01172,202.617 0,193.855 0,183.77 c 0,-10.438 1.32813,-18.86 4.35547,-25.918 3.03516,-7.09 7.05083,-13.465 12.08983,-18.516 5.0469,-5.379 10.7617,-10.086 17.8125,-14.141 6.75,-4.363 14.1406,-8.73 21.8672,-13.465 6.3633,-3.683 11.7461,-7.406 16.1406,-10.441 4.3672,-3.3398 7.7344,-6.707 10.418,-9.746 2.3555,-3.0352 4.3672,-6.375 5.3828,-9.7578 0.9883,-3.711 1.3281,-7.3907 1.3281,-11.7969 0,-10.7305 -3.6718,-19.1563 -10.7617,-25.5625 -7.0508,-6.3789 -16.4453,-9.7461 -27.8906,-9.7461 -9.3945,0 -18.1524,1.668 -26.5625,5.0391 -8.4102,3.0351 -15.1172,6.414 -20.50001,9.7539 v 0 L 2.35156,14.8359 v 0 M 208.73,57.5508 c -9.093,16.1601 -13.457,38.3555 -13.457,66.3042 0,17.161 1.368,31.645 4.364,43.411 2.687,11.797 6.398,21.543 11.437,28.945 4.707,7.062 10.43,12.441 16.797,15.82 6.395,3.028 13.445,4.707 20.535,4.707 16.789,0 29.563,-8.086 38.653,-24.25 8.711,-16.121 13.109,-38.347 13.109,-66.277 v 0 c 0,-17.18 -1.359,-31.629 -4.055,-43.3985 -3.027,-11.7969 -6.711,-21.543 -11.406,-28.6016 -5.039,-7.4336 -10.762,-12.8242 -17.168,-15.8203 -6.367,-3.3789 -13.445,-5.0508 -20.496,-5.0508 -16.789,0 -29.594,8.0469 -38.313,24.211 v 0 M 183.523,35.0117 c 8.04,-10.0898 17.473,-17.4844 28.575,-22.5312 10.734,-5.35159 22.511,-7.70706 34.945,-7.70706 13.113,0 25.203,2.35547 36.305,7.36716 11.093,5.0469 20.5,12.4414 28.566,22.5391 8.074,9.7461 14.481,22.5273 19.18,37.7031 4.355,15.1367 6.711,33.3082 6.711,53.8282 v 0 c 0,19.844 -2.356,37.031 -6.711,51.824 -4.699,14.797 -11.106,27.238 -19.18,37.363 -8.066,9.758 -17.473,17.493 -28.234,22.543 -11.09,5.047 -22.848,7.403 -35.274,7.403 -13.113,0 -24.898,-2.356 -36.004,-7.403 -11.062,-5.05 -20.839,-12.441 -28.879,-22.226 -8.062,-10.102 -14.468,-22.883 -18.828,-38.02 -4.707,-15.136 -7.05,-33.308 -7.05,-53.84 0,-19.871 2.343,-37.0191 7.05,-51.812 4.36,-14.836 10.766,-27.2774 18.828,-37.0313 v 0 M 371.895,14.8359 c 6.027,-3.3789 13.418,-5.73434 22.168,-7.70699 8.75,-1.70703 18.488,-2.35547 29.246,-2.35547 22.523,0 40.664,5.99996 53.781,18.13676 13.117,12.1015 19.512,28.914 19.512,50.457 v 0 c 0,10.0898 -1.36,18.8594 -4.395,25.9101 -3.027,7.0627 -7.383,13.4647 -12.434,18.8597 -5.039,5.386 -11.093,10.429 -18.14,14.793 -7.051,4.406 -14.445,8.761 -22.18,13.125 -5.715,3.379 -10.762,6.418 -14.816,9.445 -4.356,3.008 -7.723,5.691 -10.078,8.73 -2.684,2.696 -4.696,5.731 -5.719,9.102 -0.988,3.035 -1.672,6.719 -1.672,10.77 0,9.074 3.039,16.816 9.102,22.539 6.027,5.734 14.433,8.757 25.535,8.757 8.379,0 16.449,-1.011 23.539,-3.023 7.047,-2.355 13.101,-4.707 18.484,-7.402 v 0 l 0.996,32.285 v 0 c -4.363,1.707 -10.761,3.719 -18.496,5.39 -8.074,1.668 -17.129,2.696 -27.207,2.696 -9.433,0 -18.152,-1.34 -26.57,-3.684 -8.41,-2.695 -15.801,-6.758 -22.199,-11.797 -6.368,-5.39 -11.418,-11.765 -15.129,-19.504 -3.668,-7.742 -5.68,-16.504 -5.68,-26.589 0,-10.438 1.324,-18.86 4.352,-25.918 3.039,-7.09 7.05,-13.465 12.089,-18.516 5.039,-5.379 10.766,-10.086 17.817,-14.141 6.746,-4.363 14.129,-8.73 21.863,-13.465 6.367,-3.683 11.746,-7.406 16.141,-10.441 4.355,-3.3398 7.738,-6.707 10.422,-9.746 2.355,-3.0352 4.367,-6.375 5.378,-9.7578 0.989,-3.711 1.329,-7.3907 1.329,-11.7969 0,-10.7305 -3.672,-19.1563 -10.758,-25.5625 -7.051,-6.3789 -16.449,-9.7461 -27.895,-9.7461 -9.394,0 -18.152,1.668 -26.562,5.0391 -8.406,3.0351 -15.117,6.414 -20.496,9.7539 v 0 l -1.328,-34.6368 v 0" /></g></g></svg>