<?xml version="1.0" encoding="UTF-8" standalone="no"?>
<svg
   version="1.0"
   width="37.724758"
   height="35.424774"
   id="svg1897"
   sodipodi:docname="CH-Zusatztafel-Schlitteln.svg"
   inkscape:version="1.1.2 (b8e25be833, 2022-02-05)"
   xmlns:inkscape="http://www.inkscape.org/namespaces/inkscape"
   xmlns:sodipodi="http://sodipodi.sourceforge.net/DTD/sodipodi-0.dtd"
   xmlns="http://www.w3.org/2000/svg"
   xmlns:svg="http://www.w3.org/2000/svg">
  <sodipodi:namedview
     id="namedview15"
     pagecolor="#ffffff"
     bordercolor="#666666"
     borderopacity="1.0"
     inkscape:pageshadow="2"
     inkscape:pageopacity="0.0"
     inkscape:pagecheckerboard="true"
     showgrid="false"
     inkscape:zoom="11.313709"
     inkscape:cx="27.798135"
     inkscape:cy="25.588427"
     inkscape:window-width="1920"
     inkscape:window-height="1001"
     inkscape:window-x="-9"
     inkscape:window-y="-9"
     inkscape:window-maximized="1"
     inkscape:current-layer="g10" />
  <defs
     id="defs1899" />
  <g
     transform="translate(-301.1376,-403.2212)"
     id="layer1">
    <g
       transform="matrix(1.249992,0,0,-1.249992,-50.64763,950.1802)"
       style="font-style:normal;font-variant:normal;font-weight:normal;font-stretch:normal;letter-spacing:normal;word-spacing:normal;text-anchor:start;fill:none;fill-opacity:1;stroke:#000000;stroke-linecap:butt;stroke-linejoin:miter;stroke-miterlimit:10.433;stroke-dasharray:none;stroke-dashoffset:0;stroke-opacity:1"
       id="g10"
       xml:space="preserve">
<path
   d="m 291.31,437.33 0.09,0.04 0.09,0.05 0.09,0.03 0.1,0.03 0.09,0.03 0.09,0.02 0.1,0.02 0.09,0.01 0.1,0.01 h 0.09 0.09 l 0.1,-0.01 0.09,-0.01 0.09,-0.01 0.09,-0.02 0.09,-0.03 0.09,-0.03 0.09,-0.03 0.09,-0.03 0.08,-0.05 0.08,-0.04 0.09,-0.05 0.07,-0.05 0.08,-0.06 0.07,-0.06 0.08,-0.06 0.06,-0.07 0.07,-0.07 0.06,-0.08 0.06,-0.08 0.06,-0.08 0.05,-0.08 c 0.53,-0.94 0.21,-2.11 -0.71,-2.66 -0.96,-0.58 -2.19,-0.27 -2.76,0.69 -0.55,0.97 -0.18,2.2 0.81,2.73 z"
   style="fill:#000000;fill-rule:nonzero;stroke-width:0"
   id="path12" />
<path
   id="path851"
   style="fill:#000000;fill-rule:nonzero;stroke-width:0"
   d="m 17.839844,4.2617188 c -0.675243,0.00888 -1.31641,0.1738302 -1.914063,0.5136718 -0.549996,0.3374979 -1.000002,0.8371131 -1.3125,1.4121094 -0.337498,0.5874962 -0.5125,1.2378949 -0.5,1.9003906 0,0.3249979 0.07383,0.6492207 0.173828,0.9492188 0.0875,0.3374978 0.225001,0.6371111 0.375,0.9121094 0.0375,0.1374992 0.11211,0.2750002 0.16211,0.3750002 l 3.513672,6.164062 -4.97461,6.136719 -0.21289,0.238281 c -0.075,0.1125 -0.14961,0.225001 -0.22461,0.3125 -0.137499,0.187499 -0.214063,0.399611 -0.289062,0.59961 -0.075,0.237498 -0.123438,0.537892 -0.148438,0.77539 -0.0125,0.199999 -0.05156,0.39883 -0.03906,0.611328 0,0.1 7.86e-4,0.212501 -0.01172,0.3125 L 2.2382812,31.361328 c -0.025,-0.0375 -0.1011721,-0.111719 -0.1386718,-0.136719 -0.0625,-0.0875 -0.1992192,-0.250391 -0.2617188,-0.33789 -0.074999,-0.0625 -0.1761729,-0.23672 -0.2636718,-0.324219 -0.0625,-0.1 -0.237501,-0.36211 -0.3125,-0.474609 L 1.25,30.074219 V 30.0625 L 1.238281,30.05078 1.224609,30.03711 V 30.02539 L 1.21289,30.01172 1.199218,29.98828 1.187499,29.97461 1.17578,29.94922 1.162108,29.92578 1.150389,29.91211 1.136717,29.88672 1.125,29.863281 1.1132812,29.849609 1.0996094,29.824219 1.0878906,29.8125 1.0742188,29.800781 0,30.449219 c 0.04999968,0.0875 0.13671915,0.213672 0.19921875,0.326172 0.3749976,0.624996 0.82500355,1.212503 1.37500005,1.75 0.5874957,0.599996 1.3128955,1.111331 2.0878906,1.548828 0.7374953,0.437497 1.5511777,0.788673 2.3886718,1.013672 0.8624945,0.212498 1.7617244,0.335937 2.6367188,0.335937 0.8749944,-0.0375 1.725005,-0.161329 2.5625,-0.361328 0.812495,-0.249998 1.636724,-0.574612 2.386719,-0.974609 0.05,-0.0125 0.276172,-0.138282 0.326172,-0.175782 l 23.761718,-13.699218 -0.58789,-0.9375 -2.337891,1.298828 -2.974609,-5.173828 2.349609,-1.375 -0.486328,-0.78711 -3.275391,1.84961 L 26.3125,9.9003906 20.537109,5.3867188 20.224609,5.0996094 C 19.937111,4.8871107 19.612498,4.6882804 19.3125,4.5507812 18.875003,4.3757829 18.424606,4.2867181 17.974609,4.2617188 c -0.04531,-7.813e-4 -0.08975,-5.921e-4 -0.134765,0 z m 4.884765,6.6250002 1.712891,1.27539 3.375,4.451172 L 26.5,17.386719 Z M 22.875,12.3125 l 0.6875,1.087891 -4.699219,2.736328 -0.664062,-1.125 z m 7.875,3.761719 3,5.1875 -10.662109,6.125 -2.988282,-5.199219 8.375,-4.824219 c 0.05,0.025 0.101172,0.04922 0.138672,0.07422 0.249999,0.112499 0.52383,0.137892 0.798828,0.08789 0.224999,-0.0375 0.449611,-0.150783 0.66211,-0.300782 0.162499,-0.124999 0.300782,-0.26211 0.425781,-0.412109 0.075,-0.149999 0.150781,-0.33672 0.175781,-0.511719 0.0125,-0.0625 0.01094,-0.162891 0.02344,-0.21289 z m -11.724609,6.738281 2.986328,5.175781 -7.523438,4.373047 2.09961,-6.224609 c 0.0125,-0.1 0.123828,-0.425 0.173828,-0.5 0.0875,-0.237499 0.163672,-0.437111 0.263672,-0.66211 0.149999,-0.287498 0.31172,-0.549611 0.511718,-0.787109 L 17.900391,23.75 c 0.0875,-0.124999 0.286718,-0.425 0.386718,-0.5 0.1125,-0.0875 0.226172,-0.163281 0.326172,-0.238281 0.075,-0.025 0.16211,-0.07383 0.22461,-0.111328 0.0625,-0.025 0.1375,-0.05039 0.1875,-0.08789 z M 12.261719,26.738281 11.6875,31.412109 12.25,31.511719 11.699219,32 l -1.361328,-0.150391 -1.7636722,-3 z m -4.7109378,2.72461 1.7363282,2.986328 -0.2128906,0.625 L 9.75,33.199219 10.1875,34 c -0.137499,0.0125 -0.3250007,0.03672 -0.4375,0.07422 -0.3624977,0.05 -0.7125022,0.07461 -1.0625,0.09961 -0.7374953,0.0125 -1.5492233,-0.12422 -2.2617188,-0.324219 -0.7374951,-0.2 -1.4757853,-0.475002 -2.1132812,-0.8125 -0.3999974,-0.237498 -0.7621115,-0.47422 -1.0996094,-0.761718 -0.0625,-0.05 -0.1500006,-0.151173 -0.25,-0.201172 z M 11.386719,33.5 l 0.25,0.111328 -0.22461,0.07617 -0.111328,-0.150391 z"
   transform="matrix(0.80000512,0,0,-0.80000512,281.42999,437.57)" />







</g>
  </g>
</svg>
