<?xml version="1.0" encoding="UTF-8" standalone="no"?>
<!DOCTYPE svg PUBLIC "-//W3C//DTD SVG 1.0//EN" "http://www.w3.org/TR/2001/REC-SVG-20010904/DTD/svg10.dtd">
<svg
   xmlns:svg="http://www.w3.org/2000/svg"
   xmlns="http://www.w3.org/2000/svg"
   version="1.0"
   width="128.21169"
   height="35.424812"
   id="svg1903">
  <defs
     id="defs1905" />
  <g
     transform="translate(-270.1799,-411.7926)"
     id="layer1">
    <g
       transform="matrix(1.249992,0,0,-1.249992,-36.35566,960.5766)"
       style="font-style:normal;font-variant:normal;font-weight:normal;font-stretch:normal;letter-spacing:normal;word-spacing:normal;text-anchor:start;fill:none;fill-opacity:1;stroke:black;stroke-linecap:butt;stroke-linejoin:miter;stroke-miterlimit:10.43299961;stroke-dasharray:none;stroke-dashoffset:0;stroke-opacity:1"
       id="g10"
       xml:space="preserve">
<path
   d="M 262.51,421.57 L 262.51,438.81 L 302.66,438.81 L 302.66,421.57 L 295.5,421.57 L 296.16,420.79 L 312.89,420.79 L 313.54,421.57 L 308.09,421.57 L 308.09,438.81 L 347.8,439.03 L 347.8,421.57 L 345.16,421.57 L 345.16,421.57 C 345.23,421.52 345.32,421.44 345.38,421.38 C 345.5,421.27 345.61,421.14 345.7,421.01 C 345.75,420.94 345.81,420.85 345.86,420.79 L 345.86,420.79 L 347.25,420.79 L 347.25,416.24 L 346.4,416.24 L 346.4,416.24 C 346.39,416.42 346.38,416.68 346.36,416.85 C 346.03,420.27 343.11,422.84 339.66,422.82 C 336.25,422.82 333.34,420.27 333.02,416.86 C 333,416.68 332.99,416.42 332.98,416.24 L 332.98,416.24 L 325.88,416.24 L 325.88,416.24 C 325.87,416.45 325.86,416.73 325.84,416.93 C 325.5,420.39 322.53,422.96 319.05,422.94 C 315.54,422.91 312.54,420.3 312.32,416.78 C 312.31,416.63 312.31,416.4 312.31,416.24 L 312.31,416.24 L 311.69,416.24 L 311.69,416.93 L 307.53,419.06 L 302.94,419.06 L 298.1,417.27 L 298.1,415.77 L 296.16,415.77 L 296.16,415.77 C 296.16,415.93 296.15,416.16 296.14,416.32 C 295.92,419.55 293.32,422.16 290.08,422.17 C 286.85,422.18 284.24,419.61 283.98,416.39 C 283.97,416.21 283.96,415.95 283.96,415.77 L 283.96,415.77 L 261.33,415.77 L 261.33,415.77 C 261.33,415.93 261.32,416.15 261.31,416.3 C 261.05,419.62 258.28,422.18 254.95,422.14 C 251.74,422.1 249.12,419.57 248.82,416.36 C 248.8,416.18 248.79,415.94 248.79,415.77 L 248.79,415.77 L 245.23,415.77 L 245.23,418.02 L 246.46,418.03 L 247.34,424.58 L 247.34,424.58 C 247.35,424.72 247.38,424.88 247.4,425.03 C 247.43,425.28 247.49,425.61 247.58,425.83 C 247.68,426.13 247.87,426.41 248.13,426.59 C 248.35,426.76 248.63,426.86 248.91,426.91 C 249,426.93 249.11,426.94 249.2,426.95 L 249.2,426.95 L 251.75,432.27 L 251.75,432.27 C 251.8,432.38 251.86,432.49 251.91,432.6 C 252,432.78 252.15,433.01 252.3,433.14 C 252.46,433.27 252.67,433.34 252.88,433.38 C 253.03,433.4 253.27,433.41 253.42,433.41 L 253.42,433.41 L 261.63,433.41 L 261.63,420.79 L 283.91,420.79 L 284.6,421.57 L 262.51,421.57 z "
   style="fill:black;fill-rule:nonzero;stroke-width:0"
   id="path12" />
<path
   d="M 255.01,421.14 L 255.28,421.13 L 255.55,421.11 L 255.81,421.08 L 256.07,421.04 L 256.33,420.98 L 256.58,420.91 L 256.82,420.83 L 257.06,420.74 L 257.29,420.63 L 257.52,420.52 L 257.74,420.39 L 257.96,420.26 L 258.16,420.11 L 258.36,419.96 L 258.55,419.79 L 258.74,419.62 L 258.91,419.44 L 259.08,419.25 L 259.24,419.05 L 259.38,418.84 L 259.52,418.63 L 259.65,418.41 L 259.76,418.18 L 259.87,417.95 L 259.96,417.71 L 260.05,417.47 L 260.12,417.22 L 260.18,416.96 L 260.22,416.7 L 260.26,416.44 L 260.27,416.17 L 260.28,415.9 C 260.27,413.07 257.99,410.76 255.15,410.73 C 252.26,410.71 249.89,413.03 249.88,415.93 C 249.88,418.78 252.16,421.12 255.01,421.14 z "
   style="fill:black;fill-rule:nonzero;stroke-width:0"
   id="path14" />
<path
   d="M 290.11,420.96 L 290.36,420.95 L 290.62,420.93 L 290.87,420.89 L 291.12,420.85 L 291.36,420.79 L 291.6,420.72 L 291.83,420.64 L 292.05,420.55 L 292.28,420.45 L 292.49,420.34 L 292.7,420.21 L 292.9,420.08 L 293.1,419.94 L 293.29,419.79 L 293.47,419.63 L 293.64,419.46 L 293.81,419.29 L 293.96,419.1 L 294.11,418.91 L 294.25,418.72 L 294.38,418.51 L 294.5,418.3 L 294.61,418.08 L 294.71,417.86 L 294.8,417.63 L 294.88,417.4 L 294.95,417.16 L 295.01,416.91 L 295.06,416.67 L 295.09,416.42 L 295.12,416.16 L 295.12,415.9 C 295.16,413.1 292.94,410.78 290.14,410.73 C 287.29,410.69 284.95,412.98 284.94,415.84 C 284.92,418.68 287.26,420.97 290.11,420.96 z "
   style="fill:black;fill-rule:nonzero;stroke-width:0"
   id="path16" />
<path
   d="M 319.05,421.61 L 319.33,421.6 L 319.61,421.58 L 319.88,421.55 L 320.15,421.5 L 320.41,421.45 L 320.67,421.37 L 320.93,421.29 L 321.17,421.19 L 321.41,421.09 L 321.65,420.97 L 321.88,420.84 L 322.1,420.7 L 322.31,420.55 L 322.52,420.39 L 322.72,420.22 L 322.91,420.04 L 323.09,419.85 L 323.26,419.65 L 323.43,419.45 L 323.58,419.24 L 323.72,419.02 L 323.85,418.79 L 323.98,418.56 L 324.09,418.32 L 324.19,418.07 L 324.27,417.82 L 324.35,417.56 L 324.41,417.3 L 324.46,417.03 L 324.5,416.76 L 324.52,416.48 L 324.53,416.2 C 324.54,413.19 322.09,410.73 319.08,410.73 C 316.07,410.72 313.63,413.15 313.62,416.16 C 313.62,419.16 316.05,421.61 319.05,421.61 z "
   style="fill:black;fill-rule:nonzero;stroke-width:0"
   id="path18" />
<path
   d="M 339.66,421.57 L 339.93,421.57 L 340.21,421.55 L 340.48,421.51 L 340.75,421.47 L 341.01,421.41 L 341.27,421.34 L 341.52,421.25 L 341.76,421.16 L 342,421.05 L 342.24,420.93 L 342.46,420.8 L 342.68,420.66 L 342.89,420.51 L 343.1,420.35 L 343.3,420.18 L 343.48,420 L 343.66,419.82 L 343.83,419.62 L 343.99,419.42 L 344.15,419.21 L 344.29,418.99 L 344.42,418.76 L 344.54,418.53 L 344.65,418.29 L 344.75,418.05 L 344.83,417.8 L 344.91,417.54 L 344.97,417.28 L 345.02,417.01 L 345.06,416.74 L 345.08,416.47 L 345.09,416.19 C 345.11,413.18 342.71,410.71 339.7,410.69 C 336.68,410.68 334.24,413.15 334.26,416.18 C 334.27,419.16 336.68,421.57 339.66,421.57 z "
   style="fill:black;fill-rule:nonzero;stroke-width:0"
   id="path20" />
<polygon
   points="252.46,431.07 253.8,431.07 251.95,426.96 250.52,426.96 252.46,431.07 "
   style="fill:white;fill-rule:nonzero;stroke:white;stroke-width:0"
   id="polygon22" />
<polygon
   points="254.97,431.07 259.1,431.07 259.1,426.96 253.1,426.96 254.97,431.07 "
   style="fill:white;fill-rule:nonzero;stroke:white;stroke-width:0"
   id="polygon24" />
<polygon
   points="324.55,421.57 334.31,421.57 333.56,420.79 325.23,420.79 324.55,421.57 "
   style="fill:white;fill-rule:nonzero;stroke:white;stroke-width:0"
   id="polygon26" />
<path
   d="M 255.05,417.75 L 255.15,417.75 L 255.24,417.74 L 255.33,417.73 L 255.43,417.72 L 255.51,417.69 L 255.6,417.67 L 255.69,417.64 L 255.77,417.61 L 255.85,417.57 L 255.93,417.53 L 256.01,417.48 L 256.09,417.43 L 256.16,417.38 L 256.23,417.32 L 256.29,417.26 L 256.36,417.2 L 256.42,417.14 L 256.48,417.07 L 256.53,417 L 256.58,416.92 L 256.63,416.85 L 256.67,416.77 L 256.71,416.69 L 256.75,416.6 L 256.78,416.52 L 256.81,416.43 L 256.83,416.34 L 256.85,416.25 L 256.87,416.16 L 256.88,416.07 L 256.89,415.97 L 256.89,415.88 C 256.88,414.88 256.07,414.06 255.07,414.05 C 254.04,414.04 253.21,414.87 253.2,415.89 C 253.19,416.92 254.02,417.76 255.05,417.75 z "
   style="fill:white;fill-rule:nonzero;stroke:white;stroke-width:0"
   id="path28" />
<path
   d="M 290.14,417.78 L 290.23,417.78 L 290.33,417.77 L 290.42,417.76 L 290.52,417.75 L 290.61,417.73 L 290.7,417.71 L 290.78,417.68 L 290.87,417.64 L 290.95,417.61 L 291.04,417.57 L 291.12,417.52 L 291.19,417.48 L 291.27,417.43 L 291.34,417.37 L 291.41,417.31 L 291.47,417.25 L 291.54,417.19 L 291.6,417.12 L 291.65,417.05 L 291.71,416.98 L 291.76,416.9 L 291.8,416.82 L 291.85,416.74 L 291.88,416.66 L 291.92,416.58 L 291.95,416.49 L 291.97,416.4 L 292,416.31 L 292.01,416.22 L 292.03,416.13 L 292.03,416.03 L 292.04,415.93 C 292.04,414.89 291.18,414.06 290.14,414.07 C 289.12,414.07 288.29,414.89 288.29,415.92 C 288.29,416.94 289.11,417.77 290.14,417.78 z "
   style="fill:white;fill-rule:nonzero;stroke:white;stroke-width:0"
   id="path30" />
<path
   d="M 319.07,418.05 L 319.17,418.05 L 319.27,418.05 L 319.36,418.04 L 319.46,418.02 L 319.55,418 L 319.65,417.98 L 319.74,417.95 L 319.83,417.92 L 319.91,417.88 L 320,417.84 L 320.08,417.8 L 320.16,417.75 L 320.24,417.7 L 320.31,417.64 L 320.38,417.58 L 320.45,417.52 L 320.52,417.46 L 320.58,417.39 L 320.64,417.32 L 320.69,417.24 L 320.74,417.17 L 320.79,417.09 L 320.83,417.01 L 320.87,416.92 L 320.91,416.84 L 320.94,416.75 L 320.96,416.66 L 320.98,416.57 L 321,416.47 L 321.01,416.38 L 321.02,416.28 L 321.02,416.18 C 321,415.13 320.1,414.33 319.06,414.36 C 318.07,414.39 317.27,415.2 317.27,416.2 C 317.27,417.21 318.07,418.04 319.07,418.05 z "
   style="fill:white;fill-rule:nonzero;stroke:white;stroke-width:0"
   id="path32" />
<path
   d="M 339.66,418.03 L 339.75,418.02 L 339.85,418.02 L 339.94,418 L 340.03,417.99 L 340.12,417.97 L 340.21,417.94 L 340.29,417.91 L 340.38,417.88 L 340.46,417.84 L 340.54,417.8 L 340.62,417.76 L 340.7,417.71 L 340.77,417.66 L 340.84,417.6 L 340.91,417.55 L 340.97,417.49 L 341.04,417.42 L 341.09,417.35 L 341.15,417.29 L 341.2,417.21 L 341.25,417.14 L 341.3,417.06 L 341.34,416.98 L 341.38,416.9 L 341.41,416.82 L 341.44,416.73 L 341.47,416.64 L 341.49,416.55 L 341.51,416.46 L 341.52,416.37 L 341.53,416.27 L 341.53,416.18 C 341.54,415.15 340.71,414.3 339.67,414.29 C 338.61,414.29 337.75,415.13 337.76,416.19 C 337.77,417.22 338.63,418.04 339.66,418.03 z "
   style="fill:white;fill-rule:nonzero;stroke:white;stroke-width:0"
   id="path34" />
</g>  </g>
</svg>
