<?xml version="1.0" encoding="UTF-8" standalone="no"?>
<svg version="1.0" width="35.399773" height="35.424774" id="svg1891" sodipodi:docname="CH-Zusatztafel-Industrie_und_Gewerbegebiet.svg" inkscape:version="1.1.2 (b8e25be833, 2022-02-05)" xmlns:inkscape="http://www.inkscape.org/namespaces/inkscape" xmlns:sodipodi="http://sodipodi.sourceforge.net/DTD/sodipodi-0.dtd" xmlns="http://www.w3.org/2000/svg" xmlns:svg="http://www.w3.org/2000/svg">
  <sodipodi:namedview id="namedview12" pagecolor="#ffffff" bordercolor="#666666" borderopacity="1.0" inkscape:pageshadow="2" inkscape:pageopacity="0.0" inkscape:pagecheckerboard="true" showgrid="false" inkscape:zoom="11.404448" inkscape:cx="8.812351" inkscape:cy="18.10697" inkscape:window-width="1920" inkscape:window-height="1001" inkscape:window-x="-9" inkscape:window-y="-9" inkscape:window-maximized="1" inkscape:current-layer="svg1891"/>
  <defs id="defs1893"/>
  <g transform="translate(-716.5858,-648.9355)" id="layer1">
    <g transform="matrix(1.249992,0,0,-1.249992,363.6381,1197.682)" style="font-style:normal;font-variant:normal;font-weight:normal;font-stretch:normal;letter-spacing:normal;word-spacing:normal;text-anchor:start;fill:none;fill-opacity:1;stroke:#000000;stroke-linecap:butt;stroke-linejoin:miter;stroke-miterlimit:10.433;stroke-dasharray:none;stroke-dashoffset:0;stroke-opacity:1" id="g10" xml:space="preserve">
<path id="path12" style="fill:#000000;fill-rule:nonzero;stroke-width:0" d="M 9.0253906,20.599609 V 25.0625 c 0,0.237498 -0.1882827,0.425781 -0.4257812,0.425781 -0.075,0 -0.1503911,-0.01328 -0.2128906,-0.05078 L 0,20.625 V 35.423828 H 35.400391 V 25.4375 l -8.375,-4.837891 V 25.0625 c 0,0.237498 -0.188283,0.425781 -0.425782,0.425781 -0.075,0 -0.124219,-0.01328 -0.199218,-0.05078 L 18.037109,20.599609 V 25.0625 c 0,0.237498 -0.186329,0.425781 -0.423828,0.425781 -0.075,0 -0.150391,-0.01328 -0.21289,-0.05078 z m -5.8125,8.375 H 10.712891 V 32.1875 H 3.2128906 Z m 10.7363284,0 h 7.5 V 32.1875 h -7.5 z m 10.726562,0 H 32.1875 V 32.1875 h -7.511719 z" transform="matrix(0.80000512,0,0,-0.80000512,282.35997,439.00001)"/>
<polygon points="300.13,436.76 299.35,422.02 302.27,420.34 301.7,436.77 " style="fill:#000000;fill-rule:nonzero;stroke-width:0" id="polygon14"/>
<polygon points="292.39,439 291.62,422.33 294.54,420.65 293.98,439 " style="fill:#000000;fill-rule:nonzero;stroke-width:0" id="polygon16"/>



</g>
  </g>
</svg>