<?xml version="1.0" encoding="UTF-8" standalone="no"?>
<!DOCTYPE svg PUBLIC "-//W3C//DTD SVG 1.0//EN" "http://www.w3.org/TR/2001/REC-SVG-20010904/DTD/svg10.dtd">
<svg
   xmlns:svg="http://www.w3.org/2000/svg"
   xmlns="http://www.w3.org/2000/svg"
   version="1.0"
   width="38.737244"
   height="35.435856"
   id="svg1883">
  <defs
     id="defs1885" />
  <g
     transform="translate(-283.4885,-386.0728)"
     id="layer1">
    <g
       transform="matrix(1.249992,0,0,-1.249992,-68.17173,933.6304)"
       style="font-style:normal;font-variant:normal;font-weight:normal;font-stretch:normal;letter-spacing:normal;word-spacing:normal;text-anchor:start;fill:none;fill-opacity:1;stroke:black;stroke-linecap:butt;stroke-linejoin:miter;stroke-miterlimit:10.43299961;stroke-dasharray:none;stroke-dashoffset:0;stroke-opacity:1"
       id="g10"
       xml:space="preserve">
<path
   d="M 311.95,424.99 L 312.32,424.39 L 287.64,410.16 L 287.64,410.16 C 287.59,410.12 287.47,410.06 287.42,410.02 C 287.26,409.94 287.08,409.86 286.9,409.8 C 286.7,409.75 286.48,409.71 286.28,409.7 C 286.04,409.7 285.82,409.73 285.59,409.79 C 285.41,409.84 285.25,409.9 285.08,409.99 C 284.91,410.08 284.76,410.19 284.62,410.32 C 284.53,410.41 284.44,410.52 284.35,410.64 C 284.32,410.7 284.26,410.77 284.23,410.83 L 284.23,410.83 L 284.77,411.13 L 284.77,411.13 C 284.8,411.08 284.84,411.02 284.87,410.98 C 284.98,410.84 285.11,410.71 285.24,410.62 C 285.41,410.48 285.6,410.41 285.8,410.36 C 285.96,410.33 286.12,410.31 286.28,410.32 C 286.41,410.33 286.56,410.37 286.68,410.41 C 286.81,410.44 286.96,410.51 287.1,410.57 L 287.1,410.57 L 287.36,410.74 L 298.15,416.99 L 297.96,417.66 L 297.96,417.66 C 297.95,417.71 297.95,417.79 297.94,417.86 C 297.93,417.92 297.93,417.98 297.95,418.04 C 297.96,418.1 297.97,418.16 298,418.23 C 298.02,418.34 298.09,418.43 298.18,418.52 C 298.23,418.57 298.26,418.62 298.32,418.66 L 298.32,418.66 L 299.5,419.61 L 292.1,421.36 L 291.87,421.42 L 291.87,421.42 C 291.73,421.45 291.53,421.5 291.39,421.55 C 291.25,421.6 291.1,421.67 290.96,421.74 C 290.74,421.86 290.51,422.01 290.34,422.2 C 290.18,422.36 290.06,422.57 290.01,422.8 C 290,422.94 289.99,423.08 290,423.2 C 290.01,423.34 290.04,423.46 290.08,423.57 C 290.14,423.75 290.24,423.94 290.34,424.09 C 290.39,424.16 290.45,424.26 290.5,424.31 L 290.5,424.31 L 291,425.05 L 281.33,425.09 L 281.34,425.54 L 281.8,425.54 L 281.8,425.54 C 281.8,425.57 281.79,425.61 281.78,425.66 C 281.77,425.82 281.8,425.99 281.86,426.14 C 281.9,426.27 281.97,426.38 282.05,426.48 C 282.12,426.56 282.24,426.64 282.36,426.7 C 282.41,426.71 282.47,426.74 282.52,426.76 L 282.52,426.76 L 287.91,432.25 L 287.91,432.25 L 288.09,432.45 C 288.16,432.54 288.28,432.68 288.34,432.78 C 288.39,432.88 288.44,432.98 288.46,433.09 C 288.47,433.16 288.47,433.23 288.46,433.3 C 288.45,433.36 288.45,433.41 288.43,433.46 C 288.39,433.51 288.33,433.56 288.28,433.59 C 288.23,433.62 288.18,433.64 288.13,433.66 C 288.07,433.67 288.01,433.66 287.95,433.66 C 287.88,433.67 287.76,433.66 287.71,433.66 C 287.43,433.63 287.13,433.63 286.87,433.7 C 286.59,433.75 286.32,433.88 286.08,434.05 C 285.84,434.22 285.62,434.43 285.48,434.7 C 285.31,434.95 285.21,435.25 285.18,435.56 C 285.15,435.84 285.16,436.12 285.24,436.4 C 285.31,436.7 285.45,436.97 285.62,437.21 C 285.8,437.45 286.04,437.63 286.29,437.77 C 286.55,437.91 286.83,438 287.13,438.04 C 287.41,438.06 287.7,438.05 287.97,437.97 C 288.24,437.89 288.5,437.75 288.73,437.58 C 288.94,437.41 289.13,437.19 289.27,436.97 C 289.42,436.71 289.53,436.44 289.56,436.14 C 289.58,435.95 289.55,435.71 289.53,435.53 C 289.52,435.45 289.51,435.31 289.49,435.24 C 289.52,435.23 289.57,435.23 289.6,435.23 L 289.6,435.23 L 290.03,435.23 L 290.03,435.23 C 290.39,435.22 290.75,435.17 291.11,435.08 C 291.66,434.95 292.21,434.73 292.72,434.47 C 293.27,434.19 293.8,433.84 294.3,433.47 C 294.83,433.07 295.32,432.59 295.76,432.12 C 296.17,431.7 296.56,431.23 296.89,430.75 L 296.89,430.75 L 297.54,429.82 L 297.54,429.82 C 297.62,429.7 297.82,429.41 297.88,429.29 C 297.96,429.15 298.03,429 298.06,428.84 C 298.09,428.73 298.09,428.59 298.07,428.46 C 298.07,428.36 298.07,428.25 298.05,428.15 C 298.02,428 297.96,427.84 297.91,427.71 C 297.88,427.63 297.83,427.55 297.8,427.49 C 297.74,427.38 297.67,427.28 297.61,427.19 C 297.55,427.12 297.45,427 297.39,426.93 L 297.39,426.93 L 296.14,425.49 L 305.38,425.46 L 305.38,426.55 L 305.87,426.53 L 305.85,424 L 305.36,424.02 L 305.37,424.99 L 295.68,425.04 L 295.68,425.04 C 295.64,425.01 295.59,424.95 295.55,424.92 C 295.5,424.87 295.27,424.65 295.24,424.59 C 295.14,424.48 295.05,424.36 294.98,424.22 C 294.94,424.14 294.89,424.03 294.89,423.93 C 294.88,423.88 294.88,423.83 294.89,423.77 C 294.89,423.68 294.93,423.61 294.97,423.54 C 295.03,423.45 295.1,423.39 295.18,423.35 C 295.3,423.27 295.54,423.16 295.67,423.12 C 295.76,423.08 295.95,423.02 296.04,422.96 L 296.04,422.96 L 303.02,419.76 L 311.95,424.99 z "
   style="fill:black;fill-rule:nonzero;stroke-width:0"
   id="path12" />
<path
   d="M 291.31,425.5 L 283.41,425.54 L 283.41,425.54 C 283.43,425.57 283.45,425.63 283.47,425.66 L 283.47,425.66 L 283.56,425.82 L 283.56,425.82 C 283.59,425.88 283.61,425.93 283.62,426 C 283.62,426.01 283.64,426.11 283.65,426.12 C 283.67,426.17 283.7,426.23 283.73,426.25 L 283.73,426.25 L 283.83,426.47 L 283.83,426.47 C 283.88,426.55 283.94,426.62 284,426.69 L 284,426.69 L 287.36,429.61 L 287.36,429.61 C 287.45,429.7 287.55,429.77 287.65,429.84 C 287.73,429.89 287.82,429.97 287.92,430.02 C 288.02,430.07 288.11,430.11 288.22,430.13 C 288.39,430.18 288.61,430.18 288.8,430.18 C 289.07,430.17 289.35,430.15 289.63,430.11 C 289.97,430.06 290.31,429.99 290.62,429.9 C 290.96,429.8 291.34,429.64 291.65,429.49 C 291.89,429.38 292.3,429.2 292.53,429.09 C 292.65,429.02 292.82,428.93 292.91,428.83 C 292.96,428.77 293,428.69 293.02,428.6 C 293.04,428.54 293.04,428.48 293.03,428.41 C 293.02,428.34 293.01,428.27 292.97,428.2 C 292.96,428.14 292.92,428.07 292.88,428.02 L 292.88,428.02 L 291.31,425.5 z "
   style="fill:white;fill-rule:nonzero;stroke:white;stroke-width:0"
   id="path14" />
</g>  </g>
</svg>
