<?xml version="1.0" encoding="UTF-8" standalone="no"?>
<svg
   version="1.0"
   width="53.599655"
   height="35.4356"
   id="svg1891"
   sodipodi:docname="CH-Zusatztafel-Wohnanhänger.svg"
   inkscape:version="1.1.2 (b8e25be833, 2022-02-05)"
   xmlns:inkscape="http://www.inkscape.org/namespaces/inkscape"
   xmlns:sodipodi="http://sodipodi.sourceforge.net/DTD/sodipodi-0.dtd"
   xmlns="http://www.w3.org/2000/svg"
   xmlns:svg="http://www.w3.org/2000/svg">
  <sodipodi:namedview
     id="namedview12"
     pagecolor="#ffffff"
     bordercolor="#666666"
     borderopacity="1.0"
     inkscape:pageshadow="2"
     inkscape:pageopacity="0.0"
     inkscape:pagecheckerboard="true"
     showgrid="false"
     showguides="true"
     inkscape:guide-bbox="true"
     inkscape:snap-intersection-paths="true"
     inkscape:snap-smooth-nodes="true"
     inkscape:snap-bbox="true"
     inkscape:bbox-nodes="true"
     inkscape:snap-bbox-edge-midpoints="true"
     inkscape:zoom="16"
     inkscape:cx="25.96875"
     inkscape:cy="17.84375"
     inkscape:window-width="1920"
     inkscape:window-height="1001"
     inkscape:window-x="-9"
     inkscape:window-y="-9"
     inkscape:window-maximized="1"
     inkscape:current-layer="svg1891" />
  <defs
     id="defs1893" />
  <g
     transform="translate(-313.2002,-397.5015)"
     id="layer1">
    <g
       transform="matrix(1.249992,0,0,-1.249992,-30.78513,946.0338)"
       style="font-style:normal;font-variant:normal;font-weight:normal;font-stretch:normal;letter-spacing:normal;word-spacing:normal;text-anchor:start;fill:none;fill-opacity:1;stroke:#000000;stroke-linecap:butt;stroke-linejoin:miter;stroke-miterlimit:10.433;stroke-dasharray:none;stroke-dashoffset:0;stroke-opacity:1"
       id="g10"
       xml:space="preserve">
<path
   id="path12"
   style="fill:#000000;fill-rule:nonzero;stroke-width:0"
   d="m 27.361328,0.00585938 c -0.479098,-0.00878902 -0.959378,-0.00664055 -1.4375,0.00585937 -1.56249,0.02499984 -3.098447,0.15000144 -4.648437,0.375 -1.63749,0.2499984 -3.275011,0.58633105 -4.875,1.04882815 C 14.475403,1.9980433 12.599598,2.6988336 10.787109,3.5488281 9.4996184,4.1488243 8.1999923,4.8234424 7,5.5859375 5.8750072,6.2984329 4.7132754,7.160553 3.8007812,8.1230469 2.8507875,9.1355404 2.0628868,10.298836 1.4628906,11.548828 c -0.64999575,1.362491 -1.12617313,2.811729 -1.32617185,4.324219 -0.17499888,1.312491 -0.17499888,2.637508 0,3.9375 0.13749912,1.087493 0.38867429,2.175006 0.76367187,3.1875 0.29999808,0.774995 0.67383088,1.525786 1.11132818,2.238281 0.5249964,0.837495 1.1386762,1.624614 1.8261718,2.34961 0.1999987,0.212496 0.5121108,0.51211 0.7246094,0.724609 L 4.5742188,33.597656 0,33.585938 v 1.824218 l 53.574219,0.02539 0.02539,-1.837891 -4.699218,0.01367 -0.01367,-5.675781 c 0.174999,-0.162499 0.438282,-0.387501 0.613281,-0.5625 0.774995,-0.749995 1.425394,-1.636725 1.962891,-2.574219 0.712495,-1.262492 1.24922,-2.650402 1.511718,-4.08789 0.199999,-1.074994 0.274609,-2.187117 0.22461,-3.28711 -0.0625,-1.124993 -0.224612,-2.276569 -0.53711,-3.351562 C 52.299608,12.859779 51.762886,11.71015 51.087891,10.660156 50.237896,9.2851657 49.161711,8.0234311 47.886719,7.0234375 46.386728,5.8609449 44.748817,4.8480414 43.048828,3.9980469 41.18634,3.048053 39.249987,2.235543 37.25,1.6230469 35.437512,1.0605505 33.549597,0.61015457 31.662109,0.34765625 30.237118,0.15078251 28.798624,0.03222639 27.361328,0.00585938 Z M 9,10.273438 l 6.988281,0.01172 c 0.524997,-0.025 1.023439,0.262113 1.273438,0.72461 0.1,0.212498 0.151172,0.462892 0.138672,0.71289 l 0.02539,17.837891 h 3.125 c 0.05,-3.14998 2.573458,-5.687501 5.710938,-5.75 3.249979,-0.0625 5.925391,2.525411 5.96289,5.775391 l 14.16211,-0.02539 c 0.224998,0 0.525782,-0.02578 0.738281,-0.113281 0.0375,-0.025 0.12461,-0.08711 0.162109,-0.09961 l -0.01172,4.275391 -17.851563,-0.01172 a 5.0098433,5.0100007 0 0 0 2.017578,-4.001953 5.0098433,5.0100007 0 0 0 -5.009765,-5.009766 5.0098433,5.0100007 0 0 0 -5.009766,5.009766 5.0098433,5.0100007 0 0 0 2.013672,3.998047 l -17.2851564,-0.0098 -0.013672,-4.0625 h 1.1875 V 11.923828 C 7.2992173,11.498831 7.4625018,11.084764 7.75,10.759766 8.062498,10.422268 8.525003,10.248438 9,10.273438 Z m 32.208984,0.04687 c 0.310863,0.0106 0.597658,0.134768 0.816407,0.353516 0.237498,0.224999 0.362109,0.550002 0.349609,0.875 v 5.0625 c 0,0.299998 -0.137502,0.562501 -0.375,0.75 -0.137499,0.124999 -0.326173,0.198438 -0.513672,0.210938 l -5.324219,-0.01172 -4.21289,0.01172 c -0.287498,0.0125 -0.574611,-0.07344 -0.78711,-0.273438 -0.187498,-0.162499 -0.30039,-0.400393 -0.33789,-0.65039 l 0.01367,-5.050782 c -0.05,-0.312498 0.05,-0.625001 0.25,-0.875 0.225,-0.262494 0.562111,-0.410937 0.912109,-0.398437 h 9.074219 c 0.04531,-0.0031 0.09036,-0.0054 0.134765,-0.0039 z m -14.777343,17.64063 a 1.6489528,1.6490046 0 0 1 1.648437,1.648437 1.6489528,1.6490046 0 0 1 -1.648437,1.648437 1.6489528,1.6490046 0 0 1 -1.650391,-1.648437 1.6489528,1.6490046 0 0 1 1.650391,-1.648437 z"
   transform="matrix(0.80000512,0,0,-0.80000512,275.19003,438.82865)" />



<path
   id="path20"
   style="fill:#000000;fill-rule:nonzero;stroke-width:0"
   d="m 9.0878906,11.248047 c -0.1749989,0 -0.3496101,0.0625 -0.4746094,0.1875 -0.1624989,0.137499 -0.2378904,0.350001 -0.2128906,0.5625 l 0.011719,17.537109 h 7.9374994 l 0.05078,-17.511718 c 0.0125,-0.162499 -0.0375,-0.313673 -0.125,-0.451172 -0.149999,-0.212499 -0.400393,-0.325 -0.650391,-0.3125 z m 0.5,1.150391 5.6503904,0.01172 V 17.58594 L 9.5878906,17.54883 Z"
   transform="matrix(0.80000512,0,0,-0.80000512,275.19003,438.82865)" />

</g>
  </g>
</svg>
