<?xml version="1.0" encoding="UTF-8" standalone="no"?>
<svg
   version="1.0"
   width="66.013672"
   height="35.359268"
   id="svg1895"
   sodipodi:docname="CH-Zusatztafel-Motorfahrrad.svg"
   inkscape:version="1.1.2 (b8e25be833, 2022-02-05)"
   xmlns:inkscape="http://www.inkscape.org/namespaces/inkscape"
   xmlns:sodipodi="http://sodipodi.sourceforge.net/DTD/sodipodi-0.dtd"
   xmlns="http://www.w3.org/2000/svg"
   xmlns:svg="http://www.w3.org/2000/svg">
  <sodipodi:namedview
     id="namedview14"
     pagecolor="#ffffff"
     bordercolor="#666666"
     borderopacity="1.0"
     inkscape:pageshadow="2"
     inkscape:pageopacity="0.0"
     inkscape:pagecheckerboard="0"
     showgrid="false"
     inkscape:zoom="9.4828841"
     inkscape:cx="38.543126"
     inkscape:cy="2.6890553"
     inkscape:window-width="1920"
     inkscape:window-height="1001"
     inkscape:window-x="-9"
     inkscape:window-y="-9"
     inkscape:window-maximized="1"
     inkscape:current-layer="svg1895" />
  <defs
     id="defs1897" />
  <g
     transform="translate(-286.9932,-371.8254)"
     id="layer1">
    <g
       transform="matrix(1.249992,0,0,-1.249992,-62.4655,930.4968)"
       style="font-style:normal;font-variant:normal;font-weight:normal;font-stretch:normal;letter-spacing:normal;word-spacing:normal;text-anchor:start;fill:none;fill-opacity:1;stroke:#000000;stroke-linecap:butt;stroke-linejoin:miter;stroke-miterlimit:10.433;stroke-dasharray:none;stroke-dashoffset:0;stroke-opacity:1"
       id="g10"
       xml:space="preserve">
<path
   id="path12"
   style="fill:#000000;fill-rule:nonzero;stroke-width:0"
   d="m 20.626953,0 c -0.274998,0 -0.812892,0.08789062 -1.087891,0.08789062 -1.074993,0 -1.25,1.07461518 -1.25,1.97460938 0,1.1624926 1.074616,2.2382812 1.97461,2.2382812 l -0.8125,1.7871094 -1.886719,-0.3496094 C 17.126956,5.6507818 16.677341,5.5625 16.214844,5.5625 c -0.162499,0 -0.437891,0.088282 -0.525391,0.1757812 -0.274998,0.2624984 -0.175781,0.8125 -0.175781,0.8125 v 2.5 c 0,0.1874989 0.08828,0.2738287 0.175781,0.3613282 0.0875,0.087499 0.273829,0.087891 0.361328,0.087891 0.162499,0 1.875391,-0.4492188 1.962891,-0.4492188 l -1.699219,3.5996094 c -0.174999,-0.0875 -0.450001,-0.1875 -0.625,-0.1875 -2.337485,-0.899995 -4.763297,-1.074606 -7.1757811,-0.53711 -1.4374908,0.274998 -2.7871174,0.898443 -4.0371094,1.710938 -0.8124948,0.524996 -1.8000041,1.425004 -2.4375,2.0625 L 1.7011719,16.0625 c -0.1874988,0.174999 1.6e-6,0.450001 0.25,0.625 l 0.4511719,0.349609 c -4.7499696,6.099961 -2.14995349,15.075798 5.125,17.675782 7.4374522,2.599983 15.2499992,-2.96216 15.0625002,-10.84961 l 0.625,-0.101562 c 0.1,0 0.361328,-0.261719 0.361328,-0.261719 -0.174999,-2.149986 -0.712508,-4.21173 -1.875,-6.011719 -0.899994,-1.612489 -1.625405,-2.237511 -3.775391,-3.9375 l -0.361328,-0.1875 1.449219,-2.77539 c 0,0.262498 0.525783,1.787501 0.800781,2.0625 0.174999,0.262498 0.450392,0.537891 0.712891,0.71289 0.274998,0.274998 0.725002,0.537111 1,0.72461 l 6.898437,4.21289 c 0,0.362498 -0.273828,0.812112 -0.361328,1.16211 l -0.4375,0.798828 0.974609,1.451172 c 0,0.0875 -0.175391,0.174219 -0.27539,0.261718 -0.887494,0.899995 -1.42539,2.150399 -1.337891,3.400391 0.187499,1.799988 1.525792,3.150003 3.238281,3.6875 0.437498,0.174999 0.974223,0.173828 1.511719,0.173828 h 1.613281 l 0.08789,2.875 -1.25,0.08789 0.08594,0.90039 3.6875,-0.08789 v -0.900391 l -1.34961,0.08789 -0.08789,-2.962891 8.076171,-0.173828 c 2.324986,3.762476 6.462138,5.925389 10.84961,5.650391 C 58.301141,34.350393 62.42579,31.03747 63.863281,26.375 l 1.97461,-0.449219 c 0.174999,-0.0875 0.175781,-0.276173 0.175781,-0.451172 v -5.111328 c 0,-0.187499 -3.91e-4,-0.363672 -0.08789,-0.451172 -0.0875,-0.1 -0.44961,-0.09961 -0.537109,-0.09961 l -1.34961,-0.08789 c 0,0 -3.91e-4,-0.17461 -0.08789,-0.349609 -0.349998,-1.349991 -1.162897,-2.600397 -2.150391,-3.587891 -2.149986,-2.337485 -5.111739,-3.86172 -8.261719,-4.136718 -1.249992,-0.0875 -2.601179,3.92e-4 -3.763671,0.27539 -0.349998,0.0875 -0.71133,0.273829 -0.986329,0.361328 L 46.013672,6 c 0.0875,0.1874988 1.437894,0.2749994 1.96289,0.1875 0.912495,-0.1874988 1.71172,-0.8000029 1.886719,-1.25 0.624996,-0.8124948 0.187883,-2.5996094 -0.974609,-2.5996094 -0.999994,0 -2.975397,0.2613276 -3.962891,0.1738282 -1.162492,0 -2.599225,-0.625 -3.574219,-0.625 -0.899994,-0.2749983 -1.712498,0.7132858 -1.4375,1.4257812 0.174999,0.8124948 1.248834,1.2625023 2.048829,1.625 0.449997,0.1749989 1.901173,0.5371094 2.076171,0.5371094 L 37.488281,18.113281 c -0.274998,0.449997 -1.798832,-0.08828 -2.423828,-0.175781 -0.712495,-0.174999 -1.964066,-0.450392 -2.601562,-0.712891 -1.162493,-0.624996 -2.23555,-1.437896 -2.685547,-2.33789 -0.174999,-0.449997 -0.275391,-0.885941 -0.275391,-1.335938 l -0.08789,-2.164062 C 29.139064,10.049227 28.063663,8.2496036 26.638672,7.3496094 25.463679,6.5496145 24.389836,6.2753894 23.214844,6.0878906 22.502348,6.0003912 21.16328,6.3617193 20.988281,6.4492188 l 1.337891,-2.8613282 -2.0625,-0.5371094 c -0.449997,-0.087499 -0.8125,-0.263677 -0.8125,-1.0761718 0,-0.4499971 0.451176,-0.8125 1.076172,-0.8125 h 8.523437 V 0.08789062 Z m 24.5,7.5625 2.423828,5.287109 c -0.0875,0.0875 -0.273828,0.187891 -0.361328,0.275391 -1.424991,0.712495 -2.600788,1.700008 -3.675781,2.875 -1.074993,1.249992 -2.063284,2.688292 -2.425781,4.300781 0,0.0875 -0.08594,0.261328 -0.08594,0.361328 l -1.70117,-0.09961 z m 7.507813,7.548828 c 1.784232,-0.02548 3.5629,0.510944 5.041015,1.550781 2.162486,1.449991 3.500393,3.688688 3.775391,6.201172 l -5.300781,-0.08789 c 0,-0.1 -0.361725,-1.176177 -1.261719,-1.888672 -0.712496,-0.5375 -1.600006,-0.625 -2.5,-0.625 L 50.226562,15.5 c 0.785152,-0.249998 1.597189,-0.377091 2.408204,-0.388672 z m -41.484375,0.002 c 1.112062,-0.0063 2.259772,0.125784 3.27539,0.5625 0.0875,0.1 0.264063,0.1875 0.351563,0.1875 l -2.863282,6 c -0.1,0 -0.362502,-0.175781 -0.8125,-0.175781 -0.274996,0 -0.625392,3.92e-4 -0.90039,0.275391 L 6.3398438,16.574219 C 6.5273423,16.486719 6.6132827,16.4 6.8007812,16.3125 c 1.0624933,-0.637496 2.3253986,-0.988331 3.5878908,-1.175781 0.25078,-0.01404 0.505089,-0.02194 0.761719,-0.02344 z M 48.951172,16 l 1.988281,4.662109 c 0,0 -0.0016,0.08789 -0.101562,0.08789 -0.262499,0 -0.8125,0.625784 -0.8125,0.988281 h -5.648438 c 0.187499,-1.437491 0.811725,-2.876179 1.699219,-3.951172 0.812495,-0.799995 1.812507,-1.437111 2.875,-1.787108 z m -32.900391,0.587891 c 0.1,0.0875 0.275782,0.174218 0.363281,0.261718 1.074994,0.624996 1.886723,1.624616 2.511719,2.59961 0.624996,1.074993 0.988672,2.337507 1.076172,3.5 0.100001,0.187499 0.09961,0.363672 0.09961,0.451172 l -6.550781,0.1875 c 0,-0.1 0.0016,-0.275783 -0.08594,-0.550782 -0.1,-0.174999 -0.275782,-0.361328 -0.363282,-0.361328 z m -10.5371091,0.574218 3.7753906,5.375 c -0.087499,0.174999 -0.2617187,0.362111 -0.2617187,0.53711 -0.8124949,1.349991 0.5367299,3.238281 2.1367182,3.238281 1.087494,0 2.25,-0.811724 2.25,-1.699219 h 6.636719 C 19.600784,30.425744 13.689809,34.199206 8.2148438,32.136719 1.927384,29.811734 0.40120456,21.549581 5.5136719,17.162109 Z m 50.7128901,6.800782 h 5.212891 v 0.449218 c -0.1,3.23748 -2.162519,6.012899 -5.125,7.275391 -3.487478,1.52499 -7.714077,0.887871 -10.039062,-2.162109 -0.1,-0.0875 -0.185938,-0.262501 -0.273438,-0.4375 h 9.787109 V 28.1875 h -2.96289 v -0.625 c 0.887494,0 1.787113,-0.363285 2.412109,-0.988281 0.637496,-0.712496 0.988281,-1.611335 0.988281,-2.611328 z"
   transform="matrix(0.80000512,0,0,-0.80000512,279.56875,446.93998)" />







</g>
  </g>
</svg>
