<?xml version="1.0" encoding="UTF-8" standalone="no"?>
<!DOCTYPE svg PUBLIC "-//W3C//DTD SVG 1.0//EN" "http://www.w3.org/TR/2001/REC-SVG-20010904/DTD/svg10.dtd">
<svg
   xmlns:svg="http://www.w3.org/2000/svg"
   xmlns="http://www.w3.org/2000/svg"
   version="1.0"
   width="49.113522"
   height="35.450211"
   id="svg1887">
  <defs
     id="defs1889" />
  <g
     transform="translate(-266.8718,-403.2085)"
     id="layer1">
    <g
       transform="matrix(1.249992,0,0,-1.249992,-79.26214,951.8679)"
       style="font-style:normal;font-variant:normal;font-weight:normal;font-stretch:normal;letter-spacing:normal;word-spacing:normal;text-anchor:start;fill:none;fill-opacity:1;stroke:black;stroke-linecap:butt;stroke-linejoin:miter;stroke-miterlimit:10.43299961;stroke-dasharray:none;stroke-dashoffset:0;stroke-opacity:1"
       id="g10"
       xml:space="preserve">
<path
   d="M 316.2,423.45 L 305.16,412.38 L 305.16,412.38 C 305.05,412.27 304.7,411.95 304.58,411.83 C 304.38,411.66 304.1,411.42 303.86,411.31 C 303.6,411.19 303.25,411.15 302.96,411.14 L 302.96,411.14 L 302,411.14 L 283.44,411.14 L 283.44,411.14 C 283.2,411.14 282.77,411.14 282.54,411.19 C 282.26,411.24 281.99,411.35 281.77,411.53 C 281.54,411.71 281.37,411.95 281.27,412.2 C 281.21,412.37 281.15,412.61 281.11,412.79 L 281.11,412.79 L 280.56,412.79 L 280.56,412.79 C 280.59,412.53 280.66,412.18 280.75,411.94 C 280.89,411.61 281.11,411.31 281.4,411.08 C 281.67,410.88 281.98,410.74 282.31,410.67 C 282.63,410.59 283.04,410.57 283.38,410.57 L 283.38,410.57 L 301.98,410.57 L 301.98,410.57 C 302.14,410.57 302.9,410.57 303.06,410.59 C 303.4,410.6 303.81,410.67 304.12,410.82 C 304.38,410.93 304.65,411.16 304.86,411.34 C 305.07,411.53 305.4,411.86 305.59,412.05 L 305.59,412.05 L 316.2,422.7 L 316.2,423.45 z "
   style="fill:black;fill-rule:nonzero;stroke-width:0"
   id="path12" />
<path
   d="M 316.2,429.46 L 316.2,430.01 L 304.5,430.01 L 299.5,434.84 L 278.3,434.84 L 278.3,434.84 C 278.17,434.84 277.84,434.84 277.71,434.81 C 277.48,434.75 277.27,434.62 277.12,434.43 C 276.98,434.26 276.91,434.04 276.91,433.81 C 276.9,433.58 276.96,433.34 277.1,433.15 C 277.24,432.96 277.43,432.84 277.63,432.77 C 277.81,432.72 278.1,432.71 278.29,432.71 L 278.29,432.71 L 278.78,432.71 L 291.79,419.69 L 292.19,420.1 L 279.59,432.71 L 289.33,432.71 L 295.88,426.23 L 299.11,429.46 L 295.88,432.71 L 298.68,432.71 L 302.55,428.94 L 302.55,428.94 C 302.65,428.85 302.84,428.67 302.96,428.59 C 303.09,428.49 303.25,428.42 303.43,428.39 C 303.64,428.36 303.88,428.41 304.07,428.54 C 304.25,428.66 304.38,428.85 304.44,429.05 C 304.48,429.17 304.5,429.34 304.5,429.46 L 304.5,429.46 L 316.2,429.46 z "
   style="fill:black;fill-rule:nonzero;stroke-width:0"
   id="path14" />
<path
   d="M 289.17,435.31 L 289.08,435.32 L 288.99,435.32 L 288.9,435.33 L 288.81,435.35 L 288.73,435.37 L 288.64,435.4 L 288.56,435.42 L 288.48,435.46 L 288.4,435.49 L 288.33,435.53 L 288.25,435.58 L 288.18,435.62 L 288.11,435.67 L 288.04,435.73 L 287.98,435.78 L 287.92,435.84 L 287.86,435.9 L 287.81,435.97 L 287.75,436.04 L 287.7,436.11 L 287.66,436.18 L 287.62,436.26 L 287.58,436.33 L 287.54,436.41 L 287.51,436.49 L 287.48,436.58 L 287.46,436.66 L 287.44,436.75 L 287.42,436.84 L 287.41,436.93 L 287.4,437.02 L 287.4,437.11 C 287.4,438.11 288.21,438.95 289.23,438.93 C 290.21,438.92 290.99,438.11 290.99,437.13 C 290.99,436.13 290.17,435.3 289.17,435.31 z "
   style="fill:black;fill-rule:nonzero;stroke-width:0"
   id="path16" />
<path
   d="M 300.35,428.23 L 305.69,422.96 L 312.22,422.96 L 312.22,422.96 C 312.4,422.96 312.69,422.95 312.87,422.91 C 313.09,422.85 313.29,422.73 313.43,422.56 C 313.6,422.35 313.66,422.1 313.63,421.83 C 313.61,421.6 313.53,421.39 313.37,421.22 C 313.23,421.06 313.04,420.95 312.83,420.91 C 312.68,420.86 312.28,420.86 312.12,420.86 L 312.12,420.86 L 306.55,420.86 L 306.55,420.86 C 306.31,420.86 305.94,420.86 305.7,420.88 C 305.4,420.91 305.1,420.97 304.82,421.08 C 304.54,421.19 304.27,421.39 304.04,421.59 C 303.89,421.72 303.5,422.11 303.37,422.24 L 303.37,422.24 L 300.35,425.24 L 295.3,420.15 L 295.3,413.02 L 295.3,413.02 C 295.3,412.86 295.3,412.55 295.25,412.39 C 295.2,412.16 295.07,411.94 294.89,411.8 C 294.71,411.68 294.51,411.62 294.31,411.61 C 294.09,411.6 293.87,411.64 293.71,411.76 C 293.51,411.88 293.38,412.09 293.3,412.31 C 293.21,412.52 293.2,412.79 293.2,413.01 L 293.2,413.01 L 293.2,419.64 L 293.2,419.64 C 293.2,419.86 293.2,420.11 293.24,420.32 C 293.27,420.56 293.33,420.8 293.43,421 C 293.52,421.21 293.63,421.39 293.77,421.55 C 293.92,421.75 294.12,421.96 294.29,422.13 L 294.29,422.13 L 300.35,428.23 z "
   style="fill:black;fill-rule:nonzero;stroke-width:0"
   id="path18" />
</g>  </g>
</svg>
