<?xml version="1.0" encoding="UTF-8" standalone="no"?>
<svg
   version="1.0"
   width="80.574486"
   height="35.437275"
   id="svg1911"
   sodipodi:docname="CH-Zusatztafel-Strassenbahn.svg"
   inkscape:version="1.1.2 (b8e25be833, 2022-02-05)"
   xmlns:inkscape="http://www.inkscape.org/namespaces/inkscape"
   xmlns:sodipodi="http://sodipodi.sourceforge.net/DTD/sodipodi-0.dtd"
   xmlns="http://www.w3.org/2000/svg"
   xmlns:svg="http://www.w3.org/2000/svg">
  <sodipodi:namedview
     id="namedview22"
     pagecolor="#ffffff"
     bordercolor="#666666"
     borderopacity="1.0"
     inkscape:pageshadow="2"
     inkscape:pageopacity="0.0"
     inkscape:pagecheckerboard="true"
     showgrid="false"
     inkscape:zoom="31.076835"
     inkscape:cx="22.186944"
     inkscape:cy="28.139931"
     inkscape:window-width="1920"
     inkscape:window-height="1001"
     inkscape:window-x="-9"
     inkscape:window-y="-9"
     inkscape:window-maximized="1"
     inkscape:current-layer="svg1911" />
  <defs
     id="defs1913" />
  <g
     transform="translate(-282.5699,-408.9292)"
     id="layer1">
    <g
       transform="matrix(1.249992,0,0,-1.249992,-47.79048,957.6757)"
       style="font-style:normal;font-variant:normal;font-weight:normal;font-stretch:normal;letter-spacing:normal;word-spacing:normal;text-anchor:start;fill:none;fill-opacity:1;stroke:#000000;stroke-linecap:butt;stroke-linejoin:miter;stroke-miterlimit:10.433;stroke-dasharray:none;stroke-dashoffset:0;stroke-opacity:1"
       id="g10"
       xml:space="preserve">
<polygon
   points="323,414.54 323.21,414.89 328.75,414.89 328.46,414.54 "
   style="fill:#000000;fill-rule:nonzero;stroke-width:0"
   id="polygon12" />
<polygon
   points="264.29,410.65 264.5,411.01 326.59,411.01 326.37,410.65 "
   style="fill:#000000;fill-rule:nonzero;stroke-width:0"
   id="polygon14" />
<path
   d="m 302.85,428.93 h -24.53 v 0 c 0,0.07 0,0.14 0,0.21 0,0.22 0.07,0.44 0.22,0.65 0.07,0.15 0.21,0.29 0.28,0.36 0.15,0.15 0.22,0.22 0.36,0.29 0.15,0.07 0.29,0.07 0.44,0.15 0.07,0 0.14,0 0.21,0 v 0 h 21.51 v 0 c 0.08,0 0.29,0 0.36,0 0.29,-0.08 0.57,-0.22 0.72,-0.44 0.14,-0.14 0.28,-0.36 0.36,-0.57 0,-0.15 0.07,-0.29 0.07,-0.44 0,-0.07 0,-0.14 0,-0.21 z"
   style="fill:#000000;fill-rule:nonzero;stroke-width:0"
   id="path16" />
<polygon
   points="272.2,414.54 266.45,414.54 266.73,414.89 271.98,414.89 "
   style="fill:#000000;fill-rule:nonzero;stroke-width:0"
   id="polygon18" />
<path
   id="path20"
   style="fill:#000000;fill-rule:nonzero;stroke-width:0"
   d="m 53.324219,0 c -0.0875,0 -0.08633,3.91185e-4 -0.173828,0.08789062 0,0 -0.08789,3.9119e-4 -0.08789,0.08789063 -0.1,0 -0.09961,0.0875006 -0.09961,0.1875 -0.0875,0 -0.08789,0.0859375 -0.08789,0.0859375 v 0.3515625 h 0.361328 V 0.71289062 0.625 c 0,-0.0874994 3.91e-4,-0.0882818 0.08789,-0.17578125 h 0.08789 0.175782 H 54.125 V 2.0625 L 43.25,6.8378906 50.986328,11.962891 v 0.986328 H 16 15.550781 c -0.349998,0 -0.713674,0.08867 -1.076172,0.263672 -0.449997,0.187498 -0.899221,0.449611 -1.261718,0.724609 -0.262499,0.187499 -0.537892,0.449611 -0.712891,0.724609 -0.187499,0.262499 -0.36211,0.537893 -0.537109,0.900391 0,0 -0.08789,0.08828 -0.08789,0.175781 H 71.03711 c 0,-0.0875 -0.08789,-0.08828 -0.08789,-0.175781 0,-0.0875 -0.08633,-0.187891 -0.173828,-0.275391 L 70.587891,15.025391 70.5,14.925781 V 13.3125 13.212891 c 0,-0.0875 -0.08789,-0.08789 -0.08789,-0.08789 -0.0875,-0.0875 -0.08828,-0.08789 -0.175781,-0.08789 0,-0.0875 -0.1,-0.08789 -0.1875,-0.08789 H 68.69922 l -0.08789,0.451172 c -0.0875,0 -0.173828,-0.08789 -0.173828,-0.08789 L 67.625,13.125 C 67.350002,13.0375 66.987108,12.949219 66.724609,12.949219 H 66.275391 58.173828 V 11.962891 L 65.824219,7.0117188 54.486328,2.0625 V 0.44921875 h 0.550781 0.08789 0.173828 v 0.0878906 c 0.0875,0.0874994 0.08789,0.0882818 0.08789,0.17578124 v 0.0878906 h 0.27539 V 0.44921875 0.36328125 0.26171875 L 55.486328,0.08789062 c 0,0 -0.1,-3.9118e-4 -0.1875,-0.08789062 H 55.212891 53.5 Z m 1,2.3496094 10.0625,4.6621094 L 57.650391,11.25 H 51.349609 L 44.525391,6.9257812 Z m -2.4375,9.6132816 h 5.40039 v 1.074218 h -5.40039 z"
   transform="matrix(0.80000512,0,0,-0.80000512,264.29,439.00001)" />
<path
   id="path22"
   style="fill:#000000;fill-rule:nonzero;stroke-width:0"
   d="m 11.599609,16.650391 -0.625,11.861328 -0.625,0.1875 v 1.25 l 0.625,0.1875 -0.08789,0.71289 2.164062,0.263672 V 31.5625 h -2.701172 l -0.4492184,0.275391 h -1.625 C 8.1878912,31.837891 8.0996094,31.75 8.0996094,31.75 L 8.0117188,31.662109 7.9121094,31.5625 H 7.7382812 l -0.087891,1 H 7.912109 8.011718 L 8.0996094,32.474609 8.1875,32.375 v -0.08789 c 0.087499,-0.0875 0.088282,-0.08789 0.1757812,-0.08789 h 0.1738282 4.5136716 v 0.08789 0.275391 c 0.0875,0.0875 0.17422,0.173828 0.261719,0.173828 0,0.0875 0.100001,0.0875 0.1875,0.1875 H 13.761719 16 v 0.351563 c 0,0.449997 0.18672,0.723439 0.449219,1.085937 0.362497,0.349998 0.913675,0.625 1.451172,0.625 0.537496,-0.0875 1.075002,-0.275002 1.4375,-0.625 0.362497,-0.274998 0.537109,-0.72344 0.537109,-1.085937 0.0875,-0.0875 0.08789,-0.264063 0.08789,-0.351563 H 24.375 c 0,0.174999 0.08789,0.351173 0.08789,0.451172 0.0875,0.437497 0.27383,0.711721 0.548828,1.074219 0.349998,0.262498 0.888284,0.537109 1.425781,0.537109 0.449997,0 0.987112,-0.275002 1.349609,-0.625 0.362498,-0.274998 0.537501,-0.723831 0.625,-1.173828 v -0.263672 h 0.91211 0.263672 c 0.0875,-0.1 0.1875,-0.1 0.1875,-0.1875 0.0875,0 0.08789,-0.08633 0.08789,-0.173828 0.0875,0 0.08594,-0.1875 0.08594,-0.1875 V 32.199219 H 53.0625 V 32.375 c 0.0875,0 0.08789,0.100001 0.08789,0.1875 l 0.173828,0.173828 c 0.0875,0.0875 0.187891,0.0875 0.27539,0.1875 H 53.775391 55.125 V 33.1875 c 0,0.449997 0.18672,0.81133 0.449219,1.173828 0.449997,0.349998 1.000004,0.625 1.625,0.625 0.449997,-0.0875 0.987111,-0.275002 1.349609,-0.625 0.274998,-0.274998 0.539063,-0.72344 0.539063,-1.085937 0.0875,-0.0875 0.08594,-0.264063 0.08594,-0.351563 h 4.414063 V 33.1875 c 0,0.449997 0.262111,0.81133 0.537109,1.173828 0.362498,0.349998 0.900003,0.625 1.4375,0.625 0.449997,0 0.899221,-0.173829 1.261719,-0.361328 0.174999,-0.174999 0.44961,-0.450392 0.537109,-0.712891 0.0875,-0.274998 0.175781,-0.537501 0.175781,-0.8125 0.0875,0 0.08789,-0.08828 0.08789,-0.175781 h 1.087891 0.173828 c 0.1,0 0.1,3.9e-4 0.1875,-0.09961 0.0875,0 0.08828,-3.91e-4 0.175781,-0.08789 L 69.423828,32.5625 v -0.275391 -0.08789 h 5.212891 0.1875 c 0.0875,0 0.08789,0.08789 0.08789,0.08789 v 0.1875 c 0.0875,0 0.08789,0.08789 0.08789,0.08789 h 0.08789 0.09961 v -1 H 75.087891 75 l -0.08789,0.09961 V 31.75 c 0,0.0875 -0.08789,0.08789 -0.08789,0.08789 0,0.0875 -0.09961,0.08789 -0.09961,0.08789 h -0.175781 -1.4375 l -0.625,-0.363281 H 70.875 70.6875 c -0.0875,-0.0875 -0.08789,-0.08828 -0.08789,-0.175781 -0.0875,0 -0.0875,-0.08633 0,-0.173828 0,0 3.92e-4,-0.09961 0.08789,-0.09961 0,0 0.08789,-3.91e-4 0.08789,-0.08789 l 1.710937,-0.34961 v -0.539062 l 0.625,-0.1875 v -1.25 l -0.710937,-0.1875 -0.175782,-3.861328 v -0.363282 l -0.08789,-0.449218 v -0.263672 c 0,-0.1 -0.09961,-0.185938 -0.09961,-0.273438 L 70.6875,18.261719 h 1.087891 L 71.324219,16.650391 Z M 12.5,17.087891 h 0.09961 2.425782 0.27539 c 0.0875,0 0.08633,0.08789 0.173828,0.08789 0.0875,0.1 0.08789,0.185938 0.08789,0.273438 0.100004,0.0875 0.09961,0.08828 0.09961,0.175781 V 23.113281 23.375 c -0.1,0.1 -0.1,0.187891 -0.1875,0.275391 0,0.0875 -0.08633,0.08633 -0.173828,0.173828 h -0.1875 -2.875 -0.08789 c -0.1,0 -0.187891,-0.08594 -0.275391,-0.08594 -0.0875,-0.0875 -0.0875,-0.176172 -0.1875,-0.263672 v -0.27539 L 12.150391,17.625 v -0.08789 c 0,-0.0875 0.08789,-0.174218 0.08789,-0.261718 0.0875,-0.1 0.174219,-0.1875 0.261719,-0.1875 z m 4.224609,0 h 4.326172 v 13.486328 h -4.326172 z m 5.22461,0 h 4.5 v 13.486328 h -4.5 z m 6.375,0 h 0.1875 7.638672 0.173828 c 0.187499,0 0.275781,3.9e-4 0.363281,0.08789 0.0875,0.1 0.1875,0.273828 0.1875,0.361328 v 0.1875 5.47461 0.175781 c 0,0.1 -0.09961,0.187891 -0.09961,0.275391 -0.0875,0.0875 -0.176172,0.173828 -0.263672,0.173828 h -0.1875 -7.91211 -0.173828 c -0.0875,0 -0.18789,-0.08594 -0.27539,-0.08594 0,-0.0875 -0.08789,-0.176172 -0.08789,-0.263672 0,-0.1 -0.08789,-0.1 -0.08789,-0.1875 V 17.625 c 0,0 0.08789,-0.08828 0.08789,-0.175781 0,-0.0875 0.08828,-0.173438 0.175781,-0.273438 0.1,0 0.185938,-0.08789 0.273438,-0.08789 z m 9.71289,0 h 0.275391 7.462891 0.261718 c 0.1,0 0.275782,0.0875 0.363282,0.1875 0,0.0875 0.08594,0.17461 0.08594,0.349609 v 0.1875 5.386719 0.27539 l -0.261719,0.263672 c -0.0875,0.08754 -0.18789,0.08594 -0.27539,0.08594 h -0.173828 -7.5625 -0.175782 c -0.0875,0 -0.27539,-0.08633 -0.27539,-0.173828 -0.0875,-0.0875 -0.173828,-0.175391 -0.173828,-0.275391 v -0.175781 -5.47461 -0.1875 c 0,-0.0875 0.08633,-0.174218 0.173828,-0.261718 0.1,-0.1 0.18789,-0.1875 0.27539,-0.1875 z m 9.644532,0 c 0.03125,-0.0014 0.0582,0 0.08008,0 h 0.175781 7.462891 0.261718 c 0.1,0 0.187891,0.0875 0.275391,0.1875 0,0 0.08789,0.08633 0.08789,0.173828 v 0.27539 5.388672 0.173828 c 0,0.187499 -0.08789,0.275782 -0.08789,0.363282 -0.0875,0.0875 -0.175391,0.08633 -0.275391,0.173828 H 55.400393 47.849611 47.67383 c -0.1,0 -0.273828,0.0016 -0.361328,-0.08594 0,-0.0875 -0.08789,-0.175782 -0.08789,-0.363281 0,0 -0.09961,-0.08828 -0.09961,-0.175781 v -5.47461 c 0,-0.1 0.09961,-0.18789 0.09961,-0.27539 0,-0.0875 0.08828,-0.173438 0.175782,-0.273438 0.06562,-0.06562 0.1875,-0.08379 0.28125,-0.08789 z m 10.78125,0 H 64.75 v 13.486328 h -6.287109 z m 9.074218,1.074218 h 1.800782 c 0.0875,0 0.273828,0.08789 0.361328,0.08789 0.0875,0 0.18789,3.91e-4 0.27539,0.08789 0,0.0875 0.08789,0.0875 0.08789,0.1875 0.0875,0.0875 0.08633,0.261718 0.173828,0.261718 l 1.087891,4.050782 v 0.361328 c 0.0875,0.0875 0,0.175782 0,0.363281 -0.1,0.0875 -0.187891,0.175781 -0.275391,0.175781 -0.0875,0.08754 -0.173437,0.08594 -0.273437,0.08594 H 66.1875 66.011719 c -0.0875,0 -0.1875,-0.08633 -0.1875,-0.173828 -0.0875,0 -0.173828,-0.08828 -0.173828,-0.175782 v -0.1875 -3.324218 -0.275391 c 0,-0.262498 0.173437,-0.450392 0.273437,-0.712891 0.174999,-0.187498 0.364064,-0.361329 0.539063,-0.548828 0.274998,-0.0875 0.537501,-0.175781 0.8125,-0.175781 0.0875,-0.0875 0.174218,-0.08789 0.261718,-0.08789 z"
   transform="matrix(0.80000512,0,0,-0.80000512,264.29,439.00001)" />










</g>
  </g>
</svg>
