<?xml version="1.0" encoding="UTF-8" standalone="no"?>
<!DOCTYPE svg PUBLIC "-//W3C//DTD SVG 1.0//EN" "http://www.w3.org/TR/2001/REC-SVG-20010904/DTD/svg10.dtd">
<svg xmlns:svg="http://www.w3.org/2000/svg" xmlns="http://www.w3.org/2000/svg" version="1.0" width="53.149658" height="53.149658" id="svg1893">
  <defs id="defs1895"/>
  <g transform="translate(-356.2823,-442.9303)" id="layer1">
    <g transform="matrix(1.249992,0,0,-1.249992,-38.10266,919.7147)" style="font-style:normal;font-variant:normal;font-weight:normal;font-stretch:normal;letter-spacing:normal;word-spacing:normal;text-anchor:start;fill:none;fill-opacity:1;stroke:black;stroke-linecap:butt;stroke-linejoin:miter;stroke-miterlimit:10.43299961;stroke-dasharray:none;stroke-dashoffset:0;stroke-opacity:1" id="g10" xml:space="preserve">
<polygon points="315.51,338.91 315.51,381.43 358.03,381.43 358.03,338.91 315.51,338.91 " style="fill:#0070ff;fill-rule:nonzero;stroke:#0070ff;stroke-width:0" id="polygon12"/>
<polygon points="316.27,380.68 316.27,380.68 316.27,339.67 357.28,339.67 357.28,380.68 316.27,380.68 " style="fill:white;fill-rule:nonzero;stroke:#0070ff;stroke-width:0" id="polygon24"/><polygon points="331.95,377.27 331.95,377.27 331.95,368.62 324.52,372.95 319.68,364.49 327.09,360.17 319.68,355.85 324.52,347.4 331.95,351.72 331.95,343.08 341.59,343.08 341.59,351.72 349.02,347.4 353.87,355.85 346.43,360.17 353.87,364.49 349.02,372.95 341.59,368.62 341.59,377.27 331.95,377.27 " style="fill:#0070ff;fill-opacity:1;fill-rule:nonzero;stroke:#0070ff;stroke-width:0" id="polygon14"/>
<polygon points="338.43,361.25 338.48,362.41 338.26,362.41 338.2,361.25 338.43,361.25 " style="fill:#0070ff;fill-rule:nonzero;stroke:#0070ff;stroke-width:0" id="polygon16"/>
<polygon points="336.98,356.39 336.93,358.13 336.7,358.11 336.75,356.39 336.98,356.39 " style="fill:#0070ff;fill-rule:nonzero;stroke:#0070ff;stroke-width:0" id="polygon18"/>
<polygon points="338.04,352.38 338.12,353.84 337.89,353.84 337.83,352.38 338.04,352.38 " style="fill:#0070ff;fill-rule:nonzero;stroke:#0070ff;stroke-width:0" id="polygon20"/>
<polygon points="337.74,349.78 337.81,350.01 338.01,350.61 338.12,350.89 338.24,351.18 338.35,351.5 338.66,352.09 338.97,352.71 339.07,352.88 339.14,353.05 339.18,353.19 339.22,353.35 339.24,353.5 339.24,353.62 339.22,353.75 339.18,353.87 339.14,353.98 339.09,354.1 339.02,354.2 338.95,354.29 338.78,354.5 338.55,354.7 338.12,355.06 337.95,355.21 337.97,355.43 338.02,356.88 338.08,358.3 338.14,359.66 339.28,360.89 339.41,361.07 339.55,361.25 339.59,361.34 339.63,361.43 339.66,361.52 339.7,361.61 339.73,361.7 339.74,361.79 339.74,361.89 339.76,361.96 339.74,362.16 339.7,362.36 339.65,362.51 339.57,362.69 339.45,362.86 339.34,363.03 339.2,363.19 339.02,363.34 338.84,363.47 338.64,363.61 338.29,363.82 338.31,364.05 338.38,365.52 338.43,366.98 338.48,368.49 338.56,370.01 338.62,371.6 338.48,371.79 338.34,371.96 338.2,372.12 338.07,372.23 337.91,372.33 337.77,372.39 337.71,372.43 337.64,372.43 337.57,372.44 337.5,372.44 337.43,372.44 337.37,372.43 337.29,372.43 337.21,372.39 337.08,372.33 336.94,372.23 336.79,372.12 336.66,371.96 336.5,371.79 336.37,371.6 336.4,370.69 336.54,370.71 336.73,370.69 336.93,370.65 337.12,370.61 337.29,370.52 337.48,370.4 337.66,370.28 337.81,370.13 337.97,369.96 338.11,369.74 338.11,369.74 338.18,369.63 338.21,369.51 338.28,369.38 338.31,369.26 338.34,369.12 338.34,369.01 338.34,368.89 338.29,368.76 338.21,368.62 338.12,368.51 338.02,368.43 337.87,368.38 337.74,368.36 337.6,368.36 337.47,368.38 337.33,368.43 337.33,368.43 337.21,368.47 337.1,368.51 336.98,368.55 336.87,368.57 336.77,368.59 336.66,368.59 336.56,368.59 336.5,368.59 336.64,364.85 336.6,364.88 336.5,364.94 336.4,365.02 336.31,365.12 336.21,365.21 336.12,365.31 336.04,365.42 335.95,365.54 335.86,365.67 335.69,365.94 335.55,366.21 335.42,366.5 335.31,366.81 335.25,366.96 335.21,367.1 335.17,367.25 335.17,367.39 335.15,367.52 335.15,367.66 335.17,367.77 335.17,367.89 335.21,368.01 335.25,368.12 335.29,368.22 335.34,368.32 335.41,368.41 335.46,368.51 335.54,368.59 335.61,368.64 335.69,368.72 335.79,368.78 335.88,368.82 336,368.88 336.1,368.92 336.19,368.93 336.31,368.95 336.45,368.97 336.56,368.97 336.67,368.97 336.81,368.95 336.94,368.95 337.06,368.93 337.2,368.89 337.33,368.83 337.47,368.78 337.57,368.76 337.64,368.74 337.71,368.72 337.77,368.74 337.83,368.76 337.87,368.8 337.91,368.83 337.93,368.89 337.95,368.95 337.95,369.03 337.95,369.09 337.95,369.16 337.91,369.26 337.87,369.36 337.85,369.44 337.77,369.55 337.66,369.7 337.54,369.86 337.41,370 337.27,370.09 337.12,370.18 336.98,370.25 336.83,370.28 336.67,370.3 336.52,370.32 336.37,370.3 336.21,370.28 336.05,370.25 335.88,370.18 335.75,370.13 335.58,370.05 335.42,369.96 335.17,369.8 334.92,369.61 334.71,369.44 334.51,369.24 334.36,369.05 334.2,368.83 334.09,368.64 333.99,368.43 333.89,368.2 333.86,368.01 333.8,367.77 333.8,367.57 333.78,367.35 333.8,367.12 333.82,366.91 333.88,366.7 333.94,366.46 333.99,366.25 334.07,366.04 334.19,365.85 334.28,365.63 334.4,365.42 334.54,365.25 334.67,365.05 334.8,364.88 334.98,364.71 335.13,364.54 335.29,364.36 335.46,364.22 335.63,364.09 335.81,363.95 336,363.82 336,363.82 336.31,363.63 336.62,363.43 336.71,363.38 336.85,359.8 336.67,359.63 336.42,359.36 336.29,359.25 336.17,359.11 336.05,358.98 335.96,358.84 335.86,358.71 335.79,358.57 335.73,358.44 335.65,358.3 335.61,358.17 335.55,358.04 335.52,357.9 335.5,357.76 335.48,357.61 335.48,357.47 335.48,357.34 335.48,357.2 335.52,357.07 335.54,356.93 335.58,356.8 335.61,356.66 335.68,356.53 335.73,356.37 335.81,356.24 335.88,356.1 335.98,355.95 336.05,355.82 336.17,355.66 336.29,355.52 336.54,355.25 336.81,354.97 337.04,354.75 337.33,347.9 337.68,347.9 337.68,347.9 337.74,349.46 337.74,349.78 " style="fill:white;fill-opacity:1;fill-rule:nonzero;stroke:#0070ff;stroke-width:0" id="polygon22"/>

</g>  </g>
</svg>