<?xml version="1.0" encoding="UTF-8" standalone="no"?>
<svg
   version="1.0"
   width="84.161964"
   height="35.437275"
   id="svg1885"
   sodipodi:docname="CH-Zusatztafel-Panzer.svg"
   inkscape:version="1.1.2 (b8e25be833, 2022-02-05)"
   xmlns:inkscape="http://www.inkscape.org/namespaces/inkscape"
   xmlns:sodipodi="http://sodipodi.sourceforge.net/DTD/sodipodi-0.dtd"
   xmlns="http://www.w3.org/2000/svg"
   xmlns:svg="http://www.w3.org/2000/svg">
  <sodipodi:namedview
     id="namedview9"
     pagecolor="#ffffff"
     bordercolor="#666666"
     borderopacity="1.0"
     inkscape:pageshadow="2"
     inkscape:pageopacity="0.0"
     inkscape:pagecheckerboard="true"
     showgrid="false"
     inkscape:zoom="14.876079"
     inkscape:cx="42.114593"
     inkscape:cy="17.713001"
     inkscape:window-width="1920"
     inkscape:window-height="1001"
     inkscape:window-x="-9"
     inkscape:window-y="-9"
     inkscape:window-maximized="1"
     inkscape:current-layer="svg1885" />
  <defs
     id="defs1887" />
  <g
     transform="translate(-257.919,-371.7864)"
     id="layer1">
    <g
       transform="matrix(1.249992,0,0,-1.249992,-70.64138,920.5329)"
       style="font-style:normal;font-variant:normal;font-weight:normal;font-stretch:normal;letter-spacing:normal;word-spacing:normal;text-anchor:start;fill:none;fill-opacity:1;stroke:#000000;stroke-linecap:butt;stroke-linejoin:miter;stroke-miterlimit:10.433;stroke-dasharray:none;stroke-dashoffset:0;stroke-opacity:1"
       id="g10"
       xml:space="preserve">
<path
   id="path12"
   style="fill:#000000;fill-rule:nonzero;stroke-width:0"
   d="M 26.863281,13.636719 3.8242188,17.212891 V 23.1875 H 5.4375 v 1.136719 l 10.474609,9.83789 c 0.0125,0.0125 0.513672,0.47461 0.513672,0.47461 0.224999,0.212498 0.54844,0.47461 0.835938,0.599609 0.312498,0.137499 0.763283,0.176172 1.113281,0.201172 H 19.113281 70.75 c 0.075,0 0.400391,-0.05 0.462891,-0.0625 0.274998,-0.0375 0.57422,-0.113672 0.824218,-0.201172 0.299998,-0.112499 0.562502,-0.300001 0.8125,-0.5 0.174999,-0.149999 0.412501,-0.33672 0.5625,-0.511719 L 82.837891,23.1875 v -0.849609 h 1.324218 V 16.8125 l -12.6875,-3.175781 z m 43.835938,12.77539 c 0.874994,0.0125 1.724614,0.287894 2.474609,0.712891 0.749995,0.437497 1.412893,1.050005 1.837891,1.8125 0.137499,0.274998 0.29961,0.700783 0.412109,0.988281 L 74.4375,31.074219 c -0.025,-0.0875 -0.07461,-0.225001 -0.09961,-0.3125 -0.075,-0.212499 -0.337501,-0.937501 -0.4375,-1.125 -0.287499,-0.574997 -0.776176,-1.049221 -1.326172,-1.386719 -0.574997,-0.349998 -1.225395,-0.5625 -1.900391,-0.5625 -0.699995,0 -1.360941,0.225393 -1.960937,0.587891 -0.549997,0.337497 -1.038284,0.786331 -1.363282,1.361328 -0.324998,0.562496 -0.474219,1.212504 -0.511718,1.875 -0.025,0.662496 0.08594,1.325004 0.335937,1.9375 0.0875,0.212498 0.251563,0.51211 0.351563,0.724609 H 60.25 c 0.0625,-0.112499 0.173829,-0.274219 0.236328,-0.386719 0.162499,-0.249998 0.338673,-0.56172 0.451172,-0.824218 0.187499,-0.462497 0.261328,-0.951175 0.236328,-1.451172 -0.0125,-0.599996 -0.160939,-1.198441 -0.460937,-1.710938 -0.312498,-0.574996 -0.787895,-1.051174 -1.337891,-1.388672 -0.599996,-0.362497 -1.276176,-0.561718 -1.951172,-0.574218 -0.674996,0 -1.312503,0.16133 -1.875,0.486328 -0.587496,0.337498 -1.061721,0.825394 -1.386719,1.40039 -0.312498,0.537497 -0.499218,1.150395 -0.511718,1.775391 0,0.687496 0.174221,1.362894 0.511718,1.962891 0.1125,0.199998 0.325392,0.498438 0.462891,0.710937 h -7.8125 c 0.174999,-0.212499 0.425001,-0.535939 0.5625,-0.773437 0.337498,-0.562497 0.549609,-1.226176 0.537109,-1.888672 0,-0.599996 -0.21172,-1.198832 -0.511718,-1.736328 -0.324998,-0.562497 -0.775395,-1.074612 -1.337891,-1.41211 -0.574996,-0.349998 -1.237895,-0.526562 -1.900391,-0.539062 -0.687495,0 -1.375394,0.188283 -1.96289,0.550781 -0.549997,0.324998 -1.000393,0.786722 -1.337891,1.324219 -0.312498,0.549996 -0.524609,1.175004 -0.537109,1.8125 -0.0125,0.687495 0.187502,1.363675 0.5625,1.951172 0.137499,0.212498 0.375782,0.510938 0.550781,0.710937 h -7.076172 c 0.174999,-0.199999 0.426173,-0.499611 0.576172,-0.724609 0.337498,-0.549997 0.487109,-1.198833 0.474609,-1.861328 -0.025,-0.587497 -0.187111,-1.188676 -0.474609,-1.701172 -0.312498,-0.599996 -0.775394,-1.100002 -1.337891,-1.4375 C 33.037113,28.099221 32.399996,27.92539 31.75,27.900391 c -0.737495,-0.025 -1.474613,0.150393 -2.099609,0.52539 -0.562497,0.337498 -1.012893,0.799613 -1.337891,1.34961 -0.312498,0.562496 -0.512891,1.175004 -0.525391,1.8125 -0.0125,0.737495 0.162894,1.461332 0.587891,2.048828 0.124999,0.162499 0.325392,0.37461 0.462891,0.537109 H 21.3125 c 0.149999,-0.187499 0.375001,-0.475001 0.5,-0.6875 0.324998,-0.562496 0.474609,-1.223051 0.474609,-1.873047 -0.0125,-0.662496 -0.174221,-1.300785 -0.511718,-1.863281 -0.324998,-0.537497 -0.776176,-1.000002 -1.326172,-1.3125 -0.587496,-0.337498 -1.262505,-0.537891 -1.9375,-0.525391 -0.674996,0.0125 -1.336332,0.226174 -1.923828,0.576172 -0.549997,0.312498 -1.025393,0.735941 -1.337891,1.273438 -0.199999,0.324998 -0.32461,0.663674 -0.412109,1.013672 -0.0375,0.187498 -0.07461,0.461719 -0.09961,0.636718 L 13.650391,30.5 v -0.03711 l 0.01172,-0.03711 0.02539,-0.07617 0.02539,-0.07422 0.03711,-0.07617 0.02539,-0.08594 0.02539,-0.08789 0.02344,-0.08789 0.03906,-0.08789 0.02344,-0.07422 0.03906,-0.08789 0.03711,-0.08789 0.02539,-0.07422 0.03711,-0.08789 0.02539,-0.07422 0.03711,-0.07617 0.01172,-0.03711 0.01367,-0.02539 c 0.399998,-0.799995 1.023443,-1.448831 1.773438,-1.923828 0.787495,-0.487497 1.689068,-0.751172 2.601562,-0.763672 0.949994,-0.0375 1.875005,0.213675 2.6875,0.701172 0.737496,0.437497 1.336722,1.048833 1.761719,1.798828 0.199999,0.349998 0.350391,0.713284 0.462891,1.113282 L 23.488281,30.5 h 3.148438 c 0.0375,-0.124999 0.08867,-0.300782 0.138672,-0.425781 0.112499,-0.374998 0.262892,-0.712112 0.46289,-1.03711 0.437497,-0.724995 1.049614,-1.350393 1.78711,-1.77539 0.824994,-0.474997 1.750396,-0.7125 2.71289,-0.6875 0.874995,0.025 1.724614,0.276565 2.47461,0.726562 0.774995,0.474997 1.412112,1.136333 1.849609,1.923828 0.162499,0.287499 0.287891,0.600784 0.400391,0.925782 0.0375,0.1 0.08633,0.24961 0.111328,0.349609 h 2.037109 c 0.0375,-0.0875 0.07656,-0.212501 0.101563,-0.3125 0.137499,-0.374998 0.31172,-0.775783 0.511718,-1.113281 0.474997,-0.787495 1.188287,-1.411331 1.988282,-1.861328 C 42.012886,26.762894 42.937506,26.5 43.875,26.5 c 0.949994,0 1.887896,0.263284 2.712891,0.738281 0.774995,0.437497 1.46094,1.049224 1.898437,1.824219 0.137499,0.237498 0.351173,0.800783 0.451172,1.050781 0.05,0.1125 0.12461,0.28672 0.162109,0.386719 h 3.375 c 0.0375,-0.112499 0.075,-0.28711 0.125,-0.412109 0.1125,-0.349998 0.250002,-0.700393 0.4375,-1.025391 0.437498,-0.787495 1.062115,-1.450394 1.84961,-1.900391 0.762495,-0.437497 1.650396,-0.623828 2.52539,-0.611328 0.912495,0.0125 1.838287,0.212503 2.613282,0.6875 0.762495,0.449997 1.362112,1.111724 1.787109,1.886719 0.162499,0.287498 0.311329,0.613283 0.423828,0.925781 0.05,0.137499 0.114063,0.32422 0.164063,0.449219 h 3.25 c 0.025,-0.112499 0.08672,-0.274219 0.136718,-0.386719 0.1125,-0.374997 0.274611,-0.763283 0.47461,-1.113281 0.424997,-0.774995 1.050786,-1.412503 1.800781,-1.875 0.799995,-0.474997 1.699225,-0.725391 2.636719,-0.712891 z"
   transform="matrix(0.80000512,0,0,-0.80000512,262.84999,439.00001)" />
<polygon
   points="316.88,436.43 316.88,429.01 293.74,429.01 293.74,431.14 265.91,430.86 265.91,430.08 262.85,430.08 262.85,433.93 265.91,433.93 265.91,433.27 293.74,434.68 293.74,436.31 298.84,439 312.16,439 "
   style="fill:#000000;fill-rule:nonzero;stroke-width:0"
   id="polygon14" />

</g>
  </g>
</svg>
