<?xml version="1.0" encoding="UTF-8" standalone="no"?>
<svg
   version="1.0"
   width="167.62393"
   height="35.449772"
   id="svg1919"
   sodipodi:docname="CH-Zusatztafel-Schwere_Motorwagen.svg"
   inkscape:version="1.1.2 (b8e25be833, 2022-02-05)"
   xmlns:inkscape="http://www.inkscape.org/namespaces/inkscape"
   xmlns:sodipodi="http://sodipodi.sourceforge.net/DTD/sodipodi-0.dtd"
   xmlns="http://www.w3.org/2000/svg"
   xmlns:svg="http://www.w3.org/2000/svg">
  <sodipodi:namedview
     id="namedview26"
     pagecolor="#ffffff"
     bordercolor="#666666"
     borderopacity="1.0"
     inkscape:pageshadow="2"
     inkscape:pageopacity="0.0"
     inkscape:pagecheckerboard="0"
     showgrid="false"
     inkscape:snap-intersection-paths="true"
     inkscape:snap-smooth-nodes="true"
     inkscape:snap-bbox="true"
     inkscape:bbox-nodes="true"
     inkscape:snap-bbox-edge-midpoints="true"
     inkscape:object-paths="false"
     showguides="true"
     inkscape:guide-bbox="true"
     inkscape:zoom="8"
     inkscape:cx="104.1875"
     inkscape:cy="17.8125"
     inkscape:window-width="1920"
     inkscape:window-height="1001"
     inkscape:window-x="-9"
     inkscape:window-y="-9"
     inkscape:window-maximized="1"
     inkscape:current-layer="layer2" />
  <defs
     id="defs1921" />
  <g
     inkscape:groupmode="layer"
     id="layer2"
     inkscape:label="Layer 1">
    <path
       id="path16-6"
       style="font-style:normal;font-variant:normal;font-weight:normal;font-stretch:normal;letter-spacing:normal;word-spacing:normal;text-anchor:start;fill:#000000;fill-opacity:1;fill-rule:nonzero;stroke:#000000;stroke-width:0;stroke-linecap:butt;stroke-linejoin:miter;stroke-miterlimit:10.433;stroke-dasharray:none;stroke-dashoffset:0;stroke-opacity:1"
       d="M 73.250002,0 21.412111,4.3278129e-7 V 21.962891 l 28.97461,0.08789 -1.074219,1.16211 -28.886719,-0.08789 V 7.2871104 h -8.726562 c -1.53749,0 -3.3375035,1.2628975 -3.875,2.3378906 l -2.6992188,5.761718 -1.0742188,0.08789 c -0.087499,0 -0.8132835,0.187112 -1.1757812,0.53711 -0.2749982,0.274998 -0.4492188,0.725393 -0.4492188,1.08789 l -0.9003906,8.72461 H 0.62500224 C 0.45000336,25.824219 0.1753923,25.825001 0.08789286,26 3.934247e-4,26.1 2.23968e-6,26.549219 2.23968e-6,26.636719 v 0.8125 c 0,0.0875 7.8237e-4,0.364063 0.17578125032,0.539062 0.17499888,0.187499 0.36171931,0.185938 0.44921875,0.273438 l -0.0878906,0.888672 H 4.3125022 v -0.451172 c 0.1874988,-4.037474 3.6004165,-7.28711 7.6503908,-7.28711 4.149973,0 7.73789,3.149636 7.65039,7.28711 V 29.0625 l 29.236328,0.08789 c 0.1,-0.0875 0.09961,-0.263673 0.09961,-0.451172 0.362497,-4.137474 3.776199,-7.636328 8.013672,-7.548828 4.224973,0 7.461721,3.599245 7.824218,7.824218 V 29.25 h 1.625 c 0,-0.1 -0.09961,-1.437891 -0.09961,-1.525391 L 72.349611,25.5625 V 23.212891 L 64.062502,23.037109 63.162111,21.863281 H 73.250002 Z M 8.8125022,9.7128906 H 10.787111 L 8.1757834,15.474609 H 6.2871116 Z m 3.6874998,0 4.587891,0.099609 v 5.6621094 l -7.2871096,-0.08789 z"
       sodipodi:nodetypes="cccccccsccccccscsscccccsccccccccccccccccccccccccc" />
    <path
       id="path1939"
       style="display:inline;fill:#000000;fill-opacity:1"
       d="m 11.957031,22.662109 a 6.2950144,6.2949991 0 0 0 -6.2949216,6.294922 6.2950144,6.2949991 0 0 0 6.2949216,6.294922 6.2950144,6.2949991 0 0 0 6.294922,-6.294922 6.2950144,6.2949991 0 0 0 -6.294922,-6.294922 z m 0,3.78711 a 2.5075302,2.5075243 0 0 1 2.507813,2.507812 2.5075302,2.5075243 0 0 1 -2.507813,2.507813 2.5075302,2.5075243 0 0 1 -2.5078122,-2.507813 2.5075302,2.5075243 0 0 1 2.5078122,-2.507812 z" />
    <path
       id="path3107"
       style="display:inline;fill:#000000;fill-opacity:1"
       d="m 56.757051,22.662366 a 6.2950144,6.2949991 0 0 0 -6.294922,6.294922 6.2950144,6.2949991 0 0 0 6.294922,6.294922 6.2950144,6.2949991 0 0 0 6.294922,-6.294922 6.2950144,6.2949991 0 0 0 -6.294922,-6.294922 z m 0,3.78711 a 2.5075302,2.5075243 0 0 1 2.507813,2.507812 2.5075302,2.5075243 0 0 1 -2.507813,2.507813 2.5075302,2.5075243 0 0 1 -2.507813,-2.507813 2.5075302,2.5075243 0 0 1 2.507813,-2.507812 z" />
    <path
       id="path12"
       style="font-style:normal;font-variant:normal;font-weight:normal;font-stretch:normal;letter-spacing:normal;word-spacing:normal;text-anchor:start;fill:#000000;fill-opacity:1;fill-rule:nonzero;stroke:#000000;stroke-width:0;stroke-linecap:butt;stroke-linejoin:miter;stroke-miterlimit:10.433;stroke-dasharray:none;stroke-dashoffset:0;stroke-opacity:1"
       d="M 156.58737,5e-7 86.249471,0.1367192 c -0.574996,0 -1.236722,0.062502 -1.761719,0.3125 -0.487497,0.2249986 -0.938282,0.687894 -1.050781,1.2128907 L 80.47408,13.82422 c -0.112499,0.349998 -0.199609,1.025784 -0.224609,1.425781 -0.0375,0.249998 -0.0625,0.575392 -0.0625,0.837891 l 0.0625,11.375 c 0,0.449997 0.175783,0.949611 0.488281,1.287109 0.299998,0.274998 0.68594,0.461719 1.085938,0.449219 l 5.96289,-0.04883 c 0,-0.199999 0.01328,-0.474611 0.05078,-0.66211 0.387498,-3.812475 3.649634,-6.65039 7.474605,-6.65039 3.84998,0.0125 7.199215,2.812915 7.449215,6.65039 0.025,0.187499 0.0254,0.450001 0.0254,0.625 l 34.52539,0.03711 c 0,-0.237499 -7.9e-4,-0.613283 0.0117,-0.863282 0.2625,-3.912475 3.73714,-6.75039 7.66212,-6.71289 3.84997,0.05 7.16406,2.900806 7.41406,6.738281 0.0125,0.262498 0.0125,0.62422 0,0.886719 h 13.0625 c 0.55,0 1.18633,-0.075 1.61133,-0.4375 0.4,-0.337498 0.55079,-0.885941 0.55079,-1.398438 l -0.0254,-11.763672 c 0,-0.224998 -0.001,-1.11172 -0.0762,-1.324218 -0.05,-0.174999 -0.13711,-0.363673 -0.22461,-0.513672 L 159.09908,1.1757817 C 158.84909,0.8132841 158.5108,0.4871086 158.1108,0.2871099 157.64831,0.0746112 157.09986,5e-7 156.58737,5e-7 Z M 140.0483,2.6503911 140.16158,14.625001 131.0483,14.59961 130.91158,2.6992193 Z m -42.662114,0.011719 0.0879,11.9003909 -10.937496,0.03711 2.91211,-11.9003905 z m 1.72657,0 h 8.898434 l -0.0742,11.9121099 h -8.787114 z m 10.560544,0 h 8.76367 l 0.0254,11.9121099 h -8.78906 z m 10.57617,0 8.92383,0.037109 0.11328,11.9003909 h -8.98828 z m 21.5625,0 h 8.94922 l 0.0762,11.8496099 -8.90039,0.08789 z m 10.7754,0 h 5.44921 L 165.51119,14.51172 H 152.6108 Z M 87.53658,2.7128911 84.59908,14.57422 H 82.024862 L 84.936971,2.7382817 Z" />
    <path
       id="ellipse1676"
       style="display:inline;fill:#000000;fill-opacity:1;stroke-width:0.996999"
       d="m 95.362746,23.000001 a 6.2124596,6.2125001 0 0 0 -6.21289,6.212891 6.2124596,6.2125001 0 0 0 6.21289,6.21289 6.2124596,6.2125001 0 0 0 6.210944,-6.21289 6.2124596,6.2125001 0 0 0 -6.210944,-6.212891 z m 0,3.525391 a 2.6875041,2.6875217 0 0 1 2.6875,2.6875 2.6875041,2.6875217 0 0 1 -2.6875,2.6875 2.6875041,2.6875217 0 0 1 -2.687499,-2.6875 2.6875041,2.6875217 0 0 1 2.687499,-2.6875 z" />
    <path
       id="path2401"
       style="display:inline;fill:#000000;fill-opacity:1;stroke-width:0.996999"
       d="m 144.79945,23.000001 a 6.2124596,6.2125001 0 0 0 -6.21289,6.212891 6.2124596,6.2125001 0 0 0 6.21289,6.21289 6.2124596,6.2125001 0 0 0 6.21094,-6.21289 6.2124596,6.2125001 0 0 0 -6.21094,-6.212891 z m 0,3.525391 a 2.6875041,2.6875217 0 0 1 2.6875,2.6875 2.6875041,2.6875217 0 0 1 -2.6875,2.6875 2.6875041,2.6875217 0 0 1 -2.6875,-2.6875 2.6875041,2.6875217 0 0 1 2.6875,-2.6875 z" />
  </g>
</svg>
