<?xml version="1.0" encoding="UTF-8" standalone="no"?>
<!-- Created with Inkscape (http://www.inkscape.org/) -->

<svg
   version="1.0"
   width="88.961929"
   height="35.437275"
   id="svg1887"
   sodipodi:docname="CH-Zusatztafel-Anhänger.svg"
   inkscape:version="1.1.2 (b8e25be833, 2022-02-05)"
   xmlns:inkscape="http://www.inkscape.org/namespaces/inkscape"
   xmlns:sodipodi="http://sodipodi.sourceforge.net/DTD/sodipodi-0.dtd"
   xmlns="http://www.w3.org/2000/svg"
   xmlns:svg="http://www.w3.org/2000/svg">
  <sodipodi:namedview
     id="namedview10"
     pagecolor="#ffffff"
     bordercolor="#666666"
     borderopacity="1.0"
     inkscape:pageshadow="2"
     inkscape:pageopacity="0.0"
     inkscape:pagecheckerboard="0"
     showgrid="false"
     inkscape:snap-intersection-paths="true"
     inkscape:snap-smooth-nodes="true"
     inkscape:snap-bbox="true"
     inkscape:bbox-nodes="true"
     inkscape:snap-bbox-edge-midpoints="true"
     showguides="true"
     inkscape:guide-bbox="true"
     inkscape:zoom="11.313709"
     inkscape:cx="52.458484"
     inkscape:cy="33.101436"
     inkscape:window-width="1920"
     inkscape:window-height="1001"
     inkscape:window-x="-9"
     inkscape:window-y="-9"
     inkscape:window-maximized="1"
     inkscape:current-layer="svg1887" />
  <defs
     id="defs1889" />
  <g
     transform="translate(-269.8048,-403.215)"
     id="layer1">
    <g
       transform="matrix(1.249992,0,0,-1.249992,-56.35566,951.9615)"
       style="font-style:normal;font-variant:normal;font-weight:normal;font-stretch:normal;letter-spacing:normal;word-spacing:normal;text-anchor:start;fill:none;fill-opacity:1;stroke:#000000;stroke-linecap:butt;stroke-linejoin:miter;stroke-miterlimit:10.433;stroke-dasharray:none;stroke-dashoffset:0;stroke-opacity:1"
       id="g10"
       xml:space="preserve">
<path
   d="m 260.93,421.97 h 13.1 l -0.02,17.02 58.03,0.01 0.06,-18.77 h -16.49 v 0 c 0,0.09 0,0.18 -0.01,0.25 -0.44,6.41 -6.01,11.14 -12.44,11.16 -6.45,0.02 -12.07,-4.69 -12.55,-11.13 0,-0.08 0,-0.19 -0.01,-0.28 v 0 h -29.67 z"
   style="fill:#000000;fill-rule:nonzero;stroke-width:0"
   id="path12" />
<path
   d="m 293.54,419.09 h -1.76 v 0 c 0,0.42 0,1.03 0.04,1.44 0.54,5.73 5.51,9.93 11.25,9.93 5.74,0 10.57,-4.28 11.31,-9.97 0.05,-0.41 0.07,-0.99 0.09,-1.4 v 0 h -1.79 v 0 c -0.03,0.41 -0.06,0.99 -0.13,1.39 -0.73,4.67 -4.71,8.17 -9.44,8.19 -4.76,0.01 -8.88,-3.42 -9.49,-8.14 -0.05,-0.41 -0.08,-1.02 -0.08,-1.44 z"
   style="fill:#000000;fill-rule:nonzero;stroke-width:0"
   id="path14" />


</g>
  </g>
  <path
     id="path894"
     style="display:inline;fill:#000000;fill-opacity:1;stroke-width:0.99911"
     d="M 52.724609,14.425781 A 10.487484,10.4875 0 0 0 42.236328,24.912109 10.487484,10.4875 0 0 0 52.724609,35.400391 10.487484,10.4875 0 0 0 63.212891,24.912109 10.487484,10.4875 0 0 0 52.724609,14.425781 Z m 0,6.986328 a 3.5000391,3.5000443 0 0 1 3.5,3.5 3.5000391,3.5000443 0 0 1 -3.5,3.5 3.5000391,3.5000443 0 0 1 -3.5,-3.5 3.5000391,3.5000443 0 0 1 3.5,-3.5 z" />
</svg>
