<?xml version="1.0" encoding="UTF-8" standalone="no"?>
<svg
   version="1.0"
   width="73.249535"
   height="35.437275"
   id="svg1893"
   sodipodi:docname="CH-Zusatztafel-Lastwagen.svg"
   inkscape:version="1.1.2 (b8e25be833, 2022-02-05)"
   xmlns:inkscape="http://www.inkscape.org/namespaces/inkscape"
   xmlns:sodipodi="http://sodipodi.sourceforge.net/DTD/sodipodi-0.dtd"
   xmlns="http://www.w3.org/2000/svg"
   xmlns:svg="http://www.w3.org/2000/svg">
  <sodipodi:namedview
     id="namedview13"
     pagecolor="#ffffff"
     bordercolor="#666666"
     borderopacity="1.0"
     inkscape:pageshadow="2"
     inkscape:pageopacity="0.0"
     inkscape:pagecheckerboard="0"
     showgrid="false"
     showguides="true"
     inkscape:guide-bbox="true"
     inkscape:snap-intersection-paths="true"
     inkscape:snap-smooth-nodes="true"
     inkscape:snap-bbox="true"
     inkscape:bbox-nodes="true"
     inkscape:snap-bbox-edge-midpoints="true"
     inkscape:zoom="11.313709"
     inkscape:cx="42.117048"
     inkscape:cy="23.378718"
     inkscape:window-width="1920"
     inkscape:window-height="1001"
     inkscape:window-x="-9"
     inkscape:window-y="-9"
     inkscape:window-maximized="1"
     inkscape:current-layer="svg1893" />
  <defs
     id="defs1895" />
  <g
     transform="translate(-257.661,-368.9292)"
     id="layer1">
    <g
       transform="matrix(1.249992,0,0,-1.249992,-76.36191,917.6757)"
       style="font-style:normal;font-variant:normal;font-weight:normal;font-stretch:normal;letter-spacing:normal;word-spacing:normal;text-anchor:start;fill:none;fill-opacity:1;stroke:#000000;stroke-linecap:butt;stroke-linejoin:miter;stroke-miterlimit:10.433;stroke-dasharray:none;stroke-dashoffset:0;stroke-opacity:1"
       id="g10"
       xml:space="preserve">


<path
   id="path16"
   style="fill:#000000;fill-rule:nonzero;stroke-width:0"
   d="M 73.25,0 21.412109,4.3278129e-7 V 21.962891 l 28.97461,0.08789 -1.074219,1.16211 -28.886719,-0.08789 V 7.2871104 h -8.726562 c -1.53749,0 -3.3375037,1.2628975 -3.8750002,2.3378906 L 5.125,15.386719 4.0507812,15.474609 c -0.087499,0 -0.8132835,0.187112 -1.1757812,0.53711 -0.2749982,0.274998 -0.4492188,0.725393 -0.4492188,1.08789 l -0.9003906,8.72461 H 0.625 C 0.45000112,25.824219 0.17539006,25.825001 0.08789062,26 3.91185e-4,26.099999 0,26.549219 0,26.636719 v 0.8125 c 0,0.0875 7.8237e-4,0.364063 0.17578125,0.539062 C 0.35078013,28.17578 0.53750056,28.174219 0.625,28.261719 L 0.5371094,29.150391 H 4.3125 v -0.451172 c 0.1874988,-4.037474 3.6004165,-7.28711 7.650391,-7.28711 4.149973,0 7.73789,3.149636 7.65039,7.28711 V 29.0625 l 29.236328,0.08789 c 0.1,-0.0875 0.09961,-0.263673 0.09961,-0.451172 0.362497,-4.137474 3.776199,-7.636328 8.013672,-7.548828 4.224973,0 7.461721,3.599245 7.824218,7.824218 V 29.25 h 1.625 c 0,-0.1 -0.09961,-1.437891 -0.09961,-1.525391 L 72.349609,25.5625 V 23.212891 L 64.0625,23.037109 63.162109,21.863281 H 73.25 Z M 8.8125,9.7128906 h 1.974609 L 8.1757812,15.474609 H 6.2871094 Z m 3.6875,0 4.587891,0.099609 v 5.6621094 l -7.2871098,-0.08789 z"
   transform="matrix(0.80000512,0,0,-0.80000512,267.22004,439.00001)"
   sodipodi:nodetypes="cccccccsccccccscsscccccsccccccccccccccccccccccccc" />




</g>
  </g>
  <path
     id="path1939"
     style="display:inline;fill:#000000;fill-opacity:1"
     d="M 11.957031 22.662109 A 6.2950144 6.2949991 0 0 0 5.6621094 28.957031 A 6.2950144 6.2949991 0 0 0 11.957031 35.251953 A 6.2950144 6.2949991 0 0 0 18.251953 28.957031 A 6.2950144 6.2949991 0 0 0 11.957031 22.662109 z M 11.957031 26.449219 A 2.5075302 2.5075243 0 0 1 14.464844 28.957031 A 2.5075302 2.5075243 0 0 1 11.957031 31.464844 A 2.5075302 2.5075243 0 0 1 9.4492188 28.957031 A 2.5075302 2.5075243 0 0 1 11.957031 26.449219 z " />
  <path
     id="path3107"
     style="display:inline;fill:#000000;fill-opacity:1"
     d="m 56.757051,22.662366 a 6.2950144,6.2949991 0 0 0 -6.294922,6.294922 6.2950144,6.2949991 0 0 0 6.294922,6.294922 6.2950144,6.2949991 0 0 0 6.294922,-6.294922 6.2950144,6.2949991 0 0 0 -6.294922,-6.294922 z m 0,3.78711 a 2.5075302,2.5075243 0 0 1 2.507813,2.507812 2.5075302,2.5075243 0 0 1 -2.507813,2.507813 2.5075302,2.5075243 0 0 1 -2.507813,-2.507813 2.5075302,2.5075243 0 0 1 2.507813,-2.507812 z" />
</svg>
