<?xml version="1.0" encoding="UTF-8" standalone="no"?>
<!DOCTYPE svg PUBLIC "-//W3C//DTD SVG 1.0//EN" "http://www.w3.org/TR/2001/REC-SVG-20010904/DTD/svg10.dtd">
<svg
   xmlns:svg="http://www.w3.org/2000/svg"
   xmlns="http://www.w3.org/2000/svg"
   version="1.0"
   width="65.087082"
   height="35.431282"
   id="svg1893">
  <defs
     id="defs1895" />
  <g
     transform="translate(-284.5993,-388.9323)"
     id="layer1">
    <g
       transform="matrix(1.249992,0,0,-1.249992,-53.49852,937.3978)"
       style="font-style:normal;font-variant:normal;font-weight:normal;font-stretch:normal;letter-spacing:normal;word-spacing:normal;text-anchor:start;fill:none;fill-opacity:1;stroke:black;stroke-linecap:butt;stroke-linejoin:miter;stroke-miterlimit:10.43299961;stroke-dasharray:none;stroke-dashoffset:0;stroke-opacity:1"
       id="g10"
       xml:space="preserve">
<path
   d="M 271.62,421.83 L 271.27,422.22 L 271.27,422.22 C 270.76,422.77 273.88,424.5 275.24,424.98 C 276.21,425.31 278.74,425.76 279.29,425.76 L 279.29,425.76 L 279.29,427.28 L 279.29,427.28 C 279.29,427.35 279.29,427.64 279.43,427.79 C 279.57,427.93 279.9,427.88 280.01,427.86 C 280.22,427.81 280.73,427.64 280.73,427.64 C 280.8,427.71 280.95,427.86 281.02,427.93 C 281.16,428.07 282.18,428.72 282.61,428.8 C 283.4,428.87 284.05,428.72 284.77,428.51 L 284.77,428.51 L 285.64,428.22 L 285.64,428.22 C 285.94,428.12 286.57,428.66 286.87,428.65 C 287.4,428.63 289.96,427.76 289.83,428.28 L 289.83,428.28 L 289.4,429.95 L 289.4,429.95 C 289.33,430.2 288.94,431.7 288.75,431.83 C 288.69,431.87 288.55,431.81 288.45,431.74 C 288.19,431.55 287.71,431.61 287.64,431.89 C 287.59,432.11 287.5,432.34 287.38,432.48 C 287.25,432.62 286.51,432.75 286.29,432.77 C 286.18,432.78 286.05,432.87 286.07,432.98 C 286.13,433.27 286.22,433.56 286,433.93 L 286,433.93 L 285.5,434.93 L 285.5,434.93 C 285.35,435.15 285.35,435.51 285.35,435.73 C 285.35,436.02 285.35,436.31 285.43,436.6 C 285.64,437.97 287.09,438.69 288.24,438.76 C 289.18,438.84 290.84,438.69 291.49,436.16 C 291.57,435.88 291.57,435.44 291.57,435.22 C 291.69,435.22 294.13,435.09 294.96,434.79 C 295.93,434.43 299.05,432.08 300.59,430.53 C 301.62,429.76 303.55,428.08 304.64,426.63 C 304.87,426.16 305.16,425.62 305.06,424.83 C 305.03,424.63 304.79,423.67 304.57,423.45 L 304.57,423.45 L 307.31,421.64 L 309.12,423.81 L 309.12,423.81 C 309.34,424.03 309.36,424.31 309.29,424.49 C 309.18,424.77 308.76,424.82 308.32,424.97 L 308.32,424.97 L 306.52,425.62 L 306.52,425.62 C 306.45,425.69 305.9,425.8 305.99,426.41 C 306.05,426.82 306.43,426.99 306.59,426.99 L 306.59,426.99 L 317.86,427.21 L 319.38,427.13 L 319.38,427.13 C 319.56,427.12 319.82,426.9 319.95,426.6 C 320.12,426.16 319.98,425.79 319.86,425.66 L 319.86,425.66 L 318.97,424.72 L 318.97,424.72 C 318.93,424.49 319.02,424.37 319.16,424.25 C 319.26,424.15 320.92,422.75 321.32,421.93 C 321.47,421.72 321.48,420.9 321.68,420.91 C 322.13,420.93 322.55,420.63 322.55,420.27 L 322.55,420.27 L 322.55,415.43 L 322.55,415.43 C 322.55,415.36 322.54,415.17 322.48,415.07 C 322.41,414.94 322.1,414.87 321.89,414.88 C 321.48,414.89 321.18,415.07 321.11,415.07 C 321.11,415 319.81,410.49 314.54,410.45 C 308.24,410.4 307.17,416.3 307.17,416.3 L 307.17,416.3 L 301.09,413.86 L 290.48,413.85 L 290.48,413.85 C 290.27,413.85 289.12,413.82 288.95,414.59 C 288.83,415.16 289.69,415.94 289.76,416.01 L 289.76,416.01 L 287.23,419.41 L 287.23,419.41 C 287.23,419.41 287.01,419.84 286.65,419.7 C 286.36,419.62 286.36,419.19 286.36,419.19 L 286.36,419.19 L 286.34,417.1 L 286.34,417.1 C 286.34,417.02 286.34,416.69 286.15,416.52 C 285.91,416.3 285.44,416.45 285.23,416.45 C 284.56,413.02 281.54,410.43 277.92,410.43 C 273.81,410.43 270.48,413.76 270.48,417.87 C 270.48,419.32 270.9,420.68 271.62,421.83 z "
   style="fill:black;fill-rule:nonzero;stroke-width:0"
   id="path12" />
<path
   d="M 290.4,418.31 L 288.45,421.41 L 288.45,421.41 C 288.23,421.92 288.23,422.57 288.59,423 C 288.88,423.29 289.39,423.29 289.82,422.86 C 290.4,422.28 290.61,421.12 290.61,420.62 C 290.61,420.04 290.4,419.1 290.4,418.31 z "
   style="fill:white;fill-rule:nonzero;stroke:white;stroke-width:0"
   id="path14" />
<path
   d="M 300.65,417.37 L 298.63,417.59 L 298.63,417.59 C 298.63,417.59 299.42,419.04 300.14,419.75 C 300.72,420.33 301.59,420.91 302.17,421.27 L 302.17,421.27 L 300.65,417.37 z "
   style="fill:white;fill-rule:nonzero;stroke:white;stroke-width:0"
   id="path16" />
<path
   d="M 287.8,425.4 L 283.25,425.4 L 283.25,425.4 C 283.25,425.4 283.89,426.85 285.2,426.77 C 285.63,426.77 285.92,426.85 286.5,426.48 C 287.01,426.12 287.44,425.76 287.8,425.4 z "
   style="fill:white;fill-rule:nonzero;stroke:white;stroke-width:0"
   id="path18" />
<path
   d="M 279.38,418.69 L 280.23,419.95 L 280.23,419.95 C 280.79,419.38 281.14,418.61 281.14,417.73 C 281.14,415.98 279.71,414.55 277.96,414.55 C 276.2,414.55 274.77,415.98 274.77,417.73 C 274.77,419.45 276.12,420.84 277.82,420.91 L 277.82,420.91 L 277.89,419.46 L 277.89,419.46 C 276.97,419.43 276.23,418.68 276.23,417.75 C 276.23,416.8 277,416.03 277.95,416.03 C 278.89,416.03 279.66,416.8 279.66,417.75 C 279.66,418.09 279.56,418.42 279.38,418.69 z "
   style="fill:white;fill-rule:nonzero;stroke:white;stroke-width:0"
   id="path20" />
<path
   d="M 315.92,417.07 L 317.2,416.44 L 317.2,416.44 C 316.71,415.31 315.59,414.52 314.28,414.52 C 312.53,414.52 311.11,415.95 311.11,417.7 C 311.11,418.27 311.27,418.81 311.54,419.28 L 311.54,419.28 L 312.84,418.64 L 312.84,418.64 C 312.66,418.36 312.55,418.03 312.55,417.68 C 312.55,416.71 313.33,415.94 314.29,415.94 C 315.04,415.94 315.68,416.41 315.92,417.07 z "
   style="fill:white;fill-rule:nonzero;stroke:white;stroke-width:0"
   id="path22" />
<path
   d="M 317.3,418.69 L 315.91,418.3 L 315.91,418.3 C 315.66,418.95 315.03,419.42 314.29,419.42 C 314.13,419.42 313.97,419.39 313.82,419.36 L 313.82,419.36 L 313.28,420.71 L 313.28,420.71 C 313.59,420.81 313.93,420.87 314.28,420.87 C 315.69,420.87 316.88,419.95 317.3,418.69 z "
   style="fill:white;fill-rule:nonzero;stroke:white;stroke-width:0"
   id="path24" />
</g>  </g>
</svg>
