<?xml version="1.0" encoding="UTF-8" standalone="no"?>
<!-- Created with Inkscape (http://www.inkscape.org/) -->

<svg
   width="28.010141mm"
   height="13.91741mm"
   viewBox="0 0 28.010141 13.91741"
   version="1.1"
   id="svg47397"
   inkscape:version="1.2.1 (9c6d41e410, 2022-07-14)"
   sodipodi:docname="Segnale stradale svizzero - covetturaggio.svg"
   xmlns:inkscape="http://www.inkscape.org/namespaces/inkscape"
   xmlns:sodipodi="http://sodipodi.sourceforge.net/DTD/sodipodi-0.dtd"
   xmlns="http://www.w3.org/2000/svg"
   xmlns:svg="http://www.w3.org/2000/svg">
  <sodipodi:namedview
     id="namedview47399"
     pagecolor="#ffffff"
     bordercolor="#000000"
     borderopacity="0.25"
     inkscape:showpageshadow="2"
     inkscape:pageopacity="0.0"
     inkscape:pagecheckerboard="0"
     inkscape:deskcolor="#d1d1d1"
     inkscape:document-units="mm"
     showgrid="false"
     inkscape:zoom="0.76257015"
     inkscape:cx="-129.16845"
     inkscape:cy="-36.062256"
     inkscape:window-width="1920"
     inkscape:window-height="991"
     inkscape:window-x="-9"
     inkscape:window-y="-9"
     inkscape:window-maximized="1"
     inkscape:current-layer="layer1" />
  <defs
     id="defs47394" />
  <g
     inkscape:label="Livello 1"
     inkscape:groupmode="layer"
     id="layer1"
     transform="translate(-139.35241,-124.88708)">
    <g
       id="g35344"
       transform="translate(89.219597,-109.92718)">
      <circle
         style="fill:#000000;fill-opacity:1;stroke:none;stroke-width:1.02691;stroke-dasharray:none;stroke-opacity:1;paint-order:fill markers stroke"
         id="path25103-6"
         cx="61.511543"
         cy="237.23242"
         r="0.99751747" />
      <path
         style="fill:#000000;fill-opacity:1;stroke:none;stroke-width:0.714375;stroke-dasharray:none;stroke-opacity:1;paint-order:fill markers stroke"
         d="m 60.015179,239.06648 2.99773,-1e-4 c -0.445213,-0.69671 -2.603939,-0.68196 -2.99773,1e-4 z"
         id="path25263-90"
         sodipodi:nodetypes="ccc" />
      <path
         id="path25459"
         style="color:#000000;fill:#000000;paint-order:fill markers stroke"
         d="m 55.528862,243.37748 -5.396053,5.35419 h 1.125513 l 4.27054,-4.23591 z" />
      <path
         id="rect25495"
         style="fill:#000000;fill-opacity:1;stroke:none;stroke-width:0.825051;stroke-dasharray:none;stroke-opacity:1;paint-order:fill markers stroke"
         d="m 56.52636,245.15368 v 1.36116 c 0,0.24919 0.200918,0.44959 0.450102,0.44959 h 1.463993 c 0.249185,0 0.449585,-0.2004 0.449585,-0.44959 l 5.17e-4,-1.36116 z"
         sodipodi:nodetypes="ccssccc" />
      <path
         id="path24992-5"
         style="fill:#000000;fill-opacity:1;stroke:none;stroke-width:0.740833;stroke-dasharray:none;stroke-opacity:1;paint-order:fill markers stroke"
         d="m 63.939345,234.81426 c -1.222257,0.0337 -2.741122,0.062 -3.587895,0.15452 h -0.0021 l -0.0021,0.002 c -0.658738,0.0807 -1.067057,0.46356 -1.326017,0.91209 l -0.0062,0.01 -1.586466,3.20032 c -0.30241,0.56343 -1.607654,0.98583 -1.607654,1.87121 v 3.72535 c 0,0.20818 0.08377,0.26458 0.264583,0.26458 H 72.18994 c 0.180813,0 0.264583,-0.0564 0.264583,-0.26458 v -3.72535 c 0,-0.88538 -1.305244,-1.30778 -1.607654,-1.87121 l -1.586466,-3.20032 -0.0062,-0.01 c -0.258961,-0.44853 -0.667281,-0.83139 -1.326018,-0.91209 l -0.0021,-0.002 h -0.0021 c -0.846779,-0.0925 -2.365636,-0.12082 -3.587894,-0.15452 l -0.0057,5.2e-4 h -0.192753 -0.192753 z m 0.01912,0.71314 -0.0098,0.002 h 0.189136 0.189136 l -0.0098,-0.002 c 1.225029,0.0338 2.755811,0.0687 3.52485,0.15244 0.469037,0.0575 0.580831,0.19554 0.790649,0.55863 l 0.0026,0.002 1.51412,3.05511 H 58.126263 l 1.514119,-3.05511 0.0026,-0.002 c 0.209818,-0.36309 0.321613,-0.50115 0.790649,-0.55863 0.769041,-0.0837 2.29982,-0.11862 3.52485,-0.15244 z"
         sodipodi:nodetypes="cccccccssccsscccccccccccccccccccccccccc" />
      <rect
         style="fill:#ffffff;fill-opacity:1;stroke:none;stroke-width:0.79375;stroke-dasharray:none;stroke-opacity:1;paint-order:fill markers stroke"
         id="rect30421-1"
         width="1.0625731"
         height="2.4504235"
         x="56.953629"
         y="240.27022"
         rx="0.3175"
         ry="0.3175" />
      <g
         id="g33847"
         transform="matrix(-1,0,0,1,168.01152,-13.931381)">
        <circle
           style="fill:#000000;fill-opacity:1;stroke:none;stroke-width:1.02691;stroke-dasharray:none;stroke-opacity:1;paint-order:fill markers stroke"
           id="path25103-6-9"
           cx="101.24731"
           cy="251.16376"
           r="0.99751747" />
        <path
           style="fill:#000000;fill-opacity:1;stroke:none;stroke-width:0.714375;stroke-dasharray:none;stroke-opacity:1;paint-order:fill markers stroke"
           d="m 99.75094,252.99781 2.99773,-10e-5 c -0.44521,-0.69671 -2.60394,-0.68196 -2.99773,10e-5 z"
           id="path25263-90-2"
           sodipodi:nodetypes="ccc" />
        <path
           id="rect25495-2"
           style="fill:#000000;fill-opacity:1;stroke:none;stroke-width:0.825051;stroke-dasharray:none;stroke-opacity:1;paint-order:fill markers stroke"
           d="m 96.262121,259.08501 v 1.36116 c 0,0.24919 0.200918,0.44959 0.450102,0.44959 h 1.463993 c 0.249185,0 0.449585,-0.2004 0.449585,-0.44959 l 5.17e-4,-1.36116 z"
           sodipodi:nodetypes="ccssccc" />
        <rect
           style="fill:#ffffff;fill-opacity:1;stroke:none;stroke-width:0.79375;stroke-dasharray:none;stroke-opacity:1;paint-order:fill markers stroke"
           id="rect30421-1-3"
           width="1.0625731"
           height="2.4504235"
           x="96.689392"
           y="254.20155"
           rx="0.3175"
           ry="0.3175" />
        <path
           id="path25459-7"
           style="color:#000000;fill:#000000;paint-order:fill markers stroke"
           d="m 95.264622,257.30882 -5.396053,5.35419 h 1.125513 l 4.27054,-4.23591 z" />
      </g>
      <path
         id="rect30445"
         style="fill:#ffffff;fill-opacity:1;stroke:none;stroke-width:0.79375;stroke-dasharray:none;stroke-opacity:1;paint-order:fill markers stroke"
         d="m 65.619131,241.08086 v 1.14928 h -1.148767 v 0.56379 h 1.148767 v 1.14928 h 0.56379 v -1.14928 h 1.149801 v -0.56379 h -1.149801 v -1.14928 z" />
      <path
         fill="#ffffff"
         d="m 61.920527,241.7338 h 0.281427 c 0.195764,0.003 0.385777,-0.0405 0.570041,-0.13137 0.08653,-0.0437 0.158106,-0.10343 0.215311,-0.17938 0.05376,-0.0725 0.08078,-0.16586 0.08078,-0.28056 -0.0035,-0.20727 -0.07187,-0.35531 -0.205537,-0.44471 -0.130509,-0.0825 -0.291201,-0.1239 -0.482077,-0.1239 -0.153506,0 -0.295225,0.017 -0.425734,0.0506 -0.130509,0.0388 -0.24722,0.0877 -0.349844,0.1466 l -0.02932,-0.46109 c 0.259292,-0.10148 0.551069,-0.15552 0.875616,-0.16212 0.321097,0 0.590164,0.0776 0.807198,0.23256 0.22336,0.15838 0.336621,0.40848 0.34007,0.75027 -0.0035,0.22738 -0.07675,0.41022 -0.219909,0.5482 -0.146608,0.14142 -0.32311,0.23342 -0.529796,0.27539 v 0.01 c 0.236582,0.0437 0.426883,0.13798 0.570328,0.28286 0.13712,0.14977 0.207262,0.35358 0.210711,0.61144 -0.0066,0.40446 -0.148619,0.67726 -0.425734,0.81899 -0.273953,0.14142 -0.591026,0.21041 -0.951506,0.20725 -0.296951,-0.009 -0.564292,-0.0557 -0.802312,-0.14172 l 0.03191,-0.48093 c 0.09285,0.0486 0.206399,0.0912 0.340357,0.12822 0.133958,0.0451 0.275965,0.0678 0.426022,0.0678 0.203811,0.003 0.394975,-0.0435 0.572915,-0.14086 0.179665,-0.0922 0.272516,-0.25008 0.279128,-0.47316 -0.0035,-0.26505 -0.09142,-0.44729 -0.264467,-0.54618 -0.171328,-0.0954 -0.373991,-0.14172 -0.607411,-0.13827 H 61.92082 v -0.42603 z"
         id="path31714"
         style="stroke-width:0.287464" />
    </g>
  </g>
</svg>
