<?xml version="1.0" encoding="UTF-8" standalone="no"?>
<!-- Created with Inkscape (http://www.inkscape.org/) -->

<svg
   width="36.770027mm"
   height="13.80534mm"
   viewBox="0 0 36.770027 13.80534"
   version="1.1"
   id="svg45344"
   inkscape:version="1.2.1 (9c6d41e410, 2022-07-14)"
   sodipodi:docname="Segnale stradale svizzero - stazione di ricarica.svg"
   xmlns:inkscape="http://www.inkscape.org/namespaces/inkscape"
   xmlns:sodipodi="http://sodipodi.sourceforge.net/DTD/sodipodi-0.dtd"
   xmlns="http://www.w3.org/2000/svg"
   xmlns:svg="http://www.w3.org/2000/svg">
  <sodipodi:namedview
     id="namedview45346"
     pagecolor="#ffffff"
     bordercolor="#000000"
     borderopacity="0.25"
     inkscape:showpageshadow="2"
     inkscape:pageopacity="0.0"
     inkscape:pagecheckerboard="0"
     inkscape:deskcolor="#d1d1d1"
     inkscape:document-units="mm"
     showgrid="false"
     inkscape:zoom="0.76257015"
     inkscape:cx="176.37722"
     inkscape:cy="-192.11347"
     inkscape:window-width="1920"
     inkscape:window-height="991"
     inkscape:window-x="-9"
     inkscape:window-y="-9"
     inkscape:window-maximized="1"
     inkscape:current-layer="layer1" />
  <defs
     id="defs45341">
    <clipPath
       clipPathUnits="userSpaceOnUse"
       id="clipPath9542">
      <path
         d="m 184.32,116.88 h 104.23 v 39.24 H 184.32 Z"
         clip-rule="evenodd"
         id="path9540" />
    </clipPath>
    <clipPath
       clipPathUnits="userSpaceOnUse"
       id="clipPath9552">
      <path
         d="M 0,0 H 485.64 V 183.93 H 0 Z"
         id="path9550" />
    </clipPath>
  </defs>
  <g
     inkscape:label="Livello 1"
     inkscape:groupmode="layer"
     id="layer1"
     transform="translate(-58.640688,-83.654565)">
    <g
       id="g9536"
       transform="matrix(0.35277777,0,0,-0.35277777,-6.383311,138.73023)">
      <g
         id="g9538"
         clip-path="url(#clipPath9542)">
        <g
           id="g9544"
           transform="matrix(1.4479,-1.88e-7,-1.88e-7,0.54514,184.3,116.88)">
          <g
             id="g9546"
             transform="scale(0.14826,0.39144)">
            <g
               id="g9548"
               clip-path="url(#clipPath9552)">
              <g
                 id="g9554">
                <g
                   id="g9556">
                  <g
                     id="g9558" />
                </g>
                <path
                   d="m 475.52,98.5 v 0 l -73.29,42.25 v 0 0 l -6.25,3.75 -6.25,3.5 -6.26,3.5 -6.5,3.5 -6.5,3 -6.51,3.25 -6.75,2.75 -6.75,3 -6.76,2.5 -7,2.5 -7,2.5 -7.01,2.25 -7.25,2 -7,2 -7.26,1.75 -7.25,1.75 H 172.11 v 0 l -2.25,-0.25 -2,-0.25 -2,-0.5 -2,-0.75 -2,-1 -1.75,-1 -1.5,-1.25 -1.5,-1.5 v 0 l -7.01,-8 -6.5,-8.25 -6,-9 -5.76,-9.25 v 0 l -2.75,-5 -2.75,-5 -2.5,-5 -2.25,-5.25 -2.25,-5.25 -2,-5.25 -1.75,-5.25 -1.75,-5.25 h 11.75 v 0 l 3.25,9.25 3.75,9 4.26,9 4.5,8.5 v 0 l 5.25,8.5 5.75,8.25 6.26,8 6.5,7.75 v 0 l 1.5,1.25 1.75,0.75 1.75,0.75 2,0.25 h 120.57 v 0 l 13.75,-3.5 13.51,-3.75 13.26,-4.5 13.25,-5 12.76,-5.5 12.76,-6 12.5,-6.5 12.01,-7 17.01,-9.75 47.02,-27.25 V 94.25 L 470.02,89 v 0 l 1.25,-0.75 1,-1 0.75,-1 0.75,-1.25 0.75,-1.25 0.25,-1.25 0.25,-1.5 v -1.5 l -3,-35 h -20.01 l -1.5,-9.5 v 0 l -0.5,-2.5 -0.75,-2.25 -0.75,-2.25 -1.25,-2.25 -1.25,-2 -1.25,-2 L 443,20 441.25,18.25 439.5,17 l -2.25,-1.5 -2,-1 -2.25,-1 -2.25,-0.75 -2.5,-0.5 -2.5,-0.5 h -2.51 v 0 h -2.5 l -2.25,0.5 -2.5,0.5 -2.25,0.75 -2.25,1 -2.25,1 -2,1.5 -1.75,1.25 -1.76,1.75 -1.75,1.75 -1.25,2 -1.5,2 -1,2.25 -1,2.25 -0.5,2.25 -0.5,2.5 -1.5,9.5 H 190.87 l -1.5,-9.25 v 0 l -0.75,-2.5 -0.5,-2.25 -1,-2.25 -1.25,-2.25 -1.25,-2 -1.25,-1.75 -1.75,-1.75 -1.75,-1.75 -1.75,-1.5 -2,-1.25 -2.25,-1 -2.01,-1 -2.5,-0.75 -2.25,-0.5 -2.5,-0.25 -2.5,-0.25 v 0 l -2.5,0.25 -2.5,0.25 -2.25,0.5 -2.26,0.75 -2.25,1 -2.25,1 -2,1.25 -1.75,1.5 -1.75,1.75 -1.5,1.75 -1.5,1.75 -1.25,2 -1.25,2.25 -0.75,2.25 -0.75,2.25 -0.5,2.5 -6.76,39.5 v 0 l -1,3.25 -1.25,3 -1.75,2.5 -2.25,2.25 -2.5,1.75 -3,1.25 -3.01,1 -3.25,0.25 H 82.819 v 7 0 l -0.25,2.75 -1.001,2.75 -1.25,2.25 -1.751,2 -2.001,1.75 -2.251,1.25 -2.752,1 -2.751,0.25 H 26.54 v -7.25 H 5.2792 v 0 H 4.0285 L 3.2781,103.25 2.2776,103 1.5272,102.25 0.77685,101.5 l -0.50026,-1 -0.250127,-1 v -1 0 -1 l 0.250127,-1 0.50026,-1 0.75035,-0.75 0.7504,-0.5 1.0005,-0.5 0.7504,-0.25 1.2507,-0.25 H 26.54 V 75.5 H 5.2792 v 0 H 4.0285 L 3.2781,75 2.2776,74.75 1.5272,74 0.77685,73.25 l -0.50026,-1 -0.250127,-1 v -1 0 -1 l 0.250127,-1 0.50026,-1 L 1.5272,66.5 2.2776,66 3.2781,65.5 4.0285,65.25 5.2792,65 H 26.54 v -7.25 h 42.272 v 0 l 2.751,0.5 2.752,0.75 2.251,1.25 2.001,1.75 1.751,2 1.25,2.5 1.001,2.5 0.25,3 v 6.75 h 27.511 v 0 h 1.25 l 1.25,-0.25 1.01,-0.5 1,-0.75 1,-1 0.5,-1 0.75,-1 0.25,-1.25 6.75,-39.5 v 0 0 0 0 0 l 0.75,-3.5 1,-3.25 1.25,-3 1.5,-3 1.75,-3 2,-2.5 2.26,-2.5 2.5,-2.25 2.5,-1.9997 3,-2 2.75,-1.5 3.25,-1.25 3.25,-1 3.26,-1 3.5,-0.25 3.5,-0.25 v 0 l 3.5,0.25 3.5,0.25 3.26,1 3.25,1 3.25,1.25 3,1.5 2.75,2 2.5,1.9997 2.5,2.25 2.26,2.5 2,2.5 1.75,3 1.5,3 1.25,3 1,3.25 0.75,3.5 h 7.25 170.84 7 v 0 l 0.75,-3.5 0.76,-3.25 1.25,-3.25 1.75,-3 1.75,-3 2,-2.75 2.25,-2.5 2.25,-2.25 2.75,-1.9997 2.75,-2 3.01,-1.5 3.25,-1.5 3.25,-1 3.25,-0.75 3.5,-0.49998 3.5,-0.25 v 0 l 3.76,0.25 3.5,0.49998 3.25,0.75 3.25,1 3.25,1.5 3,1.5 2.76,2 2.75,1.9997 2.25,2.25 2.25,2.5 2,2.75 1.75,3 1.5,3 1.25,3.25 1,3.25 0.75,3.5 h 7.01 1.5 2.5 v 0 h 2 l 2,0.75 1.75,1 1.75,1.25 1.25,1.5 1,1.75 0.5,2 0.25,2 3.01,34.75 v 0 0 0 3 l -0.25,3.25 -1,2.75 -1.25,2.75 -1.51,2.5 -1.75,2.25 -2.25,2 z"
                   style="fill:#000000;fill-opacity:1;fill-rule:nonzero;stroke:none"
                   id="path9560" />
              </g>
            </g>
          </g>
        </g>
      </g>
    </g>
  </g>
</svg>
