<?xml version="1.0" encoding="UTF-8" standalone="no"?>
<svg
   version="1.0"
   width="100.48685"
   height="35.434288"
   id="svg1901"
   sodipodi:docname="CH-Zusatztafel-Leichte_Motorwagen.svg"
   inkscape:version="1.1.2 (b8e25be833, 2022-02-05)"
   xmlns:inkscape="http://www.inkscape.org/namespaces/inkscape"
   xmlns:sodipodi="http://sodipodi.sourceforge.net/DTD/sodipodi-0.dtd"
   xmlns="http://www.w3.org/2000/svg"
   xmlns:svg="http://www.w3.org/2000/svg">
  <sodipodi:namedview
     id="namedview17"
     pagecolor="#ffffff"
     bordercolor="#666666"
     borderopacity="1.0"
     inkscape:pageshadow="2"
     inkscape:pageopacity="0.0"
     inkscape:pagecheckerboard="true"
     showgrid="false"
     showguides="true"
     inkscape:guide-bbox="true"
     inkscape:snap-intersection-paths="true"
     inkscape:snap-smooth-nodes="true"
     inkscape:snap-bbox="true"
     inkscape:snap-bbox-edge-midpoints="true"
     inkscape:bbox-nodes="true"
     inkscape:zoom="8"
     inkscape:cx="52.0625"
     inkscape:cy="35.1875"
     inkscape:window-width="1920"
     inkscape:window-height="1001"
     inkscape:window-x="-9"
     inkscape:window-y="-9"
     inkscape:window-maximized="1"
     inkscape:current-layer="svg1901" />
  <defs
     id="defs1903" />
  <g
     transform="translate(-346.8994,-511.7876)"
     id="layer1">
    <g
       transform="matrix(1.249992,0,0,-1.249992,26.50148,1060.456)"
       style="font-style:normal;font-variant:normal;font-weight:normal;font-stretch:normal;letter-spacing:normal;word-spacing:normal;text-anchor:start;fill:none;fill-opacity:1;stroke:#000000;stroke-linecap:butt;stroke-linejoin:miter;stroke-miterlimit:10.433;stroke-dasharray:none;stroke-dashoffset:0;stroke-opacity:1"
       id="g10"
       xml:space="preserve">
<path
   id="path12"
   style="fill:#000000;fill-rule:nonzero;stroke-width:0"
   d="m 55.599609,0 c -0.971868,0 -1.944146,0.01015641 -2.83789,0.03515625 L 47.1875,0.296875 C 46.250006,0.3343748 44.712103,0.43437612 43.787109,0.609375 43.312112,0.7093744 42.837888,0.83359479 42.400391,0.99609375 41.937894,1.1835926 41.486716,1.4214862 41.074219,1.7089844 l -0.5625,0.4628906 -13.75,10.636719 c -0.137499,0.0125 -0.273439,0.02656 -0.398438,0.03906 -2.737482,0.224999 -5.463298,0.524221 -8.175781,0.886719 -2.774982,0.374998 -5.662908,0.825785 -8.4003906,1.425781 -1.5999898,0.349998 -4.2113383,0.99844 -5.7988282,1.398438 -0.2999979,0.0875 -0.7507831,0.201563 -1.0507812,0.289062 -0.149999,0.05 -0.3507822,0.123438 -0.4882812,0.210938 -0.2874982,0.162499 -0.5121104,0.450002 -0.6621094,0.75 -0.1499991,0.274998 -0.2628912,0.625783 -0.3378906,0.925781 l -0.2871094,1.175781 c -0.0375,0.149999 -0.086719,0.362501 -0.1367188,0.5 H 0 v 4.53711 l 1.4746094,1.287109 0.5,3.261719 h 5.0507812 c -0.0375,-0.237497 -0.062891,-0.575 -0.087891,-0.812498 -0.0125,-0.237499 -0.011719,-0.487111 -0.011719,-0.72461 0,-1.52499 0.3500051,-3.050008 1.125,-4.375 0.7624952,-1.287491 1.9109461,-2.325004 3.2109374,-3.0625 1.374991,-0.799995 2.92501,-1.27539 4.5,-1.27539 1.56249,-0.0125 3.07579,0.425395 4.425781,1.21289 1.337491,0.774995 2.461723,1.875009 3.199219,3.25 0.712495,1.299992 1.0375,2.8004 1.0625,4.275391 v 0.738281 c 0,0.212499 0.0012,0.548439 0.01367,0.773438 h 45.898437 c -0.05,-0.174999 -0.07461,-0.437501 -0.09961,-0.625 -0.0125,-0.224999 -0.01172,-0.47422 -0.01172,-0.699219 0.0625,-1.54999 0.412114,-3.125009 1.162109,-4.5 0.737496,-1.324992 1.824228,-2.424224 3.136719,-3.199219 1.349991,-0.799995 2.87501,-1.2375 4.4375,-1.25 1.54999,0 3.062899,0.411333 4.400391,1.173828 1.412491,0.799995 2.562505,1.963291 3.375,3.363282 0.762495,1.324991 1.21289,2.850009 1.15039,4.375 -0.0125,0.274998 -0.04922,0.661329 -0.07422,0.923828 -0.025,0.1 -0.05,0.35 -0.0625,0.4375 H 93.25 l 1.375,-1.324219 h 5.287109 V 26.722656 H 98.125 l 2.36133,-2.226562 v -3.72461 l -1.312502,-1.136718 v -4.175782 -0.386718 c 0,-0.187499 3.92e-4,-0.425002 -0.03711,-0.625 -0.075,-0.399998 -0.275002,-0.812112 -0.5,-1.16211 -0.324998,-0.499997 -0.750394,-0.975002 -1.275391,-1.25 -0.237498,-0.124999 -0.487502,-0.213672 -0.75,-0.263672 -0.287498,-0.0625 -0.712502,-0.07539 -1,-0.08789 L 94.849609,11.660156 81.6875,11.021484 74.650391,2.8476562 l -0.625,-0.6875 C 73.837892,1.9476577 73.499608,1.5714833 73.287109,1.3964844 72.987111,1.1589859 72.612498,0.97148349 72.25,0.83398438 71.975002,0.73398502 71.699608,0.64765593 71.412109,0.59765625 70.974612,0.52265673 70.199216,0.484375 69.761719,0.484375 69.136723,0.47187508 65.486324,0.25937484 64.861328,0.234375 62.798841,0.1093758 60.524987,0.05898412 58.4375,0.02148438 57.543756,0.00898446 56.571478,0 55.599609,0 Z M 53.787109,1.984375 51.4375,12.808594 H 29.912109 l 13.125,-10.2871096 z M 56.5,1.9960938 70.650391,2.5839844 76.361328,12.808594 h -22.25 z M 2.4003906,24.496094 H 6.25 v 0.951172 L 2.4003906,24.984375 Z m 23.8125004,0 h 22.648437 v 0.951172 H 26.212891 Z m 27.898437,0 h 14.587891 v 0.951172 H 54.111328 Z m 34.613281,0 h 8.923829 v 0.363281 l -8.923829,0.587891 z"
   transform="matrix(0.80000512,0,0,-0.80000512,256.31998,438.93753)" />










</g>
  </g>
  <path
     id="path987"
     style="display:inline;fill:#000000;fill-opacity:1"
     d="M 15.75 20.921875 A 7.2005291 7.2004995 0 0 0 8.5488281 28.123047 A 7.2005291 7.2004995 0 0 0 15.75 35.322266 A 7.2005291 7.2004995 0 0 0 22.951172 28.123047 A 7.2005291 7.2004995 0 0 0 15.75 20.921875 z M 15.75 25.609375 A 2.5130391 2.5130286 0 0 1 18.263672 28.123047 A 2.5130391 2.5130286 0 0 1 15.75 30.634766 A 2.5130391 2.5130286 0 0 1 13.236328 28.123047 A 2.5130391 2.5130286 0 0 1 15.75 25.609375 z " />
  <path
     id="path2484"
     style="display:inline;fill:#000000;fill-opacity:1"
     d="m 79.000417,20.921778 a 7.2005291,7.2004995 0 0 0 -7.201172,7.201172 7.2005291,7.2004995 0 0 0 7.201172,7.199219 7.2005291,7.2004995 0 0 0 7.201172,-7.199219 7.2005291,7.2004995 0 0 0 -7.201172,-7.201172 z m 0,4.6875 a 2.5130391,2.5130286 0 0 1 2.513672,2.513672 2.5130391,2.5130286 0 0 1 -2.513672,2.511719 2.5130391,2.5130286 0 0 1 -2.513672,-2.511719 2.5130391,2.5130286 0 0 1 2.513672,-2.513672 z" />
</svg>
