<?xml version="1.0" encoding="UTF-8" standalone="no"?>
<svg
   version="1.0"
   width="34.257595"
   height="35.549618"
   id="svg1891"
   inkscape:version="1.1.2 (b8e25be833, 2022-02-05)"
   sodipodi:docname="CH-Zusatztafel-Fahrrad_schieben.svg"
   xmlns:inkscape="http://www.inkscape.org/namespaces/inkscape"
   xmlns:sodipodi="http://sodipodi.sourceforge.net/DTD/sodipodi-0.dtd"
   xmlns="http://www.w3.org/2000/svg"
   xmlns:svg="http://www.w3.org/2000/svg"
   xmlns:rdf="http://www.w3.org/1999/02/22-rdf-syntax-ns#"
   xmlns:cc="http://creativecommons.org/ns#"
   xmlns:dc="http://purl.org/dc/elements/1.1/">
  <metadata
     id="metadata14">
    <rdf:RDF>
      <cc:Work
         rdf:about="">
        <dc:format>image/svg+xml</dc:format>
        <dc:type
           rdf:resource="http://purl.org/dc/dcmitype/StillImage" />
      </cc:Work>
    </rdf:RDF>
  </metadata>
  <sodipodi:namedview
     pagecolor="#ffffff"
     bordercolor="#666666"
     borderopacity="1"
     objecttolerance="10"
     gridtolerance="10"
     guidetolerance="10"
     inkscape:pageopacity="0"
     inkscape:pageshadow="2"
     inkscape:window-width="1920"
     inkscape:window-height="1001"
     id="namedview12"
     showgrid="false"
     fit-margin-top="0"
     fit-margin-left="0"
     fit-margin-right="0"
     fit-margin-bottom="0"
     inkscape:zoom="22.627418"
     inkscape:cx="19.025591"
     inkscape:cy="16.860077"
     inkscape:window-x="-9"
     inkscape:window-y="-9"
     inkscape:window-maximized="1"
     inkscape:current-layer="g10"
     inkscape:pagecheckerboard="true"
     inkscape:snap-intersection-paths="true"
     inkscape:snap-smooth-nodes="true"
     inkscape:snap-bbox="true"
     inkscape:bbox-nodes="true"
     inkscape:snap-bbox-edge-midpoints="true"
     showguides="true"
     inkscape:guide-bbox="true"
     inkscape:object-paths="false" />
  <defs
     id="defs1893" />
  <g
     transform="translate(-291.43716,-397.44914)"
     id="layer1">
    <g
       transform="matrix(1.249992,0,0,-1.249992,-62.0762,945.8861)"
       style="font-style:normal;font-variant:normal;font-weight:normal;font-stretch:normal;letter-spacing:normal;word-spacing:normal;text-anchor:start;fill:none;stroke:#000000;stroke-linecap:butt;stroke-linejoin:miter;stroke-miterlimit:10.433;stroke-dasharray:none;stroke-dashoffset:0;stroke-opacity:1"
       id="g10"
       xml:space="preserve">
<path
   id="path12"
   style="display:inline;fill:#000000;fill-rule:nonzero;stroke-width:0"
   d="M 14.333984,0.05273437 C 13.071492,0.15273373 12.134766,1.11485 12.197266,2.0898438 c 0.075,1.0999923 -0.751172,2.2636722 -0.638672,2.3261718 0.237498,0.1374991 0.775391,0.2871106 0.83789,0.4746094 0.274999,0.774995 0.474613,1.0996094 0.91211,1.0996094 0.399997,0 0.475393,-0.1628878 0.83789,-0.087891 0.0625,0.0125 0.18711,0.4878908 0.16211,0.5253906 -0.0875,0.087499 -0.661725,0.7367333 -1.574219,3.0117187 -0.0875,0.2499984 -0.5125,1.6753913 -0.5625,1.7753913 -0.025,0.05 -0.324614,1.000789 -0.974609,2.300781 -0.0375,0.124999 -0.912501,1.412501 -1,1.625 -0.0625,0.174999 -1.1621114,1.761719 -1.4121098,1.761719 -0.362497,0.025 -0.425,0.400001 -0.4375,0.5625 -0.0125,0.287498 0.037109,0.525391 0.037109,0.58789 0,0.0375 0.3117189,0.42461 0.3242188,0.47461 0.025,0.0875 0.3261729,-0.275 0.3886718,-0.25 0.2249986,0.112499 2.0234382,0.824609 2.0234382,0.849609 -0.04956,0.210629 -1.4832509,3.519164 -1.5937506,3.541016 -0.8531778,-0.38045 -1.7767724,-0.577412 -2.7109376,-0.578125 -3.6840625,-6.48e-4 -6.67070935,2.985998 -6.66992182,6.669922 2.9185e-4,3.683161 2.98662252,6.668616 6.66992182,6.667968 3.6825372,-4.31e-4 6.6676772,-2.98557 6.6679692,-6.667968 -4.44e-4,-2.278437 -1.16419,-4.398948 -3.085937,-5.623047 l 0.710937,-0.884766 4.537109,4.289063 0.02539,0.01172 c 0.187499,7.687451 -3.000001,6.586725 -3.1875,7.511719 -0.0625,0.362498 -0.188253,0.351561 4.199219,0.101563 0.212498,-0.0125 0.850785,-2.863688 1.488281,-5.263672 l 0.9375,0.763672 2.287109,-4.763672 0.472657,0.378906 a 6.6687489,6.6684966 0 0 0 -0.990235,3.478516 6.6687489,6.6684966 0 0 0 6.667969,6.667968 6.6687489,6.6684966 0 0 0 6.667969,-6.667968 6.6687489,6.6684966 0 0 0 -6.667969,-6.669922 6.6687489,6.6684966 0 0 0 -3.253906,0.867187 l -1.146485,-1.830078 1.763672,-3.574219 h 1.148438 v -1.099609 h -3.5625 l -0.02344,1.099609 h 1.3125 l -1.050781,2.16211 h -0.449219 c -0.262498,0.025 -0.776568,-1.524239 -1.601562,-4.699219 C 20.008595,12.365644 20.04647,7.328119 18.271481,6.1406266 17.471507,5.6156184 16.909763,5.3027328 16.509766,5.0527344 15.659771,4.5652375 15.910157,4.0910141 15.972656,3.8535156 17.02265,1.4410311 15.433977,-0.02226515 14.333984,0.05273437 Z m -0.15039,12.78710963 1.513672,6.826172 h -3.5625 l 0.423828,-1.113282 -2.8359378,-1.175781 0.6249998,-0.25 0.03711,-0.01172 0.02539,-0.01172 c 0.662496,-0.412498 1.249222,-0.963285 1.761719,-1.550782 l 0.07422,-0.07422 c 0.637496,-0.737496 1.212503,-1.525396 1.75,-2.337891 l 0.101562,-0.150391 z m -2.47461,7.90039 4.076172,0.03711 -0.01367,4.388672 -4.236328,-4 z m -4.8867184,2.34961 c 0.8249948,0 1.6000046,0.187502 2.3125,0.5 l -2.8632812,4.974609 0.75,0.476563 2.9257812,-4.988282 c 1.5374904,1.012494 2.5371094,2.737904 2.5371094,4.712891 0,3.12498 -2.5371294,5.662109 -5.6621094,5.662109 -3.12498,0 -5.6757812,-2.537129 -5.6757812,-5.662109 0,-3.12498 2.5508012,-5.675781 5.6757812,-5.675781 z m 20.7246094,0 c 3.131008,4.13e-4 5.668753,2.539032 5.667969,5.669922 -2.95e-4,3.130127 -2.537724,5.667555 -5.667969,5.667968 -3.130245,-4.13e-4 -5.667674,-2.537841 -5.667969,-5.667968 0.0019,-0.974142 0.254827,-1.931354 0.734375,-2.779297 l 2.820313,2.708984 c 0.424997,0.337498 0.725781,1.062502 0.800781,1.375 0.2375,1.037493 -0.312496,3.163672 0.25,3.201172 0.462499,0.0375 0.411719,-0.138282 0.511719,-0.363281 l 1.75,-3.986328 c -0.1375,-0.0125 -0.336719,-0.337891 -0.386719,-0.400391 l -3.574219,-4.701172 c 0.843668,-0.473204 1.794398,-0.722609 2.761719,-0.724609 z m -7.775391,0.162109 0.837891,0.951172 -1.849609,3.787109 -0.25,-0.238281 z"
   transform="matrix(0.80000512,0,0,-0.80000512,282.8125,438.75238)" />





</g>
  </g>
</svg>
