<?xml version="1.0" encoding="UTF-8" standalone="no"?>
<!DOCTYPE svg PUBLIC "-//W3C//DTD SVG 1.0//EN" "http://www.w3.org/TR/2001/REC-SVG-20010904/DTD/svg10.dtd">
<svg
   xmlns:svg="http://www.w3.org/2000/svg"
   xmlns="http://www.w3.org/2000/svg"
   version="1.0"
   width="44.199718"
   height="35.437275"
   id="svg1881">
  <defs
     id="defs1883" />
  <g
     transform="translate(-292.1859,-394.6435)"
     id="layer1">
    <g
       transform="matrix(1.249992,0,0,-1.249992,-56.36191,943.39)"
       style="font-style:normal;font-variant:normal;font-weight:normal;font-stretch:normal;letter-spacing:normal;word-spacing:normal;text-anchor:start;fill:none;fill-opacity:1;stroke:black;stroke-linecap:butt;stroke-linejoin:miter;stroke-miterlimit:10.43299961;stroke-dasharray:none;stroke-dashoffset:0;stroke-opacity:1"
       id="g10"
       xml:space="preserve">
<polygon
   points="278.84,424.79 282.35,426.93 290.44,426.93 298.38,439 301.33,439 297.39,428.6 297.39,426.93 301.84,426.93 308.69,426.07 312.14,429.96 313.37,429.96 311.34,425.76 314.2,425.38 314.2,424.4 311.29,424 313.21,419.77 312.14,419.77 308.77,423.63 302,422.76 297.39,422.76 297.39,421.05 301.22,410.65 298.36,410.65 290.38,422.76 282.32,422.76 278.84,424.79 "
   style="fill:black;fill-rule:nonzero;stroke-width:0"
   id="polygon12" />
</g>  </g>
</svg>
