<?xml version="1.0" encoding="UTF-8" standalone="no"?>
<svg
   xmlns:dc="http://purl.org/dc/elements/1.1/"
   xmlns:cc="http://creativecommons.org/ns#"
   xmlns:rdf="http://www.w3.org/1999/02/22-rdf-syntax-ns#"
   xmlns:svg="http://www.w3.org/2000/svg"
   xmlns="http://www.w3.org/2000/svg"
   viewBox="0 0 150 150"
   height="150"
   width="150"
   xml:space="preserve"
   version="1.1"
   id="svg4155"><metadata
     id="metadata4161"><rdf:RDF><cc:Work
         rdf:about=""><dc:format>image/svg+xml</dc:format><dc:type
           rdf:resource="http://purl.org/dc/dcmitype/StillImage" /><dc:title></dc:title></cc:Work></rdf:RDF></metadata><defs
     id="defs4159" /><g
     transform="matrix(1.25,0,0,-1.25,0,150)"
     id="g4163"><g
       id="g4165"><path
         id="path4167"
         style="fill:#154889;fill-opacity:1;fill-rule:nonzero;stroke:none"
         d="M 0,0 120,0 120,120 0,120 0,0 Z" /><path
         id="path4169"
         style="fill:#ffffff;fill-opacity:1;fill-rule:evenodd;stroke:none"
         d="m 38.93,8 0,72 28.285,0 c 16.824,0 27.34,-18.215 18.93,-32.785 -3.907,-6.762 -11.122,-10.93 -18.93,-10.93 l -17.36,0 L 49.855,8 38.93,8 Z m 10.925,38.57 16.715,0 c 8.91,0 14.477,9.645 10.024,17.36 -2.067,3.578 -5.887,5.785 -10.024,5.785 l -16.715,0 0,-23.145 z" /><path
         id="path4171"
         style="fill:#ffffff;fill-opacity:1;fill-rule:evenodd;stroke:none"
         d="M 4,72 4,88 60,112 116,88 116,72 60,96 4,72 Z" /></g></g></svg>