<?xml version="1.0" encoding="UTF-8" standalone="no"?>
<svg xmlns:dc="http://purl.org/dc/elements/1.1/" xmlns:cc="http://creativecommons.org/ns#" xmlns:rdf="http://www.w3.org/1999/02/22-rdf-syntax-ns#" xmlns:svg="http://www.w3.org/2000/svg" xmlns="http://www.w3.org/2000/svg" viewBox="0 0 601 601" height="601" width="601" xml:space="preserve" version="1.1" id="svg23211"><script xmlns="" id="__gaOptOutExtension"/><metadata id="metadata23217"><rdf:RDF><cc:Work rdf:about=""><dc:format>image/svg+xml</dc:format><dc:type rdf:resource="http://purl.org/dc/dcmitype/StillImage"/><dc:title/></cc:Work></rdf:RDF></metadata><defs id="defs23215"/><g transform="matrix(1.25,0,0,-1.25,0,600.99998)" id="g23219"><g id="g23221"><path id="path23223" style="fill:#ffffff;fill-opacity:1;fill-rule:nonzero;stroke:none" d="m 32.398,480.402 416.004,0 c 17.676,0 31.996,-14.321 31.996,-32 l 0,-416 c 0,-17.68 -14.32,-32 -31.996,-32 l -416.004,0 c -17.679,0 -32,14.32 -32,32 l 0,416 c 0,17.679 14.321,32 32,32"/><path id="path23225" style="fill:#000000;fill-opacity:1;fill-rule:nonzero;stroke:none" d="m 32.398,472.398 416.004,0 c 13.258,0 23.993,-10.75 23.993,-23.996 l 0,-416 c 0,-13.258 -10.735,-23.997 -23.993,-23.997 l -416.004,0 C 19.141,8.405 8.402,19.144 8.402,32.402 l 0,416 c 0,13.246 10.739,23.996 23.996,23.996"/><path id="path23227" style="fill:#ffffff;fill-opacity:1;fill-rule:nonzero;stroke:none" d="m 32.398,460.398 416.004,0 c 6.629,0 11.996,-5.368 11.996,-11.996 l 0,-416 c 0,-6.633 -5.367,-12 -11.996,-12 l -416.004,0 c -6.628,0 -11.996,5.367 -11.996,12 l 0,416 c 0,6.628 5.368,11.996 11.996,11.996"/><g transform="matrix(1,0,0,-1,0,480.79999)" id="g23229"><path id="path23231" style="fill:none;stroke:#000000;stroke-width:0.80000001;stroke-linecap:butt;stroke-linejoin:miter;stroke-miterlimit:4;stroke-dasharray:none;stroke-opacity:1" d="m 32.398,20.402 416.004,0 c 6.629,0 11.996,5.368 11.996,11.996 l 0,416 c 0,6.633 -5.367,12 -11.996,12 l -416.004,0 c -6.628,0 -11.996,-5.367 -11.996,-12 l 0,-416 c 0,-6.628 5.368,-11.996 11.996,-11.996 z"/></g><path id="path23233" style="fill:#000000;fill-opacity:1;fill-rule:nonzero;stroke:none" d="m 384.957,164.237 -6.008,0 c -5.961,0 -10.793,4.833 -10.793,10.809 l 0,29.391 -4.801,0 0,7.804 4.801,0 0,14.395 9.606,0 0,-14.395 7.195,0 0,-7.804 -7.195,0 0,-28.203 c 0,-1.657 1.332,-3 2.988,-3 l 4.207,0 0,-8.997 z m -72.004,31.208 0,35.992 36.008,0 0,-9.59 -27.012,0 0,-15.172 c 3.09,2.437 6.883,3.77 10.809,3.77 9.605,0 17.394,-7.793 17.394,-17.411 l 0,-10.199 c 0,-10.594 -8.597,-19.191 -19.195,-19.191 -9.898,0 -18.187,7.535 -19.121,17.394 l 9.687,0 c 0.868,-4.519 4.817,-7.804 9.434,-7.804 5.301,0 9.59,4.304 9.59,9.601 l 0,8.402 c 0,5.297 -4.289,9.602 -9.59,9.602 -3.68,0 -7.023,-2.094 -8.641,-5.394 l -9.363,0 z m -21.515,-38.403 0,16.801 9.605,0 0,-9.606 -9.605,-7.195 z m -33.598,7.195 22.805,57.61 -18.004,0 0,-9.606 -9.606,0 0,19.196 38.403,0 0,-8.996 -22.793,-58.204 -10.805,0 z m -93.606,7.692 6.774,6.801 c 3.781,-3.754 8.894,-5.868 14.234,-5.868 2.422,0 4.817,0.426 7.082,1.278 1.871,0.707 3.117,2.508 3.117,4.504 0,2.535 -1.968,4.633 -4.503,4.789 l -10.2,0.637 c -7.578,0.48 -13.5,6.769 -13.5,14.363 0,6.672 4.563,12.449 11.047,14.008 2.27,0.554 4.606,0.824 6.957,0.824 6.758,0 13.317,-2.297 18.598,-6.504 l -5.992,-7.508 c -3.582,2.863 -8.032,4.422 -12.606,4.422 -1.586,0 -3.172,-0.199 -4.719,-0.566 -2.164,-0.528 -3.679,-2.454 -3.679,-4.676 0,-2.524 1.968,-4.617 4.504,-4.789 l 10.199,-0.637 c 7.578,-0.469 13.496,-6.77 13.496,-14.363 0,-6.008 -3.723,-11.375 -9.348,-13.485 -3.343,-1.261 -6.883,-1.898 -10.453,-1.898 -7.875,0 -15.426,3.117 -21.008,8.668 m -21.586,59.508 9.602,0 0,-9.606 -9.602,0 0,9.606 z m 0,-19.196 9.602,0 0,-48.004 -9.602,0 0,48.004 z m -42,-29.406 c 0,-5.297 4.293,-9.601 9.59,-9.601 5.313,0 9.602,4.304 9.602,9.601 l 0,10.809 c 0,5.297 -4.289,9.605 -9.602,9.605 -5.297,0 -9.59,-4.308 -9.59,-9.605 l 0,-10.809 z m -9.605,-18.598 0,67.2 9.605,0 0,-24.617 c 3.075,3.808 7.692,6.019 12.594,6.019 8.949,0 16.188,-7.254 16.188,-16.207 l 0,-16.797 c 0,-8.941 -7.239,-16.191 -16.188,-16.191 -4.902,0 -9.519,2.207 -12.594,6.019 l 0,-5.426 -9.605,0 z"/><path id="path23235" style="fill:#000000;fill-opacity:1;fill-rule:nonzero;stroke:none" d="m 415.848,70.554 0,43.996 8.797,0 0,-4.406 c 1.628,3.058 4.804,4.957 8.246,4.957 5.168,0 9.363,-4.18 9.363,-9.348 l 0,-35.199 -8.813,0 0,31.348 c 0,2.433 -1.968,4.402 -4.39,4.402 -2.438,0 -4.406,-1.969 -4.406,-4.402 l 0,-31.348 -8.797,0 z m -25.297,25.851 8.797,0 0,5.497 c 0,2.433 -1.969,4.402 -4.391,4.402 -2.437,0 -4.406,-1.969 -4.406,-4.402 l 0,-5.497 z m 17.594,-13.203 c 0,-7.297 -5.911,-13.203 -13.188,-13.203 -7.297,0 -13.219,5.906 -13.219,13.203 l 0,18.7 c 0,7.293 5.922,13.199 13.219,13.199 7.277,0 13.188,-5.906 13.188,-13.199 l 0,-12.653 -17.594,0 0,-6.047 c 0,-2.437 1.969,-4.406 4.406,-4.406 2.422,0 4.391,1.969 4.391,4.406 l 8.797,0 z m -78.094,-12.648 0,43.996 8.797,0 0,-4.406 c 1.629,3.058 4.8,4.957 8.242,4.957 3.246,0 6.262,-1.684 7.961,-4.434 1.957,2.778 5.144,4.434 8.543,4.434 5.781,0 10.453,-4.672 10.453,-10.453 l 0,-34.094 -8.797,0 0,31.348 c 0,2.433 -1.969,4.402 -4.402,4.402 -2.426,0 -4.407,-1.969 -4.407,-4.402 l 0,-31.348 -8.796,0 0,31.348 c 0,2.433 -1.969,4.402 -4.391,4.402 -2.438,0 -4.406,-1.969 -4.406,-4.402 l 0,-31.348 -8.797,0 z m -52.809,0 0,43.996 8.797,0 0,-4.406 c 1.629,3.058 4.801,4.957 8.258,4.957 3.246,0 6.246,-1.684 7.949,-4.434 1.969,2.778 5.156,4.434 8.555,4.434 5.765,0 10.437,-4.672 10.437,-10.453 l 0,-34.094 -8.793,0 0,31.348 c 0,2.433 -1.972,4.402 -4.394,4.402 -2.434,0 -4.403,-1.969 -4.403,-4.402 l 0,-31.348 -8.796,0 0,31.348 c 0,2.433 -1.969,4.402 -4.407,4.402 -2.422,0 -4.406,-1.969 -4.406,-4.402 l 0,-31.348 -8.797,0 z M 250.84,83.202 c 0,-2.437 1.984,-4.406 4.406,-4.406 2.434,0 4.402,1.969 4.402,4.406 l 0,18.7 c 0,2.433 -1.968,4.402 -4.402,4.402 -2.422,0 -4.406,-1.969 -4.406,-4.402 l 0,-18.7 z m -8.797,0 0,18.7 c 0,7.293 5.922,13.199 13.203,13.199 7.293,0 13.199,-5.906 13.199,-13.199 l 0,-18.7 c 0,-7.297 -5.906,-13.203 -13.199,-13.203 -7.281,0 -13.203,5.906 -13.203,13.203 m -34.098,-12.648 0,43.996 8.797,0 0,-4.406 c 1.629,3.058 4.805,4.957 8.262,4.957 5.152,0 9.348,-4.18 9.348,-9.348 l 0,-35.199 -8.797,0 0,31.348 c 0,2.433 -1.969,4.402 -4.407,4.402 -2.437,0 -4.406,-1.969 -4.406,-4.402 l 0,-31.348 -8.797,0 z m -25.297,25.851 8.797,0 0,5.497 c 0,2.433 -1.968,4.402 -4.39,4.402 -2.438,0 -4.407,-1.969 -4.407,-4.402 l 0,-5.497 z m 17.594,-13.203 c 0,-7.297 -5.906,-13.203 -13.187,-13.203 -7.297,0 -13.203,5.906 -13.203,13.203 l 0,18.7 c 0,7.293 5.906,13.199 13.203,13.199 7.281,0 13.187,-5.906 13.187,-13.199 l 0,-12.653 -17.594,0 0,-6.047 c 0,-2.437 1.969,-4.406 4.407,-4.406 2.422,0 4.39,1.969 4.39,4.406 l 8.797,0 z m -43.996,0 0,18.7 c 0,2.433 -1.969,4.402 -4.394,4.402 -2.434,0 -4.403,-1.969 -4.403,-4.402 l 0,-18.7 c 0,-2.437 1.969,-4.406 4.403,-4.406 2.425,0 4.394,1.969 4.394,4.406 m -8.797,-17.593 c 0,-2.438 1.969,-4.407 4.403,-4.407 2.425,0 4.394,1.969 4.394,4.407 l 0,9.336 c -1.629,-3.047 -4.805,-4.946 -8.246,-4.946 -5.172,0 -9.348,4.196 -9.348,9.348 l 0,26.406 c 0,5.168 4.176,9.348 9.348,9.348 3.441,0 6.617,-1.899 8.246,-4.957 l 0,4.406 8.793,0 0,-48.941 c 0,-7.297 -5.906,-13.204 -13.187,-13.204 -7.293,0 -13.2,5.907 -13.2,13.204 l 8.797,0 z m -40.699,17.593 8.246,0 c 0,-2.734 2.211,-4.957 4.957,-4.957 2.719,0 4.945,2.223 4.945,4.957 0,1.953 -1.148,3.727 -2.949,4.52 l -7.125,2.617 c -4.574,2.027 -7.519,6.559 -7.519,11.563 0,6.98 5.652,12.648 12.648,12.648 6.985,0 12.649,-5.668 12.649,-12.648 l -8.258,0 c 0,2.433 -1.969,4.402 -4.391,4.402 -2.437,0 -4.406,-1.969 -4.406,-4.402 0,-1.747 1.019,-3.317 2.621,-4.024 l 7.125,-2.609 c 4.773,-2.11 7.848,-6.84 7.848,-12.067 0,-7.297 -5.907,-13.203 -13.188,-13.203 -7.293,0 -13.203,5.906 -13.203,13.203 m -6.598,-12.648 -8.812,0 0,4.391 c -1.613,-3.047 -4.789,-4.946 -8.246,-4.946 -5.153,0 -9.348,4.196 -9.348,9.348 l 0,35.203 8.797,0 0,-31.348 c 0,-2.437 1.969,-4.406 4.406,-4.406 2.422,0 4.391,1.969 4.391,4.406 l 0,31.348 8.812,0 0,-43.996 z m -44,19.25 -4.402,0 c -2.438,0 -4.406,-1.969 -4.406,-4.406 l 0,-2.196 c 0,-2.437 1.968,-4.406 4.406,-4.406 2.422,0 4.402,1.969 4.402,4.406 l 0,6.602 z m 8.797,-19.25 -8.797,0 0,4.391 c -1.629,-3.047 -4.8,-4.946 -8.257,-4.946 -5.157,0 -9.348,4.196 -9.348,9.348 l 0,6.601 c 0,6.079 4.93,11.008 11.004,11.008 l 6.601,0 0,4.946 c 0,2.433 -1.98,4.402 -4.402,4.402 -2.438,0 -4.406,-1.969 -4.406,-4.402 l -8.797,0 c 0,7.293 5.906,13.199 13.203,13.199 7.293,0 13.199,-5.906 13.199,-13.199 l 0,-31.348 z"/><path id="path23237" style="fill:#000000;fill-opacity:1;fill-rule:nonzero;stroke:none" d="m 380.309,300.402 -32,-10.668 -10.668,-0.012 c 0,14.73 -11.953,26.672 -26.688,26.672 -14.73,0 -26.672,-11.942 -26.672,-26.672 l -101.281,0 c 0,14.73 -11.941,26.672 -26.688,26.672 -14.73,0 -26.671,-11.942 -26.671,-26.672 l -21.317,0.043 c -2.949,0 -5.328,2.379 -5.328,5.308 l 0,30.399 c 0,2.238 1.402,4.238 3.484,5.004 l 25.313,9.261 c 2.082,0.75 3.867,2.153 5.129,3.969 l 19.648,28.582 c 1.203,1.774 3.075,2.977 5.184,3.344 l 26.558,4.773 0,5.329 -71.347,-0.016 c -2.125,0 -4.168,0.852 -5.668,2.352 l -6.742,6.769 c -0.993,0.992 -1.559,2.352 -1.559,3.77 l 0,6.234 c 0,1.402 0.566,2.762 1.559,3.766 l 28.402,18.445 c 1.316,0.875 2.859,1.344 4.445,1.344 l 146.907,0 21.336,-10.668 69.308,-0.012 c 2.945,0 5.324,-2.379 5.324,-5.313 l 0.032,-112.003 z m -48.036,-10.68 c 0,-11.774 -9.535,-21.32 -21.32,-21.32 -11.769,0 -21.316,9.546 -21.316,21.32 0,11.769 9.547,21.316 21.316,21.316 11.785,0 21.32,-9.547 21.32,-21.316 m -154.64,0 c 0,-11.774 -9.547,-21.32 -21.321,-21.32 -11.769,0 -21.316,9.546 -21.316,21.32 0,11.769 9.547,21.316 21.316,21.316 11.774,0 21.321,-9.547 21.321,-21.316"/><path id="path23239" style="fill:#ffffff;fill-opacity:1;fill-rule:nonzero;stroke:none" d="m 185.637,370.8 c 1.476,0 2.679,-1.203 2.679,-2.676 l 0,-24.648 c 0,-1.43 -1.132,-2.606 -2.566,-2.676 l -41.262,-1.801 -0.097,0 c -1.164,0 -2.114,0.949 -2.114,2.125 0,0.41 0.114,0.821 0.356,1.176 l 17.422,26.137 c 0.98,1.472 2.636,2.363 4.422,2.363 l 21.16,0 z m -37.325,25.598 c -1.472,0 -2.675,1.203 -2.675,2.675 l 0,16.008 c 0,1.473 1.203,2.676 2.675,2.676 l 37.325,0 c 1.476,0 2.679,-1.203 2.679,-2.676 l 0,-16.008 c 0,-1.472 -1.203,-2.675 -2.679,-2.675 l -37.325,0 z m 149.329,-42.68 c -1.485,0 -2.692,1.203 -2.692,2.676 l 0,26.687 c 0,1.473 1.207,2.68 2.692,2.68 l 37.312,0 c 1.488,0 2.692,-1.207 2.692,-2.68 l 0,-26.687 c 0,-1.473 -1.204,-2.676 -2.692,-2.676 0,0 -37.312,0.016 -37.312,0 m -69.336,-53.316 0.011,0 c -1.484,0 -2.675,1.203 -2.675,2.675 l 0,80.004 c 0,1.473 1.191,2.68 2.675,2.68 l 42.641,0 c 1.484,0 2.676,-1.207 2.676,-2.68 l 0,-80.004 c 0,-1.472 -1.192,-2.675 -2.676,-2.675 l -42.652,0 z"/><path id="path23241" style="fill:#000000;fill-opacity:1;fill-rule:nonzero;stroke:none" d="M 32.398,480.8 C 14.504,480.8 0,466.296 0,448.402 l 0,-416 C 0,14.507 14.504,-0.001 32.398,-0.001 l 416,0 c 17.895,0 32.403,14.508 32.403,32.403 l 0,416 c 0,17.894 -14.508,32.398 -32.403,32.398 l -416,0 z m 0,-0.398 416,0 c 17.68,0 32,-14.321 32,-32 l 0,-416 c 0,-17.68 -14.32,-32 -32,-32 l -416,0 c -17.679,0 -32,14.32 -32,32 l 0,416 c 0,17.679 14.321,32 32,32 z"/></g></g></svg>