<?xml version="1.0" encoding="UTF-8" standalone="no"?>
<svg xmlns:dc="http://purl.org/dc/elements/1.1/" xmlns:cc="http://creativecommons.org/ns#" xmlns:rdf="http://www.w3.org/1999/02/22-rdf-syntax-ns#" xmlns:svg="http://www.w3.org/2000/svg" xmlns="http://www.w3.org/2000/svg" viewBox="0 0 421.00125 232.0025" height="232.0025" width="421.00125" xml:space="preserve" version="1.1" id="svg3527"><script xmlns="" id="__gaOptOutExtension"/><metadata id="metadata3533"><rdf:RDF><cc:Work rdf:about=""><dc:format>image/svg+xml</dc:format><dc:type rdf:resource="http://purl.org/dc/dcmitype/StillImage"/><dc:title/></cc:Work></rdf:RDF></metadata><defs id="defs3531"/><g transform="matrix(1.25,0,0,-1.25,0,232.00251)" id="g3535"><g id="g3537"><path id="path3539" style="fill:#ffffff;fill-opacity:1;fill-rule:nonzero;stroke:none" d="m 22.652,185.204 c -12.273,0 -22.254,-9.954 -22.254,-22.184 l 0,-140.445 c 0,-12.227 9.981,-22.172 22.254,-22.172 l 291.496,0 c 12.274,0 22.25,9.945 22.25,22.172 l 0,140.445 c 0,12.23 -9.976,22.184 -22.25,22.184 l -291.496,0 z"/><path id="path3541" style="fill:#000000;fill-opacity:1;fill-rule:nonzero;stroke:none" d="M 22.652,185.602 C 10.164,185.602 0,175.465 0,163.02 L 0,22.575 C 0,10.129 10.164,0 22.652,0 l 291.496,0 c 12.489,0 22.653,10.129 22.653,22.575 l 0,140.445 c 0,12.445 -10.164,22.582 -22.653,22.582 l -291.496,0 z m 0,-0.398 291.496,0 c 12.274,0 22.25,-9.954 22.25,-22.184 l 0,-140.445 c 0,-12.227 -9.976,-22.172 -22.25,-22.172 l -291.496,0 c -12.273,0 -22.254,9.945 -22.254,22.172 l 0,140.445 c 0,12.23 9.981,22.184 22.254,22.184 z"/><path id="path3543" style="fill:#000000;fill-opacity:1;fill-rule:nonzero;stroke:none" d="m 22.645,14.118 291.496,0 c 4.644,0 8.41,3.75 8.41,8.379 l 0,140.605 c 0,4.629 -3.766,8.379 -8.41,8.379 l -291.496,0 c -4.649,0 -8.411,-3.75 -8.411,-8.379 l 0,-140.605 c 0,-4.629 3.762,-8.379 8.411,-8.379 z m 0.398,-7.981 c -9.289,0 -16.816,7.5 -16.816,16.758 l 0,139.805 c 0,9.257 7.527,16.757 16.816,16.757 l 290.777,0 c 9.289,0 16.817,-7.5 16.817,-16.757 l 0,-139.805 c 0,-9.258 -7.528,-16.758 -16.817,-16.758"/><path id="path3545" style="fill:#000000;fill-opacity:1;fill-rule:nonzero;stroke:none" d="m 254.289,43.684 -8.75,0 c -8.699,0 -15.754,7.051 -15.754,15.75 l 0,42.879 -6.996,0 0,11.371 6.996,0 0,21.004 14,0 0,-21.004 10.504,0 0,-11.371 -10.504,0 0,-41.125 c 0,-2.414 1.957,-4.375 4.379,-4.375 l 6.125,0 0,-13.129 z"/><path id="path3547" style="fill:#000000;fill-opacity:1;fill-rule:nonzero;stroke:none" d="m 97.277,141.106 -14.769,-12.75 0,-15.301 14.769,12.965 0,-81.695 13.864,0 0,96.781 -13.864,0 z"/><path id="path3549" style="fill:#000000;fill-opacity:1;fill-rule:nonzero;stroke:none" d="m 192.207,44.321 0,12.492 -39.422,0 30.313,36.988 c 5.98,7.34 9.109,12.371 9.109,20.934 0,16.719 -11.418,27.187 -28.004,27.187 -16.449,0 -28.137,-10.875 -28.137,-27.324 l 13.864,0 c 0,10.875 6.933,14.953 14.273,14.953 8.973,0 14.137,-5.98 14.137,-14.679 0,-4.895 -1.496,-8.426 -5.164,-12.915 l -37.246,-45.144 0,-12.492 56.277,0 z"/></g></g></svg>