<?xml version="1.0" encoding="UTF-8" standalone="no"?>
<svg xmlns:dc="http://purl.org/dc/elements/1.1/" xmlns:cc="http://creativecommons.org/ns#" xmlns:rdf="http://www.w3.org/1999/02/22-rdf-syntax-ns#" xmlns:svg="http://www.w3.org/2000/svg" xmlns="http://www.w3.org/2000/svg" viewBox="0 0 2269.9841 1702.5072" height="1702.5072" width="2269.9841" xml:space="preserve" id="svg20570" version="1.1"><script xmlns="" id="__gaOptOutExtension"/><metadata id="metadata20576"><rdf:RDF><cc:Work rdf:about=""><dc:format>image/svg+xml</dc:format><dc:type rdf:resource="http://purl.org/dc/dcmitype/StillImage"/><dc:title/></cc:Work></rdf:RDF></metadata><defs id="defs20574"/><g transform="matrix(1.3333333,0,0,-1.3333333,0,1702.5072)" id="g20578"><g id="g20580"><path id="path20582" style="fill:#ffffff;fill-opacity:1;fill-rule:nonzero;stroke:none" d="M 113.484,1276.06 C 51.402,1276.06 0.859,1225.517 0.859,1163.396 V 113.498 C 0.859,51.4 51.402,0.857 113.484,0.857 h 1475.52 c 62.125,0 112.668,50.543 112.668,112.641 v 1049.898 c 0,62.121 -50.543,112.664 -112.668,112.664"/><path id="path20584" style="fill:#000000;fill-opacity:1;fill-rule:nonzero;stroke:none" d="M 113.484,1.662 C 51.832,1.662 1.691,51.83 1.691,113.498 v 1049.898 c 0,61.652 50.141,111.809 111.793,111.809 h 1475.52 c 61.652,0 111.793,-50.157 111.793,-111.809 V 113.498 C 1700.797,51.83 1650.656,1.662 1589.004,1.662 Z M 1589.004,1276.88 H 113.484 C 50.82,1276.88 0,1226.06 0,1163.396 V 113.498 C 0,50.818 50.82,0.001 113.484,0.001 h 1475.52 c 62.664,0 113.484,50.817 113.484,113.497 v 1049.898 c 0,62.664 -50.82,113.484 -113.484,113.484"/><path id="path20586" style="fill:#000000;fill-opacity:1;fill-rule:nonzero;stroke:none" d="m 113.484,1248.533 c -46.996,0 -85.093,-38.117 -85.093,-85.137 V 113.498 c 0,-46.993 38.097,-85.137 85.093,-85.137 h 1475.52 c 46.996,0 85.137,38.144 85.137,85.137 v 1049.898 c 0,47.02 -38.141,85.137 -85.137,85.137 z m 0,-42.59 h 1475.52 c 23.512,0 42.574,-19.035 42.574,-42.547 V 113.498 c 0,-23.524 -19.062,-42.547 -42.574,-42.547 H 113.484 c -23.468,0 -42.546,19.023 -42.546,42.547 v 1049.898 c 0,23.512 19.078,42.547 42.546,42.547 z"/><path id="path20588" style="fill:#231f20;fill-opacity:1;fill-rule:nonzero;stroke:none" d="m 1121.816,553.201 v 170.562 h 34.067 v -17.074 c 6.301,11.824 18.562,19.191 31.918,19.191 19.996,0 36.219,-16.207 36.219,-36.23 V 553.201 h -34.067 v 121.527 c 0,9.406 -7.621,17.039 -17.015,17.039 -9.434,0 -17.055,-7.633 -17.055,-17.039 V 553.201 Z m -68.132,74.609 h -17.051 c -9.395,0 -17.016,-7.633 -17.016,-17.039 v -8.535 c 0,-9.41 7.621,-17.039 17.016,-17.039 9.429,0 17.051,7.629 17.051,17.039 z m 34.066,-74.609 h -34.066 v 17.035 c -6.301,-11.785 -18.563,-19.192 -31.918,-19.192 -19.993,0 -36.215,16.247 -36.215,36.266 v 25.578 c 0,23.535 19.051,42.649 42.594,42.649 h 25.539 v 19.191 c 0,9.406 -7.622,17.039 -17.051,17.039 -9.395,0 -17.016,-7.633 -17.016,-17.039 h -34.066 c 0,28.258 22.859,51.152 51.082,51.152 28.219,0 51.117,-22.894 51.117,-51.152 z m -272.535,49.035 v 72.492 c 0,9.406 -7.621,17.039 -17.016,17.039 -9.394,0 -17.051,-7.633 -17.051,-17.039 v -72.492 c 0,-9.41 7.657,-17.039 17.051,-17.039 9.395,0 17.016,7.629 17.016,17.039 m 34.066,-49.035 h -34.066 v 17.035 c -6.301,-11.785 -18.563,-19.192 -31.918,-19.192 -19.992,0 -36.215,16.247 -36.215,36.266 v 102.34 c 0,20.023 16.223,36.23 36.215,36.23 13.355,0 25.617,-7.367 31.918,-19.191 v 85.301 h 34.066 z m -234.207,0 v 170.562 h 34.071 v -17.074 c 6.296,11.824 18.558,19.191 31.953,19.191 19.996,0 36.179,-16.207 36.179,-36.23 V 553.201 h -34.066 v 121.527 c 0,9.406 -7.621,17.039 -17.016,17.039 -9.433,0 -17.05,-7.633 -17.05,-17.039 V 553.201 Z m -34.066,0 h -34.067 v 17.035 c -6.261,-11.785 -18.562,-19.192 -31.918,-19.192 -19.992,0 -36.214,16.247 -36.214,36.266 v 136.453 h 34.066 V 602.236 c 0,-9.41 7.621,-17.039 17.051,-17.039 9.394,0 17.015,7.629 17.015,17.039 v 121.527 h 34.067 z"/><path id="path20590" style="fill:#231f20;fill-opacity:1;fill-rule:nonzero;stroke:none" d="m 1320.984,229.287 v 170.566 h 34.067 v -17.078 c 6.301,11.824 18.562,19.191 31.918,19.191 19.992,0 36.215,-16.207 36.215,-36.226 V 229.287 h -34.067 v 121.531 c 0,9.406 -7.621,17.035 -17.015,17.035 -9.43,0 -17.051,-7.629 -17.051,-17.035 V 229.287 Z m -97.937,100.183 h 34.066 v 21.348 c 0,9.406 -7.621,17.035 -17.015,17.035 -9.43,0 -17.051,-7.629 -17.051,-17.035 z m 68.133,-51.148 c 0,-28.258 -22.864,-51.188 -51.082,-51.188 -28.219,0 -51.121,22.93 -51.121,51.188 v 72.496 c 0,28.254 22.902,51.148 51.121,51.148 28.218,0 51.082,-22.894 51.082,-51.148 v -49.035 h -68.133 v -23.461 c 0,-9.406 7.621,-17.074 17.051,-17.074 9.394,0 17.015,7.668 17.015,17.074 z m -302.34,25.574 h -17.016 c -9.429,0 -17.051,-7.629 -17.051,-17.039 v -8.535 c 0,-9.406 7.622,-17.074 17.051,-17.074 9.395,0 17.016,7.668 17.016,17.074 z m 34.066,-74.609 H 988.84 v 17.035 c -6.301,-11.785 -18.563,-19.188 -31.918,-19.188 -19.992,0 -36.215,16.242 -36.215,36.266 v 25.574 c 0,23.535 19.051,42.652 42.59,42.652 h 25.543 v 19.192 c 0,9.406 -7.621,17.035 -17.016,17.035 -9.429,0 -17.051,-7.629 -17.051,-17.035 h -34.066 c 0,28.254 22.859,51.148 51.117,51.148 28.219,0 51.082,-22.894 51.082,-51.148 z m -123.476,0 h -17.055 c -21.164,0 -38.328,17.187 -38.328,38.382 v 104.454 h -17.016 v 27.73 h 17.016 v 51.148 h 34.066 v -51.148 h 21.317 v -27.73 H 878.113 V 271.935 c 0,-5.891 4.789,-10.687 10.676,-10.687 h 10.641 z m -168.223,0 v 170.566 h 34.066 v -19.27 c 10.942,13.528 27.352,21.383 44.704,21.383 v -35.812 c -3.43,1.133 -7.016,1.699 -10.637,1.699 -18.824,0 -34.067,-15.262 -34.067,-34.113 V 229.287 Z M 633.27,329.47 h 34.066 v 21.348 c 0,9.406 -7.621,17.035 -17.016,17.035 -9.433,0 -17.05,-7.629 -17.05,-17.035 z m 68.132,-51.148 c 0,-28.258 -22.863,-51.188 -51.082,-51.188 -28.258,0 -51.121,22.93 -51.121,51.188 v 72.496 c 0,28.254 22.863,51.148 51.121,51.148 28.219,0 51.082,-22.894 51.082,-51.148 V 301.783 H 633.27 v -23.461 c 0,-9.406 7.617,-17.074 17.05,-17.074 9.395,0 17.016,7.668 17.016,17.074 z M 531.066,468.076 h 34.067 v -34.11 h -34.067 z m 0,-68.223 h 34.067 V 229.287 H 531.066 Z M 433.129,329.47 h 34.066 v 21.348 c 0,9.406 -7.621,17.035 -17.05,17.035 -9.395,0 -17.016,-7.629 -17.016,-17.035 z m 68.133,-51.148 c 0,-28.258 -22.86,-51.188 -51.117,-51.188 -28.219,0 -51.083,22.93 -51.083,51.188 v 72.496 c 0,28.254 22.864,51.148 51.083,51.148 28.257,0 51.117,-22.894 51.117,-51.148 v -49.035 h -68.133 v -23.461 c 0,-9.406 7.621,-17.074 17.016,-17.074 9.429,0 17.05,7.668 17.05,17.074 z M 279.848,229.287 V 468.076 H 382.047 V 436.08 H 313.914 V 363.583 H 373.52 V 331.626 H 313.914 V 229.287 Z"/><path id="path20592" style="fill:#000000;fill-opacity:1;fill-rule:nonzero;stroke:none" d="m 623.422,1064.287 v -16.664 H 589.43 v 7.668 c 0,7.773 -1.887,14.441 -5.664,19.992 -3.555,5.777 -9.664,8.668 -18.328,8.668 -9.333,0 -15.551,-3.223 -18.665,-9.664 -2.886,-6.223 -4.332,-13.223 -4.332,-20.996 0,-8.665 0.891,-15.11 2.668,-19.329 1.778,-4.222 6.442,-8 13.996,-11.332 0.446,-0.222 0.887,-0.445 1.333,-0.668 0.445,0 0.89,-0.109 1.332,-0.332 l 25.996,-10.332 c 15.105,-5.554 24.773,-13.441 28.992,-23.66 4.445,-10.219 6.664,-23.996 6.664,-41.324 0,-19.996 -4.332,-36.547 -12.996,-49.656 -8.442,-13.106 -23.66,-19.66 -45.656,-19.66 -16.442,0 -30.215,5.332 -41.325,15.996 -11.105,10.664 -16.66,23.992 -16.66,39.988 v 12.664 h 33.992 v -10.664 c 0,-6.219 1.778,-11.887 5.332,-16.996 3.778,-4.887 9.996,-7.332 18.661,-7.332 11.554,0 18.55,3.113 20.996,9.332 2.445,6.445 3.664,15.109 3.664,25.996 0,11.328 -0.887,19.105 -2.664,23.328 -1.778,4.219 -5.778,7.773 -11.996,10.664 -0.668,0.223 -1.446,0.442 -2.336,0.664 -0.887,0.445 -1.778,0.891 -2.664,1.336 l -24.329,9.996 c -14.664,6 -24.55,13.887 -29.66,23.66 -4.886,10 -7.332,22.442 -7.332,37.325 0,17.996 4.778,33.328 14.332,45.992 9.774,12.664 24.438,18.996 43.989,18.996 16.441,0 29.769,-5.332 39.992,-15.996 10.218,-10.446 15.773,-22.11 16.66,-34.992 0,-0.446 0,-0.891 0,-1.336 0,-0.442 0,-0.887 0,-1.332 z"/><path id="path20594" style="fill:#000000;fill-opacity:1;fill-rule:nonzero;stroke:none" d="m 716.539,878.662 v 17.332 h -0.668 c -0.664,-0.891 -1.332,-1.778 -2,-2.668 -0.664,-0.887 -1.332,-1.778 -2,-2.664 -3.773,-4.446 -7.773,-7.887 -11.996,-10.332 -4.223,-2.223 -9.773,-3.332 -16.664,-3.332 -1.555,0 -3.219,0.109 -4.996,0.332 -1.555,0.222 -3.223,0.445 -5,0.668 -6.664,1.554 -12.774,5.441 -18.328,11.664 -5.555,6.441 -8.332,17.105 -8.332,31.992 0,19.328 3.554,33.656 10.664,42.988 7.332,9.555 21.66,14.332 42.988,14.332 1.559,0 3.113,-0.113 4.668,-0.336 1.777,0 3.555,-0.109 5.332,-0.332 0.887,0 1.887,-0.109 3,-0.332 1.109,0 2.219,0 3.332,0 v 17.66 c 0,5.778 -1.223,10.555 -3.668,14.332 -2.441,3.778 -6.887,5.664 -13.328,5.664 -4.223,0 -8.223,-1.441 -12,-4.332 -3.773,-2.886 -6.219,-7.109 -7.328,-12.664 h -32.992 c 0.441,7.555 1.996,14.442 4.664,20.664 2.664,6.219 6.218,11.551 10.664,15.996 4.441,4.442 9.773,7.887 15.996,10.332 6.441,2.665 13.441,3.997 20.996,3.997 14.219,0 26.215,-4.442 35.992,-13.329 9.996,-8.886 14.996,-22.218 14.996,-39.992 v -117.64 z m 0,49.656 v 22.996 c -1.332,0.223 -2.555,0.441 -3.668,0.664 -1.109,0.223 -2.219,0.336 -3.332,0.336 -0.445,0 -0.887,0 -1.332,0 -0.223,0 -0.555,0 -1,0 -7.332,0 -13.664,-1.777 -18.996,-5.332 -5.109,-3.332 -7.664,-9.555 -7.664,-18.664 0,-6.442 1.555,-11.664 4.664,-15.664 3.113,-3.996 7.445,-5.996 13,-5.996 5.773,0 10.219,1.886 13.328,5.664 3.332,3.777 5,9.109 5,15.996 z"/><path id="path20596" style="fill:#000000;fill-opacity:1;fill-rule:nonzero;stroke:none" d="m 781.477,854.001 v 58.653 h 33.992 v -33.992 z"/><path id="path20598" style="fill:#000000;fill-opacity:1;fill-rule:nonzero;stroke:none" d="m 1068.312,1064.287 v -16.664 h -33.992 v 7.668 c 0,7.773 -1.886,14.441 -5.664,19.992 -3.554,5.777 -9.664,8.668 -18.332,8.668 -9.328,0 -15.551,-3.223 -18.66,-9.664 -2.891,-6.223 -4.332,-13.223 -4.332,-20.996 0,-8.665 0.887,-15.11 2.664,-19.329 1.777,-4.222 6.445,-8 13.996,-11.332 0.446,-0.222 0.891,-0.445 1.336,-0.668 0.442,0 0.887,-0.109 1.332,-0.332 l 25.992,-10.332 c 15.11,-5.554 24.774,-13.441 28.996,-23.66 4.442,-10.219 6.664,-23.996 6.664,-41.324 0,-19.996 -4.332,-36.547 -12.996,-49.656 -8.441,-13.106 -23.66,-19.66 -45.656,-19.66 -16.441,0 -30.215,5.332 -41.324,15.996 -11.109,10.664 -16.664,23.992 -16.664,39.988 v 12.664 h 33.992 v -10.664 c 0,-6.219 1.777,-11.887 5.332,-16.996 3.777,-4.887 10,-7.332 18.664,-7.332 11.551,0 18.551,3.113 20.996,9.332 2.442,6.445 3.664,15.109 3.664,25.996 0,11.328 -0.886,19.105 -2.664,23.328 -1.777,4.219 -5.777,7.773 -12,10.664 -0.664,0.223 -1.441,0.442 -2.332,0.664 -0.886,0.445 -1.777,0.891 -2.664,1.336 l -24.328,9.996 c -14.664,6 -24.551,13.887 -29.66,23.66 -4.891,10 -7.332,22.442 -7.332,37.325 0,17.996 4.777,33.328 14.328,45.992 9.777,12.664 24.441,18.996 43.992,18.996 16.442,0 29.77,-5.332 39.988,-15.996 10.223,-10.446 15.778,-22.11 16.664,-34.992 0,-0.446 0,-0.891 0,-1.336 0,-0.442 0,-0.887 0,-1.332 z"/><path id="path20600" style="fill:#000000;fill-opacity:1;fill-rule:nonzero;stroke:none" d="m 1094.395,935.318 v 55.652 c 0,6.887 0.445,13.219 1.332,18.996 1.113,6 2.777,11.11 5,15.328 4,7.332 9.773,13.223 17.328,17.664 7.777,4.446 16.773,6.665 26.996,6.665 10.441,0 19.437,-2.219 26.992,-6.665 7.555,-4.441 13.332,-10.332 17.328,-17.664 2.445,-4.218 4.113,-9.328 5,-15.328 0.891,-5.777 1.332,-12.109 1.332,-18.996 v -55.652 c 0,-6.887 -0.441,-13.219 -1.332,-18.996 -0.887,-5.778 -2.555,-10.887 -5,-15.332 -3.996,-7.332 -9.773,-13.219 -17.328,-17.66 -7.555,-4.223 -16.551,-6.332 -26.992,-6.332 -10.223,0 -19.219,2.109 -26.996,6.332 -7.555,4.441 -13.328,10.328 -17.328,17.66 -2.223,4.445 -3.887,9.554 -5,15.332 -0.887,5.777 -1.332,12.109 -1.332,18.996 z m 33.992,60.984 v -66.316 c 0,-6.223 1.445,-11 4.332,-14.332 3.109,-3.332 7.219,-5 12.332,-5 5.109,0 9.109,1.668 11.996,5 3.109,3.332 4.664,8.109 4.664,14.332 v 66.316 c 0,6.442 -1.555,11.219 -4.664,14.332 -2.887,3.332 -6.887,4.996 -11.996,4.996 -5.113,0 -9.223,-1.664 -12.332,-4.996 -2.887,-3.113 -4.332,-7.89 -4.332,-14.332 z"/><path id="path20602" style="fill:#000000;fill-opacity:1;fill-rule:nonzero;stroke:none" d="m 1051.844,207.486 h 34.672 c 0,0 0,-0.164 0,-0.5 0,-0.344 0,-0.629 0,-0.86 0.687,-3.851 2.554,-7.363 5.609,-10.531 3.063,-3.176 7.313,-4.765 12.75,-4.765 5.664,0 9.742,1.757 12.234,5.265 2.5,3.512 3.75,7.992 3.75,13.438 v 33.656 h -0.671 c -3.626,-5.668 -8.165,-9.977 -13.61,-12.922 -5.437,-2.945 -11.672,-4.422 -18.703,-4.422 -7.023,0 -13.027,1.246 -18.016,3.735 -4.992,2.5 -9.07,6.582 -12.234,12.25 -2.043,3.851 -3.516,8.613 -4.422,14.281 -0.906,5.664 -1.359,13.258 -1.359,22.781 v 65.609 c 0,12.469 0.336,21.649 1.015,27.547 0.676,5.895 2.149,10.657 4.422,14.282 2.946,4.531 6.742,8.269 11.391,11.218 4.644,2.946 11.16,4.422 19.547,4.422 7.031,0 12.64,-1.195 16.828,-3.578 4.195,-2.375 7.992,-5.492 11.391,-9.344 0.687,-0.679 1.425,-1.418 2.218,-2.218 0.789,-0.793 1.524,-1.641 2.203,-2.547 v 15.64 h 34.688 V 206.47 c 0,-1.133 -0.059,-2.437 -0.172,-3.906 -0.117,-1.477 -0.289,-2.895 -0.516,-4.25 -1.586,-10.656 -6.515,-20.348 -14.797,-29.078 -8.273,-8.727 -20.453,-13.094 -36.546,-13.094 -2.032,0 -4.071,0.117 -6.11,0.344 -2.043,0.23 -4.086,0.57 -6.125,1.015 -9.062,2.043 -17.449,6.977 -25.156,14.797 -7.711,7.825 -12.469,19.668 -14.281,35.532 z m 34.672,136.344 v -63.235 c 0,-5.449 1.187,-10.215 3.562,-14.297 2.383,-4.074 6.863,-6.109 13.438,-6.109 4.988,0 9.125,1.754 12.406,5.266 3.289,3.519 4.937,8 4.937,13.437 v 66.969 c 0,6.351 -1.589,11.508 -4.765,15.469 -3.168,3.968 -7.36,5.953 -12.578,5.953 -5.887,0 -10.196,-2.157 -12.922,-6.469 -2.719,-4.305 -4.078,-9.965 -4.078,-16.984 z"/></g></g></svg>