<?xml version="1.0" encoding="UTF-8" standalone="no"?>
<svg xmlns:dc="http://purl.org/dc/elements/1.1/" xmlns:cc="http://creativecommons.org/ns#" xmlns:rdf="http://www.w3.org/1999/02/22-rdf-syntax-ns#" xmlns:svg="http://www.w3.org/2000/svg" xmlns="http://www.w3.org/2000/svg" viewBox="0 0 600.995 600.995" height="600.995" width="600.995" xml:space="preserve" id="svg4827" version="1.1"><script xmlns="" id="__gaOptOutExtension"/><metadata id="metadata4833"><rdf:RDF><cc:Work rdf:about=""><dc:format>image/svg+xml</dc:format><dc:type rdf:resource="http://purl.org/dc/dcmitype/StillImage"/><dc:title/></cc:Work></rdf:RDF></metadata><defs id="defs4831"/><g transform="matrix(1.3333333,0,0,-1.3333333,0,600.99499)" id="g4835"><g id="g4837"><path id="path4839" style="fill:#ffffff;fill-opacity:1;fill-rule:nonzero;stroke:none" d="m 450.375,225.371 c 0,-124.265 -100.734,-225 -225,-225 -124.266,0 -225,100.735 -225,225 0,124.266 100.734,225 225,225 124.266,0 225,-100.734 225,-225 z"/><path id="path4841" style="fill:#000000;fill-opacity:1;fill-rule:nonzero;stroke:none" d="M 225.375,450.746 C 100.906,450.746 0,349.84 0,225.371 0,100.906 100.906,0 225.375,0 349.84,0 450.746,100.906 450.746,225.371 c 0,124.469 -100.906,225.375 -225.371,225.375 z m 0,-0.375 c 124.266,0 225,-100.734 225,-225 0,-124.265 -100.734,-225 -225,-225 -124.266,0 -225,100.735 -225,225 0,124.266 100.734,225 225,225 z"/><path id="path4843" style="fill:#c1121c;fill-opacity:1;fill-rule:nonzero;stroke:none" d="m 225.375,442.871 c -119.766,0 -217.5,-97.734 -217.5,-217.5 0,-119.761 97.734,-217.5 217.5,-217.5 119.762,0 217.5,97.739 217.5,217.5 0,119.766 -97.738,217.5 -217.5,217.5 z m 0,-60.301 c 87.176,0 157.199,-70.019 157.199,-157.199 0,-87.176 -70.023,-157.199 -157.199,-157.199 -87.18,0 -157.199,70.023 -157.199,157.199 0,87.18 70.019,157.199 157.199,157.199 z"/><path id="path4845" style="fill:#000000;fill-opacity:1;fill-rule:nonzero;stroke:none" d="m 22.344,427.981 v -0.024 H 22.32 Z"/><path id="path4847" style="fill:#000000;fill-opacity:1;fill-rule:nonzero;stroke:none" d="m 22.32,427.981 h 0.023 v -0.023 H 22.32 Z"/><path id="path4849" style="fill:#000000;fill-opacity:1;fill-rule:nonzero;stroke:none" d="m 22.32,427.957 v 0.024 l 0.024,-0.024 z m 0.024,0 -0.024,0.024 v -0.024 z"/><path id="path4851" style="fill:#000000;fill-opacity:1;fill-rule:nonzero;stroke:none" d="m 22.367,427.957 h -0.047 0.024 v 0.024 z"/><path id="path4853" style="fill:#000000;fill-opacity:1;fill-rule:nonzero;stroke:none" d="m 22.32,427.957 v 0.024 -0.024 l 0.024,0.024 z"/><path id="path4855" style="fill:#000000;fill-opacity:1;fill-rule:nonzero;stroke:none" d="m 22.32,427.981 h 0.023 v -0.023 H 22.32 Z"/><path id="path4857" style="fill:#000000;fill-opacity:1;fill-rule:nonzero;stroke:none" d="m 22.367,427.981 v -0.047 H 22.32 Z"/><path id="path4859" style="fill:#000000;fill-opacity:1;fill-rule:nonzero;stroke:none" d="m 22.32,427.981 h 0.047 v -0.047 H 22.32 Z"/><path id="path4861" style="fill:#000000;fill-opacity:1;fill-rule:nonzero;stroke:none" d="m 22.32,427.934 v 0.047 l 0.047,-0.047 z m 0.047,0 -0.047,0.047 v -0.047 z"/><path id="path4863" style="fill:#000000;fill-opacity:1;fill-rule:nonzero;stroke:none" d="m 22.367,427.934 h -0.047 0.024 v 0.047 z"/><path id="path4865" style="fill:#000000;fill-opacity:1;fill-rule:nonzero;stroke:none" d="m 22.32,427.934 v 0.047 -0.047 l 0.047,0.047 z"/><path id="path4867" style="fill:#000000;fill-opacity:1;fill-rule:nonzero;stroke:none" d="m 22.32,427.981 h 0.047 v -0.047 H 22.32 Z"/><path id="path4869" style="fill:#000000;fill-opacity:1;fill-rule:nonzero;stroke:none" d="m 22.367,427.981 v -0.047 H 22.32 Z"/><path id="path4871" style="fill:#000000;fill-opacity:1;fill-rule:nonzero;stroke:none" d="m 22.32,427.981 h 0.047 v -0.047 H 22.32 Z"/><path id="path4873" style="fill:#000000;fill-opacity:1;fill-rule:nonzero;stroke:none" d="m 22.32,427.934 v 0.047 l 0.047,-0.047 z m 0.047,0 -0.047,0.047 v -0.047 z"/><path id="path4875" style="fill:#000000;fill-opacity:1;fill-rule:nonzero;stroke:none" d="m 22.367,427.934 h -0.047 0.024 v 0.047 z"/><path id="path4877" style="fill:#000000;fill-opacity:1;fill-rule:nonzero;stroke:none" d="m 22.32,427.934 v 0.047 -0.047 l 0.047,0.047 z"/><path id="path4879" style="fill:#000000;fill-opacity:1;fill-rule:nonzero;stroke:none" d="m 22.32,427.981 h 0.047 v -0.047 H 22.32 Z"/><path id="path4881" style="fill:#000000;fill-opacity:1;fill-rule:nonzero;stroke:none" d="m 22.367,427.981 v -0.047 H 22.32 Z"/><path id="path4883" style="fill:#000000;fill-opacity:1;fill-rule:nonzero;stroke:none" d="m 22.32,427.981 h 0.047 v -0.047 H 22.32 Z"/><path id="path4885" style="fill:#000000;fill-opacity:1;fill-rule:nonzero;stroke:none" d="m 22.32,427.934 v 0.047 l 0.047,-0.047 z m 0.047,0 -0.047,0.047 v -0.047 z"/><path id="path4887" style="fill:#000000;fill-opacity:1;fill-rule:nonzero;stroke:none" d="m 22.367,427.934 h -0.047 0.024 v 0.047 z"/><path id="path4889" style="fill:#000000;fill-opacity:1;fill-rule:nonzero;stroke:none" d="m 22.32,427.934 v 0.047 -0.047 l 0.047,0.047 z"/><path id="path4891" style="fill:#000000;fill-opacity:1;fill-rule:nonzero;stroke:none" d="m 22.32,427.981 h 0.047 v -0.047 H 22.32 Z"/><path id="path4893" style="fill:#000000;fill-opacity:1;fill-rule:evenodd;stroke:none" d="m 192.941,166.352 20.032,0.093 V 145.938 L 192.961,131.18 Z"/><path id="path4895" style="fill:#000000;fill-opacity:1;fill-rule:nonzero;stroke:none" d="M 180.531,317.906 H 110.375 V 225.652 H 132 c 1.441,2.883 4.082,9.372 12.492,9.372 6.727,0 11.531,-5.528 11.531,-12.254 v -40.121 c 0,-7.93 -4.324,-12.735 -11.531,-12.735 -7.207,0 -12.492,4.805 -12.492,13.215 v 6.246 h -24.508 v -7.207 c 0,-22.824 17.059,-36.762 36.52,-36.762 19.461,0 36.519,13.938 36.519,36.762 v 44.203 c 0,19.703 -11.535,30.274 -28.109,30.274 -8.649,0 -15.86,-3.606 -20.422,-7.93 v 46.129 h 48.531 z"/><path id="path4897" style="fill:#000000;fill-opacity:1;fill-rule:nonzero;stroke:none" d="M 285.383,280.406 H 230.48 v -72.199 h 16.922 c 1.129,2.258 3.2,7.332 9.778,7.332 5.265,0 9.027,-4.324 9.027,-9.586 v -31.402 c 0,-6.203 -3.387,-9.965 -9.027,-9.965 -5.641,0 -9.778,3.762 -9.778,10.34 v 4.891 h -19.175 v -5.641 c 0,-17.863 13.347,-28.77 28.578,-28.77 15.23,0 28.578,10.907 28.578,28.77 v 34.598 c 0,15.414 -9.024,23.687 -21.996,23.687 -6.77,0 -12.41,-2.82 -15.985,-6.203 v 36.102 h 37.981 z"/><path id="path4899" style="fill:#000000;fill-opacity:1;fill-rule:nonzero;stroke:none" d="m 312.23,241.863 h -9.589 V 226.82 h 9.589 v -57.91 c 0,-10.152 5.829,-22.375 23.125,-22.375 h 7.899 v 18.051 c -8.461,0 -11.848,0.566 -11.848,9.402 v 52.832 h 11.848 v 15.043 H 331.406 V 270.82 H 312.23 Z"/></g></g></svg>