<?xml version="1.0" encoding="UTF-8" standalone="no"?>
<svg xmlns:dc="http://purl.org/dc/elements/1.1/" xmlns:cc="http://creativecommons.org/ns#" xmlns:rdf="http://www.w3.org/1999/02/22-rdf-syntax-ns#" xmlns:svg="http://www.w3.org/2000/svg" xmlns="http://www.w3.org/2000/svg" viewBox="0 0 600.99622 600.99628" height="600.99628" width="600.99622" xml:space="preserve" version="1.1" id="svg3499"><script xmlns="" id="__gaOptOutExtension"/><metadata id="metadata3505"><rdf:RDF><cc:Work rdf:about=""><dc:format>image/svg+xml</dc:format><dc:type rdf:resource="http://purl.org/dc/dcmitype/StillImage"/><dc:title/></cc:Work></rdf:RDF></metadata><defs id="defs3503"/><g transform="matrix(1.25,0,0,-1.25,0,600.99628)" id="g3507"><g id="g3509"><path id="path3511" style="fill:#ffffff;fill-opacity:1;fill-rule:nonzero;stroke:none" d="m 240.398,480.399 c 132.551,0 240,-107.45 240,-240 0,-132.551 -107.449,-240 -240,-240 -132.55,0 -240,107.449 -240,240 0,132.55 107.45,240 240,240 z"/><path id="path3513" style="fill:#000000;fill-opacity:1;fill-rule:nonzero;stroke:none" d="M 240.398,480.797 C 107.633,480.797 0,373.164 0,240.399 0,107.633 107.633,0 240.398,0 c 132.766,0 240.399,107.633 240.399,240.399 0,132.765 -107.633,240.398 -240.399,240.398 z m 0,-0.398 c 132.551,0 240,-107.45 240,-240 0,-132.551 -107.449,-240 -240,-240 -132.55,0 -240,107.449 -240,240 0,132.55 107.45,240 240,240 z"/><path id="path3515" style="fill:#c1121c;fill-opacity:1;fill-rule:nonzero;stroke:none" d="m 240.398,473.363 c -127.746,0 -232,-104.253 -232,-232 0,-127.746 104.254,-232 232,-232 127.747,0 232,104.254 232,232 0,127.747 -104.253,232 -232,232 z m 0,-64.32 c 92.989,0 167.68,-74.691 167.68,-167.68 0,-92.988 -74.691,-167.679 -167.68,-167.679 -92.988,0 -167.679,74.691 -167.679,167.679 0,92.989 74.691,167.68 167.679,167.68 z"/><path id="path3517" style="fill:#000000;fill-opacity:1;fill-rule:nonzero;stroke:none" d="m 23.832,456.512 0,-0.024 -0.023,0 0.023,0.024 z"/><path id="path3519" style="fill:#000000;fill-opacity:1;fill-rule:nonzero;stroke:none" d="m 23.809,456.512 0.023,0 0,-0.023 -0.023,0 0,0.023 z"/><path id="path3521" style="fill:#000000;fill-opacity:1;fill-rule:nonzero;stroke:none" d="m 23.809,456.488 0,0.024 0.023,-0.024 -0.023,0 z m 0.023,0 -0.023,0.024 0,-0.024 0.023,0 z"/><path id="path3523" style="fill:#000000;fill-opacity:1;fill-rule:nonzero;stroke:none" d="m 23.859,456.488 -0.05,0 0.023,0 0,0.024 0.027,-0.024 z"/><path id="path3525" style="fill:#000000;fill-opacity:1;fill-rule:nonzero;stroke:none" d="m 23.809,456.488 0,0.024 0,-0.024 0.023,0.024 -0.023,-0.024 z"/><path id="path3527" style="fill:#000000;fill-opacity:1;fill-rule:nonzero;stroke:none" d="m 23.809,456.512 0.023,0 0,-0.023 -0.023,0 0,0.023 z"/><path id="path3529" style="fill:#000000;fill-opacity:1;fill-rule:nonzero;stroke:none" d="m 23.859,456.512 0,-0.047 -0.05,0 0.05,0.047 z"/><path id="path3531" style="fill:#000000;fill-opacity:1;fill-rule:nonzero;stroke:none" d="m 23.809,456.512 0.051,0 0,-0.047 -0.051,0 0,0.047 z"/><path id="path3533" style="fill:#000000;fill-opacity:1;fill-rule:nonzero;stroke:none" d="m 23.809,456.465 0,0.047 0.05,-0.047 -0.05,0 z m 0.05,0 -0.05,0.047 0,-0.047 0.05,0 z"/><path id="path3535" style="fill:#000000;fill-opacity:1;fill-rule:nonzero;stroke:none" d="m 23.859,456.465 -0.05,0 0.023,0 0,0.047 0.027,-0.047 z"/><path id="path3537" style="fill:#000000;fill-opacity:1;fill-rule:nonzero;stroke:none" d="m 23.809,456.465 0,0.047 0,-0.047 0.05,0.047 -0.05,-0.047 z"/><path id="path3539" style="fill:#000000;fill-opacity:1;fill-rule:nonzero;stroke:none" d="m 23.809,456.512 0.051,0 0,-0.047 -0.051,0 0,0.047 z"/><path id="path3541" style="fill:#000000;fill-opacity:1;fill-rule:nonzero;stroke:none" d="m 23.859,456.512 0,-0.047 -0.05,0 0.05,0.047 z"/><path id="path3543" style="fill:#000000;fill-opacity:1;fill-rule:nonzero;stroke:none" d="m 23.809,456.512 0.051,0 0,-0.047 -0.051,0 0,0.047 z"/><path id="path3545" style="fill:#000000;fill-opacity:1;fill-rule:nonzero;stroke:none" d="m 23.809,456.465 0,0.047 0.05,-0.047 -0.05,0 z m 0.05,0 -0.05,0.047 0,-0.047 0.05,0 z"/><path id="path3547" style="fill:#000000;fill-opacity:1;fill-rule:nonzero;stroke:none" d="m 23.859,456.465 -0.05,0 0.023,0 0,0.047 0.027,-0.047 z"/><path id="path3549" style="fill:#000000;fill-opacity:1;fill-rule:nonzero;stroke:none" d="m 23.809,456.465 0,0.047 0,-0.047 0.05,0.047 -0.05,-0.047 z"/><path id="path3551" style="fill:#000000;fill-opacity:1;fill-rule:nonzero;stroke:none" d="m 23.809,456.512 0.051,0 0,-0.047 -0.051,0 0,0.047 z"/><path id="path3553" style="fill:#000000;fill-opacity:1;fill-rule:nonzero;stroke:none" d="m 23.859,456.512 0,-0.047 -0.05,0 0.05,0.047 z"/><path id="path3555" style="fill:#000000;fill-opacity:1;fill-rule:nonzero;stroke:none" d="m 23.809,456.512 0.051,0 0,-0.047 -0.051,0 0,0.047 z"/><path id="path3557" style="fill:#000000;fill-opacity:1;fill-rule:nonzero;stroke:none" d="m 23.809,456.465 0,0.047 0.05,-0.047 -0.05,0 z m 0.05,0 -0.05,0.047 0,-0.047 0.05,0 z"/><path id="path3559" style="fill:#000000;fill-opacity:1;fill-rule:nonzero;stroke:none" d="m 23.859,456.465 -0.05,0 0.023,0 0,0.047 0.027,-0.047 z"/><path id="path3561" style="fill:#000000;fill-opacity:1;fill-rule:nonzero;stroke:none" d="m 23.809,456.465 0,0.047 0,-0.047 0.05,0.047 -0.05,-0.047 z"/><path id="path3563" style="fill:#000000;fill-opacity:1;fill-rule:nonzero;stroke:none" d="m 23.809,456.512 0.051,0 0,-0.047 -0.051,0 0,0.047 z"/><path id="path3565" style="fill:#000000;fill-opacity:1;fill-rule:nonzero;stroke:none" d="m 197.598,161.649 -72,0 0,22.5 45.257,86.359 c 1.801,3.437 2.743,7.262 2.743,11.141 l 0,13.5 c 0,6.628 -5.371,12 -12,12 -6.625,0 -12,-5.372 -12,-12 l 0,-13.5 -24,0 0,13.5 c 0,19.882 16.117,36 36,36 19.882,0 36,-16.118 36,-36 l 0,-13.5 c 0,-7.653 -1.828,-15.196 -5.34,-22 l -38.16,-74 43.5,0 0,-24 z"/><path id="path3567" style="fill:#000000;fill-opacity:1;fill-rule:nonzero;stroke:none" d="m 224.797,161.649 -16,-12 0,28 16,0 0,-16"/><path id="path3569" style="fill:#000000;fill-opacity:1;fill-rule:nonzero;stroke:none" d="m 283.996,235.649 c 0,-6.739 -3.762,-12.914 -9.754,-16 5.992,-3.086 9.754,-9.262 9.754,-16 l 0,-19 c 0,-13.254 -10.742,-24 -24,-24 -13.254,0 -24,10.746 -24,24 l 0,9 16,0 0,-9 c 0,-4.418 3.582,-8 8,-8 4.422,0 8,3.582 8,8 l 0,20 c 0,4.418 -3.578,8 -8,8 l -5,0 0,14 5,0 c 4.422,0 8,3.582 8,8 l 0,16 c 0,4.418 -3.578,8 -8,8 -4.418,0 -8,-3.582 -8,-8 l 0,-9 -16,0 0,9 c 0,13.253 10.746,24 24,24 13.258,0 24,-10.747 24,-24 l 0,-15 z"/><path id="path3571" style="fill:#000000;fill-opacity:1;fill-rule:nonzero;stroke:none" d="m 341.012,222.426 c -4.321,0.062 -8.715,-1.809 -11.719,-6.074 -5.168,8.367 -17.465,7.976 -22.094,-0.703 l 0,6 -12,0 0,-60 12,0 0,42.75 c 0,3.312 2.684,6 6,6 3.313,0 6,-2.688 6,-6 l 0,-42.75 12,0 0,42.75 c 0,3.312 2.684,6 6,6 3.313,0 6,-2.688 6,-6 l 0,-42.75 12,0 0,46.5 c 0,8.695 -6.992,14.171 -14.187,14.277 z"/><path id="path3573" style="fill:#000000;fill-opacity:1;fill-rule:nonzero;stroke:none" d="m 85.797,181.949 33.699,59.344 -33.699,59.348 c -14.664,-38.203 -14.664,-80.489 0,-118.692 z"/><path id="path3575" style="fill:#000000;fill-opacity:1;fill-rule:nonzero;stroke:none" d="M 395,181.949 361.301,241.293 395,300.641 c 14.664,-38.203 14.664,-80.489 0,-118.692 z"/></g></g></svg>