<?xml version="1.0" encoding="UTF-8" standalone="no"?>
<svg xmlns:dc="http://purl.org/dc/elements/1.1/" xmlns:cc="http://creativecommons.org/ns#" xmlns:rdf="http://www.w3.org/1999/02/22-rdf-syntax-ns#" xmlns:svg="http://www.w3.org/2000/svg" xmlns="http://www.w3.org/2000/svg" viewBox="0 0 600.995 600.995" height="600.995" width="600.995" xml:space="preserve" id="svg4820" version="1.1"><script xmlns="" id="__gaOptOutExtension"/><metadata id="metadata4826"><rdf:RDF><cc:Work rdf:about=""><dc:format>image/svg+xml</dc:format><dc:type rdf:resource="http://purl.org/dc/dcmitype/StillImage"/><dc:title/></cc:Work></rdf:RDF></metadata><defs id="defs4824"/><g transform="matrix(1.3333333,0,0,-1.3333333,0,600.99499)" id="g4828"><g id="g4830"><path id="path4832" style="fill:#ffffff;fill-opacity:1;fill-rule:nonzero;stroke:none" d="m 450.375,225.371 c 0,-124.265 -100.734,-225 -225,-225 -124.266,0 -225,100.735 -225,225 0,124.266 100.734,225 225,225 124.266,0 225,-100.734 225,-225 z"/><path id="path4834" style="fill:#000000;fill-opacity:1;fill-rule:nonzero;stroke:none" d="M 225.375,450.746 C 100.906,450.746 0,349.84 0,225.371 0,100.906 100.906,0 225.375,0 349.84,0 450.746,100.906 450.746,225.371 c 0,124.469 -100.906,225.375 -225.371,225.375 z m 0,-0.375 c 124.266,0 225,-100.734 225,-225 0,-124.265 -100.734,-225 -225,-225 -124.266,0 -225,100.735 -225,225 0,124.266 100.734,225 225,225 z"/><path id="path4836" style="fill:#c1121c;fill-opacity:1;fill-rule:nonzero;stroke:none" d="m 225.375,442.871 c -119.766,0 -217.5,-97.734 -217.5,-217.5 0,-119.761 97.734,-217.496 217.5,-217.496 119.762,0 217.496,97.735 217.496,217.496 0,119.766 -97.734,217.5 -217.496,217.5 z m 0,-60.297 c 87.176,0 157.199,-70.027 157.199,-157.203 0,-87.176 -70.023,-157.199 -157.199,-157.199 -87.176,0 -157.203,70.023 -157.203,157.199 0,87.176 70.027,157.203 157.203,157.203 z"/><path id="path4838" style="fill:#000000;fill-opacity:1;fill-rule:nonzero;stroke:none" d="m 22.344,427.981 v -0.024 H 22.32 Z"/><path id="path4840" style="fill:#000000;fill-opacity:1;fill-rule:nonzero;stroke:none" d="m 22.32,427.981 h 0.023 v -0.023 H 22.32 Z"/><path id="path4842" style="fill:#000000;fill-opacity:1;fill-rule:nonzero;stroke:none" d="m 22.32,427.957 v 0.024 l 0.024,-0.024 z m 0.024,0 -0.024,0.024 v -0.024 z"/><path id="path4844" style="fill:#000000;fill-opacity:1;fill-rule:nonzero;stroke:none" d="m 22.367,427.957 h -0.047 0.024 v 0.024 z"/><path id="path4846" style="fill:#000000;fill-opacity:1;fill-rule:nonzero;stroke:none" d="m 22.32,427.957 v 0.024 -0.024 l 0.024,0.024 z"/><path id="path4848" style="fill:#000000;fill-opacity:1;fill-rule:nonzero;stroke:none" d="m 22.32,427.981 h 0.023 v -0.023 H 22.32 Z"/><path id="path4850" style="fill:#000000;fill-opacity:1;fill-rule:nonzero;stroke:none" d="m 22.367,427.981 v -0.047 H 22.32 Z"/><path id="path4852" style="fill:#000000;fill-opacity:1;fill-rule:nonzero;stroke:none" d="m 22.32,427.981 h 0.047 v -0.047 H 22.32 Z"/><path id="path4854" style="fill:#000000;fill-opacity:1;fill-rule:nonzero;stroke:none" d="m 22.32,427.934 v 0.047 l 0.047,-0.047 z m 0.047,0 -0.047,0.047 v -0.047 z"/><path id="path4856" style="fill:#000000;fill-opacity:1;fill-rule:nonzero;stroke:none" d="m 22.367,427.934 h -0.047 0.024 v 0.047 z"/><path id="path4858" style="fill:#000000;fill-opacity:1;fill-rule:nonzero;stroke:none" d="m 22.32,427.934 v 0.047 -0.047 l 0.047,0.047 z"/><path id="path4860" style="fill:#000000;fill-opacity:1;fill-rule:nonzero;stroke:none" d="m 22.32,427.981 h 0.047 v -0.047 H 22.32 Z"/><path id="path4862" style="fill:#000000;fill-opacity:1;fill-rule:nonzero;stroke:none" d="m 22.367,427.981 v -0.047 H 22.32 Z"/><path id="path4864" style="fill:#000000;fill-opacity:1;fill-rule:nonzero;stroke:none" d="m 22.32,427.981 h 0.047 v -0.047 H 22.32 Z"/><path id="path4866" style="fill:#000000;fill-opacity:1;fill-rule:nonzero;stroke:none" d="m 22.32,427.934 v 0.047 l 0.047,-0.047 z m 0.047,0 -0.047,0.047 v -0.047 z"/><path id="path4868" style="fill:#000000;fill-opacity:1;fill-rule:nonzero;stroke:none" d="m 22.367,427.934 h -0.047 0.024 v 0.047 z"/><path id="path4870" style="fill:#000000;fill-opacity:1;fill-rule:nonzero;stroke:none" d="m 22.32,427.934 v 0.047 -0.047 l 0.047,0.047 z"/><path id="path4872" style="fill:#000000;fill-opacity:1;fill-rule:nonzero;stroke:none" d="m 22.32,427.981 h 0.047 v -0.047 H 22.32 Z"/><path id="path4874" style="fill:#000000;fill-opacity:1;fill-rule:nonzero;stroke:none" d="m 22.367,427.981 v -0.047 H 22.32 Z"/><path id="path4876" style="fill:#000000;fill-opacity:1;fill-rule:nonzero;stroke:none" d="m 22.32,427.981 h 0.047 v -0.047 H 22.32 Z"/><path id="path4878" style="fill:#000000;fill-opacity:1;fill-rule:nonzero;stroke:none" d="m 22.32,427.934 v 0.047 l 0.047,-0.047 z m 0.047,0 -0.047,0.047 v -0.047 z"/><path id="path4880" style="fill:#000000;fill-opacity:1;fill-rule:nonzero;stroke:none" d="m 22.367,427.934 h -0.047 0.024 v 0.047 z"/><path id="path4882" style="fill:#000000;fill-opacity:1;fill-rule:nonzero;stroke:none" d="m 22.32,427.934 v 0.047 -0.047 l 0.047,0.047 z"/><path id="path4884" style="fill:#000000;fill-opacity:1;fill-rule:nonzero;stroke:none" d="m 22.32,427.981 h 0.047 v -0.047 H 22.32 Z"/><path id="path4886" style="fill:#000000;fill-opacity:1;fill-rule:nonzero;stroke:none" d="m 88.777,170.496 v 31.274 l 22.758,14.894 -1.191,2.754 c -1.457,3.363 -2.207,6.988 -2.207,10.649 0,2.734 0.414,5.453 1.238,8.062 l -8.687,15.766 -20.848,-4.465 -4.465,4.465 17.871,20.851 v 8.934 l 5.953,-5.957 c 10.133,0 19.567,-5.149 25.047,-13.668 l 14.82,-23.281 c 5.071,-0.711 10.184,-1.067 15.305,-1.067 8.008,0 15.988,0.871 23.801,2.606 l 0.101,0.019 c 1.43,0.262 2.875,0.395 4.325,0.395 4.691,0 9.277,-1.387 13.191,-3.985 l 3.957,3.965 c 3.352,3.348 7.895,5.231 12.637,5.231 8.082,0 15.164,-5.426 17.262,-13.235 l 2.843,-10.593 -11.168,-5.958 -2.382,13.586 c -0.813,4.633 -4.833,8.008 -9.536,8.008 -2.566,0 -5.027,-1.015 -6.843,-2.836 l -2.164,-2.164 c 3.886,-4.363 6.031,-10.004 6.031,-15.847 0,-2.754 -0.477,-5.489 -1.41,-8.079 l 11.836,-19.55 -4.469,-28.301 -8.453,-2.895 4.468,28.293 -21.082,16.45 2.731,-20.918 -13.406,-25.317 h -8.934 l 13.402,25.317 -13.203,23.363 c -6.894,-1.668 -13.957,-2.512 -21.047,-2.512 -6.734,0 -13.449,0.762 -20.015,2.27 l 14.054,-40.989 -1.488,-7.449 h -7.445 l 1.488,7.449 -17.871,41.282 -19.359,-11.496 v -20.852 l -7.446,-4.469"/><path id="path4888" style="fill:#000000;fill-opacity:1;fill-rule:nonzero;stroke:none" d="m 294.082,184.77 c 0,-14.461 -11.723,-26.188 -26.184,-26.188 -14.46,0 -26.187,11.727 -26.187,26.188 0,14.465 11.727,26.187 26.187,26.187 14.461,0 26.184,-11.722 26.184,-26.187 z m -6.73,0 c 0,10.742 -8.711,19.453 -19.454,19.453 -10.746,0 -19.453,-8.711 -19.453,-19.453 0,-10.743 8.707,-19.453 19.453,-19.453 10.743,0 19.454,8.71 19.454,19.453"/><path id="path4890" style="fill:#000000;fill-opacity:1;fill-rule:nonzero;stroke:none" d="m 367.164,184.77 c 0,-14.461 -11.726,-26.188 -26.187,-26.188 -14.465,0 -26.188,11.727 -26.188,26.188 0,14.465 11.723,26.187 26.188,26.187 14.461,0 26.187,-11.722 26.187,-26.187 z m -6.734,0 c 0,10.742 -8.711,19.453 -19.453,19.453 -10.747,0 -19.454,-8.711 -19.454,-19.453 0,-10.743 8.707,-19.453 19.454,-19.453 10.742,0 19.453,8.71 19.453,19.453"/><path id="path4892" style="fill:#000000;fill-opacity:1;fill-rule:nonzero;stroke:none" d="m 248.203,204.223 v 10.476 l -11.973,8.973 4.493,5.988 7.48,-5.609 15.711,23.566 c 1.414,1.887 3.629,2.993 5.984,2.993 h 11.223 v 7.48 h -14.965 c -2.273,0 -4.113,1.844 -4.113,4.117 0,2.274 1.84,4.113 4.113,4.113 h 14.965 v 10.848 c 0,4.754 3.856,8.606 8.602,8.606 4.754,0 8.609,-3.852 8.609,-8.606 v -32.543 h 68.832 v -40.402 h -6.492 c -5.203,5.265 -12.297,8.23 -19.695,8.23 -7.403,0 -14.497,-2.965 -19.696,-8.23 h -33.687 c -5.199,5.265 -12.297,8.23 -19.696,8.23 -7.402,0 -14.496,-2.965 -19.699,-8.23 z m 12.719,19.449 h 9.726 l 8.977,13.469 h -9.727 l -8.976,-13.469"/><path id="path4894" style="fill:#000000;fill-opacity:1;fill-rule:nonzero;stroke:none" d="m 299.449,298.496 c 0,-5.375 -4.351,-9.726 -9.726,-9.726 -5.368,0 -9.723,4.351 -9.723,9.726 0,5.371 4.355,9.727 9.723,9.727 5.375,0 9.726,-4.356 9.726,-9.727"/><path id="path4896" style="fill:#000000;fill-opacity:1;fill-rule:nonzero;stroke:none" d="m 244.461,204.223 -34.418,8.976 v 3.743 l 34.418,-8.981 v -3.738"/></g></g></svg>