<?xml version="1.0" standalone="no"?>
<!DOCTYPE svg PUBLIC "-//W3C//DTD SVG 1.1//EN" "http://www.w3.org/Graphics/SVG/1.1/DTD/svg11.dtd">
<!--
   ***************************************************************************
   Bundesanstalt fuer Strassenwesen
   RWBA-Symbol
   Bezeichnung:
   Behindertentoiletten
   Ausdehnung in cm:
         X_min     X_max     Y_min     Y_max
         0.00000  15.00000   0.00000  15.00000
-->
<svg width="150" height="150" version="1.1" xmlns="http://www.w3.org/2000/svg">
<!--
   ***************************************************************************
-->
<path fill="white" fill-rule="evenodd" stroke="black" stroke-width="0.25" d="M0 150L0 0L150 0L150 150L0 150Z" />
<!--
      * SYMBOL BEHINDERTENTOILETTE *
-->
<path fill="black" fill-rule="evenodd" stroke="none" d="M81.3043987879131 101.25000165275A30 30 0 0 0 116.770079754253 139.22611880016A30 30 0 0 0 131.925521457834 89.5238795470902A30 30 0 0 0 119.999999686781 81.7157286417986L119.999992610471 87.0871183001674A25 25 0 0 1 124.843141320727 130.116688488241A25 25 0 0 1 85.1568660688019 112.796193211592A25 25 0 0 1 86.5812582520676 101.24999800322L81.3044 101.25Z
  M55.0480957258525 139.775549895041A10 10 0 0 0 66.8563251482522 132.425355663168L75.426743712937 98.1436610842081A2.5 2.5 0 0 1 77.8521 96.25L106.25 96.25A8.75 8.75 0 0 0 115 87.5L115 53.75A8.75 8.75 0 0 0 101.875 46.1722777168862A8.75 8.75 0 0 0 97.5 53.75L97.5 68.75L81.25 68.75A8.75 8.75 0 0 0 72.5 77.5L97.5 77.5L97.5 85L74.8699 85A10 10 0 0 0 65.0918759661188 92.9047086138579L55.0481 139.7756Z
  M115 31.25A10 10 0 0 0 100 22.5897459621556A10 10 0 0 0 100 39.9102540378444A10 10 0 0 0 115 31.25M22.5 45L15 15L19.8214 15L24.6429 36.4286L30.5357 15L33.75 15L39.6429 36.4286L44.4643 15L49.2857 15L41.7857 45L37.7679 45L32.1429 23.3036L26.5179 45L22.5 45Z
  M74.8346601947938 36.428610212947A10.7143 10.7143 0 0 1 57.3874134258357 42.7517624057288A10.7143 10.7143 0 0 1 53.5714 34.5536L53.5714 25.4464A10.7143 10.7143 0 0 1 69.64285 16.1675440162324A10.7143 10.7143 0 0 1 74.8346601947938 23.571389787053L70.1541434083073 23.5714076124168A6.1607 6.1607 0 0 0 59.7276872562969 21.3016751215262A6.1607 6.1607 0 0 0 58.125 25.4464L58.125 34.5536A6.1607 6.1607 0 0 0 67.36605 39.8889227050948A6.1607 6.1607 0 0 0 70.1541434083073 36.4285923875832L74.8346 36.4286Z" />
<!--
       * ROLLSTUHLFAHRER *
        * ROLLSTUHL *
        * KOERPER *
        * KOPF *
       * WC *
-->
</svg>
