<?xml version="1.0" encoding="UTF-8" standalone="no"?>
<!--
   ***************************************************************************
   Bundesanstalt fuer Strassenwesen
   RWB-Symbol Nr.: 9
   Bezeichnung:
   Hafen, Faehrhafen, Faehre
   Ausdehnung in cm:
         X_min     X_max     Y_min     Y_max
         0.00000  15.00000   0.00000  15.00000
-->
<svg
   xmlns:dc="http://purl.org/dc/elements/1.1/"
   xmlns:cc="http://web.resource.org/cc/"
   xmlns:rdf="http://www.w3.org/1999/02/22-rdf-syntax-ns#"
   xmlns:svg="http://www.w3.org/2000/svg"
   xmlns="http://www.w3.org/2000/svg"
   xmlns:sodipodi="http://inkscape.sourceforge.net/DTD/sodipodi-0.dtd"
   xmlns:inkscape="http://www.inkscape.org/namespaces/inkscape"
   width="150"
   height="100"
   version="1.0"
   id="svg2"
   sodipodi:version="0.32"
   inkscape:version="0.43"
   sodipodi:docname="RWBA_Fähre(L).svg"
   sodipodi:docbase="/home/torben/Desktop">
  <metadata
     id="metadata17">
    <rdf:RDF>
      <cc:Work
         rdf:about="">
        <dc:format>image/svg+xml</dc:format>
        <dc:type
           rdf:resource="http://purl.org/dc/dcmitype/StillImage" />
      </cc:Work>
    </rdf:RDF>
  </metadata>
  <defs
     id="defs15" />
  <sodipodi:namedview
     inkscape:window-height="673"
     inkscape:window-width="1024"
     inkscape:pageshadow="2"
     inkscape:pageopacity="0.0"
     borderopacity="1.0"
     bordercolor="#666666"
     pagecolor="#ffffff"
     id="base"
     inkscape:zoom="2.6866667"
     inkscape:cx="75"
     inkscape:cy="48.300784"
     inkscape:window-x="0"
     inkscape:window-y="23"
     inkscape:current-layer="svg2" />
<!--
   ***************************************************************************
--><!--
      INHALT
-->  <path
     d="M 142,67.8453 L 140,68.6786 L 137.85715,69.57143 C 133.28572,71.47619 128.14288,71.47619 123.57146,69.57143 L 119.28574,67.78577 C 114.71432,65.88101 109.57148,65.88101 105.00006,67.78577 L 100.71425,69.57143 C 96.142824,71.47619 90.999976,71.47619 86.428555,69.57143 L 82.142845,67.78577 C 79.879545,66.84273 77.451907,66.3572 75,66.3572 C 72.548093,66.3572 70.120455,66.84273 67.857155,67.78577 L 63.571445,69.57143 C 59.000024,71.47619 53.857176,71.47619 49.28576,69.57143 L 44.99994,67.78577 C 40.42852,65.88101 35.28568,65.88101 30.71426,67.78577 L 26.42854,69.57143 C 21.85712,71.47619 16.71428,71.47619 12.14286,69.57143 L 10,68.6786 L 8,67.8453 L 8,75.8453 L 10,76.6786 L 12.14286,77.57143 C 16.71428,79.47619 21.85712,79.47619 26.42854,77.57143 L 30.71426,75.78577 C 35.28568,73.88101 40.42852,73.88101 44.99994,75.78577 L 49.28576,77.57143 C 53.857176,79.47619 59.000024,79.47619 63.571445,77.57143 L 67.857155,75.78577 C 70.120455,74.84273 72.548093,74.3572 75,74.3572 C 77.451907,74.3572 79.879545,74.84273 82.142845,75.78577 L 86.428555,77.57143 C 90.999976,79.47619 96.142824,79.47619 100.71425,77.57143 L 105.00006,75.78577 C 109.57148,73.88101 114.71432,73.88101 119.28574,75.78577 L 123.57146,77.57143 C 128.14288,79.47619 133.28572,79.47619 137.85715,77.57143 L 140,76.6786 L 142,75.8453 L 142,67.8453 z "
     id="path6"
     style="fill:#000000;fill-rule:evenodd;stroke:none" />
<!--
       OBERE WASSERWELLE
       UNTERE WASSERWELLE
-->  <path
     d="M 142,82.8453 L 140,83.6786 L 137.85715,84.57143 C 133.28572,86.47619 128.14288,86.47619 123.57146,84.57143 L 119.28574,82.78577 C 114.71432,80.88101 109.57148,80.88101 105.00006,82.78577 L 100.71425,84.57143 C 96.142824,86.47619 90.999976,86.47619 86.428555,84.57143 L 82.142845,82.78577 C 79.879545,81.84273 77.451907,81.3572 75,81.3572 C 72.548093,81.3572 70.120455,81.84273 67.857155,82.78577 L 63.571445,84.57143 C 59.000024,86.47619 53.857176,86.47619 49.28576,84.57143 L 44.99994,82.78577 C 40.42852,80.88101 35.28568,80.88101 30.71426,82.78577 L 26.42854,84.57143 C 21.85712,86.47619 16.71428,86.47619 12.14286,84.57143 L 10,83.6786 L 8,82.8453 L 8,90.8453 L 10,91.6786 L 12.14286,92.57143 C 16.71428,94.47619 21.85712,94.47619 26.42854,92.57143 L 30.71426,90.78577 C 35.28568,88.88101 40.42852,88.88101 44.99994,90.78577 L 49.28576,92.57143 C 53.857176,94.47619 59.000024,94.47619 63.571445,92.57143 L 67.857155,90.78577 C 70.120455,89.84273 72.548093,89.3572 75,89.3572 C 77.451907,89.3572 79.879545,89.84273 82.142845,90.78577 L 86.428555,92.57143 C 90.999976,94.47619 96.142824,94.47619 100.71425,92.57143 L 105.00006,90.78577 C 109.57148,88.88101 114.71432,88.88101 119.28574,90.78577 L 123.57146,92.57143 C 128.14288,94.47619 133.28572,94.47619 137.85715,92.57143 L 140,91.6786 L 142,90.8453 L 142,82.8453 z "
     id="path8"
     style="fill:#000000;fill-rule:evenodd;stroke:none" />
<!--
      SCHIFF
-->  <path
     d="M 133.67032,62.753775 C 137.79014,56.870063 140,49.861287 140,42.6786 L 140,40.6786 L 126.6667,40.6786 L 130,33.6786 L 103,33.6786 L 106.3333,26.6786 L 78,26.6786 L 81,20.6786 L 57,20.6786 L 54,26.6786 L 37,26.6786 L 33.6667,33.6786 L 8.5279,33.6786 L 10.663,38.9632 L 10.66302,38.963214 C 11.94059,42.125289 13.70789,45.066574 15.90006,47.679097 L 15.9001,47.6791 L 19.3884,51.3265 L 19.38837,51.326465 C 22.46926,54.998128 24.81771,59.226371 26.30658,63.782276 L 26.3066,63.7823 L 30.71426,61.821469 C 35.28568,59.91671 40.42852,59.91671 44.99994,61.821469 L 49.28576,63.607131 C 53.857176,65.51189 59.000024,65.51189 63.571445,63.607131 L 67.857155,61.821469 C 70.120455,60.878427 72.548093,60.3929 75,60.3929 C 77.451907,60.3929 79.879545,60.878427 82.142845,61.821469 L 86.428555,63.607131 C 90.999976,65.51189 96.142824,65.51189 100.71425,63.607131 L 105.00006,61.821469 C 109.57148,59.91671 114.71432,59.91671 119.28574,61.821469 L 123.57146,63.607131 C 125.83476,64.55017 128.26239,65.0357 130.7143,65.0357 L 130.99382,65.0357 C 132.06563,64.51526 132.98686,63.729843 133.67026,62.753835 L 133.67032,62.753775 z "
     id="path10"
     style="fill:#000000;fill-rule:evenodd;stroke:none" />
<!--
      HECK
      AUFBAU
      SCHORNSTEIN UNTERTEIL
      VORDECK
      BUG
      GEWELLTE WASSERLINIE
      SCHORNSTEIN
-->  <path
     d="M 59,14.6786 L 83,14.6786 L 86.3333,7.6786 L 62.3333,7.6786 L 59,14.6786 z "
     id="path12"
     style="fill:#000000;fill-rule:evenodd;stroke:none" />
</svg>
