<?xml version="1.0" encoding="UTF-8" standalone="no"?>
<svg
   version="1.2"
   width="150.00999mm"
   height="149.95999mm"
   viewBox="0 0 15001 14995.999"
   preserveAspectRatio="xMidYMid"
   fill-rule="evenodd"
   stroke-width="28.222"
   stroke-linejoin="round"
   xml:space="preserve"
   id="svg31"
   sodipodi:docname="ID15a18.svg"
   inkscape:version="1.2.2 (b0a8486541, 2022-12-01)"
   xmlns:inkscape="http://www.inkscape.org/namespaces/inkscape"
   xmlns:sodipodi="http://sodipodi.sourceforge.net/DTD/sodipodi-0.dtd"
   xmlns="http://www.w3.org/2000/svg"
   xmlns:svg="http://www.w3.org/2000/svg"
   xmlns:ooo="http://xml.openoffice.org/svg/export"><sodipodi:namedview
   id="namedview31"
   pagecolor="#ffffff"
   bordercolor="#000000"
   borderopacity="0.25"
   inkscape:showpageshadow="2"
   inkscape:pageopacity="0.0"
   inkscape:pagecheckerboard="true"
   inkscape:deskcolor="#d1d1d1"
   inkscape:document-units="mm"
   fit-margin-top="50"
   fit-margin-left="50"
   fit-margin-right="50"
   fit-margin-bottom="50"
   showgrid="false"
   inkscape:zoom="5.4624021"
   inkscape:cx="543.07609"
   inkscape:cy="29.474212"
   inkscape:window-width="1280"
   inkscape:window-height="731"
   inkscape:window-x="0"
   inkscape:window-y="0"
   inkscape:window-maximized="1"
   inkscape:current-layer="svg31" />
 <defs
   class="ClipPathGroup"
   id="defs2">
  <clipPath
   id="presentation_clip_path"
   clipPathUnits="userSpaceOnUse">
   <rect
   x="0"
   y="0"
   width="21001"
   height="29703"
   id="rect1" />
  </clipPath>
  <clipPath
   id="presentation_clip_path_shrink"
   clipPathUnits="userSpaceOnUse">
   <rect
   x="21"
   y="29"
   width="20959"
   height="29644"
   id="rect2" />
  </clipPath>
 </defs>
 <defs
   class="TextShapeIndex"
   id="defs3">
  <g
   ooo:slide="id1"
   ooo:id-list="id3 id4 id5 id6 id7 id8 id9 id10 id11 id12 id13 id14 id15 id16"
   id="g2" />
 </defs>
 <defs
   class="EmbeddedBulletChars"
   id="defs12">
  <g
   id="bullet-char-template-57356"
   transform="matrix(4.8828125e-4,0,0,-4.8828125e-4,0,0)">
   <path
   d="M 580,1141 1163,571 580,0 -4,571 Z"
   id="path3" />
  </g>
  <g
   id="bullet-char-template-57354"
   transform="matrix(4.8828125e-4,0,0,-4.8828125e-4,0,0)">
   <path
   d="M 8,1128 H 1137 V 0 H 8 Z"
   id="path4" />
  </g>
  <g
   id="bullet-char-template-10146"
   transform="matrix(4.8828125e-4,0,0,-4.8828125e-4,0,0)">
   <path
   d="M 174,0 602,739 174,1481 1456,739 Z M 1358,739 309,1346 659,739 Z"
   id="path5" />
  </g>
  <g
   id="bullet-char-template-10132"
   transform="matrix(4.8828125e-4,0,0,-4.8828125e-4,0,0)">
   <path
   d="M 2015,739 1276,0 H 717 l 543,543 H 174 v 393 h 1086 l -543,545 h 557 z"
   id="path6" />
  </g>
  <g
   id="bullet-char-template-10007"
   transform="matrix(4.8828125e-4,0,0,-4.8828125e-4,0,0)">
   <path
   d="m 0,-2 c -7,16 -16,29 -25,39 l 381,530 c -94,256 -141,385 -141,387 0,25 13,38 40,38 9,0 21,-2 34,-5 21,4 42,12 65,25 l 27,-13 111,-251 280,301 64,-25 24,25 c 21,-10 41,-24 62,-43 C 886,937 835,863 770,784 769,783 710,716 594,584 L 774,223 c 0,-27 -21,-55 -63,-84 l 16,-20 C 717,90 699,76 672,76 641,76 570,178 457,381 L 164,-76 c -22,-34 -53,-51 -92,-51 -42,0 -63,17 -64,51 -7,9 -10,24 -10,44 0,9 1,19 2,30 z"
   id="path7" />
  </g>
  <g
   id="bullet-char-template-10004"
   transform="matrix(4.8828125e-4,0,0,-4.8828125e-4,0,0)">
   <path
   d="M 285,-33 C 182,-33 111,30 74,156 52,228 41,333 41,471 c 0,78 14,145 41,201 34,71 87,106 158,106 53,0 88,-31 106,-94 l 23,-176 c 8,-64 28,-97 59,-98 l 735,706 c 11,11 33,17 66,17 42,0 63,-15 63,-46 V 965 c 0,-36 -10,-64 -30,-84 L 442,47 C 390,-6 338,-33 285,-33 Z"
   id="path8" />
  </g>
  <g
   id="bullet-char-template-9679"
   transform="matrix(4.8828125e-4,0,0,-4.8828125e-4,0,0)">
   <path
   d="M 813,0 C 632,0 489,54 383,161 276,268 223,411 223,592 c 0,181 53,324 160,431 106,107 249,161 430,161 179,0 323,-54 432,-161 108,-107 162,-251 162,-431 0,-180 -54,-324 -162,-431 C 1136,54 992,0 813,0 Z"
   id="path9" />
  </g>
  <g
   id="bullet-char-template-8226"
   transform="matrix(4.8828125e-4,0,0,-4.8828125e-4,0,0)">
   <path
   d="m 346,457 c -73,0 -137,26 -191,78 -54,51 -81,114 -81,188 0,73 27,136 81,188 54,52 118,78 191,78 73,0 134,-26 185,-79 51,-51 77,-114 77,-187 0,-75 -25,-137 -76,-188 -50,-52 -112,-78 -186,-78 z"
   id="path10" />
  </g>
  <g
   id="bullet-char-template-8211"
   transform="matrix(4.8828125e-4,0,0,-4.8828125e-4,0,0)">
   <path
   d="M -4,459 H 1135 V 606 H -4 Z"
   id="path11" />
  </g>
  <g
   id="bullet-char-template-61548"
   transform="matrix(4.8828125e-4,0,0,-4.8828125e-4,0,0)">
   <path
   d="m 173,740 c 0,163 58,303 173,419 116,115 255,173 419,173 163,0 302,-58 418,-173 116,-116 174,-256 174,-419 0,-163 -58,-303 -174,-418 C 1067,206 928,148 765,148 601,148 462,206 346,322 231,437 173,577 173,740 Z"
   id="path12" />
  </g>
 </defs>
 <g
   id="g12"
   transform="translate(-2652,-5770)">
  <g
   id="id2"
   class="Master_Slide">
   <g
   id="bg-id2"
   class="Background" />
   <g
   id="bo-id2"
   class="BackgroundObjects" />
  </g>
 </g>
 <g
   class="SlideGroup"
   id="g31"
   transform="translate(-2652,-5770)">
  <g
   id="g30">
   <g
   id="container-id1">
    <g
   id="id1"
   class="Slide"
   clip-path="url(#presentation_clip_path)">
     <g
   class="Page"
   id="g29">
      <g
   class="Group"
   id="g28">
       <g
   class="com.sun.star.drawing.PolyPolygonShape"
   id="g13">
        <g
   id="id3">
         <rect
   class="BoundingBox"
   stroke="none"
   fill="none"
   x="2652"
   y="5770"
   width="15001"
   height="14996"
   id="rect12" />
         <path
   fill="#fefefe"
   stroke="none"
   d="M 2653,5770 V 20765 H 17652 V 5770 Z"
   id="path13" />
        </g>
       </g>
       <g
   class="Group"
   id="g18"
   style="display:none">
        <g
   class="com.sun.star.drawing.LineShape"
   id="g14">
         <g
   id="id4">
          <rect
   class="BoundingBox"
   stroke="none"
   fill="none"
   x="2628"
   y="5771"
   width="53"
   height="14994"
   id="rect13" />
          <path
   fill="none"
   stroke="#1b1918"
   stroke-width="51"
   stroke-linejoin="miter"
   d="M 2654,20764 V 5771"
   id="path14" />
         </g>
        </g>
        <g
   class="com.sun.star.drawing.LineShape"
   id="g15">
         <g
   id="id5">
          <rect
   class="BoundingBox"
   stroke="none"
   fill="none"
   x="2654"
   y="20739"
   width="14997"
   height="53"
   id="rect14" />
          <path
   fill="none"
   stroke="#1b1918"
   stroke-width="51"
   stroke-linejoin="miter"
   d="M 17650,20765 H 2654"
   id="path15" />
         </g>
        </g>
        <g
   class="com.sun.star.drawing.LineShape"
   id="g16">
         <g
   id="id6">
          <rect
   class="BoundingBox"
   stroke="none"
   fill="none"
   x="17624"
   y="5771"
   width="53"
   height="14994"
   id="rect15" />
          <path
   fill="none"
   stroke="#1b1918"
   stroke-width="51"
   stroke-linejoin="miter"
   d="M 17650,5771 V 20764"
   id="path16" />
         </g>
        </g>
        <g
   class="com.sun.star.drawing.LineShape"
   id="g17">
         <g
   id="id7">
          <rect
   class="BoundingBox"
   stroke="none"
   fill="none"
   x="2654"
   y="5745"
   width="14997"
   height="53"
   id="rect16" />
          <path
   fill="none"
   stroke="#1b1918"
   stroke-width="51"
   stroke-linejoin="miter"
   d="M 2654,5771 H 17650"
   id="path17" />
         </g>
        </g>
       </g>
       <g
   class="com.sun.star.drawing.ClosedBezierShape"
   id="g19">
        <g
   id="id8">
         <rect
   class="BoundingBox"
   stroke="none"
   fill="none"
   x="11747"
   y="6271"
   width="5405"
   height="13995"
   id="rect18" />
         <path
   fill="#826500"
   stroke="none"
   d="m 11747,20265 5404,-2 V 6271 l -5404,2 c 449,279 807,536 1198,993 l 3208,3 v 11996 h -3208 c -322,398 -762,724 -1198,1000 z"
   id="path18" />
        </g>
       </g>
       <g
   class="com.sun.star.drawing.ClosedBezierShape"
   id="g20">
        <g
   id="id9">
         <rect
   class="BoundingBox"
   stroke="none"
   fill="none"
   x="3155"
   y="6270"
   width="5394"
   height="13996"
   id="rect19" />
         <path
   fill="#826500"
   stroke="none"
   d="m 8548,20265 -5393,-2 V 6271 l 5393,2 c -427,252 -843,561 -1199,993 l -3196,3 v 11996 h 3196 c 320,403 775,726 1199,1000 z"
   id="path19" />
        </g>
       </g>
       <g
   class="com.sun.star.drawing.ClosedBezierShape"
   id="g21">
        <g
   id="id10">
         <rect
   class="BoundingBox"
   stroke="none"
   fill="none"
   x="6705"
   y="17398"
   width="6873"
   height="2875"
   id="rect20" />
         <path
   fill="#826500"
   stroke="none"
   d="m 13577,17401 c -781,1742 -2031,2871 -3438,2871 -1410,0 -2660,-1132 -3434,-2873 z"
   id="path20" />
        </g>
       </g>
       <g
   class="com.sun.star.drawing.OpenBezierShape"
   id="g22">
        <g
   id="id11">
         <rect
   class="BoundingBox"
   stroke="none"
   fill="none"
   x="8285"
   y="16235"
   width="16"
   height="9"
   id="rect21" />
         <path
   fill="none"
   stroke="#ffec00"
   stroke-width="3"
   stroke-linejoin="miter"
   d="m 8285,16237 c 5,0 12,4 15,4"
   id="path21" />
        </g>
       </g>
       <g
   class="com.sun.star.drawing.ClosedBezierShape"
   id="g23">
        <g
   id="id12">
         <rect
   class="BoundingBox"
   stroke="none"
   fill="none"
   x="5879"
   y="11207"
   width="8519"
   height="6011"
   id="rect22" />
         <path
   fill="#826500"
   stroke="none"
   d="m 14209,11207 c -25,190 -81,435 -98,446 -385,1042 -1416,1755 -2349,2258 -227,146 -458,292 -665,478 22,31 137,84 137,84 144,73 56,309 82,438 -65,9 -90,-56 -135,0 -388,188 -792,323 -1320,275 l -679,-11 c -14,-34 -76,-3 -107,-25 -160,-107 -208,118 -351,118 -34,31 -110,19 -143,45 -202,31 -172,-334 -393,-172 -282,57 -566,146 -863,172 -14,-34 -73,-3 -101,-26 -62,-28 -141,-78 -149,-146 384,-115 766,-182 1158,-294 160,-48 331,-79 491,-138 -17,-87 -67,-154 -59,-267 -432,-416 -925,-725 -1422,-1023 -45,-56 -104,-73 -92,-154 -102,-54 -118,-183 -239,-208 -180,-126 -357,-295 -466,-477 l 45,-65 c -73,-79 -276,-160 -208,-284 45,-53 81,20 143,9 -76,-101 -225,-174 -328,-267 -40,-34 -82,-65 -130,-104 -56,455 -89,924 -89,1399 0,1464 280,2825 746,3949 3,-3 638,-683 1425,-1017 -226,-28 -453,-56 -602,-81 -202,-37 -345,-54 -522,-93 -169,-45 -337,-73 -477,-194 -23,-19 -68,-87 -68,-126 0,-34 76,-115 93,-132 182,-171 573,-216 573,-216 l 19,109 c 3,-8 -348,31 -519,183 -48,42 -70,76 -3,115 112,70 236,115 371,140 174,37 365,68 528,93 224,34 533,73 854,109 1064,-356 2446,-328 2749,-176 54,22 129,75 146,87 54,33 56,143 23,174 -34,146 -719,193 -801,193 -292,0 -1260,-73 -2108,-160 -90,31 -197,82 -250,101 -580,242 -1102,688 -1307,888 h 6901 c 469,-1121 747,-2482 747,-3946 0,-731 -65,-1399 -188,-2061 z"
   id="path22" />
        </g>
       </g>
       <g
   class="com.sun.star.drawing.ClosedBezierShape"
   id="g24">
        <g
   id="id13">
         <rect
   class="BoundingBox"
   stroke="none"
   fill="none"
   x="5991"
   y="6266"
   width="7982"
   height="7879"
   id="rect23" />
         <path
   fill="#826500"
   stroke="none"
   d="m 13972,10231 c -699,-2334 -2154,-3965 -3833,-3965 -2020,0 -3708,2313 -4148,5417 204,177 424,345 637,506 h 81 c 42,14 68,36 121,53 118,62 183,191 309,247 -34,-87 -84,-199 -70,-331 109,64 182,193 272,294 317,304 688,528 1092,677 531,216 986,565 1362,1014 146,-23 212,-157 321,-236 700,-831 1761,-1165 2373,-2078 160,-171 247,-396 354,-587 11,-19 87,-28 104,0 -11,37 36,23 34,56 64,-120 95,-255 193,-359 40,-17 54,-76 118,-53 l 68,64 c -6,-98 36,-151 33,-247 37,-3 6,-50 31,-64 42,-104 84,-236 208,-276 59,9 79,85 101,129 73,-36 45,-176 129,-227 28,-28 79,-39 110,-34 z"
   id="path23" />
        </g>
       </g>
       <g
   class="com.sun.star.drawing.ClosedBezierShape"
   id="g25">
        <g
   id="id14">
         <rect
   class="BoundingBox"
   stroke="none"
   fill="none"
   x="10998"
   y="14527"
   width="216"
   height="215"
   id="rect24" />
         <path
   fill="#826500"
   stroke="none"
   d="m 11104,14741 c 60,0 108,-48 108,-108 0,-59 -48,-106 -108,-106 -59,0 -106,47 -106,106 0,60 47,108 106,108 z"
   id="path24" />
        </g>
       </g>
       <g
   class="com.sun.star.drawing.ClosedBezierShape"
   id="g26">
        <g
   id="id15">
         <rect
   class="BoundingBox"
   stroke="none"
   fill="none"
   x="7988"
   y="7209"
   width="2435"
   height="2151"
   id="rect25" />
         <path
   fill="#ffffff"
   stroke="none"
   d="m 9432,7239 c 48,3 95,12 140,26 11,5 20,8 25,19 6,42 -269,554 -289,616 3,0 14,17 28,11 42,-58 68,-64 73,-70 42,-36 146,-102 146,-102 34,-22 186,-126 233,-154 35,-6 55,-28 86,-34 19,-8 45,-8 59,8 16,26 42,45 47,79 17,51 48,98 59,153 14,5 -2,19 -2,28 -17,14 -34,22 -51,36 -6,0 -8,9 -11,12 -17,2 -26,19 -42,19 -82,70 -161,118 -246,183 v 3 c 206,39 392,109 580,193 31,12 62,26 90,42 h 5 c 23,17 56,14 59,51 -3,11 -3,22 -14,28 -28,39 -34,87 -62,126 -19,12 -36,28 -59,28 -14,9 -30,3 -47,9 -9,-9 -20,-14 -31,-9 -34,12 -73,26 -110,9 -61,-34 -126,-67 -193,-90 -142,-53 -282,-90 -437,-98 h -98 c -8,5 -8,14 -8,22 14,20 33,26 50,42 70,82 157,169 242,239 75,76 161,138 236,214 54,43 26,113 43,169 2,11 2,25 -9,31 -11,0 -14,5 -22,8 -26,9 -45,28 -68,45 -11,11 -17,17 -26,31 l 3,3 c -17,28 -48,36 -79,42 -5,3 -14,6 -22,8 -14,-5 -20,17 -34,9 -50,-56 -118,-101 -171,-160 -28,-23 -54,-51 -84,-68 -85,-87 -152,-171 -242,-256 0,11 0,14 0,25 -6,66 11,133 17,195 14,76 28,149 42,222 11,47 17,98 14,149 -6,8 -3,19 -14,22 -28,14 -53,-3 -81,-6 -9,-11 -23,-8 -31,-16 -14,2 -37,-3 -48,5 -8,-3 -14,6 -25,3 -3,8 -3,-3 -9,0 -19,-3 -39,-8 -59,-8 -19,-9 -42,-12 -61,-17 -9,-12 -9,-28 -12,-40 -28,-134 -59,-278 -61,-412 -9,-23 2,-52 -6,-72 -87,88 -163,187 -222,291 -22,16 -32,64 -68,47 -3,0 -6,-2 -9,0 -5,-2 -11,-14 -11,-19 -6,-12 -17,-14 -25,-23 -37,-5 -70,-17 -104,-28 -20,-5 -23,-28 -39,-39 -6,-23 -40,-25 -43,-48 -5,-8 -2,-14 3,-22 11,-14 14,-31 28,-45 68,-97 141,-195 214,-282 63,-82 147,-157 203,-247 14,-20 -14,-20 -20,-31 -19,-11 -47,-3 -70,-11 -53,0 -99,-12 -155,-6 -34,-6 -82,34 -104,-14 -6,-3 -9,-14 -17,-11 -9,8 -25,5 -31,19 -17,3 -37,-2 -53,3 -65,11 -135,17 -200,26 -17,0 -39,11 -59,2 -22,-11 -19,-39 -22,-59 -17,-8 -23,-28 -37,-45 -2,-28 -8,-53 -16,-81 2,-6 5,-11 11,-11 5,0 8,-3 11,-6 l -3,-17 c 11,-17 34,-14 48,-25 48,-22 107,-22 157,-36 110,-20 233,-17 348,-23 9,-6 -2,-8 -2,-14 -23,-36 -45,-73 -65,-109 -34,-57 -79,-102 -110,-161 -11,-11 -19,-26 -30,-34 -9,-11 -15,-28 -26,-42 -3,-26 -19,-62 6,-79 64,-53 121,-112 194,-152 0,-14 16,-5 22,-14 3,9 11,0 17,0 28,9 37,37 51,59 9,20 6,48 29,59 59,37 67,110 109,160 39,77 107,133 155,201 11,3 11,14 22,17 -3,8 8,5 8,14 17,-48 31,-96 48,-144 28,-79 42,-163 70,-242 6,-34 23,-62 31,-93 17,-33 23,-70 37,-104 0,-19 17,-31 19,-50 3,-6 45,-73 43,-79 14,-14 28,-33 44,-33 68,8 132,30 200,30 z"
   id="path25" />
        </g>
       </g>
       <g
   class="com.sun.star.drawing.ClosedBezierShape"
   id="g27">
        <g
   id="id16">
         <rect
   class="BoundingBox"
   stroke="none"
   fill="none"
   x="8592"
   y="15950"
   width="2533"
   height="334"
   id="rect26" />
         <path
   fill="#826500"
   stroke="none"
   d="m 11064,16178 c -183,91 -599,105 -660,105 -245,0 -1052,-64 -1812,-138 1019,-276 2255,-217 2483,-71 42,28 90,54 -11,104 z"
   id="path26" />
        </g>
       </g>
      </g>
     </g>
    </g>
   </g>
  </g>
 </g>
</svg>
