<?xml version="1.0" encoding="UTF-8" standalone="no"?>
<svg
   version="1.2"
   width="150.00999mm"
   height="149.95999mm"
   viewBox="0 0 15001 14995.999"
   preserveAspectRatio="xMidYMid"
   fill-rule="evenodd"
   stroke-width="28.222"
   stroke-linejoin="round"
   xml:space="preserve"
   id="svg31"
   sodipodi:docname="ID15a12.svg"
   inkscape:version="1.2.2 (b0a8486541, 2022-12-01)"
   xmlns:inkscape="http://www.inkscape.org/namespaces/inkscape"
   xmlns:sodipodi="http://sodipodi.sourceforge.net/DTD/sodipodi-0.dtd"
   xmlns="http://www.w3.org/2000/svg"
   xmlns:svg="http://www.w3.org/2000/svg"
   xmlns:ooo="http://xml.openoffice.org/svg/export"><sodipodi:namedview
   id="namedview31"
   pagecolor="#ffffff"
   bordercolor="#000000"
   borderopacity="0.25"
   inkscape:showpageshadow="2"
   inkscape:pageopacity="0.0"
   inkscape:pagecheckerboard="true"
   inkscape:deskcolor="#d1d1d1"
   inkscape:document-units="mm"
   fit-margin-top="50"
   fit-margin-left="50"
   fit-margin-right="50"
   fit-margin-bottom="50"
   showgrid="false"
   inkscape:zoom="3.8276911"
   inkscape:cx="527.60265"
   inkscape:cy="33.963033"
   inkscape:window-width="1280"
   inkscape:window-height="731"
   inkscape:window-x="0"
   inkscape:window-y="0"
   inkscape:window-maximized="1"
   inkscape:current-layer="svg31" />
 <defs
   class="ClipPathGroup"
   id="defs2">
  <clipPath
   id="presentation_clip_path"
   clipPathUnits="userSpaceOnUse">
   <rect
   x="0"
   y="0"
   width="21001"
   height="29703"
   id="rect1" />
  </clipPath>
  <clipPath
   id="presentation_clip_path_shrink"
   clipPathUnits="userSpaceOnUse">
   <rect
   x="21"
   y="29"
   width="20959"
   height="29644"
   id="rect2" />
  </clipPath>
 </defs>
 <defs
   class="TextShapeIndex"
   id="defs3">
  <g
   ooo:slide="id1"
   ooo:id-list="id3 id4 id5 id6 id7 id8 id9 id10 id11 id12 id13 id14 id15 id16"
   id="g2" />
 </defs>
 <defs
   class="EmbeddedBulletChars"
   id="defs12">
  <g
   id="bullet-char-template-57356"
   transform="matrix(4.8828125e-4,0,0,-4.8828125e-4,0,0)">
   <path
   d="M 580,1141 1163,571 580,0 -4,571 Z"
   id="path3" />
  </g>
  <g
   id="bullet-char-template-57354"
   transform="matrix(4.8828125e-4,0,0,-4.8828125e-4,0,0)">
   <path
   d="M 8,1128 H 1137 V 0 H 8 Z"
   id="path4" />
  </g>
  <g
   id="bullet-char-template-10146"
   transform="matrix(4.8828125e-4,0,0,-4.8828125e-4,0,0)">
   <path
   d="M 174,0 602,739 174,1481 1456,739 Z M 1358,739 309,1346 659,739 Z"
   id="path5" />
  </g>
  <g
   id="bullet-char-template-10132"
   transform="matrix(4.8828125e-4,0,0,-4.8828125e-4,0,0)">
   <path
   d="M 2015,739 1276,0 H 717 l 543,543 H 174 v 393 h 1086 l -543,545 h 557 z"
   id="path6" />
  </g>
  <g
   id="bullet-char-template-10007"
   transform="matrix(4.8828125e-4,0,0,-4.8828125e-4,0,0)">
   <path
   d="m 0,-2 c -7,16 -16,29 -25,39 l 381,530 c -94,256 -141,385 -141,387 0,25 13,38 40,38 9,0 21,-2 34,-5 21,4 42,12 65,25 l 27,-13 111,-251 280,301 64,-25 24,25 c 21,-10 41,-24 62,-43 C 886,937 835,863 770,784 769,783 710,716 594,584 L 774,223 c 0,-27 -21,-55 -63,-84 l 16,-20 C 717,90 699,76 672,76 641,76 570,178 457,381 L 164,-76 c -22,-34 -53,-51 -92,-51 -42,0 -63,17 -64,51 -7,9 -10,24 -10,44 0,9 1,19 2,30 z"
   id="path7" />
  </g>
  <g
   id="bullet-char-template-10004"
   transform="matrix(4.8828125e-4,0,0,-4.8828125e-4,0,0)">
   <path
   d="M 285,-33 C 182,-33 111,30 74,156 52,228 41,333 41,471 c 0,78 14,145 41,201 34,71 87,106 158,106 53,0 88,-31 106,-94 l 23,-176 c 8,-64 28,-97 59,-98 l 735,706 c 11,11 33,17 66,17 42,0 63,-15 63,-46 V 965 c 0,-36 -10,-64 -30,-84 L 442,47 C 390,-6 338,-33 285,-33 Z"
   id="path8" />
  </g>
  <g
   id="bullet-char-template-9679"
   transform="matrix(4.8828125e-4,0,0,-4.8828125e-4,0,0)">
   <path
   d="M 813,0 C 632,0 489,54 383,161 276,268 223,411 223,592 c 0,181 53,324 160,431 106,107 249,161 430,161 179,0 323,-54 432,-161 108,-107 162,-251 162,-431 0,-180 -54,-324 -162,-431 C 1136,54 992,0 813,0 Z"
   id="path9" />
  </g>
  <g
   id="bullet-char-template-8226"
   transform="matrix(4.8828125e-4,0,0,-4.8828125e-4,0,0)">
   <path
   d="m 346,457 c -73,0 -137,26 -191,78 -54,51 -81,114 -81,188 0,73 27,136 81,188 54,52 118,78 191,78 73,0 134,-26 185,-79 51,-51 77,-114 77,-187 0,-75 -25,-137 -76,-188 -50,-52 -112,-78 -186,-78 z"
   id="path10" />
  </g>
  <g
   id="bullet-char-template-8211"
   transform="matrix(4.8828125e-4,0,0,-4.8828125e-4,0,0)">
   <path
   d="M -4,459 H 1135 V 606 H -4 Z"
   id="path11" />
  </g>
  <g
   id="bullet-char-template-61548"
   transform="matrix(4.8828125e-4,0,0,-4.8828125e-4,0,0)">
   <path
   d="m 173,740 c 0,163 58,303 173,419 116,115 255,173 419,173 163,0 302,-58 418,-173 116,-116 174,-256 174,-419 0,-163 -58,-303 -174,-418 C 1067,206 928,148 765,148 601,148 462,206 346,322 231,437 173,577 173,740 Z"
   id="path12" />
  </g>
 </defs>
 <g
   id="g12"
   transform="translate(-2652,-5770)">
  <g
   id="id2"
   class="Master_Slide">
   <g
   id="bg-id2"
   class="Background" />
   <g
   id="bo-id2"
   class="BackgroundObjects" />
  </g>
 </g>
 <g
   class="SlideGroup"
   id="g31"
   transform="translate(-2652,-5770)">
  <g
   id="g30">
   <g
   id="container-id1">
    <g
   id="id1"
   class="Slide"
   clip-path="url(#presentation_clip_path)">
     <g
   class="Page"
   id="g29">
      <g
   class="Group"
   id="g28">
       <g
   class="com.sun.star.drawing.PolyPolygonShape"
   id="g13">
        <g
   id="id3">
         <rect
   class="BoundingBox"
   stroke="none"
   fill="none"
   x="2652"
   y="5770"
   width="15001"
   height="14996"
   id="rect12" />
         <path
   fill="#fefefe"
   stroke="none"
   d="M 2653,5770 V 20765 H 17652 V 5770 Z"
   id="path13" />
        </g>
       </g>
       <g
   class="Group"
   id="g18"
   style="display:none">
        <g
   class="com.sun.star.drawing.LineShape"
   id="g14">
         <g
   id="id4">
          <rect
   class="BoundingBox"
   stroke="none"
   fill="none"
   x="2628"
   y="5771"
   width="53"
   height="14994"
   id="rect13" />
          <path
   fill="none"
   stroke="#1b1918"
   stroke-width="51"
   stroke-linejoin="miter"
   d="M 2654,20764 V 5771"
   id="path14" />
         </g>
        </g>
        <g
   class="com.sun.star.drawing.LineShape"
   id="g15">
         <g
   id="id5">
          <rect
   class="BoundingBox"
   stroke="none"
   fill="none"
   x="2654"
   y="20739"
   width="14997"
   height="53"
   id="rect14" />
          <path
   fill="none"
   stroke="#1b1918"
   stroke-width="51"
   stroke-linejoin="miter"
   d="M 17650,20765 H 2654"
   id="path15" />
         </g>
        </g>
        <g
   class="com.sun.star.drawing.LineShape"
   id="g16">
         <g
   id="id6">
          <rect
   class="BoundingBox"
   stroke="none"
   fill="none"
   x="17624"
   y="5771"
   width="53"
   height="14994"
   id="rect15" />
          <path
   fill="none"
   stroke="#1b1918"
   stroke-width="51"
   stroke-linejoin="miter"
   d="M 17650,5771 V 20764"
   id="path16" />
         </g>
        </g>
        <g
   class="com.sun.star.drawing.LineShape"
   id="g17">
         <g
   id="id7">
          <rect
   class="BoundingBox"
   stroke="none"
   fill="none"
   x="2654"
   y="5745"
   width="14997"
   height="53"
   id="rect16" />
          <path
   fill="none"
   stroke="#1b1918"
   stroke-width="51"
   stroke-linejoin="miter"
   d="M 2654,5771 H 17650"
   id="path17" />
         </g>
        </g>
       </g>
       <g
   class="com.sun.star.drawing.ClosedBezierShape"
   id="g19">
        <g
   id="id8">
         <rect
   class="BoundingBox"
   stroke="none"
   fill="none"
   x="11747"
   y="6271"
   width="5405"
   height="13995"
   id="rect18" />
         <path
   fill="#826500"
   stroke="none"
   d="m 11747,20265 5404,-2 V 6271 l -5404,2 c 449,279 807,536 1198,993 l 3208,3 v 11996 h -3208 c -322,398 -762,724 -1198,1000 z"
   id="path18" />
        </g>
       </g>
       <g
   class="com.sun.star.drawing.ClosedBezierShape"
   id="g20">
        <g
   id="id9">
         <rect
   class="BoundingBox"
   stroke="none"
   fill="none"
   x="3155"
   y="6270"
   width="5394"
   height="13996"
   id="rect19" />
         <path
   fill="#826500"
   stroke="none"
   d="m 8548,20265 -5393,-2 V 6271 l 5393,2 c -427,252 -843,561 -1199,993 l -3196,3 v 11996 h 3196 c 320,403 775,726 1199,1000 z"
   id="path19" />
        </g>
       </g>
       <g
   class="com.sun.star.drawing.ClosedBezierShape"
   id="g21">
        <g
   id="id10">
         <rect
   class="BoundingBox"
   stroke="none"
   fill="none"
   x="9014"
   y="14236"
   width="516"
   height="815"
   id="rect20" />
         <path
   fill="#826500"
   stroke="none"
   d="m 9521,15050 -507,-8 2,-602 c 14,-77 65,-150 142,-175 92,-49 205,-33 287,31 25,17 76,84 82,169 5,87 -6,585 -6,585 z"
   id="path20" />
        </g>
       </g>
       <g
   class="com.sun.star.drawing.ClosedBezierShape"
   id="g22">
        <g
   id="id11">
         <rect
   class="BoundingBox"
   stroke="none"
   fill="none"
   x="6394"
   y="15262"
   width="7862"
   height="5000"
   id="rect21" />
         <path
   fill="#826500"
   stroke="none"
   d="m 14255,15262 c -79,47 -171,78 -272,61 -28,31 -48,73 -93,90 -104,42 -208,-50 -300,14 -146,115 -326,166 -478,275 -222,158 -435,349 -609,565 -17,17 -39,19 -59,14 -31,-23 -31,-59 -53,-79 l -133,6 c -351,59 -677,179 -1020,258 -269,79 -536,166 -792,275 -118,54 -238,110 -348,183 -73,36 -185,115 -238,3 -31,-79 59,-135 92,-200 -112,-3 -828,253 -1115,444 -36,8 -67,-6 -95,-31 -59,-56 6,-129 28,-185 152,-186 317,-407 525,-525 -488,2 -942,134 -1366,323 -59,8 -134,44 -190,0 -93,-93 61,-172 106,-225 -14,-96 65,-160 135,-211 -98,-50 -230,-42 -348,-56 -200,-8 -332,194 -525,233 -172,59 -323,-39 -452,-135 -113,-19 -160,116 -261,135 716,2236 2140,3767 3777,3767 1929,0 3562,-2103 4084,-4999 z"
   id="path21" />
        </g>
       </g>
       <g
   class="com.sun.star.drawing.ClosedBezierShape"
   id="g23">
        <g
   id="id12">
         <rect
   class="BoundingBox"
   stroke="none"
   fill="none"
   x="5911"
   y="6254"
   width="8524"
   height="10086"
   id="rect22" />
         <path
   fill="#826500"
   stroke="none"
   d="m 14316,14882 c 76,-526 118,-1068 118,-1627 0,-3867 -1910,-7001 -4264,-7001 -2350,0 -4259,3134 -4259,7001 0,765 75,1503 216,2188 53,-53 120,-92 165,-135 116,-78 236,-148 363,-196 64,-25 0,-115 87,-132 154,-65 342,-70 460,-211 20,0 34,20 34,34 0,230 -3,432 0,674 171,42 359,14 531,-14 407,-93 1030,-405 1030,-405 0,0 3,-682 17,-735 48,-157 244,-253 404,-287 202,6 410,59 500,290 17,39 3,755 3,755 371,157 680,525 832,882 51,120 59,272 174,365 73,28 149,-6 191,-54 497,-348 997,-660 1547,-876 320,-146 649,-267 989,-359 0,0 3,-309 14,-463 67,-31 62,64 101,95 14,93 62,183 140,236 132,59 242,-31 360,-56 90,-6 168,-6 247,31 z"
   id="path22" />
        </g>
       </g>
       <g
   class="com.sun.star.drawing.ClosedBezierShape"
   id="g24">
        <g
   id="id13">
         <rect
   class="BoundingBox"
   stroke="none"
   fill="none"
   x="6884"
   y="12928"
   width="6896"
   height="1791"
   id="rect23" />
         <path
   fill="#ffffff"
   stroke="none"
   d="m 7039,14704 c 65,25 135,14 191,-20 l 1331,-1045 c 240,36 493,59 742,20 90,-20 186,-48 273,-62 l 1362,891 c 3,3 188,143 188,143 l 1023,-25 1575,-118 c 132,-37 -19,-233 -19,-233 l -1925,-1108 c -547,-274 -2819,-243 -3058,-162 -242,78 -1736,1326 -1736,1326 -14,87 -114,121 -101,211 11,78 84,148 154,182 z"
   id="path23" />
        </g>
       </g>
       <g
   class="com.sun.star.drawing.ClosedBezierShape"
   id="g25">
        <g
   id="id14">
         <rect
   class="BoundingBox"
   stroke="none"
   fill="none"
   x="7766"
   y="10710"
   width="2298"
   height="2654"
   id="rect24" />
         <path
   fill="#ffffff"
   stroke="none"
   d="m 9324,12674 736,-11 c 25,-205 -158,-404 -276,-542 40,-22 93,-25 127,-59 42,-64 -6,-135 -26,-194 -120,-157 -199,-331 -230,-526 0,0 40,-11 68,-39 30,-28 -3,-56 -12,-81 -92,-138 -278,-472 -325,-500 -26,-19 -73,-13 -90,19 -76,180 -138,363 -225,537 -42,73 48,92 62,147 -67,185 -180,354 -257,536 v 70 c 17,34 58,42 77,68 l -152,286 c -26,42 -37,93 -73,124 -34,-59 -37,-127 -65,-188 31,-34 76,-71 51,-124 -68,-70 -88,-168 -149,-241 -34,-54 53,-79 17,-135 -76,-101 -155,-216 -231,-306 -22,-12 -64,-17 -84,2 -76,124 -126,259 -188,385 -23,39 20,70 42,82 0,0 -112,269 -95,356 5,25 47,28 61,45 -104,149 -42,214 -92,386 14,53 -79,101 -48,129 0,0 -115,42 -81,143 64,34 -62,115 -73,155 -61,59 8,78 -12,165 0,0 607,-441 795,-570 174,-119 748,-119 748,-119 z"
   id="path24" />
        </g>
       </g>
       <g
   class="com.sun.star.drawing.ClosedBezierShape"
   id="g26">
        <g
   id="id15">
         <rect
   class="BoundingBox"
   stroke="none"
   fill="none"
   x="10235"
   y="9368"
   width="3664"
   height="4610"
   id="rect25" />
         <path
   fill="#ffffff"
   stroke="none"
   d="m 10238,12584 c 0,0 -21,87 73,84 1413,-42 1832,310 1995,397 426,225 1685,1008 1545,901 107,-106 -146,-575 -247,-620 -96,-42 143,-62 104,-157 -62,-124 -177,-214 -188,-360 -20,-139 -9,-259 81,-358 96,-22 222,17 292,-78 34,-174 -146,-239 -174,-396 0,0 -239,-390 -362,-545 l -3,-34 c 20,-25 56,-19 84,-33 40,-17 59,-56 56,-98 -16,-166 -56,-321 -154,-453 -62,-89 -124,-179 -146,-286 48,-22 95,-40 146,-52 42,-25 79,-59 67,-115 -81,-109 -95,-221 -224,-255 -26,-25 11,-42 0,-68 -76,-78 -107,-179 -172,-266 23,-12 48,-40 31,-71 -71,-70 -119,-160 -155,-261 -34,-61 -96,-94 -163,-92 -28,5 -36,25 -59,45 -70,188 -163,367 -286,533 -17,39 22,70 42,96 -51,92 -118,179 -183,266 -61,96 -129,177 -182,257 0,0 -40,17 5,81 48,68 208,-115 135,115 -39,48 -59,104 -56,166 8,73 115,79 107,146 -90,93 -211,155 -239,287 -48,117 -152,210 -239,300 -56,-70 -64,-174 -129,-244 -25,-34 17,-51 42,-65 31,-25 48,-59 40,-104 -127,-98 -152,-222 -236,-342 -28,-87 90,-28 112,-93 31,-56 -22,-101 -48,-143 -92,-156 -191,-305 -295,-456 -19,-37 -58,-68 -107,-62 -40,9 -62,53 -84,82 -71,103 -90,188 -152,295 -53,90 -53,90 -101,225 -6,59 70,79 104,98 3,48 -28,82 -54,115 -75,144 -157,284 -230,427 9,48 51,68 84,96 -16,140 -168,210 -216,337 14,28 39,47 65,67 -56,79 -219,286 -219,286 -99,346 345,26 -37,321 0,0 -91,67 -70,84 z"
   id="path25" />
        </g>
       </g>
       <g
   class="com.sun.star.drawing.ClosedBezierShape"
   id="g27">
        <g
   id="id16">
         <rect
   class="BoundingBox"
   stroke="none"
   fill="none"
   x="8023"
   y="7201"
   width="2434"
   height="2147"
   id="rect26" />
         <path
   fill="#ffffff"
   stroke="none"
   d="m 9467,7231 c 48,3 92,12 140,23 9,5 17,8 23,20 5,42 -267,553 -290,614 6,0 17,17 31,12 42,-59 65,-65 73,-71 40,-36 146,-101 146,-101 31,-22 183,-126 231,-157 37,-3 54,-25 85,-34 19,-5 45,-5 59,12 17,25 45,45 48,78 19,51 47,99 59,152 14,6 -3,20 0,28 -20,14 -37,20 -51,37 -6,0 -8,8 -14,11 -14,3 -23,19 -39,19 -82,71 -164,118 -248,183 v 3 c 205,36 394,109 582,193 31,12 62,27 90,44 h 5 c 23,16 59,14 59,50 -3,11 -3,23 -14,28 -28,37 -34,87 -62,127 -16,11 -36,28 -59,28 -16,8 -30,2 -50,8 -9,-8 -17,-14 -31,-11 -31,14 -73,28 -107,11 -64,-34 -129,-67 -196,-90 -139,-53 -279,-90 -434,-98 h -98 c -11,3 -11,14 -8,20 11,22 30,28 47,45 71,81 160,168 242,238 78,76 164,138 237,214 53,42 28,112 45,165 0,14 0,28 -12,34 -8,-3 -14,6 -19,8 -28,9 -48,28 -70,45 -12,12 -15,17 -24,28 v 6 c -17,28 -45,37 -79,42 -5,0 -14,6 -19,9 -17,-6 -23,16 -37,8 -50,-59 -118,-101 -168,-160 -31,-23 -54,-51 -84,-67 -87,-87 -152,-172 -242,-256 -3,11 -3,14 0,25 -8,65 11,132 17,194 14,76 25,149 39,222 14,48 20,98 14,149 -3,8 0,19 -11,22 -28,14 -56,-3 -84,-5 -6,-12 -20,-9 -28,-17 -17,3 -37,-3 -51,5 -8,-5 -14,6 -22,3 -3,6 -6,-3 -12,0 -19,-3 -39,-8 -58,-8 -20,-9 -43,-12 -62,-17 -6,-14 -9,-28 -11,-42 -29,-132 -57,-275 -62,-410 -6,-23 3,-51 -3,-70 -87,87 -163,185 -225,289 -22,17 -32,64 -68,48 -3,0 -6,-3 -9,0 -5,-6 -8,-15 -8,-20 -8,-11 -20,-17 -28,-23 -37,-5 -70,-16 -104,-28 -20,-5 -22,-28 -36,-39 -6,-22 -43,-25 -43,-48 -8,-8 -5,-17 0,-22 14,-14 17,-31 29,-45 67,-96 140,-194 216,-281 63,-81 147,-160 203,-250 14,-17 -17,-17 -23,-28 -19,-11 -47,-3 -67,-11 -56,0 -102,-11 -155,-6 -37,-5 -85,34 -107,-14 -3,-3 -8,-14 -14,-14 -11,11 -28,9 -34,23 -14,2 -36,-3 -53,2 -65,12 -135,17 -200,26 -16,0 -39,11 -56,3 -22,-12 -19,-40 -25,-59 -17,-13 -22,-30 -34,-46 -5,-28 -11,-57 -16,-82 2,-5 5,-11 11,-14 3,3 8,0 11,-3 l -6,-16 c 14,-17 34,-15 51,-26 48,-22 104,-22 154,-36 113,-20 233,-20 351,-23 6,-5 -5,-8 -5,-14 -23,-36 -42,-73 -62,-109 -34,-56 -79,-104 -110,-160 -14,-12 -22,-26 -33,-34 -9,-14 -14,-28 -23,-42 -3,-25 -22,-62 6,-79 62,-53 121,-112 194,-151 -3,-14 14,-6 19,-14 3,5 12,0 17,0 28,5 38,36 52,59 8,19 5,47 31,58 59,37 64,110 109,158 39,76 104,135 155,202 8,3 11,14 19,17 0,8 11,5 9,14 16,-48 30,-96 50,-143 25,-79 39,-163 70,-242 3,-34 23,-62 28,-95 17,-31 23,-68 40,-101 0,-20 17,-34 17,-51 2,-6 45,-70 45,-79 11,-11 25,-30 44,-30 68,8 132,30 200,30 z"
   id="path26" />
        </g>
       </g>
      </g>
     </g>
    </g>
   </g>
  </g>
 </g>
</svg>
