<?xml version="1.0" encoding="UTF-8" standalone="no"?>
<svg
   version="1.2"
   width="150.00999mm"
   height="149.95999mm"
   viewBox="0 0 15001 14995.999"
   preserveAspectRatio="xMidYMid"
   fill-rule="evenodd"
   stroke-width="28.222"
   stroke-linejoin="round"
   xml:space="preserve"
   id="svg32"
   sodipodi:docname="ID15a1.svg"
   inkscape:version="1.2.2 (b0a8486541, 2022-12-01)"
   xmlns:inkscape="http://www.inkscape.org/namespaces/inkscape"
   xmlns:sodipodi="http://sodipodi.sourceforge.net/DTD/sodipodi-0.dtd"
   xmlns="http://www.w3.org/2000/svg"
   xmlns:svg="http://www.w3.org/2000/svg"
   xmlns:ooo="http://xml.openoffice.org/svg/export"><sodipodi:namedview
   id="namedview32"
   pagecolor="#ffffff"
   bordercolor="#000000"
   borderopacity="0.25"
   inkscape:showpageshadow="2"
   inkscape:pageopacity="0.0"
   inkscape:pagecheckerboard="true"
   inkscape:deskcolor="#d1d1d1"
   inkscape:document-units="mm"
   fit-margin-top="50"
   fit-margin-left="50"
   fit-margin-right="50"
   fit-margin-bottom="50"
   showgrid="false"
   inkscape:zoom="6.104657"
   inkscape:cx="-7.780945"
   inkscape:cy="581.52325"
   inkscape:window-width="1280"
   inkscape:window-height="731"
   inkscape:window-x="0"
   inkscape:window-y="0"
   inkscape:window-maximized="1"
   inkscape:current-layer="svg32" />
 <defs
   class="ClipPathGroup"
   id="defs2">
  <clipPath
   id="presentation_clip_path"
   clipPathUnits="userSpaceOnUse">
   <rect
   x="0"
   y="0"
   width="21001"
   height="29703"
   id="rect1" />
  </clipPath>
  <clipPath
   id="presentation_clip_path_shrink"
   clipPathUnits="userSpaceOnUse">
   <rect
   x="21"
   y="29"
   width="20959"
   height="29644"
   id="rect2" />
  </clipPath>
 </defs>
 <defs
   class="TextShapeIndex"
   id="defs3">
  <g
   ooo:slide="id1"
   ooo:id-list="id3 id4 id5 id6 id7 id8 id9 id10 id11 id12 id13 id14 id15 id16 id17"
   id="g2" />
 </defs>
 <defs
   class="EmbeddedBulletChars"
   id="defs12">
  <g
   id="bullet-char-template-57356"
   transform="matrix(4.8828125e-4,0,0,-4.8828125e-4,0,0)">
   <path
   d="M 580,1141 1163,571 580,0 -4,571 Z"
   id="path3" />
  </g>
  <g
   id="bullet-char-template-57354"
   transform="matrix(4.8828125e-4,0,0,-4.8828125e-4,0,0)">
   <path
   d="M 8,1128 H 1137 V 0 H 8 Z"
   id="path4" />
  </g>
  <g
   id="bullet-char-template-10146"
   transform="matrix(4.8828125e-4,0,0,-4.8828125e-4,0,0)">
   <path
   d="M 174,0 602,739 174,1481 1456,739 Z M 1358,739 309,1346 659,739 Z"
   id="path5" />
  </g>
  <g
   id="bullet-char-template-10132"
   transform="matrix(4.8828125e-4,0,0,-4.8828125e-4,0,0)">
   <path
   d="M 2015,739 1276,0 H 717 l 543,543 H 174 v 393 h 1086 l -543,545 h 557 z"
   id="path6" />
  </g>
  <g
   id="bullet-char-template-10007"
   transform="matrix(4.8828125e-4,0,0,-4.8828125e-4,0,0)">
   <path
   d="m 0,-2 c -7,16 -16,29 -25,39 l 381,530 c -94,256 -141,385 -141,387 0,25 13,38 40,38 9,0 21,-2 34,-5 21,4 42,12 65,25 l 27,-13 111,-251 280,301 64,-25 24,25 c 21,-10 41,-24 62,-43 C 886,937 835,863 770,784 769,783 710,716 594,584 L 774,223 c 0,-27 -21,-55 -63,-84 l 16,-20 C 717,90 699,76 672,76 641,76 570,178 457,381 L 164,-76 c -22,-34 -53,-51 -92,-51 -42,0 -63,17 -64,51 -7,9 -10,24 -10,44 0,9 1,19 2,30 z"
   id="path7" />
  </g>
  <g
   id="bullet-char-template-10004"
   transform="matrix(4.8828125e-4,0,0,-4.8828125e-4,0,0)">
   <path
   d="M 285,-33 C 182,-33 111,30 74,156 52,228 41,333 41,471 c 0,78 14,145 41,201 34,71 87,106 158,106 53,0 88,-31 106,-94 l 23,-176 c 8,-64 28,-97 59,-98 l 735,706 c 11,11 33,17 66,17 42,0 63,-15 63,-46 V 965 c 0,-36 -10,-64 -30,-84 L 442,47 C 390,-6 338,-33 285,-33 Z"
   id="path8" />
  </g>
  <g
   id="bullet-char-template-9679"
   transform="matrix(4.8828125e-4,0,0,-4.8828125e-4,0,0)">
   <path
   d="M 813,0 C 632,0 489,54 383,161 276,268 223,411 223,592 c 0,181 53,324 160,431 106,107 249,161 430,161 179,0 323,-54 432,-161 108,-107 162,-251 162,-431 0,-180 -54,-324 -162,-431 C 1136,54 992,0 813,0 Z"
   id="path9" />
  </g>
  <g
   id="bullet-char-template-8226"
   transform="matrix(4.8828125e-4,0,0,-4.8828125e-4,0,0)">
   <path
   d="m 346,457 c -73,0 -137,26 -191,78 -54,51 -81,114 -81,188 0,73 27,136 81,188 54,52 118,78 191,78 73,0 134,-26 185,-79 51,-51 77,-114 77,-187 0,-75 -25,-137 -76,-188 -50,-52 -112,-78 -186,-78 z"
   id="path10" />
  </g>
  <g
   id="bullet-char-template-8211"
   transform="matrix(4.8828125e-4,0,0,-4.8828125e-4,0,0)">
   <path
   d="M -4,459 H 1135 V 606 H -4 Z"
   id="path11" />
  </g>
  <g
   id="bullet-char-template-61548"
   transform="matrix(4.8828125e-4,0,0,-4.8828125e-4,0,0)">
   <path
   d="m 173,740 c 0,163 58,303 173,419 116,115 255,173 419,173 163,0 302,-58 418,-173 116,-116 174,-256 174,-419 0,-163 -58,-303 -174,-418 C 1067,206 928,148 765,148 601,148 462,206 346,322 231,437 173,577 173,740 Z"
   id="path12" />
  </g>
 </defs>
 <g
   id="g12"
   transform="translate(-2652,-5770)">
  <g
   id="id2"
   class="Master_Slide">
   <g
   id="bg-id2"
   class="Background" />
   <g
   id="bo-id2"
   class="BackgroundObjects" />
  </g>
 </g>
 <g
   class="SlideGroup"
   id="g32"
   transform="translate(-2652,-5770)">
  <g
   id="g31">
   <g
   id="container-id1">
    <g
   id="id1"
   class="Slide"
   clip-path="url(#presentation_clip_path)">
     <g
   class="Page"
   id="g30">
      <g
   class="Group"
   id="g29">
       <g
   class="com.sun.star.drawing.PolyPolygonShape"
   id="g13">
        <g
   id="id3">
         <rect
   class="BoundingBox"
   stroke="none"
   fill="none"
   x="2652"
   y="5770"
   width="15001"
   height="14996"
   id="rect12" />
         <path
   fill="#fefefe"
   stroke="none"
   d="M 2653,5770 V 20765 H 17652 V 5770 Z"
   id="path13" />
        </g>
       </g>
       <g
   class="Group"
   id="g18"
   style="display:none">
        <g
   class="com.sun.star.drawing.LineShape"
   id="g14">
         <g
   id="id4">
          <rect
   class="BoundingBox"
   stroke="none"
   fill="none"
   x="2628"
   y="5771"
   width="53"
   height="14994"
   id="rect13" />
          <path
   fill="none"
   stroke="#1b1918"
   stroke-width="51"
   stroke-linejoin="miter"
   d="M 2654,20764 V 5771"
   id="path14" />
         </g>
        </g>
        <g
   class="com.sun.star.drawing.LineShape"
   id="g15">
         <g
   id="id5">
          <rect
   class="BoundingBox"
   stroke="none"
   fill="none"
   x="2654"
   y="20739"
   width="14997"
   height="53"
   id="rect14" />
          <path
   fill="none"
   stroke="#1b1918"
   stroke-width="51"
   stroke-linejoin="miter"
   d="M 17650,20765 H 2654"
   id="path15" />
         </g>
        </g>
        <g
   class="com.sun.star.drawing.LineShape"
   id="g16">
         <g
   id="id6">
          <rect
   class="BoundingBox"
   stroke="none"
   fill="none"
   x="17624"
   y="5771"
   width="53"
   height="14994"
   id="rect15" />
          <path
   fill="none"
   stroke="#1b1918"
   stroke-width="51"
   stroke-linejoin="miter"
   d="M 17650,5771 V 20764"
   id="path16" />
         </g>
        </g>
        <g
   class="com.sun.star.drawing.LineShape"
   id="g17"
   style="display:inline">
         <g
   id="id7">
          <rect
   class="BoundingBox"
   stroke="none"
   fill="none"
   x="2654"
   y="5745"
   width="14997"
   height="53"
   id="rect16" />
          <path
   fill="none"
   stroke="#1b1918"
   stroke-width="51"
   stroke-linejoin="miter"
   d="M 2654,5771 H 17650"
   id="path17" />
         </g>
        </g>
       </g>
       <g
   class="com.sun.star.drawing.ClosedBezierShape"
   id="g19">
        <g
   id="id8">
         <rect
   class="BoundingBox"
   stroke="none"
   fill="none"
   x="11747"
   y="6271"
   width="5405"
   height="13995"
   id="rect18" />
         <path
   fill="#826500"
   stroke="none"
   d="m 11747,20265 5404,-2 V 6271 l -5404,2 c 449,279 807,536 1198,993 l 3208,3 v 11996 h -3208 c -322,398 -762,724 -1198,1000 z"
   id="path18" />
        </g>
       </g>
       <g
   class="com.sun.star.drawing.ClosedBezierShape"
   id="g20">
        <g
   id="id9">
         <rect
   class="BoundingBox"
   stroke="none"
   fill="none"
   x="3155"
   y="6270"
   width="5394"
   height="13996"
   id="rect19" />
         <path
   fill="#826500"
   stroke="none"
   d="m 8548,20265 -5393,-2 V 6271 l 5393,2 c -427,252 -843,561 -1199,993 l -3196,3 v 11996 h 3196 c 320,403 775,726 1199,1000 z"
   id="path19" />
        </g>
       </g>
       <g
   class="com.sun.star.drawing.ClosedBezierShape"
   id="g21">
        <g
   id="id10">
         <rect
   class="BoundingBox"
   stroke="none"
   fill="none"
   x="5893"
   y="6265"
   width="8518"
   height="13999"
   id="rect20" />
         <path
   fill="#826500"
   stroke="none"
   d="m 10151,20263 c 2350,0 4259,-3136 4259,-7001 0,-3868 -1909,-6997 -4259,-6997 -2350,0 -4258,3129 -4258,6997 0,3865 1908,7001 4258,7001 z"
   id="path20" />
        </g>
       </g>
       <g
   class="com.sun.star.drawing.ClosedBezierShape"
   id="g22">
        <g
   id="id11">
         <rect
   class="BoundingBox"
   stroke="none"
   fill="none"
   x="6480"
   y="12374"
   width="5891"
   height="2431"
   id="rect21" />
         <path
   fill="#ffffff"
   stroke="none"
   d="m 10460,14291 c -48,-11 -95,-28 -146,-53 -39,-40 -3,-102 6,-131 14,-30 62,-123 48,-148 -54,-68 -180,-222 -180,-222 -14,-17 -28,-22 -51,-6 -28,26 -143,183 -157,239 -5,36 59,112 42,152 -19,25 -522,25 -530,11 -9,-14 5,-48 5,-48 l 43,-53 c 0,0 409,-301 457,-331 20,-15 53,-51 53,-116 -8,-61 -47,-59 -75,-61 0,0 -298,8 -399,-12 -195,-44 -315,-73 -506,-185 -25,-14 -68,-45 -87,-17 -62,132 59,242 33,360 -64,103 -171,101 -230,205 0,39 23,47 42,64 0,0 124,51 177,56 28,14 73,3 79,65 -6,45 -11,95 -34,141 -31,34 -87,62 -196,124 -172,132 -343,249 -491,466 -26,33 -62,-9 -90,-20 0,-9 -416,-197 -520,-216 -117,-17 -291,-54 -418,31 -8,22 -28,14 -45,0 -42,-51 -33,-132 -28,-188 17,-87 68,-163 132,-174 65,-12 188,58 199,-60 -39,-90 -101,-273 -131,-259 -37,-14 -138,177 -188,217 -90,19 -146,-6 -194,-79 -56,-96 -62,-211 -14,-314 39,-116 185,-68 224,-155 20,-42 -75,-255 -132,-252 0,0 -39,98 -73,157 -39,47 -103,59 -154,36 -42,-3 -126,-76 -149,-168 -39,-194 0,-230 26,-289 53,-136 171,87 233,-73 5,-85 -87,-200 -87,-200 -12,-20 -26,-29 -40,-17 -25,28 -90,109 -90,109 -14,11 -140,122 -179,65 -54,-31 -179,-211 -163,-247 39,-82 81,-104 168,-163 146,-84 233,-93 396,-101 174,8 514,121 629,174 0,0 814,425 912,470 264,89 502,154 747,78 75,-22 270,-70 279,-67 78,-17 221,-119 232,-96 12,23 -81,197 -53,261 31,62 225,211 270,205 44,-5 185,-348 179,-367 -5,-37 -185,-156 -191,-189 l 6,5 c -6,-36 22,-48 39,-59 6,0 171,-87 365,-188 230,-118 505,-250 620,-278 194,-21 452,0 764,225 238,244 410,399 474,632 25,82 39,121 51,180 0,146 -59,174 -99,211 -39,36 -67,-6 -109,-48 -132,-121 -326,-79 -458,-37 -171,62 -348,166 -440,236 -171,129 -472,450 -657,520 -53,9 -101,6 -146,-8 z"
   id="path21" />
        </g>
       </g>
       <g
   class="com.sun.star.drawing.ClosedBezierShape"
   id="g23">
        <g
   id="id12">
         <rect
   class="BoundingBox"
   stroke="none"
   fill="none"
   x="12400"
   y="12931"
   width="1480"
   height="1269"
   id="rect22" />
         <path
   fill="#ffffff"
   stroke="none"
   d="m 13874,14049 c -31,-45 -92,-34 -126,-59 -123,-31 -335,-242 -335,-242 -48,-53 -208,-177 -267,-231 -75,-84 -157,-17 -227,-11 -39,0 -84,34 -109,-23 l -46,-78 c -17,-20 -9,-39 -3,-59 8,-17 113,-25 79,-67 -42,-54 -391,-315 -438,-348 -5,33 11,64 22,95 14,22 73,157 112,311 6,79 20,205 -28,285 -8,36 -25,84 9,121 75,84 137,199 202,280 28,34 47,9 47,9 69,-56 366,-157 675,5 136,48 276,259 411,107 42,-45 22,-95 22,-95 z"
   id="path22" />
        </g>
       </g>
       <g
   class="com.sun.star.drawing.ClosedBezierShape"
   id="g24">
        <g
   id="id13">
         <rect
   class="BoundingBox"
   stroke="none"
   fill="none"
   x="6828"
   y="14036"
   width="6551"
   height="2611"
   id="rect23" />
         <path
   fill="#ffffff"
   stroke="none"
   d="m 12793,15637 c -11,0 -199,-235 -281,-360 -151,-208 -129,-530 -104,-766 34,-141 65,-138 84,-199 6,-68 -159,-247 -202,-275 -8,0 -112,126 -112,126 -188,193 -387,266 -603,323 -99,44 -531,73 -660,84 -174,3 -168,3 -275,-11 -20,-6 -36,-6 -53,5 -152,-28 -368,-36 -546,-84 -101,3 -283,-11 -390,-11 -151,-3 -261,-6 -424,25 -67,22 -98,17 -182,59 -110,42 -300,174 -371,241 -103,96 -609,700 -679,793 -70,92 -261,331 -404,463 0,0 -171,177 -281,224 -47,48 -381,174 -482,247 -2,54 84,73 106,85 73,31 155,47 228,36 36,-11 106,-25 174,-53 84,-40 123,-68 157,-90 50,-37 418,-382 452,-415 176,-188 359,-433 373,-469 l 208,-285 c 53,-59 84,-129 123,-202 23,-8 53,-8 70,23 73,106 -50,137 -59,234 -92,126 -196,286 -300,409 0,0 -76,73 -81,144 0,59 109,36 168,73 76,47 138,61 219,109 236,118 457,298 682,438 31,3 42,-3 48,-31 19,-70 -40,-104 -73,-160 -45,-76 -239,-272 -351,-421 -51,-81 -140,-123 -124,-247 45,-101 245,-281 197,-233 -45,48 233,-225 264,-237 53,-45 230,-118 314,-148 129,-31 272,-23 427,0 85,42 189,78 284,117 149,71 261,135 444,206 179,68 381,158 538,129 149,-28 247,-64 368,-134 62,-34 84,-88 143,-69 40,38 54,237 107,358 53,121 281,196 345,219 0,0 766,323 932,367 0,0 135,62 166,26 2,-96 -396,-461 -584,-663 z"
   id="path23" />
        </g>
       </g>
       <g
   class="com.sun.star.drawing.ClosedBezierShape"
   id="g25">
        <g
   id="id14">
         <rect
   class="BoundingBox"
   stroke="none"
   fill="none"
   x="9233"
   y="15371"
   width="909"
   height="1189"
   id="rect24" />
         <path
   fill="#ffffff"
   stroke="none"
   d="m 9991,15378 c 0,0 -188,-11 -247,-6 -60,6 -178,39 -248,84 -62,42 -118,99 -154,186 -6,25 -93,231 -93,231 0,0 -27,81 -11,106 39,42 109,68 157,115 171,110 346,262 498,380 0,0 98,79 151,84 34,-2 62,-44 76,-98 -22,-39 -118,-163 -182,-251 -79,-137 -188,-218 -191,-362 22,-81 67,-84 126,-120 79,-56 264,-231 267,-276 -3,-28 -93,-54 -149,-73 z"
   id="path24" />
        </g>
       </g>
       <g
   class="com.sun.star.drawing.ClosedBezierShape"
   id="g26">
        <g
   id="id15">
         <rect
   class="BoundingBox"
   stroke="none"
   fill="none"
   x="10850"
   y="15734"
   width="937"
   height="840"
   id="rect25" />
         <path
   fill="#ffffff"
   stroke="none"
   d="m 11456,15804 c -51,76 -604,484 -604,484 -11,19 70,169 81,225 31,28 93,59 149,59 60,-39 385,-441 510,-590 0,0 132,-178 193,-248 0,0 -276,-8 -329,70 z"
   id="path25" />
        </g>
       </g>
       <g
   class="com.sun.star.drawing.ClosedBezierShape"
   id="g27">
        <g
   id="id16">
         <rect
   class="BoundingBox"
   stroke="none"
   fill="none"
   x="8001"
   y="7213"
   width="2433"
   height="2145"
   id="rect26" />
         <path
   fill="#ffffff"
   stroke="none"
   d="m 9444,7241 c 48,5 93,11 140,22 9,6 17,11 26,20 3,42 -270,554 -292,618 5,-3 17,17 31,9 45,-59 64,-65 73,-68 39,-39 146,-105 146,-105 31,-22 182,-126 233,-154 34,-6 51,-28 82,-34 20,-5 45,-5 59,12 17,22 45,42 48,75 19,54 47,99 59,156 14,5 -3,17 0,25 -17,14 -37,22 -51,39 -6,-3 -8,6 -14,9 -14,2 -22,22 -39,22 -82,67 -164,118 -248,183 v 2 c 206,37 396,107 582,191 31,11 61,25 90,42 h 5 c 23,20 59,17 59,51 -3,14 -3,22 -14,31 -28,36 -31,87 -62,123 -17,14 -36,28 -59,28 -16,9 -30,3 -50,11 -6,-8 -17,-16 -31,-11 -31,14 -73,26 -107,11 -64,-33 -129,-70 -193,-95 -142,-50 -282,-87 -436,-95 l -99,2 c -8,3 -8,12 -8,20 11,20 31,28 48,42 70,82 160,171 241,239 81,76 164,140 237,214 53,42 28,112 45,166 0,14 0,28 -11,33 -9,0 -15,6 -17,12 -31,8 -51,28 -73,42 -12,11 -14,19 -24,28 v 5 c -17,28 -45,40 -76,42 -8,3 -16,6 -22,9 -17,-6 -22,20 -34,8 -53,-59 -120,-98 -171,-160 -31,-19 -53,-47 -84,-67 -87,-87 -152,-168 -241,-254 -3,9 -3,12 0,23 -9,68 11,136 16,197 14,73 26,146 40,222 14,48 19,93 14,149 -3,5 0,17 -12,19 -28,14 -56,0 -84,-5 -5,-11 -19,-9 -28,-14 -17,3 -36,-3 -50,3 -9,-3 -14,8 -23,2 -3,9 -5,-2 -11,0 -20,-2 -39,-5 -59,-8 -20,-8 -42,-8 -62,-17 -5,-11 -5,-25 -11,-39 -28,-132 -56,-275 -59,-410 -8,-25 0,-51 -5,-74 -87,88 -163,186 -225,293 -22,17 -32,65 -68,48 -3,0 -6,-6 -9,-3 -5,-3 -8,-11 -8,-17 -9,-14 -20,-17 -28,-25 -37,-3 -70,-17 -104,-25 -20,-9 -23,-31 -37,-40 -5,-25 -42,-25 -42,-48 -5,-11 -5,-16 0,-25 14,-11 17,-31 28,-45 71,-99 141,-192 216,-279 63,-81 147,-162 204,-249 14,-20 -17,-20 -20,-34 -23,-8 -51,0 -70,-8 -56,0 -102,-12 -156,-3 -36,-9 -81,31 -106,-14 -3,-6 -6,-14 -14,-14 -12,8 -28,8 -34,19 -14,3 -36,0 -53,3 -65,11 -135,17 -197,25 -19,3 -42,12 -59,6 -22,-14 -19,-39 -22,-62 -20,-8 -25,-28 -37,-42 -5,-31 -11,-56 -16,-84 2,-3 5,-11 11,-11 3,0 8,0 11,-6 l -6,-14 c 14,-17 34,-17 51,-31 48,-19 104,-19 157,-33 109,-20 230,-17 348,-20 6,-6 -6,-11 -3,-17 -25,-34 -45,-70 -64,-109 -34,-54 -79,-101 -110,-158 -14,-14 -19,-29 -33,-37 -9,-11 -14,-28 -23,-42 -3,-23 -22,-62 6,-76 61,-56 120,-115 193,-154 -2,-14 14,-6 20,-14 3,8 11,2 17,2 28,6 40,37 51,57 12,16 6,50 31,59 59,36 65,109 110,160 39,76 104,132 154,200 9,3 11,14 20,17 0,8 11,5 11,14 14,-45 31,-96 48,-143 25,-80 42,-161 70,-240 3,-34 22,-62 28,-95 17,-31 22,-68 39,-102 0,-19 20,-33 20,-53 0,-3 42,-70 42,-76 14,-11 25,-30 45,-30 67,5 132,28 199,28 z"
   id="path26" />
        </g>
       </g>
       <g
   class="com.sun.star.drawing.ClosedBezierShape"
   id="g28">
        <g
   id="id17">
         <rect
   class="BoundingBox"
   stroke="none"
   fill="none"
   x="10236"
   y="13132"
   width="446"
   height="657"
   id="rect27" />
         <path
   fill="#826500"
   stroke="none"
   d="m 10460,13773 c 26,14 48,20 59,5 48,-70 164,-317 161,-388 -2,-48 -138,-177 -220,-230 -30,-20 -53,-30 -61,-28 -26,8 -183,369 -161,425 8,45 141,174 222,216 z"
   id="path27" />
        </g>
       </g>
      </g>
     </g>
    </g>
   </g>
  </g>
 </g>
</svg>
