<?xml version="1.0" encoding="UTF-8" standalone="no"?>
<svg
   version="1.2"
   width="150.00999mm"
   height="149.95999mm"
   viewBox="0 0 15001 14995.999"
   preserveAspectRatio="xMidYMid"
   fill-rule="evenodd"
   stroke-width="28.222"
   stroke-linejoin="round"
   xml:space="preserve"
   id="svg44"
   sodipodi:docname="ID15a17.svg"
   inkscape:version="1.2.2 (b0a8486541, 2022-12-01)"
   xmlns:inkscape="http://www.inkscape.org/namespaces/inkscape"
   xmlns:sodipodi="http://sodipodi.sourceforge.net/DTD/sodipodi-0.dtd"
   xmlns="http://www.w3.org/2000/svg"
   xmlns:svg="http://www.w3.org/2000/svg"
   xmlns:ooo="http://xml.openoffice.org/svg/export"><sodipodi:namedview
   id="namedview44"
   pagecolor="#ffffff"
   bordercolor="#000000"
   borderopacity="0.25"
   inkscape:showpageshadow="2"
   inkscape:pageopacity="0.0"
   inkscape:pagecheckerboard="true"
   inkscape:deskcolor="#d1d1d1"
   inkscape:document-units="mm"
   fit-margin-top="50"
   fit-margin-left="50"
   fit-margin-right="50"
   fit-margin-bottom="50"
   showgrid="false"
   inkscape:zoom="3.4308113"
   inkscape:cx="528.3007"
   inkscape:cy="31.479435"
   inkscape:window-width="1280"
   inkscape:window-height="731"
   inkscape:window-x="0"
   inkscape:window-y="0"
   inkscape:window-maximized="1"
   inkscape:current-layer="svg44" />
 <defs
   class="ClipPathGroup"
   id="defs2">
  <clipPath
   id="presentation_clip_path"
   clipPathUnits="userSpaceOnUse">
   <rect
   x="0"
   y="0"
   width="21001"
   height="29703"
   id="rect1" />
  </clipPath>
  <clipPath
   id="presentation_clip_path_shrink"
   clipPathUnits="userSpaceOnUse">
   <rect
   x="21"
   y="29"
   width="20959"
   height="29644"
   id="rect2" />
  </clipPath>
 </defs>
 <defs
   class="TextShapeIndex"
   id="defs3">
  <g
   ooo:slide="id1"
   ooo:id-list="id3 id4 id5 id6 id7 id8 id9 id10 id11 id12 id13 id14 id15 id16 id17 id18 id19 id20 id21 id22 id23 id24 id25 id26 id27 id28 id29"
   id="g2" />
 </defs>
 <defs
   class="EmbeddedBulletChars"
   id="defs12">
  <g
   id="bullet-char-template-57356"
   transform="matrix(4.8828125e-4,0,0,-4.8828125e-4,0,0)">
   <path
   d="M 580,1141 1163,571 580,0 -4,571 Z"
   id="path3" />
  </g>
  <g
   id="bullet-char-template-57354"
   transform="matrix(4.8828125e-4,0,0,-4.8828125e-4,0,0)">
   <path
   d="M 8,1128 H 1137 V 0 H 8 Z"
   id="path4" />
  </g>
  <g
   id="bullet-char-template-10146"
   transform="matrix(4.8828125e-4,0,0,-4.8828125e-4,0,0)">
   <path
   d="M 174,0 602,739 174,1481 1456,739 Z M 1358,739 309,1346 659,739 Z"
   id="path5" />
  </g>
  <g
   id="bullet-char-template-10132"
   transform="matrix(4.8828125e-4,0,0,-4.8828125e-4,0,0)">
   <path
   d="M 2015,739 1276,0 H 717 l 543,543 H 174 v 393 h 1086 l -543,545 h 557 z"
   id="path6" />
  </g>
  <g
   id="bullet-char-template-10007"
   transform="matrix(4.8828125e-4,0,0,-4.8828125e-4,0,0)">
   <path
   d="m 0,-2 c -7,16 -16,29 -25,39 l 381,530 c -94,256 -141,385 -141,387 0,25 13,38 40,38 9,0 21,-2 34,-5 21,4 42,12 65,25 l 27,-13 111,-251 280,301 64,-25 24,25 c 21,-10 41,-24 62,-43 C 886,937 835,863 770,784 769,783 710,716 594,584 L 774,223 c 0,-27 -21,-55 -63,-84 l 16,-20 C 717,90 699,76 672,76 641,76 570,178 457,381 L 164,-76 c -22,-34 -53,-51 -92,-51 -42,0 -63,17 -64,51 -7,9 -10,24 -10,44 0,9 1,19 2,30 z"
   id="path7" />
  </g>
  <g
   id="bullet-char-template-10004"
   transform="matrix(4.8828125e-4,0,0,-4.8828125e-4,0,0)">
   <path
   d="M 285,-33 C 182,-33 111,30 74,156 52,228 41,333 41,471 c 0,78 14,145 41,201 34,71 87,106 158,106 53,0 88,-31 106,-94 l 23,-176 c 8,-64 28,-97 59,-98 l 735,706 c 11,11 33,17 66,17 42,0 63,-15 63,-46 V 965 c 0,-36 -10,-64 -30,-84 L 442,47 C 390,-6 338,-33 285,-33 Z"
   id="path8" />
  </g>
  <g
   id="bullet-char-template-9679"
   transform="matrix(4.8828125e-4,0,0,-4.8828125e-4,0,0)">
   <path
   d="M 813,0 C 632,0 489,54 383,161 276,268 223,411 223,592 c 0,181 53,324 160,431 106,107 249,161 430,161 179,0 323,-54 432,-161 108,-107 162,-251 162,-431 0,-180 -54,-324 -162,-431 C 1136,54 992,0 813,0 Z"
   id="path9" />
  </g>
  <g
   id="bullet-char-template-8226"
   transform="matrix(4.8828125e-4,0,0,-4.8828125e-4,0,0)">
   <path
   d="m 346,457 c -73,0 -137,26 -191,78 -54,51 -81,114 -81,188 0,73 27,136 81,188 54,52 118,78 191,78 73,0 134,-26 185,-79 51,-51 77,-114 77,-187 0,-75 -25,-137 -76,-188 -50,-52 -112,-78 -186,-78 z"
   id="path10" />
  </g>
  <g
   id="bullet-char-template-8211"
   transform="matrix(4.8828125e-4,0,0,-4.8828125e-4,0,0)">
   <path
   d="M -4,459 H 1135 V 606 H -4 Z"
   id="path11" />
  </g>
  <g
   id="bullet-char-template-61548"
   transform="matrix(4.8828125e-4,0,0,-4.8828125e-4,0,0)">
   <path
   d="m 173,740 c 0,163 58,303 173,419 116,115 255,173 419,173 163,0 302,-58 418,-173 116,-116 174,-256 174,-419 0,-163 -58,-303 -174,-418 C 1067,206 928,148 765,148 601,148 462,206 346,322 231,437 173,577 173,740 Z"
   id="path12" />
  </g>
 </defs>
 <g
   id="g12"
   transform="translate(-2652,-5770)">
  <g
   id="id2"
   class="Master_Slide">
   <g
   id="bg-id2"
   class="Background" />
   <g
   id="bo-id2"
   class="BackgroundObjects" />
  </g>
 </g>
 <g
   class="SlideGroup"
   id="g44"
   transform="translate(-2652,-5770)">
  <g
   id="g43">
   <g
   id="container-id1">
    <g
   id="id1"
   class="Slide"
   clip-path="url(#presentation_clip_path)">
     <g
   class="Page"
   id="g42">
      <g
   class="Group"
   id="g41">
       <g
   class="com.sun.star.drawing.PolyPolygonShape"
   id="g13">
        <g
   id="id3">
         <rect
   class="BoundingBox"
   stroke="none"
   fill="none"
   x="2652"
   y="5770"
   width="15001"
   height="14996"
   id="rect12" />
         <path
   fill="#fefefe"
   stroke="none"
   d="M 2653,5770 V 20765 H 17652 V 5770 Z"
   id="path13" />
        </g>
       </g>
       <g
   class="Group"
   id="g18"
   style="display:none">
        <g
   class="com.sun.star.drawing.LineShape"
   id="g14">
         <g
   id="id4">
          <rect
   class="BoundingBox"
   stroke="none"
   fill="none"
   x="2628"
   y="5771"
   width="53"
   height="14994"
   id="rect13" />
          <path
   fill="none"
   stroke="#1b1918"
   stroke-width="51"
   stroke-linejoin="miter"
   d="M 2654,20764 V 5771"
   id="path14" />
         </g>
        </g>
        <g
   class="com.sun.star.drawing.LineShape"
   id="g15">
         <g
   id="id5">
          <rect
   class="BoundingBox"
   stroke="none"
   fill="none"
   x="2654"
   y="20739"
   width="14997"
   height="53"
   id="rect14" />
          <path
   fill="none"
   stroke="#1b1918"
   stroke-width="51"
   stroke-linejoin="miter"
   d="M 17650,20765 H 2654"
   id="path15" />
         </g>
        </g>
        <g
   class="com.sun.star.drawing.LineShape"
   id="g16">
         <g
   id="id6">
          <rect
   class="BoundingBox"
   stroke="none"
   fill="none"
   x="17624"
   y="5771"
   width="53"
   height="14994"
   id="rect15" />
          <path
   fill="none"
   stroke="#1b1918"
   stroke-width="51"
   stroke-linejoin="miter"
   d="M 17650,5771 V 20764"
   id="path16" />
         </g>
        </g>
        <g
   class="com.sun.star.drawing.LineShape"
   id="g17">
         <g
   id="id7">
          <rect
   class="BoundingBox"
   stroke="none"
   fill="none"
   x="2654"
   y="5745"
   width="14997"
   height="53"
   id="rect16" />
          <path
   fill="none"
   stroke="#1b1918"
   stroke-width="51"
   stroke-linejoin="miter"
   d="M 2654,5771 H 17650"
   id="path17" />
         </g>
        </g>
       </g>
       <g
   class="com.sun.star.drawing.ClosedBezierShape"
   id="g19">
        <g
   id="id8">
         <rect
   class="BoundingBox"
   stroke="none"
   fill="none"
   x="11747"
   y="6271"
   width="5405"
   height="13995"
   id="rect18" />
         <path
   fill="#826500"
   stroke="none"
   d="m 11747,20265 5404,-2 V 6271 l -5404,2 c 449,279 807,536 1198,993 l 3208,3 v 11996 h -3208 c -322,398 -762,724 -1198,1000 z"
   id="path18" />
        </g>
       </g>
       <g
   class="com.sun.star.drawing.ClosedBezierShape"
   id="g20">
        <g
   id="id9">
         <rect
   class="BoundingBox"
   stroke="none"
   fill="none"
   x="3155"
   y="6270"
   width="5394"
   height="13996"
   id="rect19" />
         <path
   fill="#826500"
   stroke="none"
   d="m 8548,20265 -5393,-2 V 6271 l 5393,2 c -427,252 -843,561 -1199,993 l -3196,3 v 11996 h 3196 c 320,403 775,726 1199,1000 z"
   id="path19" />
        </g>
       </g>
       <g
   class="com.sun.star.drawing.ClosedBezierShape"
   id="g21">
        <g
   id="id10">
         <rect
   class="BoundingBox"
   stroke="none"
   fill="none"
   x="5893"
   y="6265"
   width="8518"
   height="13999"
   id="rect20" />
         <path
   fill="#826500"
   stroke="none"
   d="m 10151,20263 c 2350,0 4259,-3136 4259,-7001 0,-3868 -1909,-6997 -4259,-6997 -2350,0 -4258,3129 -4258,6997 0,3865 1908,7001 4258,7001 z"
   id="path20" />
        </g>
       </g>
       <g
   class="com.sun.star.drawing.ClosedBezierShape"
   id="g22">
        <g
   id="id11">
         <rect
   class="BoundingBox"
   stroke="none"
   fill="none"
   x="9339"
   y="10673"
   width="1524"
   height="439"
   id="rect21" />
         <path
   fill="#ffffff"
   stroke="none"
   d="m 10418,10758 c 156,64 355,114 443,245 l -83,72 -515,-11 c 0,-25 -31,-36 -20,-61 -63,-43 -160,-59 -243,-31 -108,222 -377,108 -557,117 -53,5 -112,-56 -72,-98 -206,62 670,-423 800,-297 z"
   id="path21" />
        </g>
       </g>
       <g
   class="com.sun.star.drawing.ClosedBezierShape"
   id="g23">
        <g
   id="id12">
         <rect
   class="BoundingBox"
   stroke="none"
   fill="none"
   x="8809"
   y="11187"
   width="2500"
   height="422"
   id="rect22" />
         <path
   fill="#ffffff"
   stroke="none"
   d="m 9772,11289 c 102,-31 293,73 315,-83 l 862,-19 c 108,96 287,-22 340,144 30,56 14,114 19,176 -149,99 -376,41 -561,58 -145,-192 -366,0 -574,-58 l -55,83 h -490 c -25,-151 -211,-67 -299,-72 -48,119 -191,83 -274,88 -67,-120 -241,61 -246,-99 19,-120 149,-187 232,-260 252,42 551,-179 731,42 z"
   id="path22" />
        </g>
       </g>
       <g
   class="com.sun.star.drawing.ClosedBezierShape"
   id="g24">
        <g
   id="id13">
         <rect
   class="BoundingBox"
   stroke="none"
   fill="none"
   x="8265"
   y="11659"
   width="3644"
   height="493"
   id="rect23" />
         <path
   fill="#ffffff"
   stroke="none"
   d="m 11857,11996 c 0,72 80,22 39,94 -103,19 -258,44 -319,-72 -113,-11 -323,-47 -340,91 -72,53 -202,17 -305,31 -66,-216 -304,-78 -454,-122 -185,216 -509,80 -766,122 -28,-61 -58,-70 -110,-97 -205,0 -302,-42 -374,108 l -933,-11 c -52,-31 -17,-92 -30,-133 85,-78 251,-83 257,-228 85,-53 204,-17 307,-30 5,19 16,41 11,72 130,13 336,47 402,-89 160,36 387,-76 490,102 190,-19 423,64 542,-127 282,36 652,-101 850,114 155,66 -25,-158 310,-161 179,-10 287,130 423,336 z"
   id="path23" />
        </g>
       </g>
       <g
   class="com.sun.star.drawing.ClosedBezierShape"
   id="g25">
        <g
   id="id14">
         <rect
   class="BoundingBox"
   stroke="none"
   fill="none"
   x="7847"
   y="12183"
   width="4480"
   height="575"
   id="rect24" />
         <path
   fill="#ffffff"
   stroke="none"
   d="m 12312,12365 c 22,47 11,114 11,172 -216,-41 -144,247 -387,144 -61,-22 -50,-124 -144,-113 h -196 c -56,168 -247,119 -390,127 -42,-236 -330,-86 -490,-127 -102,61 -235,174 -385,127 0,-72 -297,-194 -302,25 -155,-25 -335,16 -412,3 l -61,-114 -614,-16 c -108,72 -199,185 -318,160 l -31,-88 -727,-14 c -19,-42 -35,-114 11,-141 119,5 72,-129 144,-176 88,6 166,-72 274,-41 30,208 276,77 412,113 91,-19 163,-66 235,-124 77,22 268,-72 227,94 149,-25 357,77 428,-94 72,11 197,-36 216,41 v 42 c 180,-14 480,114 563,-114 166,11 644,-19 686,31 66,155 287,52 431,83 108,-31 94,-169 216,-174 213,-46 423,124 603,174 z"
   id="path24" />
        </g>
       </g>
       <g
   class="com.sun.star.drawing.ClosedBezierShape"
   id="g26">
        <g
   id="id15">
         <rect
   class="BoundingBox"
   stroke="none"
   fill="none"
   x="7405"
   y="12773"
   width="5423"
   height="540"
   id="rect25" />
         <path
   fill="#ffffff"
   stroke="none"
   d="m 12270,12782 c 130,36 376,-95 398,114 72,0 144,192 158,228 -67,185 -277,71 -412,102 -92,-206 -719,-97 -766,0 -280,-6 -659,94 -872,-83 -72,-14 -509,-97 -489,94 -61,83 -201,30 -300,47 -108,-72 -194,-100 -318,-141 -108,41 -155,69 -244,141 h -384 c -6,-17 5,-47 -17,-58 l -617,-42 c -99,108 -757,208 -774,28 l -199,-28 c -107,-164 127,-144 127,-277 105,-130 304,-47 459,-72 78,217 346,77 520,113 222,-231 609,-83 913,-124 l 133,102 701,-19 c 135,-171 403,-94 619,-114 155,180 376,78 556,103 56,-31 20,-119 89,-114 282,6 492,252 719,0 z"
   id="path25" />
        </g>
       </g>
       <g
   class="com.sun.star.drawing.ClosedBezierShape"
   id="g27">
        <g
   id="id16">
         <rect
   class="BoundingBox"
   stroke="none"
   fill="none"
   x="7208"
   y="13300"
   width="5854"
   height="562"
   id="rect26" />
         <path
   fill="#ffffff"
   stroke="none"
   d="m 12066,13338 c 293,-159 318,239 617,104 -25,-140 108,-115 202,-115 61,47 119,83 113,173 103,25 42,144 61,215 -138,79 -401,26 -550,43 l -125,-114 c -77,83 -304,-67 -287,125 -155,14 -382,61 -459,-101 -139,73 -487,-49 -565,167 -523,-99 -575,103 -738,-108 -197,31 -485,-83 -593,103 -269,-61 -556,119 -758,-42 v -30 c -185,-6 -426,-62 -587,41 v 42 l -746,19 c -78,-205 -519,58 -432,-288 50,-140 174,-89 271,-162 130,-25 202,37 274,115 l 492,-36 c 17,-36 53,-68 111,-79 210,79 509,-168 575,101 83,55 114,-42 197,-11 119,-36 351,91 357,-120 l 390,-11 c 41,239 330,84 471,114 72,-30 158,-51 205,-114 154,-14 365,-50 459,84 l 558,2 c 12,-72 158,-171 260,-128 56,47 161,28 227,11 z"
   id="path26" />
        </g>
       </g>
       <g
   class="com.sun.star.drawing.ClosedBezierShape"
   id="g28">
        <g
   id="id17">
         <rect
   class="BoundingBox"
   stroke="none"
   fill="none"
   x="7089"
   y="13891"
   width="6069"
   height="542"
   id="rect27" />
         <path
   fill="#ffffff"
   stroke="none"
   d="m 10926,14019 c 113,-11 221,42 310,-36 v -52 l 531,-31 c 5,180 241,67 359,102 59,-60 114,-142 216,-91 36,103 141,91 238,91 67,-178 351,-85 520,-91 -77,180 232,438 -102,433 -94,-67 -136,-175 -299,-128 -66,236 -335,86 -501,128 -49,-86 -478,-97 -561,-114 -185,294 -617,36 -902,130 -133,-179 -395,-83 -575,-88 -120,160 -264,113 -471,102 l -92,-102 -644,16 c -47,211 -340,72 -515,114 20,-144 -155,-47 -215,-114 -136,-36 -161,205 -316,128 -41,-122 -133,-144 -257,-128 -133,20 -232,61 -329,128 -108,5 -216,58 -232,-86 5,-125 11,-264 113,-328 174,36 454,-102 520,114 66,-19 160,36 196,-42 92,11 227,-36 277,42 100,36 155,-61 227,-91 88,-114 304,-78 448,-72 16,25 11,61 11,91 124,47 315,47 401,-61 0,0 232,0 346,72 535,-264 714,-8 714,-61 0,0 484,-115 584,25 z"
   id="path27" />
        </g>
       </g>
       <g
   class="com.sun.star.drawing.ClosedBezierShape"
   id="g29">
        <g
   id="id18">
         <rect
   class="BoundingBox"
   stroke="none"
   fill="none"
   x="7089"
   y="14440"
   width="6103"
   height="524"
   id="rect28" />
         <path
   fill="#ffffff"
   stroke="none"
   d="m 11912,14503 c 0,0 168,89 257,72 17,-36 97,-41 72,-102 288,-11 567,-41 860,-31 17,20 42,175 53,175 49,55 49,175 0,227 -22,72 -114,61 -186,61 -63,-149 -547,-119 -531,-19 -108,19 -274,50 -329,-83 -119,30 -351,-78 -357,102 -103,-25 -252,58 -299,-72 -42,-11 -78,-41 -133,-30 -119,216 -271,58 -465,130 l -1911,3 c -9,-31 -44,-67 -72,-72 -108,-31 -144,27 -216,83 l -460,11 c 28,-130 -304,-197 -492,0 -119,5 -177,-186 -299,-53 -58,100 -208,36 -315,53 v -372 c 35,-22 71,-30 113,-30 72,132 216,127 335,102 149,-171 428,-149 658,-130 94,28 135,172 274,130 167,-124 477,-144 477,-144 h 2107 c 0,0 213,127 399,61 77,-30 47,-143 143,-133 101,20 256,-46 317,61 z"
   id="path28" />
        </g>
       </g>
       <g
   class="com.sun.star.drawing.ClosedBezierShape"
   id="g30">
        <g
   id="id19">
         <rect
   class="BoundingBox"
   stroke="none"
   fill="none"
   x="11118"
   y="15004"
   width="2072"
   height="489"
   id="rect29" />
         <path
   fill="#ffffff"
   stroke="none"
   d="m 12210,15004 h 587 c 83,168 340,0 387,157 -11,106 56,305 -113,286 -138,-11 -274,-155 -419,-41 -11,66 -238,41 -238,41 -72,-155 -298,-58 -448,-83 0,72 -49,78 -102,113 -233,83 -433,-305 -557,0 -61,25 -169,25 -185,-60 41,-155 -113,-465 185,-389 399,-48 764,259 903,-24 z"
   id="path29" />
        </g>
       </g>
       <g
   class="com.sun.star.drawing.ClosedBezierShape"
   id="g31">
        <g
   id="id20">
         <rect
   class="BoundingBox"
   stroke="none"
   fill="none"
   x="7089"
   y="15044"
   width="2028"
   height="517"
   id="rect30" />
         <path
   fill="#ffffff"
   stroke="none"
   d="m 9084,15076 c 50,128 30,294 14,433 -175,17 -294,-241 -432,0 -160,-19 -357,42 -484,-61 -192,31 -471,-84 -573,103 -144,47 -252,-126 -377,0 -47,0 -102,11 -127,-42 l -16,-264 c 96,-11 221,-78 273,-155 h 545 l 11,114 c 128,72 206,-56 289,-114 108,27 329,-85 315,114 263,149 307,-277 562,-128 z"
   id="path30" />
        </g>
       </g>
       <g
   class="com.sun.star.drawing.ClosedBezierShape"
   id="g32">
        <g
   id="id21">
         <rect
   class="BoundingBox"
   stroke="none"
   fill="none"
   x="11116"
   y="15544"
   width="2076"
   height="500"
   id="rect31" />
         <path
   fill="#ffffff"
   stroke="none"
   d="m 12169,15549 c 77,0 262,72 359,156 83,19 136,-11 173,-73 55,-154 268,-53 401,-83 72,77 102,175 83,289 -53,47 5,167 -103,186 -213,77 -392,-300 -543,0 -180,-30 -431,72 -545,-86 0,0 -382,-59 -418,25 -72,125 -294,66 -429,61 -54,-66 -20,-175 -25,-258 52,-134 288,22 268,-165 186,20 424,-2 568,76 0,0 128,-84 211,-128 z"
   id="path31" />
        </g>
       </g>
       <g
   class="com.sun.star.drawing.ClosedBezierShape"
   id="g33">
        <g
   id="id22">
         <rect
   class="BoundingBox"
   stroke="none"
   fill="none"
   x="7084"
   y="15618"
   width="2037"
   height="488"
   id="rect32" />
         <path
   fill="#ffffff"
   stroke="none"
   d="m 9114,15733 c -17,114 55,239 -72,300 -99,89 -191,-72 -274,47 -102,14 -210,-11 -246,-99 -299,-81 -430,207 -717,99 -83,-135 -244,-72 -401,-88 -70,108 -130,88 -255,102 -107,-80 -44,-230 -61,-350 72,-94 222,-107 360,-94 94,108 274,-112 274,114 119,5 141,-11 199,-114 163,31 513,-84 590,94 138,25 329,50 401,-113 94,-35 185,0 202,102 z"
   id="path32" />
        </g>
       </g>
       <g
   class="com.sun.star.drawing.ClosedBezierShape"
   id="g34">
        <g
   id="id23">
         <rect
   class="BoundingBox"
   stroke="none"
   fill="none"
   x="11132"
   y="16061"
   width="2067"
   height="533"
   id="rect33" />
         <path
   fill="#ffffff"
   stroke="none"
   d="m 13183,16135 c -36,150 78,310 -41,430 -191,92 -78,-80 -288,-94 -174,45 -219,-128 -531,94 -233,-83 -480,128 -629,-102 -100,36 -293,-59 -304,122 -89,-6 -208,16 -257,-72 l 13,-233 c 47,-9 105,16 119,-45 v -84 c 125,6 376,-93 401,84 64,20 208,45 197,-73 185,-27 449,-77 604,46 124,-51 180,94 304,41 124,-36 169,-252 360,-170 z"
   id="path33" />
        </g>
       </g>
       <g
   class="com.sun.star.drawing.ClosedBezierShape"
   id="g35">
        <g
   id="id24">
         <rect
   class="BoundingBox"
   stroke="none"
   fill="none"
   x="7089"
   y="16177"
   width="2054"
   height="485"
   id="rect34" />
         <path
   fill="#ffffff"
   stroke="none"
   d="m 7662,16193 c 133,228 396,36 603,86 72,-143 252,-86 391,-102 72,244 506,-71 484,274 6,61 -5,191 -113,175 h -197 c 11,-72 -157,-175 -407,0 h -443 c -47,-175 -246,-56 -391,-92 -135,86 -232,144 -412,122 -107,-86 -83,-221 -88,-349 l 102,-130 z"
   id="path34" />
        </g>
       </g>
       <g
   class="com.sun.star.drawing.ClosedBezierShape"
   id="g36">
        <g
   id="id25">
         <rect
   class="BoundingBox"
   stroke="none"
   fill="none"
   x="11128"
   y="16672"
   width="2058"
   height="457"
   id="rect35" />
         <path
   fill="#ffffff"
   stroke="none"
   d="m 12425,16810 c 78,-245 729,-108 759,-14 -58,97 105,369 -152,316 -210,-168 -351,-177 -377,-121 l -28,105 c -196,-47 -484,102 -603,-69 -113,-119 -273,69 -273,69 -201,-11 -438,102 -604,-42 5,-113 -77,-346 71,-357 161,16 439,-91 461,113 41,-6 96,39 163,6 14,-108 152,-128 152,-128 235,-76 180,242 431,122 z"
   id="path35" />
        </g>
       </g>
       <g
   class="com.sun.star.drawing.ClosedBezierShape"
   id="g37">
        <g
   id="id26">
         <rect
   class="BoundingBox"
   stroke="none"
   fill="none"
   x="7089"
   y="16743"
   width="2056"
   height="465"
   id="rect36" />
         <path
   fill="#ffffff"
   stroke="none"
   d="m 7537,16910 c 72,-33 108,-95 155,-161 h 587 c 31,30 11,72 17,102 329,131 498,-268 802,-30 5,109 88,217 17,320 -233,53 -501,17 -747,28 -78,-198 -347,-101 -521,-84 -130,211 -429,73 -645,114 -123,-58 -113,-222 -113,-359 30,-80 108,-101 185,-91 47,72 125,217 263,161 z"
   id="path36" />
        </g>
       </g>
       <g
   class="com.sun.star.drawing.ClosedBezierShape"
   id="g38">
        <g
   id="id27">
         <rect
   class="BoundingBox"
   stroke="none"
   fill="none"
   x="11159"
   y="17233"
   width="2042"
   height="470"
   id="rect37" />
         <path
   fill="#ffffff"
   stroke="none"
   d="m 11595,17351 c 161,14 405,61 485,-99 207,-9 464,-55 645,47 l 459,25 c 25,94 11,377 11,377 h -2001 l -31,-44 c 25,-119 -60,-300 72,-347 42,-36 30,-67 83,-72 113,-21 205,25 277,113 z"
   id="path37" />
        </g>
       </g>
       <g
   class="com.sun.star.drawing.ClosedBezierShape"
   id="g39">
        <g
   id="id28">
         <rect
   class="BoundingBox"
   stroke="none"
   fill="none"
   x="7125"
   y="17268"
   width="2016"
   height="435"
   id="rect38" />
         <path
   fill="#ffffff"
   stroke="none"
   d="m 9139,17412 v 289 H 7149 c 0,0 -35,-242 -19,-350 l 260,-11 c 50,353 498,-30 371,-19 154,-14 399,-82 424,83 133,36 249,-6 326,-103 133,-16 623,-109 628,111 z"
   id="path38" />
        </g>
       </g>
       <g
   class="com.sun.star.drawing.ClosedBezierShape"
   id="g40">
        <g
   id="id29">
         <rect
   class="BoundingBox"
   stroke="none"
   fill="none"
   x="8113"
   y="7184"
   width="2397"
   height="2114"
   id="rect39" />
         <path
   fill="#ffffff"
   stroke="none"
   d="m 9535,7211 c 47,6 92,8 136,22 11,6 19,9 25,20 5,41 -263,546 -285,606 5,0 16,20 30,11 42,-58 64,-63 72,-66 39,-39 144,-103 144,-103 30,-22 180,-125 227,-152 36,-6 52,-28 83,-34 19,-5 44,-5 58,11 16,23 44,42 47,75 19,50 47,97 58,151 14,5 -3,19 0,27 -19,14 -36,22 -53,39 -2,-3 -5,5 -11,8 -13,3 -25,22 -38,22 -83,67 -161,114 -244,180 v 0 c 202,39 387,108 573,191 30,11 61,25 88,41 h 6 c 22,20 58,17 58,50 -3,14 -3,22 -14,31 -28,36 -33,85 -61,121 -16,14 -36,28 -58,28 -16,8 -30,3 -50,11 -8,-8 -19,-16 -30,-11 -33,11 -72,25 -105,11 -64,-36 -127,-69 -194,-91 -135,-53 -274,-89 -426,-97 l -97,3 c -11,3 -11,11 -8,19 11,20 31,25 47,42 69,80 158,168 238,235 77,74 158,135 232,211 53,41 28,111 45,166 0,11 0,25 -11,30 -9,0 -14,6 -20,11 -27,9 -47,28 -69,42 -11,11 -14,19 -22,30 v 3 c -17,28 -44,39 -78,42 -5,2 -13,5 -19,8 -17,-6 -22,19 -36,8 -50,-55 -116,-99 -169,-157 -27,-20 -49,-47 -80,-67 -86,-86 -149,-166 -239,-253 -2,12 -2,14 0,25 -8,65 11,131 17,192 15,75 26,147 40,219 11,47 19,97 13,146 -2,9 0,20 -11,22 -27,14 -56,0 -84,-5 -5,-11 -19,-8 -27,-17 -17,3 -36,0 -50,6 -8,-3 -14,5 -22,3 -6,8 -6,-3 -11,0 -20,-3 -39,-9 -58,-9 -20,-8 -42,-8 -61,-16 -8,-11 -8,-25 -11,-39 -28,-130 -56,-274 -61,-407 -6,-22 3,-48 -3,-70 -88,87 -163,184 -221,289 -22,17 -31,61 -67,47 -2,0 -5,-6 -8,-3 -5,-3 -8,-11 -8,-19 -8,-11 -19,-14 -28,-22 -36,-3 -69,-17 -102,-25 -19,-8 -22,-31 -39,-42 -3,-22 -39,-22 -39,-47 -8,-8 -5,-14 0,-22 14,-14 17,-30 28,-44 66,-95 138,-192 213,-275 61,-80 144,-158 199,-246 11,-19 -16,-19 -22,-31 -19,-11 -47,-2 -66,-11 -56,0 -100,-11 -152,-2 -36,-9 -83,30 -106,-17 -2,-3 -8,-11 -13,-11 -11,8 -28,5 -34,19 -13,3 -36,0 -52,3 -64,11 -133,17 -196,25 -17,0 -39,11 -56,6 -22,-14 -19,-42 -25,-61 -16,-9 -22,-28 -33,-42 -5,-30 -11,-55 -16,-83 0,-5 2,-11 8,-11 5,0 11,0 14,-5 l -6,-17 c 14,-14 33,-14 50,-25 47,-22 102,-22 152,-36 111,-19 230,-16 346,-19 5,-9 -6,-11 -6,-17 -22,-36 -41,-72 -61,-108 -33,-52 -77,-99 -107,-155 -14,-11 -23,-28 -34,-37 -8,-11 -14,-27 -25,-41 0,-22 -19,-61 9,-77 61,-53 119,-111 191,-150 -3,-14 13,-5 19,-14 3,9 11,0 17,3 27,6 36,33 49,55 9,20 6,50 28,58 61,36 66,108 111,158 38,76 102,131 152,198 8,2 8,13 19,16 0,8 11,6 8,14 17,-44 31,-94 47,-141 28,-79 42,-162 72,-236 3,-33 22,-61 28,-94 17,-33 22,-67 39,-100 0,-19 16,-33 16,-52 3,-3 45,-70 45,-75 11,-11 26,-30 45,-30 66,5 130,27 196,27 z"
   id="path39" />
        </g>
       </g>
      </g>
     </g>
    </g>
   </g>
  </g>
 </g>
</svg>
