<?xml version="1.0" encoding="UTF-8" standalone="no"?>
<!-- Created with Inkscape (http://www.inkscape.org/) -->

<svg
   width="150.49001mm"
   height="150.40524mm"
   viewBox="0 0 150.49 150.40524"
   version="1.1"
   id="svg8"
   inkscape:version="1.2.2 (b0a8486541, 2022-12-01)"
   sodipodi:docname="ID39.svg"
   xmlns:inkscape="http://www.inkscape.org/namespaces/inkscape"
   xmlns:sodipodi="http://sodipodi.sourceforge.net/DTD/sodipodi-0.dtd"
   xmlns="http://www.w3.org/2000/svg"
   xmlns:svg="http://www.w3.org/2000/svg"
   xmlns:rdf="http://www.w3.org/1999/02/22-rdf-syntax-ns#"
   xmlns:cc="http://creativecommons.org/ns#"
   xmlns:dc="http://purl.org/dc/elements/1.1/">
  <defs
     id="defs2" />
  <sodipodi:namedview
     id="base"
     pagecolor="#ffffff"
     bordercolor="#666666"
     borderopacity="1.0"
     inkscape:pageopacity="0.0"
     inkscape:pageshadow="2"
     inkscape:zoom="0.91619524"
     inkscape:cx="223.75144"
     inkscape:cy="246.67232"
     inkscape:document-units="mm"
     inkscape:current-layer="layer2"
     showgrid="false"
     inkscape:snap-object-midpoints="true"
     inkscape:snap-center="false"
     inkscape:snap-text-baseline="false"
     inkscape:snap-page="true"
     inkscape:object-paths="true"
     inkscape:snap-intersection-paths="true"
     inkscape:snap-smooth-nodes="true"
     inkscape:snap-midpoints="true"
     fit-margin-top="0"
     fit-margin-left="0"
     fit-margin-right="0"
     fit-margin-bottom="0"
     inkscape:snap-bbox="true"
     inkscape:bbox-paths="false"
     inkscape:bbox-nodes="true"
     inkscape:snap-bbox-edge-midpoints="true"
     inkscape:snap-bbox-midpoints="true"
     inkscape:snap-nodes="false"
     inkscape:window-width="1280"
     inkscape:window-height="731"
     inkscape:window-x="0"
     inkscape:window-y="0"
     inkscape:window-maximized="1"
     inkscape:snap-others="true"
     inkscape:snap-global="true"
     inkscape:showpageshadow="2"
     inkscape:pagecheckerboard="true"
     inkscape:deskcolor="#d1d1d1" />
  <metadata
     id="metadata5">
    <rdf:RDF>
      <cc:Work
         rdf:about="">
        <dc:format>image/svg+xml</dc:format>
        <dc:type
           rdf:resource="http://purl.org/dc/dcmitype/StillImage" />
      </cc:Work>
    </rdf:RDF>
  </metadata>
  <g
     inkscape:label="Calque 1"
     inkscape:groupmode="layer"
     id="layer1"
     transform="translate(0.1903822,203.19245)"
     style="display:none"
     sodipodi:insensitive="true">
    <g
       id="g5786"
       transform="matrix(0.99618044,0,0,0.99363776,-0.03115611,-203.03176)">
      <rect
         style="fill:#ffffff"
         x="0.5"
         y="0.5"
         width="502"
         height="503"
         id="rect5766" />
      <g
         id="g5784">
        <polyline
           style="fill:none;stroke:#000000"
           points="502.5,497.5 502.5,503.5 496.5,503.5   "
           id="polyline5768" />
        <line
           style="fill:none;stroke:#000000;stroke-dasharray:11.9512, 11.9512"
           x1="484.54901"
           y1="503.5"
           x2="12.476"
           y2="503.5"
           id="line5770" />
        <polyline
           style="fill:none;stroke:#000000"
           points="6.5,503.5 0.5,503.5 0.5,497.5   "
           id="polyline5772" />
        <line
           style="fill:none;stroke:#000000;stroke-dasharray:11.9756, 11.9756"
           x1="0.5"
           y1="485.52399"
           x2="0.5"
           y2="12.488"
           id="line5774" />
        <polyline
           style="fill:none;stroke:#000000"
           points="0.5,6.5 0.5,0.5 6.5,0.5   "
           id="polyline5776" />
        <line
           style="fill:none;stroke:#000000;stroke-dasharray:11.9512, 11.9512"
           x1="18.451"
           y1="0.5"
           x2="490.52399"
           y2="0.5"
           id="line5778" />
        <polyline
           style="fill:none;stroke:#000000"
           points="496.5,0.5 502.5,0.5 502.5,6.5   "
           id="polyline5780" />
        <line
           style="fill:none;stroke:#000000;stroke-dasharray:11.9756, 11.9756"
           x1="502.5"
           y1="18.476"
           x2="502.5"
           y2="491.51199"
           id="line5782" />
      </g>
    </g>
  </g>
  <g
     inkscape:groupmode="layer"
     id="layer2"
     inkscape:label="Calque 2"
     style="display:inline"
     transform="translate(0.15995651,0.15995651)">
    <rect
       style="fill:#ffffff;stroke:#000000;stroke-width:0.0960191;stroke-linejoin:round;-inkscape-stroke:none;paint-order:stroke fill markers;stop-color:#000000"
       id="rect301"
       width="150.39398"
       height="150.30922"
       x="-0.11194696"
       y="-0.11194696"
       ry="0.13919084" />
    <g
       id="g889"
       transform="matrix(0.29926057,0,0,0.29931345,-169.9196,17.581582)">
      <path
         style="fill:#000000;stroke-width:0.282972"
         d="m 692.89787,332.38038 c -2.46043,-0.51167 -5.44991,-3.17693 -6.82602,-6.08574 l -0.81377,-1.72016 -2.3e-4,-30.17076 -2.2e-4,-30.17076 -2.43894,-0.44784 c -6.95883,-1.27775 -13.48888,-7.27265 -15.22659,-13.97872 -0.39177,-1.5119 -0.44467,-5.60116 -0.44467,-34.36978 0,-28.49916 0.0555,-32.86671 0.43606,-34.3279 1.62388,-6.2345 8.44141,-12.54549 15.73614,-14.56696 1.13745,-0.3152 2.47699,-0.5731 2.97676,-0.5731 0.49974,0 0.97208,-0.10267 1.04962,-0.22811 0.0775,-0.12547 3.58975,-14.8011 7.8049,-32.61254 4.21515,-17.81142 7.99699,-33.403097 8.4041,-34.648172 1.89993,-5.81083 5.28045,-11.45618 9.50837,-15.87865 5.24171,-5.48292 10.68812,-8.64334 16.74357,-9.71589 2.37366,-0.42043 176.11428,-0.41533 179.19034,0.005 11.28019,1.54233 20.70146,10.70906 25.5441,24.85397 0.67243,1.964105 12.67022,51.076082 16.25202,66.526312 l 0.36079,1.55634 1.66554,0.20964 c 2.89861,0.36481 6.74898,1.92572 9.6158,3.89813 3.79236,2.60921 7.30652,6.99538 8.34498,10.41568 0.56421,1.85833 0.57228,2.4368 0.49693,35.70409 l -0.0766,33.81515 -0.72966,1.69783 c -2.92381,6.80331 -8.71982,11.34585 -15.88875,12.4527 l -1.05494,0.16288 -0.0769,30.1956 -0.0769,30.19561 -0.8937,1.70912 c -1.19152,2.27861 -3.09965,4.35082 -4.95016,5.3758 l -1.51341,0.8383 H 931.1604 916.30436 l -1.2831,-0.75435 c -2.30812,-1.35696 -5.17777,-5.01038 -6.16422,-7.84777 -0.24895,-0.71606 -0.33441,-8.50816 -0.33441,-30.49024 v -29.5281 h -89.70222 -89.70214 v 28.84923 c 0,19.83305 -0.097,29.31785 -0.31041,30.34874 -0.69381,3.35167 -3.19748,7.29322 -5.56944,8.76804 l -1.05297,0.6547 -14.14859,0.0443 c -7.78173,0.0244 -14.59429,-0.0483 -15.13901,-0.16163 z m 118.49986,-91.91934 -0.076,-6.43761 -13.22893,-0.14149 -13.22892,-0.14149 8.63504,-8.44507 c 13.94478,-13.63801 15.96807,-16.72817 15.97931,-24.40516 0.009,-5.61204 -1.75429,-10.04583 -5.50166,-13.84006 -2.91685,-2.95333 -5.07444,-4.35412 -8.38829,-5.44597 -7.88622,-2.59839 -16.56195,-1.33887 -22.23983,3.22871 -2.29017,1.84232 -3.79472,3.69255 -5.20298,6.39841 -1.16737,2.24301 -2.52372,6.86182 -2.52372,8.5941 v 0.95943 l 6.40549,-0.076 6.40551,-0.076 0.38797,-1.51664 c 1.13908,-4.45281 5.14134,-6.62439 10.53775,-5.71762 5.08362,0.85419 7.34403,3.43064 7.0486,8.03409 -0.16781,2.61491 -0.71965,3.45965 -4.9376,7.55841 -1.68766,1.63997 -7.77996,7.54473 -13.53844,13.12167 -5.75849,5.57695 -10.88381,10.56832 -11.38962,11.09193 l -0.91966,0.95203 v 6.18238 c 0,3.40032 0.0849,6.26728 0.18865,6.37102 0.10374,0.10374 10.42047,0.18866 22.92604,0.18866 h 22.7374 z m 44.77501,-8.13544 v -13.15821 h 13.1582 13.1582 v -4.81052 -4.81052 h -13.1582 -13.1582 v -13.15821 -13.15818 h -4.81052 -4.81053 v 13.15818 13.15821 h -13.1582 -13.1582 v 4.81052 4.81052 h 13.1582 13.1582 v 13.15821 13.15819 h 4.81053 4.81052 z m -145.30615,-0.75571 c 3.52006,-0.73771 7.55095,-3.39111 9.76009,-6.42474 6.3196,-8.67816 3.41827,-20.46847 -6.24314,-25.37071 -2.00113,-1.01538 -4.64501,-1.5874 -7.33706,-1.5874 -5.881,0 -10.84989,2.6615 -14.13292,7.57004 -2.01711,3.01583 -2.70392,5.37993 -2.70392,9.30722 0,3.9273 0.68681,6.2914 2.70392,9.30723 4.02266,6.01438 10.74374,8.70923 17.95303,7.19836 z m 223.26494,-0.01 c 4.62218,-0.99949 9.02181,-4.43267 11.16758,-8.71444 1.50097,-2.99504 1.84308,-4.43955 1.84308,-7.78173 0,-3.34217 -0.34211,-4.78668 -1.84308,-7.78173 -2.13522,-4.26072 -6.34887,-7.56367 -11.16092,-8.74873 -1.99119,-0.49036 -5.95227,-0.43068 -8.09399,0.12198 -2.76163,0.71261 -5.53652,2.30362 -7.64237,4.38186 -6.73835,6.65003 -6.73835,17.40322 0,24.05324 4.18615,4.13126 9.85065,5.7408 15.7297,4.46955 z M 848.24952,165.7105 c 0,-1.16104 0.93388,-4.02368 1.78825,-5.48154 0.39711,-0.67762 1.61856,-2.07779 2.71435,-3.11149 7.58721,-7.1574 21.74439,-6.99107 29.14176,0.34238 2.28452,2.26477 3.69332,4.92559 3.91764,7.39919 l 0.15189,1.67517 h 1.2735 1.27348 l -0.17296,-1.4603 c -0.62936,-5.31397 -4.20314,-10.03711 -9.79648,-12.94709 -8.69737,-4.52488 -20.4577,-3.21194 -27.217,3.03853 -3.23375,2.99033 -4.87339,6.00079 -5.45993,10.02474 l -0.19593,1.34412 h 1.29072 c 1.2367,0 1.29071,-0.0344 1.29071,-0.82371 z m -110.73977,-0.80338 c 2.99087,-7.22352 7.30216,-13.31523 11.58816,-16.37366 3.52329,-2.51416 6.64808,-3.54244 11.1473,-3.66828 l 2.97121,-0.0831 0.071,-2.49435 0.071,-2.49437 -2.01659,-1.27338 c -3.81595,-2.40955 -6.98861,-6.54525 -8.03357,-10.4721 -1.93157,-7.25864 2.3548,-16.37935 9.34224,-19.87882 2.53315,-1.26866 5.1174,-1.72115 8.84493,-1.54872 6.20106,0.28686 10.35647,2.51676 13.40262,7.19217 3.63827,5.58423 3.89474,13.13842 0.63547,18.71764 -1.11961,1.91654 -3.64393,4.47733 -5.7965,5.88024 l -1.8726,1.22044 -0.19805,2.2704 c -0.10893,1.24873 -0.11828,2.3995 -0.0208,2.55727 0.0975,0.15778 1.11648,0.28686 2.26438,0.28686 5.75624,0 11.23249,2.46107 15.70675,7.05873 2.49891,2.56783 4.55364,5.37514 7.59543,10.37736 l 2.21669,3.64534 13.98835,0.0734 13.98835,0.0734 1.20227,-2.76358 c 3.20017,-7.35591 7.78046,-13.11703 12.65133,-15.91294 0.77817,-0.44667 2.43355,-1.15663 3.67863,-1.57768 1.88856,-0.63866 2.79127,-0.77109 5.44639,-0.79899 l 3.18262,-0.0335 v -2.57728 -2.57727 l -1.6271,-1.01398 c -4.98217,-3.10485 -8.19705,-7.96113 -8.74549,-13.21061 -0.35385,-3.38693 1.03261,-8.28656 3.26625,-11.54268 2.13559,-3.11319 4.72264,-5.16071 8.20331,-6.49256 2.50797,-0.95965 7.68744,-1.21689 10.61795,-0.52734 4.89616,1.15207 8.79101,4.25122 10.91931,8.6885 4.14808,8.64835 1.47915,18.12272 -6.49093,23.04213 l -1.71173,1.05654 v 2.50652 2.50653 l 2.19304,0.005 c 6.06567,0.0136 11.5325,2.5779 16.30006,7.64586 2.08867,2.22028 5.39846,6.9296 8.09685,11.52059 l 1.2058,2.05153 h 9.88088 c 7.90541,0 10.07355,-0.0805 10.84462,-0.40268 2.00191,-0.83645 3.82858,-4.5093 3.82858,-7.69804 0,-2.48187 -11.83712,-54.09 -12.93182,-56.38097 -0.92974,-1.945697 -3.80581,-4.988652 -5.91791,-6.261302 l -1.64371,-0.99041 -85.94828,-0.0726 c -85.16509,-0.0719 -85.96198,-0.0674 -87.44939,0.48981 -2.6143,0.97944 -6.32032,4.639918 -7.38066,7.289932 -0.24984,0.6244 -3.40623,13.21285 -7.0142,27.97432 -6.09633,24.94218 -6.54805,26.96659 -6.39147,28.64348 0.27412,2.93535 2.21031,6.38537 4.00475,7.13587 0.31127,0.13018 5.25209,0.24476 10.97961,0.25462 l 10.41365,0.018 0.43936,-1.06114 z"
         id="path864"
         inkscape:connector-curvature="0"
         sodipodi:nodetypes="cccccccscsscscsccscccscscccccccccccccscccsccccccccccsccccssccccccssccscscccccccccccccccccccccccccccsscsssssccsccccccsscccccccssccssccsccccsssssscccssscccccccccccsscccsccccsccscscccsscscccccc" />
      <path
         sodipodi:nodetypes="cccccccccccccccccc"
         inkscape:connector-curvature="0"
         id="path4529-6"
         d="M 584.8236,191.97627 V -41.75862 H 818.7 1052.5765 V 191.97627 425.71118 H 818.7 584.8236 Z m 434.0792,-0.14149 V -8.36792 H 818.7 618.49728 V 191.83478 392.0375 H 818.7 1018.9028 Z"
         style="fill:#000000;stroke-width:0.282972" />
    </g>
  </g>
</svg>
