<?xml version="1.0" encoding="UTF-8" standalone="no"?>
<svg
   version="1.2"
   width="150.00999mm"
   height="149.95999mm"
   viewBox="0 0 15001 14995.999"
   preserveAspectRatio="xMidYMid"
   fill-rule="evenodd"
   stroke-width="28.222"
   stroke-linejoin="round"
   xml:space="preserve"
   id="svg30"
   sodipodi:docname="ID15a35.svg"
   inkscape:version="1.2.2 (b0a8486541, 2022-12-01)"
   xmlns:inkscape="http://www.inkscape.org/namespaces/inkscape"
   xmlns:sodipodi="http://sodipodi.sourceforge.net/DTD/sodipodi-0.dtd"
   xmlns="http://www.w3.org/2000/svg"
   xmlns:svg="http://www.w3.org/2000/svg"
   xmlns:ooo="http://xml.openoffice.org/svg/export"><sodipodi:namedview
   id="namedview30"
   pagecolor="#ffffff"
   bordercolor="#000000"
   borderopacity="0.25"
   inkscape:showpageshadow="2"
   inkscape:pageopacity="0.0"
   inkscape:pagecheckerboard="true"
   inkscape:deskcolor="#d1d1d1"
   inkscape:document-units="mm"
   fit-margin-top="50"
   fit-margin-left="50"
   fit-margin-right="50"
   fit-margin-bottom="50"
   showgrid="false"
   inkscape:zoom="0.55296368"
   inkscape:cx="349.93257"
   inkscape:cy="209.7787"
   inkscape:window-width="1280"
   inkscape:window-height="731"
   inkscape:window-x="0"
   inkscape:window-y="0"
   inkscape:window-maximized="1"
   inkscape:current-layer="svg30" />
 <defs
   class="ClipPathGroup"
   id="defs2">
  <clipPath
   id="presentation_clip_path"
   clipPathUnits="userSpaceOnUse">
   <rect
   x="0"
   y="0"
   width="21001"
   height="29703"
   id="rect1" />
  </clipPath>
  <clipPath
   id="presentation_clip_path_shrink"
   clipPathUnits="userSpaceOnUse">
   <rect
   x="21"
   y="29"
   width="20959"
   height="29644"
   id="rect2" />
  </clipPath>
 </defs>
 <defs
   class="TextShapeIndex"
   id="defs3">
  <g
   ooo:slide="id1"
   ooo:id-list="id3 id4 id5 id6 id7 id8 id9 id10 id11 id12 id13 id14 id15 id16"
   id="g2" />
 </defs>
 <defs
   class="EmbeddedBulletChars"
   id="defs12">
  <g
   id="bullet-char-template-57356"
   transform="matrix(4.8828125e-4,0,0,-4.8828125e-4,0,0)">
   <path
   d="M 580,1141 1163,571 580,0 -4,571 Z"
   id="path3" />
  </g>
  <g
   id="bullet-char-template-57354"
   transform="matrix(4.8828125e-4,0,0,-4.8828125e-4,0,0)">
   <path
   d="M 8,1128 H 1137 V 0 H 8 Z"
   id="path4" />
  </g>
  <g
   id="bullet-char-template-10146"
   transform="matrix(4.8828125e-4,0,0,-4.8828125e-4,0,0)">
   <path
   d="M 174,0 602,739 174,1481 1456,739 Z M 1358,739 309,1346 659,739 Z"
   id="path5" />
  </g>
  <g
   id="bullet-char-template-10132"
   transform="matrix(4.8828125e-4,0,0,-4.8828125e-4,0,0)">
   <path
   d="M 2015,739 1276,0 H 717 l 543,543 H 174 v 393 h 1086 l -543,545 h 557 z"
   id="path6" />
  </g>
  <g
   id="bullet-char-template-10007"
   transform="matrix(4.8828125e-4,0,0,-4.8828125e-4,0,0)">
   <path
   d="m 0,-2 c -7,16 -16,29 -25,39 l 381,530 c -94,256 -141,385 -141,387 0,25 13,38 40,38 9,0 21,-2 34,-5 21,4 42,12 65,25 l 27,-13 111,-251 280,301 64,-25 24,25 c 21,-10 41,-24 62,-43 C 886,937 835,863 770,784 769,783 710,716 594,584 L 774,223 c 0,-27 -21,-55 -63,-84 l 16,-20 C 717,90 699,76 672,76 641,76 570,178 457,381 L 164,-76 c -22,-34 -53,-51 -92,-51 -42,0 -63,17 -64,51 -7,9 -10,24 -10,44 0,9 1,19 2,30 z"
   id="path7" />
  </g>
  <g
   id="bullet-char-template-10004"
   transform="matrix(4.8828125e-4,0,0,-4.8828125e-4,0,0)">
   <path
   d="M 285,-33 C 182,-33 111,30 74,156 52,228 41,333 41,471 c 0,78 14,145 41,201 34,71 87,106 158,106 53,0 88,-31 106,-94 l 23,-176 c 8,-64 28,-97 59,-98 l 735,706 c 11,11 33,17 66,17 42,0 63,-15 63,-46 V 965 c 0,-36 -10,-64 -30,-84 L 442,47 C 390,-6 338,-33 285,-33 Z"
   id="path8" />
  </g>
  <g
   id="bullet-char-template-9679"
   transform="matrix(4.8828125e-4,0,0,-4.8828125e-4,0,0)">
   <path
   d="M 813,0 C 632,0 489,54 383,161 276,268 223,411 223,592 c 0,181 53,324 160,431 106,107 249,161 430,161 179,0 323,-54 432,-161 108,-107 162,-251 162,-431 0,-180 -54,-324 -162,-431 C 1136,54 992,0 813,0 Z"
   id="path9" />
  </g>
  <g
   id="bullet-char-template-8226"
   transform="matrix(4.8828125e-4,0,0,-4.8828125e-4,0,0)">
   <path
   d="m 346,457 c -73,0 -137,26 -191,78 -54,51 -81,114 -81,188 0,73 27,136 81,188 54,52 118,78 191,78 73,0 134,-26 185,-79 51,-51 77,-114 77,-187 0,-75 -25,-137 -76,-188 -50,-52 -112,-78 -186,-78 z"
   id="path10" />
  </g>
  <g
   id="bullet-char-template-8211"
   transform="matrix(4.8828125e-4,0,0,-4.8828125e-4,0,0)">
   <path
   d="M -4,459 H 1135 V 606 H -4 Z"
   id="path11" />
  </g>
  <g
   id="bullet-char-template-61548"
   transform="matrix(4.8828125e-4,0,0,-4.8828125e-4,0,0)">
   <path
   d="m 173,740 c 0,163 58,303 173,419 116,115 255,173 419,173 163,0 302,-58 418,-173 116,-116 174,-256 174,-419 0,-163 -58,-303 -174,-418 C 1067,206 928,148 765,148 601,148 462,206 346,322 231,437 173,577 173,740 Z"
   id="path12" />
  </g>
 </defs>
 <g
   id="g12"
   transform="translate(-2652,-5770)">
  <g
   id="id2"
   class="Master_Slide">
   <g
   id="bg-id2"
   class="Background" />
   <g
   id="bo-id2"
   class="BackgroundObjects" />
  </g>
 </g>
 <g
   class="SlideGroup"
   id="g30"
   transform="translate(-2652,-5770)">
  <g
   id="g29">
   <g
   id="container-id1">
    <g
   id="id1"
   class="Slide"
   clip-path="url(#presentation_clip_path)">
     <g
   class="Page"
   id="g28">
      <g
   class="Group"
   id="g27">
       <g
   class="com.sun.star.drawing.PolyPolygonShape"
   id="g13">
        <g
   id="id3">
         <rect
   class="BoundingBox"
   stroke="none"
   fill="none"
   x="2652"
   y="5770"
   width="15001"
   height="14996"
   id="rect12" />
         <path
   fill="#fefefe"
   stroke="none"
   d="M 2653,5770 V 20765 H 17652 V 5770 Z"
   id="path13" />
        </g>
       </g>
       <g
   class="com.sun.star.drawing.LineShape"
   id="g14"
   style="display:none">
        <g
   id="id4">
         <rect
   class="BoundingBox"
   stroke="none"
   fill="none"
   x="2623"
   y="5763"
   width="53"
   height="14994"
   id="rect13" />
         <path
   fill="none"
   stroke="#1b1918"
   stroke-width="51"
   stroke-linejoin="miter"
   d="M 2649,20756 V 5763"
   id="path14" />
        </g>
       </g>
       <g
   class="com.sun.star.drawing.LineShape"
   id="g15"
   style="display:none">
        <g
   id="id5">
         <rect
   class="BoundingBox"
   stroke="none"
   fill="none"
   x="2649"
   y="20731"
   width="14997"
   height="53"
   id="rect14" />
         <path
   fill="none"
   stroke="#1b1918"
   stroke-width="51"
   stroke-linejoin="miter"
   d="M 17645,20757 H 2649"
   id="path15" />
        </g>
       </g>
       <g
   class="com.sun.star.drawing.LineShape"
   id="g16"
   style="display:none">
        <g
   id="id6">
         <rect
   class="BoundingBox"
   stroke="none"
   fill="none"
   x="17619"
   y="5763"
   width="53"
   height="14994"
   id="rect15" />
         <path
   fill="none"
   stroke="#1b1918"
   stroke-width="51"
   stroke-linejoin="miter"
   d="M 17645,5763 V 20756"
   id="path16" />
        </g>
       </g>
       <g
   class="com.sun.star.drawing.LineShape"
   id="g17"
   style="display:none">
        <g
   id="id7">
         <rect
   class="BoundingBox"
   stroke="none"
   fill="none"
   x="2649"
   y="5737"
   width="14997"
   height="53"
   id="rect16" />
         <path
   fill="none"
   stroke="#1b1918"
   stroke-width="51"
   stroke-linejoin="miter"
   d="M 2649,5763 H 17645"
   id="path17" />
        </g>
       </g>
       <g
   class="com.sun.star.drawing.ClosedBezierShape"
   id="g18">
        <g
   id="id8">
         <rect
   class="BoundingBox"
   stroke="none"
   fill="none"
   x="11742"
   y="6264"
   width="5405"
   height="13995"
   id="rect17" />
         <path
   fill="#826500"
   stroke="none"
   d="m 11742,20258 5404,-2 V 6264 l -5404,2 c 449,279 807,536 1198,993 l 3208,3 v 11996 h -3208 c -322,398 -762,724 -1198,1000 z"
   id="path18" />
        </g>
       </g>
       <g
   class="com.sun.star.drawing.ClosedBezierShape"
   id="g19">
        <g
   id="id9">
         <rect
   class="BoundingBox"
   stroke="none"
   fill="none"
   x="3150"
   y="6264"
   width="5394"
   height="13995"
   id="rect18" />
         <path
   fill="#826500"
   stroke="none"
   d="m 8543,20258 -5393,-2 V 6264 l 5393,2 c -427,252 -843,561 -1199,993 l -3196,3 v 11996 h 3196 c 320,403 775,726 1199,1000 z"
   id="path19" />
        </g>
       </g>
       <g
   class="com.sun.star.drawing.ClosedBezierShape"
   id="g20">
        <g
   id="id10">
         <rect
   class="BoundingBox"
   stroke="none"
   fill="none"
   x="5890"
   y="6261"
   width="8516"
   height="11333"
   id="rect19" />
         <path
   fill="#826500"
   stroke="none"
   d="m 13488,17593 c 459,-955 772,-2120 876,-3389 -541,-102 -1074,-198 -1626,-251 v -3325 l 181,-188 v -445 h 249 v 544 l -176,188 v 2989 c 404,64 968,158 1390,234 12,-231 23,-460 23,-691 0,-3868 -1908,-6998 -4257,-6998 -2351,0 -4258,3130 -4258,6998 0,148 5,295 10,445 0,2 1044,-54 1831,282 l 8,-623 c 0,0 129,171 297,49 0,0 150,-112 48,-270 0,0 102,-63 122,-124 0,0 216,84 284,-74 0,0 105,-152 -50,-274 0,0 -110,-81 -242,-10 0,0 -25,-56 -109,-104 0,0 127,-216 -107,-323 0,0 -187,-58 -261,122 0,0 -31,94 18,188 0,0 -87,61 -122,127 0,0 -188,-122 -303,74 0,0 -76,149 49,254 0,0 51,66 160,48 0,0 -94,124 -181,193 0,0 -180,-69 -228,-219 0,0 -132,-269 86,-487 0,0 94,-115 259,-120 l 10,3 h 8 l 3,-10 10,-10 c 0,0 5,-237 249,-366 0,0 152,-71 337,-5 0,0 219,61 275,371 l 7,7 c 0,0 257,28 353,262 0,0 120,277 -101,490 0,0 -84,94 -262,117 0,0 -30,231 -162,315 0,0 -33,48 -204,96 v 686 c 0,0 -350,-173 -619,-254 -270,-81 -488,-109 -767,-160 -282,-51 -496,-35 -686,-25 33,581 112,1134 223,1662 h 1755 c 0,0 384,-506 785,-772 402,-265 511,-370 1115,-641 0,0 545,-216 898,-292 v -3147 l -188,-186 v -559 h 244 v 445 l 188,155 v 3480 c 0,0 -1871,322 -2902,1763 l -1841,-5 c 61,254 132,503 211,739 h 3866 c 0,0 -326,333 -204,546 0,0 5,23 36,69 90,127 410,366 1614,379 z"
   id="path20" />
        </g>
       </g>
       <g
   class="com.sun.star.drawing.ClosedBezierShape"
   id="g21">
        <g
   id="id11">
         <rect
   class="BoundingBox"
   stroke="none"
   fill="none"
   x="6487"
   y="16820"
   width="6888"
   height="1306"
   id="rect20" />
         <path
   fill="#826500"
   stroke="none"
   d="m 13204,18124 -1493,-8 c 0,0 -817,-20 -850,-36 0,0 -703,-73 -1031,-274 0,0 -350,-155 -406,-476 0,0 -31,-142 -18,-221 H 6593 c -38,-94 -76,-196 -106,-289 l 3315,2 c 0,0 -38,168 -10,287 0,0 33,66 61,119 43,79 102,168 213,258 64,53 181,122 267,142 0,0 422,142 869,160 0,0 426,51 1108,28 h 1064 c -53,107 -111,208 -170,308 z"
   id="path21" />
        </g>
       </g>
       <g
   class="com.sun.star.drawing.ClosedBezierShape"
   id="g22">
        <g
   id="id12">
         <rect
   class="BoundingBox"
   stroke="none"
   fill="none"
   x="6711"
   y="17379"
   width="6355"
   height="2882"
   id="rect21" />
         <path
   fill="#826500"
   stroke="none"
   d="m 13065,18354 c 0,0 -1057,-5 -1102,-3 -49,3 -939,-15 -939,-15 -363,-18 -856,-132 -856,-132 -332,-74 -629,-307 -629,-307 -252,-155 -371,-518 -371,-518 H 6711 c 777,1751 2035,2881 3437,2881 1123,0 2153,-722 2917,-1906 z"
   id="path22" />
        </g>
       </g>
       <g
   class="com.sun.star.drawing.PolyPolygonShape"
   id="g23">
        <g
   id="id13">
         <rect
   class="BoundingBox"
   stroke="none"
   fill="none"
   x="12308"
   y="9993"
   width="253"
   height="449"
   id="rect22" />
         <path
   fill="#ffffff"
   stroke="none"
   d="m 12309,9993 h 251 v 447 h -251 z"
   id="path23" />
        </g>
       </g>
       <g
   class="com.sun.star.drawing.PolyPolygonShape"
   id="g24">
        <g
   id="id14">
         <rect
   class="BoundingBox"
   stroke="none"
   fill="none"
   x="11707"
   y="9993"
   width="255"
   height="448"
   id="rect23" />
         <path
   fill="#ffffff"
   stroke="none"
   d="m 11708,9993 h 253 v 447 h -253 z"
   id="path24" />
        </g>
       </g>
       <g
   class="com.sun.star.drawing.PolyPolygonShape"
   id="g25">
        <g
   id="id15">
         <rect
   class="BoundingBox"
   stroke="none"
   fill="none"
   x="11099"
   y="9993"
   width="262"
   height="449"
   id="rect24" />
         <path
   fill="#ffffff"
   stroke="none"
   d="m 11099,9993 h 261 v 447 h -261 z"
   id="path25" />
        </g>
       </g>
       <g
   class="com.sun.star.drawing.ClosedBezierShape"
   id="g26">
        <g
   id="id16">
         <rect
   class="BoundingBox"
   stroke="none"
   fill="none"
   x="7996"
   y="7208"
   width="2433"
   height="2145"
   id="rect25" />
         <path
   fill="#ffffff"
   stroke="none"
   d="m 9439,7236 c 48,5 93,11 140,22 9,6 17,11 26,20 3,42 -270,554 -292,618 5,-3 17,17 31,9 45,-59 64,-65 73,-68 39,-39 146,-105 146,-105 31,-22 182,-126 233,-154 34,-6 51,-28 82,-34 20,-5 45,-5 59,12 17,22 45,42 48,75 19,54 47,99 59,156 14,5 -3,17 0,25 -17,14 -37,22 -51,39 -6,-3 -8,6 -14,9 -14,2 -22,22 -39,22 -82,67 -164,118 -248,183 v 2 c 206,37 396,107 582,191 31,11 61,25 90,42 h 5 c 23,20 59,17 59,51 -3,14 -3,22 -14,31 -28,36 -31,87 -62,123 -17,14 -36,28 -59,28 -16,9 -30,3 -50,11 -6,-8 -17,-16 -31,-11 -31,14 -73,26 -107,11 -64,-33 -129,-70 -193,-95 -142,-50 -282,-87 -436,-95 l -99,2 c -8,3 -8,12 -8,20 11,20 31,28 48,42 70,82 160,171 241,239 81,76 164,140 237,214 53,42 28,112 45,166 0,14 0,28 -11,33 -9,0 -15,6 -17,12 -31,8 -51,28 -73,42 -12,11 -14,19 -24,28 v 5 c -17,28 -45,40 -76,42 -8,3 -16,6 -22,9 -17,-6 -22,20 -34,8 -53,-59 -120,-98 -171,-160 -31,-19 -53,-47 -84,-67 -87,-87 -152,-168 -241,-254 -3,9 -3,12 0,23 -9,68 11,136 16,197 14,73 26,146 40,222 14,48 19,93 14,149 -3,5 0,17 -12,19 -28,14 -56,0 -84,-5 -5,-11 -19,-9 -28,-14 -17,3 -36,-3 -50,3 -9,-3 -14,8 -23,2 -3,9 -5,-2 -11,0 -20,-2 -39,-5 -59,-8 -20,-8 -42,-8 -62,-17 -5,-11 -5,-25 -11,-39 -28,-132 -56,-275 -59,-410 -8,-25 0,-51 -5,-74 -87,88 -163,186 -225,293 -22,17 -32,65 -68,48 -3,0 -6,-6 -9,-3 -5,-3 -8,-11 -8,-17 -9,-14 -20,-17 -28,-25 -37,-3 -70,-17 -104,-25 -20,-9 -23,-31 -37,-40 -5,-25 -42,-25 -42,-48 -5,-11 -5,-16 0,-25 14,-11 17,-31 28,-45 71,-99 141,-192 216,-279 63,-81 147,-162 204,-249 14,-20 -17,-20 -20,-34 -23,-8 -51,0 -70,-8 -56,0 -102,-12 -156,-3 -36,-9 -81,31 -106,-14 -3,-6 -6,-14 -14,-14 -12,8 -28,8 -34,19 -14,3 -36,0 -53,3 -65,11 -135,17 -197,25 -19,3 -42,12 -59,6 -22,-14 -19,-39 -22,-62 -20,-8 -25,-28 -37,-42 -5,-31 -11,-56 -16,-84 2,-3 5,-11 11,-11 3,0 8,0 11,-6 l -6,-14 c 14,-17 34,-17 51,-31 48,-19 104,-19 157,-33 109,-20 230,-17 348,-20 6,-6 -6,-11 -3,-17 -25,-34 -45,-70 -64,-109 -34,-54 -79,-101 -110,-158 -14,-14 -19,-29 -33,-37 -9,-11 -14,-28 -23,-42 -3,-23 -22,-62 6,-76 61,-56 120,-115 193,-154 -2,-14 14,-6 20,-14 3,8 11,2 17,2 28,6 40,37 51,57 12,16 6,50 31,59 59,36 65,109 110,160 39,76 104,132 154,200 9,3 11,14 20,17 0,8 11,5 11,14 14,-45 31,-96 48,-143 25,-80 42,-161 70,-240 3,-34 22,-62 28,-95 17,-31 22,-68 39,-102 0,-19 20,-33 20,-53 0,-3 42,-70 42,-76 14,-11 25,-30 45,-30 67,5 132,28 199,28 z"
   id="path26" />
        </g>
       </g>
      </g>
     </g>
    </g>
   </g>
  </g>
 </g>
</svg>
