<?xml version="1.0" encoding="UTF-8" standalone="no"?>
<svg
   version="1.2"
   width="150.00999mm"
   height="149.95999mm"
   viewBox="0 0 15001 14995.999"
   preserveAspectRatio="xMidYMid"
   fill-rule="evenodd"
   stroke-width="28.222"
   stroke-linejoin="round"
   xml:space="preserve"
   id="svg30"
   sodipodi:docname="ID15a20.svg"
   inkscape:version="1.2.2 (b0a8486541, 2022-12-01)"
   xmlns:inkscape="http://www.inkscape.org/namespaces/inkscape"
   xmlns:sodipodi="http://sodipodi.sourceforge.net/DTD/sodipodi-0.dtd"
   xmlns="http://www.w3.org/2000/svg"
   xmlns:svg="http://www.w3.org/2000/svg"
   xmlns:ooo="http://xml.openoffice.org/svg/export"><sodipodi:namedview
   id="namedview30"
   pagecolor="#ffffff"
   bordercolor="#000000"
   borderopacity="0.25"
   inkscape:showpageshadow="2"
   inkscape:pageopacity="0.0"
   inkscape:pagecheckerboard="true"
   inkscape:deskcolor="#d1d1d1"
   inkscape:document-units="mm"
   fit-margin-top="50"
   fit-margin-left="50"
   fit-margin-right="50"
   fit-margin-bottom="50"
   showgrid="false"
   inkscape:zoom="12.606938"
   inkscape:cx="559.89012"
   inkscape:cy="6.2663908"
   inkscape:window-width="1280"
   inkscape:window-height="731"
   inkscape:window-x="0"
   inkscape:window-y="0"
   inkscape:window-maximized="1"
   inkscape:current-layer="svg30" />
 <defs
   class="ClipPathGroup"
   id="defs2">
  <clipPath
   id="presentation_clip_path"
   clipPathUnits="userSpaceOnUse">
   <rect
   x="0"
   y="0"
   width="21001"
   height="29703"
   id="rect1" />
  </clipPath>
  <clipPath
   id="presentation_clip_path_shrink"
   clipPathUnits="userSpaceOnUse">
   <rect
   x="21"
   y="29"
   width="20959"
   height="29644"
   id="rect2" />
  </clipPath>
 </defs>
 <defs
   class="TextShapeIndex"
   id="defs3">
  <g
   ooo:slide="id1"
   ooo:id-list="id3 id4 id5 id6 id7 id8 id9 id10 id11 id12 id13 id14 id15"
   id="g2" />
 </defs>
 <defs
   class="EmbeddedBulletChars"
   id="defs12">
  <g
   id="bullet-char-template-57356"
   transform="matrix(4.8828125e-4,0,0,-4.8828125e-4,0,0)">
   <path
   d="M 580,1141 1163,571 580,0 -4,571 Z"
   id="path3" />
  </g>
  <g
   id="bullet-char-template-57354"
   transform="matrix(4.8828125e-4,0,0,-4.8828125e-4,0,0)">
   <path
   d="M 8,1128 H 1137 V 0 H 8 Z"
   id="path4" />
  </g>
  <g
   id="bullet-char-template-10146"
   transform="matrix(4.8828125e-4,0,0,-4.8828125e-4,0,0)">
   <path
   d="M 174,0 602,739 174,1481 1456,739 Z M 1358,739 309,1346 659,739 Z"
   id="path5" />
  </g>
  <g
   id="bullet-char-template-10132"
   transform="matrix(4.8828125e-4,0,0,-4.8828125e-4,0,0)">
   <path
   d="M 2015,739 1276,0 H 717 l 543,543 H 174 v 393 h 1086 l -543,545 h 557 z"
   id="path6" />
  </g>
  <g
   id="bullet-char-template-10007"
   transform="matrix(4.8828125e-4,0,0,-4.8828125e-4,0,0)">
   <path
   d="m 0,-2 c -7,16 -16,29 -25,39 l 381,530 c -94,256 -141,385 -141,387 0,25 13,38 40,38 9,0 21,-2 34,-5 21,4 42,12 65,25 l 27,-13 111,-251 280,301 64,-25 24,25 c 21,-10 41,-24 62,-43 C 886,937 835,863 770,784 769,783 710,716 594,584 L 774,223 c 0,-27 -21,-55 -63,-84 l 16,-20 C 717,90 699,76 672,76 641,76 570,178 457,381 L 164,-76 c -22,-34 -53,-51 -92,-51 -42,0 -63,17 -64,51 -7,9 -10,24 -10,44 0,9 1,19 2,30 z"
   id="path7" />
  </g>
  <g
   id="bullet-char-template-10004"
   transform="matrix(4.8828125e-4,0,0,-4.8828125e-4,0,0)">
   <path
   d="M 285,-33 C 182,-33 111,30 74,156 52,228 41,333 41,471 c 0,78 14,145 41,201 34,71 87,106 158,106 53,0 88,-31 106,-94 l 23,-176 c 8,-64 28,-97 59,-98 l 735,706 c 11,11 33,17 66,17 42,0 63,-15 63,-46 V 965 c 0,-36 -10,-64 -30,-84 L 442,47 C 390,-6 338,-33 285,-33 Z"
   id="path8" />
  </g>
  <g
   id="bullet-char-template-9679"
   transform="matrix(4.8828125e-4,0,0,-4.8828125e-4,0,0)">
   <path
   d="M 813,0 C 632,0 489,54 383,161 276,268 223,411 223,592 c 0,181 53,324 160,431 106,107 249,161 430,161 179,0 323,-54 432,-161 108,-107 162,-251 162,-431 0,-180 -54,-324 -162,-431 C 1136,54 992,0 813,0 Z"
   id="path9" />
  </g>
  <g
   id="bullet-char-template-8226"
   transform="matrix(4.8828125e-4,0,0,-4.8828125e-4,0,0)">
   <path
   d="m 346,457 c -73,0 -137,26 -191,78 -54,51 -81,114 -81,188 0,73 27,136 81,188 54,52 118,78 191,78 73,0 134,-26 185,-79 51,-51 77,-114 77,-187 0,-75 -25,-137 -76,-188 -50,-52 -112,-78 -186,-78 z"
   id="path10" />
  </g>
  <g
   id="bullet-char-template-8211"
   transform="matrix(4.8828125e-4,0,0,-4.8828125e-4,0,0)">
   <path
   d="M -4,459 H 1135 V 606 H -4 Z"
   id="path11" />
  </g>
  <g
   id="bullet-char-template-61548"
   transform="matrix(4.8828125e-4,0,0,-4.8828125e-4,0,0)">
   <path
   d="m 173,740 c 0,163 58,303 173,419 116,115 255,173 419,173 163,0 302,-58 418,-173 116,-116 174,-256 174,-419 0,-163 -58,-303 -174,-418 C 1067,206 928,148 765,148 601,148 462,206 346,322 231,437 173,577 173,740 Z"
   id="path12" />
  </g>
 </defs>
 <g
   id="g12"
   transform="translate(-2652,-5770)">
  <g
   id="id2"
   class="Master_Slide">
   <g
   id="bg-id2"
   class="Background" />
   <g
   id="bo-id2"
   class="BackgroundObjects" />
  </g>
 </g>
 <g
   class="SlideGroup"
   id="g30"
   transform="translate(-2652,-5770)">
  <g
   id="g29">
   <g
   id="container-id1">
    <g
   id="id1"
   class="Slide"
   clip-path="url(#presentation_clip_path)">
     <g
   class="Page"
   id="g28">
      <g
   class="Group"
   id="g27">
       <g
   class="com.sun.star.drawing.PolyPolygonShape"
   id="g13">
        <g
   id="id3">
         <rect
   class="BoundingBox"
   stroke="none"
   fill="none"
   x="2652"
   y="5770"
   width="15001"
   height="14996"
   id="rect12" />
         <path
   fill="#fefefe"
   stroke="none"
   d="M 2653,5770 V 20765 H 17652 V 5770 Z"
   id="path13" />
        </g>
       </g>
       <g
   class="Group"
   id="g18"
   style="display:none">
        <g
   class="com.sun.star.drawing.LineShape"
   id="g14">
         <g
   id="id4">
          <rect
   class="BoundingBox"
   stroke="none"
   fill="none"
   x="2628"
   y="5771"
   width="53"
   height="14994"
   id="rect13" />
          <path
   fill="none"
   stroke="#1b1918"
   stroke-width="51"
   stroke-linejoin="miter"
   d="M 2654,20764 V 5771"
   id="path14" />
         </g>
        </g>
        <g
   class="com.sun.star.drawing.LineShape"
   id="g15">
         <g
   id="id5">
          <rect
   class="BoundingBox"
   stroke="none"
   fill="none"
   x="2654"
   y="20739"
   width="14997"
   height="53"
   id="rect14" />
          <path
   fill="none"
   stroke="#1b1918"
   stroke-width="51"
   stroke-linejoin="miter"
   d="M 17650,20765 H 2654"
   id="path15" />
         </g>
        </g>
        <g
   class="com.sun.star.drawing.LineShape"
   id="g16">
         <g
   id="id6">
          <rect
   class="BoundingBox"
   stroke="none"
   fill="none"
   x="17624"
   y="5771"
   width="53"
   height="14994"
   id="rect15" />
          <path
   fill="none"
   stroke="#1b1918"
   stroke-width="51"
   stroke-linejoin="miter"
   d="M 17650,5771 V 20764"
   id="path16" />
         </g>
        </g>
        <g
   class="com.sun.star.drawing.LineShape"
   id="g17">
         <g
   id="id7">
          <rect
   class="BoundingBox"
   stroke="none"
   fill="none"
   x="2654"
   y="5745"
   width="14997"
   height="53"
   id="rect16" />
          <path
   fill="none"
   stroke="#1b1918"
   stroke-width="51"
   stroke-linejoin="miter"
   d="M 2654,5771 H 17650"
   id="path17" />
         </g>
        </g>
       </g>
       <g
   class="com.sun.star.drawing.ClosedBezierShape"
   id="g19">
        <g
   id="id8">
         <rect
   class="BoundingBox"
   stroke="none"
   fill="none"
   x="11747"
   y="6271"
   width="5405"
   height="13995"
   id="rect18" />
         <path
   fill="#826500"
   stroke="none"
   d="m 11747,20265 5404,-2 V 6271 l -5404,2 c 449,279 807,536 1198,993 l 3208,3 v 11996 h -3208 c -322,398 -762,724 -1198,1000 z"
   id="path18" />
        </g>
       </g>
       <g
   class="com.sun.star.drawing.ClosedBezierShape"
   id="g20">
        <g
   id="id9">
         <rect
   class="BoundingBox"
   stroke="none"
   fill="none"
   x="3155"
   y="6270"
   width="5394"
   height="13996"
   id="rect19" />
         <path
   fill="#826500"
   stroke="none"
   d="m 8548,20265 -5393,-2 V 6271 l 5393,2 c -427,252 -843,561 -1199,993 l -3196,3 v 11996 h 3196 c 320,403 775,726 1199,1000 z"
   id="path19" />
        </g>
       </g>
       <g
   class="com.sun.star.drawing.OpenBezierShape"
   id="g21">
        <g
   id="id10">
         <rect
   class="BoundingBox"
   stroke="none"
   fill="none"
   x="7600"
   y="13734"
   width="25"
   height="7"
   id="rect20" />
        </g>
       </g>
       <g
   class="com.sun.star.drawing.ClosedBezierShape"
   id="g22">
        <g
   id="id11">
         <rect
   class="BoundingBox"
   stroke="none"
   fill="none"
   x="6723"
   y="10454"
   width="6398"
   height="6890"
   id="rect21" />
         <path
   fill="#826500"
   stroke="none"
   d="m 11967,13668 c -157,193 -162,403 -84,639 112,129 178,145 341,167 15,18 33,51 43,72 0,279 274,543 493,680 l 99,18 45,-8 c -17,54 -66,122 -91,176 -66,193 -153,663 150,680 0,153 68,369 157,488 -134,203 -218,366 -381,551 -101,112 -279,257 -393,198 5,-35 274,-175 274,-213 0,-140 -53,-277 -89,-401 l -97,-369 c -40,-165 -276,201 -406,298 -61,45 -114,66 -185,71 -290,-21 -586,-130 -875,-170 l -120,-18 c -81,-132 -119,-158 -274,-224 -134,82 -188,112 -226,272 -155,-155 -493,-91 -653,23 -71,46 -111,101 -200,112 -104,-5 -270,7 -366,-16 -31,-30 -76,-104 -109,-144 -64,-66 -135,-120 -168,-201 -81,-185 -89,-366 53,-518 97,-92 229,-109 348,-163 84,-35 188,-112 267,-137 71,142 201,246 338,315 58,-15 127,-43 185,-56 237,-35 427,-86 409,-376 -28,-188 -56,-297 -218,-404 -36,-43 -92,-116 -109,-167 -21,-338 -265,-419 -549,-252 -58,54 -112,76 -201,64 -122,-102 -360,-132 -487,-38 -44,-54 -74,-122 -102,-186 -168,-244 -384,-325 -666,-325 -51,-25 -140,-193 -178,-250 -148,-221 -336,-414 -442,-658 -36,-94 -97,-205 -74,-307 61,-196 41,-409 -2,-604 -89,-188 -249,-300 -432,-384 -21,-13 -41,-56 -56,-81 -66,-84 -153,-150 -213,-234 35,-152 60,-310 86,-462 155,-102 307,-211 452,-328 127,-89 617,-388 729,-338 124,92 282,150 433,178 0,302 498,396 734,404 162,0 325,30 462,122 0,272 221,508 500,449 107,120 188,216 239,374 84,167 186,343 303,487 38,11 231,-187 279,-251 102,-130 117,-203 289,-234 171,-30 183,110 347,56 310,-99 208,-266 521,-373 274,-97 165,-31 216,76 12,25 -87,401 -107,414 -130,81 -127,-135 -239,-38 -223,198 -18,274 -168,396 -29,25 -260,-71 -356,-106 -66,-25 -69,-126 -137,-11 -82,138 -120,242 109,298 379,94 229,-74 539,157 135,102 -198,315 -129,358 104,64 -165,-96 -236,-7 -179,228 -260,-51 -347,213 l 26,86 c 328,330 -107,351 699,160 z"
   id="path21" />
        </g>
       </g>
       <g
   class="com.sun.star.drawing.ClosedBezierShape"
   id="g23">
        <g
   id="id12">
         <rect
   class="BoundingBox"
   stroke="none"
   fill="none"
   x="5895"
   y="6273"
   width="8512"
   height="13993"
   id="rect22" />
         <path
   fill="#826500"
   stroke="none"
   d="m 14405,13663 c -127,3673 -1982,6602 -4252,6602 -2353,0 -4258,-3135 -4258,-6995 0,-3865 1905,-6996 4258,-6996 2181,0 3977,2694 4221,6174 -114,-38 -267,-73 -348,-114 -89,-43 -231,-173 -315,-226 -96,-64 -246,-244 -325,-305 -91,-68 -307,-112 -384,-175 -96,-79 -175,-201 -241,-254 -142,-120 -287,-173 -345,-150 -125,48 -249,84 -341,5 -104,-86 -177,-160 -271,-53 -46,50 -125,73 -214,147 -68,56 -162,206 -254,272 -73,51 -157,-5 -241,51 -81,50 -213,284 -302,330 -38,20 -105,61 -158,91 -368,-531 -58,-249 -383,-607 -87,-94 -212,33 -337,-81 -170,-153 -15,-297 -216,-404 -436,-234 -536,-41 -993,-244 -157,-68 -23,-254 -195,-279 -465,-69 -407,-277 -681,-175 -650,238 -632,368 -1204,726 0,0 -130,554 -117,592 87,249 226,239 292,394 46,106 203,116 285,195 180,175 150,147 172,389 28,264 -86,269 -12,523 0,0 18,33 25,41 -124,132 -211,12 -284,45 -104,43 -117,93 -193,103 -132,20 -242,15 -313,25 -195,26 -175,-72 -266,-79 -46,-3 -130,257 -247,183 -5,272 13,285 13,285 91,-51 117,-25 170,-18 107,13 292,-101 452,13 56,38 180,-26 346,-26 94,0 172,21 315,21 66,0 208,10 337,40 82,97 188,239 305,440 142,239 310,53 554,218 231,160 117,188 302,394 48,53 137,89 203,58 59,-25 13,-78 82,-78 287,0 137,109 442,91 200,-10 147,-145 358,-145 86,0 61,153 99,231 185,361 278,173 306,496 10,124 -69,129 -260,162 -161,28 -72,54 -201,-35 -135,-94 -127,-348 -269,-264 -602,353 -577,203 -778,411 -139,145 -185,389 -116,620 91,305 170,221 325,467 86,135 261,102 500,112 274,13 274,-180 544,-218 244,-36 222,137 458,71 139,-41 35,-94 122,-224 30,-46 114,130 150,158 55,45 35,22 109,33 587,81 254,68 828,167 361,64 429,-76 673,-226 0,0 -66,-106 89,310 58,158 -361,175 -394,340 -18,84 264,186 427,211 124,18 193,-78 228,-104 252,-185 260,-180 470,-526 407,-668 160,-259 71,-528 -78,-236 -60,-302 -48,-328 15,-25 54,-73 56,-99 13,-94 -279,26 -284,-117 -18,-492 259,-454 221,-942 -13,-170 -237,246 -369,132 -553,-485 -193,-388 -439,-688 -89,-112 -300,2 -325,-186 -56,-403 256,-315 112,-579 363,-96 873,-277 998,-188 404,298 358,295 828,206 99,-18 340,79 427,81 z"
   id="path22" />
        </g>
       </g>
       <g
   class="com.sun.star.drawing.ClosedBezierShape"
   id="g24">
        <g
   id="id13">
         <rect
   class="BoundingBox"
   stroke="none"
   fill="none"
   x="8002"
   y="7213"
   width="2434"
   height="2145"
   id="rect23" />
         <path
   fill="#ffffff"
   stroke="none"
   d="m 9446,7241 c 48,5 93,11 140,22 9,6 17,11 26,20 3,42 -270,554 -292,618 5,-3 17,17 31,9 45,-59 64,-65 73,-68 39,-39 146,-105 146,-105 31,-22 182,-126 233,-154 34,-6 51,-28 82,-34 20,-5 45,-5 59,12 17,22 45,42 48,75 19,54 47,99 59,156 14,5 -3,17 0,25 -17,14 -37,22 -51,39 -6,-3 -8,6 -14,9 -14,2 -22,22 -39,22 -82,67 -164,118 -248,183 v 2 c 206,37 396,107 582,191 31,11 61,25 90,42 h 5 c 23,20 59,17 59,51 -3,14 -3,22 -14,31 -28,36 -31,87 -62,123 -17,14 -36,28 -59,28 -16,9 -30,3 -50,11 -6,-8 -17,-16 -31,-11 -31,14 -73,26 -107,11 -64,-33 -129,-70 -193,-95 -142,-50 -282,-87 -436,-95 l -99,2 c -8,3 -8,12 -8,20 11,20 31,28 48,42 70,82 160,171 241,239 81,76 164,140 237,214 53,42 28,112 45,166 0,14 0,28 -11,33 -9,0 -15,6 -17,12 -31,8 -51,28 -73,42 -12,11 -14,19 -24,28 v 5 c -17,28 -45,40 -76,42 -8,3 -16,6 -22,9 -17,-6 -22,20 -34,8 -53,-59 -120,-98 -171,-160 -31,-19 -53,-47 -84,-67 -87,-87 -152,-168 -241,-254 -3,9 -3,12 0,23 -9,68 11,136 16,197 14,73 26,146 40,222 14,48 19,93 14,149 -3,5 0,17 -12,19 -28,14 -56,0 -84,-5 -5,-11 -19,-9 -28,-14 -17,3 -36,-3 -50,3 -9,-3 -14,8 -23,2 -3,9 -5,-2 -11,0 -20,-2 -39,-5 -59,-8 -20,-8 -42,-8 -62,-17 -5,-11 -5,-25 -11,-39 -28,-132 -56,-275 -59,-410 -8,-25 0,-51 -5,-74 -87,88 -163,186 -225,293 -22,17 -32,65 -68,48 -3,0 -6,-6 -9,-3 -5,-3 -8,-11 -8,-17 -9,-14 -20,-17 -28,-25 -37,-3 -70,-17 -104,-25 -20,-9 -23,-31 -37,-40 -5,-25 -42,-25 -42,-48 -5,-11 -5,-16 0,-25 14,-11 17,-31 28,-45 71,-99 141,-192 216,-279 63,-81 147,-162 204,-249 14,-20 -17,-20 -20,-34 -23,-8 -51,0 -70,-8 -56,0 -102,-12 -156,-3 -36,-9 -81,31 -106,-14 -3,-6 -6,-14 -14,-14 -12,8 -28,8 -34,19 -14,3 -36,0 -53,3 -65,11 -135,17 -197,25 -19,3 -42,12 -59,6 -22,-14 -19,-39 -22,-62 -20,-8 -25,-28 -37,-42 -5,-31 -11,-56 -16,-84 2,-3 5,-11 11,-11 3,0 8,0 11,-6 l -6,-14 c 14,-17 34,-17 51,-31 48,-19 104,-19 157,-33 109,-20 230,-17 348,-20 6,-6 -6,-11 -3,-17 -25,-34 -45,-70 -64,-109 -34,-54 -79,-101 -110,-158 -14,-14 -19,-29 -33,-37 -9,-11 -14,-28 -23,-42 -3,-23 -22,-62 6,-76 61,-56 120,-115 193,-154 -2,-14 14,-6 20,-14 3,8 11,2 17,2 28,6 40,37 51,57 12,16 6,50 31,59 59,36 65,109 110,160 39,76 104,132 154,200 9,3 11,14 20,17 0,8 11,5 11,14 14,-45 31,-96 48,-143 25,-80 42,-161 70,-240 3,-34 22,-62 28,-95 17,-31 22,-68 39,-102 0,-19 20,-33 20,-53 0,-3 42,-70 42,-76 14,-11 25,-30 45,-30 67,5 132,28 199,28 z"
   id="path23" />
        </g>
       </g>
       <g
   class="com.sun.star.drawing.ClosedBezierShape"
   id="g25">
        <g
   id="id14">
         <rect
   class="BoundingBox"
   stroke="none"
   fill="none"
   x="8924"
   y="17413"
   width="2632"
   height="2458"
   id="rect24" />
         <path
   fill="#ffffff"
   stroke="none"
   d="m 11080,17921 c 16,280 -572,366 -572,519 0,74 406,-247 559,-247 282,0 564,614 469,874 l -62,29 -21,41 c -37,21 -174,-54 -232,-54 -25,0 -145,25 -170,25 -42,0 -141,-280 -348,-280 -17,0 -133,-8 -129,12 4,21 187,74 187,74 128,75 224,305 224,454 0,543 -963,774 -963,24 0,-74 133,-432 79,-457 -54,-25 -179,375 -179,375 -397,581 -1321,-445 -771,-780 0,0 340,-131 427,-131 34,0 158,70 195,49 38,-21 -153,-66 -153,-91 0,-45 -241,-74 -311,-74 -21,0 -108,29 -149,29 -17,0 -71,-54 -71,-66 0,-62 -165,-82 -165,-103 0,-33 53,-148 53,-259 0,-5 -16,-25 -16,-25 0,-136 829,-350 891,-297 174,148 220,647 340,758 121,111 -170,-778 -145,-816 262,-258 967,79 1033,417 z"
   id="path24" />
        </g>
       </g>
       <g
   class="com.sun.star.drawing.ClosedBezierShape"
   id="g26">
        <g
   id="id15">
         <rect
   class="BoundingBox"
   stroke="none"
   fill="none"
   x="9891"
   y="17575"
   width="790"
   height="1310"
   id="rect25" />
         <path
   fill="#826500"
   stroke="none"
   d="m 10562,17810 c 4,-8 -33,-50 -33,-50 -37,0 112,-196 137,-185 25,12 8,239 4,243 -4,4 -87,8 -66,8 12,0 -121,146 -312,769 -4,20 66,-104 170,-100 0,0 -145,87 -145,145 0,70 187,161 161,157 -145,-21 -194,-120 -199,-99 -41,103 -141,185 -141,185 34,-86 112,-185 71,-231 -50,-61 -183,-112 -312,-137 -53,-12 241,5 299,67 29,33 21,-133 21,-161 0,-95 42,119 42,153 0,4 120,-401 303,-764 z"
   id="path25" />
        </g>
       </g>
      </g>
     </g>
    </g>
   </g>
  </g>
 </g>
</svg>
