<?xml version="1.0" encoding="UTF-8" standalone="no"?>
<svg
   version="1.2"
   width="150.00999mm"
   height="149.95999mm"
   viewBox="0 0 15001 14995.999"
   preserveAspectRatio="xMidYMid"
   fill-rule="evenodd"
   stroke-width="28.222"
   stroke-linejoin="round"
   xml:space="preserve"
   id="svg28"
   sodipodi:docname="ID15a27.svg"
   inkscape:version="1.2.2 (b0a8486541, 2022-12-01)"
   xmlns:inkscape="http://www.inkscape.org/namespaces/inkscape"
   xmlns:sodipodi="http://sodipodi.sourceforge.net/DTD/sodipodi-0.dtd"
   xmlns="http://www.w3.org/2000/svg"
   xmlns:svg="http://www.w3.org/2000/svg"
   xmlns:ooo="http://xml.openoffice.org/svg/export"><sodipodi:namedview
   id="namedview28"
   pagecolor="#ffffff"
   bordercolor="#000000"
   borderopacity="0.25"
   inkscape:showpageshadow="2"
   inkscape:pageopacity="0.0"
   inkscape:pagecheckerboard="true"
   inkscape:deskcolor="#d1d1d1"
   inkscape:document-units="mm"
   fit-margin-top="50"
   fit-margin-left="50"
   fit-margin-right="50"
   fit-margin-bottom="50"
   showgrid="false"
   inkscape:zoom="4.3280665"
   inkscape:cx="531.06856"
   inkscape:cy="28.419157"
   inkscape:window-width="1280"
   inkscape:window-height="731"
   inkscape:window-x="0"
   inkscape:window-y="0"
   inkscape:window-maximized="1"
   inkscape:current-layer="svg28" />
 <defs
   class="ClipPathGroup"
   id="defs2">
  <clipPath
   id="presentation_clip_path"
   clipPathUnits="userSpaceOnUse">
   <rect
   x="0"
   y="0"
   width="21001"
   height="29703"
   id="rect1" />
  </clipPath>
  <clipPath
   id="presentation_clip_path_shrink"
   clipPathUnits="userSpaceOnUse">
   <rect
   x="21"
   y="29"
   width="20959"
   height="29644"
   id="rect2" />
  </clipPath>
 </defs>
 <defs
   class="TextShapeIndex"
   id="defs3">
  <g
   ooo:slide="id1"
   ooo:id-list="id3 id4 id5 id6 id7 id8 id9 id10 id11 id12 id13"
   id="g2" />
 </defs>
 <defs
   class="EmbeddedBulletChars"
   id="defs12">
  <g
   id="bullet-char-template-57356"
   transform="matrix(4.8828125e-4,0,0,-4.8828125e-4,0,0)">
   <path
   d="M 580,1141 1163,571 580,0 -4,571 Z"
   id="path3" />
  </g>
  <g
   id="bullet-char-template-57354"
   transform="matrix(4.8828125e-4,0,0,-4.8828125e-4,0,0)">
   <path
   d="M 8,1128 H 1137 V 0 H 8 Z"
   id="path4" />
  </g>
  <g
   id="bullet-char-template-10146"
   transform="matrix(4.8828125e-4,0,0,-4.8828125e-4,0,0)">
   <path
   d="M 174,0 602,739 174,1481 1456,739 Z M 1358,739 309,1346 659,739 Z"
   id="path5" />
  </g>
  <g
   id="bullet-char-template-10132"
   transform="matrix(4.8828125e-4,0,0,-4.8828125e-4,0,0)">
   <path
   d="M 2015,739 1276,0 H 717 l 543,543 H 174 v 393 h 1086 l -543,545 h 557 z"
   id="path6" />
  </g>
  <g
   id="bullet-char-template-10007"
   transform="matrix(4.8828125e-4,0,0,-4.8828125e-4,0,0)">
   <path
   d="m 0,-2 c -7,16 -16,29 -25,39 l 381,530 c -94,256 -141,385 -141,387 0,25 13,38 40,38 9,0 21,-2 34,-5 21,4 42,12 65,25 l 27,-13 111,-251 280,301 64,-25 24,25 c 21,-10 41,-24 62,-43 C 886,937 835,863 770,784 769,783 710,716 594,584 L 774,223 c 0,-27 -21,-55 -63,-84 l 16,-20 C 717,90 699,76 672,76 641,76 570,178 457,381 L 164,-76 c -22,-34 -53,-51 -92,-51 -42,0 -63,17 -64,51 -7,9 -10,24 -10,44 0,9 1,19 2,30 z"
   id="path7" />
  </g>
  <g
   id="bullet-char-template-10004"
   transform="matrix(4.8828125e-4,0,0,-4.8828125e-4,0,0)">
   <path
   d="M 285,-33 C 182,-33 111,30 74,156 52,228 41,333 41,471 c 0,78 14,145 41,201 34,71 87,106 158,106 53,0 88,-31 106,-94 l 23,-176 c 8,-64 28,-97 59,-98 l 735,706 c 11,11 33,17 66,17 42,0 63,-15 63,-46 V 965 c 0,-36 -10,-64 -30,-84 L 442,47 C 390,-6 338,-33 285,-33 Z"
   id="path8" />
  </g>
  <g
   id="bullet-char-template-9679"
   transform="matrix(4.8828125e-4,0,0,-4.8828125e-4,0,0)">
   <path
   d="M 813,0 C 632,0 489,54 383,161 276,268 223,411 223,592 c 0,181 53,324 160,431 106,107 249,161 430,161 179,0 323,-54 432,-161 108,-107 162,-251 162,-431 0,-180 -54,-324 -162,-431 C 1136,54 992,0 813,0 Z"
   id="path9" />
  </g>
  <g
   id="bullet-char-template-8226"
   transform="matrix(4.8828125e-4,0,0,-4.8828125e-4,0,0)">
   <path
   d="m 346,457 c -73,0 -137,26 -191,78 -54,51 -81,114 -81,188 0,73 27,136 81,188 54,52 118,78 191,78 73,0 134,-26 185,-79 51,-51 77,-114 77,-187 0,-75 -25,-137 -76,-188 -50,-52 -112,-78 -186,-78 z"
   id="path10" />
  </g>
  <g
   id="bullet-char-template-8211"
   transform="matrix(4.8828125e-4,0,0,-4.8828125e-4,0,0)">
   <path
   d="M -4,459 H 1135 V 606 H -4 Z"
   id="path11" />
  </g>
  <g
   id="bullet-char-template-61548"
   transform="matrix(4.8828125e-4,0,0,-4.8828125e-4,0,0)">
   <path
   d="m 173,740 c 0,163 58,303 173,419 116,115 255,173 419,173 163,0 302,-58 418,-173 116,-116 174,-256 174,-419 0,-163 -58,-303 -174,-418 C 1067,206 928,148 765,148 601,148 462,206 346,322 231,437 173,577 173,740 Z"
   id="path12" />
  </g>
 </defs>
 <g
   id="g12"
   transform="translate(-2652,-5770)">
  <g
   id="id2"
   class="Master_Slide">
   <g
   id="bg-id2"
   class="Background" />
   <g
   id="bo-id2"
   class="BackgroundObjects" />
  </g>
 </g>
 <g
   class="SlideGroup"
   id="g28"
   transform="translate(-2652,-5770)">
  <g
   id="g27">
   <g
   id="container-id1">
    <g
   id="id1"
   class="Slide"
   clip-path="url(#presentation_clip_path)">
     <g
   class="Page"
   id="g26">
      <g
   class="Group"
   id="g25">
       <g
   class="com.sun.star.drawing.PolyPolygonShape"
   id="g13">
        <g
   id="id3">
         <rect
   class="BoundingBox"
   stroke="none"
   fill="none"
   x="2652"
   y="5770"
   width="15001"
   height="14996"
   id="rect12" />
         <path
   fill="#fefefe"
   stroke="none"
   d="M 2653,5770 V 20765 H 17652 V 5770 Z"
   id="path13" />
        </g>
       </g>
       <g
   class="Group"
   id="g18"
   style="display:none">
        <g
   class="com.sun.star.drawing.LineShape"
   id="g14">
         <g
   id="id4">
          <rect
   class="BoundingBox"
   stroke="none"
   fill="none"
   x="2628"
   y="5771"
   width="53"
   height="14994"
   id="rect13" />
          <path
   fill="none"
   stroke="#1b1918"
   stroke-width="51"
   stroke-linejoin="miter"
   d="M 2654,20764 V 5771"
   id="path14" />
         </g>
        </g>
        <g
   class="com.sun.star.drawing.LineShape"
   id="g15">
         <g
   id="id5">
          <rect
   class="BoundingBox"
   stroke="none"
   fill="none"
   x="2654"
   y="20739"
   width="14997"
   height="53"
   id="rect14" />
          <path
   fill="none"
   stroke="#1b1918"
   stroke-width="51"
   stroke-linejoin="miter"
   d="M 17650,20765 H 2654"
   id="path15" />
         </g>
        </g>
        <g
   class="com.sun.star.drawing.LineShape"
   id="g16">
         <g
   id="id6">
          <rect
   class="BoundingBox"
   stroke="none"
   fill="none"
   x="17624"
   y="5771"
   width="53"
   height="14994"
   id="rect15" />
          <path
   fill="none"
   stroke="#1b1918"
   stroke-width="51"
   stroke-linejoin="miter"
   d="M 17650,5771 V 20764"
   id="path16" />
         </g>
        </g>
        <g
   class="com.sun.star.drawing.LineShape"
   id="g17">
         <g
   id="id7">
          <rect
   class="BoundingBox"
   stroke="none"
   fill="none"
   x="2654"
   y="5745"
   width="14997"
   height="53"
   id="rect16" />
          <path
   fill="none"
   stroke="#1b1918"
   stroke-width="51"
   stroke-linejoin="miter"
   d="M 2654,5771 H 17650"
   id="path17" />
         </g>
        </g>
       </g>
       <g
   class="com.sun.star.drawing.ClosedBezierShape"
   id="g19">
        <g
   id="id8">
         <rect
   class="BoundingBox"
   stroke="none"
   fill="none"
   x="11747"
   y="6271"
   width="5405"
   height="13995"
   id="rect18" />
         <path
   fill="#826500"
   stroke="none"
   d="m 11747,20265 5404,-2 V 6271 l -5404,2 c 449,279 807,536 1198,993 l 3208,3 v 11996 h -3208 c -322,398 -762,724 -1198,1000 z"
   id="path18" />
        </g>
       </g>
       <g
   class="com.sun.star.drawing.ClosedBezierShape"
   id="g20">
        <g
   id="id9">
         <rect
   class="BoundingBox"
   stroke="none"
   fill="none"
   x="3155"
   y="6270"
   width="5394"
   height="13996"
   id="rect19" />
         <path
   fill="#826500"
   stroke="none"
   d="m 8548,20265 -5393,-2 V 6271 l 5393,2 c -427,252 -843,561 -1199,993 l -3196,3 v 11996 h 3196 c 320,403 775,726 1199,1000 z"
   id="path19" />
        </g>
       </g>
       <g
   class="com.sun.star.drawing.ClosedBezierShape"
   id="g21">
        <g
   id="id10">
         <rect
   class="BoundingBox"
   stroke="none"
   fill="none"
   x="5879"
   y="10278"
   width="8508"
   height="9981"
   id="rect20" />
         <path
   fill="#826500"
   stroke="none"
   d="m 10373,20255 v -1451 c 937,8 1565,-1483 1717,-2703 107,-831 476,-1037 752,-1037 0,0 -182,-498 -615,-514 -1515,-87 -1493,1712 -1881,2057 0,0 -138,-2363 1286,-2794 -369,-125 -1019,331 -1294,634 l 8,-712 c 0,0 595,72 826,-278 262,-397 17,-874 598,-1716 204,-298 -1333,186 -1515,556 -186,-323 -1748,-854 -1588,-623 408,767 256,1299 554,1783 228,373 801,278 801,278 v 2858 c -60,-478 -1322,-2121 -2319,-1721 782,834 551,1554 606,1385 60,1256 873,2486 1727,2539 v 1462 c -2149,-106 -4127,-3017 -4157,-6884 -7,-1091 157,-2145 427,-3095 h 7685 c 250,886 394,1884 394,2931 0,3650 -1579,6720 -4012,7045 z"
   id="path20" />
        </g>
       </g>
       <g
   class="com.sun.star.drawing.ClosedBezierShape"
   id="g22">
        <g
   id="id11">
         <rect
   class="BoundingBox"
   stroke="none"
   fill="none"
   x="6375"
   y="6279"
   width="7545"
   height="3770"
   id="rect21" />
         <path
   fill="#826500"
   stroke="none"
   d="M 13919,10047 H 6375 c 771,-2389 2242,-3768 3827,-3768 1623,0 3025,1530 3717,3768 z"
   id="path21" />
        </g>
       </g>
       <g
   class="com.sun.star.drawing.ClosedBezierShape"
   id="g23">
        <g
   id="id12">
         <rect
   class="BoundingBox"
   stroke="none"
   fill="none"
   x="11739"
   y="14727"
   width="473"
   height="481"
   id="rect22" />
         <path
   fill="#826500"
   stroke="none"
   d="m 11973,15206 c -130,0 -234,-109 -234,-239 0,-135 104,-240 234,-240 133,0 238,105 238,240 0,130 -105,239 -238,239 z"
   id="path22" />
        </g>
       </g>
       <g
   class="com.sun.star.drawing.ClosedBezierShape"
   id="g24">
        <g
   id="id13">
         <rect
   class="BoundingBox"
   stroke="none"
   fill="none"
   x="8092"
   y="7238"
   width="2388"
   height="2125"
   id="rect23" />
         <path
   fill="#ffffff"
   stroke="none"
   d="m 9509,7265 c 46,3 91,9 137,23 9,5 17,11 25,19 3,42 -264,549 -286,613 5,-3 16,16 30,8 41,-58 63,-64 72,-67 38,-39 143,-104 143,-104 30,-22 179,-125 229,-153 34,-5 50,-27 80,-33 20,-5 44,-5 58,11 17,22 44,42 47,75 19,50 47,98 58,154 14,3 -3,17 0,25 -17,14 -36,22 -50,39 -5,-3 -8,6 -13,8 -14,3 -22,23 -39,23 -80,66 -161,114 -243,180 v 0 c 202,39 386,109 571,192 30,11 60,25 88,42 h 6 c 22,19 57,17 57,50 -2,14 -2,22 -13,31 -28,36 -33,86 -61,122 -17,14 -36,28 -58,28 -16,8 -30,2 -49,11 -6,-9 -17,-17 -31,-11 -30,11 -71,25 -104,11 -64,-36 -127,-70 -193,-92 -136,-53 -274,-89 -426,-97 l -96,3 c -8,2 -8,11 -8,19 11,19 30,25 47,42 68,80 157,169 237,236 77,75 160,139 232,212 52,42 27,111 44,167 0,11 0,25 -11,31 -8,0 -14,5 -19,11 -28,8 -47,28 -69,41 -11,12 -14,20 -23,31 v 3 c -17,28 -44,39 -77,42 -6,2 -14,5 -20,8 -16,-6 -22,19 -33,8 -52,-55 -118,-100 -168,-158 -30,-20 -52,-48 -82,-67 -86,-86 -149,-167 -237,-254 -3,11 -3,14 0,25 -9,65 11,132 16,196 14,72 25,144 39,217 14,50 19,97 14,147 -3,8 0,19 -11,22 -28,14 -56,0 -83,-5 -6,-12 -19,-9 -28,-17 -16,5 -36,0 -49,5 -9,-2 -14,9 -22,3 -3,9 -6,-3 -11,0 -20,-3 -39,-8 -58,-8 -19,-8 -42,-8 -61,-17 -5,-11 -8,-25 -11,-39 -27,-130 -55,-272 -60,-406 -6,-25 2,-51 -3,-73 -86,87 -160,185 -221,290 -22,17 -31,61 -67,47 -2,0 -5,-5 -8,-2 -6,-3 -8,-11 -8,-17 -9,-14 -20,-17 -28,-25 -36,-3 -69,-17 -102,-25 -19,-8 -22,-31 -36,-39 -5,-25 -41,-25 -41,-50 -5,-8 -5,-14 0,-22 14,-14 17,-31 28,-45 69,-95 137,-193 212,-276 61,-81 144,-158 199,-247 14,-20 -16,-20 -19,-31 -22,-11 -50,-3 -69,-11 -55,0 -100,-11 -153,-3 -35,-8 -79,31 -104,-17 -3,-2 -6,-11 -14,-11 -11,9 -28,9 -33,20 -14,3 -36,0 -52,3 -64,11 -133,16 -193,25 -20,0 -42,11 -58,5 -22,-14 -19,-42 -22,-61 -19,-8 -25,-28 -36,-42 -5,-30 -11,-55 -16,-83 2,-6 5,-11 11,-11 2,0 8,0 11,-6 l -6,-16 c 14,-14 33,-14 50,-25 46,-23 102,-23 154,-37 107,-19 226,-16 342,-19 5,-8 -6,-11 -3,-17 -25,-36 -44,-69 -64,-108 -33,-53 -77,-100 -107,-156 -14,-11 -19,-29 -33,-37 -8,-11 -14,-28 -22,-42 -3,-22 -22,-61 5,-75 61,-55 119,-114 190,-153 -2,-14 14,-5 20,-14 3,9 11,3 16,3 28,6 40,34 51,56 11,19 5,50 30,58 58,36 64,109 108,159 38,76 102,131 151,198 8,3 11,14 19,17 0,8 11,5 11,14 14,-45 28,-95 47,-142 25,-79 42,-160 69,-237 3,-34 22,-62 28,-95 16,-33 22,-67 38,-100 0,-19 17,-33 17,-53 3,-3 44,-72 44,-78 11,-8 25,-27 44,-27 66,5 129,27 196,27 z"
   id="path23" />
        </g>
       </g>
      </g>
     </g>
    </g>
   </g>
  </g>
 </g>
</svg>
