<?xml version="1.0" encoding="UTF-8" standalone="no"?>
<svg
   version="1.2"
   width="150.00999mm"
   height="149.95999mm"
   viewBox="0 0 15001 14995.999"
   preserveAspectRatio="xMidYMid"
   fill-rule="evenodd"
   stroke-width="28.222"
   stroke-linejoin="round"
   xml:space="preserve"
   id="svg40"
   sodipodi:docname="ID15a10.svg"
   inkscape:version="1.2.2 (b0a8486541, 2022-12-01)"
   xmlns:inkscape="http://www.inkscape.org/namespaces/inkscape"
   xmlns:sodipodi="http://sodipodi.sourceforge.net/DTD/sodipodi-0.dtd"
   xmlns="http://www.w3.org/2000/svg"
   xmlns:svg="http://www.w3.org/2000/svg"
   xmlns:ooo="http://xml.openoffice.org/svg/export"><sodipodi:namedview
   id="namedview40"
   pagecolor="#ffffff"
   bordercolor="#000000"
   borderopacity="0.25"
   inkscape:showpageshadow="2"
   inkscape:pageopacity="0.0"
   inkscape:pagecheckerboard="true"
   inkscape:deskcolor="#d1d1d1"
   inkscape:document-units="mm"
   fit-margin-top="50"
   fit-margin-left="50"
   fit-margin-right="50"
   fit-margin-bottom="50"
   showgrid="false"
   inkscape:zoom="6.9237297"
   inkscape:cx="520.45648"
   inkscape:cy="18.198284"
   inkscape:window-width="1280"
   inkscape:window-height="731"
   inkscape:window-x="0"
   inkscape:window-y="0"
   inkscape:window-maximized="1"
   inkscape:current-layer="svg40" />
 <defs
   class="ClipPathGroup"
   id="defs2">
  <clipPath
   id="presentation_clip_path"
   clipPathUnits="userSpaceOnUse">
   <rect
   x="0"
   y="0"
   width="21001"
   height="29703"
   id="rect1" />
  </clipPath>
  <clipPath
   id="presentation_clip_path_shrink"
   clipPathUnits="userSpaceOnUse">
   <rect
   x="21"
   y="29"
   width="20959"
   height="29644"
   id="rect2" />
  </clipPath>
 </defs>
 <defs
   class="TextShapeIndex"
   id="defs3">
  <g
   ooo:slide="id1"
   ooo:id-list="id3 id4 id5 id6 id7 id8 id9 id10 id11 id12 id13 id14 id15 id16 id17 id18 id19 id20 id21 id22 id23 id24 id25"
   id="g2" />
 </defs>
 <defs
   class="EmbeddedBulletChars"
   id="defs12">
  <g
   id="bullet-char-template-57356"
   transform="matrix(4.8828125e-4,0,0,-4.8828125e-4,0,0)">
   <path
   d="M 580,1141 1163,571 580,0 -4,571 Z"
   id="path3" />
  </g>
  <g
   id="bullet-char-template-57354"
   transform="matrix(4.8828125e-4,0,0,-4.8828125e-4,0,0)">
   <path
   d="M 8,1128 H 1137 V 0 H 8 Z"
   id="path4" />
  </g>
  <g
   id="bullet-char-template-10146"
   transform="matrix(4.8828125e-4,0,0,-4.8828125e-4,0,0)">
   <path
   d="M 174,0 602,739 174,1481 1456,739 Z M 1358,739 309,1346 659,739 Z"
   id="path5" />
  </g>
  <g
   id="bullet-char-template-10132"
   transform="matrix(4.8828125e-4,0,0,-4.8828125e-4,0,0)">
   <path
   d="M 2015,739 1276,0 H 717 l 543,543 H 174 v 393 h 1086 l -543,545 h 557 z"
   id="path6" />
  </g>
  <g
   id="bullet-char-template-10007"
   transform="matrix(4.8828125e-4,0,0,-4.8828125e-4,0,0)">
   <path
   d="m 0,-2 c -7,16 -16,29 -25,39 l 381,530 c -94,256 -141,385 -141,387 0,25 13,38 40,38 9,0 21,-2 34,-5 21,4 42,12 65,25 l 27,-13 111,-251 280,301 64,-25 24,25 c 21,-10 41,-24 62,-43 C 886,937 835,863 770,784 769,783 710,716 594,584 L 774,223 c 0,-27 -21,-55 -63,-84 l 16,-20 C 717,90 699,76 672,76 641,76 570,178 457,381 L 164,-76 c -22,-34 -53,-51 -92,-51 -42,0 -63,17 -64,51 -7,9 -10,24 -10,44 0,9 1,19 2,30 z"
   id="path7" />
  </g>
  <g
   id="bullet-char-template-10004"
   transform="matrix(4.8828125e-4,0,0,-4.8828125e-4,0,0)">
   <path
   d="M 285,-33 C 182,-33 111,30 74,156 52,228 41,333 41,471 c 0,78 14,145 41,201 34,71 87,106 158,106 53,0 88,-31 106,-94 l 23,-176 c 8,-64 28,-97 59,-98 l 735,706 c 11,11 33,17 66,17 42,0 63,-15 63,-46 V 965 c 0,-36 -10,-64 -30,-84 L 442,47 C 390,-6 338,-33 285,-33 Z"
   id="path8" />
  </g>
  <g
   id="bullet-char-template-9679"
   transform="matrix(4.8828125e-4,0,0,-4.8828125e-4,0,0)">
   <path
   d="M 813,0 C 632,0 489,54 383,161 276,268 223,411 223,592 c 0,181 53,324 160,431 106,107 249,161 430,161 179,0 323,-54 432,-161 108,-107 162,-251 162,-431 0,-180 -54,-324 -162,-431 C 1136,54 992,0 813,0 Z"
   id="path9" />
  </g>
  <g
   id="bullet-char-template-8226"
   transform="matrix(4.8828125e-4,0,0,-4.8828125e-4,0,0)">
   <path
   d="m 346,457 c -73,0 -137,26 -191,78 -54,51 -81,114 -81,188 0,73 27,136 81,188 54,52 118,78 191,78 73,0 134,-26 185,-79 51,-51 77,-114 77,-187 0,-75 -25,-137 -76,-188 -50,-52 -112,-78 -186,-78 z"
   id="path10" />
  </g>
  <g
   id="bullet-char-template-8211"
   transform="matrix(4.8828125e-4,0,0,-4.8828125e-4,0,0)">
   <path
   d="M -4,459 H 1135 V 606 H -4 Z"
   id="path11" />
  </g>
  <g
   id="bullet-char-template-61548"
   transform="matrix(4.8828125e-4,0,0,-4.8828125e-4,0,0)">
   <path
   d="m 173,740 c 0,163 58,303 173,419 116,115 255,173 419,173 163,0 302,-58 418,-173 116,-116 174,-256 174,-419 0,-163 -58,-303 -174,-418 C 1067,206 928,148 765,148 601,148 462,206 346,322 231,437 173,577 173,740 Z"
   id="path12" />
  </g>
 </defs>
 <g
   id="g12"
   transform="translate(-2652,-5770)">
  <g
   id="id2"
   class="Master_Slide">
   <g
   id="bg-id2"
   class="Background" />
   <g
   id="bo-id2"
   class="BackgroundObjects" />
  </g>
 </g>
 <g
   class="SlideGroup"
   id="g40"
   transform="translate(-2652,-5770)">
  <g
   id="g39">
   <g
   id="container-id1">
    <g
   id="id1"
   class="Slide"
   clip-path="url(#presentation_clip_path)">
     <g
   class="Page"
   id="g38">
      <g
   class="Group"
   id="g37">
       <g
   class="com.sun.star.drawing.PolyPolygonShape"
   id="g13">
        <g
   id="id3">
         <rect
   class="BoundingBox"
   stroke="none"
   fill="none"
   x="2652"
   y="5770"
   width="15001"
   height="14996"
   id="rect12" />
         <path
   fill="#fefefe"
   stroke="none"
   d="M 2653,5770 V 20765 H 17652 V 5770 Z"
   id="path13" />
        </g>
       </g>
       <g
   class="Group"
   id="g18"
   style="display:none">
        <g
   class="com.sun.star.drawing.LineShape"
   id="g14">
         <g
   id="id4">
          <rect
   class="BoundingBox"
   stroke="none"
   fill="none"
   x="2628"
   y="5771"
   width="53"
   height="14994"
   id="rect13" />
          <path
   fill="none"
   stroke="#1b1918"
   stroke-width="51"
   stroke-linejoin="miter"
   d="M 2654,20764 V 5771"
   id="path14" />
         </g>
        </g>
        <g
   class="com.sun.star.drawing.LineShape"
   id="g15">
         <g
   id="id5">
          <rect
   class="BoundingBox"
   stroke="none"
   fill="none"
   x="2654"
   y="20739"
   width="14997"
   height="53"
   id="rect14" />
          <path
   fill="none"
   stroke="#1b1918"
   stroke-width="51"
   stroke-linejoin="miter"
   d="M 17650,20765 H 2654"
   id="path15" />
         </g>
        </g>
        <g
   class="com.sun.star.drawing.LineShape"
   id="g16">
         <g
   id="id6">
          <rect
   class="BoundingBox"
   stroke="none"
   fill="none"
   x="17624"
   y="5771"
   width="53"
   height="14994"
   id="rect15" />
          <path
   fill="none"
   stroke="#1b1918"
   stroke-width="51"
   stroke-linejoin="miter"
   d="M 17650,5771 V 20764"
   id="path16" />
         </g>
        </g>
        <g
   class="com.sun.star.drawing.LineShape"
   id="g17">
         <g
   id="id7">
          <rect
   class="BoundingBox"
   stroke="none"
   fill="none"
   x="2654"
   y="5745"
   width="14997"
   height="53"
   id="rect16" />
          <path
   fill="none"
   stroke="#1b1918"
   stroke-width="51"
   stroke-linejoin="miter"
   d="M 2654,5771 H 17650"
   id="path17" />
         </g>
        </g>
       </g>
       <g
   class="com.sun.star.drawing.ClosedBezierShape"
   id="g19">
        <g
   id="id8">
         <rect
   class="BoundingBox"
   stroke="none"
   fill="none"
   x="11747"
   y="6271"
   width="5405"
   height="13995"
   id="rect18" />
         <path
   fill="#826500"
   stroke="none"
   d="m 11747,20265 5404,-2 V 6271 l -5404,2 c 449,279 807,536 1198,993 l 3208,3 v 11996 h -3208 c -322,398 -762,724 -1198,1000 z"
   id="path18" />
        </g>
       </g>
       <g
   class="com.sun.star.drawing.ClosedBezierShape"
   id="g20">
        <g
   id="id9">
         <rect
   class="BoundingBox"
   stroke="none"
   fill="none"
   x="3155"
   y="6270"
   width="5394"
   height="13996"
   id="rect19" />
         <path
   fill="#826500"
   stroke="none"
   d="m 8548,20265 -5393,-2 V 6271 l 5393,2 c -427,252 -843,561 -1199,993 l -3196,3 v 11996 h 3196 c 320,403 775,726 1199,1000 z"
   id="path19" />
        </g>
       </g>
       <g
   class="com.sun.star.drawing.ClosedBezierShape"
   id="g21">
        <g
   id="id10">
         <rect
   class="BoundingBox"
   stroke="none"
   fill="none"
   x="7745"
   y="19033"
   width="4816"
   height="1231"
   id="rect20" />
         <path
   fill="#826500"
   stroke="none"
   d="m 12560,19035 c -688,776 -1517,1228 -2409,1228 -893,0 -1722,-455 -2406,-1230 z"
   id="path20" />
        </g>
       </g>
       <g
   class="com.sun.star.drawing.ClosedBezierShape"
   id="g22">
        <g
   id="id11">
         <rect
   class="BoundingBox"
   stroke="none"
   fill="none"
   x="6289"
   y="15191"
   width="7959"
   height="3651"
   id="rect21" />
         <path
   fill="#826500"
   stroke="none"
   d="m 6289,16199 c 294,1083 732,1941 1296,2642 857,-8 2148,-5 2148,-5 87,8 208,-17 298,-54 0,0 1723,-5 1785,3 34,-25 300,-84 398,-154 l -75,-37 c -253,-81 -517,-112 -738,-112 -15,22 11,-382 -20,-438 l 1890,-8 c 449,-801 783,-1778 976,-2845 h -639 c -455,726 -1176,881 -1568,949 h -1510 l 68,152 c -907,-48 -1339,421 -1339,421 -314,-48 -806,-225 -1138,-233 -384,42 -867,33 -968,766 l 6,-1047 z"
   id="path21" />
        </g>
       </g>
       <g
   class="com.sun.star.drawing.ClosedBezierShape"
   id="g23">
        <g
   id="id12">
         <rect
   class="BoundingBox"
   stroke="none"
   fill="none"
   x="5893"
   y="6262"
   width="8520"
   height="9770"
   id="rect22" />
         <path
   fill="#826500"
   stroke="none"
   d="m 7167,16031 c 0,0 36,-2254 47,-2282 9,-1128 800,-1726 809,-1735 -56,-81 -141,-162 -166,-261 -202,107 -466,48 -466,48 l -168,-84 c 196,28 457,-39 598,-112 56,-51 59,-242 185,-270 73,-28 154,-31 224,9 79,33 99,126 197,64 247,-126 516,-258 704,-467 -11,149 -199,259 -297,366 -118,90 -289,163 -401,233 70,132 176,314 67,455 -23,5 -34,36 -56,39 -37,17 -84,11 -112,48 555,196 799,926 1369,1134 244,126 557,213 784,244 l -8,129 c 53,22 87,-3 129,-8 17,-101 168,-876 168,-876 l 143,56 c 0,0 -196,806 -171,828 73,28 141,81 113,168 -9,73 -43,144 -57,205 -75,28 -73,56 -148,84 -23,76 -362,1721 -337,1788 l 112,177 h 1493 c 435,-76 997,-384 1350,-1005 107,0 528,-2 1002,0 87,-558 138,-1142 138,-1743 0,-3868 -1909,-7000 -4262,-7000 -2349,0 -4257,3132 -4257,7000 0,1008 115,1903 350,2768 z"
   id="path22" />
        </g>
       </g>
       <g
   class="com.sun.star.drawing.ClosedBezierShape"
   id="g24">
        <g
   id="id13">
         <rect
   class="BoundingBox"
   stroke="none"
   fill="none"
   x="9511"
   y="16504"
   width="2863"
   height="1752"
   id="rect23" />
         <path
   fill="#ffffff"
   stroke="none"
   d="m 11288,16736 c 191,20 368,-117 567,-95 31,45 11,146 0,199 -39,65 -53,79 -126,93 -28,-11 -56,-17 -76,-11 53,57 146,127 241,88 104,-71 113,-212 104,-310 -17,-6 -5,-25 -11,-37 67,3 121,54 152,113 67,140 249,245 233,411 5,16 -45,36 -65,56 -53,-6 -67,-42 -112,-56 -233,-96 -511,-82 -699,64 -51,53 -90,101 -132,168 -8,23 -17,71 -37,102 -39,252 -8,444 -19,663 -34,-31 -20,-59 -37,-101 -28,-258 -278,-495 -531,-554 -191,-65 -432,-42 -598,123 -84,93 -208,490 -253,602 -42,-42 -112,-415 -140,-470 -50,-115 -115,-247 -196,-350 171,-9 488,-29 637,58 73,12 104,-47 148,-92 -47,-213 -160,-373 -336,-551 -14,-12 -101,-48 -149,-73 -129,-23 -213,-6 -342,8 280,-247 634,-258 976,-280 261,8 568,72 801,232 z"
   id="path23" />
        </g>
       </g>
       <g
   class="com.sun.star.drawing.ClosedBezierShape"
   id="g25">
        <g
   id="id14">
         <rect
   class="BoundingBox"
   stroke="none"
   fill="none"
   x="7197"
   y="16680"
   width="3071"
   height="1812"
   id="rect24" />
         <path
   fill="#ffffff"
   stroke="none"
   d="m 7905,16689 c 161,-27 756,-5 1093,180 89,39 162,39 261,65 171,-17 326,-113 492,-59 22,64 -9,109 -48,154 -62,76 -95,34 -154,53 36,31 56,93 109,93 82,37 160,-59 208,-93 l -11,-8 c 19,-48 45,-129 11,-188 205,25 306,281 398,449 9,22 -11,48 -16,53 l -12,12 c -81,5 -168,-43 -258,-48 -157,-56 -365,-56 -523,20 -56,36 -95,75 -140,120 l 8,9 c -202,245 -112,714 -149,955 -266,-222 -261,-789 -558,-880 -25,-25 -401,0 -401,0 -6,41 -26,-8 -40,29 l -8,-8 c -157,93 -355,264 -411,466 -34,56 -101,370 -126,427 l -70,-12 c 16,-89 -34,-359 -23,-443 0,0 -28,-407 -118,-506 -56,22 -112,68 -146,124 -31,-11 -59,-79 -75,-124 14,-70 2,-155 64,-233 70,-93 213,-37 298,-23 14,-14 89,28 84,-22 -54,-48 -185,-110 -242,-121 76,-250 346,-410 503,-441 z"
   id="path24" />
        </g>
       </g>
       <g
   class="com.sun.star.drawing.ClosedBezierShape"
   id="g26">
        <g
   id="id15">
         <rect
   class="BoundingBox"
   stroke="none"
   fill="none"
   x="10263"
   y="17613"
   width="424"
   height="729"
   id="rect25" />
         <path
   fill="#ffffff"
   stroke="none"
   d="m 10685,17666 c -67,211 -228,467 -273,675 0,0 -386,-653 84,-728 z"
   id="path25" />
        </g>
       </g>
       <g
   class="com.sun.star.drawing.ClosedBezierShape"
   id="g27">
        <g
   id="id16">
         <rect
   class="BoundingBox"
   stroke="none"
   fill="none"
   x="7942"
   y="17692"
   width="448"
   height="827"
   id="rect26" />
         <path
   fill="#ffffff"
   stroke="none"
   d="m 8136,18518 h -68 c 0,0 -151,-312 -121,-537 31,-228 439,-289 439,-289 31,115 -236,733 -250,826 z"
   id="path26" />
        </g>
       </g>
       <g
   class="com.sun.star.drawing.ClosedBezierShape"
   id="g28">
        <g
   id="id17">
         <rect
   class="BoundingBox"
   stroke="none"
   fill="none"
   x="9932"
   y="17958"
   width="426"
   height="524"
   id="rect27" />
         <path
   fill="#ffffff"
   stroke="none"
   d="m 10356,18481 -422,-3 c -24,-96 163,-520 163,-520 0,0 234,475 259,523 z"
   id="path27" />
        </g>
       </g>
       <g
   class="com.sun.star.drawing.ClosedBezierShape"
   id="g29">
        <g
   id="id18">
         <rect
   class="BoundingBox"
   stroke="none"
   fill="none"
   x="8236"
   y="18012"
   width="603"
   height="499"
   id="rect28" />
         <path
   fill="#ffffff"
   stroke="none"
   d="m 8782,18014 56,449 -602,47 c 0,-178 109,-295 186,-498 z"
   id="path28" />
        </g>
       </g>
       <g
   class="com.sun.star.drawing.ClosedBezierShape"
   id="g30">
        <g
   id="id19">
         <rect
   class="BoundingBox"
   stroke="none"
   fill="none"
   x="9295"
   y="18034"
   width="528"
   height="429"
   id="rect29" />
         <path
   fill="#ffffff"
   stroke="none"
   d="m 9677,18042 144,415 -526,5 c 0,-141 28,-251 84,-428 28,2 298,8 298,8 z"
   id="path29" />
        </g>
       </g>
       <g
   class="com.sun.star.drawing.ClosedBezierShape"
   id="g31">
        <g
   id="id20">
         <rect
   class="BoundingBox"
   stroke="none"
   fill="none"
   x="10768"
   y="18026"
   width="541"
   height="468"
   id="rect30" />
         <path
   fill="#ffffff"
   stroke="none"
   d="m 11111,18034 c 77,150 172,312 197,459 h -540 l 146,-467 z"
   id="path30" />
        </g>
       </g>
       <g
   class="com.sun.star.drawing.ClosedBezierShape"
   id="g32">
        <g
   id="id21">
         <rect
   class="BoundingBox"
   stroke="none"
   fill="none"
   x="10443"
   y="17995"
   width="235"
   height="502"
   id="rect31" />
         <path
   fill="#ffffff"
   stroke="none"
   d="m 10677,18493 -234,3 c 11,-6 234,-501 234,-501 z"
   id="path31" />
        </g>
       </g>
       <g
   class="com.sun.star.drawing.ClosedBezierShape"
   id="g33">
        <g
   id="id22">
         <rect
   class="BoundingBox"
   stroke="none"
   fill="none"
   x="7706"
   y="18087"
   width="283"
   height="432"
   id="rect32" />
         <path
   fill="#ffffff"
   stroke="none"
   d="m 7988,18518 h -282 c 0,-107 58,-321 163,-431 -8,92 0,169 119,431 z"
   id="path32" />
        </g>
       </g>
       <g
   class="com.sun.star.drawing.ClosedBezierShape"
   id="g34">
        <g
   id="id23">
         <rect
   class="BoundingBox"
   stroke="none"
   fill="none"
   x="8904"
   y="18315"
   width="120"
   height="159"
   id="rect33" />
         <path
   fill="#ffffff"
   stroke="none"
   d="m 9023,18473 h -119 c 2,-73 28,-97 37,-158 28,53 51,102 82,158 z"
   id="path33" />
        </g>
       </g>
       <g
   class="com.sun.star.drawing.PolyPolygonShape"
   id="g35">
        <g
   id="id24">
         <rect
   class="BoundingBox"
   stroke="none"
   fill="none"
   x="9382"
   y="13863"
   width="1102"
   height="1787"
   id="rect34" />
         <path
   fill="#826500"
   stroke="none"
   d="m 9382,13863 1101,241 -273,1545 z"
   id="path34" />
        </g>
       </g>
       <g
   class="com.sun.star.drawing.ClosedBezierShape"
   id="g36">
        <g
   id="id25">
         <rect
   class="BoundingBox"
   stroke="none"
   fill="none"
   x="8004"
   y="7209"
   width="2435"
   height="2145"
   id="rect35" />
         <path
   fill="#ffffff"
   stroke="none"
   d="m 9447,7237 c 48,5 93,11 140,25 9,5 20,11 26,19 5,43 -270,552 -289,616 2,-3 14,17 28,9 42,-57 67,-65 73,-68 42,-39 146,-105 146,-105 33,-22 182,-126 233,-154 33,-6 50,-28 84,-34 17,-5 45,-5 56,12 20,22 45,42 50,75 17,54 48,99 59,156 14,5 -5,17 -2,25 -17,14 -37,22 -51,39 -6,-3 -8,6 -14,9 -14,2 -22,22 -39,22 -82,70 -163,118 -247,183 v 2 c 205,37 393,107 581,191 31,11 61,25 90,45 h 8 c 20,17 56,14 59,48 -3,14 -6,22 -17,31 -28,36 -34,87 -59,123 -20,14 -39,28 -62,28 -16,9 -30,3 -50,11 -6,-8 -17,-16 -31,-11 -31,14 -73,26 -107,11 -64,-33 -129,-70 -196,-92 -138,-53 -278,-87 -432,-98 l -99,2 c -8,3 -8,12 -8,20 14,20 31,28 48,42 70,82 160,171 244,239 76,76 160,140 236,214 50,42 25,115 42,168 0,12 0,26 -9,31 -11,0 -17,6 -22,12 -25,8 -48,28 -70,42 -12,11 -14,19 -23,31 l 3,2 c -17,31 -48,40 -81,45 -6,0 -12,3 -20,9 -14,-9 -20,17 -34,5 -53,-56 -118,-98 -171,-160 -31,-19 -53,-47 -84,-67 -84,-87 -152,-168 -242,-254 -3,9 0,12 0,23 -6,68 11,136 16,197 15,76 27,146 41,222 14,48 19,95 14,149 -3,5 0,19 -12,19 -28,14 -54,0 -82,-5 -8,-11 -22,-9 -31,-14 -17,3 -36,-3 -50,3 -9,-3 -14,8 -23,2 -3,9 -5,-2 -8,0 -20,-2 -39,-5 -59,-8 -23,-8 -45,-8 -65,-17 -5,-11 -8,-25 -8,-39 -28,-132 -59,-275 -65,-410 -5,-25 3,-51 -2,-74 -87,88 -163,186 -222,293 -25,17 -31,65 -70,48 -3,0 -6,-6 -9,-3 -5,-3 -8,-11 -8,-17 -6,-11 -20,-17 -25,-25 -40,-3 -71,-17 -107,-25 -20,-6 -23,-31 -37,-40 -5,-25 -42,-25 -42,-48 -5,-8 -3,-16 0,-25 14,-11 17,-31 28,-45 71,-96 141,-192 216,-279 62,-81 146,-160 203,-249 14,-20 -14,-20 -20,-31 -20,-11 -51,-3 -70,-11 -56,2 -101,-12 -155,-3 -36,-9 -81,31 -106,-14 -3,-6 -6,-14 -14,-14 -12,8 -28,8 -34,19 -14,3 -36,0 -51,6 -64,11 -137,14 -199,22 -19,3 -39,14 -59,6 -22,-11 -19,-39 -22,-59 -20,-11 -25,-31 -37,-45 -5,-28 -11,-56 -16,-84 2,-3 5,-11 11,-11 5,0 8,0 11,-6 l -6,-14 c 14,-17 34,-17 51,-28 48,-22 104,-22 157,-36 109,-20 233,-17 348,-20 8,-6 -6,-11 -3,-17 -25,-34 -45,-70 -64,-107 -34,-56 -79,-103 -110,-160 -11,-11 -19,-26 -31,-37 -11,-11 -16,-28 -25,-42 -3,-23 -22,-59 6,-76 64,-56 120,-115 193,-154 0,-14 14,-6 20,-14 3,8 11,2 17,2 28,6 39,37 53,57 9,19 6,50 28,59 59,36 65,109 110,160 39,76 106,132 154,200 11,3 11,14 20,17 0,8 11,5 11,14 14,-45 31,-96 48,-143 28,-77 42,-161 70,-240 5,-34 22,-62 31,-95 14,-31 19,-65 36,-99 0,-19 17,-33 17,-53 3,-3 48,-73 45,-79 11,-11 26,-30 46,-30 67,5 132,28 199,28 z"
   id="path35" />
        </g>
       </g>
      </g>
     </g>
    </g>
   </g>
  </g>
 </g>
</svg>
