<?xml version="1.0" encoding="UTF-8" standalone="no"?>
<svg
   version="1.2"
   width="150.02mm"
   height="150.02mm"
   viewBox="0 0 15002.001 15002.001"
   preserveAspectRatio="xMidYMid"
   fill-rule="evenodd"
   stroke-width="28.222"
   stroke-linejoin="round"
   xml:space="preserve"
   id="svg29"
   sodipodi:docname="ID13b.svg"
   inkscape:version="1.2.2 (b0a8486541, 2022-12-01)"
   xmlns:inkscape="http://www.inkscape.org/namespaces/inkscape"
   xmlns:sodipodi="http://sodipodi.sourceforge.net/DTD/sodipodi-0.dtd"
   xmlns="http://www.w3.org/2000/svg"
   xmlns:svg="http://www.w3.org/2000/svg"
   xmlns:ooo="http://xml.openoffice.org/svg/export"><sodipodi:namedview
   id="namedview29"
   pagecolor="#ffffff"
   bordercolor="#000000"
   borderopacity="0.25"
   inkscape:showpageshadow="2"
   inkscape:pageopacity="0.0"
   inkscape:pagecheckerboard="true"
   inkscape:deskcolor="#d1d1d1"
   inkscape:document-units="mm"
   fit-margin-top="50"
   fit-margin-left="50"
   fit-margin-right="50"
   fit-margin-bottom="50"
   showgrid="false"
   inkscape:zoom="0.8776693"
   inkscape:cx="228.44595"
   inkscape:cy="252.94265"
   inkscape:window-width="1280"
   inkscape:window-height="731"
   inkscape:window-x="0"
   inkscape:window-y="0"
   inkscape:window-maximized="1"
   inkscape:current-layer="svg29" />
 <defs
   class="ClipPathGroup"
   id="defs2">
  <clipPath
   id="presentation_clip_path"
   clipPathUnits="userSpaceOnUse">
   <rect
   x="0"
   y="0"
   width="21000"
   height="29700"
   id="rect1" />
  </clipPath>
  <clipPath
   id="presentation_clip_path_shrink"
   clipPathUnits="userSpaceOnUse">
   <rect
   x="21"
   y="29"
   width="20958"
   height="29641"
   id="rect2" />
  </clipPath>
 </defs>
 <defs
   class="TextShapeIndex"
   id="defs3">
  <g
   ooo:slide="id1"
   ooo:id-list="id3 id4 id5 id6 id7 id8 id9 id10 id11 id12 id13 id14"
   id="g2" />
 </defs>
 <defs
   class="EmbeddedBulletChars"
   id="defs12">
  <g
   id="bullet-char-template-57356"
   transform="matrix(4.8828125e-4,0,0,-4.8828125e-4,0,0)">
   <path
   d="M 580,1141 1163,571 580,0 -4,571 Z"
   id="path3" />
  </g>
  <g
   id="bullet-char-template-57354"
   transform="matrix(4.8828125e-4,0,0,-4.8828125e-4,0,0)">
   <path
   d="M 8,1128 H 1137 V 0 H 8 Z"
   id="path4" />
  </g>
  <g
   id="bullet-char-template-10146"
   transform="matrix(4.8828125e-4,0,0,-4.8828125e-4,0,0)">
   <path
   d="M 174,0 602,739 174,1481 1456,739 Z M 1358,739 309,1346 659,739 Z"
   id="path5" />
  </g>
  <g
   id="bullet-char-template-10132"
   transform="matrix(4.8828125e-4,0,0,-4.8828125e-4,0,0)">
   <path
   d="M 2015,739 1276,0 H 717 l 543,543 H 174 v 393 h 1086 l -543,545 h 557 z"
   id="path6" />
  </g>
  <g
   id="bullet-char-template-10007"
   transform="matrix(4.8828125e-4,0,0,-4.8828125e-4,0,0)">
   <path
   d="m 0,-2 c -7,16 -16,29 -25,39 l 381,530 c -94,256 -141,385 -141,387 0,25 13,38 40,38 9,0 21,-2 34,-5 21,4 42,12 65,25 l 27,-13 111,-251 280,301 64,-25 24,25 c 21,-10 41,-24 62,-43 C 886,937 835,863 770,784 769,783 710,716 594,584 L 774,223 c 0,-27 -21,-55 -63,-84 l 16,-20 C 717,90 699,76 672,76 641,76 570,178 457,381 L 164,-76 c -22,-34 -53,-51 -92,-51 -42,0 -63,17 -64,51 -7,9 -10,24 -10,44 0,9 1,19 2,30 z"
   id="path7" />
  </g>
  <g
   id="bullet-char-template-10004"
   transform="matrix(4.8828125e-4,0,0,-4.8828125e-4,0,0)">
   <path
   d="M 285,-33 C 182,-33 111,30 74,156 52,228 41,333 41,471 c 0,78 14,145 41,201 34,71 87,106 158,106 53,0 88,-31 106,-94 l 23,-176 c 8,-64 28,-97 59,-98 l 735,706 c 11,11 33,17 66,17 42,0 63,-15 63,-46 V 965 c 0,-36 -10,-64 -30,-84 L 442,47 C 390,-6 338,-33 285,-33 Z"
   id="path8" />
  </g>
  <g
   id="bullet-char-template-9679"
   transform="matrix(4.8828125e-4,0,0,-4.8828125e-4,0,0)">
   <path
   d="M 813,0 C 632,0 489,54 383,161 276,268 223,411 223,592 c 0,181 53,324 160,431 106,107 249,161 430,161 179,0 323,-54 432,-161 108,-107 162,-251 162,-431 0,-180 -54,-324 -162,-431 C 1136,54 992,0 813,0 Z"
   id="path9" />
  </g>
  <g
   id="bullet-char-template-8226"
   transform="matrix(4.8828125e-4,0,0,-4.8828125e-4,0,0)">
   <path
   d="m 346,457 c -73,0 -137,26 -191,78 -54,51 -81,114 -81,188 0,73 27,136 81,188 54,52 118,78 191,78 73,0 134,-26 185,-79 51,-51 77,-114 77,-187 0,-75 -25,-137 -76,-188 -50,-52 -112,-78 -186,-78 z"
   id="path10" />
  </g>
  <g
   id="bullet-char-template-8211"
   transform="matrix(4.8828125e-4,0,0,-4.8828125e-4,0,0)">
   <path
   d="M -4,459 H 1135 V 606 H -4 Z"
   id="path11" />
  </g>
  <g
   id="bullet-char-template-61548"
   transform="matrix(4.8828125e-4,0,0,-4.8828125e-4,0,0)">
   <path
   d="m 173,740 c 0,163 58,303 173,419 116,115 255,173 419,173 163,0 302,-58 418,-173 116,-116 174,-256 174,-419 0,-163 -58,-303 -174,-418 C 1067,206 928,148 765,148 601,148 462,206 346,322 231,437 173,577 173,740 Z"
   id="path12" />
  </g>
 </defs>
 <g
   id="g12"
   transform="translate(-2654,-5770)"
   style="display:inline">
  <g
   id="id2"
   class="Master_Slide"
   style="display:inline">
   <g
   id="bg-id2"
   class="Background" />
   <g
   id="bo-id2"
   class="BackgroundObjects" />
  </g>
 </g>
 <g
   class="SlideGroup"
   id="g29"
   transform="translate(-2654,-5770)">
  <g
   id="g28">
   <g
   id="container-id1">
    <g
   id="id1"
   class="Slide"
   clip-path="url(#presentation_clip_path)">
     <g
   class="Page"
   id="g27">
      <g
   class="Group"
   id="g26">
       <g
   class="com.sun.star.drawing.PolyPolygonShape"
   id="g13"
   style="display:inline">
        <g
   id="id3">
         <rect
   class="BoundingBox"
   stroke="none"
   fill="none"
   x="2654"
   y="5770"
   width="15002"
   height="15002"
   id="rect12" />
         <path
   fill="#fefefe"
   stroke="none"
   d="m 2654,5770 v 0 15001 0 h 15001 v 0 -15001 0 z"
   id="path13" />
        </g>
       </g>
       <g
   class="com.sun.star.drawing.PolyPolygonShape"
   id="g14"
   style="display:inline">
        <g
   id="id4">
         <rect
   class="BoundingBox"
   stroke="none"
   fill="none"
   x="13777"
   y="13628"
   width="1552"
   height="1262"
   id="rect13" />
         <path
   fill="#000000"
   stroke="none"
   d="m 13777,14889 h 1551 v -1260 h -819 z"
   id="path14" />
        </g>
       </g>
       <g
   class="com.sun.star.drawing.PolyPolygonShape"
   id="g15">
        <g
   id="id5">
         <rect
   class="BoundingBox"
   stroke="none"
   fill="none"
   x="9518"
   y="10135"
   width="204"
   height="1271"
   id="rect14" />
         <path
   fill="#000000"
   stroke="none"
   d="m 9519,10135 h 202 v 1270 h -202 z"
   id="path15" />
        </g>
       </g>
       <g
   class="com.sun.star.drawing.PolyPolygonShape"
   id="g16">
        <g
   id="id6">
         <rect
   class="BoundingBox"
   stroke="none"
   fill="none"
   x="8308"
   y="11747"
   width="2627"
   height="1251"
   id="rect15" />
         <path
   fill="#000000"
   stroke="none"
   d="m 8308,11748 h 2625 v 1249 H 8308 Z"
   id="path16" />
        </g>
       </g>
       <g
   class="com.sun.star.drawing.PolyPolygonShape"
   id="g17">
        <g
   id="id7">
         <rect
   class="BoundingBox"
   stroke="none"
   fill="none"
   x="3166"
   y="8543"
   width="6328"
   height="6123"
   id="rect16" />
         <path
   fill="#000000"
   stroke="none"
   d="M 4809,14665 7596,9246 9493,9687 V 9508 L 7308,8543 3166,14665 Z"
   id="path17" />
        </g>
       </g>
       <g
   class="com.sun.star.drawing.ClosedBezierShape"
   id="g18">
        <g
   id="id8">
         <rect
   class="BoundingBox"
   stroke="none"
   fill="none"
   x="3152"
   y="6270"
   width="14003"
   height="13999"
   id="rect17" />
         <path
   fill="#000000"
   stroke="none"
   d="m 16153,17465 v -2 c -219,-114 -499,-211 -714,-221 319,-496 388,-1299 436,-1946 h -2262 l -362,605 -4622,-2 -530,-597 -2050,-6 1295,2212 c -325,-117 -642,-267 -880,-266 -332,0 -656,167 -975,286 V 15648 H 3154 v 0 4620 H 17154 V 6271 H 3154 v 7267 l -2,2 995,-1710 2,-4560 h 12001 z"
   id="path18" />
        </g>
       </g>
       <g
   class="com.sun.star.drawing.ClosedBezierShape"
   id="g19">
        <g
   id="id9">
         <rect
   class="BoundingBox"
   stroke="none"
   fill="none"
   x="5488"
   y="18595"
   width="10666"
   height="675"
   id="rect18" />
         <path
   fill="#ffffff"
   stroke="none"
   d="m 16152,18824 1,445 -10665,-1 v 0 -393 c 316,-118 632,-279 952,-278 398,0 996,400 1486,401 511,1 994,-402 1504,-402 501,0 1006,402 1510,402 496,0 971,-402 1469,-402 506,0 1044,402 1552,402 491,0 930,-402 1420,-402 226,0 537,106 771,228 z"
   id="path19" />
        </g>
       </g>
       <g
   class="com.sun.star.drawing.ClosedBezierShape"
   id="g20">
        <g
   id="id10">
         <rect
   class="BoundingBox"
   stroke="none"
   fill="none"
   x="5489"
   y="17688"
   width="10665"
   height="866"
   id="rect19" />
         <path
   fill="#ffffff"
   stroke="none"
   d="m 16153,17906 v -3 482 c -234,-128 -544,-235 -770,-235 -491,0 -930,402 -1421,402 -509,0 -1047,-402 -1553,-402 -498,0 -973,402 -1468,402 -503,0 -1009,-402 -1510,-402 -510,0 -986,401 -1498,402 -500,2 -1100,-402 -1490,-401 -325,0 -642,160 -954,279 v -455 c 322,-119 645,-287 972,-286 398,0 995,400 1486,401 512,1 994,-402 1505,-402 500,0 1006,402 1509,402 496,0 971,-402 1469,-402 505,0 1044,402 1553,402 490,0 930,-402 1420,-402 219,0 519,99 750,218 z"
   id="path20" />
        </g>
       </g>
       <g
   class="Group"
   id="g25"
   style="display:none">
        <g
   class="com.sun.star.drawing.LineShape"
   id="g21">
         <g
   id="id11">
          <rect
   class="BoundingBox"
   stroke="none"
   fill="none"
   x="2630"
   y="5773"
   width="53"
   height="14994"
   id="rect20" />
          <path
   fill="none"
   stroke="#1b1918"
   stroke-width="51"
   stroke-linejoin="miter"
   d="M 2656,20766 V 5773"
   id="path21" />
         </g>
        </g>
        <g
   class="com.sun.star.drawing.LineShape"
   id="g22">
         <g
   id="id12">
          <rect
   class="BoundingBox"
   stroke="none"
   fill="none"
   x="2656"
   y="20741"
   width="14997"
   height="53"
   id="rect21" />
          <path
   fill="none"
   stroke="#1b1918"
   stroke-width="51"
   stroke-linejoin="miter"
   d="M 17652,20767 H 2656"
   id="path22" />
         </g>
        </g>
        <g
   class="com.sun.star.drawing.LineShape"
   id="g23">
         <g
   id="id13">
          <rect
   class="BoundingBox"
   stroke="none"
   fill="none"
   x="17626"
   y="5773"
   width="53"
   height="14994"
   id="rect22" />
          <path
   fill="none"
   stroke="#1b1918"
   stroke-width="51"
   stroke-linejoin="miter"
   d="M 17652,5773 V 20766"
   id="path23" />
         </g>
        </g>
        <g
   class="com.sun.star.drawing.LineShape"
   id="g24">
         <g
   id="id14">
          <rect
   class="BoundingBox"
   stroke="none"
   fill="none"
   x="2656"
   y="5747"
   width="14997"
   height="53"
   id="rect23" />
          <path
   fill="none"
   stroke="#1b1918"
   stroke-width="51"
   stroke-linejoin="miter"
   d="M 2656,5773 H 17652"
   id="path24" />
         </g>
        </g>
       </g>
      </g>
     </g>
    </g>
   </g>
  </g>
 </g>
</svg>
