<?xml version="1.0" encoding="UTF-8" standalone="no"?>
<svg
   version="1.2"
   width="150.00999mm"
   height="149.95999mm"
   viewBox="0 0 15001 14995.999"
   preserveAspectRatio="xMidYMid"
   fill-rule="evenodd"
   stroke-width="28.222"
   stroke-linejoin="round"
   xml:space="preserve"
   id="svg32"
   sodipodi:docname="ID15a5.svg"
   inkscape:version="1.2.2 (b0a8486541, 2022-12-01)"
   xmlns:inkscape="http://www.inkscape.org/namespaces/inkscape"
   xmlns:sodipodi="http://sodipodi.sourceforge.net/DTD/sodipodi-0.dtd"
   xmlns="http://www.w3.org/2000/svg"
   xmlns:svg="http://www.w3.org/2000/svg"
   xmlns:ooo="http://xml.openoffice.org/svg/export"><sodipodi:namedview
   id="namedview32"
   pagecolor="#ffffff"
   bordercolor="#000000"
   borderopacity="0.25"
   inkscape:showpageshadow="2"
   inkscape:pageopacity="0.0"
   inkscape:pagecheckerboard="true"
   inkscape:deskcolor="#d1d1d1"
   inkscape:document-units="mm"
   fit-margin-top="50"
   fit-margin-left="50"
   fit-margin-right="50"
   fit-margin-bottom="50"
   showgrid="false"
   inkscape:zoom="6.6531779"
   inkscape:cx="549.13607"
   inkscape:cy="28.257173"
   inkscape:window-width="1280"
   inkscape:window-height="731"
   inkscape:window-x="0"
   inkscape:window-y="0"
   inkscape:window-maximized="1"
   inkscape:current-layer="svg32" />
 <defs
   class="ClipPathGroup"
   id="defs2">
  <clipPath
   id="presentation_clip_path"
   clipPathUnits="userSpaceOnUse">
   <rect
   x="0"
   y="0"
   width="21001"
   height="29703"
   id="rect1" />
  </clipPath>
  <clipPath
   id="presentation_clip_path_shrink"
   clipPathUnits="userSpaceOnUse">
   <rect
   x="21"
   y="29"
   width="20959"
   height="29644"
   id="rect2" />
  </clipPath>
 </defs>
 <defs
   class="TextShapeIndex"
   id="defs3">
  <g
   ooo:slide="id1"
   ooo:id-list="id3 id4 id5 id6 id7 id8 id9 id10 id11 id12 id13 id14 id15 id16 id17"
   id="g2" />
 </defs>
 <defs
   class="EmbeddedBulletChars"
   id="defs12">
  <g
   id="bullet-char-template-57356"
   transform="matrix(4.8828125e-4,0,0,-4.8828125e-4,0,0)">
   <path
   d="M 580,1141 1163,571 580,0 -4,571 Z"
   id="path3" />
  </g>
  <g
   id="bullet-char-template-57354"
   transform="matrix(4.8828125e-4,0,0,-4.8828125e-4,0,0)">
   <path
   d="M 8,1128 H 1137 V 0 H 8 Z"
   id="path4" />
  </g>
  <g
   id="bullet-char-template-10146"
   transform="matrix(4.8828125e-4,0,0,-4.8828125e-4,0,0)">
   <path
   d="M 174,0 602,739 174,1481 1456,739 Z M 1358,739 309,1346 659,739 Z"
   id="path5" />
  </g>
  <g
   id="bullet-char-template-10132"
   transform="matrix(4.8828125e-4,0,0,-4.8828125e-4,0,0)">
   <path
   d="M 2015,739 1276,0 H 717 l 543,543 H 174 v 393 h 1086 l -543,545 h 557 z"
   id="path6" />
  </g>
  <g
   id="bullet-char-template-10007"
   transform="matrix(4.8828125e-4,0,0,-4.8828125e-4,0,0)">
   <path
   d="m 0,-2 c -7,16 -16,29 -25,39 l 381,530 c -94,256 -141,385 -141,387 0,25 13,38 40,38 9,0 21,-2 34,-5 21,4 42,12 65,25 l 27,-13 111,-251 280,301 64,-25 24,25 c 21,-10 41,-24 62,-43 C 886,937 835,863 770,784 769,783 710,716 594,584 L 774,223 c 0,-27 -21,-55 -63,-84 l 16,-20 C 717,90 699,76 672,76 641,76 570,178 457,381 L 164,-76 c -22,-34 -53,-51 -92,-51 -42,0 -63,17 -64,51 -7,9 -10,24 -10,44 0,9 1,19 2,30 z"
   id="path7" />
  </g>
  <g
   id="bullet-char-template-10004"
   transform="matrix(4.8828125e-4,0,0,-4.8828125e-4,0,0)">
   <path
   d="M 285,-33 C 182,-33 111,30 74,156 52,228 41,333 41,471 c 0,78 14,145 41,201 34,71 87,106 158,106 53,0 88,-31 106,-94 l 23,-176 c 8,-64 28,-97 59,-98 l 735,706 c 11,11 33,17 66,17 42,0 63,-15 63,-46 V 965 c 0,-36 -10,-64 -30,-84 L 442,47 C 390,-6 338,-33 285,-33 Z"
   id="path8" />
  </g>
  <g
   id="bullet-char-template-9679"
   transform="matrix(4.8828125e-4,0,0,-4.8828125e-4,0,0)">
   <path
   d="M 813,0 C 632,0 489,54 383,161 276,268 223,411 223,592 c 0,181 53,324 160,431 106,107 249,161 430,161 179,0 323,-54 432,-161 108,-107 162,-251 162,-431 0,-180 -54,-324 -162,-431 C 1136,54 992,0 813,0 Z"
   id="path9" />
  </g>
  <g
   id="bullet-char-template-8226"
   transform="matrix(4.8828125e-4,0,0,-4.8828125e-4,0,0)">
   <path
   d="m 346,457 c -73,0 -137,26 -191,78 -54,51 -81,114 -81,188 0,73 27,136 81,188 54,52 118,78 191,78 73,0 134,-26 185,-79 51,-51 77,-114 77,-187 0,-75 -25,-137 -76,-188 -50,-52 -112,-78 -186,-78 z"
   id="path10" />
  </g>
  <g
   id="bullet-char-template-8211"
   transform="matrix(4.8828125e-4,0,0,-4.8828125e-4,0,0)">
   <path
   d="M -4,459 H 1135 V 606 H -4 Z"
   id="path11" />
  </g>
  <g
   id="bullet-char-template-61548"
   transform="matrix(4.8828125e-4,0,0,-4.8828125e-4,0,0)">
   <path
   d="m 173,740 c 0,163 58,303 173,419 116,115 255,173 419,173 163,0 302,-58 418,-173 116,-116 174,-256 174,-419 0,-163 -58,-303 -174,-418 C 1067,206 928,148 765,148 601,148 462,206 346,322 231,437 173,577 173,740 Z"
   id="path12" />
  </g>
 </defs>
 <g
   id="g12"
   transform="translate(-2652,-5770)">
  <g
   id="id2"
   class="Master_Slide">
   <g
   id="bg-id2"
   class="Background" />
   <g
   id="bo-id2"
   class="BackgroundObjects" />
  </g>
 </g>
 <g
   class="SlideGroup"
   id="g32"
   transform="translate(-2652,-5770)">
  <g
   id="g31">
   <g
   id="container-id1">
    <g
   id="id1"
   class="Slide"
   clip-path="url(#presentation_clip_path)">
     <g
   class="Page"
   id="g30">
      <g
   class="Group"
   id="g29">
       <g
   class="com.sun.star.drawing.PolyPolygonShape"
   id="g13">
        <g
   id="id3">
         <rect
   class="BoundingBox"
   stroke="none"
   fill="none"
   x="2652"
   y="5770"
   width="15001"
   height="14996"
   id="rect12" />
         <path
   fill="#fefefe"
   stroke="none"
   d="M 2653,5770 V 20765 H 17652 V 5770 Z"
   id="path13" />
        </g>
       </g>
       <g
   class="Group"
   id="g18"
   style="display:none">
        <g
   class="com.sun.star.drawing.LineShape"
   id="g14">
         <g
   id="id4">
          <rect
   class="BoundingBox"
   stroke="none"
   fill="none"
   x="2628"
   y="5771"
   width="53"
   height="14994"
   id="rect13" />
          <path
   fill="none"
   stroke="#1b1918"
   stroke-width="51"
   stroke-linejoin="miter"
   d="M 2654,20764 V 5771"
   id="path14" />
         </g>
        </g>
        <g
   class="com.sun.star.drawing.LineShape"
   id="g15">
         <g
   id="id5">
          <rect
   class="BoundingBox"
   stroke="none"
   fill="none"
   x="2654"
   y="20739"
   width="14997"
   height="53"
   id="rect14" />
          <path
   fill="none"
   stroke="#1b1918"
   stroke-width="51"
   stroke-linejoin="miter"
   d="M 17650,20765 H 2654"
   id="path15" />
         </g>
        </g>
        <g
   class="com.sun.star.drawing.LineShape"
   id="g16">
         <g
   id="id6">
          <rect
   class="BoundingBox"
   stroke="none"
   fill="none"
   x="17624"
   y="5771"
   width="53"
   height="14994"
   id="rect15" />
          <path
   fill="none"
   stroke="#1b1918"
   stroke-width="51"
   stroke-linejoin="miter"
   d="M 17650,5771 V 20764"
   id="path16" />
         </g>
        </g>
        <g
   class="com.sun.star.drawing.LineShape"
   id="g17">
         <g
   id="id7">
          <rect
   class="BoundingBox"
   stroke="none"
   fill="none"
   x="2654"
   y="5745"
   width="14997"
   height="53"
   id="rect16" />
          <path
   fill="none"
   stroke="#1b1918"
   stroke-width="51"
   stroke-linejoin="miter"
   d="M 2654,5771 H 17650"
   id="path17" />
         </g>
        </g>
       </g>
       <g
   class="com.sun.star.drawing.ClosedBezierShape"
   id="g19">
        <g
   id="id8">
         <rect
   class="BoundingBox"
   stroke="none"
   fill="none"
   x="11747"
   y="6271"
   width="5405"
   height="13995"
   id="rect18" />
         <path
   fill="#826500"
   stroke="none"
   d="m 11747,20265 5404,-2 V 6271 l -5404,2 c 449,279 807,536 1198,993 l 3208,3 v 11996 h -3208 c -322,398 -762,724 -1198,1000 z"
   id="path18" />
        </g>
       </g>
       <g
   class="com.sun.star.drawing.ClosedBezierShape"
   id="g20">
        <g
   id="id9">
         <rect
   class="BoundingBox"
   stroke="none"
   fill="none"
   x="3155"
   y="6270"
   width="5394"
   height="13996"
   id="rect19" />
         <path
   fill="#826500"
   stroke="none"
   d="m 8548,20265 -5393,-2 V 6271 l 5393,2 c -427,252 -843,561 -1199,993 l -3196,3 v 11996 h 3196 c 320,403 775,726 1199,1000 z"
   id="path19" />
        </g>
       </g>
       <g
   class="com.sun.star.drawing.ClosedBezierShape"
   id="g21">
        <g
   id="id10">
         <rect
   class="BoundingBox"
   stroke="none"
   fill="none"
   x="5898"
   y="6270"
   width="8513"
   height="13998"
   id="rect20" />
         <path
   fill="#826500"
   stroke="none"
   d="m 12598,18919 c -470,-80 -719,-177 -1095,-191 -421,-14 -2945,313 -2945,313 l -273,-72 -219,-291 c 0,0 -578,-357 -382,-434 141,-53 -506,-3 919,-324 2797,-628 2888,366 4556,296 97,-157 186,-329 269,-500 -1547,-11 -2365,-645 -3564,-509 -337,36 -675,-6 -1546,310 -47,13 -1159,-720 -800,-1680 360,-958 1248,-3524 -121,-3154 l 16,-169 271,-160 -30,-111 -241,-160 v -224 l 1248,17 c 0,0 -17,2500 -6,2663 80,1118 2117,819 2117,819 122,960 780,1289 1480,1289 777,0 1638,-965 1497,-1289 -114,-260 210,592 240,932 291,-935 421,-1969 421,-3062 0,-3915 -2022,-6957 -4152,-6957 -2623,-2 -4360,3283 -4360,7093 0,3915 2060,6902 4196,6902 905,0 1981,-556 2504,-1347 z"
   id="path20" />
        </g>
       </g>
       <g
   class="com.sun.star.drawing.PolyPolygonShape"
   id="g22">
        <g
   id="id11">
         <rect
   class="BoundingBox"
   stroke="none"
   fill="none"
   x="9516"
   y="9789"
   width="442"
   height="4871"
   id="rect21" />
         <path
   fill="#ffffff"
   stroke="none"
   d="m 9957,9790 -433,141 -8,4191 439,537 z"
   id="path21" />
        </g>
       </g>
       <g
   class="com.sun.star.drawing.PolyPolygonShape"
   id="g23">
        <g
   id="id12">
         <rect
   class="BoundingBox"
   stroke="none"
   fill="none"
   x="10528"
   y="9729"
   width="448"
   height="4848"
   id="rect22" />
         <path
   fill="#ffffff"
   stroke="none"
   d="M 10975,14379 V 9742 l -446,-13 v 4847 h 338 z"
   id="path22" />
        </g>
       </g>
       <g
   class="com.sun.star.drawing.PolyPolygonShape"
   id="g24">
        <g
   id="id13">
         <rect
   class="BoundingBox"
   stroke="none"
   fill="none"
   x="11065"
   y="14071"
   width="2187"
   height="2182"
   id="rect23" />
         <path
   fill="#ffffff"
   stroke="none"
   d="m 11065,14926 v 495 h 533 l -343,400 357,312 291,-359 -3,478 h 549 v -478 l 340,312 315,-332 -321,-313 h 468 v -518 h -501 l 351,-377 -387,-359 -315,356 3,-472 h -502 l 3,472 -360,-307 -337,352 392,338 z"
   id="path23" />
        </g>
       </g>
       <g
   class="com.sun.star.drawing.PolyPolygonShape"
   id="g25">
        <g
   id="id14">
         <rect
   class="BoundingBox"
   stroke="none"
   fill="none"
   x="11488"
   y="9833"
   width="417"
   height="4105"
   id="rect24" />
         <path
   fill="#ffffff"
   stroke="none"
   d="m 11904,9964 -416,-130 v 4103 l 416,-161 z"
   id="path24" />
        </g>
       </g>
       <g
   class="com.sun.star.drawing.PolyPolygonShape"
   id="g26">
        <g
   id="id15">
         <rect
   class="BoundingBox"
   stroke="none"
   fill="none"
   x="12445"
   y="10245"
   width="454"
   height="3646"
   id="rect25" />
         <path
   fill="#ffffff"
   stroke="none"
   d="m 12897,10649 -128,-155 -322,-248 -2,3531 450,113 z"
   id="path25" />
        </g>
       </g>
       <g
   class="com.sun.star.drawing.PolyPolygonShape"
   id="g27">
        <g
   id="id16">
         <rect
   class="BoundingBox"
   stroke="none"
   fill="none"
   x="13402"
   y="11358"
   width="429"
   height="3224"
   id="rect26" />
         <path
   fill="#ffffff"
   stroke="none"
   d="m 13830,14581 v -1995 l -427,-1228 v 2993 l 105,230 z"
   id="path26" />
        </g>
       </g>
       <g
   class="com.sun.star.drawing.ClosedBezierShape"
   id="g28">
        <g
   id="id17">
         <rect
   class="BoundingBox"
   stroke="none"
   fill="none"
   x="8131"
   y="7253"
   width="2397"
   height="2114"
   id="rect27" />
         <path
   fill="#ffffff"
   stroke="none"
   d="m 9553,7280 c 47,6 92,8 139,22 8,6 16,11 22,20 5,41 -263,546 -285,609 5,-3 16,17 30,8 42,-55 64,-63 72,-66 39,-39 144,-103 144,-103 30,-22 180,-125 227,-152 36,-6 52,-28 83,-34 19,-5 44,-5 58,11 16,23 44,42 47,75 19,53 47,97 58,153 14,6 -3,17 0,25 -19,14 -36,22 -53,39 -2,-3 -5,5 -11,8 -13,3 -22,22 -38,22 -83,67 -161,117 -244,180 v 3 c 202,36 387,105 573,188 30,11 61,25 88,41 h 6 c 22,20 58,17 58,50 -3,14 -3,22 -14,31 -28,36 -33,85 -61,121 -16,14 -36,28 -58,28 -16,8 -30,3 -50,11 -8,-8 -16,-16 -30,-11 -31,14 -72,25 -105,11 -64,-33 -127,-69 -194,-91 -135,-53 -274,-86 -426,-97 l -97,3 c -11,3 -11,11 -8,19 11,20 31,28 47,42 69,80 158,168 238,235 77,74 160,138 232,211 53,41 28,111 45,166 0,11 0,25 -11,30 -9,0 -14,6 -20,11 -27,9 -47,28 -69,42 -11,11 -14,19 -22,30 v 3 c -17,28 -44,39 -78,42 -5,2 -13,5 -19,8 -17,-6 -22,19 -36,8 -50,-55 -116,-97 -169,-157 -27,-20 -49,-47 -80,-67 -86,-86 -149,-166 -239,-250 -2,9 -2,11 0,22 -8,68 11,134 17,195 15,72 26,144 40,219 11,47 19,94 13,146 -2,6 0,17 -11,19 -27,14 -56,0 -84,-5 -5,-11 -19,-8 -27,-14 -17,3 -36,-3 -50,3 -8,-3 -14,8 -22,3 -3,8 -6,-3 -11,0 -20,-3 -39,-6 -58,-9 -20,-8 -42,-8 -61,-16 -6,-11 -8,-25 -11,-39 -28,-130 -56,-271 -61,-404 -6,-25 3,-51 -3,-73 -86,87 -163,184 -221,289 -22,17 -31,64 -67,47 -2,0 -5,-6 -8,-3 -5,-3 -8,-11 -8,-16 -8,-11 -19,-17 -28,-25 -36,-3 -69,-17 -102,-25 -19,-6 -22,-31 -39,-39 -3,-25 -39,-25 -39,-47 -8,-8 -5,-17 0,-25 14,-11 17,-30 28,-44 66,-95 138,-189 213,-275 61,-80 144,-158 199,-246 11,-19 -16,-19 -22,-31 -19,-11 -47,-2 -66,-11 -56,3 -100,-11 -152,-2 -36,-9 -83,30 -106,-14 -2,-6 -8,-14 -13,-14 -11,8 -28,8 -34,19 -13,3 -36,0 -52,6 -64,11 -133,14 -196,22 -17,3 -39,11 -56,6 -22,-12 -19,-39 -25,-61 -16,-9 -22,-28 -33,-42 -5,-27 -11,-55 -16,-83 0,-3 5,-11 8,-11 5,0 11,0 14,-5 l -6,-14 c 14,-17 33,-17 50,-28 47,-22 102,-22 152,-36 111,-19 230,-16 346,-19 5,-6 -6,-11 -6,-17 -22,-33 -41,-69 -61,-108 -33,-52 -77,-99 -107,-155 -14,-11 -23,-25 -34,-37 -8,-11 -14,-27 -25,-41 0,-22 -19,-58 9,-75 61,-55 119,-113 191,-152 -3,-14 13,-5 19,-14 3,9 11,3 17,3 27,6 36,36 49,55 9,20 6,50 31,58 58,36 63,108 108,158 38,76 102,131 152,198 8,2 8,13 19,16 0,8 11,6 8,14 17,-44 31,-94 47,-141 28,-79 42,-159 72,-236 3,-33 22,-61 28,-94 17,-31 22,-67 39,-100 0,-19 16,-33 16,-52 3,-3 45,-72 45,-75 11,-11 26,-30 45,-30 66,5 130,27 196,27 z"
   id="path27" />
        </g>
       </g>
      </g>
     </g>
    </g>
   </g>
  </g>
 </g>
</svg>
