<?xml version="1.0" encoding="UTF-8" standalone="no"?>
<svg
   version="1.2"
   width="150.00999mm"
   height="149.95999mm"
   viewBox="0 0 15001 14995.999"
   preserveAspectRatio="xMidYMid"
   fill-rule="evenodd"
   stroke-width="28.222"
   stroke-linejoin="round"
   xml:space="preserve"
   id="svg27"
   sodipodi:docname="ID15a13.svg"
   inkscape:version="1.2.2 (b0a8486541, 2022-12-01)"
   xmlns:inkscape="http://www.inkscape.org/namespaces/inkscape"
   xmlns:sodipodi="http://sodipodi.sourceforge.net/DTD/sodipodi-0.dtd"
   xmlns="http://www.w3.org/2000/svg"
   xmlns:svg="http://www.w3.org/2000/svg"
   xmlns:ooo="http://xml.openoffice.org/svg/export"><sodipodi:namedview
   id="namedview27"
   pagecolor="#ffffff"
   bordercolor="#000000"
   borderopacity="0.25"
   inkscape:showpageshadow="2"
   inkscape:pageopacity="0.0"
   inkscape:pagecheckerboard="true"
   inkscape:deskcolor="#d1d1d1"
   inkscape:document-units="mm"
   fit-margin-top="50"
   fit-margin-left="50"
   fit-margin-right="50"
   fit-margin-bottom="50"
   showgrid="false"
   inkscape:zoom="6.3215533"
   inkscape:cx="552.79136"
   inkscape:cy="22.146456"
   inkscape:window-width="1280"
   inkscape:window-height="731"
   inkscape:window-x="0"
   inkscape:window-y="0"
   inkscape:window-maximized="1"
   inkscape:current-layer="svg27" />
 <defs
   class="ClipPathGroup"
   id="defs2">
  <clipPath
   id="presentation_clip_path"
   clipPathUnits="userSpaceOnUse">
   <rect
   x="0"
   y="0"
   width="21001"
   height="29703"
   id="rect1" />
  </clipPath>
  <clipPath
   id="presentation_clip_path_shrink"
   clipPathUnits="userSpaceOnUse">
   <rect
   x="21"
   y="29"
   width="20959"
   height="29644"
   id="rect2" />
  </clipPath>
 </defs>
 <defs
   class="TextShapeIndex"
   id="defs3">
  <g
   ooo:slide="id1"
   ooo:id-list="id3 id4 id5 id6 id7 id8 id9 id10 id11 id12"
   id="g2" />
 </defs>
 <defs
   class="EmbeddedBulletChars"
   id="defs12">
  <g
   id="bullet-char-template-57356"
   transform="matrix(4.8828125e-4,0,0,-4.8828125e-4,0,0)">
   <path
   d="M 580,1141 1163,571 580,0 -4,571 Z"
   id="path3" />
  </g>
  <g
   id="bullet-char-template-57354"
   transform="matrix(4.8828125e-4,0,0,-4.8828125e-4,0,0)">
   <path
   d="M 8,1128 H 1137 V 0 H 8 Z"
   id="path4" />
  </g>
  <g
   id="bullet-char-template-10146"
   transform="matrix(4.8828125e-4,0,0,-4.8828125e-4,0,0)">
   <path
   d="M 174,0 602,739 174,1481 1456,739 Z M 1358,739 309,1346 659,739 Z"
   id="path5" />
  </g>
  <g
   id="bullet-char-template-10132"
   transform="matrix(4.8828125e-4,0,0,-4.8828125e-4,0,0)">
   <path
   d="M 2015,739 1276,0 H 717 l 543,543 H 174 v 393 h 1086 l -543,545 h 557 z"
   id="path6" />
  </g>
  <g
   id="bullet-char-template-10007"
   transform="matrix(4.8828125e-4,0,0,-4.8828125e-4,0,0)">
   <path
   d="m 0,-2 c -7,16 -16,29 -25,39 l 381,530 c -94,256 -141,385 -141,387 0,25 13,38 40,38 9,0 21,-2 34,-5 21,4 42,12 65,25 l 27,-13 111,-251 280,301 64,-25 24,25 c 21,-10 41,-24 62,-43 C 886,937 835,863 770,784 769,783 710,716 594,584 L 774,223 c 0,-27 -21,-55 -63,-84 l 16,-20 C 717,90 699,76 672,76 641,76 570,178 457,381 L 164,-76 c -22,-34 -53,-51 -92,-51 -42,0 -63,17 -64,51 -7,9 -10,24 -10,44 0,9 1,19 2,30 z"
   id="path7" />
  </g>
  <g
   id="bullet-char-template-10004"
   transform="matrix(4.8828125e-4,0,0,-4.8828125e-4,0,0)">
   <path
   d="M 285,-33 C 182,-33 111,30 74,156 52,228 41,333 41,471 c 0,78 14,145 41,201 34,71 87,106 158,106 53,0 88,-31 106,-94 l 23,-176 c 8,-64 28,-97 59,-98 l 735,706 c 11,11 33,17 66,17 42,0 63,-15 63,-46 V 965 c 0,-36 -10,-64 -30,-84 L 442,47 C 390,-6 338,-33 285,-33 Z"
   id="path8" />
  </g>
  <g
   id="bullet-char-template-9679"
   transform="matrix(4.8828125e-4,0,0,-4.8828125e-4,0,0)">
   <path
   d="M 813,0 C 632,0 489,54 383,161 276,268 223,411 223,592 c 0,181 53,324 160,431 106,107 249,161 430,161 179,0 323,-54 432,-161 108,-107 162,-251 162,-431 0,-180 -54,-324 -162,-431 C 1136,54 992,0 813,0 Z"
   id="path9" />
  </g>
  <g
   id="bullet-char-template-8226"
   transform="matrix(4.8828125e-4,0,0,-4.8828125e-4,0,0)">
   <path
   d="m 346,457 c -73,0 -137,26 -191,78 -54,51 -81,114 -81,188 0,73 27,136 81,188 54,52 118,78 191,78 73,0 134,-26 185,-79 51,-51 77,-114 77,-187 0,-75 -25,-137 -76,-188 -50,-52 -112,-78 -186,-78 z"
   id="path10" />
  </g>
  <g
   id="bullet-char-template-8211"
   transform="matrix(4.8828125e-4,0,0,-4.8828125e-4,0,0)">
   <path
   d="M -4,459 H 1135 V 606 H -4 Z"
   id="path11" />
  </g>
  <g
   id="bullet-char-template-61548"
   transform="matrix(4.8828125e-4,0,0,-4.8828125e-4,0,0)">
   <path
   d="m 173,740 c 0,163 58,303 173,419 116,115 255,173 419,173 163,0 302,-58 418,-173 116,-116 174,-256 174,-419 0,-163 -58,-303 -174,-418 C 1067,206 928,148 765,148 601,148 462,206 346,322 231,437 173,577 173,740 Z"
   id="path12" />
  </g>
 </defs>
 <g
   id="g12"
   transform="translate(-2652,-5770)">
  <g
   id="id2"
   class="Master_Slide">
   <g
   id="bg-id2"
   class="Background" />
   <g
   id="bo-id2"
   class="BackgroundObjects" />
  </g>
 </g>
 <g
   class="SlideGroup"
   id="g27"
   transform="translate(-2652,-5770)">
  <g
   id="g26">
   <g
   id="container-id1">
    <g
   id="id1"
   class="Slide"
   clip-path="url(#presentation_clip_path)">
     <g
   class="Page"
   id="g25">
      <g
   class="Group"
   id="g24">
       <g
   class="com.sun.star.drawing.PolyPolygonShape"
   id="g13">
        <g
   id="id3">
         <rect
   class="BoundingBox"
   stroke="none"
   fill="none"
   x="2652"
   y="5770"
   width="15001"
   height="14996"
   id="rect12" />
         <path
   fill="#fefefe"
   stroke="none"
   d="M 2653,5770 V 20765 H 17652 V 5770 Z"
   id="path13" />
        </g>
       </g>
       <g
   class="com.sun.star.drawing.ClosedBezierShape"
   id="g14">
        <g
   id="id4">
         <rect
   class="BoundingBox"
   stroke="none"
   fill="none"
   x="5917"
   y="6275"
   width="8493"
   height="13997"
   id="rect13" />
         <path
   fill="#826500"
   stroke="none"
   d="m 10112,20270 c 2475,-28 4297,-3237 4297,-7067 0,-3827 -1943,-6928 -4134,-6928 -2600,0 -4358,3264 -4358,7092 0,3896 2010,6928 4195,6903 z"
   id="path14" />
        </g>
       </g>
       <g
   class="Group"
   id="g19"
   style="display:none">
        <g
   class="com.sun.star.drawing.LineShape"
   id="g15">
         <g
   id="id5">
          <rect
   class="BoundingBox"
   stroke="none"
   fill="none"
   x="2628"
   y="5771"
   width="53"
   height="14994"
   id="rect14" />
          <path
   fill="none"
   stroke="#1b1918"
   stroke-width="51"
   stroke-linejoin="miter"
   d="M 2654,20764 V 5771"
   id="path15" />
         </g>
        </g>
        <g
   class="com.sun.star.drawing.LineShape"
   id="g16">
         <g
   id="id6">
          <rect
   class="BoundingBox"
   stroke="none"
   fill="none"
   x="2654"
   y="20739"
   width="14997"
   height="53"
   id="rect15" />
          <path
   fill="none"
   stroke="#1b1918"
   stroke-width="51"
   stroke-linejoin="miter"
   d="M 17650,20765 H 2654"
   id="path16" />
         </g>
        </g>
        <g
   class="com.sun.star.drawing.LineShape"
   id="g17">
         <g
   id="id7">
          <rect
   class="BoundingBox"
   stroke="none"
   fill="none"
   x="17624"
   y="5771"
   width="53"
   height="14994"
   id="rect16" />
          <path
   fill="none"
   stroke="#1b1918"
   stroke-width="51"
   stroke-linejoin="miter"
   d="M 17650,5771 V 20764"
   id="path17" />
         </g>
        </g>
        <g
   class="com.sun.star.drawing.LineShape"
   id="g18">
         <g
   id="id8">
          <rect
   class="BoundingBox"
   stroke="none"
   fill="none"
   x="2654"
   y="5745"
   width="14997"
   height="53"
   id="rect17" />
          <path
   fill="none"
   stroke="#1b1918"
   stroke-width="51"
   stroke-linejoin="miter"
   d="M 2654,5771 H 17650"
   id="path18" />
         </g>
        </g>
       </g>
       <g
   class="com.sun.star.drawing.ClosedBezierShape"
   id="g20">
        <g
   id="id9">
         <rect
   class="BoundingBox"
   stroke="none"
   fill="none"
   x="11747"
   y="6271"
   width="5405"
   height="13995"
   id="rect19" />
         <path
   fill="#826500"
   stroke="none"
   d="m 11747,20265 5404,-2 V 6271 l -5404,2 c 449,279 807,536 1198,993 l 3208,3 v 11996 h -3208 c -322,398 -762,724 -1198,1000 z"
   id="path19" />
        </g>
       </g>
       <g
   class="com.sun.star.drawing.ClosedBezierShape"
   id="g21">
        <g
   id="id10">
         <rect
   class="BoundingBox"
   stroke="none"
   fill="none"
   x="3155"
   y="6270"
   width="5394"
   height="13996"
   id="rect20" />
         <path
   fill="#826500"
   stroke="none"
   d="m 8548,20265 -5393,-2 V 6271 l 5393,2 c -427,252 -843,561 -1199,993 l -3196,3 v 11996 h 3196 c 320,403 775,726 1199,1000 z"
   id="path20" />
        </g>
       </g>
       <g
   class="com.sun.star.drawing.ClosedBezierShape"
   id="g22">
        <g
   id="id11">
         <rect
   class="BoundingBox"
   stroke="none"
   fill="none"
   x="6479"
   y="9957"
   width="7203"
   height="8939"
   id="rect21" />
         <path
   fill="#ffffff"
   stroke="none"
   d="m 6550,14995 c 77,147 276,192 420,181 0,0 72,19 199,-45 0,0 111,-61 169,-147 91,119 229,317 304,458 -185,139 -362,314 -385,528 -22,142 78,264 153,328 132,64 320,131 461,31 208,-153 194,-534 103,-778 38,-45 826,-356 1106,-417 232,-50 547,44 660,-250 -16,-131 -157,-45 -251,-64 -241,30 -429,44 -661,117 -360,86 -650,264 -948,411 -105,-186 -233,-361 -379,-525 80,-128 290,-451 426,-646 146,42 611,268 837,323 227,56 927,128 1305,120 34,94 -5,494 -19,558 -506,184 -1001,576 -1294,1001 53,5 102,55 188,39 166,-134 354,-351 561,-498 210,-147 349,-233 517,-247 -2,125 -22,219 -36,331 h -8 c -61,461 -160,880 -334,1294 -50,95 -108,237 -108,237 -166,-70 -360,-125 -548,-112 -149,37 -301,81 -395,273 -39,111 -22,261 50,355 69,95 141,125 235,170 185,56 398,8 511,-53 119,-61 263,-219 263,-219 58,41 99,55 163,94 58,50 163,100 227,164 l 56,61 c -153,189 -200,375 -145,564 11,28 31,70 36,81 0,0 -3,55 153,144 155,89 373,11 479,-136 105,-150 24,-425 -72,-589 88,-111 163,-175 301,-231 28,23 254,206 351,242 136,47 343,86 442,-14 180,-119 197,-247 128,-483 -128,-195 -307,-250 -539,-206 -114,-11 -280,75 -280,75 -213,-692 -428,-1295 -508,-1992 8,-64 -59,-136 -14,-203 442,-56 862,8 1332,111 0,0 556,167 686,298 -19,133 58,477 166,619 97,117 224,186 351,170 171,0 279,-200 227,-414 -53,-225 -244,-445 -451,-556 36,-86 47,-236 141,-359 0,0 202,103 307,131 160,31 335,-17 431,-119 92,-148 67,-342 11,-492 -157,-290 -600,-67 -741,94 -240,-253 -395,-484 -564,-770 161,-112 335,-256 396,-459 33,-114 50,-250 -72,-372 -144,-114 -304,-136 -473,-59 -310,142 -199,751 -207,809 -528,197 -1059,322 -1538,375 l 92,-600 c 50,-189 99,-373 135,-539 31,-47 277,-851 409,-1209 188,-586 575,-1170 802,-1770 -8,0 -177,31 -221,-56 19,-52 22,-86 22,-144 -25,-22 -39,-74 -83,-42 -240,467 -423,834 -611,1248 -301,658 -503,1345 -716,2001 l -28,-6 c -27,-197 -319,-1398 -407,-1498 -30,17 -80,-33 -133,-14 v 17 c -69,36 -130,-64 -221,0 78,217 351,1009 382,1200 80,376 119,598 160,979 14,86 53,375 50,480 -683,11 -1394,-58 -2021,-450 44,-125 218,-489 -100,-756 -80,-72 -227,-80 -296,-72 -185,-17 -359,139 -437,281 -138,403 432,681 432,681 -80,186 -227,390 -335,501 -135,-140 -334,-213 -520,-171 -85,11 -149,71 -226,171 -115,150 -99,269 -11,436 z m 0,0 z m 1294,939 c 11,109 -36,200 -119,222 -39,6 -136,48 -224,-72 -42,-97 -17,-233 72,-289 52,-33 105,-103 188,-155 80,91 72,230 83,294 z m 0,0 z m 1216,1904 c -88,13 -395,-28 -251,-339 196,-203 547,44 591,88 -66,134 -207,226 -340,251 z m 0,0 z m 2271,-220 c 127,-6 152,42 232,158 25,78 0,206 -102,217 -135,14 -321,-147 -415,-228 116,-144 197,-153 285,-147 z m 0,0 z m 2165,-2718 c 5,48 -3,151 -50,181 -130,72 -246,33 -368,-94 9,-120 346,-367 418,-87 z m 0,0 z m -523,1393 c -107,69 -130,13 -185,-34 -94,-147 -149,-314 -105,-467 127,-30 462,403 290,501 z m 0,0 z m -577,-2983 c 49,6 107,92 127,156 0,152 -183,283 -299,380 -72,-39 -119,-578 172,-536 z m 0,0 z m -1980,1251 c 514,-100 1435,-317 1653,-398 67,61 559,760 625,821 0,0 -177,333 -240,447 -653,-292 -1352,-439 -2033,-344 -2,-187 -24,-342 -5,-526 z m 0,0 z m 72,4005 c -44,136 -205,186 -271,147 -125,-78 -181,-423 97,-520 0,0 201,120 174,373 z m 0,0 z m -257,-2332 c 121,475 273,942 459,1406 -122,81 -222,189 -340,259 l -554,-403 c 157,-434 305,-809 426,-1253 z m 0,0 z M 7481,13407 c 42,-50 139,-116 213,-80 58,14 89,69 105,122 34,122 14,258 -69,358 -218,-27 -340,-294 -249,-400 z m 0,0 z m -710,1241 c 116,-81 274,-53 373,77 l 31,70 c -128,108 -302,242 -440,122 -75,-53 -138,-161 36,-269 z"
   id="path21" />
        </g>
       </g>
       <g
   class="com.sun.star.drawing.ClosedBezierShape"
   id="g23">
        <g
   id="id12">
         <rect
   class="BoundingBox"
   stroke="none"
   fill="none"
   x="8176"
   y="7214"
   width="2396"
   height="2124"
   id="rect22" />
         <path
   fill="#ffffff"
   stroke="none"
   d="m 9598,7241 c 47,6 91,11 138,23 8,5 16,11 22,19 6,42 -263,548 -285,612 6,-2 17,17 31,9 41,-59 63,-64 71,-67 39,-39 144,-104 144,-104 31,-22 180,-125 230,-153 33,-5 50,-27 80,-33 19,-6 44,-6 58,11 17,22 44,42 47,75 19,53 47,97 58,154 14,5 -3,17 0,25 -19,14 -36,22 -50,39 -5,-3 -8,5 -14,8 -13,3 -22,22 -38,22 -80,67 -161,117 -244,181 v 3 c 202,36 388,105 573,189 30,11 61,25 88,41 h 6 c 22,20 58,17 58,50 -3,14 -3,23 -14,31 -28,36 -33,86 -61,122 -16,14 -36,28 -58,28 -16,8 -30,3 -50,11 -8,-8 -16,-17 -30,-11 -30,14 -72,25 -105,11 -64,-33 -127,-69 -194,-92 -135,-52 -273,-88 -425,-97 l -97,3 c -9,3 -9,11 -9,19 12,20 31,28 47,42 70,81 158,170 238,236 78,75 161,139 233,212 52,42 27,112 44,167 0,11 0,25 -11,31 -9,0 -14,5 -20,11 -27,8 -47,28 -69,42 -11,11 -14,19 -22,30 v 3 c -16,28 -44,39 -77,42 -6,2 -14,5 -20,8 -16,-6 -22,19 -33,8 -52,-55 -119,-97 -169,-158 -30,-20 -52,-47 -82,-67 -86,-86 -150,-167 -239,-251 -3,8 -3,11 0,22 -9,68 11,135 16,196 15,72 26,144 40,219 14,48 19,95 14,148 -3,5 0,16 -11,19 -28,14 -56,0 -84,-5 -6,-12 -19,-9 -28,-14 -16,2 -36,-3 -50,2 -8,-2 -13,9 -22,3 -2,9 -5,-3 -11,0 -19,-3 -38,-5 -58,-8 -19,-8 -41,-8 -61,-17 -5,-11 -8,-25 -11,-39 -27,-130 -55,-272 -60,-405 -6,-25 2,-51 -3,-74 -86,87 -161,185 -221,290 -23,17 -31,64 -67,48 -3,0 -5,-6 -8,-3 -6,-3 -8,-11 -8,-17 -9,-14 -20,-17 -28,-25 -36,-3 -69,-17 -102,-25 -20,-8 -22,-30 -36,-39 -6,-25 -42,-25 -42,-47 -8,-11 -5,-17 0,-25 14,-11 17,-31 28,-44 66,-96 138,-190 213,-277 61,-80 144,-158 199,-247 14,-19 -17,-19 -22,-30 -20,-12 -47,-3 -67,-12 -55,0 -99,-11 -152,-2 -36,-9 -83,30 -105,-14 -2,-6 -8,-14 -14,-14 -11,8 -27,8 -33,19 -14,3 -36,0 -52,3 -64,14 -133,17 -197,25 -16,3 -38,11 -55,6 -22,-11 -19,-39 -25,-61 -16,-9 -22,-28 -33,-42 -5,-31 -11,-56 -16,-84 2,-2 5,-11 11,-11 2,0 8,0 11,-5 l -6,-14 c 14,-17 33,-17 50,-28 47,-22 102,-22 152,-36 111,-19 229,-17 346,-19 5,-6 -6,-12 -6,-17 -22,-33 -41,-70 -61,-108 -33,-53 -77,-101 -108,-156 -13,-11 -22,-29 -33,-37 -8,-11 -14,-28 -22,-42 -3,-22 -22,-61 6,-75 60,-55 118,-114 190,-153 -2,-14 14,-5 20,-14 2,9 11,3 16,3 28,6 36,36 50,56 8,19 6,50 30,58 59,36 64,108 108,158 39,76 103,132 152,199 9,3 11,14 20,16 0,9 11,6 8,14 17,-44 30,-94 50,-141 25,-79 38,-160 69,-238 3,-33 22,-61 28,-94 16,-31 22,-67 38,-100 0,-20 17,-33 17,-53 3,-3 44,-69 44,-75 11,-11 26,-30 45,-30 67,5 130,27 197,27 z"
   id="path22" />
        </g>
       </g>
      </g>
     </g>
    </g>
   </g>
  </g>
 </g>
</svg>
