<?xml version="1.0" encoding="UTF-8" standalone="no"?>
<svg
   version="1.2"
   width="150.00999mm"
   height="149.95999mm"
   viewBox="0 0 15001 14995.999"
   preserveAspectRatio="xMidYMid"
   fill-rule="evenodd"
   stroke-width="28.222"
   stroke-linejoin="round"
   xml:space="preserve"
   id="svg26"
   sodipodi:docname="ID15a29.svg"
   inkscape:version="1.2.2 (b0a8486541, 2022-12-01)"
   xmlns:inkscape="http://www.inkscape.org/namespaces/inkscape"
   xmlns:sodipodi="http://sodipodi.sourceforge.net/DTD/sodipodi-0.dtd"
   xmlns="http://www.w3.org/2000/svg"
   xmlns:svg="http://www.w3.org/2000/svg"
   xmlns:ooo="http://xml.openoffice.org/svg/export"><sodipodi:namedview
   id="namedview26"
   pagecolor="#ffffff"
   bordercolor="#000000"
   borderopacity="0.25"
   inkscape:showpageshadow="2"
   inkscape:pageopacity="0.0"
   inkscape:pagecheckerboard="true"
   inkscape:deskcolor="#d1d1d1"
   inkscape:document-units="mm"
   fit-margin-top="50"
   fit-margin-left="50"
   fit-margin-right="50"
   fit-margin-bottom="50"
   showgrid="false"
   inkscape:zoom="6.8817813"
   inkscape:cx="540.77569"
   inkscape:cy="27.609131"
   inkscape:window-width="1280"
   inkscape:window-height="731"
   inkscape:window-x="0"
   inkscape:window-y="0"
   inkscape:window-maximized="1"
   inkscape:current-layer="svg26" />
 <defs
   class="ClipPathGroup"
   id="defs2">
  <clipPath
   id="presentation_clip_path"
   clipPathUnits="userSpaceOnUse">
   <rect
   x="0"
   y="0"
   width="21001"
   height="29703"
   id="rect1" />
  </clipPath>
  <clipPath
   id="presentation_clip_path_shrink"
   clipPathUnits="userSpaceOnUse">
   <rect
   x="21"
   y="29"
   width="20959"
   height="29644"
   id="rect2" />
  </clipPath>
 </defs>
 <defs
   class="TextShapeIndex"
   id="defs3">
  <g
   ooo:slide="id1"
   ooo:id-list="id3 id4 id5 id6 id7 id8 id9 id10 id11"
   id="g2" />
 </defs>
 <defs
   class="EmbeddedBulletChars"
   id="defs12">
  <g
   id="bullet-char-template-57356"
   transform="matrix(4.8828125e-4,0,0,-4.8828125e-4,0,0)">
   <path
   d="M 580,1141 1163,571 580,0 -4,571 Z"
   id="path3" />
  </g>
  <g
   id="bullet-char-template-57354"
   transform="matrix(4.8828125e-4,0,0,-4.8828125e-4,0,0)">
   <path
   d="M 8,1128 H 1137 V 0 H 8 Z"
   id="path4" />
  </g>
  <g
   id="bullet-char-template-10146"
   transform="matrix(4.8828125e-4,0,0,-4.8828125e-4,0,0)">
   <path
   d="M 174,0 602,739 174,1481 1456,739 Z M 1358,739 309,1346 659,739 Z"
   id="path5" />
  </g>
  <g
   id="bullet-char-template-10132"
   transform="matrix(4.8828125e-4,0,0,-4.8828125e-4,0,0)">
   <path
   d="M 2015,739 1276,0 H 717 l 543,543 H 174 v 393 h 1086 l -543,545 h 557 z"
   id="path6" />
  </g>
  <g
   id="bullet-char-template-10007"
   transform="matrix(4.8828125e-4,0,0,-4.8828125e-4,0,0)">
   <path
   d="m 0,-2 c -7,16 -16,29 -25,39 l 381,530 c -94,256 -141,385 -141,387 0,25 13,38 40,38 9,0 21,-2 34,-5 21,4 42,12 65,25 l 27,-13 111,-251 280,301 64,-25 24,25 c 21,-10 41,-24 62,-43 C 886,937 835,863 770,784 769,783 710,716 594,584 L 774,223 c 0,-27 -21,-55 -63,-84 l 16,-20 C 717,90 699,76 672,76 641,76 570,178 457,381 L 164,-76 c -22,-34 -53,-51 -92,-51 -42,0 -63,17 -64,51 -7,9 -10,24 -10,44 0,9 1,19 2,30 z"
   id="path7" />
  </g>
  <g
   id="bullet-char-template-10004"
   transform="matrix(4.8828125e-4,0,0,-4.8828125e-4,0,0)">
   <path
   d="M 285,-33 C 182,-33 111,30 74,156 52,228 41,333 41,471 c 0,78 14,145 41,201 34,71 87,106 158,106 53,0 88,-31 106,-94 l 23,-176 c 8,-64 28,-97 59,-98 l 735,706 c 11,11 33,17 66,17 42,0 63,-15 63,-46 V 965 c 0,-36 -10,-64 -30,-84 L 442,47 C 390,-6 338,-33 285,-33 Z"
   id="path8" />
  </g>
  <g
   id="bullet-char-template-9679"
   transform="matrix(4.8828125e-4,0,0,-4.8828125e-4,0,0)">
   <path
   d="M 813,0 C 632,0 489,54 383,161 276,268 223,411 223,592 c 0,181 53,324 160,431 106,107 249,161 430,161 179,0 323,-54 432,-161 108,-107 162,-251 162,-431 0,-180 -54,-324 -162,-431 C 1136,54 992,0 813,0 Z"
   id="path9" />
  </g>
  <g
   id="bullet-char-template-8226"
   transform="matrix(4.8828125e-4,0,0,-4.8828125e-4,0,0)">
   <path
   d="m 346,457 c -73,0 -137,26 -191,78 -54,51 -81,114 -81,188 0,73 27,136 81,188 54,52 118,78 191,78 73,0 134,-26 185,-79 51,-51 77,-114 77,-187 0,-75 -25,-137 -76,-188 -50,-52 -112,-78 -186,-78 z"
   id="path10" />
  </g>
  <g
   id="bullet-char-template-8211"
   transform="matrix(4.8828125e-4,0,0,-4.8828125e-4,0,0)">
   <path
   d="M -4,459 H 1135 V 606 H -4 Z"
   id="path11" />
  </g>
  <g
   id="bullet-char-template-61548"
   transform="matrix(4.8828125e-4,0,0,-4.8828125e-4,0,0)">
   <path
   d="m 173,740 c 0,163 58,303 173,419 116,115 255,173 419,173 163,0 302,-58 418,-173 116,-116 174,-256 174,-419 0,-163 -58,-303 -174,-418 C 1067,206 928,148 765,148 601,148 462,206 346,322 231,437 173,577 173,740 Z"
   id="path12" />
  </g>
 </defs>
 <g
   id="g12"
   transform="translate(-2652,-5770)">
  <g
   id="id2"
   class="Master_Slide">
   <g
   id="bg-id2"
   class="Background" />
   <g
   id="bo-id2"
   class="BackgroundObjects" />
  </g>
 </g>
 <g
   class="SlideGroup"
   id="g26"
   transform="translate(-2652,-5770)">
  <g
   id="g25">
   <g
   id="container-id1">
    <g
   id="id1"
   class="Slide"
   clip-path="url(#presentation_clip_path)">
     <g
   class="Page"
   id="g24">
      <g
   class="Group"
   id="g23">
       <g
   class="com.sun.star.drawing.PolyPolygonShape"
   id="g13">
        <g
   id="id3">
         <rect
   class="BoundingBox"
   stroke="none"
   fill="none"
   x="2652"
   y="5770"
   width="15001"
   height="14996"
   id="rect12" />
         <path
   fill="#fefefe"
   stroke="none"
   d="M 2653,5770 V 20765 H 17652 V 5770 Z"
   id="path13" />
        </g>
       </g>
       <g
   class="Group"
   id="g18"
   style="display:none">
        <g
   class="com.sun.star.drawing.LineShape"
   id="g14">
         <g
   id="id4">
          <rect
   class="BoundingBox"
   stroke="none"
   fill="none"
   x="2628"
   y="5771"
   width="53"
   height="14994"
   id="rect13" />
          <path
   fill="none"
   stroke="#1b1918"
   stroke-width="51"
   stroke-linejoin="miter"
   d="M 2654,20764 V 5771"
   id="path14" />
         </g>
        </g>
        <g
   class="com.sun.star.drawing.LineShape"
   id="g15">
         <g
   id="id5">
          <rect
   class="BoundingBox"
   stroke="none"
   fill="none"
   x="2654"
   y="20739"
   width="14997"
   height="53"
   id="rect14" />
          <path
   fill="none"
   stroke="#1b1918"
   stroke-width="51"
   stroke-linejoin="miter"
   d="M 17650,20765 H 2654"
   id="path15" />
         </g>
        </g>
        <g
   class="com.sun.star.drawing.LineShape"
   id="g16">
         <g
   id="id6">
          <rect
   class="BoundingBox"
   stroke="none"
   fill="none"
   x="17624"
   y="5771"
   width="53"
   height="14994"
   id="rect15" />
          <path
   fill="none"
   stroke="#1b1918"
   stroke-width="51"
   stroke-linejoin="miter"
   d="M 17650,5771 V 20764"
   id="path16" />
         </g>
        </g>
        <g
   class="com.sun.star.drawing.LineShape"
   id="g17">
         <g
   id="id7">
          <rect
   class="BoundingBox"
   stroke="none"
   fill="none"
   x="2654"
   y="5745"
   width="14997"
   height="53"
   id="rect16" />
          <path
   fill="none"
   stroke="#1b1918"
   stroke-width="51"
   stroke-linejoin="miter"
   d="M 2654,5771 H 17650"
   id="path17" />
         </g>
        </g>
       </g>
       <g
   class="com.sun.star.drawing.ClosedBezierShape"
   id="g19">
        <g
   id="id8">
         <rect
   class="BoundingBox"
   stroke="none"
   fill="none"
   x="11747"
   y="6271"
   width="5405"
   height="13995"
   id="rect18" />
         <path
   fill="#826500"
   stroke="none"
   d="m 11747,20265 5404,-2 V 6271 l -5404,2 c 449,279 807,536 1198,993 l 3208,3 v 11996 h -3208 c -322,398 -762,724 -1198,1000 z"
   id="path18" />
        </g>
       </g>
       <g
   class="com.sun.star.drawing.ClosedBezierShape"
   id="g20">
        <g
   id="id9">
         <rect
   class="BoundingBox"
   stroke="none"
   fill="none"
   x="3155"
   y="6270"
   width="5394"
   height="13996"
   id="rect19" />
         <path
   fill="#826500"
   stroke="none"
   d="m 8548,20265 -5393,-2 V 6271 l 5393,2 c -427,252 -843,561 -1199,993 l -3196,3 v 11996 h 3196 c 320,403 775,726 1199,1000 z"
   id="path19" />
        </g>
       </g>
       <g
   class="com.sun.star.drawing.ClosedBezierShape"
   id="g21">
        <g
   id="id10">
         <rect
   class="BoundingBox"
   stroke="none"
   fill="none"
   x="5893"
   y="6262"
   width="8520"
   height="14003"
   id="rect20" />
         <path
   fill="#826500"
   stroke="none"
   d="m 6224,15944 c 640,2538 2161,4320 3926,4320 2353,0 4262,-3135 4262,-7003 0,-3866 -1909,-6998 -4262,-6998 -2349,0 -4257,3132 -4257,6998 0,783 81,1540 218,2256 725,-592 1682,-1445 2237,-2383 385,399 1030,559 1569,621 897,115 1761,-28 2586,-287 0,0 208,-56 197,-258 -702,-480 -2769,-182 -2769,-182 -569,84 -78,168 -78,168 1132,14 1401,73 2145,-50 -8,47 -48,160 -53,179 -828,300 -1862,199 -2157,171 0,0 -578,-78 -598,-286 -92,-923 4237,-794 3835,168 -104,845 -3265,1137 -4601,480 -266,458 -1305,1359 -2200,2086 z"
   id="path20" />
        </g>
       </g>
       <g
   class="com.sun.star.drawing.ClosedBezierShape"
   id="g22">
        <g
   id="id11">
         <rect
   class="BoundingBox"
   stroke="none"
   fill="none"
   x="7980"
   y="7193"
   width="2434"
   height="2146"
   id="rect21" />
         <path
   fill="#fefefe"
   stroke="none"
   d="m 9424,7221 c 48,5 93,14 140,28 9,2 20,8 26,16 5,43 -270,553 -292,615 5,0 17,17 31,11 42,-59 64,-64 73,-70 42,-36 146,-101 146,-101 33,-22 182,-126 233,-157 34,-3 51,-25 85,-34 17,-5 45,-5 56,12 20,25 45,44 50,75 17,54 45,101 59,155 14,5 -5,19 -2,28 -17,14 -37,19 -51,36 -6,0 -8,9 -14,11 -14,3 -22,20 -39,20 -82,70 -164,118 -248,183 v 2 c 206,37 394,110 582,194 31,11 61,23 90,43 h 5 c 23,17 59,14 59,51 0,11 -3,19 -14,28 -28,36 -34,87 -59,123 -20,14 -39,31 -62,31 -16,8 -30,3 -50,8 -6,-8 -17,-16 -31,-11 -31,14 -73,26 -107,11 -64,-33 -129,-67 -196,-89 -139,-54 -279,-90 -433,-99 h -99 c -8,3 -8,14 -8,20 11,23 31,28 48,45 70,81 160,168 244,239 76,75 161,137 237,213 50,39 25,112 42,165 0,15 0,29 -9,31 -11,0 -17,9 -22,12 -25,8 -48,28 -70,44 -12,12 -14,17 -24,29 l 3,5 c -20,28 -48,37 -81,42 -6,0 -12,3 -20,9 -14,-6 -22,17 -34,8 -53,-59 -118,-101 -171,-160 -31,-22 -53,-50 -84,-67 -84,-87 -152,-171 -241,-256 -3,12 -3,14 0,26 -9,64 11,132 16,193 14,76 26,149 40,222 14,48 19,95 14,149 -3,5 0,19 -12,22 -28,14 -53,-3 -84,-5 -5,-12 -19,-9 -28,-17 -17,3 -36,-3 -50,5 -9,-5 -14,6 -23,3 -3,6 -5,-3 -11,0 -17,-3 -36,-8 -59,-11 -20,-6 -42,-8 -62,-14 -5,-14 -8,-28 -8,-42 -28,-132 -59,-275 -65,-410 -5,-22 3,-50 -2,-73 -87,90 -163,188 -222,292 -25,17 -32,65 -71,48 -3,0 -6,-3 -9,0 -5,-6 -8,-14 -8,-20 -6,-11 -20,-17 -25,-22 -40,-6 -71,-17 -107,-28 -20,-6 -23,-29 -37,-40 -5,-22 -42,-25 -42,-48 -5,-8 -3,-16 0,-25 14,-11 17,-31 28,-42 71,-95 141,-194 216,-281 63,-81 147,-160 204,-249 14,-17 -14,-20 -20,-28 -20,-12 -51,-3 -70,-14 -56,2 -102,-9 -156,-3 -36,-6 -81,33 -106,-14 -3,-3 -6,-14 -14,-14 -12,11 -28,8 -34,22 -14,3 -36,-3 -51,3 -67,11 -137,17 -199,22 -19,3 -39,14 -59,6 -22,-11 -19,-39 -22,-59 -20,-12 -25,-29 -37,-46 -5,-28 -11,-56 -16,-81 2,-6 5,-11 11,-14 3,0 8,0 11,-3 l -6,-17 c 14,-17 34,-14 51,-25 48,-25 104,-25 157,-39 109,-17 230,-17 348,-20 8,-6 -6,-9 -3,-14 -25,-37 -45,-73 -64,-110 -34,-56 -79,-103 -110,-160 -11,-11 -19,-25 -31,-33 -11,-14 -16,-31 -25,-42 -3,-26 -22,-62 6,-79 64,-53 120,-112 193,-152 -2,-14 14,-5 20,-14 3,6 11,0 17,0 28,6 40,37 51,59 12,20 9,48 31,59 59,34 65,110 110,158 39,75 106,131 154,202 11,2 11,11 20,16 0,9 11,6 11,14 14,-47 28,-95 48,-143 25,-78 42,-162 70,-241 5,-34 22,-62 31,-95 14,-31 19,-68 36,-102 0,-19 17,-33 17,-53 3,-3 48,-67 45,-76 11,-11 25,-30 45,-30 67,8 132,30 199,28 z"
   id="path21" />
        </g>
       </g>
      </g>
     </g>
    </g>
   </g>
  </g>
 </g>
</svg>
