<?xml version="1.0" encoding="UTF-8" standalone="no"?>
<svg
   version="1.2"
   width="150.49001mm"
   height="150.47mm"
   viewBox="0 0 15049.001 15047"
   preserveAspectRatio="xMidYMid"
   fill-rule="evenodd"
   stroke-width="28.222"
   stroke-linejoin="round"
   xml:space="preserve"
   id="svg32"
   sodipodi:docname="ID33a.svg"
   inkscape:version="1.2.2 (b0a8486541, 2022-12-01)"
   xmlns:inkscape="http://www.inkscape.org/namespaces/inkscape"
   xmlns:sodipodi="http://sodipodi.sourceforge.net/DTD/sodipodi-0.dtd"
   xmlns="http://www.w3.org/2000/svg"
   xmlns:svg="http://www.w3.org/2000/svg"
   xmlns:ooo="http://xml.openoffice.org/svg/export"><sodipodi:namedview
   id="namedview32"
   pagecolor="#ffffff"
   bordercolor="#000000"
   borderopacity="0.25"
   inkscape:showpageshadow="2"
   inkscape:pageopacity="0.0"
   inkscape:pagecheckerboard="true"
   inkscape:deskcolor="#d1d1d1"
   inkscape:document-units="mm"
   fit-margin-top="50"
   fit-margin-left="50"
   fit-margin-right="50"
   fit-margin-bottom="50"
   showgrid="false"
   inkscape:zoom="3.851293"
   inkscape:cx="502.68831"
   inkscape:cy="610.96364"
   inkscape:window-width="1280"
   inkscape:window-height="731"
   inkscape:window-x="0"
   inkscape:window-y="0"
   inkscape:window-maximized="1"
   inkscape:current-layer="svg32" />
 <defs
   class="ClipPathGroup"
   id="defs2">
  <clipPath
   id="presentation_clip_path"
   clipPathUnits="userSpaceOnUse">
   <rect
   x="0"
   y="0"
   width="21001"
   height="29703"
   id="rect1" />
  </clipPath>
  <clipPath
   id="presentation_clip_path_shrink"
   clipPathUnits="userSpaceOnUse">
   <rect
   x="21"
   y="29"
   width="20959"
   height="29644"
   id="rect2" />
  </clipPath>
 </defs>
 <defs
   class="TextShapeIndex"
   id="defs3">
  <g
   ooo:slide="id1"
   ooo:id-list="id3 id4 id5 id6 id7 id8 id9 id10 id11 id12 id13 id14 id15 id16"
   id="g2" />
 </defs>
 <defs
   class="EmbeddedBulletChars"
   id="defs12">
  <g
   id="bullet-char-template-57356"
   transform="matrix(4.8828125e-4,0,0,-4.8828125e-4,0,0)">
   <path
   d="M 580,1141 1163,571 580,0 -4,571 Z"
   id="path3" />
  </g>
  <g
   id="bullet-char-template-57354"
   transform="matrix(4.8828125e-4,0,0,-4.8828125e-4,0,0)">
   <path
   d="M 8,1128 H 1137 V 0 H 8 Z"
   id="path4" />
  </g>
  <g
   id="bullet-char-template-10146"
   transform="matrix(4.8828125e-4,0,0,-4.8828125e-4,0,0)">
   <path
   d="M 174,0 602,739 174,1481 1456,739 Z M 1358,739 309,1346 659,739 Z"
   id="path5" />
  </g>
  <g
   id="bullet-char-template-10132"
   transform="matrix(4.8828125e-4,0,0,-4.8828125e-4,0,0)">
   <path
   d="M 2015,739 1276,0 H 717 l 543,543 H 174 v 393 h 1086 l -543,545 h 557 z"
   id="path6" />
  </g>
  <g
   id="bullet-char-template-10007"
   transform="matrix(4.8828125e-4,0,0,-4.8828125e-4,0,0)">
   <path
   d="m 0,-2 c -7,16 -16,29 -25,39 l 381,530 c -94,256 -141,385 -141,387 0,25 13,38 40,38 9,0 21,-2 34,-5 21,4 42,12 65,25 l 27,-13 111,-251 280,301 64,-25 24,25 c 21,-10 41,-24 62,-43 C 886,937 835,863 770,784 769,783 710,716 594,584 L 774,223 c 0,-27 -21,-55 -63,-84 l 16,-20 C 717,90 699,76 672,76 641,76 570,178 457,381 L 164,-76 c -22,-34 -53,-51 -92,-51 -42,0 -63,17 -64,51 -7,9 -10,24 -10,44 0,9 1,19 2,30 z"
   id="path7" />
  </g>
  <g
   id="bullet-char-template-10004"
   transform="matrix(4.8828125e-4,0,0,-4.8828125e-4,0,0)">
   <path
   d="M 285,-33 C 182,-33 111,30 74,156 52,228 41,333 41,471 c 0,78 14,145 41,201 34,71 87,106 158,106 53,0 88,-31 106,-94 l 23,-176 c 8,-64 28,-97 59,-98 l 735,706 c 11,11 33,17 66,17 42,0 63,-15 63,-46 V 965 c 0,-36 -10,-64 -30,-84 L 442,47 C 390,-6 338,-33 285,-33 Z"
   id="path8" />
  </g>
  <g
   id="bullet-char-template-9679"
   transform="matrix(4.8828125e-4,0,0,-4.8828125e-4,0,0)">
   <path
   d="M 813,0 C 632,0 489,54 383,161 276,268 223,411 223,592 c 0,181 53,324 160,431 106,107 249,161 430,161 179,0 323,-54 432,-161 108,-107 162,-251 162,-431 0,-180 -54,-324 -162,-431 C 1136,54 992,0 813,0 Z"
   id="path9" />
  </g>
  <g
   id="bullet-char-template-8226"
   transform="matrix(4.8828125e-4,0,0,-4.8828125e-4,0,0)">
   <path
   d="m 346,457 c -73,0 -137,26 -191,78 -54,51 -81,114 -81,188 0,73 27,136 81,188 54,52 118,78 191,78 73,0 134,-26 185,-79 51,-51 77,-114 77,-187 0,-75 -25,-137 -76,-188 -50,-52 -112,-78 -186,-78 z"
   id="path10" />
  </g>
  <g
   id="bullet-char-template-8211"
   transform="matrix(4.8828125e-4,0,0,-4.8828125e-4,0,0)">
   <path
   d="M -4,459 H 1135 V 606 H -4 Z"
   id="path11" />
  </g>
  <g
   id="bullet-char-template-61548"
   transform="matrix(4.8828125e-4,0,0,-4.8828125e-4,0,0)">
   <path
   d="m 173,740 c 0,163 58,303 173,419 116,115 255,173 419,173 163,0 302,-58 418,-173 116,-116 174,-256 174,-419 0,-163 -58,-303 -174,-418 C 1067,206 928,148 765,148 601,148 462,206 346,322 231,437 173,577 173,740 Z"
   id="path12" />
  </g>
 </defs>
 <g
   id="g12"
   transform="translate(-2628,-5745)">
  <g
   id="id2"
   class="Master_Slide">
   <g
   id="bg-id2"
   class="Background" />
   <g
   id="bo-id2"
   class="BackgroundObjects" />
  </g>
 </g>
 <g
   class="SlideGroup"
   id="g32"
   transform="translate(-2628,-5745)">
  <g
   id="g31">
   <g
   id="container-id1">
    <g
   id="id1"
   class="Slide"
   clip-path="url(#presentation_clip_path)">
     <g
   class="Page"
   id="g30">
      <g
   class="com.sun.star.drawing.PolyPolygonShape"
   id="g13"
   transform="matrix(1.0033336,0,0,1.003334,-34.84755,-44.237323)">
       <g
   id="id3">
        <rect
   class="BoundingBox"
   stroke="none"
   fill="none"
   x="2654"
   y="5770"
   width="14999"
   height="14997"
   id="rect12" />
        <path
   fill="#fefefe"
   stroke="none"
   d="M 17651,20766 V 5771 H 2654 v 14995 z"
   id="path13" />
       </g>
      </g>
      <g
   class="com.sun.star.drawing.PolyPolygonShape"
   id="g14">
       <g
   id="id4">
        <rect
   class="BoundingBox"
   stroke="none"
   fill="none"
   x="3155"
   y="6271"
   width="13998"
   height="13992"
   id="rect13" />
        <path
   fill="#000000"
   stroke="none"
   d="M 3155,6271 V 20262 H 17151 V 6271 Z"
   id="path14" />
       </g>
      </g>
      <g
   class="com.sun.star.drawing.PolyPolygonShape"
   id="g15">
       <g
   id="id5">
        <rect
   class="BoundingBox"
   stroke="none"
   fill="none"
   x="4152"
   y="7269"
   width="12002"
   height="11996"
   id="rect14" />
        <path
   fill="#fefefe"
   stroke="none"
   d="M 4153,7269 V 19264 H 16153 V 7269 Z"
   id="path15" />
       </g>
      </g>
      <g
   class="Group"
   id="g20"
   style="display:none">
       <g
   class="com.sun.star.drawing.LineShape"
   id="g16">
        <g
   id="id6">
         <rect
   class="BoundingBox"
   stroke="none"
   fill="none"
   x="2628"
   y="5771"
   width="53"
   height="14994"
   id="rect15" />
         <path
   fill="none"
   stroke="#1b1918"
   stroke-width="51"
   stroke-linejoin="miter"
   d="M 2654,20764 V 5771"
   id="path16" />
        </g>
       </g>
       <g
   class="com.sun.star.drawing.LineShape"
   id="g17">
        <g
   id="id7">
         <rect
   class="BoundingBox"
   stroke="none"
   fill="none"
   x="2654"
   y="20739"
   width="14997"
   height="53"
   id="rect16" />
         <path
   fill="none"
   stroke="#1b1918"
   stroke-width="51"
   stroke-linejoin="miter"
   d="M 17650,20765 H 2654"
   id="path17" />
        </g>
       </g>
       <g
   class="com.sun.star.drawing.LineShape"
   id="g18">
        <g
   id="id8">
         <rect
   class="BoundingBox"
   stroke="none"
   fill="none"
   x="17624"
   y="5771"
   width="53"
   height="14994"
   id="rect17" />
         <path
   fill="none"
   stroke="#1b1918"
   stroke-width="51"
   stroke-linejoin="miter"
   d="M 17650,5771 V 20764"
   id="path18" />
        </g>
       </g>
       <g
   class="com.sun.star.drawing.LineShape"
   id="g19">
        <g
   id="id9">
         <rect
   class="BoundingBox"
   stroke="none"
   fill="none"
   x="2654"
   y="5745"
   width="14997"
   height="53"
   id="rect18" />
         <path
   fill="none"
   stroke="#1b1918"
   stroke-width="51"
   stroke-linejoin="miter"
   d="M 2654,5771 H 17650"
   id="path19" />
        </g>
       </g>
      </g>
      <g
   class="Group"
   id="g29">
       <g
   class="com.sun.star.drawing.ClosedBezierShape"
   id="g21">
        <g
   id="id10">
         <rect
   class="BoundingBox"
   stroke="none"
   fill="none"
   x="6977"
   y="11686"
   width="3007"
   height="1594"
   id="rect20" />
         <path
   fill="#000000"
   stroke="none"
   d="m 6978,12958 14,-9 c 208,116 680,-28 1161,-338 483,-309 775,-671 757,-908 l 27,-17 c 98,152 33,315 131,469 86,133 726,833 812,966 l 103,158 H 7301 c -99,-140 -227,-170 -323,-321 z"
   id="path20" />
        </g>
       </g>
       <g
   class="com.sun.star.drawing.ClosedBezierShape"
   id="g22">
        <g
   id="id11">
         <rect
   class="BoundingBox"
   stroke="none"
   fill="none"
   x="6778"
   y="11304"
   width="1905"
   height="1332"
   id="rect21" />
         <path
   fill="#000000"
   stroke="none"
   d="m 8626,11304 c 10,9 20,20 27,32 128,199 -187,631 -700,961 -515,330 -1038,436 -1166,237 -4,-6 -7,-12 -9,-17 163,153 654,41 1138,-270 500,-320 811,-737 710,-943 z"
   id="path21" />
        </g>
       </g>
       <g
   class="com.sun.star.drawing.ClosedBezierShape"
   id="g23">
        <g
   id="id12">
         <rect
   class="BoundingBox"
   stroke="none"
   fill="none"
   x="6644"
   y="11161"
   width="2210"
   height="1687"
   id="rect22" />
         <path
   fill="#000000"
   stroke="none"
   d="m 7429,11532 c 568,-364 1146,-479 1287,-260 13,20 128,185 132,210 48,240 -286,663 -800,992 -515,330 -1037,457 -1236,314 -20,-15 -79,-75 -156,-195 -76,-121 206,-698 773,-1061 z"
   id="path22" />
        </g>
       </g>
       <g
   class="com.sun.star.drawing.ClosedBezierShape"
   id="g24">
        <g
   id="id13">
         <rect
   class="BoundingBox"
   stroke="none"
   fill="none"
   x="5699"
   y="8331"
   width="9276"
   height="9868"
   id="rect23" />
         <path
   fill="#000000"
   stroke="none"
   d="m 7013,18198 h 6502 l 1328,-4300 82,-516 48,-384 -765,292 c 0,123 -1,28 -23,149 H 6563 l -64,-82 c -345,-2070 1520,-4186 3585,-4317 1616,-103 2809,825 3570,2113 l 699,-221 C 13422,9351 11878,8242 9958,8337 7675,8451 5264,11004 5767,13357 l 132,470 623,2586 z"
   id="path23" />
        </g>
       </g>
       <g
   class="Group"
   id="g27">
        <g
   class="com.sun.star.drawing.ClosedBezierShape"
   id="g25">
         <g
   id="id14">
          <rect
   class="BoundingBox"
   stroke="none"
   fill="none"
   x="13151"
   y="11187"
   width="2489"
   height="2118"
   id="rect24" />
          <path
   fill="#000000"
   stroke="none"
   d="m 13686,11436 c 53,179 92,55 69,232 7,23 -44,342 -45,380 -3,140 47,310 121,408 122,160 86,372 136,540 -17,5 -65,19 -76,22 -42,-144 -69,-314 -124,-458 1,69 -4,138 -13,206 46,0 87,7 120,25 l 15,8 c 41,-12 112,-26 156,-27 213,-6 379,-113 570,-170 41,-56 153,-62 205,-99 42,-29 56,-130 108,-146 -5,-17 90,-58 96,-60 63,-44 151,-90 212,-139 16,-11 22,-32 39,-38 -1,-5 28,-33 40,-37 14,-25 72,-95 84,-108 l 1,73 c -87,77 -223,230 -334,262 l 3,10 c -57,77 -243,263 -335,290 -210,73 -560,217 -777,231 l -217,6 c -29,157 -81,309 -143,457 141,-19 277,-67 351,-216 178,-19 414,-34 496,-227 131,-47 368,-7 396,-209 38,-22 75,-44 109,-65 233,-51 288,-165 335,-257 190,-200 161,-355 110,-530 185,-52 86,126 124,244 15,46 20,456 67,442 l 54,-7 c -88,-204 77,-724 -241,-811 -20,-5 -30,-8 -35,-8 -35,-225 -47,-461 -599,-448 -15,-16 -71,8 -105,10 -137,-43 -276,-68 -518,60 -171,11 -353,-7 -529,105 -153,-4 -306,31 -461,93 76,72 155,147 230,226 144,-43 281,-62 366,-16 l 16,8 c 42,-12 117,-27 164,-28 223,-7 396,-118 598,-178 42,-59 161,-66 215,-104 45,-31 91,-126 146,-143 l 49,7 c -81,230 -873,483 -1101,490 l -355,11 c -16,0 -33,2 -50,5 56,63 109,128 155,196 10,-88 37,-174 80,-254 l -64,-238 z"
   id="path24" />
         </g>
        </g>
        <g
   class="com.sun.star.drawing.ClosedBezierShape"
   id="g26">
         <g
   id="id15">
          <rect
   class="BoundingBox"
   stroke="none"
   fill="none"
   x="13843"
   y="11265"
   width="1611"
   height="1565"
   id="rect25" />
          <path
   fill="#fefefe"
   stroke="none"
   d="m 13843,12244 c 42,-4 101,-19 135,-20 213,-6 210,-38 339,-73 188,-52 319,-110 386,-145 46,-24 155,-163 193,-207 12,-13 92,-52 97,-55 64,-43 172,82 234,33 22,-17 101,-95 125,-102 14,-26 84,-86 96,-99 l 4,52 c -187,190 -298,246 -414,138 -70,-65 -244,261 -335,292 -212,69 -596,228 -813,235 l -34,1 c -4,-17 -9,-33 -13,-50 z m 0,0 z m 476,-913 c 54,179 60,-31 38,147 7,22 -44,341 -45,380 -3,140 46,310 121,407 122,160 86,372 136,541 -18,5 -66,19 -76,22 -57,-194 -86,-435 -193,-594 -146,-219 -157,-497 -34,-724 l -33,-153 z m 0,0 z m 500,-66 c 7,22 -51,318 -52,356 -3,140 47,309 121,407 122,161 86,373 136,541 -17,6 -65,19 -76,23 -57,-194 -86,-435 -193,-595 -147,-218 -158,-496 -34,-724 z m 0,0 z m 348,42 c 82,234 46,309 121,406 122,160 86,373 136,542 -18,5 -66,18 -76,22 -57,-194 -248,-712 -287,-953 z"
   id="path25" />
         </g>
        </g>
       </g>
       <g
   class="com.sun.star.drawing.ClosedBezierShape"
   id="g28">
        <g
   id="id16">
         <rect
   class="BoundingBox"
   stroke="none"
   fill="none"
   x="9901"
   y="10247"
   width="3590"
   height="3013"
   id="rect27" />
         <path
   fill="#000000"
   stroke="none"
   d="m 11695,10894 c 217,0 280,288 472,356 686,242 1323,625 1323,1367 0,232 -53,440 -140,642 h -3033 l -415,-591 c 0,-17 0,-34 0,-51 0,-949 805,-1723 1793,-1723 z m 0,0 z m 357,291 c 105,-374 277,-686 513,-938 l 108,318 c -246,84 -441,335 -583,660 z m 0,0 z m -1372,330 c 222,-207 477,-348 804,-343 -145,338 -149,677 -13,1015 l -488,-132 z"
   id="path27" />
        </g>
       </g>
      </g>
     </g>
    </g>
   </g>
  </g>
 </g>
</svg>
