<?xml version="1.0" encoding="UTF-8" standalone="no"?>
<svg
   version="1.2"
   width="150.49001mm"
   height="150.47mm"
   viewBox="0 0 15049.001 15047"
   preserveAspectRatio="xMidYMid"
   fill-rule="evenodd"
   stroke-width="28.222"
   stroke-linejoin="round"
   xml:space="preserve"
   id="svg32"
   sodipodi:docname="ID16d.svg"
   xmlns:inkscape="http://www.inkscape.org/namespaces/inkscape"
   xmlns:sodipodi="http://sodipodi.sourceforge.net/DTD/sodipodi-0.dtd"
   xmlns="http://www.w3.org/2000/svg"
   xmlns:svg="http://www.w3.org/2000/svg"
   xmlns:ooo="http://xml.openoffice.org/svg/export"><sodipodi:namedview
   id="namedview32"
   pagecolor="#ffffff"
   bordercolor="#000000"
   borderopacity="0.25"
   inkscape:showpageshadow="2"
   inkscape:pageopacity="0.0"
   inkscape:pagecheckerboard="0"
   inkscape:deskcolor="#d1d1d1"
   inkscape:document-units="mm"
   fit-margin-top="50"
   fit-margin-left="50"
   fit-margin-right="50"
   fit-margin-bottom="50" />&#10; <defs
   class="ClipPathGroup"
   id="defs2">&#10;  <clipPath
   id="presentation_clip_path"
   clipPathUnits="userSpaceOnUse">&#10;   <rect
   x="0"
   y="0"
   width="21000"
   height="29700"
   id="rect1" />&#10;  </clipPath>&#10;  <clipPath
   id="presentation_clip_path_shrink"
   clipPathUnits="userSpaceOnUse">&#10;   <rect
   x="21"
   y="29"
   width="20958"
   height="29641"
   id="rect2" />&#10;  </clipPath>&#10; </defs>&#10; <defs
   class="TextShapeIndex"
   id="defs3">&#10;  <g
   ooo:slide="id1"
   ooo:id-list="id3 id4 id5 id6 id7 id8 id9 id10 id11 id12 id13 id14 id15 id16 id17"
   id="g2" />&#10; </defs>&#10; <defs
   class="EmbeddedBulletChars"
   id="defs12">&#10;  <g
   id="bullet-char-template-57356"
   transform="matrix(4.8828125e-4,0,0,-4.8828125e-4,0,0)">&#10;   <path
   d="M 580,1141 1163,571 580,0 -4,571 Z"
   id="path3" />&#10;  </g>&#10;  <g
   id="bullet-char-template-57354"
   transform="matrix(4.8828125e-4,0,0,-4.8828125e-4,0,0)">&#10;   <path
   d="M 8,1128 H 1137 V 0 H 8 Z"
   id="path4" />&#10;  </g>&#10;  <g
   id="bullet-char-template-10146"
   transform="matrix(4.8828125e-4,0,0,-4.8828125e-4,0,0)">&#10;   <path
   d="M 174,0 602,739 174,1481 1456,739 Z M 1358,739 309,1346 659,739 Z"
   id="path5" />&#10;  </g>&#10;  <g
   id="bullet-char-template-10132"
   transform="matrix(4.8828125e-4,0,0,-4.8828125e-4,0,0)">&#10;   <path
   d="M 2015,739 1276,0 H 717 l 543,543 H 174 v 393 h 1086 l -543,545 h 557 z"
   id="path6" />&#10;  </g>&#10;  <g
   id="bullet-char-template-10007"
   transform="matrix(4.8828125e-4,0,0,-4.8828125e-4,0,0)">&#10;   <path
   d="m 0,-2 c -7,16 -16,29 -25,39 l 381,530 c -94,256 -141,385 -141,387 0,25 13,38 40,38 9,0 21,-2 34,-5 21,4 42,12 65,25 l 27,-13 111,-251 280,301 64,-25 24,25 c 21,-10 41,-24 62,-43 C 886,937 835,863 770,784 769,783 710,716 594,584 L 774,223 c 0,-27 -21,-55 -63,-84 l 16,-20 C 717,90 699,76 672,76 641,76 570,178 457,381 L 164,-76 c -22,-34 -53,-51 -92,-51 -42,0 -63,17 -64,51 -7,9 -10,24 -10,44 0,9 1,19 2,30 z"
   id="path7" />&#10;  </g>&#10;  <g
   id="bullet-char-template-10004"
   transform="matrix(4.8828125e-4,0,0,-4.8828125e-4,0,0)">&#10;   <path
   d="M 285,-33 C 182,-33 111,30 74,156 52,228 41,333 41,471 c 0,78 14,145 41,201 34,71 87,106 158,106 53,0 88,-31 106,-94 l 23,-176 c 8,-64 28,-97 59,-98 l 735,706 c 11,11 33,17 66,17 42,0 63,-15 63,-46 V 965 c 0,-36 -10,-64 -30,-84 L 442,47 C 390,-6 338,-33 285,-33 Z"
   id="path8" />&#10;  </g>&#10;  <g
   id="bullet-char-template-9679"
   transform="matrix(4.8828125e-4,0,0,-4.8828125e-4,0,0)">&#10;   <path
   d="M 813,0 C 632,0 489,54 383,161 276,268 223,411 223,592 c 0,181 53,324 160,431 106,107 249,161 430,161 179,0 323,-54 432,-161 108,-107 162,-251 162,-431 0,-180 -54,-324 -162,-431 C 1136,54 992,0 813,0 Z"
   id="path9" />&#10;  </g>&#10;  <g
   id="bullet-char-template-8226"
   transform="matrix(4.8828125e-4,0,0,-4.8828125e-4,0,0)">&#10;   <path
   d="m 346,457 c -73,0 -137,26 -191,78 -54,51 -81,114 -81,188 0,73 27,136 81,188 54,52 118,78 191,78 73,0 134,-26 185,-79 51,-51 77,-114 77,-187 0,-75 -25,-137 -76,-188 -50,-52 -112,-78 -186,-78 z"
   id="path10" />&#10;  </g>&#10;  <g
   id="bullet-char-template-8211"
   transform="matrix(4.8828125e-4,0,0,-4.8828125e-4,0,0)">&#10;   <path
   d="M -4,459 H 1135 V 606 H -4 Z"
   id="path11" />&#10;  </g>&#10;  <g
   id="bullet-char-template-61548"
   transform="matrix(4.8828125e-4,0,0,-4.8828125e-4,0,0)">&#10;   <path
   d="m 173,740 c 0,163 58,303 173,419 116,115 255,173 419,173 163,0 302,-58 418,-173 116,-116 174,-256 174,-419 0,-163 -58,-303 -174,-418 C 1067,206 928,148 765,148 601,148 462,206 346,322 231,437 173,577 173,740 Z"
   id="path12" />&#10;  </g>&#10; </defs>&#10; <g
   id="g12"
   transform="translate(-2942,-5464)">&#10;  <g
   id="id2"
   class="Master_Slide">&#10;   <g
   id="bg-id2"
   class="Background" />&#10;   <g
   id="bo-id2"
   class="BackgroundObjects" />&#10;  </g>&#10; </g>&#10; <g
   class="SlideGroup"
   id="g32"
   transform="translate(-2942,-5464)">&#10;  <g
   id="g31">&#10;   <g
   id="container-id1">&#10;    <g
   id="id1"
   class="Slide"
   clip-path="url(#presentation_clip_path)">&#10;     <g
   class="Page"
   id="g30">&#10;      <g
   class="Group"
   id="g29">&#10;       <g
   class="com.sun.star.drawing.PolyPolygonShape"
   id="g13">&#10;        <g
   id="id3">&#10;         <rect
   class="BoundingBox"
   stroke="none"
   fill="none"
   x="2968"
   y="5490"
   width="14999"
   height="14996"
   id="rect12" />&#10;         <path
   fill="#fefefe"
   stroke="none"
   d="M 17965,20485 V 5490 H 2968 v 14995 z"
   id="path13" />&#10;        </g>&#10;       </g>&#10;       <g
   class="com.sun.star.drawing.PolyPolygonShape"
   id="g14">&#10;        <g
   id="id4">&#10;         <rect
   class="BoundingBox"
   stroke="none"
   fill="none"
   x="3468"
   y="5991"
   width="13997"
   height="13992"
   id="rect13" />&#10;         <path
   fill="#826500"
   stroke="none"
   d="M 3468,5991 V 19982 H 17464 V 5991 Z"
   id="path14" />&#10;        </g>&#10;       </g>&#10;       <g
   class="Group"
   id="g19">&#10;        <g
   class="com.sun.star.drawing.LineShape"
   id="g15">&#10;         <g
   id="id5">&#10;          <rect
   class="BoundingBox"
   stroke="none"
   fill="none"
   x="2942"
   y="5490"
   width="53"
   height="14994"
   id="rect14" />&#10;          <path
   fill="none"
   stroke="#1b1918"
   stroke-width="51"
   stroke-linejoin="miter"
   d="M 2968,20483 V 5490"
   id="path15" />&#10;         </g>&#10;        </g>&#10;        <g
   class="com.sun.star.drawing.LineShape"
   id="g16">&#10;         <g
   id="id6">&#10;          <rect
   class="BoundingBox"
   stroke="none"
   fill="none"
   x="2968"
   y="20458"
   width="14997"
   height="53"
   id="rect15" />&#10;          <path
   fill="none"
   stroke="#1b1918"
   stroke-width="51"
   stroke-linejoin="miter"
   d="M 17964,20484 H 2968"
   id="path16" />&#10;         </g>&#10;        </g>&#10;        <g
   class="com.sun.star.drawing.LineShape"
   id="g17">&#10;         <g
   id="id7">&#10;          <rect
   class="BoundingBox"
   stroke="none"
   fill="none"
   x="17938"
   y="5490"
   width="53"
   height="14994"
   id="rect16" />&#10;          <path
   fill="none"
   stroke="#1b1918"
   stroke-width="51"
   stroke-linejoin="miter"
   d="M 17964,5490 V 20483"
   id="path17" />&#10;         </g>&#10;        </g>&#10;        <g
   class="com.sun.star.drawing.LineShape"
   id="g18">&#10;         <g
   id="id8">&#10;          <rect
   class="BoundingBox"
   stroke="none"
   fill="none"
   x="2968"
   y="5464"
   width="14997"
   height="53"
   id="rect17" />&#10;          <path
   fill="none"
   stroke="#1b1918"
   stroke-width="51"
   stroke-linejoin="miter"
   d="M 2968,5490 H 17964"
   id="path18" />&#10;         </g>&#10;        </g>&#10;       </g>&#10;       <g
   class="com.sun.star.drawing.ClosedBezierShape"
   id="g20">&#10;        <g
   id="id9">&#10;         <rect
   class="BoundingBox"
   stroke="none"
   fill="none"
   x="8529"
   y="11523"
   width="3777"
   height="2886"
   id="rect19" />&#10;         <path
   fill="#ffffff"
   stroke="none"
   d="m 11513,11523 c -334,0 -578,167 -738,487 -106,-297 -357,-487 -708,-487 -343,0 -602,175 -754,487 l -30,-427 h -753 c 7,191 15,396 15,594 v 2231 h 829 v -1767 c 0,-213 91,-487 335,-487 259,0 304,228 304,441 v 1813 h 823 v -1767 c 0,-213 99,-487 335,-487 259,0 304,228 304,441 v 1813 h 830 v -1881 c 0,-556 -221,-1004 -792,-1004 z"
   id="path19" />&#10;        </g>&#10;       </g>&#10;       <g
   class="com.sun.star.drawing.PolyPolygonShape"
   id="g21">&#10;        <g
   id="id10">&#10;         <rect
   class="BoundingBox"
   stroke="none"
   fill="none"
   x="8582"
   y="8799"
   width="3732"
   height="665"
   id="rect20" />&#10;         <path
   fill="#ffffff"
   stroke="none"
   d="m 8583,8799 v 663 h 3730 v -663 z"
   id="path20" />&#10;        </g>&#10;       </g>&#10;       <g
   class="com.sun.star.drawing.PolyPolygonShape"
   id="g22">&#10;        <g
   id="id11">&#10;         <rect
   class="BoundingBox"
   stroke="none"
   fill="none"
   x="8582"
   y="16492"
   width="3732"
   height="656"
   id="rect21" />&#10;         <path
   fill="#ffffff"
   stroke="none"
   d="m 8583,16492 v 655 h 3730 v -655 z"
   id="path21" />&#10;        </g>&#10;       </g>&#10;       <g
   class="com.sun.star.drawing.ClosedBezierShape"
   id="g23">&#10;        <g
   id="id12">&#10;         <rect
   class="BoundingBox"
   stroke="none"
   fill="none"
   x="14177"
   y="8799"
   width="1258"
   height="2779"
   id="rect22" />&#10;         <path
   fill="#ffffff"
   stroke="none"
   d="m 15106,8799 h -929 v 662 c 0,0 328,0 602,0 0,487 0,2116 0,2116 h 655 V 8799 Z"
   id="path22" />&#10;        </g>&#10;       </g>&#10;       <g
   class="com.sun.star.drawing.ClosedBezierShape"
   id="g24">&#10;        <g
   id="id13">&#10;         <rect
   class="BoundingBox"
   stroke="none"
   fill="none"
   x="5464"
   y="14369"
   width="1258"
   height="2779"
   id="rect23" />&#10;         <path
   fill="#ffffff"
   stroke="none"
   d="m 5464,14369 v 2778 h 1257 v -654 c 0,0 -328,0 -602,0 0,-495 0,-2124 0,-2124 z"
   id="path23" />&#10;        </g>&#10;       </g>&#10;       <g
   class="com.sun.star.drawing.PolyPolygonShape"
   id="g25">&#10;        <g
   id="id14">&#10;         <rect
   class="BoundingBox"
   stroke="none"
   fill="none"
   x="14778"
   y="12626"
   width="657"
   height="703"
   id="rect24" />&#10;         <path
   fill="#ffffff"
   stroke="none"
   d="m 14778,12627 v 701 h 655 v -701 z"
   id="path24" />&#10;        </g>&#10;       </g>&#10;       <g
   class="com.sun.star.drawing.PolyPolygonShape"
   id="g26">&#10;        <g
   id="id15">&#10;         <rect
   class="BoundingBox"
   stroke="none"
   fill="none"
   x="5464"
   y="12626"
   width="656"
   height="703"
   id="rect25" />&#10;         <path
   fill="#ffffff"
   stroke="none"
   d="m 5464,12627 v 701 h 655 v -701 z"
   id="path25" />&#10;        </g>&#10;       </g>&#10;       <g
   class="com.sun.star.drawing.ClosedBezierShape"
   id="g27">&#10;        <g
   id="id16">&#10;         <rect
   class="BoundingBox"
   stroke="none"
   fill="none"
   x="14177"
   y="14369"
   width="1258"
   height="2779"
   id="rect26" />&#10;         <path
   fill="#ffffff"
   stroke="none"
   d="m 14779,14369 c 0,0 0,1629 0,2124 -274,0 -602,0 -602,0 v 654 h 1257 v -2778 z"
   id="path26" />&#10;        </g>&#10;       </g>&#10;       <g
   class="com.sun.star.drawing.ClosedBezierShape"
   id="g28">&#10;        <g
   id="id17">&#10;         <rect
   class="BoundingBox"
   stroke="none"
   fill="none"
   x="5464"
   y="8799"
   width="1258"
   height="2779"
   id="rect27" />&#10;         <path
   fill="#ffffff"
   stroke="none"
   d="m 5792,8799 h -328 v 2778 h 655 c 0,0 0,-1629 0,-2116 274,0 602,0 602,0 v -662 z"
   id="path27" />&#10;        </g>&#10;       </g>&#10;      </g>&#10;     </g>&#10;    </g>&#10;   </g>&#10;  </g>&#10; </g>&#10;</svg>
