<?xml version="1.0" encoding="UTF-8" standalone="no"?>
<svg
   version="1.2"
   width="150.00999mm"
   height="149.95999mm"
   viewBox="0 0 15001 14995.999"
   preserveAspectRatio="xMidYMid"
   fill-rule="evenodd"
   stroke-width="28.222"
   stroke-linejoin="round"
   xml:space="preserve"
   id="svg26"
   sodipodi:docname="FR_ID15a48.svg"
   inkscape:version="1.2.2 (b0a8486541, 2022-12-01)"
   xmlns:inkscape="http://www.inkscape.org/namespaces/inkscape"
   xmlns:sodipodi="http://sodipodi.sourceforge.net/DTD/sodipodi-0.dtd"
   xmlns="http://www.w3.org/2000/svg"
   xmlns:svg="http://www.w3.org/2000/svg"
   xmlns:ooo="http://xml.openoffice.org/svg/export"><sodipodi:namedview
   id="namedview26"
   pagecolor="#ffffff"
   bordercolor="#000000"
   borderopacity="0.25"
   inkscape:showpageshadow="2"
   inkscape:pageopacity="0.0"
   inkscape:pagecheckerboard="true"
   inkscape:deskcolor="#d1d1d1"
   inkscape:document-units="mm"
   fit-margin-top="50"
   fit-margin-left="50"
   fit-margin-right="50"
   fit-margin-bottom="50"
   showgrid="false"
   inkscape:zoom="1.71094"
   inkscape:cx="308.01781"
   inkscape:cy="255.41515"
   inkscape:window-width="1280"
   inkscape:window-height="731"
   inkscape:window-x="0"
   inkscape:window-y="0"
   inkscape:window-maximized="1"
   inkscape:current-layer="g23"
   showguides="true"><sodipodi:guide
     position="0,14996"
     orientation="0,566.96691"
     id="guide769"
     inkscape:locked="false" /><sodipodi:guide
     position="15001,14996"
     orientation="566.77792,0"
     id="guide771"
     inkscape:locked="false" /><sodipodi:guide
     position="15001,0"
     orientation="0,-566.96691"
     id="guide773"
     inkscape:locked="false" /><sodipodi:guide
     position="0,0"
     orientation="-566.77792,0"
     id="guide775"
     inkscape:locked="false" /><sodipodi:guide
     position="0,14996"
     orientation="0,566.96691"
     id="guide777"
     inkscape:locked="false" /><sodipodi:guide
     position="15001,14996"
     orientation="566.77792,0"
     id="guide779"
     inkscape:locked="false" /><sodipodi:guide
     position="15001,0"
     orientation="0,-566.96691"
     id="guide781"
     inkscape:locked="false" /><sodipodi:guide
     position="0,0"
     orientation="-566.77792,0"
     id="guide783"
     inkscape:locked="false" /><sodipodi:guide
     position="7500.5002,10053.317"
     orientation="-1,0"
     id="guide1339"
     inkscape:locked="false"
     inkscape:label=""
     inkscape:color="rgb(0,134,229)" /></sodipodi:namedview>
 <defs
   class="ClipPathGroup"
   id="defs2">
  <clipPath
   id="presentation_clip_path"
   clipPathUnits="userSpaceOnUse">
   <rect
   x="0"
   y="0"
   width="21001"
   height="29703"
   id="rect1" />
  </clipPath>
  <clipPath
   id="presentation_clip_path_shrink"
   clipPathUnits="userSpaceOnUse">
   <rect
   x="21"
   y="29"
   width="20959"
   height="29644"
   id="rect2" />
  </clipPath>
 </defs>
 <defs
   class="TextShapeIndex"
   id="defs3">
  <g
   ooo:slide="id1"
   ooo:id-list="id3 id4 id5 id6 id7 id8 id9 id10 id11"
   id="g2" />
 </defs>
 <defs
   class="EmbeddedBulletChars"
   id="defs12">
  <g
   id="bullet-char-template-57356"
   transform="matrix(4.8828125e-4,0,0,-4.8828125e-4,0,0)">
   <path
   d="M 580,1141 1163,571 580,0 -4,571 Z"
   id="path3" />
  </g>
  <g
   id="bullet-char-template-57354"
   transform="matrix(4.8828125e-4,0,0,-4.8828125e-4,0,0)">
   <path
   d="M 8,1128 H 1137 V 0 H 8 Z"
   id="path4" />
  </g>
  <g
   id="bullet-char-template-10146"
   transform="matrix(4.8828125e-4,0,0,-4.8828125e-4,0,0)">
   <path
   d="M 174,0 602,739 174,1481 1456,739 Z M 1358,739 309,1346 659,739 Z"
   id="path5" />
  </g>
  <g
   id="bullet-char-template-10132"
   transform="matrix(4.8828125e-4,0,0,-4.8828125e-4,0,0)">
   <path
   d="M 2015,739 1276,0 H 717 l 543,543 H 174 v 393 h 1086 l -543,545 h 557 z"
   id="path6" />
  </g>
  <g
   id="bullet-char-template-10007"
   transform="matrix(4.8828125e-4,0,0,-4.8828125e-4,0,0)">
   <path
   d="m 0,-2 c -7,16 -16,29 -25,39 l 381,530 c -94,256 -141,385 -141,387 0,25 13,38 40,38 9,0 21,-2 34,-5 21,4 42,12 65,25 l 27,-13 111,-251 280,301 64,-25 24,25 c 21,-10 41,-24 62,-43 C 886,937 835,863 770,784 769,783 710,716 594,584 L 774,223 c 0,-27 -21,-55 -63,-84 l 16,-20 C 717,90 699,76 672,76 641,76 570,178 457,381 L 164,-76 c -22,-34 -53,-51 -92,-51 -42,0 -63,17 -64,51 -7,9 -10,24 -10,44 0,9 1,19 2,30 z"
   id="path7" />
  </g>
  <g
   id="bullet-char-template-10004"
   transform="matrix(4.8828125e-4,0,0,-4.8828125e-4,0,0)">
   <path
   d="M 285,-33 C 182,-33 111,30 74,156 52,228 41,333 41,471 c 0,78 14,145 41,201 34,71 87,106 158,106 53,0 88,-31 106,-94 l 23,-176 c 8,-64 28,-97 59,-98 l 735,706 c 11,11 33,17 66,17 42,0 63,-15 63,-46 V 965 c 0,-36 -10,-64 -30,-84 L 442,47 C 390,-6 338,-33 285,-33 Z"
   id="path8" />
  </g>
  <g
   id="bullet-char-template-9679"
   transform="matrix(4.8828125e-4,0,0,-4.8828125e-4,0,0)">
   <path
   d="M 813,0 C 632,0 489,54 383,161 276,268 223,411 223,592 c 0,181 53,324 160,431 106,107 249,161 430,161 179,0 323,-54 432,-161 108,-107 162,-251 162,-431 0,-180 -54,-324 -162,-431 C 1136,54 992,0 813,0 Z"
   id="path9" />
  </g>
  <g
   id="bullet-char-template-8226"
   transform="matrix(4.8828125e-4,0,0,-4.8828125e-4,0,0)">
   <path
   d="m 346,457 c -73,0 -137,26 -191,78 -54,51 -81,114 -81,188 0,73 27,136 81,188 54,52 118,78 191,78 73,0 134,-26 185,-79 51,-51 77,-114 77,-187 0,-75 -25,-137 -76,-188 -50,-52 -112,-78 -186,-78 z"
   id="path10" />
  </g>
  <g
   id="bullet-char-template-8211"
   transform="matrix(4.8828125e-4,0,0,-4.8828125e-4,0,0)">
   <path
   d="M -4,459 H 1135 V 606 H -4 Z"
   id="path11" />
  </g>
  <g
   id="bullet-char-template-61548"
   transform="matrix(4.8828125e-4,0,0,-4.8828125e-4,0,0)">
   <path
   d="m 173,740 c 0,163 58,303 173,419 116,115 255,173 419,173 163,0 302,-58 418,-173 116,-116 174,-256 174,-419 0,-163 -58,-303 -174,-418 C 1067,206 928,148 765,148 601,148 462,206 346,322 231,437 173,577 173,740 Z"
   id="path12" />
  </g>
 </defs>
 <g
   id="g12"
   transform="translate(-2652,-5770)">
  <g
   id="id2"
   class="Master_Slide">
   <g
   id="bg-id2"
   class="Background" />
   <g
   id="bo-id2"
   class="BackgroundObjects" />
  </g>
 </g>
 <g
   class="SlideGroup"
   id="g26"
   transform="translate(-2652,-5770)">
  <g
   id="g25">
   <g
   id="container-id1">
    <g
   id="id1"
   class="Slide"
   clip-path="url(#presentation_clip_path)">
     <g
   class="Page"
   id="g24">
      <g
   class="Group"
   id="g23">
       <g
   class="com.sun.star.drawing.PolyPolygonShape"
   id="g13">
        <g
   id="id3">
         <rect
   class="BoundingBox"
   stroke="none"
   fill="none"
   x="2652"
   y="5770"
   width="15001"
   height="14996"
   id="rect12" />
         <path
   fill="#fefefe"
   stroke="none"
   d="M 2653,5770 V 20765 H 17652 V 5770 Z"
   id="path13" />
        </g>
       </g>
       <g
   class="Group"
   id="g18"
   style="display:none">
        <g
   class="com.sun.star.drawing.LineShape"
   id="g14">
         <g
   id="id4">
          <rect
   class="BoundingBox"
   stroke="none"
   fill="none"
   x="2628"
   y="5771"
   width="53"
   height="14994"
   id="rect13" />
          <path
   fill="none"
   stroke="#1b1918"
   stroke-width="51"
   stroke-linejoin="miter"
   d="M 2654,20764 V 5771"
   id="path14" />
         </g>
        </g>
        <g
   class="com.sun.star.drawing.LineShape"
   id="g15">
         <g
   id="id5">
          <rect
   class="BoundingBox"
   stroke="none"
   fill="none"
   x="2654"
   y="20739"
   width="14997"
   height="53"
   id="rect14" />
          <path
   fill="none"
   stroke="#1b1918"
   stroke-width="51"
   stroke-linejoin="miter"
   d="M 17650,20765 H 2654"
   id="path15" />
         </g>
        </g>
        <g
   class="com.sun.star.drawing.LineShape"
   id="g16">
         <g
   id="id6">
          <rect
   class="BoundingBox"
   stroke="none"
   fill="none"
   x="17624"
   y="5771"
   width="53"
   height="14994"
   id="rect15" />
          <path
   fill="none"
   stroke="#1b1918"
   stroke-width="51"
   stroke-linejoin="miter"
   d="M 17650,5771 V 20764"
   id="path16" />
         </g>
        </g>
        <g
   class="com.sun.star.drawing.LineShape"
   id="g17">
         <g
   id="id7">
          <rect
   class="BoundingBox"
   stroke="none"
   fill="none"
   x="2654"
   y="5745"
   width="14997"
   height="53"
   id="rect16" />
          <path
   fill="none"
   stroke="#1b1918"
   stroke-width="51"
   stroke-linejoin="miter"
   d="M 2654,5771 H 17650"
   id="path17" />
         </g>
        </g>
       </g>
       <g
   class="com.sun.star.drawing.ClosedBezierShape"
   id="g19">
        <g
   id="id8">
         <rect
   class="BoundingBox"
   stroke="none"
   fill="none"
   x="11747"
   y="6271"
   width="5405"
   height="13995"
   id="rect18" />
         <path
   fill="#826500"
   stroke="none"
   d="m 11747,20265 5404,-2 V 6271 l -5404,2 c 449,279 807,536 1198,993 l 3208,3 v 11996 h -3208 c -322,398 -762,724 -1198,1000 z"
   id="path18" />
        </g>
       </g>
       <g
   class="com.sun.star.drawing.ClosedBezierShape"
   id="g20">
        <g
   id="id9">
         <rect
   class="BoundingBox"
   stroke="none"
   fill="none"
   x="3155"
   y="6270"
   width="5394"
   height="13996"
   id="rect19" />
         <path
   fill="#826500"
   stroke="none"
   d="m 8548,20265 -5393,-2 V 6271 l 5393,2 c -427,252 -843,561 -1199,993 l -3196,3 v 11996 h 3196 c 320,403 775,726 1199,1000 z"
   id="path19" />
        </g>
       </g>
       <g
   class="com.sun.star.drawing.ClosedBezierShape"
   id="g21">
        <g
   id="id10">
         <rect
   class="BoundingBox"
   stroke="none"
   fill="none"
   x="5889"
   y="6263"
   width="8526"
   height="14007"
   id="rect20" />
         <path
   fill="#826500"
   stroke="none"
   d="m 10151,20265 c 2350,0 4259,-3136 4259,-7001 0,-3868 -1909,-6997 -4259,-6997 -2350,0 -4258,3129 -4258,6997 0,3865 1908,7001 4258,7001 z"
   id="path20" />
         <path
   fill="none"
   stroke="#a65b45"
   stroke-width="8"
   stroke-linejoin="miter"
   d="m 10151,20265 c 2350,0 4259,-3136 4259,-7001 0,-3868 -1909,-6997 -4259,-6997 -2350,0 -4258,3129 -4258,6997 0,3865 1908,7001 4258,7001 z"
   id="path21" />
        </g>
       </g>
       <g
   class="com.sun.star.drawing.ClosedBezierShape"
   id="g22">
        <g
   id="id11">
         <rect
   class="BoundingBox"
   stroke="none"
   fill="none"
   x="8001"
   y="7216"
   width="2433"
   height="2145"
   id="rect21" />
         <path
   fill="#ffffff"
   stroke="none"
   d="m 9444,7244 c 48,5 93,11 140,22 9,6 17,11 26,20 3,42 -270,554 -292,618 5,-3 17,17 31,9 45,-59 64,-65 73,-68 39,-39 146,-105 146,-105 31,-22 182,-126 233,-154 34,-6 51,-28 82,-34 20,-5 45,-5 59,12 17,22 45,42 48,75 19,54 47,99 59,156 14,5 -3,17 0,25 -17,14 -37,22 -51,39 -6,-3 -8,6 -14,9 -14,2 -22,22 -39,22 -82,67 -164,118 -248,183 v 2 c 206,37 396,107 582,191 31,11 61,25 90,42 h 5 c 23,20 59,17 59,51 -3,14 -3,22 -14,31 -28,36 -31,87 -62,123 -17,14 -36,28 -59,28 -16,9 -30,3 -50,11 -6,-8 -17,-16 -31,-11 -31,14 -73,26 -107,11 -64,-33 -129,-70 -193,-95 -142,-50 -282,-87 -436,-95 l -99,2 c -8,3 -8,12 -8,20 11,20 31,28 48,42 70,82 160,171 241,239 81,76 164,140 237,214 53,42 28,112 45,166 0,14 0,28 -11,33 -9,0 -15,6 -17,12 -31,8 -51,28 -73,42 -12,11 -14,19 -24,28 v 5 c -17,28 -45,40 -76,42 -8,3 -16,6 -22,9 -17,-6 -22,20 -34,8 -53,-59 -120,-98 -171,-160 -31,-19 -53,-47 -84,-67 -87,-87 -152,-168 -241,-254 -3,9 -3,12 0,23 -9,68 11,136 16,197 14,73 26,146 40,222 14,48 19,93 14,149 -3,5 0,17 -12,19 -28,14 -56,0 -84,-5 -5,-11 -19,-9 -28,-14 -17,3 -36,-3 -50,3 -9,-3 -14,8 -23,2 -3,9 -5,-2 -11,0 -20,-2 -39,-5 -59,-8 -20,-8 -42,-8 -62,-17 -5,-11 -5,-25 -11,-39 -28,-132 -56,-275 -59,-410 -8,-25 0,-51 -5,-74 -87,88 -163,186 -225,293 -22,17 -32,65 -68,48 -3,0 -6,-6 -9,-3 -5,-3 -8,-11 -8,-17 -9,-14 -20,-17 -28,-25 -37,-3 -70,-17 -104,-25 -20,-9 -23,-31 -37,-40 -5,-25 -42,-25 -42,-48 -5,-11 -5,-16 0,-25 14,-11 17,-31 28,-45 71,-99 141,-192 216,-279 63,-81 147,-162 204,-249 14,-20 -17,-20 -20,-34 -23,-8 -51,0 -70,-8 -56,0 -102,-12 -156,-3 -36,-9 -81,31 -106,-14 -3,-6 -6,-14 -14,-14 -12,8 -28,8 -34,19 -14,3 -36,0 -53,3 -65,11 -135,17 -197,25 -19,3 -42,12 -59,6 -22,-14 -19,-39 -22,-62 -20,-8 -25,-28 -37,-42 -5,-31 -11,-56 -16,-84 2,-3 5,-11 11,-11 3,0 8,0 11,-6 l -6,-14 c 14,-17 34,-17 51,-31 48,-19 104,-19 157,-33 109,-20 230,-17 348,-20 6,-6 -6,-11 -3,-17 -25,-34 -45,-70 -64,-109 -34,-54 -79,-101 -110,-158 -14,-14 -19,-29 -33,-37 -9,-11 -14,-28 -23,-42 -3,-23 -22,-62 6,-76 61,-56 120,-115 193,-154 -2,-14 14,-6 20,-14 3,8 11,2 17,2 28,6 40,37 51,57 12,16 6,50 31,59 59,36 65,109 110,160 39,76 104,132 154,200 9,3 11,14 20,17 0,8 11,5 11,14 14,-45 31,-96 48,-143 25,-80 42,-161 70,-240 3,-34 22,-62 28,-95 17,-31 22,-68 39,-102 0,-19 20,-33 20,-53 0,-3 42,-70 42,-76 14,-11 25,-30 45,-30 67,5 132,28 199,28 z"
   id="path22" />
        </g>
       </g>
      <g
   id="g27"
   transform="matrix(28.232942,0,0,28.167532,1743.5601,6047.8793)"><path
     d="m 281.73542,357.21403 c -5.43753,2.09267 -13.46073,-3.44895 -23.53731,-10.86015 -1.44506,-1.06505 -2.24361,-1.83451 -3.9165,-2.67847 -3.57437,-1.79718 -7.68105,-2.42015 -14.94375,-3.37546 -10.03852,-1.28329 -24.67808,-3.37545 -30.99012,-3.92583 -6.23611,-0.58579 -9.77238,2.01816 -9.77238,2.01816 0,0 -10.68498,0.47663 -11.82565,2.42016 -1.14072,1.94359 13.2706,3.26527 13.2706,3.26527 0,0 -18.36595,-0.21325 -17.87163,3.00856 0.45663,3.26528 17.49143,3.19205 17.49143,3.19205 0,0 -18.86028,1.65067 -16.23657,3.88901 2.62357,2.27374 16.69279,1.2487 16.69279,1.2487 0,0 -14.94372,2.89839 -11.63554,3.999 3.27017,1.13688 11.4835,-0.0253 11.4835,-0.0253 0,0 -4.37285,2.56924 -2.88993,3.37545 1.52095,0.80673 8.32742,-0.69754 8.32742,-0.69754 0,0 -1.71107,2.93538 3.6504,3.88934 5.39951,0.95314 17.60539,5.98036 21.86415,8.4751 5.70375,3.30227 7.71901,4.91653 10.761,6.56748 0.91223,0.51408 8.06128,3.66918 8.06128,3.66918 13.84096,2.49473 16.80692,3.85227 16.73089,4.62282 -0.0387,0.36746 -0.79828,0.80671 -2.3195,1.688 -0.64625,0.33003 -0.87499,0.40492 -2.85186,1.39513 -1.63519,0.76946 -1.55901,0.7348 -2.77583,1.28328 -1.673,0.80671 -1.71107,0.76946 -2.47154,1.17412 -0.34164,0.15987 -1.407,0.69757 -2.73782,1.46703 -0.41855,0.21324 -1.33083,0.76947 -3.00389,1.909 -4.10665,2.71515 -4.18275,3.22879 -4.10665,3.48568 0.11318,0.47665 1.02647,0.80673 1.52097,0.88132 0.38047,0.0253 0.72238,0 1.21685,-0.10664 1.17879,-0.26656 1.55903,-0.51408 1.63491,-0.36746 0.22906,0.26655 -1.33084,1.79717 -1.33084,1.79717 0,0 -1.36891,1.83443 -1.71107,2.38558 -0.0387,0.43918 0.0387,0.95312 0.38048,1.21143 0.68431,0.51407 1.90117,-0.18659 2.16746,0.1866 0.19039,0.2932 -0.0388,0.84404 -0.11317,1.57884 0.0772,0.13333 0.26763,0.69756 0.79827,1.06497 0.91224,0.62324 2.05323,0.21325 2.16746,0.1866 -0.57031,0.84396 -0.60839,1.83442 -0.11317,2.38555 0.68431,0.73483 2.12937,0.36749 2.31948,0.33003 1.02677,-0.29257 1.48288,-0.9532 1.71107,-0.76945 0.30381,0.18658 -0.22906,0.95313 -0.1904,2.23909 0.0387,0.4049 0.0772,1.75991 0.76019,2.09273 0.64626,0.26592 1.17879,-0.55089 1.86311,-0.26592 0.68432,0.26592 0.41855,1.21137 1.02648,1.50426 0.79828,0.40492 1.67325,-0.91854 3.15607,-0.6603 0.64624,0.0799 0.64624,0.33002 1.25496,0.40492 1.10262,0.0253 1.33082,-0.73488 2.28141,-0.73488 1.1029,0 1.33084,1.02772 2.39566,0.95321 0.79826,-0.0253 0.83608,-0.6603 1.74913,-0.76947 1.14072,-0.15986 1.67299,0.88123 2.39567,0.62324 0.72238,-0.29259 0.45668,-1.28329 1.17879,-1.57886 0.79828,-0.33002 1.55901,0.7349 2.50961,0.40493 0.41857,-0.10663 0.72238,-0.4392 1.02647,-0.95314 1.25494,-2.05543 1.33082,-5.28345 1.3689,-5.98043 0.0772,-2.16459 0.49447,-4.32941 0.68432,-6.45726 0.26763,-2.93536 0.57031,-5.32011 0.7602,-6.89795 11.3694,4.99004 21.52191,7.63144 29.08888,9.13597 3.00392,0.62325 16.92099,0.5858 27.30178,2.53205 9.0498,1.6507 9.43012,-0.76945 9.43012,-0.76945 0,0 2.50962,5.79693 5.17134,5.39328 2.69975,-0.40491 -1.48285,-6.56748 -1.48285,-6.56748 0,0 6.31212,8.07183 8.70764,6.75096 2.43346,-1.32059 -5.0192,-9.75927 -5.0192,-9.75927 0,0 12.24393,11.77712 13.76492,9.68605 1.52095,-2.05542 -9.31604,-12.58467 -9.31604,-12.58467 0,0 13.19456,10.19966 13.95501,7.99833 0.79827,-2.23915 -9.54422,-10.89665 -9.54422,-10.89665 0,0 10.11466,7.22779 11.02725,4.32941 0.91196,-2.93538 -11.48347,-9.02573 -11.48347,-9.02573 0,0 5.09533,1.9436 5.96985,0.0254 0.87415,-1.90894 -14.75355,-7.63138 -18.93629,-10.63993 -4.14467,-3.00862 -8.32744,-6.45757 -18.82228,-10.38333 -10.53285,-3.88909 -23.95548,-4.65958 -31.48444,-7.59469 0,0 -0.41856,-3.8526 0.3805,-6.97108 0.83607,-3.08179 1.44506,-6.38407 1.44506,-6.38407 0,0 1.78722,-2.45749 1.29274,-2.97181 -0.49446,-0.47663 -4.29675,1.24863 -4.29675,1.24863 -1.44507,0.51409 -3.61238,1.28336 -6.122,2.45748 -1.5971,0.73481 -2.88994,1.50429 -5.43751,2.97214 -4.67704,2.64115 -4.29682,2.60383 -4.90521,2.86155"
     fill="#ffffff"
     id="path1068"
     style="fill:#ffffff;stroke-width:6.34663" /><path
     id="path1058"
     d="m 287.31239,151.13544 c -0.0409,0.0253 -0.0424,0.13382 -0.0833,0.4398 -0.0408,0.1866 -0.039,0.0806 -0.0797,0.1866 0,0.10664 -6.7e-4,0.16054 -0.0415,0.18724 -0.0409,0 -0.11886,-9e-4 -0.15954,-0.0254 -0.11971,-0.0254 -0.24413,-0.0254 -0.36429,-0.0787 -0.11975,-0.0253 -0.24224,-0.078 -0.40243,-0.10479 0.0409,0.26656 0.0834,0.51218 0.1215,0.76743 0.0409,0.16003 0.0799,0.26847 0.11796,0.40684 -0.40249,0.47661 -0.80485,0.95191 -1.20738,1.39383 l -4.90592,0.0253 c 0,0 -1.28953,-1.17532 -1.6515,-1.13808 -0.32138,0.0254 -3.6985,-0.36746 -3.6985,-0.36746 l -4.30569,2.16464 -0.96453,0.0787 c 0,0 -2.09198,1.43187 -2.7756,2.20394 l -0.28107,3.77825 -0.15951,31.15066 c 0,0 -2.97761,5.61397 -3.0983,6.05436 -0.0816,0.43918 -1.72848,5.42838 -1.44677,5.79524 0,0 -2.33196,1.61267 -1.64804,3.19119 0,0 -0.92636,1.06612 -0.92636,1.32171 0,0.26655 0.24286,0.4398 0.24286,0.4398 l -1.36702,2.2007 c 0,0 -2.33284,2.01918 -4.54507,1.68903 -0.52308,0.29257 -1.0486,0.58961 -1.5717,0.88224 -0.28017,0.0799 -0.7219,0.21325 -1.12413,0.62324 -0.36246,0.36747 -0.48527,0.80645 -0.56551,1.10204 -0.48312,2.12725 0.20471,7.00547 0.20471,7.00547 0,0 -0.44425,0.47853 -1.12757,0.29511 -0.68393,-0.18659 -4.42366,3.55843 -4.42366,3.55843 0,0 -8.8525,7.15289 -9.49609,14.82102 -0.28017,-0.10663 -0.64205,-0.2126 -1.04432,-0.29194 -0.56332,-0.10664 -1.04667,-0.1053 -1.40864,-0.0787 -0.80418,-0.55091 -1.68888,-1.10185 -2.65417,-1.65299 -1.32761,-0.73487 -2.61517,-1.35564 -3.7818,-1.86946 -0.76421,-0.0254 -1.52674,-0.1073 -2.33152,-0.1866 -1.12617,-0.15986 -2.21401,-0.29131 -3.21972,-0.47535 -0.0409,-0.0799 -1.2471,-0.92077 -2.57439,-0.47918 -0.7642,0.29258 -1.16634,0.84608 -1.28718,1.02981 -1.16646,0.0799 -2.57301,0.0254 -4.22242,-0.21324 -1.89066,-0.26656 -3.45834,-0.7715 -4.62485,-1.21348 0,0 -1.45111,-0.84194 -3.06014,-0.76744 0,0 -2.33102,-1.02999 -6.47414,0.69527 0,0 -4.34466,0.40682 -8.52809,0.082 -0.72394,0.95314 -1.53039,1.61237 -2.13375,2.01702 -1.68952,1.21145 -3.13671,1.50301 -3.53892,1.57751 -0.24233,0.0799 -0.36384,0.082 -0.44414,0.082 -0.64359,-0.0799 -2.0911,-1.72724 -2.65418,-1.58082 0,0 -2.21008,-1.832 -2.21008,-2.23673 0,-0.40492 -3.09731,-1.83646 -3.8616,-2.57127 -1.7298,0 -4.34552,-0.0254 -7.56356,-0.10479 -3.74093,-0.15985 -5.06945,-0.10848 -5.8739,-0.082 0,0 -0.321,8.8e-4 -0.6835,0.0254 -0.84448,0.0799 -1.52904,0.13266 -2.09211,0.29195 -2.49374,0.51407 -4.66653,1.138 -4.66653,1.138 -0.96504,0.29323 -1.20572,0.40492 -2.05048,0.62324 -0.96474,0.26595 -1.80873,0.36621 -2.33152,0.40364 0.0423,0.0134 0.23452,0.0635 0.29494,0.082 -0.84659,-0.18342 -1.69045,-0.37319 -2.5397,-0.55408 -5.5e-4,-3e-4 -0.008,-0.006 -0.0142,-0.0134 0.003,-0.019 0.011,-0.019 0.0142,-0.0381 l -0.31574,-0.0507 -0.0903,-0.0134 -0.48576,-0.0881 c -0.0243,0.12946 -0.15295,0.35351 -0.21163,0.65923 l 0.27755,0.0507 c 0.0216,0.0381 0.0524,0.0876 0.0524,0.0881 1.9e-4,2.5e-4 0.0375,0.0317 0.0523,0.0507 l -0.0142,0.0134 0.15614,0.0755 0.0557,0.0381 0.0623,0.0134 c 4.13591,0.87971 8.22941,1.79837 12.36887,2.71559 0,0 20.30808,5.31002 40.64896,15.51959 13.7034,6.90354 50.77491,33.93103 89.23618,79.56906 l 0.72166,-0.53438 c -14.96264,-17.75444 -29.69266,-32.67797 -42.93883,-44.72207 4.27855,-3.20886 7.77217,-3.89607 10.23856,-3.93245 2.45372,0 3.09701,0.66139 6.0335,0.69864 2.49401,0.0253 3.49807,-0.43983 10.25591,-2.42371 8.08534,-2.34832 9.93693,-2.78866 12.91357,-3.70612 3.25818,-1.02771 3.62021,-1.21151 6.43598,-1.79723 9.21156,-1.9436 16.53036,-2.12638 30.04608,-2.45653 12.63073,-0.33002 14.84319,0.36747 21.1988,-0.9183 8.0048,-1.65067 14.1612,-4.51486 18.1838,-6.75293 10.05626,-9.13571 18.90523,-11.04154 23.85297,-11.51836 2.7754,-0.26657 8.52869,0.62323 20.03303,2.3483 12.02739,1.79692 18.06184,2.67777 22.20497,3.96188 0,0 9.08875,3.81497 15.4845,3.96188 h 0.16307 c 3.13752,0.0254 3.77845,-0.18658 3.97955,-0.36745 0.11974,-2.42284 0.20197,-4.84298 0.24284,-7.26454 v -0.14408 -0.019 c 7.5e-4,-0.58134 0.0415,-1.20052 0.0415,-1.78092 v -1.83334 c -0.52309,-0.84405 -2.77424,-0.51472 -5.71085,-0.51472 l -0.003,0.003 c -1.76979,0 -3.5385,-0.40301 -5.30838,-0.32813 -8.68866,0.36749 -26.75003,-5.83456 -26.75003,-5.83456 -25.22129,-8.62208 -70.19354,-0.65879 -100.84522,-7.15309 -4.4248,-0.95314 -18.18008,-3.89054 -36.40225,-3.04683 -7.11982,0.33002 -12.87197,1.39385 -12.87197,1.39385 -8.48743,1.21143 -17.90188,3.15769 -25.50447,3.59783 -1.44812,0.10662 -1.8519,0.0799 -4.30568,0.21325 -4.38453,0.26593 -5.78986,0.51217 -8.24357,0.13132 -0.88448,-0.13333 -1.72993,-0.29003 -2.5744,-0.51154 -1.76981,-0.44171 -2.73534,-0.84524 -4.26404,-1.13806 -5.10857,-0.9159 -6.35574,1.94243 -11.98723,1.02657 -2.05148,-0.33004 -1.6099,-0.69662 -4.58669,-1.28242 -1.72955,-0.36746 -4.94603,-0.99166 -8.76751,-0.58706 -1.20672,0.13334 -1.36754,0.26846 -2.37313,0.29512 -2.856,0.10664 -3.45948,-0.66004 -5.55125,-0.73461 -1.64926,-0.0253 -2.17454,0.69533 -4.2259,1.68573 0,0 -0.27816,0.13382 -2.61253,1.0659 0.32138,0.10664 0.68179,0.18596 0.92289,0.26593 4.90746,1.54153 8.40899,2.90079 10.25937,3.59784 0.179,0.066 0.3641,0.12813 0.5447,0.19357 -0.17838,-0.0646 -0.36785,-0.12192 -0.5447,-0.18723 -1.85035,-0.69755 -5.35191,-2.0579 -10.25937,-3.59783 -0.24232,-0.0799 -0.56144,-0.15937 -0.92289,-0.26529 -0.003,0.002 -0.006,0.002 -0.011,0.003 -0.10587,-0.0381 -0.20021,-0.0678 -0.30535,-0.10479 0.0876,0.0254 0.22665,0.057 0.30877,0.0787 2.33318,-0.9159 2.61255,-1.06592 2.61255,-1.06592 2.0515,-0.9904 2.5765,-1.72313 4.22588,-1.6858 2.0918,0.0253 2.69532,0.84322 5.55124,0.73139 1.00619,-0.0254 1.16614,-0.13518 2.37315,-0.29512 3.8215,-0.40492 7.0379,0.21451 8.7675,0.58707 2.97673,0.58579 2.57523,0.95225 4.58671,1.28239 5.63148,0.91589 6.87865,-1.94244 11.98721,-1.02656 1.5287,0.29258 2.49422,0.69877 4.26405,1.13808 0.84449,0.21325 1.68964,0.36492 2.57439,0.51153 2.45374,0.36747 3.86249,0.10915 8.24706,-0.15733 2.45374,-0.13333 2.85404,-0.10663 4.3022,-0.21324 7.60258,-0.43919 17.01702,-2.3878 25.50449,-3.59784 0,0 5.7521,-1.06383 12.87193,-1.39391 18.18193,-0.84403 31.97885,2.1258 36.4439,3.04359 30.61144,6.49425 75.58229,-1.46525 100.80359,7.15633 0,0 18.06133,6.16478 26.75004,5.83465 1.7698,-0.0799 3.54197,0.32811 5.31186,0.32811 2.93647,0 5.18791,-0.3294 5.71082,0.5147 v -2.05636 c -0.44279,0.4049 -1.16602,0.95537 -2.17192,1.02986 -2.13177,0.13333 -3.09938,-2.24003 -5.11061,-2.05636 l 0.006,0.0445 c -1.81008,0.1866 -2.57442,2.09254 -3.66034,1.72514 -0.7642,-0.29257 -0.60083,-1.39289 -1.80763,-1.86946 -0.44277,-0.15986 -2.89875,-0.21451 -7.40396,-2.49587 h -3.01502 c 0,0 -7.68587,-4.25484 -8.00767,-4.18161 -0.28017,0.0799 -0.84139,-1.79939 -0.60023,-5.17535 l -3.34114,-7.48432 c 0,0 -4.18154,-3.96233 -4.30223,-5.50335 -0.0816,-1.54154 -1.00614,-11.22642 -1.00614,-11.22642 0,0 -0.52242,-1.90514 -4.14262,-2.38436 l -20.39387,-0.40683 c 0,0 -1.80951,0.44046 -5.42981,-2.56803 0,0 -1.61214,-0.18787 -2.37663,0.0787 -0.80419,0.26655 -3.7778,1.79704 -4.05934,1.72514 -0.28025,-0.0799 -1.85329,0.40618 -2.85889,-1.46603 v -3.56179 l -0.28103,-0.84288 v -17.3923 c -0.0816,-0.0799 -0.68443,-0.5509 -1.40864,-0.4392 -0.52308,0.0799 -0.88591,0.40682 -1.1276,0.66247 -0.8042,0.84397 -0.92289,1.87175 -0.92289,2.34831 0,0 -2.61624,-0.51407 -4.50692,-0.62325 -1.12647,-0.26592 -2.29114,-0.55278 -3.41748,-0.84611 -1.247,0.0799 -2.49532,0.15986 -3.70197,0.21325 -1.48843,0.36746 -3.13606,0.73334 -4.90593,0.95433 -4.06275,0.5858 -7.68446,0.47663 -10.54042,0.21325 0,0 -0.80442,-0.62387 -1.89089,-0.51471 0,0 -1.93115,-1.42863 -1.89089,-1.83335 0.0409,-0.40492 -1.16699,-1.64942 -2.49459,-1.39385 0,0 -0.56235,0.36621 -0.15952,1.21017 l -0.9645,0.91506 -0.64187,-0.0253 -0.2047,-0.55089 -2.85541,-0.082 c 0,0 -1.40563,-0.62259 -2.21008,-1.46607 0,0 0.44015,-1.83416 0.27753,-1.90873 -0.16059,-0.10664 -4.94482,-0.21325 -5.06549,1.98091 0,0 -0.92679,-0.58834 -1.12762,-0.62324 -0.16057,-0.0254 -1.4086,0.18658 -1.4086,0.18658 l -0.15951,1.72516 -1.93256,1.83334 c 0,0 -2.04982,0.0812 -2.33149,-0.40365 h -3.86159 l -0.48228,-0.47854 v -28.72724 c 0,0 -0.001,-0.33128 -0.32266,-0.58706 -2.09178,-1.68802 -4.06364,-3.19185 -5.67268,-3.74215 -0.2423,-0.0799 -0.31917,-0.10479 -0.31917,-0.10479 -1.20673,-0.10663 -1.53172,-0.26848 -1.57171,-0.40683 0,-0.13332 0.2807,-0.26402 0.24285,-0.51153 0,-0.10664 -0.12026,-0.2672 -0.24285,-0.3313 -0.16059,-0.0799 -0.28138,-0.0787 -0.36081,-0.0787 -0.11973,0.0253 -0.20196,0.10478 -0.24285,0.10478 -0.0409,-0.0253 -0.0415,-0.0806 -0.0415,-0.16053 0,-0.15987 -0.15881,-0.26528 -0.36082,-0.29194 -0.16057,0 -0.32266,0.0812 -0.32266,0.10796 -0.56331,-0.21324 -1.16581,-0.47788 -1.76947,-0.77072 -1.20673,-0.5509 -2.21327,-1.17547 -3.09828,-1.76119 l -6.717,-0.18659 c -0.16059,-0.0799 -0.32219,-0.13132 -0.52389,-0.32812 -0.20141,-0.15986 -0.28139,-0.29512 -0.36081,-0.29512 z m -139.63451,83.67195 -0.0657,0.12443 v -0.10163 c 0.016,-0.005 0.0657,-0.0253 0.0657,-0.0253 z m 219.87076,15.3622 c 1.09873,0.005 2.25459,0.0254 3.47646,0.0507 4.62592,0.10662 9.0201,0.40682 14.34994,0.92164 -5.32704,-0.49948 -9.72931,-0.79015 -14.34994,-0.91834 -1.5111,-0.0381 -2.9079,-0.0507 -4.2363,-0.0507 0.26197,-1.3e-4 0.49125,-0.006 0.75984,-0.006 z m -1.60294,0.0134 c -1.02268,0.006 -2.00814,0.019 -2.94216,0.0445 0.93125,-0.0254 1.92193,-0.0381 2.94216,-0.0445 z m -3.98994,0.082 c -0.81037,0.0317 -1.59727,0.0646 -2.35582,0.10847 0.75545,-0.0445 1.54857,-0.078 2.35582,-0.10847 z m -3.40708,0.17391 c -0.73564,0.0507 -1.45489,0.10339 -2.15804,0.16371 0.70145,-0.0635 1.42416,-0.11485 2.15804,-0.16371 z m -3.17808,0.25576 c -0.74735,0.0705 -1.4882,0.14592 -2.2205,0.22657 0.73166,-0.0806 1.47416,-0.15549 2.2205,-0.22657 z m -2.77215,0.2856 c -0.87611,0.099 -1.751,0.20499 -2.63684,0.31479 0.88331,-0.10983 1.76418,-0.21579 2.63684,-0.31479 z m -145.18576,0.82976 c 12.7892,2.51796 24.42225,3.54946 26.36146,3.69296 17.13602,1.4669 15.93219,-1.06636 51.69244,-1.76124 1.47277,-0.0254 2.57748,-0.0317 3.85813,-0.0445 -1.28106,0.0134 -2.38485,0.0189 -3.85813,0.0507 -35.76019,0.69757 -34.5564,3.22886 -51.69244,1.79725 -1.93946,-0.17391 -13.57233,-1.21505 -26.36146,-3.73555 z m 129.23982,1.02326 c -3.71789,0.34716 -8.06459,0.66772 -13.49646,0.91505 -1.03262,0.0507 -1.8056,0.0678 -2.70276,0.10163 0.89746,-0.0381 1.67014,-0.057 2.70276,-0.10847 5.40718,-0.24626 9.77252,-0.56296 13.49646,-0.90847 z m 99.78007,5.00813 c 1.02534,0.44489 2.33323,0.88777 3.89975,1.14791 v 0.006 c -1.5664,-0.23356 -2.87463,-0.68721 -3.89975,-1.15446 z"
     style="fill:#ffffff;stroke-width:6.5277"
     inkscape:label="path1058" /></g></g>
     </g>
    </g>
   </g>
  </g>
 </g>
</svg>
