<?xml version="1.0" encoding="UTF-8" standalone="no"?>
<svg
   version="1.2"
   width="150.00999mm"
   height="149.95999mm"
   viewBox="0 0 15001 14995.999"
   preserveAspectRatio="xMidYMid"
   fill-rule="evenodd"
   stroke-width="28.222"
   stroke-linejoin="round"
   xml:space="preserve"
   id="svg37"
   sodipodi:docname="ID15a34.svg"
   inkscape:version="1.2.2 (b0a8486541, 2022-12-01)"
   xmlns:inkscape="http://www.inkscape.org/namespaces/inkscape"
   xmlns:sodipodi="http://sodipodi.sourceforge.net/DTD/sodipodi-0.dtd"
   xmlns="http://www.w3.org/2000/svg"
   xmlns:svg="http://www.w3.org/2000/svg"
   xmlns:ooo="http://xml.openoffice.org/svg/export"><sodipodi:namedview
   id="namedview37"
   pagecolor="#ffffff"
   bordercolor="#000000"
   borderopacity="0.25"
   inkscape:showpageshadow="2"
   inkscape:pageopacity="0.0"
   inkscape:pagecheckerboard="true"
   inkscape:deskcolor="#d1d1d1"
   inkscape:document-units="mm"
   fit-margin-top="50"
   fit-margin-left="50"
   fit-margin-right="50"
   fit-margin-bottom="50"
   showgrid="false"
   inkscape:zoom="4.5841985"
   inkscape:cx="524.51917"
   inkscape:cy="46.245816"
   inkscape:window-width="1280"
   inkscape:window-height="731"
   inkscape:window-x="0"
   inkscape:window-y="0"
   inkscape:window-maximized="1"
   inkscape:current-layer="svg37" />
 <defs
   class="ClipPathGroup"
   id="defs2">
  <clipPath
   id="presentation_clip_path"
   clipPathUnits="userSpaceOnUse">
   <rect
   x="0"
   y="0"
   width="21001"
   height="29703"
   id="rect1" />
  </clipPath>
  <clipPath
   id="presentation_clip_path_shrink"
   clipPathUnits="userSpaceOnUse">
   <rect
   x="21"
   y="29"
   width="20959"
   height="29644"
   id="rect2" />
  </clipPath>
 </defs>
 <defs
   class="TextShapeIndex"
   id="defs3">
  <g
   ooo:slide="id1"
   ooo:id-list="id3 id4 id5 id6 id7 id8 id9 id10 id11 id12 id13 id14 id15 id16 id17 id18 id19 id20 id21 id22 id23"
   id="g2" />
 </defs>
 <defs
   class="EmbeddedBulletChars"
   id="defs12">
  <g
   id="bullet-char-template-57356"
   transform="matrix(4.8828125e-4,0,0,-4.8828125e-4,0,0)">
   <path
   d="M 580,1141 1163,571 580,0 -4,571 Z"
   id="path3" />
  </g>
  <g
   id="bullet-char-template-57354"
   transform="matrix(4.8828125e-4,0,0,-4.8828125e-4,0,0)">
   <path
   d="M 8,1128 H 1137 V 0 H 8 Z"
   id="path4" />
  </g>
  <g
   id="bullet-char-template-10146"
   transform="matrix(4.8828125e-4,0,0,-4.8828125e-4,0,0)">
   <path
   d="M 174,0 602,739 174,1481 1456,739 Z M 1358,739 309,1346 659,739 Z"
   id="path5" />
  </g>
  <g
   id="bullet-char-template-10132"
   transform="matrix(4.8828125e-4,0,0,-4.8828125e-4,0,0)">
   <path
   d="M 2015,739 1276,0 H 717 l 543,543 H 174 v 393 h 1086 l -543,545 h 557 z"
   id="path6" />
  </g>
  <g
   id="bullet-char-template-10007"
   transform="matrix(4.8828125e-4,0,0,-4.8828125e-4,0,0)">
   <path
   d="m 0,-2 c -7,16 -16,29 -25,39 l 381,530 c -94,256 -141,385 -141,387 0,25 13,38 40,38 9,0 21,-2 34,-5 21,4 42,12 65,25 l 27,-13 111,-251 280,301 64,-25 24,25 c 21,-10 41,-24 62,-43 C 886,937 835,863 770,784 769,783 710,716 594,584 L 774,223 c 0,-27 -21,-55 -63,-84 l 16,-20 C 717,90 699,76 672,76 641,76 570,178 457,381 L 164,-76 c -22,-34 -53,-51 -92,-51 -42,0 -63,17 -64,51 -7,9 -10,24 -10,44 0,9 1,19 2,30 z"
   id="path7" />
  </g>
  <g
   id="bullet-char-template-10004"
   transform="matrix(4.8828125e-4,0,0,-4.8828125e-4,0,0)">
   <path
   d="M 285,-33 C 182,-33 111,30 74,156 52,228 41,333 41,471 c 0,78 14,145 41,201 34,71 87,106 158,106 53,0 88,-31 106,-94 l 23,-176 c 8,-64 28,-97 59,-98 l 735,706 c 11,11 33,17 66,17 42,0 63,-15 63,-46 V 965 c 0,-36 -10,-64 -30,-84 L 442,47 C 390,-6 338,-33 285,-33 Z"
   id="path8" />
  </g>
  <g
   id="bullet-char-template-9679"
   transform="matrix(4.8828125e-4,0,0,-4.8828125e-4,0,0)">
   <path
   d="M 813,0 C 632,0 489,54 383,161 276,268 223,411 223,592 c 0,181 53,324 160,431 106,107 249,161 430,161 179,0 323,-54 432,-161 108,-107 162,-251 162,-431 0,-180 -54,-324 -162,-431 C 1136,54 992,0 813,0 Z"
   id="path9" />
  </g>
  <g
   id="bullet-char-template-8226"
   transform="matrix(4.8828125e-4,0,0,-4.8828125e-4,0,0)">
   <path
   d="m 346,457 c -73,0 -137,26 -191,78 -54,51 -81,114 -81,188 0,73 27,136 81,188 54,52 118,78 191,78 73,0 134,-26 185,-79 51,-51 77,-114 77,-187 0,-75 -25,-137 -76,-188 -50,-52 -112,-78 -186,-78 z"
   id="path10" />
  </g>
  <g
   id="bullet-char-template-8211"
   transform="matrix(4.8828125e-4,0,0,-4.8828125e-4,0,0)">
   <path
   d="M -4,459 H 1135 V 606 H -4 Z"
   id="path11" />
  </g>
  <g
   id="bullet-char-template-61548"
   transform="matrix(4.8828125e-4,0,0,-4.8828125e-4,0,0)">
   <path
   d="m 173,740 c 0,163 58,303 173,419 116,115 255,173 419,173 163,0 302,-58 418,-173 116,-116 174,-256 174,-419 0,-163 -58,-303 -174,-418 C 1067,206 928,148 765,148 601,148 462,206 346,322 231,437 173,577 173,740 Z"
   id="path12" />
  </g>
 </defs>
 <g
   id="g12"
   transform="translate(-2652,-5770)">
  <g
   id="id2"
   class="Master_Slide">
   <g
   id="bg-id2"
   class="Background" />
   <g
   id="bo-id2"
   class="BackgroundObjects" />
  </g>
 </g>
 <g
   class="SlideGroup"
   id="g37"
   transform="translate(-2652,-5770)">
  <g
   id="g36">
   <g
   id="container-id1">
    <g
   id="id1"
   class="Slide"
   clip-path="url(#presentation_clip_path)">
     <g
   class="Page"
   id="g35">
      <g
   class="Group"
   id="g34">
       <g
   class="com.sun.star.drawing.PolyPolygonShape"
   id="g13">
        <g
   id="id3">
         <rect
   class="BoundingBox"
   stroke="none"
   fill="none"
   x="2652"
   y="5770"
   width="15001"
   height="14996"
   id="rect12" />
         <path
   fill="#fefefe"
   stroke="none"
   d="M 2653,5770 V 20765 H 17652 V 5770 Z"
   id="path13" />
        </g>
       </g>
       <g
   class="com.sun.star.drawing.LineShape"
   id="g14"
   style="display:none">
        <g
   id="id4">
         <rect
   class="BoundingBox"
   stroke="none"
   fill="none"
   x="2628"
   y="5771"
   width="53"
   height="14994"
   id="rect13" />
         <path
   fill="none"
   stroke="#1b1918"
   stroke-width="51"
   stroke-linejoin="miter"
   d="M 2654,20764 V 5771"
   id="path14" />
        </g>
       </g>
       <g
   class="com.sun.star.drawing.LineShape"
   id="g15"
   style="display:none">
        <g
   id="id5">
         <rect
   class="BoundingBox"
   stroke="none"
   fill="none"
   x="2654"
   y="20739"
   width="14997"
   height="53"
   id="rect14" />
         <path
   fill="none"
   stroke="#1b1918"
   stroke-width="51"
   stroke-linejoin="miter"
   d="M 17650,20765 H 2654"
   id="path15" />
        </g>
       </g>
       <g
   class="com.sun.star.drawing.LineShape"
   id="g16"
   style="display:none">
        <g
   id="id6">
         <rect
   class="BoundingBox"
   stroke="none"
   fill="none"
   x="17624"
   y="5771"
   width="53"
   height="14994"
   id="rect15" />
         <path
   fill="none"
   stroke="#1b1918"
   stroke-width="51"
   stroke-linejoin="miter"
   d="M 17650,5771 V 20764"
   id="path16" />
        </g>
       </g>
       <g
   class="com.sun.star.drawing.LineShape"
   id="g17"
   style="display:none">
        <g
   id="id7">
         <rect
   class="BoundingBox"
   stroke="none"
   fill="none"
   x="2654"
   y="5745"
   width="14997"
   height="53"
   id="rect16" />
         <path
   fill="none"
   stroke="#1b1918"
   stroke-width="51"
   stroke-linejoin="miter"
   d="M 2654,5771 H 17650"
   id="path17" />
        </g>
       </g>
       <g
   class="com.sun.star.drawing.ClosedBezierShape"
   id="g18">
        <g
   id="id8">
         <rect
   class="BoundingBox"
   stroke="none"
   fill="none"
   x="11747"
   y="6271"
   width="5405"
   height="13995"
   id="rect17" />
         <path
   fill="#826500"
   stroke="none"
   d="m 11747,20265 5404,-2 V 6271 l -5404,2 c 449,279 807,536 1198,993 l 3208,3 v 11996 h -3208 c -322,398 -762,724 -1198,1000 z"
   id="path18" />
        </g>
       </g>
       <g
   class="com.sun.star.drawing.ClosedBezierShape"
   id="g19">
        <g
   id="id9">
         <rect
   class="BoundingBox"
   stroke="none"
   fill="none"
   x="3155"
   y="6270"
   width="5394"
   height="13996"
   id="rect18" />
         <path
   fill="#826500"
   stroke="none"
   d="m 8548,20265 -5393,-2 V 6271 l 5393,2 c -427,252 -843,561 -1199,993 l -3196,3 v 11996 h 3196 c 320,403 775,726 1199,1000 z"
   id="path19" />
        </g>
       </g>
       <g
   class="com.sun.star.drawing.ClosedBezierShape"
   id="g20">
        <g
   id="id10">
         <rect
   class="BoundingBox"
   stroke="none"
   fill="none"
   x="6720"
   y="6269"
   width="7001"
   height="4368"
   id="rect19" />
         <path
   fill="#826500"
   stroke="none"
   d="m 6721,9130 c 774,-1734 2025,-2861 3432,-2861 1494,0 2808,1264 3567,3178 -241,475 -475,876 -1110,965 -515,-538 -261,-678 211,-688 119,-3 429,-648 117,-760 28,-165 198,-226 74,-355 -206,-120 -252,-245 -740,-135 -104,-232 -328,-232 -516,-232 -341,0 -869,339 -805,788 -97,0 -150,49 -186,138 5,447 564,495 800,393 -84,402 479,308 76,770 -271,-38 -533,-114 -784,-325 -430,-87 -651,226 -1019,625 -223,-10 -584,99 -729,-369 -195,-134 -366,-370 -776,-350 -767,180 -1295,-219 -1612,-782 z"
   id="path20" />
        </g>
       </g>
       <g
   class="com.sun.star.drawing.ClosedBezierShape"
   id="g21">
        <g
   id="id11">
         <rect
   class="BoundingBox"
   stroke="none"
   fill="none"
   x="5895"
   y="10731"
   width="8516"
   height="9537"
   id="rect20" />
         <path
   fill="#826500"
   stroke="none"
   d="m 14237,11315 c -3,-3 -4041,-262 -5698,269 -102,41 -71,-5 -33,-23 119,-58 261,-132 467,-208 -86,-96 157,-223 221,-223 147,0 376,-54 528,-11 10,-33 5,-83 33,-81 -1326,-479 -2334,-309 -3624,-74 -153,719 -236,1497 -236,2302 0,3864 1907,7001 4258,7001 2349,0 4257,-3137 4257,-7001 0,-676 -61,-1329 -173,-1951 z"
   id="path21" />
        </g>
       </g>
       <g
   class="com.sun.star.drawing.ClosedBezierShape"
   id="g22">
        <g
   id="id12">
         <rect
   class="BoundingBox"
   stroke="none"
   fill="none"
   x="8001"
   y="7216"
   width="2433"
   height="2145"
   id="rect21" />
         <path
   fill="#ffffff"
   stroke="none"
   d="m 9444,7244 c 48,5 93,11 140,22 9,6 17,11 26,20 3,42 -270,554 -292,618 5,-3 17,17 31,9 45,-59 64,-65 73,-68 39,-39 146,-105 146,-105 31,-22 182,-126 233,-154 34,-6 51,-28 82,-34 20,-5 45,-5 59,12 17,22 45,42 48,75 19,54 47,99 59,156 14,5 -3,17 0,25 -17,14 -37,22 -51,39 -6,-3 -8,6 -14,9 -14,2 -22,22 -39,22 -82,67 -164,118 -248,183 v 2 c 206,37 396,107 582,191 31,11 61,25 90,42 h 5 c 23,20 59,17 59,51 -3,14 -3,22 -14,31 -28,36 -31,87 -62,123 -17,14 -36,28 -59,28 -16,9 -30,3 -50,11 -6,-8 -17,-16 -31,-11 -31,14 -73,26 -107,11 -64,-33 -129,-70 -193,-95 -142,-50 -282,-87 -436,-95 l -99,2 c -8,3 -8,12 -8,20 11,20 31,28 48,42 70,82 160,171 241,239 81,76 164,140 237,214 53,42 28,112 45,166 0,14 0,28 -11,33 -9,0 -15,6 -17,12 -31,8 -51,28 -73,42 -12,11 -14,19 -24,28 v 5 c -17,28 -45,40 -76,42 -8,3 -16,6 -22,9 -17,-6 -22,20 -34,8 -53,-59 -120,-98 -171,-160 -31,-19 -53,-47 -84,-67 -87,-87 -152,-168 -241,-254 -3,9 -3,12 0,23 -9,68 11,136 16,197 14,73 26,146 40,222 14,48 19,93 14,149 -3,5 0,17 -12,19 -28,14 -56,0 -84,-5 -5,-11 -19,-9 -28,-14 -17,3 -36,-3 -50,3 -9,-3 -14,8 -23,2 -3,9 -5,-2 -11,0 -20,-2 -39,-5 -59,-8 -20,-8 -42,-8 -62,-17 -5,-11 -5,-25 -11,-39 -28,-132 -56,-275 -59,-410 -8,-25 0,-51 -5,-74 -87,88 -163,186 -225,293 -22,17 -32,65 -68,48 -3,0 -6,-6 -9,-3 -5,-3 -8,-11 -8,-17 -9,-14 -20,-17 -28,-25 -37,-3 -70,-17 -104,-25 -20,-9 -23,-31 -37,-40 -5,-25 -42,-25 -42,-48 -5,-11 -5,-16 0,-25 14,-11 17,-31 28,-45 71,-99 141,-192 216,-279 63,-81 147,-162 204,-249 14,-20 -17,-20 -20,-34 -23,-8 -51,0 -70,-8 -56,0 -102,-12 -156,-3 -36,-9 -81,31 -106,-14 -3,-6 -6,-14 -14,-14 -12,8 -28,8 -34,19 -14,3 -36,0 -53,3 -65,11 -135,17 -197,25 -19,3 -42,12 -59,6 -22,-14 -19,-39 -22,-62 -20,-8 -25,-28 -37,-42 -5,-31 -11,-56 -16,-84 2,-3 5,-11 11,-11 3,0 8,0 11,-6 l -6,-14 c 14,-17 34,-17 51,-31 48,-19 104,-19 157,-33 109,-20 230,-17 348,-20 6,-6 -6,-11 -3,-17 -25,-34 -45,-70 -64,-109 -34,-54 -79,-101 -110,-158 -14,-14 -19,-29 -33,-37 -9,-11 -14,-28 -23,-42 -3,-23 -22,-62 6,-76 61,-56 120,-115 193,-154 -2,-14 14,-6 20,-14 3,8 11,2 17,2 28,6 40,37 51,57 12,16 6,50 31,59 59,36 65,109 110,160 39,76 104,132 154,200 9,3 11,14 20,17 0,8 11,5 11,14 14,-45 31,-96 48,-143 25,-80 42,-161 70,-240 3,-34 22,-62 28,-95 17,-31 22,-68 39,-102 0,-19 20,-33 20,-53 0,-3 42,-70 42,-76 14,-11 25,-30 45,-30 67,5 132,28 199,28 z"
   id="path22" />
        </g>
       </g>
       <g
   class="com.sun.star.drawing.ClosedBezierShape"
   id="g23">
        <g
   id="id13">
         <rect
   class="BoundingBox"
   stroke="none"
   fill="none"
   x="11427"
   y="9177"
   width="591"
   height="369"
   id="rect22" />
         <path
   fill="#826500"
   stroke="none"
   d="m 11427,9263 c 284,67 279,-147 590,-69 -21,240 -148,108 -127,204 -69,-12 -84,44 -21,93 l -88,53 c -90,-146 -220,-189 -354,-281 z"
   id="path23" />
        </g>
       </g>
       <g
   class="com.sun.star.drawing.ClosedBezierShape"
   id="g24">
        <g
   id="id14">
         <rect
   class="BoundingBox"
   stroke="none"
   fill="none"
   x="12229"
   y="9425"
   width="321"
   height="261"
   id="rect23" />
         <path
   fill="#826500"
   stroke="none"
   d="m 12335,9426 c 33,77 138,82 214,94 -87,84 -232,195 -281,156 -101,-79 28,-181 67,-250 z"
   id="path24" />
        </g>
       </g>
       <g
   class="com.sun.star.drawing.ClosedBezierShape"
   id="g25">
        <g
   id="id15">
         <rect
   class="BoundingBox"
   stroke="none"
   fill="none"
   x="8760"
   y="18826"
   width="809"
   height="565"
   id="rect24" />
         <path
   fill="#ffffff"
   stroke="none"
   d="m 9488,18946 c -20,3 -35,3 -50,5 2,0 -18,5 -26,5 -33,0 -115,10 -168,0 -77,-15 -178,-144 -277,-127 -19,3 -57,38 -78,46 -109,51 -83,-3 -109,140 -18,115 -47,143 41,214 140,107 288,211 539,135 67,-18 207,-26 207,-92 v -38 c -18,-94 -38,-174 -38,-291 z"
   id="path25" />
        </g>
       </g>
       <g
   class="com.sun.star.drawing.ClosedBezierShape"
   id="g26">
        <g
   id="id16">
         <rect
   class="BoundingBox"
   stroke="none"
   fill="none"
   x="7437"
   y="11433"
   width="4857"
   height="7481"
   id="rect25" />
         <path
   fill="#ffffff"
   stroke="none"
   d="m 9500,18910 c -18,-87 8,-170 -5,-247 -36,-208 -91,-551 -20,-777 18,-61 76,-137 104,-185 68,-122 91,-305 89,-305 2,-112 -66,-170 -71,-274 -13,-230 61,-342 96,-497 15,-66 10,-127 26,-200 15,-79 99,-143 137,-196 12,-20 18,-58 35,-71 26,-15 36,0 54,0 0,0 -11,25 -13,33 -43,79 -102,132 -127,234 46,-16 69,-36 102,-56 127,-74 307,-89 457,-140 132,-43 208,-180 358,-201 0,0 23,-5 33,-5 33,3 33,31 38,71 -33,18 -56,23 -89,39 -20,7 -61,25 -79,38 -68,40 54,35 97,45 74,18 134,79 221,87 91,10 179,-56 237,-10 36,27 18,40 -20,55 2,0 -8,-5 -13,-5 -13,0 -48,10 -63,13 0,3 2,23 0,25 48,69 172,150 190,232 13,66 -25,104 -30,134 -11,46 -6,135 0,181 0,17 30,99 30,115 0,5 -69,132 -76,150 l -97,134 c -24,21 -67,10 -90,18 -43,13 -48,191 -38,252 -68,-6 -58,-59 -96,-64 -26,-2 -168,51 -178,74 -132,393 23,693 216,800 8,5 41,15 58,13 31,-6 174,-267 207,-308 46,-61 64,-94 173,-96 46,-171 38,-369 104,-508 104,-226 350,-328 416,-593 82,-330 -170,-457 -190,-719 -10,-160 -10,-343 23,-475 28,-107 109,-203 117,-340 0,0 -5,-16 -8,-18 0,2 8,-26 8,-28 -3,-51 -41,-99 -51,-140 -38,-127 -104,-23 -201,-33 v -12 c 0,0 21,-46 38,-64 28,-30 125,-71 137,-109 39,-94 -15,-150 0,-247 -182,-73 -477,-200 -508,-391 -10,-76 -15,-239 -45,-284 -26,-43 -138,-81 -192,-104 -129,-56 -338,-305 -378,-447 -61,-225 127,-387 99,-586 89,18 43,140 25,214 -86,321 130,582 337,687 55,28 134,38 172,83 5,5 26,33 28,38 66,94 59,234 89,366 15,71 216,234 295,247 53,10 129,0 180,-5 81,-11 140,-44 165,-112 23,-69 26,-145 59,-206 25,-43 89,-84 91,-147 5,-89 -33,-158 -51,-224 -18,-71 -20,-124 -25,-195 -3,0 -8,-36 -8,-36 0,-208 33,-377 33,-555 43,-15 41,-10 46,46 10,-18 30,-33 36,-53 83,-224 -135,-363 -89,-496 28,-76 122,41 162,59 -33,-64 -99,-180 -86,-257 7,-38 56,-81 66,-114 30,-86 53,-216 43,-317 -122,27 -196,116 -262,200 -63,-40 -96,-91 -167,-129 0,-18 0,-38 0,-59 -107,-25 -259,-35 -348,-81 20,-183 46,-285 -28,-439 -107,101 -292,167 -340,317 -23,66 -3,163 -26,236 -75,-33 -69,-150 -57,-226 -99,-18 -211,18 -299,36 -285,56 -498,137 -735,231 -81,33 -167,101 -256,140 43,15 137,53 114,134 -15,64 -279,216 -340,264 -64,51 -104,158 -173,201 l -7,5 c -18,15 -21,33 -31,51 -58,96 36,15 84,58 7,5 0,26 10,31 0,2 0,5 0,7 -122,105 -201,216 -279,369 12,12 208,97 249,171 119,-311 254,-588 492,-778 v -18 c -86,10 -84,-46 -48,-97 188,-282 467,-490 810,-617 76,-28 158,-76 254,-96 3,7 8,20 13,25 -58,84 -191,135 -282,178 -119,56 -249,152 -350,228 -97,77 -224,166 -285,282 84,3 89,3 114,64 -71,63 -132,114 -193,178 -162,170 -297,426 -398,656 -16,38 -41,112 -64,155 -41,-18 -353,-380 -842,-319 -320,40 -759,278 -734,733 -38,5 -38,-20 -45,-79 -100,145 -285,556 -321,727 -71,330 -113,797 -58,1130 31,180 135,409 178,579 46,178 46,470 15,589 -5,26 -35,75 -43,111 63,-65 117,-141 180,-202 97,-92 -7,232 64,176 12,-10 20,-31 30,-44 26,-38 71,-102 104,-132 23,-18 28,-10 51,10 13,-28 66,-79 51,-86 -99,-51 -107,-178 -94,-219 30,-96 30,-152 30,-261 0,-171 -266,-508 -228,-991 30,13 114,20 119,41 5,28 5,73 8,109 7,99 38,216 63,322 41,168 160,331 178,503 13,148 -46,244 -30,374 17,152 139,223 117,433 -31,261 -160,411 -201,680 195,-51 218,76 368,115 74,17 150,5 226,7 22,-12 52,0 70,-12 -18,-69 -5,-176 -18,-262 -20,-140 -133,-241 -133,-419 0,-92 33,-197 58,-265 13,-31 60,-97 67,-132 46,-176 -49,-232 -25,-369 15,-96 81,-183 109,-261 31,-82 54,-221 64,-310 23,-196 -94,-483 63,-584 10,83 -20,251 -5,378 13,99 56,216 46,356 -8,129 -43,287 -28,421 15,122 69,264 91,386 5,36 21,158 13,238 -20,139 -96,228 -71,398 2,26 13,99 25,135 28,79 102,152 84,267 l -5,68 c -43,323 -218,518 -264,874 53,-28 109,-89 165,-97 15,0 71,-10 71,0 v 13 c 71,31 114,89 173,117 71,33 201,56 302,46 z"
   id="path26" />
        </g>
       </g>
       <g
   class="com.sun.star.drawing.ClosedBezierShape"
   id="g27">
        <g
   id="id17">
         <rect
   class="BoundingBox"
   stroke="none"
   fill="none"
   x="8048"
   y="17847"
   width="661"
   height="413"
   id="rect26" />
         <path
   fill="#ffffff"
   stroke="none"
   d="m 8655,17955 c -66,25 -161,25 -245,18 -51,-5 -145,-28 -188,-59 -19,-10 -46,-55 -64,-63 -87,-22 -89,74 -99,129 -3,39 -20,108 -5,149 5,7 17,2 25,7 28,18 53,61 84,77 100,50 316,66 426,12 0,0 15,-10 20,-12 8,-5 10,-13 18,-21 8,-5 26,-12 33,-17 20,-21 28,-115 41,-139 0,0 2,0 5,0 10,-30 -31,-56 -51,-81 z"
   id="path27" />
        </g>
       </g>
       <g
   class="com.sun.star.drawing.ClosedBezierShape"
   id="g28">
        <g
   id="id18">
         <rect
   class="BoundingBox"
   stroke="none"
   fill="none"
   x="12047"
   y="12004"
   width="192"
   height="370"
   id="rect27" />
         <path
   fill="#826500"
   stroke="none"
   d="m 12207,12004 c -29,47 -82,88 -123,122 -45,38 -38,81 -33,149 2,32 0,65 0,98 104,-98 152,-193 187,-363 -9,-2 -23,0 -31,-6 z"
   id="path28" />
        </g>
       </g>
       <g
   class="com.sun.star.drawing.ClosedBezierShape"
   id="g29">
        <g
   id="id19">
         <rect
   class="BoundingBox"
   stroke="none"
   fill="none"
   x="11202"
   y="11548"
   width="251"
   height="555"
   id="rect28" />
         <path
   fill="#826500"
   stroke="none"
   d="m 11428,11548 c -70,51 -158,134 -199,213 -51,93 -40,402 123,330 85,-40 130,-444 76,-543 z"
   id="path29" />
        </g>
       </g>
       <g
   class="com.sun.star.drawing.ClosedBezierShape"
   id="g30">
        <g
   id="id20">
         <rect
   class="BoundingBox"
   stroke="none"
   fill="none"
   x="11523"
   y="13906"
   width="184"
   height="340"
   id="rect29" />
         <path
   fill="#826500"
   stroke="none"
   d="m 11648,13906 c -42,33 -105,110 -117,168 -8,39 -15,98 6,137 11,19 29,27 53,31 68,17 116,-58 116,-90 0,-2 0,-18 0,-20 -8,-33 -48,-79 -52,-116 -6,-63 34,-73 -6,-110 z"
   id="path30" />
        </g>
       </g>
       <g
   class="com.sun.star.drawing.ClosedBezierShape"
   id="g31">
        <g
   id="id21">
         <rect
   class="BoundingBox"
   stroke="none"
   fill="none"
   x="11171"
   y="12747"
   width="324"
   height="295"
   id="rect30" />
         <path
   fill="#826500"
   stroke="none"
   d="m 11288,12749 c -35,4 -71,13 -116,6 12,84 35,82 102,58 -19,127 39,170 143,125 23,49 29,73 70,102 21,-62 -12,-53 -24,-123 -21,-104 -42,-181 -175,-168 z"
   id="path31" />
        </g>
       </g>
       <g
   class="com.sun.star.drawing.ClosedBezierShape"
   id="g32">
        <g
   id="id22">
         <rect
   class="BoundingBox"
   stroke="none"
   fill="none"
   x="10772"
   y="15281"
   width="523"
   height="328"
   id="rect31" />
         <path
   fill="#826500"
   stroke="none"
   d="m 11261,15281 c -4,2 -50,31 -58,33 -109,37 -177,95 -278,128 -8,-38 -4,-56 -18,-89 -23,-56 -77,-68 -134,-52 10,48 30,83 37,128 8,49 -7,109 14,150 6,16 48,37 83,25 22,-9 74,-79 97,-97 81,-72 172,-140 290,-175 -4,-22 12,-52 -33,-51 z"
   id="path32" />
        </g>
       </g>
       <g
   class="com.sun.star.drawing.ClosedBezierShape"
   id="g33">
        <g
   id="id23">
         <rect
   class="BoundingBox"
   stroke="none"
   fill="none"
   x="7746"
   y="13735"
   width="1016"
   height="2193"
   id="rect32" />
         <path
   fill="#826500"
   stroke="none"
   d="m 8060,13747 c -8,3 -6,21 -12,31 -15,31 -15,83 -25,122 -24,79 -81,163 -117,232 -144,268 -224,572 -93,930 112,297 530,770 930,865 16,-43 35,-95 -15,-114 -403,-150 -941,-683 -855,-1310 29,-212 144,-384 224,-551 0,0 135,-272 -37,-205 z"
   id="path33" />
        </g>
       </g>
      </g>
     </g>
    </g>
   </g>
  </g>
 </g>
</svg>
