<?xml version="1.0" encoding="UTF-8" standalone="no"?>
<svg
   version="1.2"
   width="150.00999mm"
   height="149.95999mm"
   viewBox="0 0 15001 14995.999"
   preserveAspectRatio="xMidYMid"
   fill-rule="evenodd"
   stroke-width="28.222"
   stroke-linejoin="round"
   xml:space="preserve"
   id="svg50"
   sodipodi:docname="ID15a25.svg"
   inkscape:version="1.2.2 (b0a8486541, 2022-12-01)"
   xmlns:inkscape="http://www.inkscape.org/namespaces/inkscape"
   xmlns:sodipodi="http://sodipodi.sourceforge.net/DTD/sodipodi-0.dtd"
   xmlns="http://www.w3.org/2000/svg"
   xmlns:svg="http://www.w3.org/2000/svg"
   xmlns:ooo="http://xml.openoffice.org/svg/export"><sodipodi:namedview
   id="namedview50"
   pagecolor="#ffffff"
   bordercolor="#000000"
   borderopacity="0.25"
   inkscape:showpageshadow="2"
   inkscape:pageopacity="0.0"
   inkscape:pagecheckerboard="true"
   inkscape:deskcolor="#d1d1d1"
   inkscape:document-units="mm"
   fit-margin-top="50"
   fit-margin-left="50"
   fit-margin-right="50"
   fit-margin-bottom="50"
   showgrid="false"
   inkscape:zoom="5.6307799"
   inkscape:cx="542.64241"
   inkscape:cy="25.396127"
   inkscape:window-width="1280"
   inkscape:window-height="731"
   inkscape:window-x="0"
   inkscape:window-y="0"
   inkscape:window-maximized="1"
   inkscape:current-layer="svg50" />
 <defs
   class="ClipPathGroup"
   id="defs2">
  <clipPath
   id="presentation_clip_path"
   clipPathUnits="userSpaceOnUse">
   <rect
   x="0"
   y="0"
   width="21001"
   height="29703"
   id="rect1" />
  </clipPath>
  <clipPath
   id="presentation_clip_path_shrink"
   clipPathUnits="userSpaceOnUse">
   <rect
   x="21"
   y="29"
   width="20959"
   height="29644"
   id="rect2" />
  </clipPath>
 </defs>
 <defs
   class="TextShapeIndex"
   id="defs3">
  <g
   ooo:slide="id1"
   ooo:id-list="id3 id4 id5 id6 id7 id8 id9 id10 id11 id12 id13 id14 id15 id16 id17 id18 id19 id20 id21 id22 id23 id24 id25 id26 id27 id28 id29 id30 id31 id32 id33 id34 id35"
   id="g2" />
 </defs>
 <defs
   class="EmbeddedBulletChars"
   id="defs12">
  <g
   id="bullet-char-template-57356"
   transform="matrix(4.8828125e-4,0,0,-4.8828125e-4,0,0)">
   <path
   d="M 580,1141 1163,571 580,0 -4,571 Z"
   id="path3" />
  </g>
  <g
   id="bullet-char-template-57354"
   transform="matrix(4.8828125e-4,0,0,-4.8828125e-4,0,0)">
   <path
   d="M 8,1128 H 1137 V 0 H 8 Z"
   id="path4" />
  </g>
  <g
   id="bullet-char-template-10146"
   transform="matrix(4.8828125e-4,0,0,-4.8828125e-4,0,0)">
   <path
   d="M 174,0 602,739 174,1481 1456,739 Z M 1358,739 309,1346 659,739 Z"
   id="path5" />
  </g>
  <g
   id="bullet-char-template-10132"
   transform="matrix(4.8828125e-4,0,0,-4.8828125e-4,0,0)">
   <path
   d="M 2015,739 1276,0 H 717 l 543,543 H 174 v 393 h 1086 l -543,545 h 557 z"
   id="path6" />
  </g>
  <g
   id="bullet-char-template-10007"
   transform="matrix(4.8828125e-4,0,0,-4.8828125e-4,0,0)">
   <path
   d="m 0,-2 c -7,16 -16,29 -25,39 l 381,530 c -94,256 -141,385 -141,387 0,25 13,38 40,38 9,0 21,-2 34,-5 21,4 42,12 65,25 l 27,-13 111,-251 280,301 64,-25 24,25 c 21,-10 41,-24 62,-43 C 886,937 835,863 770,784 769,783 710,716 594,584 L 774,223 c 0,-27 -21,-55 -63,-84 l 16,-20 C 717,90 699,76 672,76 641,76 570,178 457,381 L 164,-76 c -22,-34 -53,-51 -92,-51 -42,0 -63,17 -64,51 -7,9 -10,24 -10,44 0,9 1,19 2,30 z"
   id="path7" />
  </g>
  <g
   id="bullet-char-template-10004"
   transform="matrix(4.8828125e-4,0,0,-4.8828125e-4,0,0)">
   <path
   d="M 285,-33 C 182,-33 111,30 74,156 52,228 41,333 41,471 c 0,78 14,145 41,201 34,71 87,106 158,106 53,0 88,-31 106,-94 l 23,-176 c 8,-64 28,-97 59,-98 l 735,706 c 11,11 33,17 66,17 42,0 63,-15 63,-46 V 965 c 0,-36 -10,-64 -30,-84 L 442,47 C 390,-6 338,-33 285,-33 Z"
   id="path8" />
  </g>
  <g
   id="bullet-char-template-9679"
   transform="matrix(4.8828125e-4,0,0,-4.8828125e-4,0,0)">
   <path
   d="M 813,0 C 632,0 489,54 383,161 276,268 223,411 223,592 c 0,181 53,324 160,431 106,107 249,161 430,161 179,0 323,-54 432,-161 108,-107 162,-251 162,-431 0,-180 -54,-324 -162,-431 C 1136,54 992,0 813,0 Z"
   id="path9" />
  </g>
  <g
   id="bullet-char-template-8226"
   transform="matrix(4.8828125e-4,0,0,-4.8828125e-4,0,0)">
   <path
   d="m 346,457 c -73,0 -137,26 -191,78 -54,51 -81,114 -81,188 0,73 27,136 81,188 54,52 118,78 191,78 73,0 134,-26 185,-79 51,-51 77,-114 77,-187 0,-75 -25,-137 -76,-188 -50,-52 -112,-78 -186,-78 z"
   id="path10" />
  </g>
  <g
   id="bullet-char-template-8211"
   transform="matrix(4.8828125e-4,0,0,-4.8828125e-4,0,0)">
   <path
   d="M -4,459 H 1135 V 606 H -4 Z"
   id="path11" />
  </g>
  <g
   id="bullet-char-template-61548"
   transform="matrix(4.8828125e-4,0,0,-4.8828125e-4,0,0)">
   <path
   d="m 173,740 c 0,163 58,303 173,419 116,115 255,173 419,173 163,0 302,-58 418,-173 116,-116 174,-256 174,-419 0,-163 -58,-303 -174,-418 C 1067,206 928,148 765,148 601,148 462,206 346,322 231,437 173,577 173,740 Z"
   id="path12" />
  </g>
 </defs>
 <g
   id="g12"
   transform="translate(-2652,-5770)">
  <g
   id="id2"
   class="Master_Slide">
   <g
   id="bg-id2"
   class="Background" />
   <g
   id="bo-id2"
   class="BackgroundObjects" />
  </g>
 </g>
 <g
   class="SlideGroup"
   id="g50"
   transform="translate(-2652,-5770)">
  <g
   id="g49">
   <g
   id="container-id1">
    <g
   id="id1"
   class="Slide"
   clip-path="url(#presentation_clip_path)">
     <g
   class="Page"
   id="g48">
      <g
   class="Group"
   id="g47">
       <g
   class="com.sun.star.drawing.PolyPolygonShape"
   id="g13">
        <g
   id="id3">
         <rect
   class="BoundingBox"
   stroke="none"
   fill="none"
   x="2652"
   y="5770"
   width="15001"
   height="14996"
   id="rect12" />
         <path
   fill="#fefefe"
   stroke="none"
   d="M 2653,5770 V 20765 H 17652 V 5770 Z"
   id="path13" />
        </g>
       </g>
       <g
   class="Group"
   id="g18"
   style="display:none">
        <g
   class="com.sun.star.drawing.LineShape"
   id="g14">
         <g
   id="id4">
          <rect
   class="BoundingBox"
   stroke="none"
   fill="none"
   x="2628"
   y="5771"
   width="53"
   height="14994"
   id="rect13" />
          <path
   fill="none"
   stroke="#1b1918"
   stroke-width="51"
   stroke-linejoin="miter"
   d="M 2654,20764 V 5771"
   id="path14" />
         </g>
        </g>
        <g
   class="com.sun.star.drawing.LineShape"
   id="g15">
         <g
   id="id5">
          <rect
   class="BoundingBox"
   stroke="none"
   fill="none"
   x="2654"
   y="20739"
   width="14997"
   height="53"
   id="rect14" />
          <path
   fill="none"
   stroke="#1b1918"
   stroke-width="51"
   stroke-linejoin="miter"
   d="M 17650,20765 H 2654"
   id="path15" />
         </g>
        </g>
        <g
   class="com.sun.star.drawing.LineShape"
   id="g16">
         <g
   id="id6">
          <rect
   class="BoundingBox"
   stroke="none"
   fill="none"
   x="17624"
   y="5771"
   width="53"
   height="14994"
   id="rect15" />
          <path
   fill="none"
   stroke="#1b1918"
   stroke-width="51"
   stroke-linejoin="miter"
   d="M 17650,5771 V 20764"
   id="path16" />
         </g>
        </g>
        <g
   class="com.sun.star.drawing.LineShape"
   id="g17">
         <g
   id="id7">
          <rect
   class="BoundingBox"
   stroke="none"
   fill="none"
   x="2654"
   y="5745"
   width="14997"
   height="53"
   id="rect16" />
          <path
   fill="none"
   stroke="#1b1918"
   stroke-width="51"
   stroke-linejoin="miter"
   d="M 2654,5771 H 17650"
   id="path17" />
         </g>
        </g>
       </g>
       <g
   class="com.sun.star.drawing.ClosedBezierShape"
   id="g19">
        <g
   id="id8">
         <rect
   class="BoundingBox"
   stroke="none"
   fill="none"
   x="11747"
   y="6271"
   width="5405"
   height="13995"
   id="rect18" />
         <path
   fill="#826500"
   stroke="none"
   d="m 11747,20265 5404,-2 V 6271 l -5404,2 c 449,279 807,536 1198,993 l 3208,3 v 11996 h -3208 c -322,398 -762,724 -1198,1000 z"
   id="path18" />
        </g>
       </g>
       <g
   class="com.sun.star.drawing.ClosedBezierShape"
   id="g20">
        <g
   id="id9">
         <rect
   class="BoundingBox"
   stroke="none"
   fill="none"
   x="3155"
   y="6270"
   width="5394"
   height="13996"
   id="rect19" />
         <path
   fill="#826500"
   stroke="none"
   d="m 8548,20265 -5393,-2 V 6271 l 5393,2 c -427,252 -843,561 -1199,993 l -3196,3 v 11996 h 3196 c 320,403 775,726 1199,1000 z"
   id="path19" />
        </g>
       </g>
       <g
   class="com.sun.star.drawing.ClosedBezierShape"
   id="g21">
        <g
   id="id10">
         <rect
   class="BoundingBox"
   stroke="none"
   fill="none"
   x="5895"
   y="6246"
   width="8516"
   height="13304"
   id="rect20" />
         <path
   fill="#826500"
   stroke="none"
   d="m 13965,16354 -477,-420 -216,367 c -153,261 -638,-123 -920,43 l -203,142 c -259,-48 -302,-39 -521,-7 -257,6 -698,221 -1013,287 -84,149 -173,480 -112,624 l 76,188 518,285 -15,150 158,338 -427,144 23,-424 c -8,-129 -158,-180 -226,-193 -79,-91 -361,-195 -374,-185 -38,25 -30,-107 -50,-132 -113,-36 -217,-46 -327,-16 -48,265 -373,214 -543,404 -10,51 15,109 7,160 -27,203 -71,440 0,648 -195,-79 -406,-15 -541,218 -40,72 -363,66 -411,102 -79,64 -137,295 -71,472 -1423,-1130 -2405,-3529 -2405,-6305 0,-3869 1907,-6998 4258,-6998 2349,0 4257,3129 4257,6998 0,1118 -160,2172 -445,3110 z"
   id="path20" />
        </g>
       </g>
       <g
   class="com.sun.star.drawing.ClosedBezierShape"
   id="g22">
        <g
   id="id11">
         <rect
   class="BoundingBox"
   stroke="none"
   fill="none"
   x="8001"
   y="7193"
   width="2433"
   height="2145"
   id="rect21" />
         <path
   fill="#ffffff"
   stroke="none"
   d="m 9444,7221 c 48,5 93,11 140,22 9,6 17,11 26,20 3,42 -270,554 -292,618 5,-3 17,17 31,9 45,-59 64,-65 73,-68 39,-39 146,-105 146,-105 31,-22 182,-126 233,-154 34,-6 51,-28 82,-34 20,-5 45,-5 59,12 17,22 45,42 48,75 19,54 47,99 59,156 14,5 -3,17 0,25 -17,14 -37,22 -51,39 -6,-3 -8,6 -14,9 -14,2 -22,22 -39,22 -82,67 -164,118 -248,183 v 2 c 206,37 396,107 582,191 31,11 61,25 90,42 h 5 c 23,20 59,17 59,51 -3,14 -3,22 -14,31 -28,36 -31,87 -62,123 -17,14 -36,28 -59,28 -16,9 -30,3 -50,11 -6,-8 -17,-16 -31,-11 -31,14 -73,26 -107,11 -64,-33 -129,-70 -193,-95 -142,-50 -282,-87 -436,-95 l -99,2 c -8,3 -8,12 -8,20 11,20 31,28 48,42 70,82 160,171 241,239 81,76 164,140 237,214 53,42 28,112 45,166 0,14 0,28 -11,33 -9,0 -15,6 -17,12 -31,8 -51,28 -73,42 -12,11 -14,19 -24,28 v 5 c -17,28 -45,40 -76,42 -8,3 -16,6 -22,9 -17,-6 -22,20 -34,8 -53,-59 -120,-98 -171,-160 -31,-19 -53,-47 -84,-67 -87,-87 -152,-168 -241,-254 -3,9 -3,12 0,23 -9,68 11,136 16,197 14,73 26,146 40,222 14,48 19,93 14,149 -3,5 0,17 -12,19 -28,14 -56,0 -84,-5 -5,-11 -19,-9 -28,-14 -17,3 -36,-3 -50,3 -9,-3 -14,8 -23,2 -3,9 -5,-2 -11,0 -20,-2 -39,-5 -59,-8 -20,-8 -42,-8 -62,-17 -5,-11 -5,-25 -11,-39 -28,-132 -56,-275 -59,-410 -8,-25 0,-51 -5,-74 -87,88 -163,186 -225,293 -22,17 -32,65 -68,48 -3,0 -6,-6 -9,-3 -5,-3 -8,-11 -8,-17 -9,-14 -20,-17 -28,-25 -37,-3 -70,-17 -104,-25 -20,-9 -23,-31 -37,-40 -5,-25 -42,-25 -42,-48 -5,-11 -5,-16 0,-25 14,-11 17,-31 28,-45 71,-99 141,-192 216,-279 63,-81 147,-162 204,-249 14,-20 -17,-20 -20,-34 -23,-8 -51,0 -70,-8 -56,0 -102,-12 -156,-3 -36,-9 -81,31 -106,-14 -3,-6 -6,-14 -14,-14 -12,8 -28,8 -34,19 -14,3 -36,0 -53,3 -65,11 -135,17 -197,25 -19,3 -42,12 -59,6 -22,-14 -19,-39 -22,-62 -20,-8 -25,-28 -37,-42 -5,-31 -11,-56 -16,-84 2,-3 5,-11 11,-11 3,0 8,0 11,-6 l -6,-14 c 14,-17 34,-17 51,-31 48,-19 104,-19 157,-33 109,-20 230,-17 348,-20 6,-6 -6,-11 -3,-17 -25,-34 -45,-70 -64,-109 -34,-54 -79,-101 -110,-158 -14,-14 -19,-29 -33,-37 -9,-11 -14,-28 -23,-42 -3,-23 -22,-62 6,-76 61,-56 120,-115 193,-154 -2,-14 14,-6 20,-14 3,8 11,2 17,2 28,6 40,37 51,57 12,16 6,50 31,59 59,36 65,109 110,160 39,76 104,132 154,200 9,3 11,14 20,17 0,8 11,5 11,14 14,-45 31,-96 48,-143 25,-80 42,-161 70,-240 3,-34 22,-62 28,-95 17,-31 22,-68 39,-102 0,-19 20,-33 20,-53 0,-3 42,-70 42,-76 14,-11 25,-30 45,-30 67,5 132,28 199,28 z"
   id="path21" />
        </g>
       </g>
       <g
   class="com.sun.star.drawing.ClosedBezierShape"
   id="g23">
        <g
   id="id12">
         <rect
   class="BoundingBox"
   stroke="none"
   fill="none"
   x="6512"
   y="12909"
   width="3703"
   height="4808"
   id="rect22" />
         <path
   fill="#ffffff"
   stroke="none"
   d="m 7135,13277 c 10,-286 973,-391 1321,-364 465,38 965,272 1233,787 52,100 -393,82 -330,161 99,122 602,18 544,162 -94,229 -158,630 -71,668 68,33 127,-10 175,66 46,74 13,23 -53,168 -36,79 -264,-51 -237,33 56,152 87,272 127,430 41,163 -638,339 51,529 132,36 307,209 318,277 22,143 -441,-18 -516,106 -75,125 -134,483 -231,381 -104,-112 -160,-348 -260,-244 -104,107 -381,300 -381,143 0,-102 51,-265 -10,-199 -92,102 -287,181 -285,313 l 59,1018 -356,3 -2,-897 c -310,-17 -265,-76 -150,-183 35,-33 -282,26 -338,66 -76,54 -74,183 -158,183 -83,0 -22,-256 -275,-63 -124,94 -323,152 -323,79 0,-72 -44,-162 94,-191 267,-55 698,-492 507,-447 -81,19 -302,207 -321,128 -30,-126 153,-304 57,-333 -193,-60 -326,-228 -517,-305 -165,-68 -251,-219 -241,-254 35,-127 150,-418 211,-393 96,44 271,84 480,84 252,0 483,-117 407,-203 -96,-107 -260,104 -374,63 -320,-111 -493,11 -508,-132 -31,-261 697,-304 637,-376 -124,-157 -411,-35 -518,-129 -117,-104 23,-252 -295,-269 -126,-8 -118,-331 -12,-417 175,-147 522,86 541,-449 z"
   id="path22" />
        </g>
       </g>
       <g
   class="com.sun.star.drawing.ClosedBezierShape"
   id="g24">
        <g
   id="id13">
         <rect
   class="BoundingBox"
   stroke="none"
   fill="none"
   x="8931"
   y="11275"
   width="3022"
   height="5572"
   id="rect23" />
         <path
   fill="#ffffff"
   stroke="none"
   d="m 9794,16410 -152,436 h 440 l -94,-358 c 134,-46 275,-59 410,-51 572,37 1127,-120 1554,-630 -318,-5 -595,-89 -917,-191 l 622,-558 -300,83 275,-434 -430,152 74,-281 -396,104 330,-468 -447,163 457,-723 -353,148 376,-437 -246,96 22,-302 -426,132 284,-416 -239,-10 46,-298 -303,-38 30,-282 -81,-172 -246,-211 -234,-589 -94,414 -94,-3 -109,422 -148,-11 72,272 -247,-43 -25,173 152,206 -426,-33 118,286 c 421,203 727,444 852,817 -428,154 160,68 190,146 -56,187 -269,644 -113,705 100,40 175,108 175,185 0,52 -54,142 -84,183 -63,85 -177,40 -158,87 30,79 192,311 95,417 -410,307 59,242 144,339 40,81 165,233 229,336 160,254 -399,168 -585,237 z"
   id="path23" />
        </g>
       </g>
       <g
   class="com.sun.star.drawing.ClosedBezierShape"
   id="g25">
        <g
   id="id14">
         <rect
   class="BoundingBox"
   stroke="none"
   fill="none"
   x="10501"
   y="9108"
   width="3521"
   height="6656"
   id="rect24" />
         <path
   fill="#ffffff"
   stroke="none"
   d="m 11417,15553 c 112,-150 308,-381 422,-607 26,-52 -265,75 -249,21 21,-66 213,-330 213,-397 l -410,115 50,-285 -332,92 345,-481 -399,143 413,-665 -304,79 290,-373 -271,107 -8,-331 -280,101 192,-318 -269,-58 46,-289 -292,-41 -37,-290 -36,-301 186,93 34,-301 461,211 -270,-674 378,200 -160,-643 336,100 -49,-358 233,86 -70,-473 254,11 -16,-403 132,82 146,-598 65,619 157,-78 -105,423 248,-36 -68,523 247,-68 -113,363 341,-32 -195,582 368,-175 -310,641 476,-182 -106,368 295,-57 -476,552 455,-179 -599,893 541,-194 -436,571 480,-118 -124,421 462,-203 -348,565 348,-110 -528,559 586,-105 -51,460 315,-26 c -553,831 -1687,781 -2604,468 z"
   id="path24" />
        </g>
       </g>
       <g
   class="com.sun.star.drawing.ClosedBezierShape"
   id="g26">
        <g
   id="id15">
         <rect
   class="BoundingBox"
   stroke="none"
   fill="none"
   x="11698"
   y="15944"
   width="406"
   height="406"
   id="rect25" />
         <path
   fill="#fefefe"
   stroke="none"
   d="m 11708,16188 c 133,-35 234,-156 314,-244 l 81,403 -405,2 z"
   id="path25" />
        </g>
       </g>
       <g
   class="com.sun.star.drawing.ClosedBezierShape"
   id="g27">
        <g
   id="id16">
         <rect
   class="BoundingBox"
   stroke="none"
   fill="none"
   x="7326"
   y="13848"
   width="357"
   height="218"
   id="rect26" />
         <path
   fill="#826500"
   stroke="none"
   d="m 7534,13924 c -34,0 0,-59 -28,-59 -57,0 -165,-39 -156,0 18,65 24,151 -21,161 -24,3 101,54 120,33 64,-89 180,-12 177,-33 -6,-38 55,-13 55,-38 0,-21 -9,-55 -33,-73 -19,-12 -84,9 -114,9 z"
   id="path26" />
        </g>
       </g>
       <g
   class="com.sun.star.drawing.ClosedBezierShape"
   id="g28">
        <g
   id="id17">
         <rect
   class="BoundingBox"
   stroke="none"
   fill="none"
   x="8464"
   y="13614"
   width="437"
   height="318"
   id="rect27" />
         <path
   fill="#826500"
   stroke="none"
   d="m 8667,13652 c 3,-39 -44,-50 -55,-22 -26,55 -125,51 -103,89 55,88 -97,131 -25,191 22,11 153,-4 190,18 41,22 -55,-88 12,-96 47,-29 102,-25 132,-18 -19,-70 124,-55 69,-117 -7,-12 -231,146 -220,-45 z"
   id="path27" />
        </g>
       </g>
       <g
   class="com.sun.star.drawing.ClosedBezierShape"
   id="g29">
        <g
   id="id18">
         <rect
   class="BoundingBox"
   stroke="none"
   fill="none"
   x="7357"
   y="13433"
   width="482"
   height="219"
   id="rect28" />
         <path
   fill="#826500"
   stroke="none"
   d="m 7556,13543 c -34,0 24,-59 0,-68 -52,-27 -102,-30 -166,-33 0,0 -75,39 0,67 58,-19 96,43 93,59 36,18 85,42 100,82 28,-28 101,-15 101,-28 -31,-138 108,-95 153,-95 -6,-37 -24,-64 -70,-94 -48,6 -165,15 -126,135 -12,-6 -55,-25 -85,-25 z"
   id="path28" />
        </g>
       </g>
       <g
   class="com.sun.star.drawing.ClosedBezierShape"
   id="g30">
        <g
   id="id19">
         <rect
   class="BoundingBox"
   stroke="none"
   fill="none"
   x="8619"
   y="14414"
   width="484"
   height="371"
   id="rect29" />
         <path
   fill="#826500"
   stroke="none"
   d="m 9094,14506 c -29,23 -68,26 -73,68 3,22 5,30 5,52 v 0 h -62 v 0 c 21,-20 13,-35 3,-62 -18,-12 -34,-5 -55,0 -36,2 -36,109 -128,121 -10,38 29,83 -23,95 -31,18 -31,-32 -60,-32 -18,-20 -51,3 -64,-22 -3,-43 13,-85 -18,-120 0,-64 95,-5 114,-2 36,0 38,-3 67,-13 10,-37 36,-57 71,-72 18,8 88,-9 117,-13 31,-32 51,-84 106,-91 18,0 0,71 0,91 z"
   id="path29" />
        </g>
       </g>
       <g
   class="com.sun.star.drawing.ClosedBezierShape"
   id="g31">
        <g
   id="id20">
         <rect
   class="BoundingBox"
   stroke="none"
   fill="none"
   x="9284"
   y="14700"
   width="418"
   height="189"
   id="rect30" />
         <path
   fill="#826500"
   stroke="none"
   d="m 9630,14768 c 19,-5 52,-17 68,-33 l 2,61 c -72,22 -64,70 -64,77 -77,8 -128,-12 -196,15 -5,-78 -117,-22 -156,-63 -4,-39 88,-52 112,-52 21,-30 55,-53 83,-72 39,37 101,39 151,67 z"
   id="path30" />
        </g>
       </g>
       <g
   class="com.sun.star.drawing.ClosedBezierShape"
   id="g32">
        <g
   id="id21">
         <rect
   class="BoundingBox"
   stroke="none"
   fill="none"
   x="8044"
   y="14716"
   width="490"
   height="532"
   id="rect31" />
         <path
   fill="#826500"
   stroke="none"
   d="m 8272,14737 c 45,0 91,15 110,49 46,18 132,-22 150,60 -68,13 -135,0 -176,58 -34,12 -34,-15 -63,-18 -8,18 -32,25 -34,50 -21,25 -99,15 -65,69 18,62 105,37 136,79 v 0 l -18,13 v 0 c 0,0 -66,7 -87,33 3,30 -10,62 -5,94 v 0 l -117,22 v 0 c 26,-54 -61,-76 -59,-109 25,-38 98,-50 75,-107 -13,-10 -34,-37 -18,-50 49,-17 36,-89 106,-74 21,-37 18,-70 5,-107 v 0 l -70,-25 v 0 c 0,-30 31,-35 49,-57 39,-4 47,27 81,20 z"
   id="path31" />
        </g>
       </g>
       <g
   class="com.sun.star.drawing.ClosedBezierShape"
   id="g33">
        <g
   id="id22">
         <rect
   class="BoundingBox"
   stroke="none"
   fill="none"
   x="9175"
   y="15224"
   width="436"
   height="259"
   id="rect32" />
         <path
   fill="#826500"
   stroke="none"
   d="m 9547,15268 c 2,38 52,19 62,53 -18,27 -65,17 -65,61 v 0 l -8,8 v 0 c -55,7 -115,-3 -148,45 v 0 45 0 c -16,2 -42,2 -57,-15 -24,-63 -79,-50 -141,-60 -13,-37 -20,-87 -11,-125 v 0 l 5,-3 v 0 c 29,48 91,39 118,76 21,5 47,-10 62,-25 v 0 l 63,-12 v 0 c 15,-31 15,-73 51,-88 40,-14 48,22 69,40 z"
   id="path32" />
        </g>
       </g>
       <g
   class="com.sun.star.drawing.ClosedBezierShape"
   id="g34">
        <g
   id="id23">
         <rect
   class="BoundingBox"
   stroke="none"
   fill="none"
   x="8452"
   y="15885"
   width="212"
   height="438"
   id="rect33" />
         <path
   fill="#826500"
   stroke="none"
   d="m 8626,15949 c 11,17 47,17 34,42 -13,63 -26,107 -39,169 8,88 -100,130 -146,162 v 0 l -23,-169 v 0 c 20,-5 38,-15 57,-30 2,-22 -3,-42 -13,-62 25,3 84,3 99,-29 0,-51 18,-91 18,-147 29,12 -5,44 13,64 z"
   id="path33" />
        </g>
       </g>
       <g
   class="com.sun.star.drawing.ClosedBezierShape"
   id="g35">
        <g
   id="id24">
         <rect
   class="BoundingBox"
   stroke="none"
   fill="none"
   x="8910"
   y="16011"
   width="395"
   height="290"
   id="rect34" />
         <path
   fill="#826500"
   stroke="none"
   d="m 9238,16039 c -21,11 -37,38 -31,61 18,68 104,0 96,81 -57,25 -149,-65 -177,50 -42,28 -83,-42 -117,17 -17,21 8,62 -35,49 -44,-22 -7,-86 -64,-86 12,-22 33,-38 38,-62 69,-11 90,-88 152,-110 10,27 44,47 65,19 v 0 l 47,-46 v 0 c 3,16 31,2 26,27 z"
   id="path34" />
        </g>
       </g>
       <g
   class="com.sun.star.drawing.ClosedBezierShape"
   id="g36">
        <g
   id="id25">
         <rect
   class="BoundingBox"
   stroke="none"
   fill="none"
   x="7569"
   y="15867"
   width="764"
   height="630"
   id="rect35" />
         <path
   fill="#826500"
   stroke="none"
   d="m 8001,16174 c 22,10 101,-153 116,-140 138,122 86,180 205,168 49,289 -104,360 -70,233 73,-267 -211,-37 -226,30 -41,-3 -51,-98 -124,-124 -159,-58 -333,-191 -333,-296 0,-58 72,-282 142,-121 -169,342 158,198 290,250 z"
   id="path35" />
        </g>
       </g>
       <g
   class="com.sun.star.drawing.ClosedBezierShape"
   id="g37">
        <g
   id="id26">
         <rect
   class="BoundingBox"
   stroke="none"
   fill="none"
   x="7538"
   y="14664"
   width="251"
   height="179"
   id="rect36" />
         <path
   fill="#826500"
   stroke="none"
   d="m 7784,14695 c 2,23 10,54 -9,73 -13,14 -39,10 -62,16 -19,16 -19,45 -43,57 -26,-53 -91,-31 -132,-57 10,-16 23,-29 38,-37 36,19 79,2 114,-16 0,-26 -7,-57 17,-67 31,-1 51,20 77,31 z"
   id="path36" />
        </g>
       </g>
       <g
   class="com.sun.star.drawing.ClosedBezierShape"
   id="g38">
        <g
   id="id27">
         <rect
   class="BoundingBox"
   stroke="none"
   fill="none"
   x="7392"
   y="15527"
   width="263"
   height="187"
   id="rect37" />
         <path
   fill="#826500"
   stroke="none"
   d="m 7551,15545 c -21,15 -29,53 -24,69 0,11 11,19 18,25 21,6 36,-19 58,-6 7,25 28,38 50,54 -13,19 -39,23 -61,25 -32,-10 -72,-37 -102,-16 -28,2 -50,4 -76,-9 2,-20 -49,-52 0,-62 22,-7 45,-9 52,-33 v 0 l -15,-32 v 0 c 45,19 69,-70 100,-15 z"
   id="path37" />
        </g>
       </g>
       <g
   class="com.sun.star.drawing.ClosedBezierShape"
   id="g39">
        <g
   id="id28">
         <rect
   class="BoundingBox"
   stroke="none"
   fill="none"
   x="9431"
   y="18120"
   width="1278"
   height="743"
   id="rect38" />
         <path
   fill="#826500"
   stroke="none"
   d="m 9456,18142 c 89,-10 124,132 231,69 53,-31 241,176 272,143 40,-25 301,-141 346,-133 211,-46 201,-35 399,-101 l 3,196 c 2,193 -308,-115 -409,135 l -51,336 c -10,76 -278,84 -400,66 -99,-15 -315,-127 -396,-145 -25,-209 -30,-377 5,-566 z"
   id="path38" />
        </g>
       </g>
       <g
   class="com.sun.star.drawing.ClosedBezierShape"
   id="g40">
        <g
   id="id29">
         <rect
   class="BoundingBox"
   stroke="none"
   fill="none"
   x="10661"
   y="16875"
   width="1124"
   height="837"
   id="rect39" />
         <path
   fill="#826500"
   stroke="none"
   d="m 10723,16875 107,135 679,26 274,-139 -90,465 c 0,0 -38,129 -38,176 l -15,27 c -23,0 -212,10 -227,-3 v -4 h -5 c 0,-27 -117,-74 -135,-121 -94,0 -58,10 -147,67 -16,44 -49,156 -49,207 -25,0 -176,-92 -191,-115 80,10 15,23 -8,0 l -5,-7 c -40,0 -114,-44 -137,-75 -159,-261 -13,-427 -13,-639 z"
   id="path39" />
        </g>
       </g>
       <g
   class="com.sun.star.drawing.ClosedBezierShape"
   id="g41">
        <g
   id="id30">
         <rect
   class="BoundingBox"
   stroke="none"
   fill="none"
   x="11680"
   y="17096"
   width="1979"
   height="1120"
   id="rect40" />
         <path
   fill="#826500"
   stroke="none"
   d="m 11681,17722 c 0,-3 7,-11 10,-11 0,-48 25,-137 40,-190 l 82,-293 c 2,-8 22,-53 28,-53 v -11 h 2 c -2,0 0,0 0,-7 h 5 c 0,-5 0,-16 8,-16 v -10 h 2 v -12 c 5,0 87,-68 186,30 -99,18 -168,293 -92,387 h 3 c 0,0 7,15 7,18 h 8 v 5 h 13 c 0,3 10,8 10,15 -10,-12 0,-7 8,0 0,3 10,21 15,26 h 2 c 21,30 28,81 54,109 h 2 v 2 l 5,6 c 3,0 16,2 16,5 43,0 116,15 152,22 48,8 150,13 190,39 v 5 c 23,12 102,5 127,2 61,-10 136,-58 192,-81 56,-23 147,-33 208,-46 15,-2 56,-15 74,-15 0,-8 38,-15 46,-15 0,-3 45,-16 50,-16 5,-17 44,-50 51,-71 28,-15 79,-76 99,-101 38,-41 89,-64 142,-90 6,-3 112,-31 112,-56 38,-18 94,-46 120,-71 -150,346 -310,654 -496,975 -183,0 -414,-41 -598,-3 -15,3 -63,0 -83,10 v 5 h -11 c 3,0 3,-28 3,-30 h -3 c -2,-5 0,-23 -10,-23 0,-46 -71,-96 -71,-142 -5,0 -5,-8 -13,-8 0,-2 0,-10 -7,-10 l -3,-5 c 0,-8 -12,-15 -12,-23 -89,0 -191,-38 -272,-67 -102,-38 -241,-79 -330,-147 v -3 c -5,0 -21,-7 -21,-13 -7,0 -17,-7 -25,-7 0,-10 -15,-3 -18,-8 v -2 z"
   id="path40" />
        </g>
       </g>
       <g
   class="com.sun.star.drawing.ClosedBezierShape"
   id="g42">
        <g
   id="id31">
         <rect
   class="BoundingBox"
   stroke="none"
   fill="none"
   x="12113"
   y="16563"
   width="1499"
   height="718"
   id="rect41" />
         <path
   fill="#826500"
   stroke="none"
   d="m 12113,17080 c 0,-40 25,-250 81,-388 33,-86 136,-129 198,-129 0,67 0,122 0,190 3,3 14,18 17,18 0,7 5,7 5,10 130,0 269,58 412,37 36,24 67,61 103,83 l 9,-13 c 5,10 25,28 25,28 33,47 470,-49 521,-77 l 81,-43 c 22,0 25,40 36,40 0,167 59,302 -123,296 l -103,-18 c -12,-3 -231,-25 -231,21 -75,46 -89,126 -226,145 -296,0 -507,-13 -772,-194 v -3 c -3,-3 -17,-3 -22,-6 v -3 z"
   id="path41" />
        </g>
       </g>
       <g
   class="com.sun.star.drawing.ClosedBezierShape"
   id="g43">
        <g
   id="id32">
         <rect
   class="BoundingBox"
   stroke="none"
   fill="none"
   x="10864"
   y="17561"
   width="1562"
   height="2302"
   id="rect42" />
         <path
   fill="#826500"
   stroke="none"
   d="m 12128,18995 c -3,-109 -28,-249 -33,-358 l 101,-132 c 0,0 194,-178 229,-241 -33,-74 -63,-156 -112,-215 -7,18 -316,209 -316,209 -162,-63 -386,-63 -584,-232 -66,-53 -40,-345 -152,-464 -80,86 -60,294 -75,431 l 133,319 84,-26 c 0,3 15,8 18,8 0,33 139,79 167,102 v 7 l 16,3 v 2 c 25,23 150,66 183,66 0,3 20,23 20,23 15,56 -5,181 -5,242 0,60 -56,73 -76,106 -74,-53 -366,-188 -384,-188 -95,-10 -268,-35 -352,36 0,134 36,350 -40,470 h -8 c 0,7 8,15 -7,15 0,20 -71,153 -71,174 96,71 365,58 460,25 36,-184 -51,-158 -161,-230 l -53,-279 c -5,-10 -38,-127 -38,-117 106,-25 189,-25 283,13 l 236,104 c 0,28 376,178 391,163 38,0 -493,628 -434,831 12,-5 99,-56 94,-56 z"
   id="path42" />
        </g>
       </g>
       <g
   class="com.sun.star.drawing.ClosedBezierShape"
   id="g44">
        <g
   id="id33">
         <rect
   class="BoundingBox"
   stroke="none"
   fill="none"
   x="8420"
   y="18496"
   width="2878"
   height="1757"
   id="rect43" />
         <path
   fill="#826500"
   stroke="none"
   d="m 10097,19551 -1035,-326 c 41,102 -96,285 -101,280 l 25,183 c 270,79 354,237 445,313 61,51 247,10 359,10 2,64 15,148 15,211 -348,-43 -640,-152 -900,-282 -46,-30 28,-336 -5,-344 -44,-12 -216,217 -272,183 -92,-56 -125,-79 -208,-142 2,-145 12,-287 17,-434 l 379,43 c 0,10 51,46 99,76 13,-397 628,5 649,-13 l 208,-358 79,81 -28,356 312,102 c 102,-130 130,-178 254,-277 0,-54 -122,-132 -89,-193 -18,-143 31,-390 46,-524 25,208 223,10 278,460 78,51 177,107 289,109 0,0 0,46 -2,46 0,5 -8,48 -16,48 v 6 h -2 v 7 l -3,3 c -152,-5 -292,30 -417,96 -282,186 -483,662 -495,784 48,0 497,96 497,76 16,-10 169,-127 169,-132 97,-64 259,139 363,15 h 8 c 13,-23 152,-191 152,-220 21,0 28,-35 36,-43 h 5 c 15,-12 84,-84 84,-104 10,120 5,242 -38,362 -488,206 -888,284 -1386,221 28,-384 137,-502 229,-679 z"
   id="path43" />
        </g>
       </g>
       <g
   class="com.sun.star.drawing.ClosedBezierShape"
   id="g45">
        <g
   id="id34">
         <rect
   class="BoundingBox"
   stroke="none"
   fill="none"
   x="13293"
   y="16223"
   width="615"
   height="789"
   id="rect44" />
         <path
   fill="#826500"
   stroke="none"
   d="m 13294,16454 c 86,-49 116,-153 165,-231 35,91 153,172 176,279 l 272,41 c -49,166 -104,308 -168,468 48,-335 -232,-379 -445,-557 z"
   id="path44" />
        </g>
       </g>
       <g
   class="com.sun.star.drawing.ClosedBezierShape"
   id="g46">
        <g
   id="id35">
         <rect
   class="BoundingBox"
   stroke="none"
   fill="none"
   x="12250"
   y="18628"
   width="416"
   height="389"
   id="rect45" />
         <path
   fill="#826500"
   stroke="none"
   d="m 12250,18628 185,232 230,40 c -36,36 -67,79 -102,115 l -286,-44 z"
   id="path45" />
        </g>
       </g>
      </g>
     </g>
    </g>
   </g>
  </g>
 </g>
</svg>
