<?xml version="1.0" encoding="UTF-8" standalone="no"?>
<svg
   version="1.2"
   width="150.49001mm"
   height="150.47mm"
   viewBox="0 0 15049.001 15047"
   preserveAspectRatio="xMidYMid"
   fill-rule="evenodd"
   stroke-width="28.222"
   stroke-linejoin="round"
   xml:space="preserve"
   id="svg27"
   sodipodi:docname="ID20b.svg"
   inkscape:version="1.2.2 (b0a8486541, 2022-12-01)"
   xmlns:inkscape="http://www.inkscape.org/namespaces/inkscape"
   xmlns:sodipodi="http://sodipodi.sourceforge.net/DTD/sodipodi-0.dtd"
   xmlns="http://www.w3.org/2000/svg"
   xmlns:svg="http://www.w3.org/2000/svg"
   xmlns:ooo="http://xml.openoffice.org/svg/export"><sodipodi:namedview
   id="namedview27"
   pagecolor="#ffffff"
   bordercolor="#000000"
   borderopacity="0.25"
   inkscape:showpageshadow="2"
   inkscape:pageopacity="0.0"
   inkscape:pagecheckerboard="true"
   inkscape:deskcolor="#d1d1d1"
   inkscape:document-units="mm"
   fit-margin-top="50"
   fit-margin-left="50"
   fit-margin-right="50"
   fit-margin-bottom="50"
   showgrid="false"
   inkscape:zoom="5.2849396"
   inkscape:cx="588.27541"
   inkscape:cy="601.89903"
   inkscape:window-width="1280"
   inkscape:window-height="731"
   inkscape:window-x="0"
   inkscape:window-y="0"
   inkscape:window-maximized="1"
   inkscape:current-layer="svg27" />
 <defs
   class="ClipPathGroup"
   id="defs2">
  <clipPath
   id="presentation_clip_path"
   clipPathUnits="userSpaceOnUse">
   <rect
   x="0"
   y="0"
   width="21001"
   height="29703"
   id="rect1" />
  </clipPath>
  <clipPath
   id="presentation_clip_path_shrink"
   clipPathUnits="userSpaceOnUse">
   <rect
   x="21"
   y="29"
   width="20959"
   height="29644"
   id="rect2" />
  </clipPath>
 </defs>
 <defs
   class="TextShapeIndex"
   id="defs3">
  <g
   ooo:slide="id1"
   ooo:id-list="id3 id4 id5 id6 id7 id8 id9 id10 id11"
   id="g2" />
 </defs>
 <defs
   class="EmbeddedBulletChars"
   id="defs12">
  <g
   id="bullet-char-template-57356"
   transform="matrix(4.8828125e-4,0,0,-4.8828125e-4,0,0)">
   <path
   d="M 580,1141 1163,571 580,0 -4,571 Z"
   id="path3" />
  </g>
  <g
   id="bullet-char-template-57354"
   transform="matrix(4.8828125e-4,0,0,-4.8828125e-4,0,0)">
   <path
   d="M 8,1128 H 1137 V 0 H 8 Z"
   id="path4" />
  </g>
  <g
   id="bullet-char-template-10146"
   transform="matrix(4.8828125e-4,0,0,-4.8828125e-4,0,0)">
   <path
   d="M 174,0 602,739 174,1481 1456,739 Z M 1358,739 309,1346 659,739 Z"
   id="path5" />
  </g>
  <g
   id="bullet-char-template-10132"
   transform="matrix(4.8828125e-4,0,0,-4.8828125e-4,0,0)">
   <path
   d="M 2015,739 1276,0 H 717 l 543,543 H 174 v 393 h 1086 l -543,545 h 557 z"
   id="path6" />
  </g>
  <g
   id="bullet-char-template-10007"
   transform="matrix(4.8828125e-4,0,0,-4.8828125e-4,0,0)">
   <path
   d="m 0,-2 c -7,16 -16,29 -25,39 l 381,530 c -94,256 -141,385 -141,387 0,25 13,38 40,38 9,0 21,-2 34,-5 21,4 42,12 65,25 l 27,-13 111,-251 280,301 64,-25 24,25 c 21,-10 41,-24 62,-43 C 886,937 835,863 770,784 769,783 710,716 594,584 L 774,223 c 0,-27 -21,-55 -63,-84 l 16,-20 C 717,90 699,76 672,76 641,76 570,178 457,381 L 164,-76 c -22,-34 -53,-51 -92,-51 -42,0 -63,17 -64,51 -7,9 -10,24 -10,44 0,9 1,19 2,30 z"
   id="path7" />
  </g>
  <g
   id="bullet-char-template-10004"
   transform="matrix(4.8828125e-4,0,0,-4.8828125e-4,0,0)">
   <path
   d="M 285,-33 C 182,-33 111,30 74,156 52,228 41,333 41,471 c 0,78 14,145 41,201 34,71 87,106 158,106 53,0 88,-31 106,-94 l 23,-176 c 8,-64 28,-97 59,-98 l 735,706 c 11,11 33,17 66,17 42,0 63,-15 63,-46 V 965 c 0,-36 -10,-64 -30,-84 L 442,47 C 390,-6 338,-33 285,-33 Z"
   id="path8" />
  </g>
  <g
   id="bullet-char-template-9679"
   transform="matrix(4.8828125e-4,0,0,-4.8828125e-4,0,0)">
   <path
   d="M 813,0 C 632,0 489,54 383,161 276,268 223,411 223,592 c 0,181 53,324 160,431 106,107 249,161 430,161 179,0 323,-54 432,-161 108,-107 162,-251 162,-431 0,-180 -54,-324 -162,-431 C 1136,54 992,0 813,0 Z"
   id="path9" />
  </g>
  <g
   id="bullet-char-template-8226"
   transform="matrix(4.8828125e-4,0,0,-4.8828125e-4,0,0)">
   <path
   d="m 346,457 c -73,0 -137,26 -191,78 -54,51 -81,114 -81,188 0,73 27,136 81,188 54,52 118,78 191,78 73,0 134,-26 185,-79 51,-51 77,-114 77,-187 0,-75 -25,-137 -76,-188 -50,-52 -112,-78 -186,-78 z"
   id="path10" />
  </g>
  <g
   id="bullet-char-template-8211"
   transform="matrix(4.8828125e-4,0,0,-4.8828125e-4,0,0)">
   <path
   d="M -4,459 H 1135 V 606 H -4 Z"
   id="path11" />
  </g>
  <g
   id="bullet-char-template-61548"
   transform="matrix(4.8828125e-4,0,0,-4.8828125e-4,0,0)">
   <path
   d="m 173,740 c 0,163 58,303 173,419 116,115 255,173 419,173 163,0 302,-58 418,-173 116,-116 174,-256 174,-419 0,-163 -58,-303 -174,-418 C 1067,206 928,148 765,148 601,148 462,206 346,322 231,437 173,577 173,740 Z"
   id="path12" />
  </g>
 </defs>
 <g
   id="g12"
   transform="translate(-2628,-5745)">
  <g
   id="id2"
   class="Master_Slide">
   <g
   id="bg-id2"
   class="Background" />
   <g
   id="bo-id2"
   class="BackgroundObjects" />
  </g>
 </g>
 <g
   class="SlideGroup"
   id="g27"
   transform="translate(-2628,-5745)">
  <g
   id="g26">
   <g
   id="container-id1">
    <g
   id="id1"
   class="Slide"
   clip-path="url(#presentation_clip_path)">
     <g
   class="Page"
   id="g25">
      <g
   class="Group"
   id="g24">
       <g
   class="com.sun.star.drawing.PolyPolygonShape"
   id="g13"
   transform="matrix(1.0033336,0,0,1.003334,-34.84726,-44.237323)">
        <g
   id="id3">
         <rect
   class="BoundingBox"
   stroke="none"
   fill="none"
   x="2654"
   y="5770"
   width="14999"
   height="14997"
   id="rect12" />
         <path
   fill="#fefefe"
   stroke="none"
   d="M 17651,20766 V 5771 H 2654 v 14995 z"
   id="path13" />
        </g>
       </g>
       <g
   class="com.sun.star.drawing.PolyPolygonShape"
   id="g14">
        <g
   id="id4">
         <rect
   class="BoundingBox"
   stroke="none"
   fill="none"
   x="3155"
   y="6271"
   width="13998"
   height="13992"
   id="rect13" />
         <path
   fill="#000000"
   stroke="none"
   d="M 3155,6271 V 20262 H 17151 V 6271 Z"
   id="path14" />
        </g>
       </g>
       <g
   class="com.sun.star.drawing.PolyPolygonShape"
   id="g15">
        <g
   id="id5">
         <rect
   class="BoundingBox"
   stroke="none"
   fill="none"
   x="4152"
   y="7269"
   width="12002"
   height="11996"
   id="rect14" />
         <path
   fill="#fefefe"
   stroke="none"
   d="M 4153,7269 V 19264 H 16153 V 7269 Z"
   id="path15" />
        </g>
       </g>
       <g
   class="Group"
   id="g20"
   style="display:none">
        <g
   class="com.sun.star.drawing.LineShape"
   id="g16">
         <g
   id="id6">
          <rect
   class="BoundingBox"
   stroke="none"
   fill="none"
   x="2628"
   y="5771"
   width="53"
   height="14994"
   id="rect15" />
          <path
   fill="none"
   stroke="#1b1918"
   stroke-width="51"
   stroke-linejoin="miter"
   d="M 2654,20764 V 5771"
   id="path16" />
         </g>
        </g>
        <g
   class="com.sun.star.drawing.LineShape"
   id="g17">
         <g
   id="id7">
          <rect
   class="BoundingBox"
   stroke="none"
   fill="none"
   x="2654"
   y="20739"
   width="14997"
   height="53"
   id="rect16" />
          <path
   fill="none"
   stroke="#1b1918"
   stroke-width="51"
   stroke-linejoin="miter"
   d="M 17650,20765 H 2654"
   id="path17" />
         </g>
        </g>
        <g
   class="com.sun.star.drawing.LineShape"
   id="g18">
         <g
   id="id8">
          <rect
   class="BoundingBox"
   stroke="none"
   fill="none"
   x="17624"
   y="5771"
   width="53"
   height="14994"
   id="rect17" />
          <path
   fill="none"
   stroke="#1b1918"
   stroke-width="51"
   stroke-linejoin="miter"
   d="M 17650,5771 V 20764"
   id="path18" />
         </g>
        </g>
        <g
   class="com.sun.star.drawing.LineShape"
   id="g19">
         <g
   id="id9">
          <rect
   class="BoundingBox"
   stroke="none"
   fill="none"
   x="2654"
   y="5745"
   width="14997"
   height="53"
   id="rect18" />
          <path
   fill="none"
   stroke="#1b1918"
   stroke-width="51"
   stroke-linejoin="miter"
   d="M 2654,5771 H 17650"
   id="path19" />
         </g>
        </g>
       </g>
       <g
   class="Group"
   id="g23">
        <g
   class="com.sun.star.drawing.ClosedBezierShape"
   id="g21">
         <g
   id="id10">
          <rect
   class="BoundingBox"
   stroke="none"
   fill="none"
   x="4823"
   y="9292"
   width="10688"
   height="8718"
   id="rect20" />
          <path
   fill="#000000"
   stroke="none"
   d="m 14880,17262 -3,-2338 -1657,-1038 c 232,-476 259,-938 154,-1426 l 589,-1149 1189,619 c 108,69 141,46 196,-39 l 125,-184 c 55,-121 49,-124 -26,-226 -367,-494 -384,-671 -348,-959 l -448,-511 v -619 c 0,-143 -164,-124 -226,13 l -229,377 c -845,-190 -1697,458 -2270,1552 l -864,-531 c 206,-311 196,-681 -49,-838 l -429,-111 c -180,0 -338,6 -427,131 l -1032,1666 c -52,109 -62,230 -39,334 l 85,374 c -759,-432 -1703,-383 -2125,304 -442,-157 -717,-203 -1179,-180 -887,0 -1044,1252 -1044,2303 l 884,4 v -1055 c -4,-823 727,-711 1129,-603 -163,265 -183,633 -81,970 l -980,1637 v 2270 h 619 v -2060 c -3,-131 177,-210 305,-259 714,-262 1051,-573 1457,-1087 l -442,1647 979,1759 h 760 L 8398,16188 c -62,-118 -32,-183 79,-301 301,-374 629,-832 851,-1353 783,180 1577,180 2353,7 108,-26 206,134 134,219 -272,396 -236,675 -236,1123 0,148 -19,220 -72,357 l -697,1769 h 661 l 1425,-3396 1378,776 v 1552 z m 0,0 z m -4070,-6017 845,547 c -95,148 -181,302 -308,426 l -842,-531 z"
   id="path20" />
         </g>
        </g>
        <g
   class="com.sun.star.drawing.ClosedBezierShape"
   id="g22">
         <g
   id="id11">
          <rect
   class="BoundingBox"
   stroke="none"
   fill="none"
   x="10369"
   y="8533"
   width="1688"
   height="1272"
   id="rect21" />
          <path
   fill="#000000"
   stroke="none"
   d="m 11038,8535 c 234,14 439,135 544,333 l 419,100 c 94,23 46,71 3,77 l -351,44 c 3,26 5,53 5,81 0,349 -279,634 -620,634 -309,0 -566,-234 -612,-537 -3,-24 -55,-7 -55,-30 -30,-364 281,-723 667,-702 z"
   id="path21" />
         </g>
        </g>
       </g>
      </g>
     </g>
    </g>
   </g>
  </g>
 </g>
</svg>
