<?xml version="1.0" encoding="UTF-8" standalone="no"?>
<svg
   version="1.2"
   width="150.00999mm"
   height="149.95999mm"
   viewBox="0 0 15001 14995.999"
   preserveAspectRatio="xMidYMid"
   fill-rule="evenodd"
   stroke-width="28.222"
   stroke-linejoin="round"
   xml:space="preserve"
   id="svg45"
   sodipodi:docname="ID15a26.svg"
   inkscape:version="1.2.2 (b0a8486541, 2022-12-01)"
   xmlns:inkscape="http://www.inkscape.org/namespaces/inkscape"
   xmlns:sodipodi="http://sodipodi.sourceforge.net/DTD/sodipodi-0.dtd"
   xmlns="http://www.w3.org/2000/svg"
   xmlns:svg="http://www.w3.org/2000/svg"
   xmlns:ooo="http://xml.openoffice.org/svg/export"><sodipodi:namedview
   id="namedview45"
   pagecolor="#ffffff"
   bordercolor="#000000"
   borderopacity="0.25"
   inkscape:showpageshadow="2"
   inkscape:pageopacity="0.0"
   inkscape:pagecheckerboard="true"
   inkscape:deskcolor="#d1d1d1"
   inkscape:document-units="mm"
   fit-margin-top="50"
   fit-margin-left="50"
   fit-margin-right="50"
   fit-margin-bottom="50"
   showgrid="false"
   showguides="false"
   inkscape:zoom="4.0723013"
   inkscape:cx="531.27209"
   inkscape:cy="17.189298"
   inkscape:window-width="1280"
   inkscape:window-height="731"
   inkscape:window-x="0"
   inkscape:window-y="0"
   inkscape:window-maximized="1"
   inkscape:current-layer="svg45" />
 <defs
   class="ClipPathGroup"
   id="defs2">
  <clipPath
   id="presentation_clip_path"
   clipPathUnits="userSpaceOnUse">
   <rect
   x="0"
   y="0"
   width="21001"
   height="29703"
   id="rect1" />
  </clipPath>
  <clipPath
   id="presentation_clip_path_shrink"
   clipPathUnits="userSpaceOnUse">
   <rect
   x="21"
   y="29"
   width="20959"
   height="29644"
   id="rect2" />
  </clipPath>
 </defs>
 <defs
   class="TextShapeIndex"
   id="defs3">
  <g
   ooo:slide="id1"
   ooo:id-list="id3 id4 id5 id6 id7 id8 id9 id10 id11 id12"
   id="g2" />
 </defs>
 <defs
   class="EmbeddedBulletChars"
   id="defs12">
  <g
   id="bullet-char-template-57356"
   transform="matrix(4.8828125e-4,0,0,-4.8828125e-4,0,0)">
   <path
   d="M 580,1141 1163,571 580,0 -4,571 Z"
   id="path3" />
  </g>
  <g
   id="bullet-char-template-57354"
   transform="matrix(4.8828125e-4,0,0,-4.8828125e-4,0,0)">
   <path
   d="M 8,1128 H 1137 V 0 H 8 Z"
   id="path4" />
  </g>
  <g
   id="bullet-char-template-10146"
   transform="matrix(4.8828125e-4,0,0,-4.8828125e-4,0,0)">
   <path
   d="M 174,0 602,739 174,1481 1456,739 Z M 1358,739 309,1346 659,739 Z"
   id="path5" />
  </g>
  <g
   id="bullet-char-template-10132"
   transform="matrix(4.8828125e-4,0,0,-4.8828125e-4,0,0)">
   <path
   d="M 2015,739 1276,0 H 717 l 543,543 H 174 v 393 h 1086 l -543,545 h 557 z"
   id="path6" />
  </g>
  <g
   id="bullet-char-template-10007"
   transform="matrix(4.8828125e-4,0,0,-4.8828125e-4,0,0)">
   <path
   d="m 0,-2 c -7,16 -16,29 -25,39 l 381,530 c -94,256 -141,385 -141,387 0,25 13,38 40,38 9,0 21,-2 34,-5 21,4 42,12 65,25 l 27,-13 111,-251 280,301 64,-25 24,25 c 21,-10 41,-24 62,-43 C 886,937 835,863 770,784 769,783 710,716 594,584 L 774,223 c 0,-27 -21,-55 -63,-84 l 16,-20 C 717,90 699,76 672,76 641,76 570,178 457,381 L 164,-76 c -22,-34 -53,-51 -92,-51 -42,0 -63,17 -64,51 -7,9 -10,24 -10,44 0,9 1,19 2,30 z"
   id="path7" />
  </g>
  <g
   id="bullet-char-template-10004"
   transform="matrix(4.8828125e-4,0,0,-4.8828125e-4,0,0)">
   <path
   d="M 285,-33 C 182,-33 111,30 74,156 52,228 41,333 41,471 c 0,78 14,145 41,201 34,71 87,106 158,106 53,0 88,-31 106,-94 l 23,-176 c 8,-64 28,-97 59,-98 l 735,706 c 11,11 33,17 66,17 42,0 63,-15 63,-46 V 965 c 0,-36 -10,-64 -30,-84 L 442,47 C 390,-6 338,-33 285,-33 Z"
   id="path8" />
  </g>
  <g
   id="bullet-char-template-9679"
   transform="matrix(4.8828125e-4,0,0,-4.8828125e-4,0,0)">
   <path
   d="M 813,0 C 632,0 489,54 383,161 276,268 223,411 223,592 c 0,181 53,324 160,431 106,107 249,161 430,161 179,0 323,-54 432,-161 108,-107 162,-251 162,-431 0,-180 -54,-324 -162,-431 C 1136,54 992,0 813,0 Z"
   id="path9" />
  </g>
  <g
   id="bullet-char-template-8226"
   transform="matrix(4.8828125e-4,0,0,-4.8828125e-4,0,0)">
   <path
   d="m 346,457 c -73,0 -137,26 -191,78 -54,51 -81,114 -81,188 0,73 27,136 81,188 54,52 118,78 191,78 73,0 134,-26 185,-79 51,-51 77,-114 77,-187 0,-75 -25,-137 -76,-188 -50,-52 -112,-78 -186,-78 z"
   id="path10" />
  </g>
  <g
   id="bullet-char-template-8211"
   transform="matrix(4.8828125e-4,0,0,-4.8828125e-4,0,0)">
   <path
   d="M -4,459 H 1135 V 606 H -4 Z"
   id="path11" />
  </g>
  <g
   id="bullet-char-template-61548"
   transform="matrix(4.8828125e-4,0,0,-4.8828125e-4,0,0)">
   <path
   d="m 173,740 c 0,163 58,303 173,419 116,115 255,173 419,173 163,0 302,-58 418,-173 116,-116 174,-256 174,-419 0,-163 -58,-303 -174,-418 C 1067,206 928,148 765,148 601,148 462,206 346,322 231,437 173,577 173,740 Z"
   id="path12" />
  </g>
 </defs>
 <g
   id="g12"
   transform="translate(-2652,-5770)">
  <g
   id="id2"
   class="Master_Slide">
   <g
   id="bg-id2"
   class="Background" />
   <g
   id="bo-id2"
   class="BackgroundObjects" />
  </g>
 </g>
 <g
   class="SlideGroup"
   id="g45"
   transform="translate(-2652,-5770)">
  <g
   id="g44">
   <g
   id="container-id1">
    <g
   id="id1"
   class="Slide"
   clip-path="url(#presentation_clip_path)">
     <g
   class="Page"
   id="g43">
      <g
   class="Group"
   id="g42">
       <g
   class="com.sun.star.drawing.PolyPolygonShape"
   id="g13">
        <g
   id="id3">
         <rect
   class="BoundingBox"
   stroke="none"
   fill="none"
   x="2652"
   y="5770"
   width="15001"
   height="14996"
   id="rect12" />
         <path
   fill="#fefefe"
   stroke="none"
   d="M 2653,5770 V 20765 H 17652 V 5770 Z"
   id="path13" />
        </g>
       </g>
       <g
   class="Group"
   id="g18"
   style="display:none">
        <g
   class="com.sun.star.drawing.LineShape"
   id="g14">
         <g
   id="id4">
          <rect
   class="BoundingBox"
   stroke="none"
   fill="none"
   x="2628"
   y="5771"
   width="53"
   height="14994"
   id="rect13" />
          <path
   fill="none"
   stroke="#1b1918"
   stroke-width="51"
   stroke-linejoin="miter"
   d="M 2654,20764 V 5771"
   id="path14" />
         </g>
        </g>
        <g
   class="com.sun.star.drawing.LineShape"
   id="g15">
         <g
   id="id5">
          <rect
   class="BoundingBox"
   stroke="none"
   fill="none"
   x="2654"
   y="20739"
   width="14997"
   height="53"
   id="rect14" />
          <path
   fill="none"
   stroke="#1b1918"
   stroke-width="51"
   stroke-linejoin="miter"
   d="M 17650,20765 H 2654"
   id="path15" />
         </g>
        </g>
        <g
   class="com.sun.star.drawing.LineShape"
   id="g16">
         <g
   id="id6">
          <rect
   class="BoundingBox"
   stroke="none"
   fill="none"
   x="17624"
   y="5771"
   width="53"
   height="14994"
   id="rect15" />
          <path
   fill="none"
   stroke="#1b1918"
   stroke-width="51"
   stroke-linejoin="miter"
   d="M 17650,5771 V 20764"
   id="path16" />
         </g>
        </g>
        <g
   class="com.sun.star.drawing.LineShape"
   id="g17">
         <g
   id="id7">
          <rect
   class="BoundingBox"
   stroke="none"
   fill="none"
   x="2654"
   y="5745"
   width="14997"
   height="53"
   id="rect16" />
          <path
   fill="none"
   stroke="#1b1918"
   stroke-width="51"
   stroke-linejoin="miter"
   d="M 2654,5771 H 17650"
   id="path17" />
         </g>
        </g>
       </g>
       <g
   class="com.sun.star.drawing.ClosedBezierShape"
   id="g19">
        <g
   id="id8">
         <rect
   class="BoundingBox"
   stroke="none"
   fill="none"
   x="11747"
   y="6271"
   width="5405"
   height="13995"
   id="rect18" />
         <path
   fill="#826500"
   stroke="none"
   d="m 11747,20265 5404,-2 V 6271 l -5404,2 c 449,279 807,536 1198,993 l 3208,3 v 11996 h -3208 c -322,398 -762,724 -1198,1000 z"
   id="path18" />
        </g>
       </g>
       <g
   class="com.sun.star.drawing.ClosedBezierShape"
   id="g20">
        <g
   id="id9">
         <rect
   class="BoundingBox"
   stroke="none"
   fill="none"
   x="3155"
   y="6270"
   width="5394"
   height="13996"
   id="rect19" />
         <path
   fill="#826500"
   stroke="none"
   d="m 8548,20265 -5393,-2 V 6271 l 5393,2 c -427,252 -843,561 -1199,993 l -3196,3 v 11996 h 3196 c 320,403 775,726 1199,1000 z"
   id="path19" />
        </g>
       </g>
       <g
   class="com.sun.star.drawing.ClosedBezierShape"
   id="g21">
        <g
   id="id10">
         <rect
   class="BoundingBox"
   stroke="none"
   fill="none"
   x="5893"
   y="6265"
   width="8518"
   height="13999"
   id="rect20" />
         <path
   fill="#826500"
   stroke="none"
   d="m 10151,20263 c 2350,0 4259,-3136 4259,-7001 0,-3868 -1909,-6997 -4259,-6997 -2350,0 -4258,3129 -4258,6997 0,3865 1908,7001 4258,7001 z"
   id="path20" />
        </g>
       </g>
       <g
   class="com.sun.star.drawing.ClosedBezierShape"
   id="g40">
        <g
   id="id11">
         <rect
   class="BoundingBox"
   stroke="none"
   fill="none"
   x="6770"
   y="11336"
   width="6767"
   height="6764"
   id="rect21" />
         <path
   fill="#ffffff"
   stroke="none"
   d="m 13161,13276 c -327,-747 -1112,-1429 -1875,-1689 -1023,-392 -2292,-178 -3133,459 -1135,860 -1572,2275 -1199,3636 277,1012 1258,1976 2261,2241 1392,369 2795,-114 3661,-1265 681,-906 804,-2373 285,-3382 z m 0,0 z m 248,1372 c -933,-601 -1508,-1587 -1531,-2683 956,598 1501,1596 1531,2683 z m 0,0 z m -363,-159 c -723,-322 -1732,-308 -2461,-12 693,-556 1095,-1299 1232,-2118 120,830 553,1574 1229,2130 z m 0,0 z m 271,237 c -260,187 -573,271 -886,335 -695,143 -1447,40 -2042,-251 l -120,-84 c 858,-500 2185,-494 3048,0 z m 0,0 z m -3110,-98 c 9,-804 316,-1514 841,-2099 213,-237 456,-425 710,-576 -36,1079 -603,2083 -1551,2675 z m 0,0 z M 9044,12177 c 671,232 1529,249 2200,3 -587,536 -967,1183 -1105,1920 -128,-737 -505,-1392 -1095,-1923 z m 0,0 z m 2231,5098 c -690,-262 -1627,-265 -2312,14 643,-536 1028,-1219 1174,-1982 138,755 506,1429 1138,1968 z m 0,0 z m 416,-5422 c -291,243 -671,296 -1028,383 -652,86 -1325,-3 -1879,-266 -58,-36 -109,-92 -176,-109 869,-516 2209,-513 3083,-8 z m 0,0 z m -2370,746 c 478,582 746,1258 763,2021 -378,-182 -693,-514 -945,-863 -374,-523 -581,-1127 -598,-1804 296,129 553,389 780,646 z m 0,0 z m 234,1795 c -651,-241 -1519,-243 -2165,5 578,-519 961,-1168 1095,-1898 137,722 495,1362 1070,1893 z m 0,0 z m 459,338 c -864,500 -2194,494 -3051,-17 v -11 c 871,-472 2201,-553 3051,28 z m 0,0 z M 8424,11965 c 64,357 -48,712 -159,1028 -210,588 -646,1152 -1191,1535 l -170,84 c 31,-1087 581,-2047 1520,-2647 z m 0,0 z m -1520,2828 c 690,408 1185,1109 1405,1826 70,279 134,561 140,869 -964,-596 -1528,-1597 -1545,-2695 z m 0,0 z m 430,199 c 713,268 1665,282 2370,-12 -654,526 -1059,1235 -1207,2010 -140,-764 -520,-1456 -1163,-1998 z m 0,0 z m 2750,-168 c -42,1073 -604,2043 -1537,2630 39,-1074 609,-2046 1537,-2630 z m 0,0 z m -1504,2742 c 313,-196 663,-305 1031,-361 745,-117 1485,20 2083,375 -883,519 -2236,511 -3114,-14 z m 0,0 z m 1622,-2725 c 760,380 1235,1170 1444,1934 48,224 93,456 95,701 -952,-584 -1492,-1565 -1539,-2635 z m 0,0 z m 520,220 c 648,235 1497,235 2145,0 -570,520 -927,1177 -1067,1901 -148,-722 -492,-1370 -1078,-1901 z m 0,0 z m 1134,2427 c -31,-439 95,-841 249,-1214 212,-509 581,-981 1061,-1327 l 238,-115 c -64,1073 -590,2074 -1548,2656 z"
   id="path21" />
         <path
   fill="none"
   stroke="#ffffff"
   stroke-width="107"
   stroke-linejoin="miter"
   d="m 13161,13276 c -327,-747 -1112,-1429 -1875,-1689 -1023,-392 -2292,-178 -3133,459 -1135,860 -1572,2275 -1199,3636 277,1012 1258,1976 2261,2241 1392,369 2795,-114 3661,-1265 681,-906 804,-2373 285,-3382 z"
   id="path22" />
         <path
   fill="none"
   stroke="#ffffff"
   stroke-width="107"
   stroke-linejoin="miter"
   d="m 13409,14648 c -933,-601 -1508,-1587 -1531,-2683 956,598 1501,1596 1531,2683 z"
   id="path23" />
         <path
   fill="none"
   stroke="#ffffff"
   stroke-width="107"
   stroke-linejoin="miter"
   d="m 13046,14489 c -723,-322 -1732,-308 -2461,-12 693,-556 1095,-1299 1232,-2118 120,830 553,1574 1229,2130 z"
   id="path24" />
         <path
   fill="none"
   stroke="#ffffff"
   stroke-width="107"
   stroke-linejoin="miter"
   d="m 13317,14726 c -260,187 -573,271 -886,335 -695,143 -1447,40 -2042,-251 l -120,-84 c 858,-500 2185,-494 3048,0 z"
   id="path25" />
         <path
   fill="none"
   stroke="#ffffff"
   stroke-width="107"
   stroke-linejoin="miter"
   d="m 10207,14628 c 9,-804 316,-1514 841,-2099 213,-237 456,-425 710,-576 -36,1079 -603,2083 -1551,2675 z"
   id="path26" />
         <path
   fill="none"
   stroke="#ffffff"
   stroke-width="107"
   stroke-linejoin="miter"
   d="m 9044,12177 c 671,232 1529,249 2200,3 -587,536 -967,1183 -1105,1920 -128,-737 -505,-1392 -1095,-1923 z"
   id="path27" />
         <path
   fill="none"
   stroke="#ffffff"
   stroke-width="107"
   stroke-linejoin="miter"
   d="m 11275,17275 c -690,-262 -1627,-265 -2312,14 643,-536 1028,-1219 1174,-1982 138,755 506,1429 1138,1968 z"
   id="path28" />
         <path
   fill="none"
   stroke="#ffffff"
   stroke-width="107"
   stroke-linejoin="miter"
   d="m 11691,11853 c -291,243 -671,296 -1028,383 -652,86 -1325,-3 -1879,-266 -58,-36 -109,-92 -176,-109 869,-516 2209,-513 3083,-8 z"
   id="path29" />
         <path
   fill="none"
   stroke="#ffffff"
   stroke-width="107"
   stroke-linejoin="miter"
   d="m 9321,12599 c 478,582 746,1258 763,2021 -378,-182 -693,-514 -945,-863 -374,-523 -581,-1127 -598,-1804 296,129 553,389 780,646 z"
   id="path30" />
         <path
   fill="none"
   stroke="#ffffff"
   stroke-width="107"
   stroke-linejoin="miter"
   d="m 9555,14394 c -651,-241 -1519,-243 -2165,5 578,-519 961,-1168 1095,-1898 137,722 495,1362 1070,1893 z"
   id="path31" />
         <path
   fill="none"
   stroke="#ffffff"
   stroke-width="107"
   stroke-linejoin="miter"
   d="m 10014,14732 c -864,500 -2194,494 -3051,-17 v -11 c 871,-472 2201,-553 3051,28 z"
   id="path32" />
         <path
   fill="none"
   stroke="#ffffff"
   stroke-width="107"
   stroke-linejoin="miter"
   d="m 8424,11965 c 64,357 -48,712 -159,1028 -210,588 -646,1152 -1191,1535 l -170,84 c 31,-1087 581,-2047 1520,-2647 z"
   id="path33" />
         <path
   fill="none"
   stroke="#ffffff"
   stroke-width="107"
   stroke-linejoin="miter"
   d="m 6904,14793 c 690,408 1185,1109 1405,1826 70,279 134,561 140,869 -964,-596 -1528,-1597 -1545,-2695 z"
   id="path34" />
         <path
   fill="none"
   stroke="#ffffff"
   stroke-width="107"
   stroke-linejoin="miter"
   d="m 7334,14992 c 713,268 1665,282 2370,-12 -654,526 -1059,1235 -1207,2010 -140,-764 -520,-1456 -1163,-1998 z"
   id="path35" />
         <path
   fill="none"
   stroke="#ffffff"
   stroke-width="107"
   stroke-linejoin="miter"
   d="m 10084,14824 c -42,1073 -604,2043 -1537,2630 39,-1074 609,-2046 1537,-2630 z"
   id="path36" />
         <path
   fill="none"
   stroke="#ffffff"
   stroke-width="107"
   stroke-linejoin="miter"
   d="m 8580,17566 c 313,-196 663,-305 1031,-361 745,-117 1485,20 2083,375 -883,519 -2236,511 -3114,-14 z"
   id="path37" />
         <path
   fill="none"
   stroke="#ffffff"
   stroke-width="107"
   stroke-linejoin="miter"
   d="m 10202,14841 c 760,380 1235,1170 1444,1934 48,224 93,456 95,701 -952,-584 -1492,-1565 -1539,-2635 z"
   id="path38" />
         <path
   fill="none"
   stroke="#ffffff"
   stroke-width="107"
   stroke-linejoin="miter"
   d="m 10722,15061 c 648,235 1497,235 2145,0 -570,520 -927,1177 -1067,1901 -148,-722 -492,-1370 -1078,-1901 z"
   id="path39" />
         <path
   fill="none"
   stroke="#ffffff"
   stroke-width="107"
   stroke-linejoin="miter"
   d="m 11856,17488 c -31,-439 95,-841 249,-1214 212,-509 581,-981 1061,-1327 l 238,-115 c -64,1073 -590,2074 -1548,2656 z"
   id="path40" />
        </g>
       </g>
       <g
   class="com.sun.star.drawing.ClosedBezierShape"
   id="g41">
        <g
   id="id12">
         <rect
   class="BoundingBox"
   stroke="none"
   fill="none"
   x="7995"
   y="7214"
   width="2422"
   height="2136"
   id="rect40" />
         <path
   fill="#ffffff"
   stroke="none"
   d="m 9432,7242 c 47,6 92,12 137,26 11,5 19,11 25,19 5,39 -266,548 -288,612 5,-3 17,17 31,8 42,-58 64,-64 72,-67 39,-39 146,-103 146,-103 30,-22 181,-126 229,-154 37,-5 54,-28 84,-33 20,-6 45,-6 59,11 17,22 45,42 48,75 19,53 47,98 58,154 14,6 -2,17 0,25 -19,14 -36,23 -53,39 -3,-2 -5,6 -11,9 -14,3 -25,22 -39,22 -84,67 -163,117 -247,182 v 2 c 205,37 392,107 579,190 31,12 62,27 90,43 h 5 c 23,20 59,17 59,51 -3,14 -3,22 -14,30 -28,37 -33,87 -61,123 -17,14 -37,28 -59,28 -17,9 -31,3 -50,11 -9,-8 -20,-16 -31,-11 -34,14 -73,25 -106,11 -64,-33 -129,-69 -196,-92 -138,-53 -277,-89 -431,-98 l -98,3 c -11,3 -11,11 -8,20 11,19 31,28 47,42 70,81 160,170 241,237 78,76 159,140 235,213 53,41 28,111 45,167 0,11 0,25 -11,31 -9,0 -14,6 -20,11 -28,8 -47,28 -70,42 -11,11 -14,20 -23,31 v 3 c -17,27 -45,39 -78,41 -6,3 -14,6 -20,9 -17,-6 -22,19 -36,8 -50,-56 -117,-98 -171,-159 -27,-20 -50,-48 -81,-67 -86,-87 -150,-168 -240,-252 -3,9 -3,12 0,23 -8,67 11,134 17,195 14,73 25,146 39,221 11,48 20,95 14,148 -3,6 0,17 -11,20 -28,14 -56,0 -84,-6 -6,-11 -20,-8 -28,-14 -17,3 -36,-3 -50,3 -9,-3 -14,8 -23,3 -5,8 -5,-3 -11,0 -19,-3 -39,-6 -58,-9 -20,-8 -42,-8 -62,-16 -8,-12 -8,-26 -11,-39 -28,-132 -56,-274 -62,-408 -5,-26 3,-51 -2,-73 -90,87 -165,184 -224,291 -22,16 -32,64 -68,47 -3,0 -5,-6 -8,-3 -6,-3 -9,-11 -9,-17 -8,-14 -19,-16 -28,-25 -36,-2 -69,-16 -103,-25 -20,-8 -22,-31 -39,-39 -3,-25 -39,-25 -39,-47 -9,-12 -6,-17 0,-26 14,-11 17,-30 28,-44 67,-95 139,-190 215,-277 62,-81 146,-159 202,-249 11,-19 -17,-19 -22,-30 -20,-11 -48,-3 -67,-11 -56,0 -102,-12 -155,-3 -36,-9 -84,30 -106,-14 -3,-6 -9,-14 -14,-14 -11,8 -28,8 -34,19 -14,3 -36,0 -53,3 -64,14 -134,17 -198,25 -17,3 -39,11 -56,6 -22,-11 -20,-39 -25,-62 -17,-9 -23,-29 -34,-43 -5,-30 -11,-55 -16,-83 0,-3 2,-12 8,-12 5,0 11,0 14,-5 l -6,-14 c 14,-17 34,-17 51,-28 47,-22 103,-22 153,-36 112,-20 232,-17 349,-20 6,-5 -5,-11 -5,-17 -22,-33 -42,-70 -62,-109 -33,-53 -78,-100 -109,-156 -14,-11 -22,-28 -33,-36 -8,-12 -14,-28 -25,-42 0,-23 -20,-62 8,-76 62,-56 120,-114 193,-153 -3,-14 14,-6 20,-14 2,8 11,2 16,2 28,6 38,37 52,56 8,20 5,51 28,59 61,36 67,109 111,159 39,76 104,132 154,199 8,2 8,14 19,16 0,9 12,6 9,14 17,-44 31,-95 47,-142 28,-78 42,-159 73,-238 3,-33 22,-61 28,-95 17,-30 22,-67 39,-100 0,-20 17,-34 17,-53 3,-3 45,-70 45,-76 11,-11 25,-30 44,-30 67,5 132,27 199,27 z"
   id="path41" />
        </g>
       </g>
      </g>
     </g>
    </g>
   </g>
  </g>
 </g>
</svg>
