<?xml version="1.0" encoding="UTF-8" standalone="no"?>
<svg
   version="1.2"
   width="150.00999mm"
   height="149.95999mm"
   viewBox="0 0 15001 14995.999"
   preserveAspectRatio="xMidYMid"
   fill-rule="evenodd"
   stroke-width="28.222"
   stroke-linejoin="round"
   xml:space="preserve"
   id="svg30"
   sodipodi:docname="ID15a11.svg"
   inkscape:version="1.2.2 (b0a8486541, 2022-12-01)"
   xmlns:inkscape="http://www.inkscape.org/namespaces/inkscape"
   xmlns:sodipodi="http://sodipodi.sourceforge.net/DTD/sodipodi-0.dtd"
   xmlns="http://www.w3.org/2000/svg"
   xmlns:svg="http://www.w3.org/2000/svg"
   xmlns:ooo="http://xml.openoffice.org/svg/export"><sodipodi:namedview
   id="namedview30"
   pagecolor="#ffffff"
   bordercolor="#000000"
   borderopacity="0.25"
   inkscape:showpageshadow="2"
   inkscape:pageopacity="0.0"
   inkscape:pagecheckerboard="true"
   inkscape:deskcolor="#d1d1d1"
   inkscape:document-units="mm"
   fit-margin-top="50"
   fit-margin-left="50"
   fit-margin-right="50"
   fit-margin-bottom="50"
   showgrid="false"
   inkscape:zoom="5.6924421"
   inkscape:cx="543.79122"
   inkscape:cy="26.526401"
   inkscape:window-width="1280"
   inkscape:window-height="731"
   inkscape:window-x="0"
   inkscape:window-y="0"
   inkscape:window-maximized="1"
   inkscape:current-layer="svg30" />
 <defs
   class="ClipPathGroup"
   id="defs2">
  <clipPath
   id="presentation_clip_path"
   clipPathUnits="userSpaceOnUse">
   <rect
   x="0"
   y="0"
   width="21001"
   height="29703"
   id="rect1" />
  </clipPath>
  <clipPath
   id="presentation_clip_path_shrink"
   clipPathUnits="userSpaceOnUse">
   <rect
   x="21"
   y="29"
   width="20959"
   height="29644"
   id="rect2" />
  </clipPath>
 </defs>
 <defs
   class="TextShapeIndex"
   id="defs3">
  <g
   ooo:slide="id1"
   ooo:id-list="id3 id4 id5 id6 id7 id8 id9 id10 id11 id12 id13 id14 id15"
   id="g2" />
 </defs>
 <defs
   class="EmbeddedBulletChars"
   id="defs12">
  <g
   id="bullet-char-template-57356"
   transform="matrix(4.8828125e-4,0,0,-4.8828125e-4,0,0)">
   <path
   d="M 580,1141 1163,571 580,0 -4,571 Z"
   id="path3" />
  </g>
  <g
   id="bullet-char-template-57354"
   transform="matrix(4.8828125e-4,0,0,-4.8828125e-4,0,0)">
   <path
   d="M 8,1128 H 1137 V 0 H 8 Z"
   id="path4" />
  </g>
  <g
   id="bullet-char-template-10146"
   transform="matrix(4.8828125e-4,0,0,-4.8828125e-4,0,0)">
   <path
   d="M 174,0 602,739 174,1481 1456,739 Z M 1358,739 309,1346 659,739 Z"
   id="path5" />
  </g>
  <g
   id="bullet-char-template-10132"
   transform="matrix(4.8828125e-4,0,0,-4.8828125e-4,0,0)">
   <path
   d="M 2015,739 1276,0 H 717 l 543,543 H 174 v 393 h 1086 l -543,545 h 557 z"
   id="path6" />
  </g>
  <g
   id="bullet-char-template-10007"
   transform="matrix(4.8828125e-4,0,0,-4.8828125e-4,0,0)">
   <path
   d="m 0,-2 c -7,16 -16,29 -25,39 l 381,530 c -94,256 -141,385 -141,387 0,25 13,38 40,38 9,0 21,-2 34,-5 21,4 42,12 65,25 l 27,-13 111,-251 280,301 64,-25 24,25 c 21,-10 41,-24 62,-43 C 886,937 835,863 770,784 769,783 710,716 594,584 L 774,223 c 0,-27 -21,-55 -63,-84 l 16,-20 C 717,90 699,76 672,76 641,76 570,178 457,381 L 164,-76 c -22,-34 -53,-51 -92,-51 -42,0 -63,17 -64,51 -7,9 -10,24 -10,44 0,9 1,19 2,30 z"
   id="path7" />
  </g>
  <g
   id="bullet-char-template-10004"
   transform="matrix(4.8828125e-4,0,0,-4.8828125e-4,0,0)">
   <path
   d="M 285,-33 C 182,-33 111,30 74,156 52,228 41,333 41,471 c 0,78 14,145 41,201 34,71 87,106 158,106 53,0 88,-31 106,-94 l 23,-176 c 8,-64 28,-97 59,-98 l 735,706 c 11,11 33,17 66,17 42,0 63,-15 63,-46 V 965 c 0,-36 -10,-64 -30,-84 L 442,47 C 390,-6 338,-33 285,-33 Z"
   id="path8" />
  </g>
  <g
   id="bullet-char-template-9679"
   transform="matrix(4.8828125e-4,0,0,-4.8828125e-4,0,0)">
   <path
   d="M 813,0 C 632,0 489,54 383,161 276,268 223,411 223,592 c 0,181 53,324 160,431 106,107 249,161 430,161 179,0 323,-54 432,-161 108,-107 162,-251 162,-431 0,-180 -54,-324 -162,-431 C 1136,54 992,0 813,0 Z"
   id="path9" />
  </g>
  <g
   id="bullet-char-template-8226"
   transform="matrix(4.8828125e-4,0,0,-4.8828125e-4,0,0)">
   <path
   d="m 346,457 c -73,0 -137,26 -191,78 -54,51 -81,114 -81,188 0,73 27,136 81,188 54,52 118,78 191,78 73,0 134,-26 185,-79 51,-51 77,-114 77,-187 0,-75 -25,-137 -76,-188 -50,-52 -112,-78 -186,-78 z"
   id="path10" />
  </g>
  <g
   id="bullet-char-template-8211"
   transform="matrix(4.8828125e-4,0,0,-4.8828125e-4,0,0)">
   <path
   d="M -4,459 H 1135 V 606 H -4 Z"
   id="path11" />
  </g>
  <g
   id="bullet-char-template-61548"
   transform="matrix(4.8828125e-4,0,0,-4.8828125e-4,0,0)">
   <path
   d="m 173,740 c 0,163 58,303 173,419 116,115 255,173 419,173 163,0 302,-58 418,-173 116,-116 174,-256 174,-419 0,-163 -58,-303 -174,-418 C 1067,206 928,148 765,148 601,148 462,206 346,322 231,437 173,577 173,740 Z"
   id="path12" />
  </g>
 </defs>
 <g
   id="g12"
   transform="translate(-2652,-5770)">
  <g
   id="id2"
   class="Master_Slide">
   <g
   id="bg-id2"
   class="Background" />
   <g
   id="bo-id2"
   class="BackgroundObjects" />
  </g>
 </g>
 <g
   class="SlideGroup"
   id="g30"
   transform="translate(-2652,-5770)">
  <g
   id="g29">
   <g
   id="container-id1">
    <g
   id="id1"
   class="Slide"
   clip-path="url(#presentation_clip_path)">
     <g
   class="Page"
   id="g28">
      <g
   class="Group"
   id="g27">
       <g
   class="com.sun.star.drawing.PolyPolygonShape"
   id="g13">
        <g
   id="id3">
         <rect
   class="BoundingBox"
   stroke="none"
   fill="none"
   x="2652"
   y="5770"
   width="15001"
   height="14996"
   id="rect12" />
         <path
   fill="#fefefe"
   stroke="none"
   d="M 2653,5770 V 20765 H 17652 V 5770 Z"
   id="path13" />
        </g>
       </g>
       <g
   class="Group"
   id="g18"
   style="display:none">
        <g
   class="com.sun.star.drawing.LineShape"
   id="g14">
         <g
   id="id4">
          <rect
   class="BoundingBox"
   stroke="none"
   fill="none"
   x="2628"
   y="5771"
   width="53"
   height="14994"
   id="rect13" />
          <path
   fill="none"
   stroke="#1b1918"
   stroke-width="51"
   stroke-linejoin="miter"
   d="M 2654,20764 V 5771"
   id="path14" />
         </g>
        </g>
        <g
   class="com.sun.star.drawing.LineShape"
   id="g15">
         <g
   id="id5">
          <rect
   class="BoundingBox"
   stroke="none"
   fill="none"
   x="2654"
   y="20739"
   width="14997"
   height="53"
   id="rect14" />
          <path
   fill="none"
   stroke="#1b1918"
   stroke-width="51"
   stroke-linejoin="miter"
   d="M 17650,20765 H 2654"
   id="path15" />
         </g>
        </g>
        <g
   class="com.sun.star.drawing.LineShape"
   id="g16">
         <g
   id="id6">
          <rect
   class="BoundingBox"
   stroke="none"
   fill="none"
   x="17624"
   y="5771"
   width="53"
   height="14994"
   id="rect15" />
          <path
   fill="none"
   stroke="#1b1918"
   stroke-width="51"
   stroke-linejoin="miter"
   d="M 17650,5771 V 20764"
   id="path16" />
         </g>
        </g>
        <g
   class="com.sun.star.drawing.LineShape"
   id="g17">
         <g
   id="id7">
          <rect
   class="BoundingBox"
   stroke="none"
   fill="none"
   x="2654"
   y="5745"
   width="14997"
   height="53"
   id="rect16" />
          <path
   fill="none"
   stroke="#1b1918"
   stroke-width="51"
   stroke-linejoin="miter"
   d="M 2654,5771 H 17650"
   id="path17" />
         </g>
        </g>
       </g>
       <g
   class="com.sun.star.drawing.ClosedBezierShape"
   id="g19">
        <g
   id="id8">
         <rect
   class="BoundingBox"
   stroke="none"
   fill="none"
   x="11747"
   y="6271"
   width="5405"
   height="13995"
   id="rect18" />
         <path
   fill="#826500"
   stroke="none"
   d="m 11747,20265 5404,-2 V 6271 l -5404,2 c 449,279 807,536 1198,993 l 3208,3 v 11996 h -3208 c -322,398 -762,724 -1198,1000 z"
   id="path18" />
        </g>
       </g>
       <g
   class="com.sun.star.drawing.ClosedBezierShape"
   id="g20">
        <g
   id="id9">
         <rect
   class="BoundingBox"
   stroke="none"
   fill="none"
   x="3155"
   y="6270"
   width="5394"
   height="13996"
   id="rect19" />
         <path
   fill="#826500"
   stroke="none"
   d="m 8548,20265 -5393,-2 V 6271 l 5393,2 c -427,252 -843,561 -1199,993 l -3196,3 v 11996 h 3196 c 320,403 775,726 1199,1000 z"
   id="path19" />
        </g>
       </g>
       <g
   class="com.sun.star.drawing.ClosedBezierShape"
   id="g21">
        <g
   id="id10">
         <rect
   class="BoundingBox"
   stroke="none"
   fill="none"
   x="5900"
   y="6272"
   width="8558"
   height="13995"
   id="rect20" />
         <path
   fill="#826500"
   stroke="none"
   d="m 14318,14932 h -3814 c 105,392 890,3299 1037,3825 0,0 -56,60 -199,199 -343,331 -736,564 -1217,619 0,0 -22,6 -28,6 v -4649 0 -3713 h 241 v 907 l 968,-822 152,183 -1120,945 v 330 l 512,-435 138,172 -650,594 v 1233 l 824,-702 v -912 h 257 v 677 l 326,-287 3,-1883 h 246 l -3,1659 1038,-871 147,171 -875,755 h 836 v 243 h -1115 c -75,67 -166,138 -232,202 h 412 l -3,254 h -705 c -177,152 -1156,1032 -1156,1032 h 1286 c 398,-327 1245,-1032 1245,-1032 l 144,175 c -324,282 -1016,857 -1016,857 h 2357 c 69,-468 107,-968 102,-1460 -42,-3642 -1883,-6932 -4198,-6932 -2354,0 -4358,2858 -4358,7095 0,3808 1882,6899 4195,6899 2154,0 3722,-2314 4223,-5334 z"
   id="path20" />
        </g>
       </g>
       <g
   class="com.sun.star.drawing.ClosedBezierShape"
   id="g22">
        <g
   id="id11">
         <rect
   class="BoundingBox"
   stroke="none"
   fill="none"
   x="6285"
   y="11177"
   width="3619"
   height="6842"
   id="rect21" />
         <path
   fill="#ffffff"
   stroke="none"
   d="m 9867,14929 v 2147 c -17,28 -265,254 -265,254 -238,172 -542,343 -853,271 -55,22 -127,304 -160,376 l -498,-94 182,-641 c 0,0 -442,226 -647,337 -27,-5 -259,-282 -287,-343 17,-38 50,-61 72,-99 486,-664 940,-1306 1415,-1959 61,-83 162,-182 250,-246 H 6321 v -268 h 1510 l -847,-874 c -3,0 202,-179 202,-179 l 1005,1053 H 9461 L 8453,13633 h -699 l 2,-268 h 437 l -188,-194 H 6815 v -269 h 917 l -632,-655 186,-191 783,807 3,-1650 h 248 v 1914 l 233,229 c 0,0 -6,-437 0,-659 h 249 v 914 l 816,835 v -1325 l -622,-623 177,-174 c 105,111 445,442 445,442 v -262 l -1040,-1070 190,-177 850,876 v -915 h 246 v 3711 z"
   id="path21" />
         <path
   fill="none"
   stroke="#ffffff"
   stroke-width="71"
   stroke-linejoin="miter"
   d="m 9867,14929 v 2147 c -17,28 -265,254 -265,254 -238,172 -542,343 -853,271 -55,22 -127,304 -160,376 l -498,-94 182,-641 c 0,0 -442,226 -647,337 -27,-5 -259,-282 -287,-343 17,-38 50,-61 72,-99 486,-664 940,-1306 1415,-1959 61,-83 162,-182 250,-246 H 6321 v -268 h 1510 l -847,-874 c -3,0 202,-179 202,-179 l 1005,1053 H 9461 L 8453,13633 h -699 l 2,-268 h 437 l -188,-194 H 6815 v -269 h 917 l -632,-655 186,-191 783,807 3,-1650 h 248 v 1914 l 233,229 c 0,0 -6,-437 0,-659 h 249 v 914 l 816,835 v -1325 l -622,-623 177,-174 c 105,111 445,442 445,442 v -262 l -1040,-1070 190,-177 850,876 v -915 h 246 v 3711 z"
   id="path22" />
        </g>
       </g>
       <g
   class="com.sun.star.drawing.LineShape"
   id="g23">
        <g
   id="id12">
         <rect
   class="BoundingBox"
   stroke="none"
   fill="none"
   x="9868"
   y="14901"
   width="3"
   height="73"
   id="rect22" />
         <path
   fill="none"
   stroke="#ffffff"
   stroke-width="71"
   stroke-linejoin="miter"
   d="m 9868,14937 h 2"
   id="path23" />
        </g>
       </g>
       <g
   class="com.sun.star.drawing.LineShape"
   id="g24">
        <g
   id="id13">
         <rect
   class="BoundingBox"
   stroke="none"
   fill="none"
   x="9836"
   y="14905"
   width="60"
   height="60"
   id="rect23" />
         <path
   fill="none"
   stroke="#ffffff"
   stroke-width="71"
   stroke-linejoin="miter"
   d="m 9862,14931 7,7"
   id="path24" />
        </g>
       </g>
       <g
   class="com.sun.star.drawing.ClosedBezierShape"
   id="g25">
        <g
   id="id14">
         <rect
   class="BoundingBox"
   stroke="none"
   fill="none"
   x="8836"
   y="15406"
   width="647"
   height="646"
   id="rect24" />
         <path
   fill="#826500"
   stroke="none"
   d="m 9157,16051 c 180,0 324,-144 324,-324 0,-177 -144,-321 -324,-321 -180,0 -321,144 -321,321 0,180 141,324 321,324 z"
   id="path25" />
        </g>
       </g>
       <g
   class="com.sun.star.drawing.ClosedBezierShape"
   id="g26">
        <g
   id="id15">
         <rect
   class="BoundingBox"
   stroke="none"
   fill="none"
   x="8170"
   y="7285"
   width="2396"
   height="2113"
   id="rect25" />
         <path
   fill="#ffffff"
   stroke="none"
   d="m 9589,7310 c 50,6 94,11 138,25 11,6 19,9 25,20 6,41 -265,544 -285,605 3,0 17,19 28,11 41,-58 66,-63 72,-66 41,-39 146,-102 146,-102 31,-23 180,-125 227,-153 33,-5 53,-27 83,-33 19,-5 44,-5 58,9 17,24 44,44 47,77 17,50 47,97 58,149 14,6 -3,20 0,28 -19,14 -36,22 -52,39 -6,-3 -9,5 -12,8 -16,3 -24,22 -41,22 -80,66 -158,113 -241,177 v 3 c 202,38 388,108 573,191 30,11 61,25 88,42 h 6 c 22,17 55,17 58,50 -3,11 -3,22 -14,30 -28,36 -33,83 -61,122 -16,14 -36,27 -58,27 -16,9 -33,3 -50,9 -8,-6 -19,-14 -30,-9 -33,12 -72,25 -108,9 -61,-33 -124,-67 -191,-89 -135,-52 -273,-88 -428,-96 h -97 c -8,5 -8,13 -8,22 14,19 33,25 49,41 70,80 158,166 238,235 75,75 158,136 233,210 52,42 27,111 41,166 3,11 3,25 -8,31 -11,0 -14,5 -22,11 -25,8 -45,27 -67,41 -11,11 -16,17 -22,31 v 2 c -16,28 -44,36 -77,42 -6,3 -14,5 -22,8 -14,-5 -20,17 -34,8 -49,-55 -116,-99 -168,-157 -28,-20 -50,-47 -83,-67 -83,-85 -147,-165 -236,-251 -3,11 -3,14 0,25 -9,63 8,130 16,190 12,75 26,147 40,219 11,47 17,97 14,146 -6,9 0,20 -14,23 -28,13 -53,-3 -81,-6 -8,-11 -19,-8 -31,-17 -13,3 -35,-2 -47,6 -8,-3 -13,5 -24,3 -3,8 -3,-3 -9,0 -19,-3 -38,-9 -58,-9 -19,-8 -41,-8 -61,-16 -8,-11 -8,-25 -11,-39 -27,-130 -58,-274 -60,-406 -6,-22 2,-47 -3,-69 -89,85 -163,182 -221,284 -23,17 -31,64 -67,50 -3,0 -5,-5 -8,-3 -6,-2 -11,-11 -11,-19 -6,-11 -17,-14 -25,-22 -36,-3 -69,-17 -102,-28 -20,-5 -22,-27 -39,-38 -6,-23 -39,-23 -41,-47 -6,-9 -3,-14 2,-23 11,-13 14,-30 28,-44 66,-94 138,-191 210,-274 61,-83 147,-157 199,-246 14,-19 -14,-19 -19,-30 -20,-11 -47,-3 -69,-11 -53,0 -97,-11 -150,-3 -36,-8 -83,31 -105,-16 -5,-3 -8,-12 -16,-12 -9,9 -25,6 -31,20 -16,3 -36,0 -52,3 -64,11 -133,16 -197,24 -16,0 -38,12 -58,6 -22,-14 -19,-41 -22,-61 -16,-9 -22,-28 -36,-45 -2,-28 -8,-53 -13,-80 0,-6 2,-11 8,-11 5,0 8,-3 14,-6 l -6,-16 c 14,-14 33,-14 47,-25 47,-22 105,-22 155,-36 108,-20 229,-17 343,-20 8,-8 -3,-11 -3,-16 -22,-36 -41,-72 -64,-108 -30,-53 -77,-100 -107,-155 -11,-14 -20,-27 -31,-36 -8,-11 -14,-27 -25,-41 -2,-25 -19,-61 6,-78 63,-52 121,-110 193,-149 -2,-14 14,-5 20,-14 2,9 11,0 16,3 28,6 36,33 50,55 8,20 6,47 28,58 58,36 66,108 110,158 36,75 103,130 152,196 9,3 9,14 20,17 -3,8 11,5 8,14 17,-45 30,-94 47,-141 28,-78 41,-161 69,-235 6,-34 22,-64 31,-94 16,-34 22,-67 35,-103 0,-16 17,-30 20,-49 3,-3 44,-72 41,-78 14,-11 29,-27 48,-27 67,5 127,24 194,24 z"
   id="path26" />
        </g>
       </g>
      </g>
     </g>
    </g>
   </g>
  </g>
 </g>
</svg>
