<?xml version="1.0" encoding="UTF-8" standalone="no"?>
<svg
   version="1.2"
   width="150.00999mm"
   height="149.95999mm"
   viewBox="0 0 15001 14995.999"
   preserveAspectRatio="xMidYMid"
   fill-rule="evenodd"
   stroke-width="28.222"
   stroke-linejoin="round"
   xml:space="preserve"
   id="svg32"
   sodipodi:docname="ID15a4.svg"
   inkscape:version="1.2.2 (b0a8486541, 2022-12-01)"
   xmlns:inkscape="http://www.inkscape.org/namespaces/inkscape"
   xmlns:sodipodi="http://sodipodi.sourceforge.net/DTD/sodipodi-0.dtd"
   xmlns="http://www.w3.org/2000/svg"
   xmlns:svg="http://www.w3.org/2000/svg"
   xmlns:ooo="http://xml.openoffice.org/svg/export"><sodipodi:namedview
   id="namedview32"
   pagecolor="#ffffff"
   bordercolor="#000000"
   borderopacity="0.25"
   inkscape:showpageshadow="2"
   inkscape:pageopacity="0.0"
   inkscape:pagecheckerboard="true"
   inkscape:deskcolor="#d1d1d1"
   inkscape:document-units="mm"
   fit-margin-top="50"
   fit-margin-left="50"
   fit-margin-right="50"
   fit-margin-bottom="50"
   showgrid="false"
   inkscape:zoom="7.8350652"
   inkscape:cx="526.2879"
   inkscape:cy="23.611801"
   inkscape:window-width="1280"
   inkscape:window-height="731"
   inkscape:window-x="0"
   inkscape:window-y="0"
   inkscape:window-maximized="1"
   inkscape:current-layer="svg32" />
 <defs
   class="ClipPathGroup"
   id="defs2">
  <clipPath
   id="presentation_clip_path"
   clipPathUnits="userSpaceOnUse">
   <rect
   x="0"
   y="0"
   width="21001"
   height="29703"
   id="rect1" />
  </clipPath>
  <clipPath
   id="presentation_clip_path_shrink"
   clipPathUnits="userSpaceOnUse">
   <rect
   x="21"
   y="29"
   width="20959"
   height="29644"
   id="rect2" />
  </clipPath>
 </defs>
 <defs
   class="TextShapeIndex"
   id="defs3">
  <g
   ooo:slide="id1"
   ooo:id-list="id3 id4 id5 id6 id7 id8 id9 id10 id11 id12 id13 id14 id15 id16 id17"
   id="g2" />
 </defs>
 <defs
   class="EmbeddedBulletChars"
   id="defs12">
  <g
   id="bullet-char-template-57356"
   transform="matrix(4.8828125e-4,0,0,-4.8828125e-4,0,0)">
   <path
   d="M 580,1141 1163,571 580,0 -4,571 Z"
   id="path3" />
  </g>
  <g
   id="bullet-char-template-57354"
   transform="matrix(4.8828125e-4,0,0,-4.8828125e-4,0,0)">
   <path
   d="M 8,1128 H 1137 V 0 H 8 Z"
   id="path4" />
  </g>
  <g
   id="bullet-char-template-10146"
   transform="matrix(4.8828125e-4,0,0,-4.8828125e-4,0,0)">
   <path
   d="M 174,0 602,739 174,1481 1456,739 Z M 1358,739 309,1346 659,739 Z"
   id="path5" />
  </g>
  <g
   id="bullet-char-template-10132"
   transform="matrix(4.8828125e-4,0,0,-4.8828125e-4,0,0)">
   <path
   d="M 2015,739 1276,0 H 717 l 543,543 H 174 v 393 h 1086 l -543,545 h 557 z"
   id="path6" />
  </g>
  <g
   id="bullet-char-template-10007"
   transform="matrix(4.8828125e-4,0,0,-4.8828125e-4,0,0)">
   <path
   d="m 0,-2 c -7,16 -16,29 -25,39 l 381,530 c -94,256 -141,385 -141,387 0,25 13,38 40,38 9,0 21,-2 34,-5 21,4 42,12 65,25 l 27,-13 111,-251 280,301 64,-25 24,25 c 21,-10 41,-24 62,-43 C 886,937 835,863 770,784 769,783 710,716 594,584 L 774,223 c 0,-27 -21,-55 -63,-84 l 16,-20 C 717,90 699,76 672,76 641,76 570,178 457,381 L 164,-76 c -22,-34 -53,-51 -92,-51 -42,0 -63,17 -64,51 -7,9 -10,24 -10,44 0,9 1,19 2,30 z"
   id="path7" />
  </g>
  <g
   id="bullet-char-template-10004"
   transform="matrix(4.8828125e-4,0,0,-4.8828125e-4,0,0)">
   <path
   d="M 285,-33 C 182,-33 111,30 74,156 52,228 41,333 41,471 c 0,78 14,145 41,201 34,71 87,106 158,106 53,0 88,-31 106,-94 l 23,-176 c 8,-64 28,-97 59,-98 l 735,706 c 11,11 33,17 66,17 42,0 63,-15 63,-46 V 965 c 0,-36 -10,-64 -30,-84 L 442,47 C 390,-6 338,-33 285,-33 Z"
   id="path8" />
  </g>
  <g
   id="bullet-char-template-9679"
   transform="matrix(4.8828125e-4,0,0,-4.8828125e-4,0,0)">
   <path
   d="M 813,0 C 632,0 489,54 383,161 276,268 223,411 223,592 c 0,181 53,324 160,431 106,107 249,161 430,161 179,0 323,-54 432,-161 108,-107 162,-251 162,-431 0,-180 -54,-324 -162,-431 C 1136,54 992,0 813,0 Z"
   id="path9" />
  </g>
  <g
   id="bullet-char-template-8226"
   transform="matrix(4.8828125e-4,0,0,-4.8828125e-4,0,0)">
   <path
   d="m 346,457 c -73,0 -137,26 -191,78 -54,51 -81,114 -81,188 0,73 27,136 81,188 54,52 118,78 191,78 73,0 134,-26 185,-79 51,-51 77,-114 77,-187 0,-75 -25,-137 -76,-188 -50,-52 -112,-78 -186,-78 z"
   id="path10" />
  </g>
  <g
   id="bullet-char-template-8211"
   transform="matrix(4.8828125e-4,0,0,-4.8828125e-4,0,0)">
   <path
   d="M -4,459 H 1135 V 606 H -4 Z"
   id="path11" />
  </g>
  <g
   id="bullet-char-template-61548"
   transform="matrix(4.8828125e-4,0,0,-4.8828125e-4,0,0)">
   <path
   d="m 173,740 c 0,163 58,303 173,419 116,115 255,173 419,173 163,0 302,-58 418,-173 116,-116 174,-256 174,-419 0,-163 -58,-303 -174,-418 C 1067,206 928,148 765,148 601,148 462,206 346,322 231,437 173,577 173,740 Z"
   id="path12" />
  </g>
 </defs>
 <g
   id="g12"
   transform="translate(-2652,-5770)">
  <g
   id="id2"
   class="Master_Slide">
   <g
   id="bg-id2"
   class="Background" />
   <g
   id="bo-id2"
   class="BackgroundObjects" />
  </g>
 </g>
 <g
   class="SlideGroup"
   id="g32"
   transform="translate(-2652,-5770)">
  <g
   id="g31">
   <g
   id="container-id1">
    <g
   id="id1"
   class="Slide"
   clip-path="url(#presentation_clip_path)">
     <g
   class="Page"
   id="g30">
      <g
   class="Group"
   id="g29">
       <g
   class="com.sun.star.drawing.PolyPolygonShape"
   id="g13">
        <g
   id="id3">
         <rect
   class="BoundingBox"
   stroke="none"
   fill="none"
   x="2652"
   y="5770"
   width="15001"
   height="14996"
   id="rect12" />
         <path
   fill="#fefefe"
   stroke="none"
   d="M 2653,5770 V 20765 H 17652 V 5770 Z"
   id="path13" />
        </g>
       </g>
       <g
   class="Group"
   id="g18"
   style="display:none">
        <g
   class="com.sun.star.drawing.LineShape"
   id="g14">
         <g
   id="id4">
          <rect
   class="BoundingBox"
   stroke="none"
   fill="none"
   x="2628"
   y="5771"
   width="53"
   height="14994"
   id="rect13" />
          <path
   fill="none"
   stroke="#1b1918"
   stroke-width="51"
   stroke-linejoin="miter"
   d="M 2654,20764 V 5771"
   id="path14" />
         </g>
        </g>
        <g
   class="com.sun.star.drawing.LineShape"
   id="g15">
         <g
   id="id5">
          <rect
   class="BoundingBox"
   stroke="none"
   fill="none"
   x="2654"
   y="20739"
   width="14997"
   height="53"
   id="rect14" />
          <path
   fill="none"
   stroke="#1b1918"
   stroke-width="51"
   stroke-linejoin="miter"
   d="M 17650,20765 H 2654"
   id="path15" />
         </g>
        </g>
        <g
   class="com.sun.star.drawing.LineShape"
   id="g16">
         <g
   id="id6">
          <rect
   class="BoundingBox"
   stroke="none"
   fill="none"
   x="17624"
   y="5771"
   width="53"
   height="14994"
   id="rect15" />
          <path
   fill="none"
   stroke="#1b1918"
   stroke-width="51"
   stroke-linejoin="miter"
   d="M 17650,5771 V 20764"
   id="path16" />
         </g>
        </g>
        <g
   class="com.sun.star.drawing.LineShape"
   id="g17">
         <g
   id="id7">
          <rect
   class="BoundingBox"
   stroke="none"
   fill="none"
   x="2654"
   y="5745"
   width="14997"
   height="53"
   id="rect16" />
          <path
   fill="none"
   stroke="#1b1918"
   stroke-width="51"
   stroke-linejoin="miter"
   d="M 2654,5771 H 17650"
   id="path17" />
         </g>
        </g>
       </g>
       <g
   class="com.sun.star.drawing.ClosedBezierShape"
   id="g19">
        <g
   id="id8">
         <rect
   class="BoundingBox"
   stroke="none"
   fill="none"
   x="11747"
   y="6271"
   width="5405"
   height="13995"
   id="rect18" />
         <path
   fill="#826500"
   stroke="none"
   d="m 11747,20265 5404,-2 V 6271 l -5404,2 c 449,279 807,536 1198,993 l 3208,3 v 11996 h -3208 c -322,398 -762,724 -1198,1000 z"
   id="path18" />
        </g>
       </g>
       <g
   class="com.sun.star.drawing.ClosedBezierShape"
   id="g20">
        <g
   id="id9">
         <rect
   class="BoundingBox"
   stroke="none"
   fill="none"
   x="3155"
   y="6270"
   width="5394"
   height="13996"
   id="rect19" />
         <path
   fill="#826500"
   stroke="none"
   d="m 8548,20265 -5393,-2 V 6271 l 5393,2 c -427,252 -843,561 -1199,993 l -3196,3 v 11996 h 3196 c 320,403 775,726 1199,1000 z"
   id="path19" />
        </g>
       </g>
       <g
   class="com.sun.star.drawing.ClosedBezierShape"
   id="g21">
        <g
   id="id10">
         <rect
   class="BoundingBox"
   stroke="none"
   fill="none"
   x="6597"
   y="17149"
   width="1285"
   height="470"
   id="rect20" />
         <path
   fill="#826500"
   stroke="none"
   d="m 6803,17617 641,-56 c 137,0 304,-218 437,-232 0,0 -768,-188 -1283,-180 61,153 133,312 205,468 z"
   id="path20" />
        </g>
       </g>
       <g
   class="com.sun.star.drawing.ClosedBezierShape"
   id="g22">
        <g
   id="id11">
         <rect
   class="BoundingBox"
   stroke="none"
   fill="none"
   x="5894"
   y="6234"
   width="8489"
   height="10946"
   id="rect21" />
         <path
   fill="#826500"
   stroke="none"
   d="m 13692,17163 c 501,-1148 690,-2538 690,-3997 0,-4108 -2168,-6896 -4106,-6932 -2322,-41 -4382,2788 -4382,7068 0,1317 233,2588 617,3633 592,-239 1159,0 1665,161 397,128 734,-392 1168,-222 236,47 461,206 714,139 240,-64 485,-225 746,-139 442,70 854,392 1318,281 311,11 631,-234 934,-3 169,28 417,25 636,11 z"
   id="path21" />
        </g>
       </g>
       <g
   class="com.sun.star.drawing.ClosedBezierShape"
   id="g23">
        <g
   id="id12">
         <rect
   class="BoundingBox"
   stroke="none"
   fill="none"
   x="7006"
   y="17797"
   width="6265"
   height="2471"
   id="rect22" />
         <path
   fill="#826500"
   stroke="none"
   d="m 13270,18027 c -787,1411 -1924,2240 -3159,2240 -1351,0 -2436,-1077 -3105,-2259 91,3 233,3 372,-17 l 756,-194 601,69 c 408,125 836,217 1256,197 304,20 582,-139 888,-116 514,41 370,208 1098,141 470,-41 959,-58 1293,-61 z"
   id="path22" />
        </g>
       </g>
       <g
   class="com.sun.star.drawing.OpenBezierShape"
   id="g24">
        <g
   id="id13">
         <rect
   class="BoundingBox"
   stroke="none"
   fill="none"
   x="13250"
   y="18011"
   width="10"
   height="19"
   id="rect23" />
        </g>
       </g>
       <g
   class="com.sun.star.drawing.ClosedBezierShape"
   id="g25">
        <g
   id="id14">
         <rect
   class="BoundingBox"
   stroke="none"
   fill="none"
   x="8332"
   y="17155"
   width="5204"
   height="673"
   id="rect24" />
         <path
   fill="#826500"
   stroke="none"
   d="m 13389,17782 c -150,-6 -305,-34 -453,-87 -297,-62 -584,25 -867,112 -384,72 -773,-70 -1141,-185 -264,-83 -539,82 -801,121 -264,41 -547,-17 -803,-118 -331,-47 -676,-67 -992,-211 489,-56 934,-353 1403,-84 162,56 328,-9 484,-51 498,-364 955,190 1444,154 475,134 965,-207 1429,42 156,44 292,41 442,28 -47,94 -97,190 -145,279 z"
   id="path24" />
        </g>
       </g>
       <g
   class="com.sun.star.drawing.OpenBezierShape"
   id="g26">
        <g
   id="id15">
         <rect
   class="BoundingBox"
   stroke="none"
   fill="none"
   x="13395"
   y="17774"
   width="9"
   height="1"
   id="rect25" />
        </g>
       </g>
       <g
   class="com.sun.star.drawing.ClosedBezierShape"
   id="g27">
        <g
   id="id16">
         <rect
   class="BoundingBox"
   stroke="none"
   fill="none"
   x="8143"
   y="7149"
   width="2409"
   height="2125"
   id="rect26" />
         <path
   fill="#ffffff"
   stroke="none"
   d="m 9572,7176 c 48,6 92,11 137,28 11,3 19,8 25,17 5,39 -267,548 -287,610 6,-3 17,16 31,8 42,-56 64,-61 72,-67 39,-39 145,-104 145,-104 30,-22 180,-125 228,-153 33,-5 53,-27 83,-33 20,-5 45,-5 59,11 16,22 44,42 47,75 19,53 47,98 58,154 14,6 -3,17 0,28 -19,11 -36,19 -53,36 -5,0 -5,8 -11,8 -16,6 -25,23 -39,23 -83,69 -161,116 -244,180 v 3 c 203,36 389,106 575,189 31,11 61,25 89,45 h 6 c 22,16 58,14 58,50 -3,11 -3,19 -14,28 -28,36 -33,86 -61,122 -17,14 -36,28 -58,28 -17,8 -31,2 -50,11 -9,-9 -20,-17 -31,-11 -33,14 -72,25 -106,11 -64,-34 -128,-70 -194,-92 -137,-53 -276,-86 -428,-97 l -98,3 c -11,2 -11,11 -8,19 11,22 31,28 47,44 70,81 159,167 239,234 78,78 159,139 234,212 53,42 28,114 44,167 0,11 0,25 -11,31 -8,0 -14,5 -19,11 -28,8 -48,28 -70,41 -11,12 -14,20 -22,31 v 3 c -17,30 -45,39 -78,44 -5,0 -14,3 -19,9 -17,-9 -23,16 -36,5 -51,-55 -117,-97 -170,-158 -28,-20 -50,-48 -81,-67 -86,-86 -150,-167 -240,-251 -3,8 -3,14 0,22 -8,68 11,135 17,196 15,75 26,144 40,219 11,48 19,95 14,148 -3,5 0,19 -11,19 -28,14 -57,0 -85,-3 -8,-14 -19,-8 -30,-16 -14,2 -34,-3 -48,2 -8,-2 -14,9 -22,6 -5,6 -5,-6 -11,0 -19,-6 -39,-8 -58,-11 -20,-8 -42,-8 -62,-17 -8,-11 -8,-25 -11,-39 -27,-130 -55,-272 -61,-406 -5,-25 3,-51 -3,-73 -89,87 -164,185 -222,290 -22,17 -31,64 -67,47 -2,0 -5,-5 -8,0 -6,-5 -8,-13 -8,-19 -9,-11 -20,-17 -28,-25 -36,-3 -70,-14 -103,-25 -20,-6 -22,-31 -39,-39 -6,-25 -39,-25 -39,-47 -8,-9 -5,-17 0,-25 11,-11 17,-31 28,-45 67,-92 139,-190 214,-276 61,-81 145,-158 200,-247 11,-20 -17,-20 -22,-31 -20,-11 -47,0 -67,-11 -55,3 -100,-11 -153,-3 -36,-5 -83,31 -105,-14 -3,-5 -9,-14 -17,-14 -8,9 -25,9 -31,20 -14,3 -36,0 -52,5 -64,12 -134,14 -198,23 -17,2 -39,14 -55,5 -23,-11 -20,-39 -25,-58 -17,-11 -23,-31 -34,-45 -5,-27 -11,-55 -16,-83 0,-3 2,-11 8,-11 5,0 11,0 14,-6 l -6,-14 c 14,-16 34,-16 50,-27 47,-23 103,-23 153,-37 111,-16 231,-16 348,-19 5,-6 -6,-11 -6,-17 -22,-33 -42,-69 -61,-105 -33,-56 -78,-103 -111,-159 -11,-11 -20,-26 -31,-37 -8,-11 -14,-28 -25,-39 0,-25 -19,-61 8,-78 62,-55 120,-114 192,-150 -3,-17 14,-8 20,-17 3,9 11,3 16,3 28,6 37,36 50,56 9,19 6,50 28,58 61,36 67,109 111,159 39,76 103,131 153,198 9,3 9,14 20,17 0,8 11,5 8,14 17,-45 31,-95 47,-139 28,-79 42,-163 73,-240 2,-34 22,-62 27,-95 17,-31 23,-67 37,-100 2,-19 19,-33 19,-53 3,-3 45,-67 45,-75 11,-11 26,-30 45,-30 67,8 131,27 197,27 z"
   id="path26" />
        </g>
       </g>
       <g
   class="com.sun.star.drawing.ClosedBezierShape"
   id="g28">
        <g
   id="id17">
         <rect
   class="BoundingBox"
   stroke="none"
   fill="none"
   x="6525"
   y="9893"
   width="7400"
   height="7003"
   id="rect27" />
         <path
   fill="#ffffff"
   stroke="none"
   d="m 8370,14878 246,374 -296,670 c -50,5 -414,2 -464,0 303,-390 459,-581 514,-1044 z m 0,0 z m 1105,-759 -492,948 c 6,11 11,22 20,31 -26,323 -103,476 -284,838 h 3387 l 36,-37 h 1460 l 94,-172 h 228 c -58,211 -347,1140 -347,1140 -287,103 -604,-120 -890,-72 -573,130 -1113,-64 -1644,-190 -436,-130 -859,184 -1293,-16 -194,-56 -386,-100 -600,-56 -339,47 -670,178 -1016,39 -347,-186 -795,-219 -1170,-142 -148,25 -384,28 -384,28 l -55,-511 h 881 c 94,-237 417,-656 431,-872 14,-216 52,-247 80,-480 -53,-128 -69,-306 59,-437 l -53,-64 c 55,-342 258,-984 303,-1332 28,-116 -31,-30 44,-94 31,-47 204,-22 224,-100 -124,-211 -117,-542 25,-637 55,-44 400,-39 442,45 28,41 61,94 69,158 -5,120 -36,239 -41,359 -17,72 -42,158 -95,186 -30,14 -67,3 -97,20 92,38 472,-23 572,-28 153,-39 584,-153 729,-237 3,9 8,14 14,20 l 1326,-2561 183,88 -1356,2617 c 58,164 -145,315 -153,315 l -11,-3 -473,909 c 3,3 3,5 6,5 89,173 -73,262 -159,295 z m 0,0 z m -30,-375 461,-893 -131,-41 c 0,0 -236,133 -333,192 -95,36 -434,102 -528,116 l 155,412 c 0,0 161,155 376,214 z m 0,0 z m -581,1117 442,-853 c -20,-17 -31,-28 -31,-28 -103,0 -331,-80 -386,-167 l -128,462 c -3,25 -36,-6 -59,0 -28,100 6,169 -8,272 0,0 69,136 170,314 z"
   id="path27" />
        </g>
       </g>
      </g>
     </g>
    </g>
   </g>
  </g>
 </g>
</svg>
