<?xml version="1.0" encoding="UTF-8" standalone="no"?>
<svg
   version="1.2"
   width="150.00999mm"
   height="149.95999mm"
   viewBox="0 0 15001 14995.999"
   preserveAspectRatio="xMidYMid"
   fill-rule="evenodd"
   stroke-width="28.222"
   stroke-linejoin="round"
   xml:space="preserve"
   id="svg32"
   sodipodi:docname="FR_ID15a19.svg"
   inkscape:version="1.2.2 (b0a8486541, 2022-12-01)"
   xmlns:inkscape="http://www.inkscape.org/namespaces/inkscape"
   xmlns:sodipodi="http://sodipodi.sourceforge.net/DTD/sodipodi-0.dtd"
   xmlns="http://www.w3.org/2000/svg"
   xmlns:svg="http://www.w3.org/2000/svg"
   xmlns:ooo="http://xml.openoffice.org/svg/export"><sodipodi:namedview
   id="namedview32"
   pagecolor="#ffffff"
   bordercolor="#000000"
   borderopacity="0.25"
   inkscape:showpageshadow="2"
   inkscape:pageopacity="0.0"
   inkscape:pagecheckerboard="true"
   inkscape:deskcolor="#d1d1d1"
   inkscape:document-units="mm"
   fit-margin-top="50"
   fit-margin-left="50"
   fit-margin-right="50"
   fit-margin-bottom="50"
   showgrid="false"
   inkscape:zoom="1.9569804"
   inkscape:cx="336.23229"
   inkscape:cy="373.53466"
   inkscape:window-width="1280"
   inkscape:window-height="731"
   inkscape:window-x="0"
   inkscape:window-y="0"
   inkscape:window-maximized="1"
   inkscape:current-layer="g29" />
 <defs
   class="ClipPathGroup"
   id="defs2">
  <clipPath
   id="presentation_clip_path"
   clipPathUnits="userSpaceOnUse">
   <rect
   x="0"
   y="0"
   width="21001"
   height="29703"
   id="rect1" />
  </clipPath>
  <clipPath
   id="presentation_clip_path_shrink"
   clipPathUnits="userSpaceOnUse">
   <rect
   x="21"
   y="29"
   width="20959"
   height="29644"
   id="rect2" />
  </clipPath>
 </defs>
 <defs
   class="TextShapeIndex"
   id="defs3">
  <g
   ooo:slide="id1"
   ooo:id-list="id3 id4 id5 id6 id7 id8 id9 id10 id11 id12 id13 id14 id15 id16 id17"
   id="g2" />
 </defs>
 <defs
   class="EmbeddedBulletChars"
   id="defs12">
  <g
   id="bullet-char-template-57356"
   transform="matrix(4.8828125e-4,0,0,-4.8828125e-4,0,0)">
   <path
   d="M 580,1141 1163,571 580,0 -4,571 Z"
   id="path3" />
  </g>
  <g
   id="bullet-char-template-57354"
   transform="matrix(4.8828125e-4,0,0,-4.8828125e-4,0,0)">
   <path
   d="M 8,1128 H 1137 V 0 H 8 Z"
   id="path4" />
  </g>
  <g
   id="bullet-char-template-10146"
   transform="matrix(4.8828125e-4,0,0,-4.8828125e-4,0,0)">
   <path
   d="M 174,0 602,739 174,1481 1456,739 Z M 1358,739 309,1346 659,739 Z"
   id="path5" />
  </g>
  <g
   id="bullet-char-template-10132"
   transform="matrix(4.8828125e-4,0,0,-4.8828125e-4,0,0)">
   <path
   d="M 2015,739 1276,0 H 717 l 543,543 H 174 v 393 h 1086 l -543,545 h 557 z"
   id="path6" />
  </g>
  <g
   id="bullet-char-template-10007"
   transform="matrix(4.8828125e-4,0,0,-4.8828125e-4,0,0)">
   <path
   d="m 0,-2 c -7,16 -16,29 -25,39 l 381,530 c -94,256 -141,385 -141,387 0,25 13,38 40,38 9,0 21,-2 34,-5 21,4 42,12 65,25 l 27,-13 111,-251 280,301 64,-25 24,25 c 21,-10 41,-24 62,-43 C 886,937 835,863 770,784 769,783 710,716 594,584 L 774,223 c 0,-27 -21,-55 -63,-84 l 16,-20 C 717,90 699,76 672,76 641,76 570,178 457,381 L 164,-76 c -22,-34 -53,-51 -92,-51 -42,0 -63,17 -64,51 -7,9 -10,24 -10,44 0,9 1,19 2,30 z"
   id="path7" />
  </g>
  <g
   id="bullet-char-template-10004"
   transform="matrix(4.8828125e-4,0,0,-4.8828125e-4,0,0)">
   <path
   d="M 285,-33 C 182,-33 111,30 74,156 52,228 41,333 41,471 c 0,78 14,145 41,201 34,71 87,106 158,106 53,0 88,-31 106,-94 l 23,-176 c 8,-64 28,-97 59,-98 l 735,706 c 11,11 33,17 66,17 42,0 63,-15 63,-46 V 965 c 0,-36 -10,-64 -30,-84 L 442,47 C 390,-6 338,-33 285,-33 Z"
   id="path8" />
  </g>
  <g
   id="bullet-char-template-9679"
   transform="matrix(4.8828125e-4,0,0,-4.8828125e-4,0,0)">
   <path
   d="M 813,0 C 632,0 489,54 383,161 276,268 223,411 223,592 c 0,181 53,324 160,431 106,107 249,161 430,161 179,0 323,-54 432,-161 108,-107 162,-251 162,-431 0,-180 -54,-324 -162,-431 C 1136,54 992,0 813,0 Z"
   id="path9" />
  </g>
  <g
   id="bullet-char-template-8226"
   transform="matrix(4.8828125e-4,0,0,-4.8828125e-4,0,0)">
   <path
   d="m 346,457 c -73,0 -137,26 -191,78 -54,51 -81,114 -81,188 0,73 27,136 81,188 54,52 118,78 191,78 73,0 134,-26 185,-79 51,-51 77,-114 77,-187 0,-75 -25,-137 -76,-188 -50,-52 -112,-78 -186,-78 z"
   id="path10" />
  </g>
  <g
   id="bullet-char-template-8211"
   transform="matrix(4.8828125e-4,0,0,-4.8828125e-4,0,0)">
   <path
   d="M -4,459 H 1135 V 606 H -4 Z"
   id="path11" />
  </g>
  <g
   id="bullet-char-template-61548"
   transform="matrix(4.8828125e-4,0,0,-4.8828125e-4,0,0)">
   <path
   d="m 173,740 c 0,163 58,303 173,419 116,115 255,173 419,173 163,0 302,-58 418,-173 116,-116 174,-256 174,-419 0,-163 -58,-303 -174,-418 C 1067,206 928,148 765,148 601,148 462,206 346,322 231,437 173,577 173,740 Z"
   id="path12" />
  </g>
 </defs>
 <g
   id="g12"
   transform="translate(-2652,-5770)">
  <g
   id="id2"
   class="Master_Slide">
   <g
   id="bg-id2"
   class="Background" />
   <g
   id="bo-id2"
   class="BackgroundObjects" />
  </g>
 </g>
 <g
   class="SlideGroup"
   id="g32"
   transform="translate(-2652,-5770)">
  <g
   id="g31">
   <g
   id="container-id1">
    <g
   id="id1"
   class="Slide"
   clip-path="url(#presentation_clip_path)">
     <g
   class="Page"
   id="g30">
      <g
   class="Group"
   id="g29">
       <g
   class="com.sun.star.drawing.PolyPolygonShape"
   id="g13">
        <g
   id="id3">
         <rect
   class="BoundingBox"
   stroke="none"
   fill="none"
   x="2652"
   y="5770"
   width="15001"
   height="14996"
   id="rect12" />
         <path
   fill="#fefefe"
   stroke="none"
   d="M 2653,5770 V 20765 H 17652 V 5770 Z"
   id="path13" />
        </g>
       </g>
       <g
   class="Group"
   id="g18"
   style="display:none">
        <g
   class="com.sun.star.drawing.LineShape"
   id="g14">
         <g
   id="id4">
          <rect
   class="BoundingBox"
   stroke="none"
   fill="none"
   x="2628"
   y="5771"
   width="53"
   height="14994"
   id="rect13" />
          <path
   fill="none"
   stroke="#1b1918"
   stroke-width="51"
   stroke-linejoin="miter"
   d="M 2654,20764 V 5771"
   id="path14" />
         </g>
        </g>
        <g
   class="com.sun.star.drawing.LineShape"
   id="g15">
         <g
   id="id5">
          <rect
   class="BoundingBox"
   stroke="none"
   fill="none"
   x="2654"
   y="20739"
   width="14997"
   height="53"
   id="rect14" />
          <path
   fill="none"
   stroke="#1b1918"
   stroke-width="51"
   stroke-linejoin="miter"
   d="M 17650,20765 H 2654"
   id="path15" />
         </g>
        </g>
        <g
   class="com.sun.star.drawing.LineShape"
   id="g16">
         <g
   id="id6">
          <rect
   class="BoundingBox"
   stroke="none"
   fill="none"
   x="17624"
   y="5771"
   width="53"
   height="14994"
   id="rect15" />
          <path
   fill="none"
   stroke="#1b1918"
   stroke-width="51"
   stroke-linejoin="miter"
   d="M 17650,5771 V 20764"
   id="path16" />
         </g>
        </g>
        <g
   class="com.sun.star.drawing.LineShape"
   id="g17"
   style="display:inline">
         <g
   id="id7">
          <rect
   class="BoundingBox"
   stroke="none"
   fill="none"
   x="2654"
   y="5745"
   width="14997"
   height="53"
   id="rect16" />
          <path
   fill="none"
   stroke="#1b1918"
   stroke-width="51"
   stroke-linejoin="miter"
   d="M 2654,5771 H 17650"
   id="path17" />
         </g>
        </g>
       </g>
       <g
   class="com.sun.star.drawing.ClosedBezierShape"
   id="g19">
        <g
   id="id8">
         <rect
   class="BoundingBox"
   stroke="none"
   fill="none"
   x="11747"
   y="6271"
   width="5405"
   height="13995"
   id="rect18" />
         <path
   fill="#826500"
   stroke="none"
   d="m 11747,20265 5404,-2 V 6271 l -5404,2 c 449,279 807,536 1198,993 l 3208,3 v 11996 h -3208 c -322,398 -762,724 -1198,1000 z"
   id="path18" />
        </g>
       </g>
       <g
   class="com.sun.star.drawing.ClosedBezierShape"
   id="g20">
        <g
   id="id9">
         <rect
   class="BoundingBox"
   stroke="none"
   fill="none"
   x="3155"
   y="6270"
   width="5394"
   height="13996"
   id="rect19" />
         <path
   fill="#826500"
   stroke="none"
   d="m 8548,20265 -5393,-2 V 6271 l 5393,2 c -427,252 -843,561 -1199,993 l -3196,3 v 11996 h 3196 c 320,403 775,726 1199,1000 z"
   id="path19" />
        </g>
       </g>
       <g
   class="com.sun.star.drawing.ClosedBezierShape"
   id="g21">
        <g
   id="id10">
         <rect
   class="BoundingBox"
   stroke="none"
   fill="none"
   x="5893"
   y="6265"
   width="8518"
   height="13999"
   id="rect20" />
         <path
   fill="#826500"
   stroke="none"
   d="m 10151,20263 c 2350,0 4259,-3136 4259,-7001 0,-3868 -1909,-6997 -4259,-6997 -2350,0 -4258,3129 -4258,6997 0,3865 1908,7001 4258,7001 z"
   id="path20" />
        </g>
       </g>
       
       
       
       
       
       <g
   class="com.sun.star.drawing.ClosedBezierShape"
   id="g27">
        <g
   id="id16">
         <rect
   class="BoundingBox"
   stroke="none"
   fill="none"
   x="8001"
   y="7213"
   width="2433"
   height="2145"
   id="rect26" />
         <path
   fill="#ffffff"
   stroke="none"
   d="m 9444,7241 c 48,5 93,11 140,22 9,6 17,11 26,20 3,42 -270,554 -292,618 5,-3 17,17 31,9 45,-59 64,-65 73,-68 39,-39 146,-105 146,-105 31,-22 182,-126 233,-154 34,-6 51,-28 82,-34 20,-5 45,-5 59,12 17,22 45,42 48,75 19,54 47,99 59,156 14,5 -3,17 0,25 -17,14 -37,22 -51,39 -6,-3 -8,6 -14,9 -14,2 -22,22 -39,22 -82,67 -164,118 -248,183 v 2 c 206,37 396,107 582,191 31,11 61,25 90,42 h 5 c 23,20 59,17 59,51 -3,14 -3,22 -14,31 -28,36 -31,87 -62,123 -17,14 -36,28 -59,28 -16,9 -30,3 -50,11 -6,-8 -17,-16 -31,-11 -31,14 -73,26 -107,11 -64,-33 -129,-70 -193,-95 -142,-50 -282,-87 -436,-95 l -99,2 c -8,3 -8,12 -8,20 11,20 31,28 48,42 70,82 160,171 241,239 81,76 164,140 237,214 53,42 28,112 45,166 0,14 0,28 -11,33 -9,0 -15,6 -17,12 -31,8 -51,28 -73,42 -12,11 -14,19 -24,28 v 5 c -17,28 -45,40 -76,42 -8,3 -16,6 -22,9 -17,-6 -22,20 -34,8 -53,-59 -120,-98 -171,-160 -31,-19 -53,-47 -84,-67 -87,-87 -152,-168 -241,-254 -3,9 -3,12 0,23 -9,68 11,136 16,197 14,73 26,146 40,222 14,48 19,93 14,149 -3,5 0,17 -12,19 -28,14 -56,0 -84,-5 -5,-11 -19,-9 -28,-14 -17,3 -36,-3 -50,3 -9,-3 -14,8 -23,2 -3,9 -5,-2 -11,0 -20,-2 -39,-5 -59,-8 -20,-8 -42,-8 -62,-17 -5,-11 -5,-25 -11,-39 -28,-132 -56,-275 -59,-410 -8,-25 0,-51 -5,-74 -87,88 -163,186 -225,293 -22,17 -32,65 -68,48 -3,0 -6,-6 -9,-3 -5,-3 -8,-11 -8,-17 -9,-14 -20,-17 -28,-25 -37,-3 -70,-17 -104,-25 -20,-9 -23,-31 -37,-40 -5,-25 -42,-25 -42,-48 -5,-11 -5,-16 0,-25 14,-11 17,-31 28,-45 71,-99 141,-192 216,-279 63,-81 147,-162 204,-249 14,-20 -17,-20 -20,-34 -23,-8 -51,0 -70,-8 -56,0 -102,-12 -156,-3 -36,-9 -81,31 -106,-14 -3,-6 -6,-14 -14,-14 -12,8 -28,8 -34,19 -14,3 -36,0 -53,3 -65,11 -135,17 -197,25 -19,3 -42,12 -59,6 -22,-14 -19,-39 -22,-62 -20,-8 -25,-28 -37,-42 -5,-31 -11,-56 -16,-84 2,-3 5,-11 11,-11 3,0 8,0 11,-6 l -6,-14 c 14,-17 34,-17 51,-31 48,-19 104,-19 157,-33 109,-20 230,-17 348,-20 6,-6 -6,-11 -3,-17 -25,-34 -45,-70 -64,-109 -34,-54 -79,-101 -110,-158 -14,-14 -19,-29 -33,-37 -9,-11 -14,-28 -23,-42 -3,-23 -22,-62 6,-76 61,-56 120,-115 193,-154 -2,-14 14,-6 20,-14 3,8 11,2 17,2 28,6 40,37 51,57 12,16 6,50 31,59 59,36 65,109 110,160 39,76 104,132 154,200 9,3 11,14 20,17 0,8 11,5 11,14 14,-45 31,-96 48,-143 25,-80 42,-161 70,-240 3,-34 22,-62 28,-95 17,-31 22,-68 39,-102 0,-19 20,-33 20,-53 0,-3 42,-70 42,-76 14,-11 25,-30 45,-30 67,5 132,28 199,28 z"
   id="path26" />
        </g>
       </g>
       
      <g
   id="g28"
   transform="matrix(31.403254,0,0,29.973612,645.78581,5731.8854)"
   style="display:inline"><path
     style="fill:#ffffff;stroke-width:1.63582"
     d="m 270.49282,390.28648 -0.32744,2.61719 c 0.16358,0.16359 0.32758,0.49071 0.49116,0.6543 h 0.65487 z"
     id="path615" /><path
     style="fill:#ffffff;stroke-width:1.63582"
     d="m 235.1597,389.46812 c 0.32716,1.63582 0.48939,2.94336 0.48939,2.94336 l 0.81859,2.61914 h 0.32744 l 0.49115,-2.12695 z"
     id="path613" /><path
     style="fill:#ffffff;stroke-width:1.63582"
     d="m 271.63884,386.52281 -0.65487,1.63672 2.45401,4.08984 c -0.32716,-1.47224 -0.81913,-3.10783 -1.47346,-4.58007 -0.16359,-0.32716 -0.32568,-0.81932 -0.32568,-1.14649 z"
     id="path611" /><path
     style="fill:#ffffff;stroke-width:1.63582"
     d="m 280.4708,366.72984 -8.01513,18.15821 4.25314,8.01562 c 0.16358,-1.63582 -1.3e-4,-3.27238 -0.16371,-4.9082 -0.16359,-1.63583 -0.16359,-3.4345 0,-5.07031 l 3.9257,8.99609 -0.32567,-4.90625 v -4.41797 l 1.96285,9.81445 1.4717,-7.6875 1.14427,8.17969 0.32743,-5.5625 2.12657,4.41602 -0.32743,-6.54297 2.78144,7.03515 c -0.65432,-3.27164 -2.45387,-8.83464 -4.41686,-15.05078 -2.7809,-9.65135 -4.7443,-10.46875 -4.7443,-10.46875 z"
     id="path609" /><path
     style="fill:#ffffff;stroke-width:1.63582"
     d="m 244.64653,362.14977 c 0,0 -2.12576,1.14471 -5.39741,7.19726 -3.27164,6.05255 -3.43591,8.3425 -0.81859,13.9043 0.16357,0.32717 0.3277,0.81785 0.65487,1.30859 0.16358,-2.12657 0.32744,-3.76172 0.32744,-3.76172 l 0.98055,5.88867 c 0.65433,0.9815 1.47239,2.12688 2.29029,3.43555 l 0.16371,-0.81836 0.81859,-6.70703 1.63542,11.12305 0.32744,0.49219 c 1.14506,-1.30867 1.47129,-3.10833 0.98054,-4.74415 -0.65432,-3.27163 -0.98054,-5.5625 -0.98054,-5.5625 l 4.90625,9.16016 v -5.88867 l 1.14602,-6.21484 c 0.16358,3.10807 0.65366,6.21565 1.30799,9.16015 0.32717,1.30865 0.49101,2.61712 0.32743,3.92578 l 1.14603,-4.58008 1.4717,-6.38085 c 0,0 0.65365,7.19758 1.30798,10.63281 h 1.14602 c 0.16358,-1.63582 0.32744,-3.43449 0.32744,-5.07031 l 0.48939,-8.01563 1.47346,12.92383 1.63542,-9.81641 2.29029,9.48828 c 0.16358,-0.81791 0.32743,-1.63521 0.32743,-2.45312 v -2.12695 l 0.32744,-0.98047 0.48939,0.49023 c 0.49074,-1.96299 1.14495,-3.92568 1.96286,-5.88867 v 1.79883 l 8.67,-19.30274 c -1.96298,1.30865 -4.25328,2.12745 -6.54343,2.29102 -5.07105,1.30866 -10.3042,1.30816 -15.21168,-0.16406 -3.5988,-0.81792 -7.03525,-2.454 -9.97974,-4.74414 z"
     id="path607" /><path
     style="fill:#ffffff;stroke-width:1.63582"
     d="m 228.12511,358.87828 c -8.01554,10.30568 -7.68797,9.48834 -12.26827,18.1582 -1.47224,2.7809 -2.29042,6.05209 -2.45401,9.16016 1.47225,2.7809 2.61664,5.72594 3.43456,8.83398 0.32715,1.79941 0.32743,-5.5625 0.32743,-5.5625 l 0.32744,-5.88867 4.74429,9.81446 c 1.30866,2.45373 2.28921,3.27075 0.98055,-1.63672 -0.81792,-2.94448 -1.1444,-5.88804 -1.30798,-8.9961 l 5.3974,12.59571 c 0,0 2.94556,-1.47141 1.30975,-7.03321 -2.12657,-6.87046 0.49115,-1.30983 2.61772,3.59766 0.65434,1.63582 1.14453,2.61716 1.4717,3.27148 h 1.14427 v -8.34179 l -2.45401,-3.43555 c -4.41672,-6.37971 -4.74362,-6.54343 -3.92571,-7.36133 1.96299,-2.7809 3.27275,-6.21516 3.43632,-9.65039 0.9815,-2.94449 -0.32772,-5.88957 -2.78145,-7.52539 z"
     id="path605" /><path
     style="fill:#ffffff;stroke-width:1.63582"
     d="m 301.06228,302.05602 c -0.34761,-0.0128 -0.67492,0.0591 -0.96118,0.22265 -0.49076,0.49074 -0.9807,0.98191 -1.14427,1.47266 l -0.16371,-0.32813 c -1.30866,2.78091 -1.30866,5.88854 0,8.50586 1.30865,3.27165 4.74362,5.0723 8.17884,4.41797 1.96299,-0.49074 3.76281,-1.79972 4.7443,-3.43555 0.65433,-1.47223 0.98041,-3.27238 0.81683,-4.9082 -0.16358,-0.9815 -0.32608,-1.96185 -0.81683,-2.94336 -0.16359,-0.49075 -0.49142,-0.81785 -0.81859,-1.30859 0,0.49074 -1.5e-4,0.81784 -0.16372,1.30859 -0.32717,2.61732 -1.96231,5.72458 -3.43455,6.37891 -1.14507,0.32717 -2.61839,10e-4 -3.43631,-0.98047 -0.32717,-0.49074 -0.65324,-0.98191 -0.81683,-1.47266 -0.32715,-1.63582 -8.2e-4,-3.43547 1.14426,-4.74414 -0.85881,-1.34955 -2.08541,-2.14721 -3.12824,-2.18554 z"
     id="path603" /><path
     style="fill:#ffffff;stroke-width:1.63582"
     d="m 341.16082,285.265 -0.65487,5.89062 c 0,0 -2.78022,29.6071 -3.43455,36.1504 -0.65433,6.54329 -1.80036,7.52507 -5.39917,24.04687 -3.59881,16.5218 -2.2892,21.10262 -3.10712,29.44531 -0.32715,2.78091 -0.65515,6.05209 -0.98231,9.16016 l 2.29029,-5.5625 v 7.85351 l 2.78145,-7.03515 -0.32744,6.54297 2.12657,-4.41602 0.32744,5.72461 1.4717,-7.85156 1.14602,6.2168 v -0.32813 h 0.48939 l 1.63718,-8.17773 v 4.25195 l -0.16371,3.76367 h 0.48939 l 3.43631,-7.85351 c 0.16359,1.63581 0.16359,3.43642 0,5.07226 -0.16358,0.98149 -0.32743,1.79976 -0.32743,2.78125 h 0.9823 l 5.39741,-10.4707 c -0.32717,2.45373 -0.98124,4.745 -1.79914,7.03515 -0.49075,1.30865 -0.81886,2.28904 -1.14602,2.94336 h 0.16372 l 0.65487,-0.16211 3.43455,-5.39843 -1.30798,4.58007 c 0.65433,-0.32715 1.14454,-0.81881 1.4717,-1.63671 l 0.16372,-0.32618 c 0.65433,-3.76239 0.98202,-7.68878 0.65487,-11.45117 -0.32717,-6.3797 -2.61733,-12.43286 -6.37971,-17.5039 -4.25314,-6.37971 -3.43456,-6.54297 -3.43456,-6.54297 0,0 -1.30894,-2.61668 -2.454,-3.10742 -1.14508,-0.49075 -0.81846,-0.81826 -0.65488,-2.78125 0.16358,-1.96298 -0.48994,-1.30857 -1.14426,-1.9629 -0.65433,-0.65432 -0.16438,-0.9818 1.14426,-3.43554 1.30866,-2.45374 0.32784,-4.25356 0.81859,-11.45117 0.65432,-8.66987 2.12672,-17.17489 4.41686,-25.51758 1.963,-6.70688 3.10808,-8.66973 4.25315,-12.59571 1.14507,-3.92596 -0.16372,-5.23632 -0.16372,-5.23632 -1.14507,0 -2.29123,10e-4 -3.43632,-0.16211 z"
     id="path601" /><path
     style="fill:#ffffff;stroke-width:1.63582"
     d="m 417.93039,126.77867 c 7.06523,19.56296 12.51385,41.04704 15.98097,63.9375 -1.30866,-2.61732 -2.94488,-4.90907 -4.74429,-7.19922 -6.5433,-8.1791 -12.75862,-6.86952 -18.15684,-8.99609 -5.3982,-2.12658 -4.08956,-0.9819 -6.37971,-11.45117 -2.29015,-10.46926 -3.76308,-9.65218 -7.1983,-12.92383 -3.43524,-3.27165 -12.59559,-4.57905 -20.93828,-5.56055 -8.17911,-0.98148 -18.64813,-0.98232 -25.19142,-2.94531 -6.54329,-1.96299 -13.90396,-6.87056 -18.48427,-8.01563 -4.58029,-1.14507 -15.86749,6.38013 -21.26571,11.45118 -5.3982,5.07105 -8.3423,3.9261 -14.39484,7.36132 -4.5803,3.43524 -8.83468,7.68776 -12.10632,12.43165 0,0 -5.39714,6.87038 -9.32311,11.2871 -3.59881,4.90748 -6.21734,10.30587 -7.85318,16.03125 -1.30864,4.25315 2.61786,9.97937 4.90802,12.92383 2.29015,2.94449 8.67053,0.65405 9.32487,5.88867 0.65433,5.23465 8.99716,7.52581 2.29029,8.99805 -2.29015,0.49075 -11.4524,-2.94631 -14.72404,-2.61914 -3.27166,0.32716 10.14332,14.72283 5.7266,10.79688 -4.41672,-3.92598 -11.61555,-8.50611 -12.10631,-13.25 -0.49074,-4.74388 1.6365,-2.4538 2.94516,-8.66993 0.81791,-3.5988 0.16385,-7.19663 -1.79914,-10.30468 -2.61731,-3.27164 -5.23558,-6.87188 -7.52574,-10.47071 -1.47223,-2.61729 -0.8179,-4.25274 -2.12657,-7.85156 -1.30866,-3.59881 -5.56046,-1.14424 -8.99568,-7.0332 -2.29015,-3.43523 -4.90883,-6.54285 -8.01689,-9.16016 -2.29017,-2.78091 -1.96192,-4.41762 -5.06997,-1.63672 -3.10808,2.78089 -5.39835,6.54397 -8.67,6.2168 -3.27164,-0.32715 -2.78077,-4.08952 -6.216,-0.6543 -2.29014,2.12657 -4.58086,4.25333 -7.03458,6.05274 0,0 -1.79872,7.68806 -3.43456,15.86718 -1.63581,8.1791 -23.22856,21.10157 -23.22856,21.10157 0,0 10.63272,-8.01544 10.46914,-11.94141 -0.16359,-3.92597 5.56126,-9.15988 7.85141,-14.39453 2.29016,-5.23462 2.45429,-7.1989 0.65487,-3.76367 -2.78088,4.08954 -6.54356,7.52478 -10.96029,9.97851 -3.43523,1.30866 -6.87034,2.45406 -10.46914,3.43555 -2.42232,0.96893 -6.44671,7.82402 -12.37213,11.30469 -1.85691,15.41704 -2.8413,31.38359 -2.8413,47.74804 0,129.39357 61.34361,234.25 136.26427,234.25 35.47823,0 67.82451,-23.53743 92.06399,-62.03515 -24.20956,38.20655 -56.5224,61.54492 -92.06399,61.54492 -45.96661,0 -86.53566,-39.26024 -111.23657,-99.29492 l -0.16372,-1.3086 c 2.78089,4.41672 5.23519,8.99683 7.03459,13.9043 0,0 2.12738,-0.6531 0.9823,-4.90625 -0.81792,-3.43522 -2.12819,-6.5438 -4.09118,-9.48828 2.12657,2.29015 4.09091,4.57997 5.89032,7.19727 0.98149,1.79941 2.12589,3.59855 3.43455,5.23437 -0.32717,-2.45374 -0.81737,-4.74305 -1.4717,-7.0332 -0.65433,-1.96299 -1.96285,-5.07227 -1.96285,-5.07227 l 7.03282,9.97852 c 0.16359,-1.30866 0.32758,-2.77972 0.49116,-4.25196 -0.32716,-2.45373 -1.14427,-6.21679 -1.14427,-6.21679 l 1.63542,3.76367 c 0.16357,-2.78089 0.655,-5.72548 0.81859,-8.01563 0.81791,-7.19762 -0.81859,-8.99804 -0.81859,-8.99804 2.45372,-3.92598 1.96258,-1.63606 5.88856,-5.39844 4.25313,-3.27166 5.88883,-8.83324 4.08942,-13.9043 -0.8179,-4.08954 -0.9804,-8.01591 -0.81682,-12.10547 l -1.30975,0.49219 c -1.30865,-1.30867 -2.45277,-2.94473 -3.10711,-4.74414 -0.32716,-1.96299 1.79913,-4.08984 1.79913,-4.08984 0.65433,-2.29016 1.63473,-4.57999 2.9434,-6.54297 2.78089,-4.90749 10.63382,-7.68942 16.03202,-8.34375 5.39823,-0.65433 24.04662,3.43502 29.772,3.92578 2.12657,0 4.25315,-0.16305 6.37971,-0.49023 4.08956,-0.49075 8.17872,-0.6543 12.26828,-0.6543 4.74388,-0.49074 3.4351,-0.32743 6.21599,-4.74414 2.29015,-3.27164 4.74471,-6.54381 7.36202,-9.48828 0,0 -0.65554,-2.12589 -1.47346,-3.76172 -0.81791,-1.63582 -1.14466,-3.76315 0.49116,-4.25391 1.63582,-0.49075 5.23545,4.08985 5.23545,4.08985 2.45371,-1.96299 4.90679,-3.92473 7.68769,-5.56055 3.7624,-1.7994 7.85304,-3.43501 11.9426,-4.58008 l 2.9434,1.4707 c 1.47224,1.96299 2.1263,4.41735 1.79914,6.8711 -1.79941,2.61731 -3.762,4.90711 -5.88856,7.19726 -2.12658,3.10806 -1.1444,7.6894 -3.43456,8.99805 -2.7809,1.14509 -5.23544,2.77967 -7.36202,4.90625 -3.43522,3.43522 -5.07119,8.34402 -4.41686,13.08789 -0.32716,7.03404 -2.12576,13.90301 -5.3974,20.11914 0,0 -0.16332,1.63649 -6.05228,6.2168 -1.63582,1.30867 -3.5999,2.45406 -5.56289,3.43555 0,0 0.16346,1.14513 1.96286,8.66992 0.65432,3.27164 2.12766,8.17898 3.43631,12.5957 1.47224,2.61731 3.10684,5.23425 4.90625,7.85156 l 0.98231,1.3086 h 0.81859 c -0.49074,-1.47225 -1.14657,-2.9433 -1.8009,-4.25196 -0.98149,-2.12656 -1.63581,-4.41687 -2.12657,-6.70703 l 4.90802,10.79492 0.49115,-6.05078 0.65487,-3.92773 1.63542,9.48828 1.4717,-3.76172 1.30798,-3.43555 0.81859,7.19727 0.49115,-1.47266 0.32744,-5.72461 0.81683,2.29102 0.9823,-2.78125 v 5.23437 l 0.49116,1.3086 0.48939,-1.3086 v -5.23437 l 0.98231,2.78125 0.81859,-2.29102 0.16195,5.88868 0.49116,1.47265 0.81859,-7.19726 1.30798,3.43554 1.47346,3.76172 1.63542,-9.48828 0.65311,3.92578 0.32743,6.05274 5.07173,-10.95899 c -0.49075,2.29016 -1.14508,4.58047 -2.12657,6.70703 -0.65434,1.30866 -1.14469,2.77971 -1.63542,4.25196 h 0.98055 l 0.81859,-1.14453 c 0.81791,-1.14507 1.63611,-2.45306 2.45401,-3.76172 v -0.49219 c 1.63583,-8.01552 2.61623,-16.02988 2.9434,-24.20899 0.98149,-11.77791 3.60003,-18.81233 5.7266,-32.0625 2.12657,-13.25015 4.74253,-45.96679 4.74253,-45.96679 l -1.30798,-0.98242 v -1.14454 l -0.9823,-2.45312 0.49115,-1.63672 c 0,0 -0.16264,-2.29051 -0.98055,-2.78125 -0.81792,-0.49075 4.74254,-3.43359 4.74254,-3.43359 l 1.30974,-4.25391 2.29029,0.49024 0.81683,4.2539 4.41686,1.14453 -0.48939,-7.19726 -7.36202,0.16406 c -1.14507,1.963 -2.45347,3.76262 -3.92571,5.39844 l -0.49115,0.49023 c -3.59881,3.10807 -7.52547,5.88856 -11.45145,8.50586 -3.7624,2.61733 -11.77712,4.25388 -11.77712,4.9082 -0.65432,2.12658 -1.96259,4.0883 -3.76199,5.56055 -1.47225,1.30865 -2.94422,2.61764 -3.92571,3.43555 0,0.16358 -0.32757,0.16406 -0.49115,0.16406 -0.16357,-0.16358 -0.16372,-0.4912 -0.16372,-0.81836 l 0.98055,-3.76172 -4.74254,4.58008 -2.454,-2.94531 c -0.32717,-0.32717 -0.49116,-0.81784 -0.49116,-1.3086 v -0.8164 c 0.32716,-1.47224 0.81738,-2.94572 1.4717,-4.41797 1.30868,-2.94448 2.45469,-2.29001 5.39917,-3.27149 3.76239,-0.9815 7.19696,-3.10873 9.81427,-6.21679 5.88895,-5.07106 10.79684,-11.12285 15.37715,-15.04883 4.58029,-3.92598 5.72484,-3.43555 5.72484,-3.43555 1.30867,-1.7994 3.10888,-3.43501 5.23545,-4.58008 4.25315,-2.29014 7.68797,-5.5623 10.1417,-9.48828 2.12657,-2.78088 4.41727,-5.56188 7.03459,-8.01562 l -2.45401,-5.07031 c -1.63582,0.81792 -3.27232,1.47164 -5.07173,1.79882 -2.45374,0.32716 -1.14426,-2.77929 -1.14426,-2.77929 l -2.29029,-0.49219 0.16371,-1.96289 h -1.30974 l -0.16196,-2.28906 -2.454,0.32617 0.81683,-5.56055 -1.14427,-0.6543 -0.65487,-3.43554 -3.10712,-0.16406 -1.47346,-1.9629 c 1.7994,-2.78089 3.92586,-5.39782 6.216,-7.85156 2.78091,-2.94448 6.05365,-5.23431 9.81603,-6.54297 l 2.9434,-0.65625 c 0,0 3.43617,-0.16211 5.39916,-0.16211 1.96299,0 4.74444,0.98096 7.03459,1.14454 2.29014,0.16359 4.25287,5.88902 3.9257,8.66992 -0.32715,2.78089 -1.47304,1.63615 -0.9823,3.43554 0.16359,2.29015 -0.49048,4.74405 -1.79914,6.70704 -1.14508,2.6173 -0.16332,5.8886 2.45401,7.19726 2.6173,1.96299 2.12711,4.41672 9.16115,9.97852 7.03403,5.56179 4.90626,5.88883 7.03283,12.5957 1.79941,5.56179 0.32743,25.02734 0.32743,25.02734 l -1.30798,0.6543 -1.14602,4.08984 c -1.14508,4.08956 -1.96286,7.52539 -1.96286,7.52539 l -2.9434,0.49024 -1.63717,2.45508 0.49115,2.94336 c 0.65433,1.47225 0.98081,3.10784 1.30798,4.58007 0.8179,5.56181 0.65568,11.12328 -0.48939,16.52149 -1.30866,4.08956 -3.59922,4.74449 -4.7443,7.52539 -0.9815,2.94449 -1.4717,6.05209 -1.4717,9.16016 0.16359,3.59881 0.16345,7.034 -0.16371,10.63281 -0.49074,1.63582 -0.98149,3.10839 0,3.43555 0.98149,0.32716 -0.32826,2.61858 -1.30975,3.76367 -0.98149,1.14507 -0.65379,3.59817 0.65487,3.10742 1.30865,-0.49075 2.29029,1.9618 2.29029,4.25195 -0.49075,3.10806 -0.49075,6.38071 0,9.65235 0.9815,7.03403 -1.63557,12.2677 -3.9257,19.6289 -0.49075,1.47224 -0.81873,3.10831 -0.98231,4.74414 l 2.12657,-4.08984 c 0,0 -0.32622,2.29085 -0.98055,5.5625 -0.49074,1.47224 -0.16466,3.10737 0.81683,4.41601 h 0.16372 l 1.63542,-11.77734 1.14602,6.87109 1.14427,5.23438 2.29029,-13.74023 c 0,0 0.49115,4.7435 0.49115,7.85156 0,2.12657 0.49006,4.08974 1.30798,6.05273 h 0.81859 l 0.65487,-2.12695 c 0,0 1.79941,-11.77899 2.12657,-8.34375 0.16359,3.43524 0.16359,7.03548 0,10.4707 h 1.14427 c 0.32717,-0.65432 0.81899,-1.47212 1.30974,-2.61719 1.96298,-4.90746 4.74253,-10.63364 2.61596,-3.5996 -1.30865,4.08955 0.16426,5.88864 0.81859,6.54296 h 0.49116 l 5.23369,-12.5957 c -0.16358,3.10808 -0.49008,6.05357 -1.30799,8.99805 -1.14509,4.90747 -0.3281,4.25208 0.98055,1.63476 l 4.7443,-9.81445 0.32743,5.88867 c 0,0 -0.1633,7.36191 0.32744,5.5625 0,-0.49075 -0.32675,-0.32806 4.74429,-11.61523 l -0.9823,7.03515 -0.15492,5.56055 h 0.64607 l 5.07173,-12.5957 c 0,0 -0.65527,3.59948 -1.14602,6.21679 -0.15208,1.36868 -0.41542,2.7368 -0.45595,4.10547 17.69886,-39.53577 28.26509,-89.04342 28.26509,-142.82422 -0.0576,-45.54018 -7.65801,-88.01095 -20.72527,-123.9707 z m -29.16817,29.91211 4.41686,1.4707 c 2.12656,5.56181 3.43659,11.28877 3.76374,17.17774 0.49075,9.48776 5.39741,8.66992 5.39741,8.66992 0,0 0.491,9.97738 -1.79913,12.92188 -2.29016,2.94446 0.65487,20.77539 0.65487,20.77539 l -7.68946,-16.35743 c -2.7809,1.30867 -5.07118,3.598 -6.54343,6.37891 -3.10806,5.23463 -2.45361,1.14521 -4.08942,-2.61719 -1.63584,-3.92596 0.49075,-2.29027 2.12657,-7.36133 1.30866,-2.61732 1.96256,-5.56138 1.63541,-8.50585 0,-6.21613 0.49197,-12.43232 1.47346,-18.64844 0.81791,-4.58031 0.98027,-9.32399 0.65312,-13.9043 z"
     id="path599" /></g></g>
     </g>
    </g>
   </g>
  </g>
 </g>
</svg>
