<?xml version="1.0" encoding="UTF-8" standalone="no"?>
<svg
   version="1.2"
   width="150.00999mm"
   height="149.95999mm"
   viewBox="0 0 15001 14995.999"
   preserveAspectRatio="xMidYMid"
   fill-rule="evenodd"
   stroke-width="28.222"
   stroke-linejoin="round"
   xml:space="preserve"
   id="svg34"
   sodipodi:docname="ID15a31.svg"
   inkscape:version="1.2.2 (b0a8486541, 2022-12-01)"
   xmlns:inkscape="http://www.inkscape.org/namespaces/inkscape"
   xmlns:sodipodi="http://sodipodi.sourceforge.net/DTD/sodipodi-0.dtd"
   xmlns="http://www.w3.org/2000/svg"
   xmlns:svg="http://www.w3.org/2000/svg"
   xmlns:ooo="http://xml.openoffice.org/svg/export"><sodipodi:namedview
   id="namedview34"
   pagecolor="#ffffff"
   bordercolor="#000000"
   borderopacity="0.25"
   inkscape:showpageshadow="2"
   inkscape:pageopacity="0.0"
   inkscape:pagecheckerboard="true"
   inkscape:deskcolor="#d1d1d1"
   inkscape:document-units="mm"
   fit-margin-top="50"
   fit-margin-left="50"
   fit-margin-right="50"
   fit-margin-bottom="50"
   showgrid="false"
   inkscape:zoom="8.0674226"
   inkscape:cx="556.24953"
   inkscape:cy="13.26322"
   inkscape:window-width="1280"
   inkscape:window-height="731"
   inkscape:window-x="0"
   inkscape:window-y="0"
   inkscape:window-maximized="1"
   inkscape:current-layer="svg34" />
 <defs
   class="ClipPathGroup"
   id="defs2">
  <clipPath
   id="presentation_clip_path"
   clipPathUnits="userSpaceOnUse">
   <rect
   x="0"
   y="0"
   width="21001"
   height="29703"
   id="rect1" />
  </clipPath>
  <clipPath
   id="presentation_clip_path_shrink"
   clipPathUnits="userSpaceOnUse">
   <rect
   x="21"
   y="29"
   width="20959"
   height="29644"
   id="rect2" />
  </clipPath>
 </defs>
 <defs
   class="TextShapeIndex"
   id="defs3">
  <g
   ooo:slide="id1"
   ooo:id-list="id3 id4 id5 id6 id7 id8 id9 id10 id11 id12 id13 id14 id15 id16 id17 id18 id19 id20"
   id="g2" />
 </defs>
 <defs
   class="EmbeddedBulletChars"
   id="defs12">
  <g
   id="bullet-char-template-57356"
   transform="matrix(4.8828125e-4,0,0,-4.8828125e-4,0,0)">
   <path
   d="M 580,1141 1163,571 580,0 -4,571 Z"
   id="path3" />
  </g>
  <g
   id="bullet-char-template-57354"
   transform="matrix(4.8828125e-4,0,0,-4.8828125e-4,0,0)">
   <path
   d="M 8,1128 H 1137 V 0 H 8 Z"
   id="path4" />
  </g>
  <g
   id="bullet-char-template-10146"
   transform="matrix(4.8828125e-4,0,0,-4.8828125e-4,0,0)">
   <path
   d="M 174,0 602,739 174,1481 1456,739 Z M 1358,739 309,1346 659,739 Z"
   id="path5" />
  </g>
  <g
   id="bullet-char-template-10132"
   transform="matrix(4.8828125e-4,0,0,-4.8828125e-4,0,0)">
   <path
   d="M 2015,739 1276,0 H 717 l 543,543 H 174 v 393 h 1086 l -543,545 h 557 z"
   id="path6" />
  </g>
  <g
   id="bullet-char-template-10007"
   transform="matrix(4.8828125e-4,0,0,-4.8828125e-4,0,0)">
   <path
   d="m 0,-2 c -7,16 -16,29 -25,39 l 381,530 c -94,256 -141,385 -141,387 0,25 13,38 40,38 9,0 21,-2 34,-5 21,4 42,12 65,25 l 27,-13 111,-251 280,301 64,-25 24,25 c 21,-10 41,-24 62,-43 C 886,937 835,863 770,784 769,783 710,716 594,584 L 774,223 c 0,-27 -21,-55 -63,-84 l 16,-20 C 717,90 699,76 672,76 641,76 570,178 457,381 L 164,-76 c -22,-34 -53,-51 -92,-51 -42,0 -63,17 -64,51 -7,9 -10,24 -10,44 0,9 1,19 2,30 z"
   id="path7" />
  </g>
  <g
   id="bullet-char-template-10004"
   transform="matrix(4.8828125e-4,0,0,-4.8828125e-4,0,0)">
   <path
   d="M 285,-33 C 182,-33 111,30 74,156 52,228 41,333 41,471 c 0,78 14,145 41,201 34,71 87,106 158,106 53,0 88,-31 106,-94 l 23,-176 c 8,-64 28,-97 59,-98 l 735,706 c 11,11 33,17 66,17 42,0 63,-15 63,-46 V 965 c 0,-36 -10,-64 -30,-84 L 442,47 C 390,-6 338,-33 285,-33 Z"
   id="path8" />
  </g>
  <g
   id="bullet-char-template-9679"
   transform="matrix(4.8828125e-4,0,0,-4.8828125e-4,0,0)">
   <path
   d="M 813,0 C 632,0 489,54 383,161 276,268 223,411 223,592 c 0,181 53,324 160,431 106,107 249,161 430,161 179,0 323,-54 432,-161 108,-107 162,-251 162,-431 0,-180 -54,-324 -162,-431 C 1136,54 992,0 813,0 Z"
   id="path9" />
  </g>
  <g
   id="bullet-char-template-8226"
   transform="matrix(4.8828125e-4,0,0,-4.8828125e-4,0,0)">
   <path
   d="m 346,457 c -73,0 -137,26 -191,78 -54,51 -81,114 -81,188 0,73 27,136 81,188 54,52 118,78 191,78 73,0 134,-26 185,-79 51,-51 77,-114 77,-187 0,-75 -25,-137 -76,-188 -50,-52 -112,-78 -186,-78 z"
   id="path10" />
  </g>
  <g
   id="bullet-char-template-8211"
   transform="matrix(4.8828125e-4,0,0,-4.8828125e-4,0,0)">
   <path
   d="M -4,459 H 1135 V 606 H -4 Z"
   id="path11" />
  </g>
  <g
   id="bullet-char-template-61548"
   transform="matrix(4.8828125e-4,0,0,-4.8828125e-4,0,0)">
   <path
   d="m 173,740 c 0,163 58,303 173,419 116,115 255,173 419,173 163,0 302,-58 418,-173 116,-116 174,-256 174,-419 0,-163 -58,-303 -174,-418 C 1067,206 928,148 765,148 601,148 462,206 346,322 231,437 173,577 173,740 Z"
   id="path12" />
  </g>
 </defs>
 <g
   id="g12"
   transform="translate(-2652,-5770)">
  <g
   id="id2"
   class="Master_Slide">
   <g
   id="bg-id2"
   class="Background" />
   <g
   id="bo-id2"
   class="BackgroundObjects" />
  </g>
 </g>
 <g
   class="SlideGroup"
   id="g34"
   transform="translate(-2652,-5770)">
  <g
   id="g33">
   <g
   id="container-id1">
    <g
   id="id1"
   class="Slide"
   clip-path="url(#presentation_clip_path)">
     <g
   class="Page"
   id="g32">
      <g
   class="Group"
   id="g31">
       <g
   class="com.sun.star.drawing.PolyPolygonShape"
   id="g13">
        <g
   id="id3">
         <rect
   class="BoundingBox"
   stroke="none"
   fill="none"
   x="2652"
   y="5770"
   width="15001"
   height="14996"
   id="rect12" />
         <path
   fill="#fefefe"
   stroke="none"
   d="M 2653,5770 V 20765 H 17652 V 5770 Z"
   id="path13" />
        </g>
       </g>
       <g
   class="com.sun.star.drawing.LineShape"
   id="g14"
   style="display:none">
        <g
   id="id4">
         <rect
   class="BoundingBox"
   stroke="none"
   fill="none"
   x="2628"
   y="5771"
   width="53"
   height="14994"
   id="rect13" />
         <path
   fill="none"
   stroke="#1b1918"
   stroke-width="51"
   stroke-linejoin="miter"
   d="M 2654,20764 V 5771"
   id="path14" />
        </g>
       </g>
       <g
   class="com.sun.star.drawing.LineShape"
   id="g15"
   style="display:none">
        <g
   id="id5">
         <rect
   class="BoundingBox"
   stroke="none"
   fill="none"
   x="2654"
   y="20739"
   width="14997"
   height="53"
   id="rect14" />
         <path
   fill="none"
   stroke="#1b1918"
   stroke-width="51"
   stroke-linejoin="miter"
   d="M 17650,20765 H 2654"
   id="path15" />
        </g>
       </g>
       <g
   class="com.sun.star.drawing.LineShape"
   id="g16"
   style="display:none">
        <g
   id="id6">
         <rect
   class="BoundingBox"
   stroke="none"
   fill="none"
   x="17624"
   y="5771"
   width="53"
   height="14994"
   id="rect15" />
         <path
   fill="none"
   stroke="#1b1918"
   stroke-width="51"
   stroke-linejoin="miter"
   d="M 17650,5771 V 20764"
   id="path16" />
        </g>
       </g>
       <g
   class="com.sun.star.drawing.LineShape"
   id="g17"
   style="display:none">
        <g
   id="id7">
         <rect
   class="BoundingBox"
   stroke="none"
   fill="none"
   x="2654"
   y="5745"
   width="14997"
   height="53"
   id="rect16" />
         <path
   fill="none"
   stroke="#1b1918"
   stroke-width="51"
   stroke-linejoin="miter"
   d="M 2654,5771 H 17650"
   id="path17" />
        </g>
       </g>
       <g
   class="com.sun.star.drawing.ClosedBezierShape"
   id="g18">
        <g
   id="id8">
         <rect
   class="BoundingBox"
   stroke="none"
   fill="none"
   x="11747"
   y="6271"
   width="5405"
   height="13995"
   id="rect17" />
         <path
   fill="#826500"
   stroke="none"
   d="m 11747,20265 5404,-2 V 6271 l -5404,2 c 449,279 807,536 1198,993 l 3208,3 v 11996 h -3208 c -322,398 -762,724 -1198,1000 z"
   id="path18" />
        </g>
       </g>
       <g
   class="com.sun.star.drawing.ClosedBezierShape"
   id="g19">
        <g
   id="id9">
         <rect
   class="BoundingBox"
   stroke="none"
   fill="none"
   x="3155"
   y="6270"
   width="5394"
   height="13996"
   id="rect18" />
         <path
   fill="#826500"
   stroke="none"
   d="m 8548,20265 -5393,-2 V 6271 l 5393,2 c -427,252 -843,561 -1199,993 l -3196,3 v 11996 h 3196 c 320,403 775,726 1199,1000 z"
   id="path19" />
        </g>
       </g>
       <g
   class="com.sun.star.drawing.PolyLineShape"
   id="g20">
        <g
   id="id10">
         <rect
   class="BoundingBox"
   stroke="none"
   fill="none"
   x="5946"
   y="12498"
   width="8387"
   height="2251"
   id="rect19" />
        </g>
       </g>
       <g
   class="com.sun.star.drawing.PolyPolygonShape"
   id="g21">
        <g
   id="id11">
         <rect
   class="BoundingBox"
   stroke="none"
   fill="none"
   x="5894"
   y="6330"
   width="8517"
   height="8068"
   id="rect20" />
         <path
   fill="#826500"
   stroke="none"
   d="m 10154,6330 -221,12 -216,24 -212,46 -213,62 -202,78 -203,91 -199,111 -195,123 -185,140 -187,157 -178,164 -172,181 -164,197 -164,206 -152,219 -147,230 -143,244 -135,250 -124,265 -121,275 -108,280 -104,292 -95,301 -83,308 -77,317 -66,325 -60,329 -48,337 -34,342 -30,350 -13,355 -9,358 9,398 436,-86 429,-103 428,-115 423,-131 420,-149 419,-160 419,-178 415,-193 415,-206 421,-226 416,-239 419,-259 419,-272 424,-288 429,-309 432,-325 -108,149 -130,160 -152,165 -168,169 -363,349 -359,350 -165,168 -147,165 -125,156 -57,79 -42,71 -39,70 -27,66 -17,66 -8,57 v 57 l 17,54 26,45 38,46 56,44 62,37 64,38 69,24 70,26 73,15 156,22 164,3 169,-12 169,-24 172,-33 170,-46 164,-50 307,-110 264,-107 193,-95 -125,198 -56,103 -52,103 -47,103 -39,103 -30,97 -22,99 -17,99 -4,91 8,86 13,83 30,78 40,70 56,61 69,53 151,92 164,74 178,62 177,44 182,33 177,21 172,12 h 170 l 21,-272 18,-271 8,-276 5,-279 -5,-358 -18,-355 -29,-350 -35,-342 -48,-337 -56,-329 -69,-325 -78,-317 -83,-308 -94,-301 -104,-292 -108,-280 -122,-275 -125,-265 -134,-250 -139,-244 -150,-230 -151,-219 -166,-206 -164,-197 -172,-181 -177,-164 -186,-157 -187,-140 -195,-123 -198,-111 -199,-91 -207,-78 -212,-62 -212,-46 -217,-24 z"
   id="path20" />
        </g>
       </g>
       <g
   class="com.sun.star.drawing.ClosedBezierShape"
   id="g22">
        <g
   id="id12">
         <rect
   class="BoundingBox"
   stroke="none"
   fill="none"
   x="6005"
   y="14854"
   width="8295"
   height="5412"
   id="rect21" />
         <path
   fill="#826500"
   stroke="none"
   d="m 6035,15135 -30,-261 c 101,58 96,106 355,106 244,0 244,-126 500,-126 257,0 247,126 501,126 254,0 246,-126 498,-126 251,0 246,126 498,126 251,0 251,-126 502,-126 252,0 247,126 498,126 252,0 249,-126 503,-126 254,0 249,126 499,126 249,0 249,-126 503,-126 254,0 246,126 503,126 256,0 241,-126 498,-126 256,0 249,126 498,126 249,0 254,-126 502,-126 249,0 244,126 493,126 330,-116 607,-93 943,-124 l -49,330 -48,272 -61,267 -61,264 -73,259 -74,251 -81,247 -87,239 -96,233 -99,226 -105,225 -106,213 -112,206 -122,198 -127,188 -135,180 -104,132 -724,-690 c -53,-11 -243,-21 -276,0 350,236 663,472 970,729 l -51,71 -33,53 -135,152 -139,143 -137,132 -143,127 -147,117 -152,111 -150,97 -155,91 -160,79 -160,69 -165,58 -165,48 -168,43 -173,28 -167,16 -176,5 -181,-5 -183,-21 -178,-28 -172,-40 -173,-54 -168,-66 -170,-78 -163,-87 -160,-94 -160,-106 -152,-120 -150,-124 -152,-140 -142,-145 -140,-155 -137,-160 -155,-211 -127,-172 -132,-214 h 7 -7 l -165,-276 -155,-298 -110,-234 -94,-214 -78,-193 -74,-205 -79,-224 -71,-239 -73,-251 -127,-462 -54,-216 c 117,28 38,45 282,45 244,0 244,-122 500,-122 257,0 247,122 501,122 254,0 246,-122 498,-122 226,0 246,122 498,122 251,0 256,-122 502,-122 247,0 249,122 498,122 249,0 249,-122 503,-122 254,0 249,122 499,122 249,0 257,-122 503,-122 246,0 246,122 503,122 256,0 241,-122 498,-122 256,0 249,122 498,122 249,0 249,-122 502,-122 34,-81 74,-129 176,-221 -59,-25 -117,-30 -176,-30 -253,-3 -253,122 -502,122 -249,0 -242,-122 -498,-122 -257,0 -242,122 -498,122 -257,0 -249,-122 -503,-122 -254,0 -254,122 -503,122 -250,0 -245,-122 -499,-122 -254,0 -251,122 -503,122 -251,0 -246,-122 -498,-122 -251,0 -251,122 -502,122 -252,0 -247,-122 -498,-122 -252,0 -244,122 -498,122 -254,0 -254,-122 -501,-122 -246,0 -248,122 -500,122 -251,0 -246,-38 -325,-92 z"
   id="path21" />
        </g>
       </g>
       <g
   class="com.sun.star.drawing.PolyPolygonShape"
   id="g23">
        <g
   id="id13">
         <rect
   class="BoundingBox"
   stroke="none"
   fill="none"
   x="5946"
   y="12498"
   width="8387"
   height="2250"
   id="rect22" />
         <path
   fill="#826500"
   stroke="none"
   d="m 12780,14401 -112,-54 -100,-61 -87,-62 -73,-71 -60,-70 -48,-73 -35,-79 -25,-82 -19,-83 -4,-81 4,-83 19,-82 21,-83 35,-83 42,-77 48,-75 -90,42 -96,37 -108,33 -112,29 -239,44 -126,17 -125,13 -129,4 h -126 l -125,-4 -120,-13 -118,-17 -112,-24 -104,-29 -100,-37 -51,-25 -48,-32 -43,-38 -40,-41 -29,-40 -27,-50 -42,-104 -22,-111 -5,-120 9,-119 26,-119 -151,107 -168,115 -191,119 -203,128 -226,128 -237,136 -259,132 -268,131 -286,132 -300,129 -311,123 -324,119 -338,107 -349,104 -359,95 -368,77 44,367 h 8325 l 17,-135 -199,-6 -216,-7 -224,-21 -222,-25 -211,-33 -190,-37 -164,-40 z"
   id="path22" />
        </g>
       </g>
       <g
   class="com.sun.star.drawing.ClosedBezierShape"
   id="g24">
        <g
   id="id14">
         <rect
   class="BoundingBox"
   stroke="none"
   fill="none"
   x="7999"
   y="7213"
   width="2433"
   height="2145"
   id="rect23" />
         <path
   fill="#ffffff"
   stroke="none"
   d="m 9442,7241 c 48,5 93,11 140,22 9,6 17,11 26,20 3,42 -270,554 -292,618 5,-3 17,17 31,9 45,-59 64,-65 73,-68 39,-39 146,-105 146,-105 31,-22 182,-126 233,-154 34,-6 51,-28 82,-34 20,-5 45,-5 59,12 17,22 45,42 48,75 19,54 47,99 59,156 14,5 -3,17 0,25 -17,14 -37,22 -51,39 -6,-3 -8,6 -14,9 -14,2 -22,22 -39,22 -82,67 -164,118 -248,183 v 2 c 206,37 396,107 582,191 31,11 61,25 90,42 h 5 c 23,20 59,17 59,51 -3,14 -3,22 -14,31 -28,36 -31,87 -62,123 -17,14 -36,28 -59,28 -16,9 -30,3 -50,11 -6,-8 -17,-16 -31,-11 -31,14 -73,26 -107,11 -64,-33 -129,-70 -193,-95 -142,-50 -282,-87 -436,-95 l -99,2 c -8,3 -8,12 -8,20 11,20 31,28 48,42 70,82 160,171 241,239 81,76 164,140 237,214 53,42 28,112 45,166 0,14 0,28 -11,33 -9,0 -15,6 -17,12 -31,8 -51,28 -73,42 -12,11 -14,19 -24,28 v 5 c -17,28 -45,40 -76,42 -8,3 -16,6 -22,9 -17,-6 -22,20 -34,8 -53,-59 -120,-98 -171,-160 -31,-19 -53,-47 -84,-67 -87,-87 -152,-168 -241,-254 -3,9 -3,12 0,23 -9,68 11,136 16,197 14,73 26,146 40,222 14,48 19,93 14,149 -3,5 0,17 -12,19 -28,14 -56,0 -84,-5 -5,-11 -19,-9 -28,-14 -17,3 -36,-3 -50,3 -9,-3 -14,8 -23,2 -3,9 -5,-2 -11,0 -20,-2 -39,-5 -59,-8 -20,-8 -42,-8 -62,-17 -5,-11 -5,-25 -11,-39 -28,-132 -56,-275 -59,-410 -8,-25 0,-51 -5,-74 -87,88 -163,186 -225,293 -22,17 -32,65 -68,48 -3,0 -6,-6 -9,-3 -5,-3 -8,-11 -8,-17 -9,-14 -20,-17 -28,-25 -37,-3 -70,-17 -104,-25 -20,-9 -23,-31 -37,-40 -5,-25 -42,-25 -42,-48 -5,-11 -5,-16 0,-25 14,-11 17,-31 28,-45 71,-99 141,-192 216,-279 63,-81 147,-162 204,-249 14,-20 -17,-20 -20,-34 -23,-8 -51,0 -70,-8 -56,0 -102,-12 -156,-3 -36,-9 -81,31 -106,-14 -3,-6 -6,-14 -14,-14 -12,8 -28,8 -34,19 -14,3 -36,0 -53,3 -65,11 -135,17 -197,25 -19,3 -42,12 -59,6 -22,-14 -19,-39 -22,-62 -20,-8 -25,-28 -37,-42 -5,-31 -11,-56 -16,-84 2,-3 5,-11 11,-11 3,0 8,0 11,-6 l -6,-14 c 14,-17 34,-17 51,-31 48,-19 104,-19 157,-33 109,-20 230,-17 348,-20 6,-6 -6,-11 -3,-17 -25,-34 -45,-70 -64,-109 -34,-54 -79,-101 -110,-158 -14,-14 -19,-29 -33,-37 -9,-11 -14,-28 -23,-42 -3,-23 -22,-62 6,-76 61,-56 120,-115 193,-154 -2,-14 14,-6 20,-14 3,8 11,2 17,2 28,6 40,37 51,57 12,16 6,50 31,59 59,36 65,109 110,160 39,76 104,132 154,200 9,3 11,14 20,17 0,8 11,5 11,14 14,-45 31,-96 48,-143 25,-80 42,-161 70,-240 3,-34 22,-62 28,-95 17,-31 22,-68 39,-102 0,-19 20,-33 20,-53 0,-3 42,-70 42,-76 14,-11 25,-30 45,-30 67,5 132,28 199,28 z"
   id="path23" />
        </g>
       </g>
       <g
   class="com.sun.star.drawing.ClosedBezierShape"
   id="g25">
        <g
   id="id15">
         <rect
   class="BoundingBox"
   stroke="none"
   fill="none"
   x="6668"
   y="15603"
   width="6189"
   height="375"
   id="rect24" />
         <path
   fill="#ffffff"
   stroke="none"
   d="m 12820,15605 c -205,13 -228,124 -459,124 -249,0 -242,-126 -498,-126 -257,0 -242,126 -498,126 -257,0 -249,-126 -503,-126 -254,0 -254,126 -503,126 -249,0 -244,-126 -498,-126 -255,0 -252,126 -504,126 -251,0 -246,-126 -497,-126 -252,0 -252,126 -503,126 -252,0 -247,-126 -498,-126 -252,0 -244,126 -498,126 -254,0 -244,-126 -500,-126 -87,0 -148,12 -193,33 l 861,313 c 101,-33 149,-94 330,-94 251,0 246,122 498,122 251,0 251,-122 503,-122 251,0 246,122 497,122 252,0 249,-122 504,-122 254,0 249,122 498,122 249,0 249,-122 503,-122 254,0 246,122 503,122 256,0 241,-122 498,-122 256,0 249,122 498,122 249,0 241,-132 495,-132 -15,-85 -36,-154 -36,-240 z"
   id="path24" />
        </g>
       </g>
       <g
   class="com.sun.star.drawing.ClosedBezierShape"
   id="g26">
        <g
   id="id16">
         <rect
   class="BoundingBox"
   stroke="none"
   fill="none"
   x="7915"
   y="16099"
   width="3284"
   height="375"
   id="rect25" />
         <path
   fill="#ffffff"
   stroke="none"
   d="m 10919,16351 c 81,-80 190,-128 279,-151 -114,-38 -150,-101 -335,-101 -254,0 -254,127 -504,127 -249,0 -244,-127 -498,-127 -254,0 -251,127 -503,127 -251,0 -246,-127 -498,-127 -252,0 -252,127 -504,127 -231,0 -243,-110 -441,-125 l 718,298 c 54,-25 118,-48 227,-48 252,0 247,122 498,122 252,0 249,-122 503,-122 254,0 249,122 498,122 250,0 250,-122 504,-122 23,0 35,3 56,0 z"
   id="path25" />
        </g>
       </g>
       <g
   class="com.sun.star.drawing.ClosedBezierShape"
   id="g27">
        <g
   id="id17">
         <rect
   class="BoundingBox"
   stroke="none"
   fill="none"
   x="11618"
   y="16099"
   width="1615"
   height="528"
   id="rect26" />
         <path
   fill="#ffffff"
   stroke="none"
   d="m 12945,16104 c -25,-3 -50,-5 -81,-5 -250,0 -255,127 -504,127 -249,0 -241,-127 -499,-127 -122,0 -188,30 -243,58 613,35 1095,237 1614,469 -124,-186 -198,-336 -287,-522 z"
   id="path26" />
        </g>
       </g>
       <g
   class="com.sun.star.drawing.ClosedBezierShape"
   id="g28">
        <g
   id="id18">
         <rect
   class="BoundingBox"
   stroke="none"
   fill="none"
   x="9357"
   y="16601"
   width="1541"
   height="375"
   id="rect27" />
         <path
   fill="#ffffff"
   stroke="none"
   d="m 9357,16727 325,154 c 45,-15 99,-28 177,-28 254,0 249,122 499,122 249,0 249,-122 503,-122 15,0 26,2 36,2 -43,-77 -71,-155 -79,-254 -213,15 -229,126 -460,126 -250,0 -245,-126 -499,-126 -254,0 -251,126 -502,126 z"
   id="path27" />
        </g>
       </g>
       <g
   class="com.sun.star.drawing.ClosedBezierShape"
   id="g29">
        <g
   id="id19">
         <rect
   class="BoundingBox"
   stroke="none"
   fill="none"
   x="10338"
   y="17099"
   width="1061"
   height="375"
   id="rect28" />
         <path
   fill="#ffffff"
   stroke="none"
   d="m 11398,17470 c -99,-101 -186,-194 -267,-298 -66,-35 -127,-73 -270,-73 -254,0 -254,126 -503,126 -8,0 -15,-2 -20,-2 l 307,171 c 51,-25 114,-43 216,-43 255,0 247,122 504,122 10,0 23,-3 33,-3 z"
   id="path28" />
        </g>
       </g>
       <g
   class="com.sun.star.drawing.ClosedBezierShape"
   id="g30">
        <g
   id="id20">
         <rect
   class="BoundingBox"
   stroke="none"
   fill="none"
   x="11024"
   y="17620"
   width="749"
   height="322"
   id="rect29" />
         <path
   fill="#ffffff"
   stroke="none"
   d="m 11538,17941 c -181,-115 -337,-215 -514,-321 106,40 162,101 341,104 112,0 170,-26 229,-54 l 178,174 c -109,25 -150,69 -234,97 z"
   id="path29" />
        </g>
       </g>
      </g>
     </g>
    </g>
   </g>
  </g>
 </g>
</svg>
