<?xml version="1.0" encoding="UTF-8" standalone="no"?>
<svg
   version="1.2"
   width="150.00999mm"
   height="149.96001mm"
   viewBox="0 0 15000.999 14996.001"
   preserveAspectRatio="xMidYMid"
   fill-rule="evenodd"
   stroke-width="28.222"
   stroke-linejoin="round"
   xml:space="preserve"
   id="svg39"
   sodipodi:docname="ID15a21.svg"
   inkscape:version="1.2.2 (b0a8486541, 2022-12-01)"
   xmlns:inkscape="http://www.inkscape.org/namespaces/inkscape"
   xmlns:sodipodi="http://sodipodi.sourceforge.net/DTD/sodipodi-0.dtd"
   xmlns="http://www.w3.org/2000/svg"
   xmlns:svg="http://www.w3.org/2000/svg"
   xmlns:ooo="http://xml.openoffice.org/svg/export"><sodipodi:namedview
   id="namedview39"
   pagecolor="#ffffff"
   bordercolor="#000000"
   borderopacity="0.25"
   inkscape:showpageshadow="2"
   inkscape:pageopacity="0.0"
   inkscape:pagecheckerboard="true"
   inkscape:deskcolor="#d1d1d1"
   inkscape:document-units="mm"
   fit-margin-top="50"
   fit-margin-left="50"
   fit-margin-right="50"
   fit-margin-bottom="50"
   showgrid="false"
   inkscape:zoom="5.8691188"
   inkscape:cx="553.66062"
   inkscape:cy="25.387116"
   inkscape:window-width="1280"
   inkscape:window-height="731"
   inkscape:window-x="0"
   inkscape:window-y="0"
   inkscape:window-maximized="1"
   inkscape:current-layer="svg39" />
 <defs
   class="ClipPathGroup"
   id="defs2">
  <clipPath
   id="presentation_clip_path"
   clipPathUnits="userSpaceOnUse">
   <rect
   x="0"
   y="0"
   width="21001"
   height="29703"
   id="rect1" />
  </clipPath>
  <clipPath
   id="presentation_clip_path_shrink"
   clipPathUnits="userSpaceOnUse">
   <rect
   x="21"
   y="29"
   width="20959"
   height="29644"
   id="rect2" />
  </clipPath>
 </defs>
 <defs
   class="TextShapeIndex"
   id="defs3">
  <g
   ooo:slide="id1"
   ooo:id-list="id3 id4 id5 id6 id7 id8 id9 id10 id11 id12 id13 id14 id15 id16 id17 id18 id19 id20 id21 id22 id23 id24"
   id="g2" />
 </defs>
 <defs
   class="EmbeddedBulletChars"
   id="defs12">
  <g
   id="bullet-char-template-57356"
   transform="matrix(4.8828125e-4,0,0,-4.8828125e-4,0,0)">
   <path
   d="M 580,1141 1163,571 580,0 -4,571 Z"
   id="path3" />
  </g>
  <g
   id="bullet-char-template-57354"
   transform="matrix(4.8828125e-4,0,0,-4.8828125e-4,0,0)">
   <path
   d="M 8,1128 H 1137 V 0 H 8 Z"
   id="path4" />
  </g>
  <g
   id="bullet-char-template-10146"
   transform="matrix(4.8828125e-4,0,0,-4.8828125e-4,0,0)">
   <path
   d="M 174,0 602,739 174,1481 1456,739 Z M 1358,739 309,1346 659,739 Z"
   id="path5" />
  </g>
  <g
   id="bullet-char-template-10132"
   transform="matrix(4.8828125e-4,0,0,-4.8828125e-4,0,0)">
   <path
   d="M 2015,739 1276,0 H 717 l 543,543 H 174 v 393 h 1086 l -543,545 h 557 z"
   id="path6" />
  </g>
  <g
   id="bullet-char-template-10007"
   transform="matrix(4.8828125e-4,0,0,-4.8828125e-4,0,0)">
   <path
   d="m 0,-2 c -7,16 -16,29 -25,39 l 381,530 c -94,256 -141,385 -141,387 0,25 13,38 40,38 9,0 21,-2 34,-5 21,4 42,12 65,25 l 27,-13 111,-251 280,301 64,-25 24,25 c 21,-10 41,-24 62,-43 C 886,937 835,863 770,784 769,783 710,716 594,584 L 774,223 c 0,-27 -21,-55 -63,-84 l 16,-20 C 717,90 699,76 672,76 641,76 570,178 457,381 L 164,-76 c -22,-34 -53,-51 -92,-51 -42,0 -63,17 -64,51 -7,9 -10,24 -10,44 0,9 1,19 2,30 z"
   id="path7" />
  </g>
  <g
   id="bullet-char-template-10004"
   transform="matrix(4.8828125e-4,0,0,-4.8828125e-4,0,0)">
   <path
   d="M 285,-33 C 182,-33 111,30 74,156 52,228 41,333 41,471 c 0,78 14,145 41,201 34,71 87,106 158,106 53,0 88,-31 106,-94 l 23,-176 c 8,-64 28,-97 59,-98 l 735,706 c 11,11 33,17 66,17 42,0 63,-15 63,-46 V 965 c 0,-36 -10,-64 -30,-84 L 442,47 C 390,-6 338,-33 285,-33 Z"
   id="path8" />
  </g>
  <g
   id="bullet-char-template-9679"
   transform="matrix(4.8828125e-4,0,0,-4.8828125e-4,0,0)">
   <path
   d="M 813,0 C 632,0 489,54 383,161 276,268 223,411 223,592 c 0,181 53,324 160,431 106,107 249,161 430,161 179,0 323,-54 432,-161 108,-107 162,-251 162,-431 0,-180 -54,-324 -162,-431 C 1136,54 992,0 813,0 Z"
   id="path9" />
  </g>
  <g
   id="bullet-char-template-8226"
   transform="matrix(4.8828125e-4,0,0,-4.8828125e-4,0,0)">
   <path
   d="m 346,457 c -73,0 -137,26 -191,78 -54,51 -81,114 -81,188 0,73 27,136 81,188 54,52 118,78 191,78 73,0 134,-26 185,-79 51,-51 77,-114 77,-187 0,-75 -25,-137 -76,-188 -50,-52 -112,-78 -186,-78 z"
   id="path10" />
  </g>
  <g
   id="bullet-char-template-8211"
   transform="matrix(4.8828125e-4,0,0,-4.8828125e-4,0,0)">
   <path
   d="M -4,459 H 1135 V 606 H -4 Z"
   id="path11" />
  </g>
  <g
   id="bullet-char-template-61548"
   transform="matrix(4.8828125e-4,0,0,-4.8828125e-4,0,0)">
   <path
   d="m 173,740 c 0,163 58,303 173,419 116,115 255,173 419,173 163,0 302,-58 418,-173 116,-116 174,-256 174,-419 0,-163 -58,-303 -174,-418 C 1067,206 928,148 765,148 601,148 462,206 346,322 231,437 173,577 173,740 Z"
   id="path12" />
  </g>
 </defs>
 <g
   id="g12"
   transform="translate(-2652,-5770)">
  <g
   id="id2"
   class="Master_Slide">
   <g
   id="bg-id2"
   class="Background" />
   <g
   id="bo-id2"
   class="BackgroundObjects" />
  </g>
 </g>
 <g
   class="SlideGroup"
   id="g39"
   transform="translate(-2652,-5770)">
  <g
   id="g38">
   <g
   id="container-id1">
    <g
   id="id1"
   class="Slide"
   clip-path="url(#presentation_clip_path)">
     <g
   class="Page"
   id="g37">
      <g
   class="Group"
   id="g36">
       <g
   class="com.sun.star.drawing.PolyPolygonShape"
   id="g13">
        <g
   id="id3">
         <rect
   class="BoundingBox"
   stroke="none"
   fill="none"
   x="2652"
   y="5770"
   width="15001"
   height="14996"
   id="rect12" />
         <path
   fill="#fefefe"
   stroke="none"
   d="M 2653,5770 V 20765 H 17652 V 5770 Z"
   id="path13" />
        </g>
       </g>
       <g
   class="Group"
   id="g18"
   style="display:none">
        <g
   class="com.sun.star.drawing.LineShape"
   id="g14">
         <g
   id="id4">
          <rect
   class="BoundingBox"
   stroke="none"
   fill="none"
   x="2628"
   y="5771"
   width="53"
   height="14994"
   id="rect13" />
          <path
   fill="none"
   stroke="#1b1918"
   stroke-width="51"
   stroke-linejoin="miter"
   d="M 2654,20764 V 5771"
   id="path14" />
         </g>
        </g>
        <g
   class="com.sun.star.drawing.LineShape"
   id="g15">
         <g
   id="id5">
          <rect
   class="BoundingBox"
   stroke="none"
   fill="none"
   x="2654"
   y="20739"
   width="14997"
   height="53"
   id="rect14" />
          <path
   fill="none"
   stroke="#1b1918"
   stroke-width="51"
   stroke-linejoin="miter"
   d="M 17650,20765 H 2654"
   id="path15" />
         </g>
        </g>
        <g
   class="com.sun.star.drawing.LineShape"
   id="g16">
         <g
   id="id6">
          <rect
   class="BoundingBox"
   stroke="none"
   fill="none"
   x="17624"
   y="5771"
   width="53"
   height="14994"
   id="rect15" />
          <path
   fill="none"
   stroke="#1b1918"
   stroke-width="51"
   stroke-linejoin="miter"
   d="M 17650,5771 V 20764"
   id="path16" />
         </g>
        </g>
        <g
   class="com.sun.star.drawing.LineShape"
   id="g17">
         <g
   id="id7">
          <rect
   class="BoundingBox"
   stroke="none"
   fill="none"
   x="2654"
   y="5745"
   width="14997"
   height="53"
   id="rect16" />
          <path
   fill="none"
   stroke="#1b1918"
   stroke-width="51"
   stroke-linejoin="miter"
   d="M 2654,5771 H 17650"
   id="path17" />
         </g>
        </g>
       </g>
       <g
   class="com.sun.star.drawing.ClosedBezierShape"
   id="g19">
        <g
   id="id8">
         <rect
   class="BoundingBox"
   stroke="none"
   fill="none"
   x="11747"
   y="6271"
   width="5405"
   height="13995"
   id="rect18" />
         <path
   fill="#826500"
   stroke="none"
   d="m 11747,20265 5404,-2 V 6271 l -5404,2 c 449,279 807,536 1198,993 l 3208,3 v 11996 h -3208 c -322,398 -762,724 -1198,1000 z"
   id="path18" />
        </g>
       </g>
       <g
   class="com.sun.star.drawing.ClosedBezierShape"
   id="g20">
        <g
   id="id9">
         <rect
   class="BoundingBox"
   stroke="none"
   fill="none"
   x="3155"
   y="6270"
   width="5394"
   height="13996"
   id="rect19" />
         <path
   fill="#826500"
   stroke="none"
   d="m 8548,20265 -5393,-2 V 6271 l 5393,2 c -427,252 -843,561 -1199,993 l -3196,3 v 11996 h 3196 c 320,403 775,726 1199,1000 z"
   id="path19" />
        </g>
       </g>
       <g
   class="com.sun.star.drawing.ClosedBezierShape"
   id="g21">
        <g
   id="id10">
         <rect
   class="BoundingBox"
   stroke="none"
   fill="none"
   x="6149"
   y="15033"
   width="3509"
   height="1024"
   id="rect20" />
         <path
   fill="#826500"
   stroke="none"
   d="m 6256,16055 c -38,-138 -80,-288 -107,-432 1059,-263 2106,-466 3292,-577 64,-11 158,-21 216,-5 l -390,224 c -1046,208 -2009,507 -2994,782 z"
   id="path20" />
        </g>
       </g>
       <g
   class="com.sun.star.drawing.ClosedBezierShape"
   id="g22">
        <g
   id="id11">
         <rect
   class="BoundingBox"
   stroke="none"
   fill="none"
   x="6298"
   y="15587"
   width="2370"
   height="1067"
   id="rect21" />
         <path
   fill="#826500"
   stroke="none"
   d="m 6428,16653 c -50,-143 -89,-285 -130,-440 805,-222 1533,-438 2369,-626 -97,91 -2068,986 -2068,986 -72,36 -111,50 -171,80 z"
   id="path21" />
        </g>
       </g>
       <g
   class="com.sun.star.drawing.ClosedBezierShape"
   id="g23">
        <g
   id="id12">
         <rect
   class="BoundingBox"
   stroke="none"
   fill="none"
   x="6583"
   y="13841"
   width="7819"
   height="6440"
   id="rect22" />
         <path
   fill="#826500"
   stroke="none"
   d="m 6583,17070 2566,-1489 c 836,-479 1689,-924 2721,-1301 146,-49 1405,-434 2531,-439 -211,3920 -2147,6491 -4358,6438 -1300,-30 -2761,-1316 -3460,-3209 z"
   id="path22" />
        </g>
       </g>
       <g
   class="com.sun.star.drawing.ClosedBezierShape"
   id="g24">
        <g
   id="id13">
         <rect
   class="BoundingBox"
   stroke="none"
   fill="none"
   x="5889"
   y="6268"
   width="8533"
   height="9199"
   id="rect23" />
         <path
   fill="#826500"
   stroke="none"
   d="m 6113,15466 c -133,-675 -224,-1394 -224,-2141 0,-3838 1839,-7057 4332,-7057 2319,0 4200,3089 4200,6902 0,138 -3,279 0,420 -1753,70 -3068,628 -4330,1234 -1466,80 -2717,321 -3978,642 z"
   id="path23" />
        </g>
       </g>
       <g
   class="com.sun.star.drawing.ClosedBezierShape"
   id="g25">
        <g
   id="id14">
         <rect
   class="BoundingBox"
   stroke="none"
   fill="none"
   x="8084"
   y="7192"
   width="2396"
   height="2119"
   id="rect24" />
         <path
   fill="#ffffff"
   stroke="none"
   d="m 9507,7219 c 47,6 92,14 136,28 11,3 19,8 25,19 5,42 -266,546 -285,607 5,-3 16,17 30,8 42,-55 64,-61 72,-66 39,-36 144,-101 144,-101 30,-22 177,-124 224,-155 34,-2 54,-24 84,-33 19,-5 44,-5 58,11 17,25 44,45 47,75 20,53 47,100 58,153 14,6 -3,19 0,28 -19,14 -36,19 -52,36 -6,0 -6,8 -11,8 -17,6 -25,22 -39,22 -83,69 -162,116 -242,180 v 3 c 200,36 386,105 571,191 30,8 61,22 89,41 h 5 c 22,17 58,14 58,50 -3,11 -3,19 -14,28 -27,35 -33,85 -60,121 -17,14 -36,28 -59,31 -16,8 -30,2 -49,8 -9,-8 -20,-17 -31,-11 -33,14 -72,25 -105,11 -64,-33 -127,-66 -194,-89 -136,-52 -272,-88 -424,-96 h -97 c -11,2 -11,11 -8,19 11,22 31,28 47,44 69,80 158,166 238,235 75,75 155,136 231,209 52,41 27,113 44,166 0,11 0,25 -11,30 -8,0 -14,9 -20,11 -27,9 -47,28 -69,45 -11,11 -14,16 -23,27 v 6 c -16,27 -44,36 -77,41 -6,0 -14,3 -17,9 -16,-6 -22,16 -36,8 -50,-58 -116,-100 -169,-158 -27,-22 -49,-50 -80,-69 -86,-83 -149,-166 -238,-250 -2,11 -2,14 0,22 -8,68 11,134 17,195 14,74 25,144 39,218 11,47 19,94 13,147 -2,5 0,19 -11,22 -27,14 -55,-3 -83,-5 -8,-12 -19,-9 -30,-17 -14,3 -33,-3 -47,5 -8,-5 -14,6 -22,3 -6,6 -6,-3 -11,0 -20,-3 -39,-8 -58,-11 -20,-5 -42,-8 -61,-14 -8,-13 -8,-27 -11,-41 -28,-130 -56,-271 -61,-404 -6,-22 3,-51 -3,-73 -88,87 -163,186 -221,289 -22,16 -32,63 -68,47 -2,0 -5,-6 -8,0 -5,-6 -8,-14 -8,-20 -8,-11 -19,-16 -28,-24 -36,-3 -69,-14 -102,-25 -19,-6 -22,-28 -39,-39 -3,-25 -39,-25 -39,-47 -8,-8 -5,-17 0,-25 14,-11 17,-30 28,-42 66,-95 138,-191 213,-277 62,-80 145,-158 200,-246 11,-17 -16,-20 -22,-28 -19,-11 -47,-3 -66,-14 -56,3 -101,-8 -153,-3 -36,-5 -83,31 -106,-13 -2,-3 -8,-14 -13,-14 -11,11 -28,8 -34,22 -13,3 -35,-3 -52,3 -64,11 -133,16 -196,22 -17,3 -39,14 -56,5 -22,-11 -19,-38 -25,-58 -16,-11 -22,-27 -33,-44 -5,-28 -11,-55 -16,-80 0,-6 2,-11 8,-14 5,0 11,0 14,-3 l -6,-16 c 14,-17 33,-14 50,-25 47,-25 102,-25 152,-39 111,-17 230,-17 346,-19 5,-6 -6,-9 -6,-14 -22,-36 -41,-72 -61,-108 -33,-55 -77,-102 -107,-158 -14,-11 -23,-26 -34,-34 -8,-14 -13,-30 -25,-41 0,-25 -19,-61 9,-78 61,-55 119,-111 191,-149 -3,-14 13,-6 19,-14 3,5 11,0 17,0 27,5 37,36 50,58 9,19 6,47 28,58 61,33 66,108 111,155 38,76 102,131 152,200 8,3 8,11 19,14 0,11 11,8 8,17 17,-47 31,-97 47,-142 28,-78 42,-161 72,-238 3,-34 23,-61 28,-94 17,-31 22,-67 36,-100 3,-19 19,-33 19,-53 3,-2 45,-69 45,-77 11,-11 25,-30 44,-30 66,8 130,30 196,27 z"
   id="path24" />
        </g>
       </g>
       <g
   class="com.sun.star.drawing.ClosedBezierShape"
   id="g26">
        <g
   id="id15">
         <rect
   class="BoundingBox"
   stroke="none"
   fill="none"
   x="8432"
   y="10315"
   width="3507"
   height="3978"
   id="rect25" />
         <path
   fill="#ffffff"
   stroke="none"
   d="m 8770,12985 c 213,124 504,143 740,52 157,78 487,289 487,289 v 960 l 550,5 v -921 c 0,0 243,-266 371,-399 l 222,47 c 293,11 597,-166 719,-432 116,-240 111,-586 -72,-782 50,-172 -5,-346 -55,-499 -116,-224 -346,-410 -600,-410 -173,-370 -577,-607 -1005,-578 -388,33 -736,318 -875,683 -100,-47 -197,34 -285,72 -266,169 -368,455 -341,748 -77,100 -157,213 -177,340 -65,313 56,639 321,825 z"
   id="path25" />
        </g>
       </g>
       <g
   class="com.sun.star.drawing.ClosedBezierShape"
   id="g27">
        <g
   id="id16">
         <rect
   class="BoundingBox"
   stroke="none"
   fill="none"
   x="8397"
   y="16206"
   width="3706"
   height="3244"
   id="rect26" />
         <path
   fill="#ffffff"
   stroke="none"
   d="m 11510,16886 v -28 c 81,-22 155,-60 224,-110 -99,-205 -301,-340 -500,-451 -275,-129 -662,-121 -922,28 l -6,484 c 0,0 -3,110 -91,113 -108,6 -125,-111 -125,-111 l 3,-486 c -376,-154 -778,-61 -1118,110 -122,108 -288,255 -310,404 66,80 152,108 246,130 -36,59 -116,109 -138,167 -205,172 -316,445 -357,719 0,100 -14,371 -19,396 282,52 677,19 923,-166 4,-11 101,1063 956,1364 475,-171 821,-644 911,-1121 14,-102 16,-216 38,-296 252,144 628,161 877,6 -16,-457 -224,-852 -592,-1152 z"
   id="path26" />
        </g>
       </g>
       <g
   class="com.sun.star.drawing.PolyPolygonShape"
   id="g28">
        <g
   id="id17">
         <rect
   class="BoundingBox"
   stroke="none"
   fill="none"
   x="10511"
   y="12066"
   width="388"
   height="815"
   id="rect27" />
         <path
   fill="#826500"
   stroke="none"
   d="m 10897,12708 -386,172 v -814 z"
   id="path27" />
        </g>
       </g>
       <g
   class="com.sun.star.drawing.PolyPolygonShape"
   id="g29">
        <g
   id="id18">
         <rect
   class="BoundingBox"
   stroke="none"
   fill="none"
   x="9609"
   y="12052"
   width="384"
   height="815"
   id="rect28" />
         <path
   fill="#826500"
   stroke="none"
   d="m 9992,12052 v 814 l -383,-175 z"
   id="path28" />
        </g>
       </g>
       <g
   class="com.sun.star.drawing.ClosedBezierShape"
   id="g30">
        <g
   id="id19">
         <rect
   class="BoundingBox"
   stroke="none"
   fill="none"
   x="10594"
   y="17060"
   width="599"
   height="598"
   id="rect29" />
         <path
   fill="#826500"
   stroke="none"
   d="m 10892,17657 c -163,0 -298,-133 -298,-297 0,-167 135,-299 298,-299 167,0 300,132 300,299 0,164 -133,297 -300,297 z"
   id="path29" />
        </g>
       </g>
       <g
   class="com.sun.star.drawing.ClosedBezierShape"
   id="g31">
        <g
   id="id20">
         <rect
   class="BoundingBox"
   stroke="none"
   fill="none"
   x="10267"
   y="17702"
   width="599"
   height="598"
   id="rect30" />
         <path
   fill="#826500"
   stroke="none"
   d="m 10565,18299 c -163,0 -298,-133 -298,-300 0,-164 135,-296 298,-296 167,0 300,132 300,296 0,50 -133,300 -300,300 z"
   id="path30" />
        </g>
       </g>
       <g
   class="com.sun.star.drawing.ClosedBezierShape"
   id="g32">
        <g
   id="id21">
         <rect
   class="BoundingBox"
   stroke="none"
   fill="none"
   x="9911"
   y="18289"
   width="599"
   height="599"
   id="rect31" />
         <path
   fill="#826500"
   stroke="none"
   d="m 10209,18887 c -166,0 -298,-249 -298,-300 0,-163 132,-298 298,-298 164,0 300,135 300,298 0,167 -136,300 -300,300 z"
   id="path31" />
        </g>
       </g>
       <g
   class="com.sun.star.drawing.ClosedBezierShape"
   id="g33">
        <g
   id="id22">
         <rect
   class="BoundingBox"
   stroke="none"
   fill="none"
   x="9548"
   y="17673"
   width="597"
   height="597"
   id="rect32" />
         <path
   fill="#826500"
   stroke="none"
   d="m 9548,17969 c 0,-164 135,-296 296,-296 167,0 300,132 300,296 0,167 -133,300 -300,300 -161,0 -296,-133 -296,-300 z"
   id="path32" />
        </g>
       </g>
       <g
   class="com.sun.star.drawing.ClosedBezierShape"
   id="g34">
        <g
   id="id23">
         <rect
   class="BoundingBox"
   stroke="none"
   fill="none"
   x="9197"
   y="17055"
   width="597"
   height="600"
   id="rect33" />
         <path
   fill="#826500"
   stroke="none"
   d="m 9197,17354 c 0,-163 132,-298 299,-298 167,0 297,135 297,298 0,51 -130,300 -297,300 -167,0 -299,-133 -299,-300 z"
   id="path33" />
        </g>
       </g>
       <g
   class="com.sun.star.drawing.ClosedBezierShape"
   id="g35">
        <g
   id="id24">
         <rect
   class="BoundingBox"
   stroke="none"
   fill="none"
   x="9896"
   y="17064"
   width="600"
   height="599"
   id="rect34" />
         <path
   fill="#826500"
   stroke="none"
   d="m 10195,17064 c 167,0 300,132 300,298 0,164 -133,300 -300,300 -163,0 -298,-136 -298,-300 0,-166 135,-298 298,-298 z"
   id="path34" />
        </g>
       </g>
      </g>
     </g>
    </g>
   </g>
  </g>
 </g>
</svg>
