<?xml version="1.0" encoding="UTF-8" standalone="no"?>
<svg
   version="1.2"
   width="150.00999mm"
   height="149.95999mm"
   viewBox="0 0 15001 14995.999"
   preserveAspectRatio="xMidYMid"
   fill-rule="evenodd"
   stroke-width="28.222"
   stroke-linejoin="round"
   xml:space="preserve"
   id="svg35"
   sodipodi:docname="ID15a3.svg"
   inkscape:version="1.2.2 (b0a8486541, 2022-12-01)"
   xmlns:inkscape="http://www.inkscape.org/namespaces/inkscape"
   xmlns:sodipodi="http://sodipodi.sourceforge.net/DTD/sodipodi-0.dtd"
   xmlns="http://www.w3.org/2000/svg"
   xmlns:svg="http://www.w3.org/2000/svg"
   xmlns:ooo="http://xml.openoffice.org/svg/export"><sodipodi:namedview
   id="namedview35"
   pagecolor="#ffffff"
   bordercolor="#000000"
   borderopacity="0.25"
   inkscape:showpageshadow="2"
   inkscape:pageopacity="0.0"
   inkscape:pagecheckerboard="0"
   inkscape:deskcolor="#d1d1d1"
   inkscape:document-units="mm"
   fit-margin-top="50"
   fit-margin-left="50"
   fit-margin-right="50"
   fit-margin-bottom="50"
   showgrid="false"
   inkscape:zoom="7.5289023"
   inkscape:cx="544.23604"
   inkscape:cy="26.033011"
   inkscape:window-width="1280"
   inkscape:window-height="731"
   inkscape:window-x="0"
   inkscape:window-y="0"
   inkscape:window-maximized="1"
   inkscape:current-layer="svg35" />
 <defs
   class="ClipPathGroup"
   id="defs2">
  <clipPath
   id="presentation_clip_path"
   clipPathUnits="userSpaceOnUse">
   <rect
   x="0"
   y="0"
   width="21001"
   height="29703"
   id="rect1" />
  </clipPath>
  <clipPath
   id="presentation_clip_path_shrink"
   clipPathUnits="userSpaceOnUse">
   <rect
   x="21"
   y="29"
   width="20959"
   height="29644"
   id="rect2" />
  </clipPath>
 </defs>
 <defs
   class="TextShapeIndex"
   id="defs3">
  <g
   ooo:slide="id1"
   ooo:id-list="id3 id4 id5 id6 id7 id8 id9 id10 id11 id12 id13 id14 id15 id16 id17 id18 id19 id20"
   id="g2" />
 </defs>
 <defs
   class="EmbeddedBulletChars"
   id="defs12">
  <g
   id="bullet-char-template-57356"
   transform="matrix(4.8828125e-4,0,0,-4.8828125e-4,0,0)">
   <path
   d="M 580,1141 1163,571 580,0 -4,571 Z"
   id="path3" />
  </g>
  <g
   id="bullet-char-template-57354"
   transform="matrix(4.8828125e-4,0,0,-4.8828125e-4,0,0)">
   <path
   d="M 8,1128 H 1137 V 0 H 8 Z"
   id="path4" />
  </g>
  <g
   id="bullet-char-template-10146"
   transform="matrix(4.8828125e-4,0,0,-4.8828125e-4,0,0)">
   <path
   d="M 174,0 602,739 174,1481 1456,739 Z M 1358,739 309,1346 659,739 Z"
   id="path5" />
  </g>
  <g
   id="bullet-char-template-10132"
   transform="matrix(4.8828125e-4,0,0,-4.8828125e-4,0,0)">
   <path
   d="M 2015,739 1276,0 H 717 l 543,543 H 174 v 393 h 1086 l -543,545 h 557 z"
   id="path6" />
  </g>
  <g
   id="bullet-char-template-10007"
   transform="matrix(4.8828125e-4,0,0,-4.8828125e-4,0,0)">
   <path
   d="m 0,-2 c -7,16 -16,29 -25,39 l 381,530 c -94,256 -141,385 -141,387 0,25 13,38 40,38 9,0 21,-2 34,-5 21,4 42,12 65,25 l 27,-13 111,-251 280,301 64,-25 24,25 c 21,-10 41,-24 62,-43 C 886,937 835,863 770,784 769,783 710,716 594,584 L 774,223 c 0,-27 -21,-55 -63,-84 l 16,-20 C 717,90 699,76 672,76 641,76 570,178 457,381 L 164,-76 c -22,-34 -53,-51 -92,-51 -42,0 -63,17 -64,51 -7,9 -10,24 -10,44 0,9 1,19 2,30 z"
   id="path7" />
  </g>
  <g
   id="bullet-char-template-10004"
   transform="matrix(4.8828125e-4,0,0,-4.8828125e-4,0,0)">
   <path
   d="M 285,-33 C 182,-33 111,30 74,156 52,228 41,333 41,471 c 0,78 14,145 41,201 34,71 87,106 158,106 53,0 88,-31 106,-94 l 23,-176 c 8,-64 28,-97 59,-98 l 735,706 c 11,11 33,17 66,17 42,0 63,-15 63,-46 V 965 c 0,-36 -10,-64 -30,-84 L 442,47 C 390,-6 338,-33 285,-33 Z"
   id="path8" />
  </g>
  <g
   id="bullet-char-template-9679"
   transform="matrix(4.8828125e-4,0,0,-4.8828125e-4,0,0)">
   <path
   d="M 813,0 C 632,0 489,54 383,161 276,268 223,411 223,592 c 0,181 53,324 160,431 106,107 249,161 430,161 179,0 323,-54 432,-161 108,-107 162,-251 162,-431 0,-180 -54,-324 -162,-431 C 1136,54 992,0 813,0 Z"
   id="path9" />
  </g>
  <g
   id="bullet-char-template-8226"
   transform="matrix(4.8828125e-4,0,0,-4.8828125e-4,0,0)">
   <path
   d="m 346,457 c -73,0 -137,26 -191,78 -54,51 -81,114 -81,188 0,73 27,136 81,188 54,52 118,78 191,78 73,0 134,-26 185,-79 51,-51 77,-114 77,-187 0,-75 -25,-137 -76,-188 -50,-52 -112,-78 -186,-78 z"
   id="path10" />
  </g>
  <g
   id="bullet-char-template-8211"
   transform="matrix(4.8828125e-4,0,0,-4.8828125e-4,0,0)">
   <path
   d="M -4,459 H 1135 V 606 H -4 Z"
   id="path11" />
  </g>
  <g
   id="bullet-char-template-61548"
   transform="matrix(4.8828125e-4,0,0,-4.8828125e-4,0,0)">
   <path
   d="m 173,740 c 0,163 58,303 173,419 116,115 255,173 419,173 163,0 302,-58 418,-173 116,-116 174,-256 174,-419 0,-163 -58,-303 -174,-418 C 1067,206 928,148 765,148 601,148 462,206 346,322 231,437 173,577 173,740 Z"
   id="path12" />
  </g>
 </defs>
 <g
   id="g12"
   transform="translate(-2652,-5770)">
  <g
   id="id2"
   class="Master_Slide">
   <g
   id="bg-id2"
   class="Background" />
   <g
   id="bo-id2"
   class="BackgroundObjects" />
  </g>
 </g>
 <g
   class="SlideGroup"
   id="g35"
   transform="translate(-2652,-5770)">
  <g
   id="g34">
   <g
   id="container-id1">
    <g
   id="id1"
   class="Slide"
   clip-path="url(#presentation_clip_path)">
     <g
   class="Page"
   id="g33">
      <g
   class="Group"
   id="g32">
       <g
   class="com.sun.star.drawing.PolyPolygonShape"
   id="g13">
        <g
   id="id3">
         <rect
   class="BoundingBox"
   stroke="none"
   fill="none"
   x="2652"
   y="5770"
   width="15001"
   height="14996"
   id="rect12" />
         <path
   fill="#fefefe"
   stroke="none"
   d="M 2653,5770 V 20765 H 17652 V 5770 Z"
   id="path13" />
        </g>
       </g>
       <g
   class="Group"
   id="g18"
   style="display:none">
        <g
   class="com.sun.star.drawing.LineShape"
   id="g14">
         <g
   id="id4">
          <rect
   class="BoundingBox"
   stroke="none"
   fill="none"
   x="2628"
   y="5771"
   width="53"
   height="14994"
   id="rect13" />
          <path
   fill="none"
   stroke="#1b1918"
   stroke-width="51"
   stroke-linejoin="miter"
   d="M 2654,20764 V 5771"
   id="path14" />
         </g>
        </g>
        <g
   class="com.sun.star.drawing.LineShape"
   id="g15">
         <g
   id="id5">
          <rect
   class="BoundingBox"
   stroke="none"
   fill="none"
   x="2654"
   y="20739"
   width="14997"
   height="53"
   id="rect14" />
          <path
   fill="none"
   stroke="#1b1918"
   stroke-width="51"
   stroke-linejoin="miter"
   d="M 17650,20765 H 2654"
   id="path15" />
         </g>
        </g>
        <g
   class="com.sun.star.drawing.LineShape"
   id="g16">
         <g
   id="id6">
          <rect
   class="BoundingBox"
   stroke="none"
   fill="none"
   x="17624"
   y="5771"
   width="53"
   height="14994"
   id="rect15" />
          <path
   fill="none"
   stroke="#1b1918"
   stroke-width="51"
   stroke-linejoin="miter"
   d="M 17650,5771 V 20764"
   id="path16" />
         </g>
        </g>
        <g
   class="com.sun.star.drawing.LineShape"
   id="g17">
         <g
   id="id7">
          <rect
   class="BoundingBox"
   stroke="none"
   fill="none"
   x="2654"
   y="5745"
   width="14997"
   height="53"
   id="rect16" />
          <path
   fill="none"
   stroke="#1b1918"
   stroke-width="51"
   stroke-linejoin="miter"
   d="M 2654,5771 H 17650"
   id="path17" />
         </g>
        </g>
       </g>
       <g
   class="com.sun.star.drawing.ClosedBezierShape"
   id="g19">
        <g
   id="id8">
         <rect
   class="BoundingBox"
   stroke="none"
   fill="none"
   x="11747"
   y="6271"
   width="5405"
   height="13995"
   id="rect18" />
         <path
   fill="#826500"
   stroke="none"
   d="m 11747,20265 5404,-2 V 6271 l -5404,2 c 449,279 807,536 1198,993 l 3208,3 v 11996 h -3208 c -322,398 -762,724 -1198,1000 z"
   id="path18" />
        </g>
       </g>
       <g
   class="com.sun.star.drawing.ClosedBezierShape"
   id="g20">
        <g
   id="id9">
         <rect
   class="BoundingBox"
   stroke="none"
   fill="none"
   x="3155"
   y="6270"
   width="5394"
   height="13996"
   id="rect19" />
         <path
   fill="#826500"
   stroke="none"
   d="m 8548,20265 -5393,-2 V 6271 l 5393,2 c -427,252 -843,561 -1199,993 l -3196,3 v 11996 h 3196 c 320,403 775,726 1199,1000 z"
   id="path19" />
        </g>
       </g>
       <g
   class="com.sun.star.drawing.ClosedBezierShape"
   id="g21">
        <g
   id="id10">
         <rect
   class="BoundingBox"
   stroke="none"
   fill="none"
   x="7269"
   y="18414"
   width="5765"
   height="585"
   id="rect20" />
         <path
   fill="#826500"
   stroke="none"
   d="m 12826,18712 c 70,-101 143,-197 207,-298 H 7270 c 92,137 193,273 294,399 983,83 2020,274 2933,136 483,-144 1447,-226 2329,-237 z"
   id="path20" />
        </g>
       </g>
       <g
   class="com.sun.star.drawing.ClosedBezierShape"
   id="g22">
        <g
   id="id11">
         <rect
   class="BoundingBox"
   stroke="none"
   fill="none"
   x="7834"
   y="19130"
   width="4644"
   height="1136"
   id="rect21" />
         <path
   fill="#826500"
   stroke="none"
   d="m 12477,19130 -4643,2 c 671,720 1469,1133 2317,1133 851,0 1661,-424 2326,-1135 z"
   id="path21" />
        </g>
       </g>
       <g
   class="com.sun.star.drawing.LineShape"
   id="g23">
        <g
   id="id12">
         <rect
   class="BoundingBox"
   stroke="none"
   fill="none"
   x="13032"
   y="18414"
   width="3"
   height="1"
   id="rect22" />
        </g>
       </g>
       <g
   class="com.sun.star.drawing.ClosedBezierShape"
   id="g24">
        <g
   id="id13">
         <rect
   class="BoundingBox"
   stroke="none"
   fill="none"
   x="5894"
   y="6258"
   width="8519"
   height="12014"
   id="rect23" />
         <path
   fill="#826500"
   stroke="none"
   d="m 13280,18010 c 702,-1250 1132,-2918 1132,-4748 0,-3868 -1907,-7004 -4261,-7004 -2351,0 -4257,3136 -4257,7004 0,1847 438,3532 1154,4784 1267,-2 2514,444 3800,85 634,-138 1576,-155 2432,-121 z"
   id="path23" />
        </g>
       </g>
       <g
   class="com.sun.star.drawing.ClosedBezierShape"
   id="g25">
        <g
   id="id14">
         <rect
   class="BoundingBox"
   stroke="none"
   fill="none"
   x="7961"
   y="7173"
   width="2431"
   height="2151"
   id="rect24" />
         <path
   fill="#ffffff"
   stroke="none"
   d="m 9399,7201 c 51,5 96,14 141,28 11,2 19,8 25,19 5,42 -270,554 -289,616 5,-3 16,17 31,9 39,-56 64,-62 73,-68 39,-36 146,-102 146,-102 30,-22 182,-126 230,-157 34,-3 54,-25 85,-34 20,-5 45,-5 59,11 17,26 45,45 48,76 19,54 47,101 59,156 14,5 -3,19 0,28 -20,14 -37,19 -54,36 -5,0 -5,9 -11,9 -17,5 -25,22 -39,22 -84,70 -164,118 -248,183 v 3 c 206,36 394,106 582,193 31,9 62,23 90,42 h 5 c 23,17 59,14 59,51 -2,11 -2,20 -14,28 -28,37 -33,87 -61,124 -17,14 -37,28 -59,30 -17,9 -31,3 -51,9 -8,-9 -20,-17 -31,-11 -34,14 -73,25 -107,11 -64,-34 -129,-70 -196,-90 -139,-53 -279,-90 -434,-98 h -98 c -11,3 -11,11 -8,19 11,23 31,29 48,45 70,82 160,169 241,239 79,76 160,138 237,212 53,42 28,115 45,168 0,11 0,25 -11,31 -9,0 -14,8 -20,11 -28,9 -48,28 -70,45 -12,11 -14,17 -24,28 v 6 c -17,28 -45,36 -78,42 -6,0 -14,3 -20,8 -17,-5 -22,17 -37,6 -50,-56 -117,-98 -171,-157 -28,-23 -50,-51 -81,-70 -87,-85 -149,-169 -239,-254 -3,8 -3,14 0,22 -8,69 11,136 17,198 14,76 25,146 39,222 11,47 20,95 14,149 -5,5 0,19 -11,22 -28,14 -56,-3 -84,-6 -9,-14 -20,-8 -31,-16 -14,2 -37,-3 -48,2 -8,-2 -14,9 -22,6 -6,6 -6,-3 -12,0 -19,-6 -39,-8 -58,-11 -20,-6 -43,-9 -62,-17 -9,-11 -9,-25 -11,-39 -29,-132 -57,-276 -62,-410 -6,-23 3,-52 -3,-74 -90,88 -166,186 -225,293 -22,16 -32,64 -68,47 -3,0 -6,-5 -9,0 -5,-5 -8,-14 -8,-19 -8,-12 -20,-17 -28,-26 -37,-2 -70,-14 -104,-25 -20,-5 -22,-28 -39,-39 -6,-25 -40,-25 -42,-48 -6,-8 -3,-17 2,-25 12,-11 17,-31 29,-42 67,-97 140,-195 216,-282 63,-82 147,-160 203,-250 11,-17 -17,-20 -23,-28 -19,-11 -47,-3 -67,-14 -56,3 -102,-9 -155,-3 -37,-6 -85,31 -107,-14 -3,-3 -8,-14 -17,-14 -8,11 -25,8 -31,22 -14,3 -36,-2 -53,3 -65,11 -135,17 -200,23 -16,3 -39,14 -56,5 -22,-11 -19,-39 -25,-59 -17,-11 -22,-28 -34,-45 -5,-28 -11,-56 -16,-84 0,-3 2,-8 8,-11 6,0 11,0 14,-3 l -6,-17 c 14,-17 34,-14 48,-25 51,-25 107,-25 157,-39 113,-17 233,-17 351,-20 6,-6 -5,-8 -5,-14 -23,-36 -42,-73 -62,-109 -34,-57 -81,-104 -112,-161 -12,-11 -20,-26 -31,-34 -9,-14 -14,-31 -26,-42 -2,-26 -19,-62 9,-79 62,-56 121,-112 194,-152 -3,-14 14,-5 19,-14 3,6 12,0 17,0 28,6 38,37 52,59 8,20 5,48 28,59 62,34 67,107 112,158 39,76 104,133 155,203 8,3 8,11 19,14 0,11 11,8 9,17 16,-48 30,-99 47,-144 28,-79 42,-163 73,-242 3,-34 23,-62 28,-96 17,-30 23,-67 37,-101 3,-19 20,-33 20,-53 2,-3 45,-70 45,-79 11,-11 25,-30 44,-30 68,8 127,30 194,28 z"
   id="path24" />
        </g>
       </g>
       <g
   class="com.sun.star.drawing.OpenBezierShape"
   id="g26">
        <g
   id="id15">
         <rect
   class="BoundingBox"
   stroke="none"
   fill="none"
   x="13279"
   y="18007"
   width="3"
   height="10"
   id="rect25" />
        </g>
       </g>
       <g
   class="com.sun.star.drawing.ClosedBezierShape"
   id="g27">
        <g
   id="id16">
         <rect
   class="BoundingBox"
   stroke="none"
   fill="none"
   x="7003"
   y="8855"
   width="5493"
   height="6783"
   id="rect26" />
         <path
   fill="#ffffff"
   stroke="none"
   d="m 10971,9017 c 0,104 -180,222 -171,368 -79,70 -171,113 -239,205 l 76,62 -205,188 42,42 c 17,79 -146,129 -188,205 67,138 -213,70 -180,242 -846,292 -852,1516 -1290,2211 -221,480 -497,957 -556,1471 806,-1747 2209,-3820 4233,-4292 34,377 -404,506 -635,736 -258,25 -292,326 -558,334 -222,301 -652,121 -907,343 -782,876 -1481,1801 -1883,2817 801,-1171 1869,-2348 3377,-2657 25,87 -138,104 -59,188 -96,121 -208,241 -351,351 l 42,62 c -163,126 -368,264 -472,453 -455,542 -1343,19 -1745,766 -331,520 -609,966 -848,1522 l -609,-5 c -34,-208 132,-379 -56,-492 -360,464 -461,1065 -786,1500 171,-719 435,-1446 890,-2073 h 59 c 16,163 8,304 25,467 78,-264 283,-716 283,-716 556,-1616 1382,-3320 2787,-4460 h 62 z"
   id="path26" />
        </g>
       </g>
       <g
   class="com.sun.star.drawing.ClosedBezierShape"
   id="g28">
        <g
   id="id17">
         <rect
   class="BoundingBox"
   stroke="none"
   fill="none"
   x="11591"
   y="12041"
   width="1654"
   height="1793"
   id="rect27" />
         <path
   fill="#ffffff"
   stroke="none"
   d="m 13244,12103 c -76,189 -500,152 -492,434 68,112 194,42 306,34 0,92 -87,275 -146,367 -101,-213 -373,-36 -373,-36 -254,-11 -189,334 -164,469 -28,49 158,119 74,461 -214,-154 -338,-412 -501,-624 -53,-154 -56,-334 73,-463 34,-76 138,-59 118,-146 -188,-26 -314,-293 -547,-164 44,-107 367,-256 592,-101 126,-505 725,-197 1060,-231 z"
   id="path27" />
        </g>
       </g>
       <g
   class="com.sun.star.drawing.ClosedBezierShape"
   id="g29">
        <g
   id="id18">
         <rect
   class="BoundingBox"
   stroke="none"
   fill="none"
   x="7618"
   y="13969"
   width="5173"
   height="4021"
   id="rect28" />
         <path
   fill="#ffffff"
   stroke="none"
   d="m 9901,14184 3,691 H 7618 v 394 c 0,275 395,205 379,455 l 525,-3 v 2113 l 877,106 -3,-2216 h 525 l -3,2264 c 163,8 379,-104 542,-112 l -5,-2163 513,2 v 2090 l 883,-258 6,-1843 589,-3 c 12,-281 354,-216 343,-477 v -372 l -2396,6 v -677 c -245,-479 -492,3 -492,3 z"
   id="path28" />
        </g>
       </g>
       <g
   class="com.sun.star.drawing.ClosedBezierShape"
   id="g30">
        <g
   id="id19">
         <rect
   class="BoundingBox"
   stroke="none"
   fill="none"
   x="7456"
   y="15785"
   width="294"
   height="1972"
   id="rect29" />
         <path
   fill="#ffffff"
   stroke="none"
   d="m 7731,16122 c -122,523 -42,1118 -9,1633 l -243,-17 c -41,-677 -41,-1239 105,-1950 214,-33 164,213 147,334 z"
   id="path29" />
        </g>
       </g>
       <g
   class="com.sun.star.drawing.ClosedBezierShape"
   id="g31">
        <g
   id="id20">
         <rect
   class="BoundingBox"
   stroke="none"
   fill="none"
   x="7868"
   y="15962"
   width="266"
   height="1819"
   id="rect30" />
         <path
   fill="#ffffff"
   stroke="none"
   d="m 8133,15962 c -59,585 -172,1228 0,1818 h -240 c -41,-635 -41,-1250 76,-1818 z"
   id="path30" />
        </g>
       </g>
      </g>
     </g>
    </g>
   </g>
  </g>
 </g>
</svg>
