<?xml version="1.0" encoding="UTF-8" standalone="no"?>
<svg
   version="1.2"
   width="150.00999mm"
   height="149.95999mm"
   viewBox="0 0 15001 14995.999"
   preserveAspectRatio="xMidYMid"
   fill-rule="evenodd"
   stroke-width="28.222"
   stroke-linejoin="round"
   xml:space="preserve"
   id="svg28"
   sodipodi:docname="ID15a6.svg"
   inkscape:version="1.2.2 (b0a8486541, 2022-12-01)"
   xmlns:inkscape="http://www.inkscape.org/namespaces/inkscape"
   xmlns:sodipodi="http://sodipodi.sourceforge.net/DTD/sodipodi-0.dtd"
   xmlns="http://www.w3.org/2000/svg"
   xmlns:svg="http://www.w3.org/2000/svg"
   xmlns:ooo="http://xml.openoffice.org/svg/export"><sodipodi:namedview
   id="namedview28"
   pagecolor="#ffffff"
   bordercolor="#000000"
   borderopacity="0.25"
   inkscape:showpageshadow="2"
   inkscape:pageopacity="0.0"
   inkscape:pagecheckerboard="true"
   inkscape:deskcolor="#d1d1d1"
   inkscape:document-units="mm"
   fit-margin-top="50"
   fit-margin-left="50"
   fit-margin-right="50"
   fit-margin-bottom="50"
   showgrid="false"
   inkscape:zoom="5.5825561"
   inkscape:cx="547.86731"
   inkscape:cy="31.347647"
   inkscape:window-width="1280"
   inkscape:window-height="731"
   inkscape:window-x="0"
   inkscape:window-y="0"
   inkscape:window-maximized="1"
   inkscape:current-layer="svg28" />
 <defs
   class="ClipPathGroup"
   id="defs2">
  <clipPath
   id="presentation_clip_path"
   clipPathUnits="userSpaceOnUse">
   <rect
   x="0"
   y="0"
   width="21001"
   height="29703"
   id="rect1" />
  </clipPath>
  <clipPath
   id="presentation_clip_path_shrink"
   clipPathUnits="userSpaceOnUse">
   <rect
   x="21"
   y="29"
   width="20959"
   height="29644"
   id="rect2" />
  </clipPath>
 </defs>
 <defs
   class="TextShapeIndex"
   id="defs3">
  <g
   ooo:slide="id1"
   ooo:id-list="id3 id4 id5 id6 id7 id8 id9 id10 id11 id12 id13"
   id="g2" />
 </defs>
 <defs
   class="EmbeddedBulletChars"
   id="defs12">
  <g
   id="bullet-char-template-57356"
   transform="matrix(4.8828125e-4,0,0,-4.8828125e-4,0,0)">
   <path
   d="M 580,1141 1163,571 580,0 -4,571 Z"
   id="path3" />
  </g>
  <g
   id="bullet-char-template-57354"
   transform="matrix(4.8828125e-4,0,0,-4.8828125e-4,0,0)">
   <path
   d="M 8,1128 H 1137 V 0 H 8 Z"
   id="path4" />
  </g>
  <g
   id="bullet-char-template-10146"
   transform="matrix(4.8828125e-4,0,0,-4.8828125e-4,0,0)">
   <path
   d="M 174,0 602,739 174,1481 1456,739 Z M 1358,739 309,1346 659,739 Z"
   id="path5" />
  </g>
  <g
   id="bullet-char-template-10132"
   transform="matrix(4.8828125e-4,0,0,-4.8828125e-4,0,0)">
   <path
   d="M 2015,739 1276,0 H 717 l 543,543 H 174 v 393 h 1086 l -543,545 h 557 z"
   id="path6" />
  </g>
  <g
   id="bullet-char-template-10007"
   transform="matrix(4.8828125e-4,0,0,-4.8828125e-4,0,0)">
   <path
   d="m 0,-2 c -7,16 -16,29 -25,39 l 381,530 c -94,256 -141,385 -141,387 0,25 13,38 40,38 9,0 21,-2 34,-5 21,4 42,12 65,25 l 27,-13 111,-251 280,301 64,-25 24,25 c 21,-10 41,-24 62,-43 C 886,937 835,863 770,784 769,783 710,716 594,584 L 774,223 c 0,-27 -21,-55 -63,-84 l 16,-20 C 717,90 699,76 672,76 641,76 570,178 457,381 L 164,-76 c -22,-34 -53,-51 -92,-51 -42,0 -63,17 -64,51 -7,9 -10,24 -10,44 0,9 1,19 2,30 z"
   id="path7" />
  </g>
  <g
   id="bullet-char-template-10004"
   transform="matrix(4.8828125e-4,0,0,-4.8828125e-4,0,0)">
   <path
   d="M 285,-33 C 182,-33 111,30 74,156 52,228 41,333 41,471 c 0,78 14,145 41,201 34,71 87,106 158,106 53,0 88,-31 106,-94 l 23,-176 c 8,-64 28,-97 59,-98 l 735,706 c 11,11 33,17 66,17 42,0 63,-15 63,-46 V 965 c 0,-36 -10,-64 -30,-84 L 442,47 C 390,-6 338,-33 285,-33 Z"
   id="path8" />
  </g>
  <g
   id="bullet-char-template-9679"
   transform="matrix(4.8828125e-4,0,0,-4.8828125e-4,0,0)">
   <path
   d="M 813,0 C 632,0 489,54 383,161 276,268 223,411 223,592 c 0,181 53,324 160,431 106,107 249,161 430,161 179,0 323,-54 432,-161 108,-107 162,-251 162,-431 0,-180 -54,-324 -162,-431 C 1136,54 992,0 813,0 Z"
   id="path9" />
  </g>
  <g
   id="bullet-char-template-8226"
   transform="matrix(4.8828125e-4,0,0,-4.8828125e-4,0,0)">
   <path
   d="m 346,457 c -73,0 -137,26 -191,78 -54,51 -81,114 -81,188 0,73 27,136 81,188 54,52 118,78 191,78 73,0 134,-26 185,-79 51,-51 77,-114 77,-187 0,-75 -25,-137 -76,-188 -50,-52 -112,-78 -186,-78 z"
   id="path10" />
  </g>
  <g
   id="bullet-char-template-8211"
   transform="matrix(4.8828125e-4,0,0,-4.8828125e-4,0,0)">
   <path
   d="M -4,459 H 1135 V 606 H -4 Z"
   id="path11" />
  </g>
  <g
   id="bullet-char-template-61548"
   transform="matrix(4.8828125e-4,0,0,-4.8828125e-4,0,0)">
   <path
   d="m 173,740 c 0,163 58,303 173,419 116,115 255,173 419,173 163,0 302,-58 418,-173 116,-116 174,-256 174,-419 0,-163 -58,-303 -174,-418 C 1067,206 928,148 765,148 601,148 462,206 346,322 231,437 173,577 173,740 Z"
   id="path12" />
  </g>
 </defs>
 <g
   id="g12"
   transform="translate(-2652,-5770)">
  <g
   id="id2"
   class="Master_Slide">
   <g
   id="bg-id2"
   class="Background" />
   <g
   id="bo-id2"
   class="BackgroundObjects" />
  </g>
 </g>
 <g
   class="SlideGroup"
   id="g28"
   transform="translate(-2652,-5770)">
  <g
   id="g27">
   <g
   id="container-id1">
    <g
   id="id1"
   class="Slide"
   clip-path="url(#presentation_clip_path)">
     <g
   class="Page"
   id="g26">
      <g
   class="Group"
   id="g25">
       <g
   class="com.sun.star.drawing.PolyPolygonShape"
   id="g13">
        <g
   id="id3">
         <rect
   class="BoundingBox"
   stroke="none"
   fill="none"
   x="2652"
   y="5770"
   width="15001"
   height="14996"
   id="rect12" />
         <path
   fill="#fefefe"
   stroke="none"
   d="M 2653,5770 V 20765 H 17652 V 5770 Z"
   id="path13" />
        </g>
       </g>
       <g
   class="Group"
   id="g18"
   style="display:none">
        <g
   class="com.sun.star.drawing.LineShape"
   id="g14">
         <g
   id="id4">
          <rect
   class="BoundingBox"
   stroke="none"
   fill="none"
   x="2628"
   y="5771"
   width="53"
   height="14994"
   id="rect13" />
          <path
   fill="none"
   stroke="#1b1918"
   stroke-width="51"
   stroke-linejoin="miter"
   d="M 2654,20764 V 5771"
   id="path14" />
         </g>
        </g>
        <g
   class="com.sun.star.drawing.LineShape"
   id="g15">
         <g
   id="id5">
          <rect
   class="BoundingBox"
   stroke="none"
   fill="none"
   x="2654"
   y="20739"
   width="14997"
   height="53"
   id="rect14" />
          <path
   fill="none"
   stroke="#1b1918"
   stroke-width="51"
   stroke-linejoin="miter"
   d="M 17650,20765 H 2654"
   id="path15" />
         </g>
        </g>
        <g
   class="com.sun.star.drawing.LineShape"
   id="g16">
         <g
   id="id6">
          <rect
   class="BoundingBox"
   stroke="none"
   fill="none"
   x="17624"
   y="5771"
   width="53"
   height="14994"
   id="rect15" />
          <path
   fill="none"
   stroke="#1b1918"
   stroke-width="51"
   stroke-linejoin="miter"
   d="M 17650,5771 V 20764"
   id="path16" />
         </g>
        </g>
        <g
   class="com.sun.star.drawing.LineShape"
   id="g17">
         <g
   id="id7">
          <rect
   class="BoundingBox"
   stroke="none"
   fill="none"
   x="2654"
   y="5745"
   width="14997"
   height="53"
   id="rect16" />
          <path
   fill="none"
   stroke="#1b1918"
   stroke-width="51"
   stroke-linejoin="miter"
   d="M 2654,5771 H 17650"
   id="path17" />
         </g>
        </g>
       </g>
       <g
   class="com.sun.star.drawing.ClosedBezierShape"
   id="g19">
        <g
   id="id8">
         <rect
   class="BoundingBox"
   stroke="none"
   fill="none"
   x="11747"
   y="6271"
   width="5405"
   height="13995"
   id="rect18" />
         <path
   fill="#826500"
   stroke="none"
   d="m 11747,20265 5404,-2 V 6271 l -5404,2 c 449,279 807,536 1198,993 l 3208,3 v 11996 h -3208 c -322,398 -762,724 -1198,1000 z"
   id="path18" />
        </g>
       </g>
       <g
   class="com.sun.star.drawing.ClosedBezierShape"
   id="g20">
        <g
   id="id9">
         <rect
   class="BoundingBox"
   stroke="none"
   fill="none"
   x="3155"
   y="6270"
   width="5394"
   height="13996"
   id="rect19" />
         <path
   fill="#826500"
   stroke="none"
   d="m 8548,20265 -5393,-2 V 6271 l 5393,2 c -427,252 -843,561 -1199,993 l -3196,3 v 11996 h 3196 c 320,403 775,726 1199,1000 z"
   id="path19" />
        </g>
       </g>
       <g
   class="com.sun.star.drawing.ClosedBezierShape"
   id="g21">
        <g
   id="id10">
         <rect
   class="BoundingBox"
   stroke="none"
   fill="none"
   x="5893"
   y="6256"
   width="8524"
   height="14009"
   id="rect20" />
         <path
   fill="#826500"
   stroke="none"
   d="m 10152,20264 c 2354,0 4264,-3137 4264,-7007 0,-3867 -1910,-7000 -4264,-7000 -2350,0 -4259,3133 -4259,7000 0,3870 1909,7007 4259,7007 z"
   id="path20" />
        </g>
       </g>
       <g
   class="com.sun.star.drawing.ClosedBezierShape"
   id="g22">
        <g
   id="id11">
         <rect
   class="BoundingBox"
   stroke="none"
   fill="none"
   x="10284"
   y="10601"
   width="2934"
   height="7702"
   id="rect21" />
         <path
   fill="#ffffff"
   stroke="none"
   d="m 12208,10606 c -326,660 84,1306 453,1822 469,602 708,1422 449,2195 -188,634 -623,1373 -1315,1592 -143,61 -297,89 -455,118 l -647,1871 c -16,33 -398,98 -409,98 0,0 373,-2615 381,-2643 470,67 833,-208 1184,-486 64,-53 87,-141 140,-174 599,-730 348,-1910 11,-2680 -81,-208 -188,-671 -188,-671 -22,-390 17,-778 323,-1047 z"
   id="path21" />
        </g>
       </g>
       <g
   class="com.sun.star.drawing.ClosedBezierShape"
   id="g23">
        <g
   id="id12">
         <rect
   class="BoundingBox"
   stroke="none"
   fill="none"
   x="7055"
   y="10624"
   width="3013"
   height="7671"
   id="rect22" />
         <path
   fill="#ffffff"
   stroke="none"
   d="m 8185,10764 c 497,595 157,1483 -121,2076 -163,511 -301,1143 -53,1674 314,651 932,1238 1694,1210 48,514 138,1031 205,1534 l 157,1036 c -123,-8 -278,-14 -404,-53 0,0 -650,-1845 -661,-1856 -716,-97 -1453,-613 -1719,-1313 -522,-1064 -73,-2291 596,-3143 224,-337 317,-783 149,-1176 -3,-42 -96,-101 -12,-129 79,11 124,89 169,140 z"
   id="path22" />
        </g>
       </g>
       <g
   class="com.sun.star.drawing.ClosedBezierShape"
   id="g24">
        <g
   id="id13">
         <rect
   class="BoundingBox"
   stroke="none"
   fill="none"
   x="8021"
   y="7206"
   width="2434"
   height="2146"
   id="rect23" />
         <path
   fill="#ffffff"
   stroke="none"
   d="m 9465,7234 c 48,5 92,11 140,22 9,6 17,11 23,20 5,42 -267,554 -290,618 6,-2 17,17 31,9 42,-59 65,-65 73,-68 40,-39 146,-104 146,-104 31,-23 183,-127 233,-155 35,-5 52,-28 83,-34 19,-5 45,-5 59,12 17,22 45,42 48,76 19,53 47,98 59,155 14,6 -3,17 0,25 -20,14 -37,23 -51,40 -6,-3 -8,5 -14,8 -14,3 -23,22 -39,22 -82,68 -164,118 -248,183 v 3 c 205,36 394,106 582,191 31,11 62,25 90,42 h 5 c 23,19 59,17 59,50 -3,14 -3,23 -14,31 -28,37 -34,87 -62,124 -16,14 -36,28 -59,28 -16,8 -30,3 -50,11 -9,-8 -17,-17 -31,-11 -31,14 -73,25 -107,11 -64,-34 -129,-70 -196,-93 -139,-53 -279,-89 -434,-98 l -98,3 c -8,3 -8,11 -8,20 11,19 30,28 47,42 71,81 160,171 242,238 78,76 164,141 237,215 53,42 28,112 45,168 0,12 0,26 -12,31 -8,0 -14,6 -19,11 -28,9 -48,28 -70,43 -12,11 -15,19 -24,30 v 3 c -17,28 -45,40 -79,42 -5,3 -14,6 -19,9 -17,-6 -23,19 -34,8 -53,-56 -121,-98 -171,-160 -31,-20 -54,-48 -84,-67 -87,-87 -152,-169 -242,-254 -3,8 -3,11 0,22 -8,69 11,136 17,198 14,73 25,146 39,222 14,48 20,95 14,149 -3,5 0,17 -11,19 -28,14 -56,0 -84,-5 -6,-11 -20,-9 -28,-14 -17,3 -37,-3 -51,3 -8,-3 -14,8 -22,2 -3,9 -6,-2 -12,0 -19,-2 -39,-5 -58,-8 -20,-9 -43,-9 -62,-17 -6,-11 -9,-25 -11,-39 -29,-132 -57,-275 -62,-410 -6,-25 3,-52 -3,-74 -87,88 -163,186 -225,293 -22,17 -32,64 -68,48 -3,0 -6,-6 -9,-3 -5,-3 -8,-12 -8,-17 -8,-14 -20,-17 -28,-25 -37,-3 -70,-17 -104,-26 -20,-8 -22,-31 -36,-39 -6,-25 -43,-25 -43,-48 -8,-11 -5,-17 0,-25 14,-11 17,-31 29,-45 67,-96 140,-192 216,-279 63,-81 147,-160 203,-250 14,-19 -17,-19 -23,-31 -19,-11 -47,-3 -67,-11 -56,0 -102,-11 -155,-3 -37,-8 -85,31 -107,-14 -3,-5 -8,-14 -14,-14 -11,9 -28,9 -34,20 -14,3 -36,0 -53,3 -65,14 -135,16 -200,25 -16,3 -39,11 -56,6 -22,-12 -19,-40 -25,-62 -17,-9 -22,-28 -34,-42 -5,-31 -11,-57 -16,-85 2,-2 5,-11 11,-11 3,0 8,0 11,-5 l -6,-14 c 14,-17 34,-17 51,-29 48,-22 104,-22 154,-36 113,-20 233,-17 351,-20 6,-5 -5,-11 -5,-17 -23,-33 -42,-70 -62,-109 -34,-53 -79,-101 -110,-157 -14,-12 -22,-29 -33,-38 -9,-11 -14,-28 -23,-42 -3,-22 -22,-62 6,-76 62,-56 121,-115 194,-154 -3,-14 14,-6 19,-14 3,8 12,3 17,3 28,5 38,36 52,56 8,19 5,50 31,59 59,36 64,109 109,160 39,77 104,133 155,200 8,3 11,14 19,17 0,8 11,6 9,14 16,-45 30,-95 50,-143 25,-80 39,-161 70,-240 3,-34 23,-62 28,-95 17,-31 23,-68 40,-101 0,-20 17,-34 17,-54 2,-3 45,-70 45,-76 11,-11 25,-30 44,-30 68,5 132,28 200,28 z"
   id="path23" />
        </g>
       </g>
      </g>
     </g>
    </g>
   </g>
  </g>
 </g>
</svg>
