<?xml version="1.0" encoding="UTF-8" standalone="no"?>
<svg
   version="1.2"
   width="150.00999mm"
   height="149.95999mm"
   viewBox="0 0 15001 14995.999"
   preserveAspectRatio="xMidYMid"
   fill-rule="evenodd"
   stroke-width="28.222"
   stroke-linejoin="round"
   xml:space="preserve"
   id="svg29"
   sodipodi:docname="ID15a16.svg"
   inkscape:version="1.2.2 (b0a8486541, 2022-12-01)"
   xmlns:inkscape="http://www.inkscape.org/namespaces/inkscape"
   xmlns:sodipodi="http://sodipodi.sourceforge.net/DTD/sodipodi-0.dtd"
   xmlns="http://www.w3.org/2000/svg"
   xmlns:svg="http://www.w3.org/2000/svg"
   xmlns:ooo="http://xml.openoffice.org/svg/export"><sodipodi:namedview
   id="namedview29"
   pagecolor="#ffffff"
   bordercolor="#000000"
   borderopacity="0.25"
   inkscape:showpageshadow="2"
   inkscape:pageopacity="0.0"
   inkscape:pagecheckerboard="true"
   inkscape:deskcolor="#d1d1d1"
   inkscape:document-units="mm"
   fit-margin-top="50"
   fit-margin-left="50"
   fit-margin-right="50"
   fit-margin-bottom="50"
   showgrid="false"
   inkscape:zoom="7.7447597"
   inkscape:cx="533.32836"
   inkscape:cy="14.332272"
   inkscape:window-width="1280"
   inkscape:window-height="731"
   inkscape:window-x="0"
   inkscape:window-y="0"
   inkscape:window-maximized="1"
   inkscape:current-layer="svg29" />
 <defs
   class="ClipPathGroup"
   id="defs2">
  <clipPath
   id="presentation_clip_path"
   clipPathUnits="userSpaceOnUse">
   <rect
   x="0"
   y="0"
   width="21001"
   height="29703"
   id="rect1" />
  </clipPath>
  <clipPath
   id="presentation_clip_path_shrink"
   clipPathUnits="userSpaceOnUse">
   <rect
   x="21"
   y="29"
   width="20959"
   height="29644"
   id="rect2" />
  </clipPath>
 </defs>
 <defs
   class="TextShapeIndex"
   id="defs3">
  <g
   ooo:slide="id1"
   ooo:id-list="id3 id4 id5 id6 id7 id8 id9 id10 id11 id12 id13 id14"
   id="g2" />
 </defs>
 <defs
   class="EmbeddedBulletChars"
   id="defs12">
  <g
   id="bullet-char-template-57356"
   transform="matrix(4.8828125e-4,0,0,-4.8828125e-4,0,0)">
   <path
   d="M 580,1141 1163,571 580,0 -4,571 Z"
   id="path3" />
  </g>
  <g
   id="bullet-char-template-57354"
   transform="matrix(4.8828125e-4,0,0,-4.8828125e-4,0,0)">
   <path
   d="M 8,1128 H 1137 V 0 H 8 Z"
   id="path4" />
  </g>
  <g
   id="bullet-char-template-10146"
   transform="matrix(4.8828125e-4,0,0,-4.8828125e-4,0,0)">
   <path
   d="M 174,0 602,739 174,1481 1456,739 Z M 1358,739 309,1346 659,739 Z"
   id="path5" />
  </g>
  <g
   id="bullet-char-template-10132"
   transform="matrix(4.8828125e-4,0,0,-4.8828125e-4,0,0)">
   <path
   d="M 2015,739 1276,0 H 717 l 543,543 H 174 v 393 h 1086 l -543,545 h 557 z"
   id="path6" />
  </g>
  <g
   id="bullet-char-template-10007"
   transform="matrix(4.8828125e-4,0,0,-4.8828125e-4,0,0)">
   <path
   d="m 0,-2 c -7,16 -16,29 -25,39 l 381,530 c -94,256 -141,385 -141,387 0,25 13,38 40,38 9,0 21,-2 34,-5 21,4 42,12 65,25 l 27,-13 111,-251 280,301 64,-25 24,25 c 21,-10 41,-24 62,-43 C 886,937 835,863 770,784 769,783 710,716 594,584 L 774,223 c 0,-27 -21,-55 -63,-84 l 16,-20 C 717,90 699,76 672,76 641,76 570,178 457,381 L 164,-76 c -22,-34 -53,-51 -92,-51 -42,0 -63,17 -64,51 -7,9 -10,24 -10,44 0,9 1,19 2,30 z"
   id="path7" />
  </g>
  <g
   id="bullet-char-template-10004"
   transform="matrix(4.8828125e-4,0,0,-4.8828125e-4,0,0)">
   <path
   d="M 285,-33 C 182,-33 111,30 74,156 52,228 41,333 41,471 c 0,78 14,145 41,201 34,71 87,106 158,106 53,0 88,-31 106,-94 l 23,-176 c 8,-64 28,-97 59,-98 l 735,706 c 11,11 33,17 66,17 42,0 63,-15 63,-46 V 965 c 0,-36 -10,-64 -30,-84 L 442,47 C 390,-6 338,-33 285,-33 Z"
   id="path8" />
  </g>
  <g
   id="bullet-char-template-9679"
   transform="matrix(4.8828125e-4,0,0,-4.8828125e-4,0,0)">
   <path
   d="M 813,0 C 632,0 489,54 383,161 276,268 223,411 223,592 c 0,181 53,324 160,431 106,107 249,161 430,161 179,0 323,-54 432,-161 108,-107 162,-251 162,-431 0,-180 -54,-324 -162,-431 C 1136,54 992,0 813,0 Z"
   id="path9" />
  </g>
  <g
   id="bullet-char-template-8226"
   transform="matrix(4.8828125e-4,0,0,-4.8828125e-4,0,0)">
   <path
   d="m 346,457 c -73,0 -137,26 -191,78 -54,51 -81,114 -81,188 0,73 27,136 81,188 54,52 118,78 191,78 73,0 134,-26 185,-79 51,-51 77,-114 77,-187 0,-75 -25,-137 -76,-188 -50,-52 -112,-78 -186,-78 z"
   id="path10" />
  </g>
  <g
   id="bullet-char-template-8211"
   transform="matrix(4.8828125e-4,0,0,-4.8828125e-4,0,0)">
   <path
   d="M -4,459 H 1135 V 606 H -4 Z"
   id="path11" />
  </g>
  <g
   id="bullet-char-template-61548"
   transform="matrix(4.8828125e-4,0,0,-4.8828125e-4,0,0)">
   <path
   d="m 173,740 c 0,163 58,303 173,419 116,115 255,173 419,173 163,0 302,-58 418,-173 116,-116 174,-256 174,-419 0,-163 -58,-303 -174,-418 C 1067,206 928,148 765,148 601,148 462,206 346,322 231,437 173,577 173,740 Z"
   id="path12" />
  </g>
 </defs>
 <g
   id="g12"
   transform="translate(-2652,-5770)">
  <g
   id="id2"
   class="Master_Slide">
   <g
   id="bg-id2"
   class="Background" />
   <g
   id="bo-id2"
   class="BackgroundObjects" />
  </g>
 </g>
 <g
   class="SlideGroup"
   id="g29"
   transform="translate(-2652,-5770)">
  <g
   id="g28">
   <g
   id="container-id1">
    <g
   id="id1"
   class="Slide"
   clip-path="url(#presentation_clip_path)">
     <g
   class="Page"
   id="g27">
      <g
   class="Group"
   id="g26">
       <g
   class="com.sun.star.drawing.PolyPolygonShape"
   id="g13">
        <g
   id="id3">
         <rect
   class="BoundingBox"
   stroke="none"
   fill="none"
   x="2652"
   y="5770"
   width="15001"
   height="14996"
   id="rect12" />
         <path
   fill="#fefefe"
   stroke="none"
   d="M 2653,5770 V 20765 H 17652 V 5770 Z"
   id="path13" />
        </g>
       </g>
       <g
   class="Group"
   id="g18"
   style="display:none">
        <g
   class="com.sun.star.drawing.LineShape"
   id="g14">
         <g
   id="id4">
          <rect
   class="BoundingBox"
   stroke="none"
   fill="none"
   x="2628"
   y="5771"
   width="53"
   height="14994"
   id="rect13" />
          <path
   fill="none"
   stroke="#1b1918"
   stroke-width="51"
   stroke-linejoin="miter"
   d="M 2654,20764 V 5771"
   id="path14" />
         </g>
        </g>
        <g
   class="com.sun.star.drawing.LineShape"
   id="g15">
         <g
   id="id5">
          <rect
   class="BoundingBox"
   stroke="none"
   fill="none"
   x="2654"
   y="20739"
   width="14997"
   height="53"
   id="rect14" />
          <path
   fill="none"
   stroke="#1b1918"
   stroke-width="51"
   stroke-linejoin="miter"
   d="M 17650,20765 H 2654"
   id="path15" />
         </g>
        </g>
        <g
   class="com.sun.star.drawing.LineShape"
   id="g16">
         <g
   id="id6">
          <rect
   class="BoundingBox"
   stroke="none"
   fill="none"
   x="17624"
   y="5771"
   width="53"
   height="14994"
   id="rect15" />
          <path
   fill="none"
   stroke="#1b1918"
   stroke-width="51"
   stroke-linejoin="miter"
   d="M 17650,5771 V 20764"
   id="path16" />
         </g>
        </g>
        <g
   class="com.sun.star.drawing.LineShape"
   id="g17">
         <g
   id="id7">
          <rect
   class="BoundingBox"
   stroke="none"
   fill="none"
   x="2654"
   y="5745"
   width="14997"
   height="53"
   id="rect16" />
          <path
   fill="none"
   stroke="#1b1918"
   stroke-width="51"
   stroke-linejoin="miter"
   d="M 2654,5771 H 17650"
   id="path17" />
         </g>
        </g>
       </g>
       <g
   class="com.sun.star.drawing.ClosedBezierShape"
   id="g19">
        <g
   id="id8">
         <rect
   class="BoundingBox"
   stroke="none"
   fill="none"
   x="11747"
   y="6271"
   width="5405"
   height="13995"
   id="rect18" />
         <path
   fill="#826500"
   stroke="none"
   d="m 11747,20265 5404,-2 V 6271 l -5404,2 c 449,279 807,536 1198,993 l 3208,3 v 11996 h -3208 c -322,398 -762,724 -1198,1000 z"
   id="path18" />
        </g>
       </g>
       <g
   class="com.sun.star.drawing.ClosedBezierShape"
   id="g20">
        <g
   id="id9">
         <rect
   class="BoundingBox"
   stroke="none"
   fill="none"
   x="3155"
   y="6270"
   width="5394"
   height="13996"
   id="rect19" />
         <path
   fill="#826500"
   stroke="none"
   d="m 8548,20265 -5393,-2 V 6271 l 5393,2 c -427,252 -843,561 -1199,993 l -3196,3 v 11996 h 3196 c 320,403 775,726 1199,1000 z"
   id="path19" />
        </g>
       </g>
       <g
   class="com.sun.star.drawing.ClosedBezierShape"
   id="g21">
        <g
   id="id10">
         <rect
   class="BoundingBox"
   stroke="none"
   fill="none"
   x="5895"
   y="6244"
   width="8517"
   height="14017"
   id="rect20" />
         <path
   fill="#826500"
   stroke="none"
   d="m 10375,20260 c 2342,-212 4018,-3323 4035,-7107 17,-3759 -1979,-6908 -4221,-6908 -2325,0 -4351,2880 -4293,7073 50,3489 1534,6269 3515,6839 69,-89 247,-298 244,-320 387,-684 337,-1648 47,-2327 662,-183 1218,-714 1493,-1343 64,-158 89,-372 -2,-528 442,3 828,-383 973,-750 120,-351 176,-787 -73,-1098 l -125,-109 c 111,-17 228,-50 329,-100 303,-186 506,-496 662,-771 -20,103 -22,208 -11,317 67,334 300,618 575,849 -431,331 -503,817 -553,1312 -14,208 6,414 22,614 -319,320 -570,731 -467,1201 20,50 20,109 45,156 -691,125 -1252,723 -1625,1273 -333,520 -609,1065 -570,1727 z"
   id="path20" />
        </g>
       </g>
       <g
   class="com.sun.star.drawing.ClosedBezierShape"
   id="g22">
        <g
   id="id11">
         <rect
   class="BoundingBox"
   stroke="none"
   fill="none"
   x="7411"
   y="14879"
   width="2312"
   height="4050"
   id="rect21" />
         <path
   fill="#ffffff"
   stroke="none"
   d="m 8248,15159 c -53,267 -11,548 203,726 109,87 250,134 392,112 -86,92 -125,209 -100,334 42,155 217,258 373,283 81,14 184,17 265,-5 22,55 36,119 58,178 59,169 84,333 173,492 -84,41 -114,78 -203,105 250,456 350,997 300,1544 -242,-611 -835,-1291 -1583,-1316 l -251,20 c 83,-378 100,-845 -150,-1154 l -150,-142 c 61,-3 119,-44 144,-97 86,-317 -108,-585 -308,-816 63,-139 58,-311 69,-467 l -6,-77 c 234,150 481,275 774,280 z"
   id="path21" />
        </g>
       </g>
       <g
   class="com.sun.star.drawing.ClosedBezierShape"
   id="g23">
        <g
   id="id12">
         <rect
   class="BoundingBox"
   stroke="none"
   fill="none"
   x="8168"
   y="7137"
   width="2412"
   height="2127"
   id="rect22" />
         <path
   fill="#ffffff"
   stroke="none"
   d="m 9597,7167 c 48,6 95,11 139,25 9,6 20,8 25,17 6,41 -266,548 -286,610 3,0 14,19 28,11 42,-59 67,-64 72,-70 42,-36 145,-101 145,-101 33,-22 180,-125 230,-153 34,-5 51,-28 84,-33 19,-6 44,-6 56,8 19,25 44,45 50,78 16,50 47,97 58,151 14,6 -6,20 -3,28 -17,14 -36,22 -50,36 -5,0 -8,8 -14,11 -14,3 -22,20 -39,20 -80,69 -161,116 -244,180 v 3 c 205,39 389,109 575,192 33,11 61,25 92,42 h 5 c 23,16 56,14 59,50 -3,11 -6,22 -14,28 -31,38 -36,86 -61,125 -20,11 -39,27 -61,27 -14,9 -31,3 -48,9 -8,-6 -19,-14 -30,-9 -34,12 -75,25 -109,9 -64,-34 -128,-67 -194,-89 -137,-53 -276,-89 -428,-97 h -98 c -8,5 -8,13 -8,22 14,19 33,25 47,41 72,81 159,167 242,237 75,75 159,136 234,212 50,42 25,111 41,167 0,11 0,25 -8,30 -11,0 -17,6 -22,9 -25,11 -48,28 -70,44 -8,11 -14,17 -22,31 l 3,3 c -17,27 -48,36 -81,41 -5,3 -11,6 -19,9 -14,-6 -20,16 -34,8 -50,-56 -116,-100 -169,-158 -28,-23 -53,-48 -84,-67 -83,-86 -150,-167 -240,-254 -3,11 0,14 0,25 -5,65 11,132 17,193 15,75 26,147 43,219 11,48 16,98 11,148 -3,8 0,19 -11,22 -28,14 -54,-3 -82,-6 -8,-11 -22,-8 -31,-16 -16,2 -36,-3 -47,5 -11,-3 -14,6 -25,3 -3,8 -5,-3 -8,0 -20,-3 -39,-8 -59,-8 -19,-9 -41,-9 -64,-17 -5,-11 -8,-28 -8,-39 -28,-131 -58,-275 -64,-409 -5,-22 6,-48 -3,-70 -86,87 -161,184 -219,287 -25,17 -31,64 -70,47 0,0 -5,-2 -5,0 -9,-2 -11,-13 -11,-19 -6,-11 -20,-14 -25,-22 -37,-3 -70,-17 -103,-28 -20,-6 -23,-28 -39,-39 -6,-22 -39,-25 -42,-47 -5,-9 -3,-14 0,-22 14,-14 17,-31 28,-45 69,-95 139,-193 214,-276 61,-84 145,-159 200,-248 14,-19 -14,-19 -19,-30 -20,-11 -48,-3 -70,-11 -53,0 -97,-11 -153,-6 -36,-5 -80,34 -105,-14 -3,-3 -6,-14 -14,-11 -9,8 -25,6 -34,20 -14,2 -36,-3 -50,2 -64,12 -136,17 -197,25 -20,0 -39,12 -58,6 -23,-14 -20,-42 -23,-61 -19,-9 -22,-28 -36,-45 -5,-27 -11,-52 -16,-80 2,-6 5,-11 11,-11 5,0 8,-3 11,-6 l -3,-17 c 11,-16 31,-14 47,-25 47,-22 106,-22 156,-36 108,-19 231,-16 345,-22 8,-6 -6,-8 -3,-14 -25,-36 -45,-72 -64,-108 -33,-56 -78,-100 -109,-159 -11,-11 -19,-26 -30,-34 -11,-11 -14,-28 -25,-42 -3,-25 -22,-61 5,-78 64,-53 120,-111 192,-150 0,-14 17,-5 20,-14 3,9 11,0 16,0 28,9 39,36 53,59 9,19 6,47 28,58 58,36 64,108 108,158 39,77 106,132 153,199 11,3 11,14 20,17 0,8 11,5 11,13 17,-47 31,-94 47,-141 28,-79 42,-163 70,-240 5,-34 22,-62 30,-92 17,-34 20,-70 36,-103 0,-19 17,-31 17,-50 6,-6 47,-70 45,-75 13,-11 26,-33 45,-33 67,8 131,30 197,30 z"
   id="path22" />
        </g>
       </g>
       <g
   class="com.sun.star.drawing.ClosedBezierShape"
   id="g24">
        <g
   id="id13">
         <rect
   class="BoundingBox"
   stroke="none"
   fill="none"
   x="8265"
   y="11399"
   width="2865"
   height="5762"
   id="rect23" />
         <path
   fill="#ffffff"
   stroke="none"
   d="m 10073,12016 c 150,-175 253,-326 397,-501 8,253 56,445 72,698 192,-56 587,-131 587,-131 l -370,859 c 317,584 328,1201 -122,1719 -167,220 -423,356 -695,373 v 2071 c -42,28 -95,25 -134,56 l -94,-231 -3,-1888 -29,-5 c -339,0 -645,-209 -817,-492 -297,-441 -336,-1091 -150,-1594 -159,-256 -303,-523 -450,-787 63,0 472,61 614,81 l 5,-11 164,-623 c 0,0 242,283 415,461 78,-236 205,-433 281,-672 139,216 198,397 329,617 z"
   id="path23" />
        </g>
       </g>
       <g
   class="com.sun.star.drawing.ClosedBezierShape"
   id="g25">
        <g
   id="id14">
         <rect
   class="BoundingBox"
   stroke="none"
   fill="none"
   x="7736"
   y="10281"
   width="3934"
   height="1600"
   id="rect24" />
         <path
   fill="#ffffff"
   stroke="none"
   d="m 10025,10784 345,-467 170,508 337,-303 111,381 365,-161 -64,374 c 0,0 253,-118 380,-174 0,0 -308,490 -455,760 l -484,120 -143,-704 -456,473 c -3,-6 -431,-610 -431,-610 l -283,629 -481,-419 -195,689 -526,-47 -478,-760 478,195 -64,-443 431,248 16,-434 446,228 109,-464 353,386 311,-508 z"
   id="path24" />
        </g>
       </g>
      </g>
     </g>
    </g>
   </g>
  </g>
 </g>
</svg>
