<?xml version="1.0" encoding="UTF-8" standalone="no"?>
<svg
   version="1.2"
   width="150.00999mm"
   height="149.95999mm"
   viewBox="0 0 15001 14995.999"
   preserveAspectRatio="xMidYMid"
   fill-rule="evenodd"
   stroke-width="28.222"
   stroke-linejoin="round"
   xml:space="preserve"
   id="svg26"
   sodipodi:docname="ID15a47.svg"
   inkscape:version="1.2.2 (b0a8486541, 2022-12-01)"
   xmlns:inkscape="http://www.inkscape.org/namespaces/inkscape"
   xmlns:sodipodi="http://sodipodi.sourceforge.net/DTD/sodipodi-0.dtd"
   xmlns="http://www.w3.org/2000/svg"
   xmlns:svg="http://www.w3.org/2000/svg"
   xmlns:ooo="http://xml.openoffice.org/svg/export"><sodipodi:namedview
   id="namedview26"
   pagecolor="#ffffff"
   bordercolor="#000000"
   borderopacity="0.25"
   inkscape:showpageshadow="2"
   inkscape:pageopacity="0.0"
   inkscape:pagecheckerboard="true"
   inkscape:deskcolor="#d1d1d1"
   inkscape:document-units="mm"
   fit-margin-top="50"
   fit-margin-left="50"
   fit-margin-right="50"
   fit-margin-bottom="50"
   showgrid="false"
   inkscape:zoom="0.82577784"
   inkscape:cx="222.21473"
   inkscape:cy="296.68997"
   inkscape:window-width="1280"
   inkscape:window-height="731"
   inkscape:window-x="0"
   inkscape:window-y="0"
   inkscape:window-maximized="1"
   inkscape:current-layer="g23" />
 <defs
   class="ClipPathGroup"
   id="defs2">
  <clipPath
   id="presentation_clip_path"
   clipPathUnits="userSpaceOnUse">
   <rect
   x="0"
   y="0"
   width="21001"
   height="29703"
   id="rect1" />
  </clipPath>
  <clipPath
   id="presentation_clip_path_shrink"
   clipPathUnits="userSpaceOnUse">
   <rect
   x="21"
   y="29"
   width="20959"
   height="29644"
   id="rect2" />
  </clipPath>
 </defs>
 <defs
   class="TextShapeIndex"
   id="defs3">
  <g
   ooo:slide="id1"
   ooo:id-list="id3 id4 id5 id6 id7 id8 id9 id10 id11"
   id="g2" />
 </defs>
 <defs
   class="EmbeddedBulletChars"
   id="defs12">
  <g
   id="bullet-char-template-57356"
   transform="matrix(4.8828125e-4,0,0,-4.8828125e-4,0,0)">
   <path
   d="M 580,1141 1163,571 580,0 -4,571 Z"
   id="path3" />
  </g>
  <g
   id="bullet-char-template-57354"
   transform="matrix(4.8828125e-4,0,0,-4.8828125e-4,0,0)">
   <path
   d="M 8,1128 H 1137 V 0 H 8 Z"
   id="path4" />
  </g>
  <g
   id="bullet-char-template-10146"
   transform="matrix(4.8828125e-4,0,0,-4.8828125e-4,0,0)">
   <path
   d="M 174,0 602,739 174,1481 1456,739 Z M 1358,739 309,1346 659,739 Z"
   id="path5" />
  </g>
  <g
   id="bullet-char-template-10132"
   transform="matrix(4.8828125e-4,0,0,-4.8828125e-4,0,0)">
   <path
   d="M 2015,739 1276,0 H 717 l 543,543 H 174 v 393 h 1086 l -543,545 h 557 z"
   id="path6" />
  </g>
  <g
   id="bullet-char-template-10007"
   transform="matrix(4.8828125e-4,0,0,-4.8828125e-4,0,0)">
   <path
   d="m 0,-2 c -7,16 -16,29 -25,39 l 381,530 c -94,256 -141,385 -141,387 0,25 13,38 40,38 9,0 21,-2 34,-5 21,4 42,12 65,25 l 27,-13 111,-251 280,301 64,-25 24,25 c 21,-10 41,-24 62,-43 C 886,937 835,863 770,784 769,783 710,716 594,584 L 774,223 c 0,-27 -21,-55 -63,-84 l 16,-20 C 717,90 699,76 672,76 641,76 570,178 457,381 L 164,-76 c -22,-34 -53,-51 -92,-51 -42,0 -63,17 -64,51 -7,9 -10,24 -10,44 0,9 1,19 2,30 z"
   id="path7" />
  </g>
  <g
   id="bullet-char-template-10004"
   transform="matrix(4.8828125e-4,0,0,-4.8828125e-4,0,0)">
   <path
   d="M 285,-33 C 182,-33 111,30 74,156 52,228 41,333 41,471 c 0,78 14,145 41,201 34,71 87,106 158,106 53,0 88,-31 106,-94 l 23,-176 c 8,-64 28,-97 59,-98 l 735,706 c 11,11 33,17 66,17 42,0 63,-15 63,-46 V 965 c 0,-36 -10,-64 -30,-84 L 442,47 C 390,-6 338,-33 285,-33 Z"
   id="path8" />
  </g>
  <g
   id="bullet-char-template-9679"
   transform="matrix(4.8828125e-4,0,0,-4.8828125e-4,0,0)">
   <path
   d="M 813,0 C 632,0 489,54 383,161 276,268 223,411 223,592 c 0,181 53,324 160,431 106,107 249,161 430,161 179,0 323,-54 432,-161 108,-107 162,-251 162,-431 0,-180 -54,-324 -162,-431 C 1136,54 992,0 813,0 Z"
   id="path9" />
  </g>
  <g
   id="bullet-char-template-8226"
   transform="matrix(4.8828125e-4,0,0,-4.8828125e-4,0,0)">
   <path
   d="m 346,457 c -73,0 -137,26 -191,78 -54,51 -81,114 -81,188 0,73 27,136 81,188 54,52 118,78 191,78 73,0 134,-26 185,-79 51,-51 77,-114 77,-187 0,-75 -25,-137 -76,-188 -50,-52 -112,-78 -186,-78 z"
   id="path10" />
  </g>
  <g
   id="bullet-char-template-8211"
   transform="matrix(4.8828125e-4,0,0,-4.8828125e-4,0,0)">
   <path
   d="M -4,459 H 1135 V 606 H -4 Z"
   id="path11" />
  </g>
  <g
   id="bullet-char-template-61548"
   transform="matrix(4.8828125e-4,0,0,-4.8828125e-4,0,0)">
   <path
   d="m 173,740 c 0,163 58,303 173,419 116,115 255,173 419,173 163,0 302,-58 418,-173 116,-116 174,-256 174,-419 0,-163 -58,-303 -174,-418 C 1067,206 928,148 765,148 601,148 462,206 346,322 231,437 173,577 173,740 Z"
   id="path12" />
  </g>
 </defs>
 <g
   id="g12"
   transform="translate(-2652,-5770)">
  <g
   id="id2"
   class="Master_Slide">
   <g
   id="bg-id2"
   class="Background" />
   <g
   id="bo-id2"
   class="BackgroundObjects" />
  </g>
 </g>
 <g
   class="SlideGroup"
   id="g26"
   transform="translate(-2652,-5770)">
  <g
   id="g25">
   <g
   id="container-id1">
    <g
   id="id1"
   class="Slide"
   clip-path="url(#presentation_clip_path)">
     <g
   class="Page"
   id="g24">
      <g
   class="Group"
   id="g23">
       <g
   class="com.sun.star.drawing.PolyPolygonShape"
   id="g13">
        <g
   id="id3">
         <rect
   class="BoundingBox"
   stroke="none"
   fill="none"
   x="2652"
   y="5770"
   width="15001"
   height="14996"
   id="rect12" />
         <path
   fill="#fefefe"
   stroke="none"
   d="M 2653,5770 V 20765 H 17652 V 5770 Z"
   id="path13" />
        </g>
       </g>
       <g
   class="Group"
   id="g18"
   style="display:none">
        <g
   class="com.sun.star.drawing.LineShape"
   id="g14">
         <g
   id="id4">
          <rect
   class="BoundingBox"
   stroke="none"
   fill="none"
   x="2628"
   y="5771"
   width="53"
   height="14994"
   id="rect13" />
          <path
   fill="none"
   stroke="#1b1918"
   stroke-width="51"
   stroke-linejoin="miter"
   d="M 2654,20764 V 5771"
   id="path14" />
         </g>
        </g>
        <g
   class="com.sun.star.drawing.LineShape"
   id="g15">
         <g
   id="id5">
          <rect
   class="BoundingBox"
   stroke="none"
   fill="none"
   x="2654"
   y="20739"
   width="14997"
   height="53"
   id="rect14" />
          <path
   fill="none"
   stroke="#1b1918"
   stroke-width="51"
   stroke-linejoin="miter"
   d="M 17650,20765 H 2654"
   id="path15" />
         </g>
        </g>
        <g
   class="com.sun.star.drawing.LineShape"
   id="g16">
         <g
   id="id6">
          <rect
   class="BoundingBox"
   stroke="none"
   fill="none"
   x="17624"
   y="5771"
   width="53"
   height="14994"
   id="rect15" />
          <path
   fill="none"
   stroke="#1b1918"
   stroke-width="51"
   stroke-linejoin="miter"
   d="M 17650,5771 V 20764"
   id="path16" />
         </g>
        </g>
        <g
   class="com.sun.star.drawing.LineShape"
   id="g17">
         <g
   id="id7">
          <rect
   class="BoundingBox"
   stroke="none"
   fill="none"
   x="2654"
   y="5745"
   width="14997"
   height="53"
   id="rect16" />
          <path
   fill="none"
   stroke="#1b1918"
   stroke-width="51"
   stroke-linejoin="miter"
   d="M 2654,5771 H 17650"
   id="path17" />
         </g>
        </g>
       </g>
       <g
   class="com.sun.star.drawing.ClosedBezierShape"
   id="g19">
        <g
   id="id8">
         <rect
   class="BoundingBox"
   stroke="none"
   fill="none"
   x="11747"
   y="6271"
   width="5405"
   height="13995"
   id="rect18" />
         <path
   fill="#826500"
   stroke="none"
   d="m 11747,20265 5404,-2 V 6271 l -5404,2 c 449,279 807,536 1198,993 l 3208,3 v 11996 h -3208 c -322,398 -762,724 -1198,1000 z"
   id="path18" />
        </g>
       </g>
       <g
   class="com.sun.star.drawing.ClosedBezierShape"
   id="g20">
        <g
   id="id9">
         <rect
   class="BoundingBox"
   stroke="none"
   fill="none"
   x="3155"
   y="6270"
   width="5394"
   height="13996"
   id="rect19" />
         <path
   fill="#826500"
   stroke="none"
   d="m 8548,20265 -5393,-2 V 6271 l 5393,2 c -427,252 -843,561 -1199,993 l -3196,3 v 11996 h 3196 c 320,403 775,726 1199,1000 z"
   id="path19" />
        </g>
       </g>
       <g
   class="com.sun.star.drawing.ClosedBezierShape"
   id="g21">
        <g
   id="id10">
         <rect
   class="BoundingBox"
   stroke="none"
   fill="none"
   x="5889"
   y="6263"
   width="8526"
   height="14007"
   id="rect20" />
         <path
   fill="#826500"
   stroke="none"
   d="m 10151,20265 c 2350,0 4259,-3136 4259,-7001 0,-3868 -1909,-6997 -4259,-6997 -2350,0 -4258,3129 -4258,6997 0,3865 1908,7001 4258,7001 z"
   id="path20" />
         <path
   fill="none"
   stroke="#a65b45"
   stroke-width="8"
   stroke-linejoin="miter"
   d="m 10151,20265 c 2350,0 4259,-3136 4259,-7001 0,-3868 -1909,-6997 -4259,-6997 -2350,0 -4258,3129 -4258,6997 0,3865 1908,7001 4258,7001 z"
   id="path21" />
        </g>
       </g>
       <g
   class="com.sun.star.drawing.ClosedBezierShape"
   id="g22">
        <g
   id="id11">
         <rect
   class="BoundingBox"
   stroke="none"
   fill="none"
   x="8001"
   y="7216"
   width="2433"
   height="2145"
   id="rect21" />
         <path
   fill="#ffffff"
   stroke="none"
   d="m 9444,7244 c 48,5 93,11 140,22 9,6 17,11 26,20 3,42 -270,554 -292,618 5,-3 17,17 31,9 45,-59 64,-65 73,-68 39,-39 146,-105 146,-105 31,-22 182,-126 233,-154 34,-6 51,-28 82,-34 20,-5 45,-5 59,12 17,22 45,42 48,75 19,54 47,99 59,156 14,5 -3,17 0,25 -17,14 -37,22 -51,39 -6,-3 -8,6 -14,9 -14,2 -22,22 -39,22 -82,67 -164,118 -248,183 v 2 c 206,37 396,107 582,191 31,11 61,25 90,42 h 5 c 23,20 59,17 59,51 -3,14 -3,22 -14,31 -28,36 -31,87 -62,123 -17,14 -36,28 -59,28 -16,9 -30,3 -50,11 -6,-8 -17,-16 -31,-11 -31,14 -73,26 -107,11 -64,-33 -129,-70 -193,-95 -142,-50 -282,-87 -436,-95 l -99,2 c -8,3 -8,12 -8,20 11,20 31,28 48,42 70,82 160,171 241,239 81,76 164,140 237,214 53,42 28,112 45,166 0,14 0,28 -11,33 -9,0 -15,6 -17,12 -31,8 -51,28 -73,42 -12,11 -14,19 -24,28 v 5 c -17,28 -45,40 -76,42 -8,3 -16,6 -22,9 -17,-6 -22,20 -34,8 -53,-59 -120,-98 -171,-160 -31,-19 -53,-47 -84,-67 -87,-87 -152,-168 -241,-254 -3,9 -3,12 0,23 -9,68 11,136 16,197 14,73 26,146 40,222 14,48 19,93 14,149 -3,5 0,17 -12,19 -28,14 -56,0 -84,-5 -5,-11 -19,-9 -28,-14 -17,3 -36,-3 -50,3 -9,-3 -14,8 -23,2 -3,9 -5,-2 -11,0 -20,-2 -39,-5 -59,-8 -20,-8 -42,-8 -62,-17 -5,-11 -5,-25 -11,-39 -28,-132 -56,-275 -59,-410 -8,-25 0,-51 -5,-74 -87,88 -163,186 -225,293 -22,17 -32,65 -68,48 -3,0 -6,-6 -9,-3 -5,-3 -8,-11 -8,-17 -9,-14 -20,-17 -28,-25 -37,-3 -70,-17 -104,-25 -20,-9 -23,-31 -37,-40 -5,-25 -42,-25 -42,-48 -5,-11 -5,-16 0,-25 14,-11 17,-31 28,-45 71,-99 141,-192 216,-279 63,-81 147,-162 204,-249 14,-20 -17,-20 -20,-34 -23,-8 -51,0 -70,-8 -56,0 -102,-12 -156,-3 -36,-9 -81,31 -106,-14 -3,-6 -6,-14 -14,-14 -12,8 -28,8 -34,19 -14,3 -36,0 -53,3 -65,11 -135,17 -197,25 -19,3 -42,12 -59,6 -22,-14 -19,-39 -22,-62 -20,-8 -25,-28 -37,-42 -5,-31 -11,-56 -16,-84 2,-3 5,-11 11,-11 3,0 8,0 11,-6 l -6,-14 c 14,-17 34,-17 51,-31 48,-19 104,-19 157,-33 109,-20 230,-17 348,-20 6,-6 -6,-11 -3,-17 -25,-34 -45,-70 -64,-109 -34,-54 -79,-101 -110,-158 -14,-14 -19,-29 -33,-37 -9,-11 -14,-28 -23,-42 -3,-23 -22,-62 6,-76 61,-56 120,-115 193,-154 -2,-14 14,-6 20,-14 3,8 11,2 17,2 28,6 40,37 51,57 12,16 6,50 31,59 59,36 65,109 110,160 39,76 104,132 154,200 9,3 11,14 20,17 0,8 11,5 11,14 14,-45 31,-96 48,-143 25,-80 42,-161 70,-240 3,-34 22,-62 28,-95 17,-31 22,-68 39,-102 0,-19 20,-33 20,-53 0,-3 42,-70 42,-76 14,-11 25,-30 45,-30 67,5 132,28 199,28 z"
   id="path22" />
        </g>
       </g>
      <g
   id="g49285"
   transform="matrix(23.495038,0,0,23.440605,8240.8106,641.25045)"><path
     id="path4614"
     d="m -23.734081,409.79108 v 2.18164 h -1.91018 v 0.81641 h 1.91018 v 3.16211 l -7.8203,5.68359 -0.97848,1.39844 -0.98052,1.39844 -0.0189,6.18164 -0.0189,6.18164 -5.79882,0.86914 -5.79877,0.86914 -6.65821,2.53125 -6.6582,2.5293 -16.9629,3.55664 -16.96101,3.55469 -1.59764,0.2795 c -4.37424,26.51249 -6.249939,50.84925 -6.490249,78.88455 l 1.720709,-0.55858 3.04297,-1.12501 c 0,0 1.22491,-5.25139 1.83791,-7.87695 0.613,-2.62572 1.50909,-5.20101 1.83991,-7.87695 0.59978,-4.85307 0.16139,-9.77867 0.24227,-14.668 0.0809,-4.88867 -0.90308,-9.9127 0.24227,-14.66602 0.6918,-2.8711 2.60292,-5.30208 3.90433,-7.95312 l 3.90429,-7.95313 0.54689,1.64063 0.5469,1.64062 c 0,0 -1.41309,4.14444 -2.11918,6.2168 -0.70602,2.07217 -1.75952,4.05707 -2.11722,6.2168 -0.7793,4.70608 0,9.54036 0,14.31054 0,4.77018 0.8668,9.61982 0,14.31059 -0.48491,2.62465 -1.90718,4.9858 -2.86129,7.47851 -0.9541,2.49294 -2.86329,7.47851 -2.86329,7.47851 l 0.52928,0.48632 0.52929,0.48635 c 0,0 5.59381,-0.91544 8.3907,-1.37307 2.79753,-0.45774 5.56373,-1.55558 8.39252,-1.37303 1.8604,0.12019 3.57161,1.07063 5.35748,1.60547 1.78571,0.53481 3.84442,0.51458 5.3574,1.6035 1.9601,1.41071 2.7826,3.94791 4.17381,5.92188 1.39132,1.97397 2.03002,4.81006 4.17381,5.92188 0.5317,0.2759 1.198,0 1.7969,0 0.59898,0 1.21451,0.13984 1.7969,0 1.90159,-0.45698 3.48439,-1.77732 5.22648,-2.666 1.74221,-0.88868 3.325,-2.20906 5.2266,-2.66605 0.67801,-0.16289 1.39453,0 2.09182,0 0.6972,0 1.4135,-0.16138 2.09181,0 2.9435,0.70069 5.4025,2.72633 8.1035,4.08987 2.7013,1.36369 5.12447,3.56081 8.1035,4.09179 2.92599,0.5215 5.90498,-0.68096 8.85747,-1.02149 2.9531303,-0.34054 5.8878203,-0.93793 8.8593303,-1.02149 1.7797,-0.0499 3.55468005,0.20825 5.33204,0.31256 1.77796,0.10432 3.61682,-0.16025 5.33397,0.31257 1.82536,0.50264 3.3607897,1.74452 5.0410197,2.61717 1.68046,0.87277 5.04102,2.61914 5.04102,2.61914 h 0.31824 0.31823 l -0.40626,-10.33399 -0.40819,-10.33398 -1.30862,-5.68554 -1.31051,-5.68555 1.957,-3.78319 1.95511,-3.78516 8.26364,-0.86328 8.26367,-0.86331 h 8.45314 8.45314 l 1.94921,-4.66601 1.95115,-4.66797 h 11.23831 11.24024 l 1.65233,3.99023 1.65234,3.99024 -0.83203,3.67579 -0.83202,3.67775 -0.75976,11.33397 c 0,0 -2.88314,8.19912 -0.75784,11.33204 1.82945,2.69688 6.20311,2.00001 9.30471,3 3.10155,0.99999 6.08542,2.49385 9.30467,3 1.80272,0.28347 3.649731,0 5.474601,0 1.82423,0 3.77296,0.66244 5.47265,0 3.33101,-1.29827 5.26446,-4.8384 7.89649,-7.25779 2.63233,-2.41984 4.96097,-5.21839 7.89649,-7.25979 1.56862,-1.09085 3.40358,-1.73711 5.10546,-2.60545 1.70241,-0.86862 3.27859,-2.05036 5.10743,-2.6055 2.35052,-0.71365 4.87891,-0.57683 7.31837,-0.86521 2.44014,-0.28837 4.87151,-1.06707 7.3203,-0.86524 2.30559,0.19011 4.44394,1.28806 6.66603,1.93164 2.22191,0.64354 4.46706,1.21141 6.66599,1.92967 4.10782,1.34181 8.11983,2.96096 12.17972,4.44144 4.05989,1.48048 7.85926,4.53475 12.17968,4.4414 2.7422,-0.0593 5.0677,-2.10025 7.60154,-3.15039 2.53387,-1.05014 4.88753,-2.75388 7.60157,-3.15039 2.42403,-0.35414 4.87373,0.50219 7.31054,0.75391 2.43689,0.25171 4.96347,0.0537 7.31055,0.75586 2.0058,0.59997 3.71751,1.92696 5.57617,2.89062 1.85811,0.9634 3.86992,1.67562 5.57422,2.89062 2.8955,2.06423 5.15365,4.90103 7.73046,7.35156 2.5768,2.45054 4.37609,6.17114 7.73044,7.35156 2.39917,0.84427 5.06903,-0.42429 7.60354,-0.6367 2.53387,-0.21241 5.13272,-0.0265 7.60154,-0.63673 0.89624,-0.22111 1.7006,-0.71872 2.5508,-1.07815 0.43964,-0.18558 1.54888,-0.42131 2.20606,-0.60503 0.51196,-30.94186 -0.36162,-52.51878 -5.69598,-87.91064 l -1.38693,-0.11126 c -0.59131,-0.046 -1.19119,0.0765 -1.77929,0 -2.71744,-0.35354 -5.29829,-1.40204 -7.94729,-2.10352 -2.64918,-0.70151 -5.29684,-1.40858 -7.94723,-2.10547 -3.33173,-0.87601 -6.66679,-1.73927 -10.00003,-2.60937 -3.33343,-0.87015 -6.58306,-2.17169 -9.99998,-2.61133 -11.90188,-1.53135 -24.05439,-1.15876 -35.99997,-0.0178 -4.89528,0.46774 -9.65631,1.86681 -14.48436,2.80079 -4.82755,0.93387 -9.56916,2.6101 -14.48243,2.80273 -2.51996,0.0988 -5.01169,-0.56798 -7.51759,-0.85155 -2.50519,-0.28351 -5.01763,-0.50863 -7.51563,-0.84961 -3.7903,-0.51741 -7.5546,-1.21001 -11.33201,-1.81447 -3.7779,-0.60452 -7.52954,-1.40699 -11.33401,-1.81249 -4.64712,-0.4953 -9.33332,-0.50261 -13.99997,-0.75391 -4.666661,-0.2513 -9.328141,-0.87481 -14.000021,-0.75391 -5.58455,0.14453 -11.11067,1.17713 -16.66601,1.76564 -5.55598,0.58857 -16.66795,1.76561 -16.66795,1.76561 0,0 3.55609,1.00882 5.33398,1.51367 1.77807,0.50492 3.53907,1.07424 5.33397,1.51564 1.29864,0.31937 2.61849,0.54554 3.92772,0.81835 1.30923,0.27277 2.76393,0.15954 3.92776,0.81836 1.74047,0.98522 2.71484,2.93751 4.07225,4.40626 1.35742,1.46874 2.90438,2.78271 4.07225,4.40625 1.54545,2.14831 2.48686,4.67354 3.81449,6.96289 1.2206,2.10486 3.81445,6.22461 3.81445,6.22461 l -2.41016,-0.46486 -2.4082,-0.46289 c 0,0 -3.60439,-4.56494 -5.40628,-6.84765 -1.80159,-2.2824 -3.12707,-5.03944 -5.40427,-6.84766 -1.42934,-1.135 -3.30338,-1.55339 -4.95507,-2.33008 -1.65166,-0.77668 -3.14412,-2.10246 -4.95508,-2.33007 -1.47462,-0.18535 -2.91927,0.5599 -4.37892,0.83984 -1.45962,0.27995 -2.92154,0.54852 -4.37889,0.83985 -1.33549,0.26694 -2.66672,0.55468 -4.00002,0.83202 l -3.99999,0.83203 c 0,0 2.01245,-1.47907 2.93552,-2.3164 1.04565,-0.9485 2.93363,-3.05469 2.93363,-3.05469 0,0 -5.06778,-2.14961 -7.60157,-3.22461 -2.53327,-1.07475 -5.01793,-2.27204 -7.59961,-3.22461 -5.24682,-1.93592 -10.66658,-3.36618 -16.00003,-5.04883 -5.33321,-1.68258 -10.5939697,-3.61515 -15.9999797,-5.04687 -1.53865,-0.40749 -3.11203,-0.6705 -4.66794995,-1.00585 -1.55539005,-0.33521 -4.66609005,-1.00586 -4.66609005,-1.00586 0,0 4.72127005,3.73714 7.08208,5.60547 2.36122,1.86864 4.41162,4.21773 7.08401,5.60547 2.1341097,1.10824 4.6107197,1.36828 6.9159997,2.05273 2.30604,0.68468 4.68223,1.16685 6.91798,2.05469 2.57204,1.02141 4.94146,2.49335 7.4121,3.74022 2.47144,1.24728 5.26345,1.99903 7.41404,3.74219 0.58934,0.47768 0.94923,1.18359 1.42386,1.7754 0.47459,0.59179 1.15918,1.06444 1.42382,1.77538 1.98369,5.32891 0.41794,11.36459 0.62695,17.04689 0.20901,5.68164 0.62695,17.04491 0.62695,17.04491 l -1.01564,0.62891 -1.01563,0.62696 c 0,0 -0.73595,-6.89451 -1.10351,-10.3418 -0.36737,-3.44659 -1.04678,-6.87416 -1.10154,-10.33984 -0.0302,-1.79187 0.26683,-3.57422 0.4004,-5.36134 0.13342,-1.78645 1.05513,-3.69186 0.40037,-5.35937 -0.51183,-1.30357 -2.05357,-1.90478 -3.08009,-2.85742 -1.02622,-0.95231 -1.93622,-2.0474 -3.07813,-2.85743 -2.00851,-1.42482 -4.35552,-2.29935 -6.53317,-3.44922 -2.17716,-1.14961 -4.14153,-2.85694 -6.53125,-3.44921 -0.98646,-0.24446 -2.03256,0 -3.04884,0 -1.01563,0 -2.04797,0.18353 -3.04686,0 -1.09886,-0.20191 -2.08849,-0.79445 -3.13281,-1.19141 -1.0435697,-0.39665 -2.1927397,-0.5843 -3.1308897,-1.18946 -2.69911,-1.741 -4.55501,-4.52962 -6.83201995,-6.79491 -2.27698005,-2.2653 -6.83006005,-6.79687 -6.83006005,-6.79687 l -3.4569903,-1.31446 -3.45713,-1.31446 -0.0189,-6.36523 -0.0151,-6.36719 -9.33399,-5.82031 v -3.15429 h 1.91021 v -0.81641 h -1.91021 v -2.18164 z m 2.44331,14.15821 1.8692,0.71679 1.86909,0.7168 v 2.52344 2.5254 h -1.77929 -1.77732 l -0.74419,-0.74415 -0.74411,-0.74414 0.65431,-2.49805 z m -5.6386,13.32226 3.7265,1.06836 3.72461,1.06836 5.53909,2.82617 5.5390803,2.82422 0.83592,1.35353 0.83588,1.35155 c 0,0 -1.16398,-0.0314 -1.74606,-0.0469 -0.58201,-0.0155 -1.16803,0.0223 -1.7460303,-0.0469 -2.78608,-0.33331 -5.48708,-1.17684 -8.23049,-1.76563 -2.7442,-0.58894 -5.42589,-1.73658 -8.23242,-1.76757 -3.08897,-0.034 -6.06769,1.16437 -9.10159,1.74609 -3.03379,0.58169 -6.11781,0.9444 -9.10159,1.74414 -2.68411,0.71946 -5.24992,1.82451 -7.87499,2.73633 -2.62492,0.91174 -5.1349,2.27221 -7.87502,2.73437 -0.95838,0.16165 -1.944,0 -2.91599,0 -0.97201,0 -1.9573,-0.16025 -2.91601,0 -2.69511,0.4505 -5.16809,1.77696 -7.75189,2.66602 -2.5835,0.88893 -5.05228,2.2358 -7.75,2.66797 -1.57712,0.25263 -3.19411,-0.0441 -4.79112,-0.0664 -1.597,-0.0223 -4.791,-0.0664 -4.791,-0.0664 l 8.77542,-4.50585 8.77538,-4.50586 7.89064,-1.9668 7.89067,-1.96875 6.34571,-0.87695 6.34571,-0.87696 9.29878,-3.16406 z m 223.001921,11.6543 c 3.2688,-0.0572 6.55077,0.17186 9.82226,0.17186 4.36199,3e-5 13.08593,0 13.08593,0 l -1.47655,1.47657 -1.47851,1.47656 c 0,0 -9.72918,0.72003 -14.59376,1.08008 -4.8646,0.36 -9.79578,0.20073 -14.59374,1.08007 -2.42956,0.4453 -4.73575,1.40604 -7.10351,2.10938 -2.36856,0.70357 -4.65978,1.75963 -7.10548,2.11133 -2.22969,0.32062 -4.50523,-0.0147 -6.75783,-0.0215 -2.2526,-0.007 -6.75779,-0.0197 -6.75779,-0.0197 l -1.77343,-1.125 -1.77343,-1.12304 c 0,-2e-5 12.41401,-2.34928 18.62109,-3.52344 6.207,-1.17415 12.33157,-2.93204 18.62109,-3.52149 1.08574,-0.10174 2.17406,-0.1528 3.26366,-0.17185 z m -91.04297,0.53711 c 0.38801,-0.0117 0.77711,-0.0102 1.16603,0.004 4.43716,0.16264 8.73653,1.59802 13.12497,2.27344 4.36385,0.67162 13.12698,1.76758 13.12698,1.76758 l 1.26561,1.12891 1.26758,1.12695 c 0,0 -5.73441,-0.1598 -8.60156,-0.24023 -2.86654,-0.0804 -5.73445,-0.12207 -8.5996,-0.24219 -4.53819,-0.19026 -9.07033,-0.50489 -13.60546,-0.75782 -4.535211,-0.25292 -13.605471,-0.75976 -13.605471,-0.75976 l -1.48048,-1.48438 -1.48048,-1.48632 c 0,0 6.20016,-0.18954 9.29299,-0.41016 2.71722,-0.19381 5.412961,-0.83853 8.128891,-0.91992 z m -137.070351,0.96875 h 0.002 1.99997 2.00001 c 0,0 -1.83719,2.58077 -2.75588,3.87109 -0.91922,1.29106 -2.2752,2.36343 -2.7578,3.87305 -0.26344,0.82415 0,1.73047 0,2.5957 0,0.86523 -0.14438,1.7426 0,2.5957 0.25133,1.48463 0.99069,2.84382 1.48637,4.26563 0.49591,1.42259 1.82521,2.7992 1.48823,4.26758 -0.079,0.34413 -0.5003,0.49838 -0.75001,0.74804 -0.24983,0.24968 -0.74801,0.75 -0.74801,0.75 0,0 -1.82298,-2.98952 -2.73441,-4.48437 -0.91087,-1.49408 -2.25778,-2.79816 -2.73237,-4.48242 -0.28271,-1.00388 -0.004,-2.08594 -0.008,-3.12891 -0.002,-1.04232 -0.32088,-2.13393 -0.004,-3.12695 0.48162,-1.50991 1.83859,-2.58199 2.75781,-3.87305 0.91869,-1.29032 2.7558,-3.87109 2.7558,-3.87109 z m 251.964881,6.36523 0.60938,0.60938 0.60937,0.60937 c 0,0 -1.34408,3.80599 -2.01562,5.70899 -0.67155,1.90299 -1.56919,3.11248 -2.0137,5.70898 -0.44451,2.59651 0,6.50098 0,9.75195 v 9.75391 l -1.22653,0.75781 -1.22464,0.75782 c 0,0 -0.60941,-5.6849 -0.91404,-8.52734 -0.30463,-2.84246 -1.0286,-6.4402 -0.91408,-8.52735 0.11452,-2.08716 0.5681,-2.58236 0.85156,-3.87305 0.28347,-1.29069 0.28233,-2.45587 0.84964,-3.87109 0.56742,-1.41521 1.79717,-2.95313 2.6953,-4.42969 0.89809,-1.47656 2.69336,-4.42969 2.69336,-4.42969 z m -72.14452,0.14257 v 5.34961 c 0,1.7832 -0.37855,3.60705 0,5.34961 0.26419,1.21595 1.0328,2.2642 1.54882,3.39648 0.5159,1.13204 0.86415,2.35652 1.54688,3.39649 0.90361,1.37641 2.45103,2.26164 3.31057,3.66601 0.68262,1.11535 1.12172,2.38754 1.39646,3.66602 0.95149,4.42773 0.53778,9.04167 0.80662,13.5625 l 0.80667,13.56251 -1.37307,0.8496 -1.37499,0.84964 c 0,0 -0.0302,-5.16279 -0.0469,-7.74417 -0.0151,-2.58204 0.23622,-5.17959 -0.0469,-7.7461 -0.29934,-2.71229 -1.1579,-5.33326 -1.73636,-8 -0.57845,-2.6666 -0.81384,-5.43134 -1.73434,-8 -0.70972,-1.98039 -1.92322,-3.74219 -2.88477,-5.61328 -0.96158,-1.87109 -2.39009,-3.56854 -2.8848,-5.61328 -0.36397,-1.50414 0,-3.09505 0,-4.64258 v -4.64062 l 1.33406,-0.82422 z m -206.666081,0.15821 h 1.33403 1.33209 v 3.38086 c 0,1.12631 -0.32202,2.29966 0,3.37891 0.39609,1.32695 1.51839,2.31625 2.27728,3.47461 0.7587,1.15805 1.87801,2.14843 2.27543,3.47461 2.85278,9.51924 0.0506,19.875 0.0763,29.8125 0.0265,9.93751 0.076,29.8125 0.076,29.8125 h -0.26343 -0.26192 l -0.69139,-2.33397 -0.69139,-2.33401 c 0,0 -1.03741,-11.07553 -1.5566,-16.61326 -0.51923,-5.53848 -1.49711,-11.05286 -1.5586,-16.61525 -0.034,-2.96506 0.42278,-5.9154 0.63477,-8.87304 0.21203,-2.95771 1.27631,-5.97755 0.6367,-8.87305 -0.26154,-1.1835 -1.17589,-2.11973 -1.76368,-3.17969 -0.5873,-1.05918 -1.45361,-2.00645 -1.76171,-3.17773 -0.48068,-1.82722 -0.0302,-3.77865 -0.0469,-5.66797 -0.0151,-1.88868 -0.0469,-5.66602 -0.0469,-5.66602 z m 168.455141,9.25586 1.02735,1.03907 c 0,0 0.78527,0.61641 1.02735,1.03906 1.04114,1.81775 1.07947,4.04816 1.61911,6.07226 0.53979,2.02472 1.61461,3.97879 1.61915,6.07422 0.008,2.73106 -1.38448,5.28376 -2.07617,7.92578 -0.69177,2.64249 -2.07421,7.92774 -2.07421,7.92774 l -0.27552,-1.33399 -0.27553,-1.33398 c 0,0 -1.03287,-3.08443 -0.91211,-4.66406 0.0968,-1.26399 0.93218,-2.36173 1.28908,-3.57813 0.51379,-1.75099 1.17589,-3.51172 1.22264,-5.33594 0.0616,-2.40492 -0.55816,-4.80528 -1.25,-7.10937 -0.48979,-1.63124 -2.10384,-2.98578 -2.0332,-4.6875 0.0302,-0.76948 1.09179,-2.03516 1.09179,-2.03516 z m -139.507811,12.07813 h 0.92768 0.9278 c -1.1e-4,0 1.2655,3.03001 1.89842,4.54492 0.6333,1.51569 1.6947,2.91713 1.90039,4.54687 0.44458,3.52289 -1.02509,7.0273 -1.5371,10.54102 -0.51209,3.51362 -1.56692,6.99041 -1.53521,10.54102 0.0435,4.8469 1.5687,9.56648 2.35359,14.34962 0.78482,4.78326 2.3554,14.34958 2.3554,14.34958 l -0.69917,0.69729 -0.69733,0.69728 -1.47458,-5.80082 c 0,0 -0.17537,-3.89367 -0.76169,-5.80078 -0.80772,-2.62673 -1.8712,-5.1679 -2.8066,-7.75192 -0.9357,-2.5846 -2.7021,-5.00716 -2.80671,-7.75393 -0.10243,-2.68407 1.43879,-5.17576 2.15818,-7.76367 0.7194,-2.58789 1.91932,-5.0883 2.15823,-7.76367 0.26267,-2.93986 -0.54781,-5.87763 -0.8222,-8.81641 -0.2744,-2.93883 -1.5391,-8.8164 -1.5391,-8.8164 z m 263.046861,17.17187 1.43357,0.88477 1.43165,0.88476 c 0,0 -0.25172,6.79684 -0.37682,10.19533 -0.1251,3.39844 -0.86959,6.83074 -0.37493,10.19531 0.35755,2.43292 1.58725,4.65494 2.38088,6.98241 l 2.38087,6.98242 -0.50978,2.35158 -0.50974,2.35155 -2.95314,-4.66798 -2.19337,-4.66602 c 0,0 -0.53669,-2.05327 -0.80466,-3.08005 -0.26797,-1.02724 -0.73814,-2.02239 -0.80277,-3.08205 -0.10885,-1.78991 0.43555,-3.56066 0.71486,-5.33201 0.28119,-1.78496 1.05713,-3.52925 0.9668,-5.33401 -0.0695,-1.38879 -0.76694,-2.67318 -1.15041,-4.00974 -0.38347,-1.33664 -1.20896,-2.6205 -1.15038,-4.00978 0.0499,-1.18379 1.00554,-2.16595 1.26369,-3.32227 0.24226,-1.08455 0.25398,-3.32422 0.25398,-3.32422 z m -132.19138,6.58008 2.09957,4.05665 2.09768,4.05857 0.034,4.39846 0.0302,4.4004 1.34766,5.84178 1.34767,5.84376 -0.67578,0.67578 -0.67578,0.67578 -1.32227,-3.47656 -1.3203,-3.47464 -2.18751,-10.79489 -2.187521,-10.79298 0.707041,-0.70703 z m -43.136731,1.97852 -1.38478,0.50195 -1.38671,0.50391 -0.31634,4.14843 -0.31446,4.15041 -0.71093,1.14841 -0.71093,1.14845 h -15.25391 -15.43162 l 0.008,-5.02148 -0.78516,-0.2521 -1.7207,3.14843 -0.0525,6.44337 1.37892,3.21483 0.0151,4.29101 -0.22639,12.94337 0.92969,4.9629 0.93161,4.96093 c 0,0 2.15758,0.54149 3.23633,0.81248 1.0788,0.27099 2.12417,0.82764 3.23634,0.81253 2.03342,-0.0265 3.91669,-1.09637 5.87501,-1.64455 1.95832,-0.54819 3.88067,-2.0423 5.87497,-1.64455 1.49088,0.29745 2.38934,1.8802 3.58402,2.82032 1.19467,0.94012 2.14749,2.3229 3.58397,2.82032 0.30501,0.10583 0.64581,0 0.96873,0 0.3224,0 0.65874,0.0945 0.9668,0 1.99662,-0.6133 3.4568,-2.34542 5.18555,-3.51757 1.72895,-1.17225 3.53556,-2.23725 5.18752,-3.51563 2.05538,-1.59058 3.90217,-3.4337 5.8535,-5.1504 1.95168,-1.71697 5.85548,-5.15037 5.85548,-5.15037 h 1.14451 1.14648 v -15.83984 -15.83985 l -8.33397,-0.62891 z m 8.67969,6.2129 0.66992,2.36523 c 0.12094,1.73911 0.1595,3.55853 0.0431,5.53515 -1.13095,0.47622 -2.38096,0.47618 -3.75001,0 0,0 0.0189,-3.09509 0,-4.64258 -0.0151,-1.13129 0,-3.2129 0,-3.2129 z m -33.30471,9.94529 c 0.26192,2.77694 0.43113,5.03328 0.26759,7.90235 -1.13091,0.47626 -3.16958,1.32824 -3.75001,0 -1.05067,-2.40423 -0.0113,-5.23721 0,-7.85741 z m 13.12502,0.0548 0.66992,2.36523 c 0.12094,1.73915 0.16138,3.5585 0.045,5.53516 -1.13094,0.47622 -2.38095,0.47618 -3.74997,0 0,0 0.0189,-3.09502 0,-4.64258 -0.0151,-1.13125 0,-3.21287 0,-3.21287 z m 20.17969,2.00002 0.66992,2.36523 c 0.12094,1.73914 0.1595,3.55853 0.0431,5.53515 -1.13095,0.47626 -2.38096,0.47622 -3.75001,0 0,0 0.0189,-3.09509 0,-4.64258 -0.0151,-1.13125 0,-3.2129 0,-3.2129 z m 76.007811,3.97266 c -0.29329,-0.0113 -0.58522,-0.0113 -0.875,0.008 -0.38642,0.0227 -0.76875,0.0718 -1.14455,0.17197 -1.06677,0.28346 -1.92586,1.07928 -2.88866,1.61915 -0.96234,0.53956 -1.99691,0.96688 -2.88673,1.61915 -2.25445,1.65259 -4.07569,3.82665 -6.11327,5.74023 -2.03728,1.91323 -5.00148,3.17522 -6.11134,5.74023 -0.25625,0.59275 0,1.29162 0,1.9375 0,0.64581 0.36208,1.40266 0,1.9375 -1.07354,1.58593 -3.55586,1.42341 -5.33397,2.13475 -1.77786,0.7112 -4.26036,0.5472 -5.33398,2.13283 -0.20787,0.30727 0,0.74207 0,1.11329 0,0.37115 -0.18406,0.79087 0,1.11326 0.76759,1.34506 2.66669,1.57546 3.99999,2.36327 1.33334,0.7878 3.2324,1.01828 3.99999,2.3633 0.17953,0.31446 0,0.72385 0,1.08593 0,0.36284 0.2143,0.79537 0,1.0879 -0.48178,0.65779 -1.55463,0.49217 -2.33201,0.73829 -0.77794,0.24605 -1.56778,0.45782 -2.33401,0.73826 -1.67085,0.61172 -3.28376,1.37125 -4.92578,2.05663 -1.64254,0.68572 -3.46473,1.04288 -4.92771,2.05667 -1.14025,0.79018 -1.89974,2.02212 -2.84961,3.03318 -0.94987,1.01106 -2.433911,1.70975 -2.849621,3.03322 -0.30538,0.97244 0.29556,2.01691 0.443381,3.0254 0.14778,1.0091 -0.212031,2.24584 0.44334,3.02733 1.33379,1.59061 3.94012,1.30855 5.91016,1.9629 1.97008,0.65427 5.52276,-0.0764 5.91016,1.96289 0.3171,1.66874 -2.60678,2.17837 -3.91015,3.26756 -1.30341,1.08918 -2.63244,2.14843 -3.91018,3.26759 -1.42254,1.24596 -2.78661,2.55711 -4.17967,3.83595 -1.393401,1.27907 -3.211961,2.21273 -4.179701,3.83789 -0.60416,1.01453 -0.57574,2.29031 -0.86329,3.43555 -0.28724,1.14444 -0.97749,2.25933 -0.86131,3.43359 0.13077,1.32234 1.13971,2.40083 1.70899,3.60154 0.56938,1.20098 0.77699,2.65398 1.70702,3.60351 2.07908,2.12266 5.316441,2.65493 7.974621,3.98242 2.65821,1.32744 5.08131,3.3064 7.97461,3.98245 3.25417,0.76032 6.68356,-0.0265 10.02539,-0.0412 3.34178,-0.0113 6.79147,0.80319 10.02538,-0.0389 1.00392,-0.26154 1.81508,-1.0052 2.72266,-1.5078 0.90754,-0.50261 1.68525,-1.51919 2.72266,-1.50785 2.36659,0.0227 4.09376,2.37638 6.14063,3.56448 2.04688,1.18817 4.13485,2.30808 6.1406,3.56443 1.82597,1.14365 3.57305,2.40873 5.35937,3.6133 1.78594,1.20428 3.86495,2.06015 5.35745,3.61327 0.39983,0.41609 0.60703,0.9817 0.91014,1.47266 0.3035,0.49145 0.77749,0.91241 0.91015,1.47462 1.1963,5.07537 -0.93717,10.38674 -1.40625,15.58008 -0.46907,5.19337 -0.97644,10.38346 -1.40817,15.58008 -0.26759,3.22016 -0.4879,6.44402 -0.73244,9.66599 -0.24453,3.22269 -0.73436,9.668 -0.73436,9.668 h 11.11914 c 0,0 7.33879,1.4186 10.76364,0 0.336,-0.13909 0.51451,-0.51447 0.77152,-0.77148 0.25701,-0.25701 0.71592,-0.41208 0.77148,-0.77152 0.38192,-2.47109 -1.94597,-4.43879 -3.09767,-6.6582 -1.15169,-2.21942 -2.87951,-4.22495 -3.45509,-6.65821 -1.55297,-6.56492 0.19011,-13.49087 0.28535,-20.23631 0.0949,-6.74607 -2.33521,-14.02038 0.28309,-20.23827 0.56655,-1.34536 2.06007,-2.06884 3.08984,-3.10352 1.03011,-1.03499 1.67565,-2.74152 3.08984,-3.10549 1.9725,-0.50763 3.91019,1.14195 5.86526,1.71292 1.95507,0.57098 3.84695,1.43887 5.86522,1.71288 10.72002,1.45535 23.0065,1.21554 34.666,0.0975 1.94324,-0.54977 4.12168,-2.30291 6,-3.40823 0.33108,-0.56882 0,-1.31641 0,-1.97462 0,-0.65816 0.35111,-1.41804 0,-1.97457 -0.91956,-1.45724 -3.11082,-1.48282 -4.66602,-2.22463 -1.55547,-0.74189 -3.74653,-0.76902 -4.66602,-2.22656 -0.17423,-0.27628 0,-0.65356 0,-0.98048 0,-0.32693 -0.20522,-0.72609 0,-0.98045 0.92799,-1.14936 2.88805,-0.62223 4.33202,-0.93358 1.44473,-0.31181 2.91991,-0.50578 4.33399,-0.93559 1.69803,-0.51613 3.29934,-1.30896 4.94921,-1.96286 1.65025,-0.65404 3.74089,-0.66236 4.95117,-1.96096 0.56164,-0.60242 0.49701,-1.57043 0.74608,-2.35544 0.24907,-0.78463 0.77076,-1.53071 0.74808,-2.35351 -0.0227,-0.74449 -0.53359,-1.39072 -0.8008,-2.08596 -0.26684,-0.69468 -0.29481,-1.53812 -0.80077,-2.08396 -1.16519,-1.2576 -3.09763,-1.47008 -4.64647,-2.20509 -1.54885,-0.73508 -3.89193,-0.66568 -4.64647,-2.20509 -0.54777,-1.11741 0.53393,-2.43103 0.80077,-3.64648 0.26683,-1.21486 1.18873,-2.46278 0.80077,-3.64453 -0.32996,-1.00459 -1.59001,-1.39438 -2.38477,-2.09178 -0.79442,-0.69717 -1.50732,-1.49971 -2.38281,-2.09181 -1.34143,-0.90724 -2.88933,-1.46355 -4.33398,-2.1953 -1.44465,-0.7318 -3.48892,-0.81389 -4.33398,-2.19534 -0.16782,-0.2744 0.003,-0.6432 0.004,-0.96484 0.001,-0.32239 -0.14853,-0.68296 0.004,-0.9668 0.75296,-1.40357 2.64737,-1.77173 3.9707,-2.65818 1.32318,-0.88634 2.95914,-1.42844 3.96873,-2.66019 0.81487,-0.99409 0.98468,-2.37486 1.47659,-3.56247 0.49183,-1.18737 1.50863,-2.27769 1.47458,-3.5625 -0.0453,-1.79739 -1.54163,-3.2487 -2.31247,-4.87306 -0.77083,-1.62437 -0.68651,-4.1057 -2.3125,-4.87306 -0.97489,-0.46008 -2.09118,0.52483 -3.13674,0.78713 -1.04557,0.26229 -2.28673,1.45016 -3.13671,0.78712 -1.39064,-1.08476 0,-3.52739 0,-5.29103 0,-1.76372 0.78221,-3.71025 0,-5.291 -0.85825,-1.73435 -3.07671,-2.34785 -4.61521,-3.5215 -1.53895,-1.174 -2.82871,-2.78136 -4.61722,-3.52146 -1.60834,-0.66698 -3.45052,-0.46209 -5.17576,-0.6934 -1.72464,-0.23093 -3.44398,-0.88119 -5.17383,-0.69335 -2.89337,0.31408 -5.46878,1.99344 -8.20312,2.99025 -2.73377,0.9967 -5.30838,2.67609 -8.20116,2.99025 -1.68419,0.18293 -3.35807,-0.45048 -5.03712,-0.67582 -1.67902,-0.22526 -3.41118,-0.19994 -5.03709,-0.67578 -3.04815,-0.89189 -5.758,-2.68188 -8.63671,-4.02342 -2.87846,-1.34139 -5.65433,-2.92906 -8.63479,-4.02539 -1.7308,-0.63662 -3.55597,-0.9792 -5.33397,-1.46876 -1.778,-0.4896 -3.50547,-1.22952 -5.33401,-1.46872 -1.5422,-0.20183 -3.11074,0.0227 -4.66602,0.0389 -0.87488,0.008 -1.76643,-0.10621 -2.64646,-0.13682 z m -96.007821,7.18749 c 0.26192,2.77693 0.43113,5.03331 0.26759,7.90235 -1.13095,0.47626 -2.38099,0.47618 -3.75001,0 0.0151,-2.62379 -0.0113,-5.23733 0,-7.85741 z m -13.3047,0.0899 c 0.26192,2.77693 0.43113,5.03131 0.26759,7.90038 -1.13091,0.47626 -2.38095,0.47619 -3.75001,0 0.0151,-2.62378 -0.0113,-5.23529 0,-7.85544 z m 4.32227,28.72459 c 0,0 -16.34408,5.26299 -24.5156,7.89456 -8.1715697,2.63146 -16.3954097,5.10388 -24.51372,7.89453 -4.39491,1.51075 -8.72919,3.19257 -13.09368,4.78904 -4.36403,1.59624 -8.84372,2.906 -13.09183,4.78908 -3.16947,1.40492 -6.13799,3.22526 -9.20708,4.83787 -3.06901,1.61265 -6.48412,2.69181 -9.207,4.83791 -7.55339,5.95343 -11.08971,9.51094 -11.16991,17.15232 -0.15609,14.89545 16.38142,19.96354 29.10161,28.10744 3.78308,2.42211 7.93028,4.23084 12,6.13281 4.15669,1.94267 8.44528,3.58972 12.66788,5.38477 4.2221103,1.79482 8.3977303,3.70314 12.66603035,5.38476 3.08011995,1.21346 6.22279995,2.26133 9.33399995,3.39258 3.1108097,1.1311 6.2222697,2.26043 9.3320697,3.39451 6.89143,2.5132 13.77864,5.03766 20.66793,7.55664 6.88875,2.51879 13.80468,4.96429 20.66604,7.55667 6.24759,2.36039 12.44394,4.85424 18.66599,7.28122 6.22261,2.42718 12.53488,4.63601 18.66799,7.28126 4.249631,1.83289 8.360091,3.97304 12.546861,5.94531 10.35285,4.87692 25.35398,8.83854 28.28319,21.82424 1.90473,8.44354 -23.51819,15.69702 -30.83006,17.73045 -3.80338,1.05774 -7.516311,2.43057 -11.333971,3.43555 -4.8449,1.27536 -9.77722,2.19175 -14.66604,3.28709 -4.88924,1.09542 -9.76249,2.26489 -14.66793,3.28517 -6.20308,1.29018 -12.44402,2.39063 -18.66603,3.58594 -6.22201,1.19531 -12.43586,2.43402 -18.66603,3.58594 -10.5459,1.94986 -21.1184497,3.75284 -31.6777297,5.62893 -10.2099103,1.8139 -29.9803903,5.35438 -31.2920003,5.58765 10.89952,15.47728 23.73906,29.9243 35.40760035,38.65988 l 2.22813995,-0.3685 c 0,0 11.9999997,-2.44664 17.9999997,-3.66993 6,-1.22331 12.03001,-2.30777 18,-3.66992 9.60881,-2.19246 19.11066,-4.82951 28.66602,-7.24414 9.55597,-2.41478 19.21111,-4.46653 28.66798,-7.24415 7.421941,-2.17991 14.666691,-4.92321 21.999991,-7.38474 7.33338,-2.46164 14.84322,-4.44915 21.99999,-7.38478 18.10975,-7.4284 47.72315,-18.82745 54,-39.73826 5.42041,-18.05748 -21.18282,-31.09564 -34.21875,-37.89063 -3.16018,-1.64734 -6.31071,-3.321 -9.55272,-4.80079 -3.64528,-1.66387 -7.4101,-3.05224 -11.11525,-4.57811 -3.70435,-1.52557 -7.3567,-3.18421 -11.11328,-4.57617 -16.23988,-6.01747 -32.889301,-10.86592 -49.333991,-16.29884 -16.44465,-5.43292 -32.97845,-10.60301 -49.33394,-16.29883 -6.03451,-2.10146 -11.99993,-4.39612 -18,-6.59377 -5.9999297,-2.1976 -12.11879965,-4.09394 -17.9999697,-6.5918 -4.5475203,-1.93137 -8.8878203,-4.31814 -13.3321303,-6.47656 -4.44438,-2.15864 -9.26888,-3.66603 -13.33398,-6.47459 -3.01312,-2.08173 -6.44799,-4.8305 -8.66601,-8.04299 -4.69761,-6.80371 4.32541,-15.64965 11.13479,-19.23435 5.69534,-2.99818 11.62111,-5.53632 17.4316,-8.30468 5.8113303,-2.76873 12.07423035,-5.94788 17.4336403,-8.30664 5.35937,-2.35877 9.7773297,-3.95705 14.6659997,-5.93556 4.88874,-1.97851 14.66604,-5.93556 14.66604,-5.93556 l 2.52537,-0.91404 2.52344,-0.91601 -0.67578,-0.67578 z m 151.736351,42.70703 c 0.40823,-0.0151 0.80538,0.0401 1.18553,0.21694 0.38891,0.18104 0.45014,0.73062 0.67578,1.09573 0.22564,0.36548 0.74842,0.67203 0.67774,1.09568 -0.41639,2.49831 -3.91797,3.21094 -5.87694,4.8164 -1.959,1.60547 -3.4919,3.96393 -5.87697,4.81641 -0.59222,0.21165 -1.25779,0 -1.8867,0 -0.62892,0 -1.30572,0.24075 -1.88674,0 -0.38703,-0.16025 -0.59237,-0.59233 -0.88865,-0.88865 -0.29631,-0.29631 -0.72843,-0.50169 -0.88868,-0.88868 -0.30803,-0.74347 0,-1.60936 0,-2.41406 0,-0.80469 -0.39042,-1.71042 0,-2.41406 0.57181,-1.03056 1.99983,-1.24766 3,-1.87109 0.99984,-0.62328 1.89423,-1.46245 3,-1.86916 1.57342,-0.5788 3.31635,-0.4938 4.97458,-0.74022 1.24414,-0.18482 2.5663,-0.90467 3.79105,-0.95509 z m -38.90041,1.05468 c 2.38288,0.0378 4.84177,1.45001 7.24804,1.90628 2.96228,0.56167 6.96363,-0.63659 8.88673,1.68551 0.76282,0.92111 0,2.39195 0,3.58791 0,1.19531 0.21808,2.4107 0,3.58594 -0.1372,0.74056 -0.5407,1.40617 -0.81056,2.10935 -0.26986,0.70303 -0.18482,1.68737 -0.80859,2.1094 -0.42062,0.28459 -1.16171,-0.37682 -1.52341,-0.0227 -0.36208,0.35679 -1.03155,0.099 -1.52542,-0.0227 -2.65406,-0.65144 -4.88145,-2.45847 -7.32227,-3.68749 -2.44131,-1.2293 -5.67564,-1.5072 -7.32419,-3.6875 -0.49788,-0.65839 -0.31295,-1.62104 -0.46878,-2.43164 -0.15609,-0.81048 -0.7087,-1.64258 -0.46677,-2.43163 0.17121,-0.55858 0.82533,-0.82696 1.23829,-1.24025 0.41321,-0.41352 0.68152,-1.06787 1.24021,-1.24022 0.54009,-0.16667 1.08684,-0.2313 1.63672,-0.22261 z"
     style="fill:#ffffff;stroke:none;stroke-width:1.17021;stroke-miterlimit:4;stroke-dasharray:none" /></g></g>
     </g>
    </g>
   </g>
  </g>
 </g>
</svg>
