<?xml version="1.0" encoding="UTF-8" standalone="no"?>
<svg
   version="1.2"
   width="149.98999mm"
   height="149.97mm"
   viewBox="0 0 14998.999 14997"
   preserveAspectRatio="xMidYMid"
   fill-rule="evenodd"
   stroke-width="28.222"
   stroke-linejoin="round"
   xml:space="preserve"
   id="svg25"
   sodipodi:docname="FR_ID14e.svg"
   inkscape:version="1.2.2 (b0a8486541, 2022-12-01)"
   xmlns:inkscape="http://www.inkscape.org/namespaces/inkscape"
   xmlns:sodipodi="http://sodipodi.sourceforge.net/DTD/sodipodi-0.dtd"
   xmlns="http://www.w3.org/2000/svg"
   xmlns:svg="http://www.w3.org/2000/svg"
   xmlns:ooo="http://xml.openoffice.org/svg/export"><sodipodi:namedview
   id="namedview25"
   pagecolor="#ffffff"
   bordercolor="#000000"
   borderopacity="0.25"
   inkscape:showpageshadow="2"
   inkscape:pageopacity="0.0"
   inkscape:pagecheckerboard="true"
   inkscape:deskcolor="#d1d1d1"
   inkscape:document-units="mm"
   fit-margin-top="50"
   fit-margin-left="50"
   fit-margin-right="50"
   fit-margin-bottom="50"
   showgrid="false"
   inkscape:zoom="0.28589004"
   inkscape:cx="724.0546"
   inkscape:cy="710.06321"
   inkscape:window-width="1280"
   inkscape:window-height="731"
   inkscape:window-x="0"
   inkscape:window-y="0"
   inkscape:window-maximized="1"
   inkscape:current-layer="svg25" />
 <defs
   class="ClipPathGroup"
   id="defs2">
  <clipPath
   id="presentation_clip_path"
   clipPathUnits="userSpaceOnUse">
   <rect
   x="0"
   y="0"
   width="21001"
   height="29703"
   id="rect1" />
  </clipPath>
  <clipPath
   id="presentation_clip_path_shrink"
   clipPathUnits="userSpaceOnUse">
   <rect
   x="21"
   y="29"
   width="20959"
   height="29644"
   id="rect2" />
  </clipPath>
 </defs>
 <defs
   class="TextShapeIndex"
   id="defs3">
  <g
   ooo:slide="id1"
   ooo:id-list="id3 id4 id5 id6 id7 id8 id9 id10"
   id="g2" />
 </defs>
 <defs
   class="EmbeddedBulletChars"
   id="defs12">
  <g
   id="bullet-char-template-57356"
   transform="matrix(4.8828125e-4,0,0,-4.8828125e-4,0,0)">
   <path
   d="M 580,1141 1163,571 580,0 -4,571 Z"
   id="path3" />
  </g>
  <g
   id="bullet-char-template-57354"
   transform="matrix(4.8828125e-4,0,0,-4.8828125e-4,0,0)">
   <path
   d="M 8,1128 H 1137 V 0 H 8 Z"
   id="path4" />
  </g>
  <g
   id="bullet-char-template-10146"
   transform="matrix(4.8828125e-4,0,0,-4.8828125e-4,0,0)">
   <path
   d="M 174,0 602,739 174,1481 1456,739 Z M 1358,739 309,1346 659,739 Z"
   id="path5" />
  </g>
  <g
   id="bullet-char-template-10132"
   transform="matrix(4.8828125e-4,0,0,-4.8828125e-4,0,0)">
   <path
   d="M 2015,739 1276,0 H 717 l 543,543 H 174 v 393 h 1086 l -543,545 h 557 z"
   id="path6" />
  </g>
  <g
   id="bullet-char-template-10007"
   transform="matrix(4.8828125e-4,0,0,-4.8828125e-4,0,0)">
   <path
   d="m 0,-2 c -7,16 -16,29 -25,39 l 381,530 c -94,256 -141,385 -141,387 0,25 13,38 40,38 9,0 21,-2 34,-5 21,4 42,12 65,25 l 27,-13 111,-251 280,301 64,-25 24,25 c 21,-10 41,-24 62,-43 C 886,937 835,863 770,784 769,783 710,716 594,584 L 774,223 c 0,-27 -21,-55 -63,-84 l 16,-20 C 717,90 699,76 672,76 641,76 570,178 457,381 L 164,-76 c -22,-34 -53,-51 -92,-51 -42,0 -63,17 -64,51 -7,9 -10,24 -10,44 0,9 1,19 2,30 z"
   id="path7" />
  </g>
  <g
   id="bullet-char-template-10004"
   transform="matrix(4.8828125e-4,0,0,-4.8828125e-4,0,0)">
   <path
   d="M 285,-33 C 182,-33 111,30 74,156 52,228 41,333 41,471 c 0,78 14,145 41,201 34,71 87,106 158,106 53,0 88,-31 106,-94 l 23,-176 c 8,-64 28,-97 59,-98 l 735,706 c 11,11 33,17 66,17 42,0 63,-15 63,-46 V 965 c 0,-36 -10,-64 -30,-84 L 442,47 C 390,-6 338,-33 285,-33 Z"
   id="path8" />
  </g>
  <g
   id="bullet-char-template-9679"
   transform="matrix(4.8828125e-4,0,0,-4.8828125e-4,0,0)">
   <path
   d="M 813,0 C 632,0 489,54 383,161 276,268 223,411 223,592 c 0,181 53,324 160,431 106,107 249,161 430,161 179,0 323,-54 432,-161 108,-107 162,-251 162,-431 0,-180 -54,-324 -162,-431 C 1136,54 992,0 813,0 Z"
   id="path9" />
  </g>
  <g
   id="bullet-char-template-8226"
   transform="matrix(4.8828125e-4,0,0,-4.8828125e-4,0,0)">
   <path
   d="m 346,457 c -73,0 -137,26 -191,78 -54,51 -81,114 -81,188 0,73 27,136 81,188 54,52 118,78 191,78 73,0 134,-26 185,-79 51,-51 77,-114 77,-187 0,-75 -25,-137 -76,-188 -50,-52 -112,-78 -186,-78 z"
   id="path10" />
  </g>
  <g
   id="bullet-char-template-8211"
   transform="matrix(4.8828125e-4,0,0,-4.8828125e-4,0,0)">
   <path
   d="M -4,459 H 1135 V 606 H -4 Z"
   id="path11" />
  </g>
  <g
   id="bullet-char-template-61548"
   transform="matrix(4.8828125e-4,0,0,-4.8828125e-4,0,0)">
   <path
   d="m 173,740 c 0,163 58,303 173,419 116,115 255,173 419,173 163,0 302,-58 418,-173 116,-116 174,-256 174,-419 0,-163 -58,-303 -174,-418 C 1067,206 928,148 765,148 601,148 462,206 346,322 231,437 173,577 173,740 Z"
   id="path12" />
  </g>
 </defs>
 <g
   id="g12"
   transform="translate(-2654,-5770)">
  <g
   id="id2"
   class="Master_Slide">
   <g
   id="bg-id2"
   class="Background" />
   <g
   id="bo-id2"
   class="BackgroundObjects" />
  </g>
 </g>
 <g
   class="SlideGroup"
   id="g25"
   transform="translate(-2654,-5770)">
  <g
   id="g24">
   <g
   id="container-id1">
    <g
   id="id1"
   class="Slide"
   clip-path="url(#presentation_clip_path)">
     <g
   class="Page"
   id="g23">
      <g
   class="Group"
   id="g22">
       <g
   class="com.sun.star.drawing.PolyPolygonShape"
   id="g13">
        <g
   id="id3">
         <rect
   class="BoundingBox"
   stroke="none"
   fill="none"
   x="2654"
   y="5770"
   width="14999"
   height="14997"
   id="rect12" />
         <path
   fill="#fefefe"
   stroke="none"
   d="M 17651,20766 V 5771 H 2654 v 14995 z"
   id="path13" />
        </g>
       </g>
       <g
   class="com.sun.star.drawing.PolyPolygonShape"
   id="g14">
        <g
   id="id4">
         <rect
   class="BoundingBox"
   stroke="none"
   fill="none"
   x="3155"
   y="6271"
   width="13998"
   height="13992"
   id="rect13" />
         <path
   fill="#000000"
   stroke="none"
   d="M 3155,6271 V 20262 H 17151 V 6271 Z"
   id="path14" />
        </g>
       </g>
       <g
   class="com.sun.star.drawing.PolyPolygonShape"
   id="g15">
        <g
   id="id5">
         <rect
   class="BoundingBox"
   stroke="none"
   fill="none"
   x="4152"
   y="7269"
   width="12002"
   height="11996"
   id="rect14" />
         <path
   fill="#fefefe"
   stroke="none"
   d="M 4153,7269 V 19264 H 16153 V 7269 Z"
   id="path15" />
        </g>
       </g>
       
       <g
   class="Group"
   id="g21"
   style="display:none">
        <g
   class="com.sun.star.drawing.LineShape"
   id="g17">
         <g
   id="id7">
          <rect
   class="BoundingBox"
   stroke="none"
   fill="none"
   x="2628"
   y="5771"
   width="53"
   height="14994"
   id="rect16" />
          <path
   fill="none"
   stroke="#1b1918"
   stroke-width="51"
   stroke-linejoin="miter"
   d="M 2654,20764 V 5771"
   id="path17" />
         </g>
        </g>
        <g
   class="com.sun.star.drawing.LineShape"
   id="g18">
         <g
   id="id8">
          <rect
   class="BoundingBox"
   stroke="none"
   fill="none"
   x="2654"
   y="20739"
   width="14997"
   height="53"
   id="rect17" />
          <path
   fill="none"
   stroke="#1b1918"
   stroke-width="51"
   stroke-linejoin="miter"
   d="M 17650,20765 H 2654"
   id="path18" />
         </g>
        </g>
        <g
   class="com.sun.star.drawing.LineShape"
   id="g19">
         <g
   id="id9">
          <rect
   class="BoundingBox"
   stroke="none"
   fill="none"
   x="17624"
   y="5771"
   width="53"
   height="14994"
   id="rect18" />
          <path
   fill="none"
   stroke="#1b1918"
   stroke-width="51"
   stroke-linejoin="miter"
   d="M 17650,5771 V 20764"
   id="path19" />
         </g>
        </g>
        <g
   class="com.sun.star.drawing.LineShape"
   id="g20">
         <g
   id="id10">
          <rect
   class="BoundingBox"
   stroke="none"
   fill="none"
   x="2654"
   y="5745"
   width="14997"
   height="53"
   id="rect19" />
          <path
   fill="none"
   stroke="#1b1918"
   stroke-width="51"
   stroke-linejoin="miter"
   d="M 2654,5771 H 17650"
   id="path20" />
         </g>
        </g>
       </g>
      </g><path
   style="fill:#000000;stroke-width:30.0548"
   d="m 9939.6137,8969.9827 c -358.8713,0.6694 -716.6994,53.7861 -1060.3802,167.9927 -522.4582,218.5323 -1046.6663,519.322 -1329.1516,1031.9286 -203.6895,352.813 -378.5561,743.685 -380.9788,1157.402 -46.2169,432.738 108.0635,857.771 191.5683,1278.722 94.4941,176.434 26.9571,300.462 -97.3423,199.639 l 5.1171,-6.312 c -25.1378,-22.851 -50.2259,-45.72 -75.3645,-68.572 l -0.053,-0.05 c -75.4602,-68.595 -150.8747,-137.191 -226.3344,-205.794 -72.7226,-66.11 -130.4705,-85.23 -120.7593,-182.218 9.8801,-98.745 33.9392,-204.792 22.9378,-303.856 -23.3418,-210.082 -203.5135,-304.945 -355.0047,-431.168 l -325.5153,-271.25 c -78.2822,-65.238 -80.188,-12.047 -147.4523,64.176 -85.4001,96.786 -71.3755,82.836 -166.5533,1.762 -105.9625,-90.273 -211.8807,-180.578 -317.8427,-270.849 -16.0586,-13.682 -185.0178,-168.384 -194.446,-158.722 -71.3496,73.175 -142.6926,146.365 -214.0261,219.54 128.0667,116.429 256.2071,232.824 384.2569,349.251 l 161.358,146.654 c 18.0846,16.443 -57.7662,117.513 -71.1287,140.419 -193.5049,-171.167 -387.0349,-342.382 -580.5393,-513.566 -33.8086,39.434 -219.5696,216.534 -186.2145,248.551 110.4505,106.046 220.8986,212.053 331.3491,318.082 34.1759,32.804 228.8744,179.092 199.7208,221.859 -48.3421,70.898 -194.2475,193.89 -117.0033,259.9 187.2255,159.998 374.4532,320.002 561.6784,480 140.4059,119.977 350.6163,79.2 522.1174,79.2 87.1919,0 125.0966,49.79 194.2867,103.977 76.2868,59.752 152.6038,119.503 228.8903,179.26 234.338,200.012 471.1242,413.632 799.4415,343.337 559.1296,-82.578 474.4511,-750.519 338.1422,-1145.175 -142.9324,-503.215 -229.8401,-1064.851 13.666,-1552.768 201.5755,-422.547 513.7359,-825.586 935.7845,-1044.636 478.9037,-205.0693 1014.2717,-298.5839 1525.6746,-167.272 658.525,92.8593 1189.672,536.305 1697.583,931.229 451.765,428.513 991.952,743.135 1560.12,990.29 307.599,165.599 661.852,307.054 866.973,602.677 163.138,317.313 -26.995,602.002 -301.458,752.288 l -0.299,-0.381 c -189.747,81.323 -368.003,112.6 -556.804,124.435 a 829.3283,829.3283 0 0 0 -764.676,-510.289 829.3283,829.3283 0 0 0 -766.114,513.407 H 9880.4915 a 829.3283,829.3283 0 0 0 -766.4337,-513.407 829.3283,829.3283 0 0 0 -829.3314,829.331 829.3283,829.3283 0 0 0 829.3314,829.331 829.3283,829.3283 0 0 0 774.9048,-534.506 h 2227.7734 a 829.3283,829.3283 0 0 0 774.185,534.506 829.3283,829.3283 0 0 0 774.107,-534.426 c 44.465,-3.224 88.416,-7.213 131.948,-12.068 30.412,11.796 76.798,7.285 142.497,-19.261 179.429,-27.577 367.294,-77.973 544.096,-153.367 15.925,-6.607 31.813,-13.348 47.792,-20.379 l -0.299,-0.64 c 349.957,-160.207 648.232,-422.252 736.863,-806.953 43.03,-258.686 32.998,-541.887 -99.74,-774.586 -117.847,-319.487 -429.583,-495.548 -660.219,-725.114 -798.694,-647.467 -1690.695,-1171.4431 -2591.566,-1662.332 -602.319,-320.4834 -1291.416,-510.3746 -1976.5834,-509.171 h -0.053 -0.053 z m -825.5749,4032.1293 a 356.81447,356.81447 0 0 1 356.8427,356.842 356.81447,356.81447 0 0 1 -356.8427,356.845 356.81447,356.81447 0 0 1 -356.7637,-356.845 356.81447,356.81447 0 0 1 356.7637,-356.842 z m 3776.8632,0 a 356.81447,356.81447 0 0 1 356.843,356.842 356.81447,356.81447 0 0 1 -356.843,356.845 356.81447,356.81447 0 0 1 -356.842,-356.845 356.81447,356.81447 0 0 1 356.842,-356.842 z"
   id="path4251"
   inkscape:connector-curvature="0" /><g
   aria-label=" GPL"
   transform="matrix(66.424312,0,0,66.424312,42129.595,24684.393)"
   id="text1130"
   style="font-style:normal;font-weight:normal;font-size:40px;line-height:1.25;font-family:sans-serif;letter-spacing:0.897837px;white-space:pre;shape-inside:url(#rect1132);fill:#000000;fill-opacity:1;stroke:none"><path
     d="m -486.31641,-132.54179 q 5.60547,0.58594 7.96875,7.44141 l -5.07812,1.32812 q -1.36719,-3.00781 -3.125,-3.61328 -2.28516,-0.85938 -4.41406,2.40234 -1.32813,2.1875 -1.64063,6.38672 -0.0586,4.62891 1.44531,7.1875 1.52344,2.5586 3.57422,2.85156 3.45703,-0.0586 4.88282,-5.21484 h -4.62891 v -5.21484 h 10.19531 v 0.23437 q 0.0195,0.46875 0.0195,0.95703 0,6.81641 -3.26172,11.05469 -2.1875,3.00781 -6.40625,3.35938 h -0.42968 q -9.375,0 -10.58594,-13.32032 -0.0195,-0.39062 -0.0195,-0.80078 0,-6.85547 3.10547,-11.48437 1.83593,-2.34375 3.96484,-3.02735 1.67969,-0.54687 3.51563,-0.54687 0.44921,0 0.91796,0.0195 z"
     style="letter-spacing:6.73377px;fill:#000000"
     id="path1149" /><path
     d="m -457.23889,-132.19023 q 2.5,0.27344 4.41407,1.79688 1.93359,1.52343 2.77343,3.4375 1.05469,2.05078 1.05469,4.39453 0,1.09375 -0.0195,1.42578 -0.15625,2.69531 -1.11328,4.49219 -0.95703,1.79687 -2.08984,2.7539 -2.46094,2.2461 -5.17579,2.28516 h -5.42968 v 8.02734 h -5.35157 v -28.61328 z m -5.50781,14.88281 h 4.41406 q 1.01563,-0.11718 1.67969,-0.50781 1.79688,-1.07422 2.14844,-3.73047 0.0586,-2.40234 -0.97656,-3.65234 -1.03516,-1.25 -2.75391,-1.42578 h -4.51172 z"
     style="letter-spacing:6.73377px;fill:#000000"
     id="path1151" /><path
     d="m -434.41137,-132.19023 0.0195,23.55469 h 11.07421 l -0.0195,5.11719 h -16.48437 v -28.67188 z"
     style="letter-spacing:6.73377px;fill:#000000"
     id="path1153" /></g><g
   aria-label=" +"
   transform="matrix(97.244411,0,0,89.140711,54502.989,27371.244)"
   id="text1142"
   style="font-style:normal;font-weight:normal;font-size:40px;line-height:1.25;font-family:sans-serif;letter-spacing:0.897837px;white-space:pre;shape-inside:url(#rect1144);fill:#000000;fill-opacity:1;stroke:none"><path
     d="m -489.63672,-127.58085 h 3.59375 v 7.4414 h 7.20703 v 3.47657 h -7.20703 v 7.48046 h -3.59375 v -7.48046 h -7.24609 v -3.47657 h 7.24609 z"
     style="letter-spacing:6.73377px;fill:#000000"
     id="path1146" /></g>
     </g>
    </g>
   </g>
  </g>
 </g>
</svg>
