<?xml version="1.0" encoding="UTF-8" standalone="no"?>
<svg
   version="1.2"
   width="149.98999mm"
   height="149.97mm"
   viewBox="0 0 14998.999 14997"
   preserveAspectRatio="xMidYMid"
   fill-rule="evenodd"
   stroke-width="28.222"
   stroke-linejoin="round"
   xml:space="preserve"
   id="svg25"
   sodipodi:docname="ID15e.svg"
   inkscape:version="1.2.2 (b0a8486541, 2022-12-01)"
   xmlns:inkscape="http://www.inkscape.org/namespaces/inkscape"
   xmlns:sodipodi="http://sodipodi.sourceforge.net/DTD/sodipodi-0.dtd"
   xmlns="http://www.w3.org/2000/svg"
   xmlns:svg="http://www.w3.org/2000/svg"
   xmlns:ooo="http://xml.openoffice.org/svg/export"><sodipodi:namedview
   id="namedview25"
   pagecolor="#ffffff"
   bordercolor="#000000"
   borderopacity="0.25"
   inkscape:showpageshadow="2"
   inkscape:pageopacity="0.0"
   inkscape:pagecheckerboard="true"
   inkscape:deskcolor="#d1d1d1"
   inkscape:document-units="mm"
   fit-margin-top="50"
   fit-margin-left="50"
   fit-margin-right="50"
   fit-margin-bottom="50"
   showgrid="false"
   inkscape:zoom="15.960823"
   inkscape:cx="556.98883"
   inkscape:cy="11.027001"
   inkscape:window-width="1280"
   inkscape:window-height="731"
   inkscape:window-x="0"
   inkscape:window-y="0"
   inkscape:window-maximized="1"
   inkscape:current-layer="svg25" />
 <defs
   class="ClipPathGroup"
   id="defs2">
  <clipPath
   id="presentation_clip_path"
   clipPathUnits="userSpaceOnUse">
   <rect
   x="0"
   y="0"
   width="21001"
   height="29703"
   id="rect1" />
  </clipPath>
  <clipPath
   id="presentation_clip_path_shrink"
   clipPathUnits="userSpaceOnUse">
   <rect
   x="21"
   y="29"
   width="20959"
   height="29644"
   id="rect2" />
  </clipPath>
 </defs>
 <defs
   class="TextShapeIndex"
   id="defs3">
  <g
   ooo:slide="id1"
   ooo:id-list="id3 id4 id5 id6 id7 id8 id9 id10"
   id="g2" />
 </defs>
 <defs
   class="EmbeddedBulletChars"
   id="defs12">
  <g
   id="bullet-char-template-57356"
   transform="matrix(4.8828125e-4,0,0,-4.8828125e-4,0,0)">
   <path
   d="M 580,1141 1163,571 580,0 -4,571 Z"
   id="path3" />
  </g>
  <g
   id="bullet-char-template-57354"
   transform="matrix(4.8828125e-4,0,0,-4.8828125e-4,0,0)">
   <path
   d="M 8,1128 H 1137 V 0 H 8 Z"
   id="path4" />
  </g>
  <g
   id="bullet-char-template-10146"
   transform="matrix(4.8828125e-4,0,0,-4.8828125e-4,0,0)">
   <path
   d="M 174,0 602,739 174,1481 1456,739 Z M 1358,739 309,1346 659,739 Z"
   id="path5" />
  </g>
  <g
   id="bullet-char-template-10132"
   transform="matrix(4.8828125e-4,0,0,-4.8828125e-4,0,0)">
   <path
   d="M 2015,739 1276,0 H 717 l 543,543 H 174 v 393 h 1086 l -543,545 h 557 z"
   id="path6" />
  </g>
  <g
   id="bullet-char-template-10007"
   transform="matrix(4.8828125e-4,0,0,-4.8828125e-4,0,0)">
   <path
   d="m 0,-2 c -7,16 -16,29 -25,39 l 381,530 c -94,256 -141,385 -141,387 0,25 13,38 40,38 9,0 21,-2 34,-5 21,4 42,12 65,25 l 27,-13 111,-251 280,301 64,-25 24,25 c 21,-10 41,-24 62,-43 C 886,937 835,863 770,784 769,783 710,716 594,584 L 774,223 c 0,-27 -21,-55 -63,-84 l 16,-20 C 717,90 699,76 672,76 641,76 570,178 457,381 L 164,-76 c -22,-34 -53,-51 -92,-51 -42,0 -63,17 -64,51 -7,9 -10,24 -10,44 0,9 1,19 2,30 z"
   id="path7" />
  </g>
  <g
   id="bullet-char-template-10004"
   transform="matrix(4.8828125e-4,0,0,-4.8828125e-4,0,0)">
   <path
   d="M 285,-33 C 182,-33 111,30 74,156 52,228 41,333 41,471 c 0,78 14,145 41,201 34,71 87,106 158,106 53,0 88,-31 106,-94 l 23,-176 c 8,-64 28,-97 59,-98 l 735,706 c 11,11 33,17 66,17 42,0 63,-15 63,-46 V 965 c 0,-36 -10,-64 -30,-84 L 442,47 C 390,-6 338,-33 285,-33 Z"
   id="path8" />
  </g>
  <g
   id="bullet-char-template-9679"
   transform="matrix(4.8828125e-4,0,0,-4.8828125e-4,0,0)">
   <path
   d="M 813,0 C 632,0 489,54 383,161 276,268 223,411 223,592 c 0,181 53,324 160,431 106,107 249,161 430,161 179,0 323,-54 432,-161 108,-107 162,-251 162,-431 0,-180 -54,-324 -162,-431 C 1136,54 992,0 813,0 Z"
   id="path9" />
  </g>
  <g
   id="bullet-char-template-8226"
   transform="matrix(4.8828125e-4,0,0,-4.8828125e-4,0,0)">
   <path
   d="m 346,457 c -73,0 -137,26 -191,78 -54,51 -81,114 -81,188 0,73 27,136 81,188 54,52 118,78 191,78 73,0 134,-26 185,-79 51,-51 77,-114 77,-187 0,-75 -25,-137 -76,-188 -50,-52 -112,-78 -186,-78 z"
   id="path10" />
  </g>
  <g
   id="bullet-char-template-8211"
   transform="matrix(4.8828125e-4,0,0,-4.8828125e-4,0,0)">
   <path
   d="M -4,459 H 1135 V 606 H -4 Z"
   id="path11" />
  </g>
  <g
   id="bullet-char-template-61548"
   transform="matrix(4.8828125e-4,0,0,-4.8828125e-4,0,0)">
   <path
   d="m 173,740 c 0,163 58,303 173,419 116,115 255,173 419,173 163,0 302,-58 418,-173 116,-116 174,-256 174,-419 0,-163 -58,-303 -174,-418 C 1067,206 928,148 765,148 601,148 462,206 346,322 231,437 173,577 173,740 Z"
   id="path12" />
  </g>
 </defs>
 <g
   id="g12"
   transform="translate(-2654,-5770)">
  <g
   id="id2"
   class="Master_Slide">
   <g
   id="bg-id2"
   class="Background" />
   <g
   id="bo-id2"
   class="BackgroundObjects" />
  </g>
 </g>
 <g
   class="SlideGroup"
   id="g25"
   transform="translate(-2654,-5770)">
  <g
   id="g24">
   <g
   id="container-id1">
    <g
   id="id1"
   class="Slide"
   clip-path="url(#presentation_clip_path)">
     <g
   class="Page"
   id="g23">
      <g
   class="Group"
   id="g22">
       <g
   class="com.sun.star.drawing.PolyPolygonShape"
   id="g13">
        <g
   id="id3">
         <rect
   class="BoundingBox"
   stroke="none"
   fill="none"
   x="2654"
   y="5770"
   width="14999"
   height="14997"
   id="rect12" />
         <path
   fill="#fefefe"
   stroke="none"
   d="M 17651,20766 V 5771 H 2654 v 14995 z"
   id="path13" />
        </g>
       </g>
       <g
   class="com.sun.star.drawing.PolyPolygonShape"
   id="g14">
        <g
   id="id4">
         <rect
   class="BoundingBox"
   stroke="none"
   fill="none"
   x="3155"
   y="6271"
   width="13998"
   height="13992"
   id="rect13" />
         <path
   fill="#826500"
   stroke="none"
   d="M 3155,6271 V 20262 H 17151 V 6271 Z"
   id="path14" />
        </g>
       </g>
       <g
   class="com.sun.star.drawing.PolyPolygonShape"
   id="g15">
        <g
   id="id5">
         <rect
   class="BoundingBox"
   stroke="none"
   fill="none"
   x="4152"
   y="7269"
   width="12002"
   height="11996"
   id="rect14" />
         <path
   fill="#fefefe"
   stroke="none"
   d="M 4153,7269 V 19264 H 16153 V 7269 Z"
   id="path15" />
        </g>
       </g>
       <g
   class="com.sun.star.drawing.PolyPolygonShape"
   id="g16">
        <g
   id="id6">
         <rect
   class="BoundingBox"
   stroke="none"
   fill="none"
   x="4903"
   y="8008"
   width="10500"
   height="10520"
   id="rect15" />
         <path
   fill="#826500"
   stroke="none"
   d="m 8528,13331 790,1413 -1106,1196 -1542,-673 217,-1649 z m 0,0 z m 3259,20 -790,1412 1106,1196 1541,-672 -227,-1649 z m 0,0 z m -810,-1461 -1600,-20 -504,-1552 1314,-997 1333,988 z m 0,0 z m -5156,4346 v 10 l 10,10 49,69 50,59 39,59 49,69 50,60 49,49 40,49 39,50 40,39 39,50 10,19 h 10 l 385,-365 h -10 l -10,-10 -49,-59 -49,-59 -50,-60 -49,-59 -50,-59 -49,-59 -39,-50 -30,-49 -40,-59 -39,-51 v -10 l -10,-10 z m 0,0 z m 3230,-2895 v -19 -10 0 l 10,-20 v -10 0 l 10,-39 10,-40 20,-89 19,-99 40,-88 30,-79 49,-79 49,-79 50,-70 118,-118 79,-59 69,-50 60,-39 59,-30 69,-29 59,-20 79,-30 79,-20 69,-9 h 60 l 19,9 10,10 v 0 l 20,-10 h 10 v 0 l 20,10 h 9 v 0 h 20 10 v 0 h 59 l 20,10 h 30 l 69,10 69,20 59,20 69,19 79,40 79,39 69,50 70,59 69,59 59,59 59,70 50,69 39,59 30,59 29,69 20,69 30,89 20,89 v 40 39 l -10,89 v 109 l -20,108 -20,109 -39,99 -40,79 -39,79 -50,79 -59,69 -59,59 -59,69 -70,50 -69,49 -59,40 -69,39 -59,20 -70,29 -88,20 -89,30 h -89 l -99,10 -39,-10 -50,-10 -108,-20 -109,-29 -99,-40 -79,-39 -79,-40 -69,-49 -79,-50 -59,-59 -69,-69 -50,-69 -59,-69 -30,-60 -29,-59 -40,-69 -19,-69 -20,-79 -20,-69 -10,-79 v -69 l -10,-20 v -20 0 z m 0,0 z m -3625,-98 v -40 -20 -39 -10 0 -40 l 10,-29 v -40 -10 0 l 29,-395 30,-197 40,-188 108,-385 129,-365 148,-336 89,-158 88,-158 198,-307 109,-148 118,-139 247,-276 257,-247 138,-119 148,-118 297,-207 257,-149 257,-138 267,-118 276,-99 316,-89 306,-69 326,-49 158,-20 h 158 l 59,-10 h 60 49 30 10 v 0 l 39,10 h 30 l 39,10 h 10 v 0 h 59 l 60,10 h 118 l 109,9 237,30 276,49 267,70 267,79 266,98 326,148 326,168 307,198 148,118 139,119 276,237 128,128 119,139 118,138 119,138 197,307 158,247 129,267 118,266 109,277 109,365 79,376 39,365 10,375 -30,445 -29,227 -40,217 -49,227 -59,217 -149,425 -158,336 -177,326 -89,158 -109,149 -217,286 -247,277 -257,247 -138,118 -148,109 -297,207 -257,158 -257,129 -276,118 -277,99 -178,59 -187,49 -366,89 -375,40 -188,10 h -177 l -99,-20 h -99 l -99,-10 -98,-10 h -79 l -79,-10 -89,-10 -69,-9 -89,-20 -79,-10 -79,-20 -79,-20 -60,-9 -59,-20 -69,-10 -59,-20 -60,-20 -69,-19 -69,-20 -59,-20 -20,-10 v 0 l -20,-10 h -9 v 0 l -30,89 -20,79 -20,69 -19,50 -30,99 -20,59 -10,30 -9,19 v 10 0 l 19,10 h 10 v 0 l 20,10 v 0 l 178,59 89,30 79,20 88,19 89,20 89,20 89,20 89,9 79,20 89,10 89,10 69,10 69,10 79,10 h 69 l 79,9 h 79 l 79,10 h 79 20 v 0 l 20,10 10,10 v 0 h 39 20 39 10 v 0 h 50 l 29,-10 h 40 19 v 0 l 129,-10 118,-10 129,-9 128,-20 306,-50 306,-79 297,-88 296,-109 365,-168 178,-89 179,-109 346,-227 325,-247 297,-266 286,-287 257,-316 108,-167 109,-168 89,-139 89,-139 148,-296 128,-296 119,-307 118,-404 40,-208 39,-207 30,-208 30,-207 29,-415 -10,-247 -9,-247 -30,-256 -40,-247 -59,-247 -69,-237 -79,-247 -89,-237 -158,-365 -197,-357 -228,-346 -246,-316 -277,-306 -286,-276 -148,-129 -168,-128 -158,-119 -168,-108 -288,-168 -286,-158 -296,-128 -148,-60 -158,-49 -208,-69 -207,-50 -415,-89 -207,-29 -208,-20 -424,-29 h -237 l -247,9 -247,30 -247,49 -247,50 -237,69 -237,79 -237,89 -375,158 -357,197 -345,218 -317,256 -296,267 -276,286 -139,148 -118,158 -237,336 -168,278 -148,286 -138,296 -109,307 -109,345 -39,168 -40,178 -29,168 -30,178 -29,355 v 40 29 40 19 0 40 30 39 20 0 h 88 l 89,10 h 69 60 89 l 59,10 h 39 20 z m 0,0 z m 1442,4119 h 10 l 9,19 80,50 69,59 69,49 69,50 69,49 69,40 59,39 60,40 69,39 60,30 10,10 h 10 l 187,-494 v -10 h -9 l -70,-39 -59,-40 -49,-30 -60,-39 -50,-40 -59,-39 -49,-30 -40,-29 -39,-40 -50,-29 -10,-10 -10,-10 z m 0,0 z m 4089,-2579 -1600,-20 -503,1552 1313,1037 1333,-998 z m 0,0 z m 830,-1481 -770,-1393 1106,-1204 1541,681 -227,1639 z m 0,0 z m -6391,2212 484,-217 -10,-10 v -10 l -39,-69 -30,-69 -29,-79 -30,-60 -20,-69 -29,-79 -20,-49 -20,-59 -20,-60 -19,-59 v -10 -10 l -524,129 10,10 10,19 20,79 19,89 40,79 30,79 29,79 30,69 20,70 29,59 30,59 29,69 v 10 z m 0,0 z m 3132,-2232 810,-1392 -1106,-1205 -1542,681 217,1640 z"
   id="path16" />
        </g>
       </g>
       <g
   class="Group"
   id="g21"
   style="display:none">
        <g
   class="com.sun.star.drawing.LineShape"
   id="g17">
         <g
   id="id7">
          <rect
   class="BoundingBox"
   stroke="none"
   fill="none"
   x="2628"
   y="5771"
   width="53"
   height="14994"
   id="rect16" />
          <path
   fill="none"
   stroke="#1b1918"
   stroke-width="51"
   stroke-linejoin="miter"
   d="M 2654,20764 V 5771"
   id="path17" />
         </g>
        </g>
        <g
   class="com.sun.star.drawing.LineShape"
   id="g18">
         <g
   id="id8">
          <rect
   class="BoundingBox"
   stroke="none"
   fill="none"
   x="2654"
   y="20739"
   width="14997"
   height="53"
   id="rect17" />
          <path
   fill="none"
   stroke="#1b1918"
   stroke-width="51"
   stroke-linejoin="miter"
   d="M 17650,20765 H 2654"
   id="path18" />
         </g>
        </g>
        <g
   class="com.sun.star.drawing.LineShape"
   id="g19">
         <g
   id="id9">
          <rect
   class="BoundingBox"
   stroke="none"
   fill="none"
   x="17624"
   y="5771"
   width="53"
   height="14994"
   id="rect18" />
          <path
   fill="none"
   stroke="#1b1918"
   stroke-width="51"
   stroke-linejoin="miter"
   d="M 17650,5771 V 20764"
   id="path19" />
         </g>
        </g>
        <g
   class="com.sun.star.drawing.LineShape"
   id="g20">
         <g
   id="id10">
          <rect
   class="BoundingBox"
   stroke="none"
   fill="none"
   x="2654"
   y="5745"
   width="14997"
   height="53"
   id="rect19" />
          <path
   fill="none"
   stroke="#1b1918"
   stroke-width="51"
   stroke-linejoin="miter"
   d="M 2654,5771 H 17650"
   id="path20" />
         </g>
        </g>
       </g>
      </g>
     </g>
    </g>
   </g>
  </g>
 </g>
</svg>
