<?xml version="1.0" encoding="UTF-8" standalone="no"?>
<svg
   version="1.2"
   width="150.49001mm"
   height="150.47mm"
   viewBox="0 0 15049.001 15047"
   preserveAspectRatio="xMidYMid"
   fill-rule="evenodd"
   stroke-width="28.222"
   stroke-linejoin="round"
   xml:space="preserve"
   id="svg29"
   sodipodi:docname="ID15a46.svg"
   xmlns:inkscape="http://www.inkscape.org/namespaces/inkscape"
   xmlns:sodipodi="http://sodipodi.sourceforge.net/DTD/sodipodi-0.dtd"
   xmlns="http://www.w3.org/2000/svg"
   xmlns:svg="http://www.w3.org/2000/svg"
   xmlns:ooo="http://xml.openoffice.org/svg/export"><sodipodi:namedview
   id="namedview29"
   pagecolor="#ffffff"
   bordercolor="#000000"
   borderopacity="0.25"
   inkscape:showpageshadow="2"
   inkscape:pageopacity="0.0"
   inkscape:pagecheckerboard="0"
   inkscape:deskcolor="#d1d1d1"
   inkscape:document-units="mm"
   fit-margin-top="50"
   fit-margin-left="50"
   fit-margin-right="50"
   fit-margin-bottom="50" />&#10; <defs
   class="ClipPathGroup"
   id="defs2">&#10;  <clipPath
   id="presentation_clip_path"
   clipPathUnits="userSpaceOnUse">&#10;   <rect
   x="0"
   y="0"
   width="21001"
   height="29703"
   id="rect1" />&#10;  </clipPath>&#10;  <clipPath
   id="presentation_clip_path_shrink"
   clipPathUnits="userSpaceOnUse">&#10;   <rect
   x="21"
   y="29"
   width="20959"
   height="29644"
   id="rect2" />&#10;  </clipPath>&#10; </defs>&#10; <defs
   class="TextShapeIndex"
   id="defs3">&#10;  <g
   ooo:slide="id1"
   ooo:id-list="id3 id4 id5 id6 id7 id8 id9 id10 id11 id12 id13"
   id="g2" />&#10; </defs>&#10; <defs
   class="EmbeddedBulletChars"
   id="defs12">&#10;  <g
   id="bullet-char-template-57356"
   transform="matrix(4.8828125e-4,0,0,-4.8828125e-4,0,0)">&#10;   <path
   d="M 580,1141 1163,571 580,0 -4,571 Z"
   id="path3" />&#10;  </g>&#10;  <g
   id="bullet-char-template-57354"
   transform="matrix(4.8828125e-4,0,0,-4.8828125e-4,0,0)">&#10;   <path
   d="M 8,1128 H 1137 V 0 H 8 Z"
   id="path4" />&#10;  </g>&#10;  <g
   id="bullet-char-template-10146"
   transform="matrix(4.8828125e-4,0,0,-4.8828125e-4,0,0)">&#10;   <path
   d="M 174,0 602,739 174,1481 1456,739 Z M 1358,739 309,1346 659,739 Z"
   id="path5" />&#10;  </g>&#10;  <g
   id="bullet-char-template-10132"
   transform="matrix(4.8828125e-4,0,0,-4.8828125e-4,0,0)">&#10;   <path
   d="M 2015,739 1276,0 H 717 l 543,543 H 174 v 393 h 1086 l -543,545 h 557 z"
   id="path6" />&#10;  </g>&#10;  <g
   id="bullet-char-template-10007"
   transform="matrix(4.8828125e-4,0,0,-4.8828125e-4,0,0)">&#10;   <path
   d="m 0,-2 c -7,16 -16,29 -25,39 l 381,530 c -94,256 -141,385 -141,387 0,25 13,38 40,38 9,0 21,-2 34,-5 21,4 42,12 65,25 l 27,-13 111,-251 280,301 64,-25 24,25 c 21,-10 41,-24 62,-43 C 886,937 835,863 770,784 769,783 710,716 594,584 L 774,223 c 0,-27 -21,-55 -63,-84 l 16,-20 C 717,90 699,76 672,76 641,76 570,178 457,381 L 164,-76 c -22,-34 -53,-51 -92,-51 -42,0 -63,17 -64,51 -7,9 -10,24 -10,44 0,9 1,19 2,30 z"
   id="path7" />&#10;  </g>&#10;  <g
   id="bullet-char-template-10004"
   transform="matrix(4.8828125e-4,0,0,-4.8828125e-4,0,0)">&#10;   <path
   d="M 285,-33 C 182,-33 111,30 74,156 52,228 41,333 41,471 c 0,78 14,145 41,201 34,71 87,106 158,106 53,0 88,-31 106,-94 l 23,-176 c 8,-64 28,-97 59,-98 l 735,706 c 11,11 33,17 66,17 42,0 63,-15 63,-46 V 965 c 0,-36 -10,-64 -30,-84 L 442,47 C 390,-6 338,-33 285,-33 Z"
   id="path8" />&#10;  </g>&#10;  <g
   id="bullet-char-template-9679"
   transform="matrix(4.8828125e-4,0,0,-4.8828125e-4,0,0)">&#10;   <path
   d="M 813,0 C 632,0 489,54 383,161 276,268 223,411 223,592 c 0,181 53,324 160,431 106,107 249,161 430,161 179,0 323,-54 432,-161 108,-107 162,-251 162,-431 0,-180 -54,-324 -162,-431 C 1136,54 992,0 813,0 Z"
   id="path9" />&#10;  </g>&#10;  <g
   id="bullet-char-template-8226"
   transform="matrix(4.8828125e-4,0,0,-4.8828125e-4,0,0)">&#10;   <path
   d="m 346,457 c -73,0 -137,26 -191,78 -54,51 -81,114 -81,188 0,73 27,136 81,188 54,52 118,78 191,78 73,0 134,-26 185,-79 51,-51 77,-114 77,-187 0,-75 -25,-137 -76,-188 -50,-52 -112,-78 -186,-78 z"
   id="path10" />&#10;  </g>&#10;  <g
   id="bullet-char-template-8211"
   transform="matrix(4.8828125e-4,0,0,-4.8828125e-4,0,0)">&#10;   <path
   d="M -4,459 H 1135 V 606 H -4 Z"
   id="path11" />&#10;  </g>&#10;  <g
   id="bullet-char-template-61548"
   transform="matrix(4.8828125e-4,0,0,-4.8828125e-4,0,0)">&#10;   <path
   d="m 173,740 c 0,163 58,303 173,419 116,115 255,173 419,173 163,0 302,-58 418,-173 116,-116 174,-256 174,-419 0,-163 -58,-303 -174,-418 C 1067,206 928,148 765,148 601,148 462,206 346,322 231,437 173,577 173,740 Z"
   id="path12" />&#10;  </g>&#10; </defs>&#10; <g
   id="g12"
   transform="translate(-2628,-5745)">&#10;  <g
   id="id2"
   class="Master_Slide">&#10;   <g
   id="bg-id2"
   class="Background" />&#10;   <g
   id="bo-id2"
   class="BackgroundObjects" />&#10;  </g>&#10; </g>&#10; <g
   class="SlideGroup"
   id="g29"
   transform="translate(-2628,-5745)">&#10;  <g
   id="g28">&#10;   <g
   id="container-id1">&#10;    <g
   id="id1"
   class="Slide"
   clip-path="url(#presentation_clip_path)">&#10;     <g
   class="Page"
   id="g27">&#10;      <g
   class="Group"
   id="g26">&#10;       <g
   class="com.sun.star.drawing.PolyPolygonShape"
   id="g13">&#10;        <g
   id="id3">&#10;         <rect
   class="BoundingBox"
   stroke="none"
   fill="none"
   x="2652"
   y="5770"
   width="15001"
   height="14996"
   id="rect12" />&#10;         <path
   fill="#fefefe"
   stroke="none"
   d="M 2653,5770 V 20765 H 17652 V 5770 Z"
   id="path13" />&#10;        </g>&#10;       </g>&#10;       <g
   class="Group"
   id="g18">&#10;        <g
   class="com.sun.star.drawing.LineShape"
   id="g14">&#10;         <g
   id="id4">&#10;          <rect
   class="BoundingBox"
   stroke="none"
   fill="none"
   x="2628"
   y="5771"
   width="53"
   height="14994"
   id="rect13" />&#10;          <path
   fill="none"
   stroke="#1b1918"
   stroke-width="51"
   stroke-linejoin="miter"
   d="M 2654,20764 V 5771"
   id="path14" />&#10;         </g>&#10;        </g>&#10;        <g
   class="com.sun.star.drawing.LineShape"
   id="g15">&#10;         <g
   id="id5">&#10;          <rect
   class="BoundingBox"
   stroke="none"
   fill="none"
   x="2654"
   y="20739"
   width="14997"
   height="53"
   id="rect14" />&#10;          <path
   fill="none"
   stroke="#1b1918"
   stroke-width="51"
   stroke-linejoin="miter"
   d="M 17650,20765 H 2654"
   id="path15" />&#10;         </g>&#10;        </g>&#10;        <g
   class="com.sun.star.drawing.LineShape"
   id="g16">&#10;         <g
   id="id6">&#10;          <rect
   class="BoundingBox"
   stroke="none"
   fill="none"
   x="17624"
   y="5771"
   width="53"
   height="14994"
   id="rect15" />&#10;          <path
   fill="none"
   stroke="#1b1918"
   stroke-width="51"
   stroke-linejoin="miter"
   d="M 17650,5771 V 20764"
   id="path16" />&#10;         </g>&#10;        </g>&#10;        <g
   class="com.sun.star.drawing.LineShape"
   id="g17">&#10;         <g
   id="id7">&#10;          <rect
   class="BoundingBox"
   stroke="none"
   fill="none"
   x="2654"
   y="5745"
   width="14997"
   height="53"
   id="rect16" />&#10;          <path
   fill="none"
   stroke="#1b1918"
   stroke-width="51"
   stroke-linejoin="miter"
   d="M 2654,5771 H 17650"
   id="path17" />&#10;         </g>&#10;        </g>&#10;       </g>&#10;       <g
   class="com.sun.star.drawing.ClosedBezierShape"
   id="g19">&#10;        <g
   id="id8">&#10;         <rect
   class="BoundingBox"
   stroke="none"
   fill="none"
   x="11747"
   y="6271"
   width="5405"
   height="13995"
   id="rect18" />&#10;         <path
   fill="#826500"
   stroke="none"
   d="m 11747,20265 5404,-2 V 6271 l -5404,2 c 449,279 807,536 1198,993 l 3208,3 v 11996 h -3208 c -322,398 -762,724 -1198,1000 z"
   id="path18" />&#10;        </g>&#10;       </g>&#10;       <g
   class="com.sun.star.drawing.ClosedBezierShape"
   id="g20">&#10;        <g
   id="id9">&#10;         <rect
   class="BoundingBox"
   stroke="none"
   fill="none"
   x="3155"
   y="6270"
   width="5394"
   height="13996"
   id="rect19" />&#10;         <path
   fill="#826500"
   stroke="none"
   d="m 8548,20265 -5393,-2 V 6271 l 5393,2 c -427,252 -843,561 -1199,993 l -3196,3 v 11996 h 3196 c 320,403 775,726 1199,1000 z"
   id="path19" />&#10;        </g>&#10;       </g>&#10;       <g
   class="com.sun.star.drawing.ClosedBezierShape"
   id="g21">&#10;        <g
   id="id10">&#10;         <rect
   class="BoundingBox"
   stroke="none"
   fill="none"
   x="5964"
   y="6263"
   width="8391"
   height="6179"
   id="rect20" />&#10;         <path
   fill="#826500"
   stroke="none"
   d="M 14349,12087 C 14008,8781 12257,6267 10150,6267 8075,6267 6344,8710 5969,11948 l 261,97 61,16 c 109,-26 249,-51 377,-88 l 512,-217 c 95,-39 190,-73 287,-101 h 256 c 92,15 182,39 272,73 152,33 293,65 437,73 113,-15 200,-38 302,-88 226,-146 304,-320 407,-549 40,-84 80,-147 136,-217 v 0 c 23,-26 47,-62 60,-104 12,-38 5,-90 15,-113 54,-117 158,-194 257,-275 v 0 l 543,-216 333,-87 c 71,-34 138,-53 196,-43 v 0 c 51,-12 124,-21 181,0 53,16 99,40 135,72 l 151,144 c 65,31 92,54 151,101 89,121 125,230 181,362 42,126 78,170 181,246 128,143 221,289 317,448 l 90,130 c 61,61 117,112 166,144 l 106,29 c 85,-25 182,-14 271,-14 165,32 243,73 377,173 142,102 289,235 438,376 193,143 161,144 377,58 171,-107 343,-217 546,-291 z"
   id="path20" />&#10;         <path
   fill="none"
   stroke="#a65b45"
   stroke-width="8"
   stroke-linejoin="miter"
   d="M 14349,12087 C 14008,8781 12257,6267 10150,6267 8075,6267 6344,8710 5969,11948 l 261,97 61,16 c 109,-26 249,-51 377,-88 l 512,-217 c 95,-39 190,-73 287,-101 h 256 c 92,15 182,39 272,73 152,33 293,65 437,73 113,-15 200,-38 302,-88 226,-146 304,-320 407,-549 40,-84 80,-147 136,-217 v 0 c 23,-26 47,-62 60,-104 12,-38 5,-90 15,-113 54,-117 158,-194 257,-275 v 0 l 543,-216 333,-87 c 71,-34 138,-53 196,-43 v 0 c 51,-12 124,-21 181,0 53,16 99,40 135,72 l 151,144 c 65,31 92,54 151,101 89,121 125,230 181,362 42,126 78,170 181,246 128,143 221,289 317,448 l 90,130 c 61,61 117,112 166,144 l 106,29 c 85,-25 182,-14 271,-14 165,32 243,73 377,173 142,102 289,235 438,376 193,143 161,144 377,58 171,-107 343,-217 546,-291 z"
   id="path21" />&#10;        </g>&#10;       </g>&#10;       <g
   class="com.sun.star.drawing.ClosedBezierShape"
   id="g23">&#10;        <g
   id="id11">&#10;         <rect
   class="BoundingBox"
   stroke="none"
   fill="none"
   x="5889"
   y="11028"
   width="8526"
   height="9242"
   id="rect21" />&#10;         <path
   fill="#826500"
   stroke="none"
   d="m 10151,20265 c 2350,0 4259,-3135 4259,-7001 0,-260 -9,-517 -26,-770 -329,105 -558,248 -852,416 -123,71 -120,73 -256,73 -241,-49 -381,-144 -558,-318 -145,-120 -243,-217 -423,-275 -176,24 -340,78 -513,102 -521,52 -1069,-519 -1152,-722 -64,-158 -134,-317 -191,-458 -56,-136 -130,-251 -256,-279 -146,46 -269,136 -407,202 -94,0 -112,32 -166,101 -41,75 -81,160 -121,245 -248,476 -535,675 -1086,781 -644,134 -735,-183 -1147,-246 v 0 c -292,30 -658,455 -1132,737 -82,40 -160,69 -226,72 v 0 0 c -4,112 -5,225 -5,339 0,3866 1908,7001 4258,7001 z"
   id="path22" />&#10;         <path
   fill="none"
   stroke="#a65b45"
   stroke-width="8"
   stroke-linejoin="miter"
   d="m 10151,20265 c 2350,0 4259,-3135 4259,-7001 0,-260 -9,-517 -26,-770 -329,105 -558,248 -852,416 -123,71 -120,73 -256,73 -241,-49 -381,-144 -558,-318 -145,-120 -243,-217 -423,-275 -176,24 -340,78 -513,102 -521,52 -1069,-519 -1152,-722 -64,-158 -134,-317 -191,-458 -56,-136 -130,-251 -256,-279 -146,46 -269,136 -407,202 -94,0 -112,32 -166,101 -41,75 -81,160 -121,245 -248,476 -535,675 -1086,781 -644,134 -735,-183 -1147,-246 v 0 c -292,30 -658,455 -1132,737 -82,40 -160,69 -226,72 v 0 0 c -4,112 -5,225 -5,339 0,3866 1908,7001 4258,7001 z"
   id="path23" />&#10;        </g>&#10;       </g>&#10;       <g
   class="com.sun.star.drawing.ClosedBezierShape"
   id="g24">&#10;        <g
   id="id12">&#10;         <rect
   class="BoundingBox"
   stroke="none"
   fill="none"
   x="8001"
   y="7216"
   width="2433"
   height="2145"
   id="rect23" />&#10;         <path
   fill="#ffffff"
   stroke="none"
   d="m 9444,7244 c 48,5 93,11 140,22 9,6 17,11 26,20 3,42 -270,554 -292,618 5,-3 17,17 31,9 45,-59 64,-65 73,-68 39,-39 146,-105 146,-105 31,-22 182,-126 233,-154 34,-6 51,-28 82,-34 20,-5 45,-5 59,12 17,22 45,42 48,75 19,54 47,99 59,156 14,5 -3,17 0,25 -17,14 -37,22 -51,39 -6,-3 -8,6 -14,9 -14,2 -22,22 -39,22 -82,67 -164,118 -248,183 v 2 c 206,37 396,107 582,191 31,11 61,25 90,42 h 5 c 23,20 59,17 59,51 -3,14 -3,22 -14,31 -28,36 -31,87 -62,123 -17,14 -36,28 -59,28 -16,9 -30,3 -50,11 -6,-8 -17,-16 -31,-11 -31,14 -73,26 -107,11 -64,-33 -129,-70 -193,-95 -142,-50 -282,-87 -436,-95 l -99,2 c -8,3 -8,12 -8,20 11,20 31,28 48,42 70,82 160,171 241,239 81,76 164,140 237,214 53,42 28,112 45,166 0,14 0,28 -11,33 -9,0 -15,6 -17,12 -31,8 -51,28 -73,42 -12,11 -14,19 -24,28 v 5 c -17,28 -45,40 -76,42 -8,3 -16,6 -22,9 -17,-6 -22,20 -34,8 -53,-59 -120,-98 -171,-160 -31,-19 -53,-47 -84,-67 -87,-87 -152,-168 -241,-254 -3,9 -3,12 0,23 -9,68 11,136 16,197 14,73 26,146 40,222 14,48 19,93 14,149 -3,5 0,17 -12,19 -28,14 -56,0 -84,-5 -5,-11 -19,-9 -28,-14 -17,3 -36,-3 -50,3 -9,-3 -14,8 -23,2 -3,9 -5,-2 -11,0 -20,-2 -39,-5 -59,-8 -20,-8 -42,-8 -62,-17 -5,-11 -5,-25 -11,-39 -28,-132 -56,-275 -59,-410 -8,-25 0,-51 -5,-74 -87,88 -163,186 -225,293 -22,17 -32,65 -68,48 -3,0 -6,-6 -9,-3 -5,-3 -8,-11 -8,-17 -9,-14 -20,-17 -28,-25 -37,-3 -70,-17 -104,-25 -20,-9 -23,-31 -37,-40 -5,-25 -42,-25 -42,-48 -5,-11 -5,-16 0,-25 14,-11 17,-31 28,-45 71,-99 141,-192 216,-279 63,-81 147,-162 204,-249 14,-20 -17,-20 -20,-34 -23,-8 -51,0 -70,-8 -56,0 -102,-12 -156,-3 -36,-9 -81,31 -106,-14 -3,-6 -6,-14 -14,-14 -12,8 -28,8 -34,19 -14,3 -36,0 -53,3 -65,11 -135,17 -197,25 -19,3 -42,12 -59,6 -22,-14 -19,-39 -22,-62 -20,-8 -25,-28 -37,-42 -5,-31 -11,-56 -16,-84 2,-3 5,-11 11,-11 3,0 8,0 11,-6 l -6,-14 c 14,-17 34,-17 51,-31 48,-19 104,-19 157,-33 109,-20 230,-17 348,-20 6,-6 -6,-11 -3,-17 -25,-34 -45,-70 -64,-109 -34,-54 -79,-101 -110,-158 -14,-14 -19,-29 -33,-37 -9,-11 -14,-28 -23,-42 -3,-23 -22,-62 6,-76 61,-56 120,-115 193,-154 -2,-14 14,-6 20,-14 3,8 11,2 17,2 28,6 40,37 51,57 12,16 6,50 31,59 59,36 65,109 110,160 39,76 104,132 154,200 9,3 11,14 20,17 0,8 11,5 11,14 14,-45 31,-96 48,-143 25,-80 42,-161 70,-240 3,-34 22,-62 28,-95 17,-31 22,-68 39,-102 0,-19 20,-33 20,-53 0,-3 42,-70 42,-76 14,-11 25,-30 45,-30 67,5 132,28 199,28 z"
   id="path24" />&#10;        </g>&#10;       </g>&#10;       <g
   class="com.sun.star.drawing.ClosedBezierShape"
   id="g25">&#10;        <g
   id="id13">&#10;         <rect
   class="BoundingBox"
   stroke="none"
   fill="none"
   x="6291"
   y="12997"
   width="7786"
   height="5780"
   id="rect24" />&#10;         <path
   fill="#ffffff"
   stroke="none"
   d="m 7195,16985 c 1034,95 1913,-49 2837,-520 -33,-55 -1599,-205 -2837,520 z m 0,0 z m 2752,1791 c 833,-629 1251,-1290 1563,-2254 -767,597 -1287,1347 -1563,2254 z m 0,0 z m 1669,-3338 c 0,-631 -198,-1229 -573,-1748 0,645 190,1218 573,1748 z m 0,0 z m -392,231 v 0 c 1,181 -58,302 -242,333 -163,0 -292,-204 -259,-362 -303,368 -726,-62 -676,-438 l -211,-270 -211,-303 -181,-332 v 0 l -151,-333 -121,-317 -90,-333 -60,-317 v 0 l 241,245 226,289 211,303 196,333 v 0 l 151,332 138,392 c 394,-346 754,209 644,524 220,-157 342,53 395,254 z m 0,0 z m 2701,-2167 c 101,317 85,592 11,807 -500,1464 -2293,2086 -3539,1877 -952,-1411 -2539,-2505 -4106,-3031 646,901 1488,1696 2434,2284 -823,-279 -1598,-392 -2419,-362 v 0 c 1278,848 2597,1185 4070,1185 1007,254 2120,-13 2924,-682 595,-494 985,-1179 655,-2020 z m 0,0 z m -1722,1250 c 161,0 293,166 293,368 0,203 -132,369 -293,369 -162,0 -293,-166 -293,-369 0,-202 131,-368 293,-368 z m 0,0 z m -1807,1646 c 155,0 282,162 282,361 0,199 -127,361 -282,361 -156,0 -283,-162 -283,-361 0,-199 127,-361 283,-361 z"
   id="path25" />&#10;        </g>&#10;       </g>&#10;      </g>&#10;     </g>&#10;    </g>&#10;   </g>&#10;  </g>&#10; </g>&#10;</svg>
