<?xml version="1.0" encoding="UTF-8" standalone="no"?>
<svg
   version="1.2"
   width="150.00999mm"
   height="149.95999mm"
   viewBox="0 0 15001 14995.999"
   preserveAspectRatio="xMidYMid"
   fill-rule="evenodd"
   stroke-width="28.222"
   stroke-linejoin="round"
   xml:space="preserve"
   id="svg51"
   sodipodi:docname="ID15a23.svg"
   inkscape:version="1.2.2 (b0a8486541, 2022-12-01)"
   xmlns:inkscape="http://www.inkscape.org/namespaces/inkscape"
   xmlns:sodipodi="http://sodipodi.sourceforge.net/DTD/sodipodi-0.dtd"
   xmlns="http://www.w3.org/2000/svg"
   xmlns:svg="http://www.w3.org/2000/svg"
   xmlns:ooo="http://xml.openoffice.org/svg/export"><sodipodi:namedview
   id="namedview51"
   pagecolor="#ffffff"
   bordercolor="#000000"
   borderopacity="0.25"
   inkscape:showpageshadow="2"
   inkscape:pageopacity="0.0"
   inkscape:pagecheckerboard="true"
   inkscape:deskcolor="#d1d1d1"
   inkscape:document-units="mm"
   fit-margin-top="50"
   fit-margin-left="50"
   fit-margin-right="50"
   fit-margin-bottom="50"
   showgrid="false"
   inkscape:zoom="4.919083"
   inkscape:cx="540.44626"
   inkscape:cy="33.542837"
   inkscape:window-width="1280"
   inkscape:window-height="731"
   inkscape:window-x="0"
   inkscape:window-y="0"
   inkscape:window-maximized="1"
   inkscape:current-layer="svg51" />
 <defs
   class="ClipPathGroup"
   id="defs2">
  <clipPath
   id="presentation_clip_path"
   clipPathUnits="userSpaceOnUse">
   <rect
   x="0"
   y="0"
   width="21001"
   height="29703"
   id="rect1" />
  </clipPath>
  <clipPath
   id="presentation_clip_path_shrink"
   clipPathUnits="userSpaceOnUse">
   <rect
   x="21"
   y="29"
   width="20959"
   height="29644"
   id="rect2" />
  </clipPath>
 </defs>
 <defs
   class="TextShapeIndex"
   id="defs3">
  <g
   ooo:slide="id1"
   ooo:id-list="id3 id4 id5 id6 id7 id8 id9 id10 id11 id12 id13 id14 id15 id16 id17 id18 id19 id20 id21 id22 id23 id24 id25 id26 id27 id28 id29 id30 id31 id32 id33"
   id="g2" />
 </defs>
 <defs
   class="EmbeddedBulletChars"
   id="defs12">
  <g
   id="bullet-char-template-57356"
   transform="matrix(4.8828125e-4,0,0,-4.8828125e-4,0,0)">
   <path
   d="M 580,1141 1163,571 580,0 -4,571 Z"
   id="path3" />
  </g>
  <g
   id="bullet-char-template-57354"
   transform="matrix(4.8828125e-4,0,0,-4.8828125e-4,0,0)">
   <path
   d="M 8,1128 H 1137 V 0 H 8 Z"
   id="path4" />
  </g>
  <g
   id="bullet-char-template-10146"
   transform="matrix(4.8828125e-4,0,0,-4.8828125e-4,0,0)">
   <path
   d="M 174,0 602,739 174,1481 1456,739 Z M 1358,739 309,1346 659,739 Z"
   id="path5" />
  </g>
  <g
   id="bullet-char-template-10132"
   transform="matrix(4.8828125e-4,0,0,-4.8828125e-4,0,0)">
   <path
   d="M 2015,739 1276,0 H 717 l 543,543 H 174 v 393 h 1086 l -543,545 h 557 z"
   id="path6" />
  </g>
  <g
   id="bullet-char-template-10007"
   transform="matrix(4.8828125e-4,0,0,-4.8828125e-4,0,0)">
   <path
   d="m 0,-2 c -7,16 -16,29 -25,39 l 381,530 c -94,256 -141,385 -141,387 0,25 13,38 40,38 9,0 21,-2 34,-5 21,4 42,12 65,25 l 27,-13 111,-251 280,301 64,-25 24,25 c 21,-10 41,-24 62,-43 C 886,937 835,863 770,784 769,783 710,716 594,584 L 774,223 c 0,-27 -21,-55 -63,-84 l 16,-20 C 717,90 699,76 672,76 641,76 570,178 457,381 L 164,-76 c -22,-34 -53,-51 -92,-51 -42,0 -63,17 -64,51 -7,9 -10,24 -10,44 0,9 1,19 2,30 z"
   id="path7" />
  </g>
  <g
   id="bullet-char-template-10004"
   transform="matrix(4.8828125e-4,0,0,-4.8828125e-4,0,0)">
   <path
   d="M 285,-33 C 182,-33 111,30 74,156 52,228 41,333 41,471 c 0,78 14,145 41,201 34,71 87,106 158,106 53,0 88,-31 106,-94 l 23,-176 c 8,-64 28,-97 59,-98 l 735,706 c 11,11 33,17 66,17 42,0 63,-15 63,-46 V 965 c 0,-36 -10,-64 -30,-84 L 442,47 C 390,-6 338,-33 285,-33 Z"
   id="path8" />
  </g>
  <g
   id="bullet-char-template-9679"
   transform="matrix(4.8828125e-4,0,0,-4.8828125e-4,0,0)">
   <path
   d="M 813,0 C 632,0 489,54 383,161 276,268 223,411 223,592 c 0,181 53,324 160,431 106,107 249,161 430,161 179,0 323,-54 432,-161 108,-107 162,-251 162,-431 0,-180 -54,-324 -162,-431 C 1136,54 992,0 813,0 Z"
   id="path9" />
  </g>
  <g
   id="bullet-char-template-8226"
   transform="matrix(4.8828125e-4,0,0,-4.8828125e-4,0,0)">
   <path
   d="m 346,457 c -73,0 -137,26 -191,78 -54,51 -81,114 -81,188 0,73 27,136 81,188 54,52 118,78 191,78 73,0 134,-26 185,-79 51,-51 77,-114 77,-187 0,-75 -25,-137 -76,-188 -50,-52 -112,-78 -186,-78 z"
   id="path10" />
  </g>
  <g
   id="bullet-char-template-8211"
   transform="matrix(4.8828125e-4,0,0,-4.8828125e-4,0,0)">
   <path
   d="M -4,459 H 1135 V 606 H -4 Z"
   id="path11" />
  </g>
  <g
   id="bullet-char-template-61548"
   transform="matrix(4.8828125e-4,0,0,-4.8828125e-4,0,0)">
   <path
   d="m 173,740 c 0,163 58,303 173,419 116,115 255,173 419,173 163,0 302,-58 418,-173 116,-116 174,-256 174,-419 0,-163 -58,-303 -174,-418 C 1067,206 928,148 765,148 601,148 462,206 346,322 231,437 173,577 173,740 Z"
   id="path12" />
  </g>
 </defs>
 <g
   id="g12"
   transform="translate(-2652,-5770)">
  <g
   id="id2"
   class="Master_Slide">
   <g
   id="bg-id2"
   class="Background" />
   <g
   id="bo-id2"
   class="BackgroundObjects" />
  </g>
 </g>
 <g
   class="SlideGroup"
   id="g51"
   transform="translate(-2652,-5770)">
  <g
   id="g50">
   <g
   id="container-id1">
    <g
   id="id1"
   class="Slide"
   clip-path="url(#presentation_clip_path)">
     <g
   class="Page"
   id="g49">
      <g
   class="Group"
   id="g48">
       <g
   class="com.sun.star.drawing.PolyPolygonShape"
   id="g13">
        <g
   id="id3">
         <rect
   class="BoundingBox"
   stroke="none"
   fill="none"
   x="2652"
   y="5770"
   width="15001"
   height="14996"
   id="rect12" />
         <path
   fill="#fefefe"
   stroke="none"
   d="M 2653,5770 V 20765 H 17652 V 5770 Z"
   id="path13" />
        </g>
       </g>
       <g
   class="Group"
   id="g18"
   style="display:none">
        <g
   class="com.sun.star.drawing.LineShape"
   id="g14">
         <g
   id="id4">
          <rect
   class="BoundingBox"
   stroke="none"
   fill="none"
   x="2621"
   y="5761"
   width="53"
   height="14994"
   id="rect13" />
          <path
   fill="none"
   stroke="#1b1918"
   stroke-width="51"
   stroke-linejoin="miter"
   d="M 2647,20754 V 5761"
   id="path14" />
         </g>
        </g>
        <g
   class="com.sun.star.drawing.LineShape"
   id="g15">
         <g
   id="id5">
          <rect
   class="BoundingBox"
   stroke="none"
   fill="none"
   x="2647"
   y="20728"
   width="14997"
   height="53"
   id="rect14" />
          <path
   fill="none"
   stroke="#1b1918"
   stroke-width="51"
   stroke-linejoin="miter"
   d="M 17643,20754 H 2647"
   id="path15" />
         </g>
        </g>
        <g
   class="com.sun.star.drawing.LineShape"
   id="g16">
         <g
   id="id6">
          <rect
   class="BoundingBox"
   stroke="none"
   fill="none"
   x="17617"
   y="5761"
   width="53"
   height="14994"
   id="rect15" />
          <path
   fill="none"
   stroke="#1b1918"
   stroke-width="51"
   stroke-linejoin="miter"
   d="M 17643,5761 V 20754"
   id="path16" />
         </g>
        </g>
        <g
   class="com.sun.star.drawing.LineShape"
   id="g17">
         <g
   id="id7">
          <rect
   class="BoundingBox"
   stroke="none"
   fill="none"
   x="2647"
   y="5735"
   width="14997"
   height="53"
   id="rect16" />
          <path
   fill="none"
   stroke="#1b1918"
   stroke-width="51"
   stroke-linejoin="miter"
   d="M 2647,5761 H 17643"
   id="path17" />
         </g>
        </g>
       </g>
       <g
   class="com.sun.star.drawing.ClosedBezierShape"
   id="g19">
        <g
   id="id8">
         <rect
   class="BoundingBox"
   stroke="none"
   fill="none"
   x="11742"
   y="6264"
   width="5405"
   height="13995"
   id="rect18" />
         <path
   fill="#826500"
   stroke="none"
   d="m 11742,20258 5404,-2 V 6264 l -5404,2 c 449,279 807,536 1198,993 l 3208,3 v 11996 h -3208 c -322,398 -762,724 -1198,1000 z"
   id="path18" />
        </g>
       </g>
       <g
   class="com.sun.star.drawing.ClosedBezierShape"
   id="g20">
        <g
   id="id9">
         <rect
   class="BoundingBox"
   stroke="none"
   fill="none"
   x="3150"
   y="6264"
   width="5394"
   height="13995"
   id="rect19" />
         <path
   fill="#826500"
   stroke="none"
   d="m 8543,20258 -5393,-2 V 6264 l 5393,2 c -427,252 -843,561 -1199,993 l -3196,3 v 11996 h 3196 c 320,403 775,726 1199,1000 z"
   id="path19" />
        </g>
       </g>
       <g
   class="Group"
   id="g27">
        <g
   class="com.sun.star.drawing.ClosedBezierShape"
   id="g21">
         <g
   id="id10">
          <rect
   class="BoundingBox"
   stroke="none"
   fill="none"
   x="7285"
   y="13252"
   width="275"
   height="497"
   id="rect20" />
          <path
   fill="#826500"
   stroke="none"
   d="m 7559,13748 v -496 c -157,47 -274,251 -274,496 z"
   id="path20" />
         </g>
        </g>
        <g
   class="com.sun.star.drawing.PolyPolygonShape"
   id="g22">
         <g
   id="id11">
          <rect
   class="BoundingBox"
   stroke="none"
   fill="none"
   x="7285"
   y="13939"
   width="270"
   height="257"
   id="rect21" />
          <path
   fill="#826500"
   stroke="none"
   d="m 7554,14195 v -256 h -269 v 256 z"
   id="path21" />
         </g>
        </g>
        <g
   class="com.sun.star.drawing.PolyPolygonShape"
   id="g23">
         <g
   id="id12">
          <rect
   class="BoundingBox"
   stroke="none"
   fill="none"
   x="7284"
   y="14384"
   width="271"
   height="259"
   id="rect22" />
          <path
   fill="#826500"
   stroke="none"
   d="m 7554,14642 v -258 h -269 v 258 z"
   id="path22" />
         </g>
        </g>
        <g
   class="com.sun.star.drawing.ClosedBezierShape"
   id="g24">
         <g
   id="id13">
          <rect
   class="BoundingBox"
   stroke="none"
   fill="none"
   x="7732"
   y="13252"
   width="148"
   height="498"
   id="rect23" />
          <path
   fill="#826500"
   stroke="none"
   d="m 7878,13748 c 0,-245 9,-449 -146,-496 v 496 z"
   id="path23" />
         </g>
        </g>
        <g
   class="com.sun.star.drawing.PolyPolygonShape"
   id="g25">
         <g
   id="id14">
          <rect
   class="BoundingBox"
   stroke="none"
   fill="none"
   x="7734"
   y="13939"
   width="147"
   height="257"
   id="rect24" />
          <path
   fill="#826500"
   stroke="none"
   d="m 7880,14195 v -256 h -146 v 256 z"
   id="path24" />
         </g>
        </g>
        <g
   class="com.sun.star.drawing.PolyPolygonShape"
   id="g26">
         <g
   id="id15">
          <rect
   class="BoundingBox"
   stroke="none"
   fill="none"
   x="7734"
   y="14384"
   width="147"
   height="260"
   id="rect25" />
          <path
   fill="#826500"
   stroke="none"
   d="m 7880,14642 v -258 h -146 v 258 z"
   id="path25" />
         </g>
        </g>
       </g>
       <g
   class="com.sun.star.drawing.ClosedBezierShape"
   id="g28">
        <g
   id="id16">
         <rect
   class="BoundingBox"
   stroke="none"
   fill="none"
   x="5895"
   y="6264"
   width="8508"
   height="8905"
   id="rect27" />
         <path
   fill="#826500"
   stroke="none"
   d="m 12553,12675 c 305,112 825,360 1288,611 -267,-249 -905,-572 -1108,-644 452,-35 1031,-61 1491,-73 92,-3 104,15 158,51 12,213 20,427 20,643 0,361 -20,716 -53,1067 -435,-213 -1786,-511 -2124,-452 0,0 866,195 1471,373 -74,13 -254,69 -254,69 -163,-59 -333,-84 -531,-84 -71,0 -84,-91 -165,-91 -79,0 -257,78 -267,78 -142,0 -348,-78 -482,-81 -87,0 -181,-20 -191,-107 0,0 -2,-104 -2,-122 0,-20 114,66 182,66 51,0 199,54 199,-154 0,-16 119,-145 119,-242 0,-25 -64,-178 -64,-211 0,-71 -144,-155 -144,-226 0,-30 -79,-114 -79,-180 0,-29 -36,-98 -92,-98 -111,0 -185,-50 -266,-50 -56,0 -155,91 -300,91 -15,0 -206,197 -206,202 0,119 -183,297 -183,386 0,117 79,211 -7,348 18,129 129,86 211,86 33,0 89,15 89,-18 0,0 71,-33 91,-58 23,20 -3,51 -3,58 0,44 -28,206 -30,206 -13,-10 30,87 -185,64 -51,-5 -125,-94 -176,-97 -938,-71 -2002,-201 -2952,-274 v -711 l -1291,-3 v 373 c 110,72 64,227 82,315 10,51 162,92 162,155 0,99 -7,313 -7,425 0,53 142,38 142,88 0,64 25,216 25,293 0,81 117,124 196,124 66,0 124,53 145,117 35,89 144,180 213,180 5,0 -447,-101 -447,-101 -10,-145 -236,-46 -236,-206 0,-41 2,-211 2,-252 0,-55 -152,-116 -152,-147 0,-102 -43,-317 -43,-404 0,-56 -181,-216 -181,-216 -119,-419 -86,-698 -723,-848 83,-3742 1955,-6730 4249,-6730 2193,0 4001,2728 4233,6239 2,2 2,2 -120,2 -2045,-691 -4026,-663 -6087,-223 l 16,45 c 2185,-320 3772,-378 5949,186 -531,-15 -1115,0 -1648,38 -541,-191 -1880,-328 -2374,-312 769,99 1393,152 2153,317 -1087,56 -2106,262 -3311,811 -282,-33 -660,-58 -891,-38 553,66 2231,422 2741,551 -429,-200 -1159,-360 -1741,-490 1170,-455 2290,-740 3489,-715 z"
   id="path27" />
        </g>
       </g>
       <g
   class="com.sun.star.drawing.ClosedBezierShape"
   id="g29">
        <g
   id="id17">
         <rect
   class="BoundingBox"
   stroke="none"
   fill="none"
   x="7438"
   y="17274"
   width="1103"
   height="807"
   id="rect28" />
         <path
   fill="#826500"
   stroke="none"
   d="m 8436,17976 c -132,57 -302,-38 -434,20 -171,74 -398,112 -550,57 -54,-20 57,-132 132,-191 40,-37 -55,-95 -75,-132 -57,-75 -37,-207 38,-247 115,-56 247,0 359,-18 58,-20 25,-85 58,-115 170,-149 397,-55 567,77 0,18 0,56 0,76 -55,37 -112,75 -170,95 -37,17 -17,75 -17,95 55,54 132,74 187,132 37,76 -55,133 -95,151 z"
   id="path28" />
        </g>
       </g>
       <g
   class="com.sun.star.drawing.ClosedBezierShape"
   id="g30">
        <g
   id="id18">
         <rect
   class="BoundingBox"
   stroke="none"
   fill="none"
   x="8631"
   y="17569"
   width="421"
   height="272"
   id="rect29" />
         <path
   fill="#826500"
   stroke="none"
   d="m 9018,17790 c -45,65 -198,67 -266,2 -64,-45 -153,-133 -109,-220 22,0 67,-7 87,0 133,42 418,62 288,218 z"
   id="path29" />
        </g>
       </g>
       <g
   class="com.sun.star.drawing.ClosedBezierShape"
   id="g31">
        <g
   id="id19">
         <rect
   class="BoundingBox"
   stroke="none"
   fill="none"
   x="7296"
   y="17744"
   width="210"
   height="138"
   id="rect30" />
         <path
   fill="#826500"
   stroke="none"
   d="m 7488,17856 c -20,33 -98,33 -131,0 -32,-22 -76,-65 -54,-110 10,0 32,-2 42,0 66,22 208,32 143,110 z"
   id="path30" />
        </g>
       </g>
       <g
   class="com.sun.star.drawing.ClosedBezierShape"
   id="g32">
        <g
   id="id20">
         <rect
   class="BoundingBox"
   stroke="none"
   fill="none"
   x="9846"
   y="16640"
   width="194"
   height="126"
   id="rect31" />
         <path
   fill="#826500"
   stroke="none"
   d="m 10023,16741 c -20,30 -89,32 -121,2 -30,-21 -68,-62 -51,-101 12,0 32,-4 41,0 60,18 190,27 131,99 z"
   id="path31" />
        </g>
       </g>
       <g
   class="com.sun.star.drawing.ClosedBezierShape"
   id="g33">
        <g
   id="id21">
         <rect
   class="BoundingBox"
   stroke="none"
   fill="none"
   x="9035"
   y="16272"
   width="289"
   height="185"
   id="rect32" />
         <path
   fill="#826500"
   stroke="none"
   d="m 9137,16455 c -69,14 -111,-103 -101,-149 9,-45 279,-40 286,-14 9,31 -115,152 -185,163 z"
   id="path32" />
        </g>
       </g>
       <g
   class="com.sun.star.drawing.ClosedBezierShape"
   id="g34">
        <g
   id="id22">
         <rect
   class="BoundingBox"
   stroke="none"
   fill="none"
   x="9463"
   y="16302"
   width="1125"
   height="456"
   id="rect33" />
         <path
   fill="#826500"
   stroke="none"
   d="m 10560,16447 c -41,18 -89,18 -127,43 -55,34 -93,104 -157,120 -120,18 -247,23 -368,-32 -114,-50 -157,133 -252,167 -54,18 -134,18 -159,-27 -40,-73 -42,-160 -20,-230 7,-32 29,-64 52,-90 9,-16 -9,-48 0,-63 7,-16 -2,-16 14,-25 4,-3 6,-3 9,-5 0,0 186,-22 385,45 0,0 480,92 643,59 16,-2 0,33 -20,38 z"
   id="path33" />
        </g>
       </g>
       <g
   class="com.sun.star.drawing.ClosedBezierShape"
   id="g35">
        <g
   id="id23">
         <rect
   class="BoundingBox"
   stroke="none"
   fill="none"
   x="11167"
   y="15652"
   width="265"
   height="552"
   id="rect34" />
         <path
   fill="#826500"
   stroke="none"
   d="m 11383,16201 c -23,12 -5,-76 -25,-66 -17,9 -33,-55 -45,-67 -12,-14 24,-126 17,-135 -12,-22 -55,26 -65,7 -4,-15 -7,-60 -11,-75 -5,-19 -40,-12 -42,-31 -5,-21 17,-57 14,-78 -2,-24 -47,21 -47,-2 0,-15 -25,-98 -3,-102 139,111 254,298 254,476 0,33 -23,59 -47,73 z"
   id="path34" />
        </g>
       </g>
       <g
   class="com.sun.star.drawing.ClosedBezierShape"
   id="g36">
        <g
   id="id24">
         <rect
   class="BoundingBox"
   stroke="none"
   fill="none"
   x="11960"
   y="16636"
   width="296"
   height="247"
   id="rect35" />
         <path
   fill="#826500"
   stroke="none"
   d="m 12168,16710 c -79,51 44,141 -62,172 -57,-43 -154,-67 -146,-160 77,-67 201,-118 294,-62 -16,38 -61,14 -86,50 z"
   id="path35" />
        </g>
       </g>
       <g
   class="com.sun.star.drawing.ClosedBezierShape"
   id="g37">
        <g
   id="id25">
         <rect
   class="BoundingBox"
   stroke="none"
   fill="none"
   x="12532"
   y="17525"
   width="193"
   height="266"
   id="rect36" />
         <path
   fill="#826500"
   stroke="none"
   d="m 12704,17656 c -42,-9 -66,45 -103,64 -36,25 14,42 0,70 -125,-23 -36,-169 -69,-254 l 17,-11 c 74,19 124,67 174,112 3,10 -12,14 -19,19 z"
   id="path36" />
        </g>
       </g>
       <g
   class="Group"
   id="g41">
        <g
   class="com.sun.star.drawing.ClosedBezierShape"
   id="g38">
         <g
   id="id26">
          <rect
   class="BoundingBox"
   stroke="none"
   fill="none"
   x="11574"
   y="13650"
   width="126"
   height="158"
   id="rect37" />
          <path
   fill="#826500"
   stroke="none"
   d="m 11622,13665 c -10,8 -24,0 -31,8 -25,41 -18,101 -3,118 73,58 115,-58 111,-123 0,-25 -50,-18 -77,-3 z"
   id="path37" />
         </g>
        </g>
        <g
   class="com.sun.star.drawing.ClosedBezierShape"
   id="g39">
         <g
   id="id27">
          <rect
   class="BoundingBox"
   stroke="none"
   fill="none"
   x="11731"
   y="13677"
   width="118"
   height="152"
   id="rect38" />
          <path
   fill="#826500"
   stroke="none"
   d="m 11807,13680 c -14,7 -41,-8 -41,7 -9,50 -58,99 -19,125 56,57 91,-65 101,-115 0,-17 -24,-23 -41,-17 z"
   id="path38" />
         </g>
        </g>
        <g
   class="com.sun.star.drawing.ClosedBezierShape"
   id="g40">
         <g
   id="id28">
          <rect
   class="BoundingBox"
   stroke="none"
   fill="none"
   x="11360"
   y="13655"
   width="144"
   height="129"
   id="rect39" />
          <path
   fill="#826500"
   stroke="none"
   d="m 11434,13664 c -8,-5 -17,-2 -17,-9 -17,16 -34,40 -57,47 40,27 79,110 112,70 26,-24 43,-75 19,-115 -7,-9 -33,14 -57,7 z"
   id="path39" />
         </g>
        </g>
       </g>
       <g
   class="com.sun.star.drawing.ClosedBezierShape"
   id="g42">
        <g
   id="id29">
         <rect
   class="BoundingBox"
   stroke="none"
   fill="none"
   x="6289"
   y="14468"
   width="8026"
   height="5797"
   id="rect41" />
         <path
   fill="#826500"
   stroke="none"
   d="m 7200,18306 c 18,-2 130,-33 874,-71 l 344,-12 c 701,-23 1407,7 2139,55 508,59 1056,160 1597,308 -208,-125 -812,-318 -1201,-363 2,-178 -127,-285 -127,-285 91,-91 152,-112 241,-183 120,-84 269,-84 407,-58 96,15 183,96 271,117 143,35 282,48 425,96 104,33 158,92 242,160 28,28 140,-89 173,-122 53,-51 249,-109 276,-236 8,0 0,-56 0,-56 -271,-256 -408,-609 -477,-975 -113,-81 -194,-201 -291,-310 -38,-64 -53,-137 -101,-180 208,-127 277,-362 277,-362 -5,-25 -13,-36 -18,-41 -158,321 -447,321 -447,321 v 0 0 c 5,-48 43,-86 91,-86 0,0 13,-3 33,-10 -2,-8 -2,-18 -5,-26 -12,-53 -79,-61 -119,-77 -46,-15 -92,-58 -140,-30 -66,46 -81,57 -150,97 0,-105 -264,-387 -378,-387 0,0 -38,28 -38,38 0,38 10,209 10,209 -3,107 23,211 104,277 -71,26 -109,69 -198,97 -89,28 -221,53 -295,58 -246,3 -498,-40 -736,-73 -160,-21 -303,-69 -463,-66 -246,-13 -477,-8 -721,22 -30,0 -71,13 -97,13 -503,71 -1014,117 -1466,292 -495,193 -777,290 -777,300 -61,-170 -120,-356 -170,-541 5,0 312,-1251 5111,-1746 0,0 556,-40 2914,206 -401,3181 -2114,5587 -4169,5587 -1140,0 -2183,-741 -2945,-1957 z"
   id="path41" />
        </g>
       </g>
       <g
   class="com.sun.star.drawing.ClosedBezierShape"
   id="g43">
        <g
   id="id30">
         <rect
   class="BoundingBox"
   stroke="none"
   fill="none"
   x="7993"
   y="7211"
   width="2433"
   height="2145"
   id="rect42" />
         <path
   fill="#ffffff"
   stroke="none"
   d="m 9436,7239 c 48,5 93,11 140,22 9,6 17,11 26,20 3,42 -270,554 -292,618 5,-3 17,17 31,9 45,-59 64,-65 73,-68 39,-39 146,-105 146,-105 31,-22 182,-126 233,-154 34,-6 51,-28 82,-34 20,-5 45,-5 59,12 17,22 45,42 48,75 19,54 47,99 59,156 14,5 -3,17 0,25 -17,14 -37,22 -51,39 -6,-3 -8,6 -14,9 -14,2 -22,22 -39,22 -82,67 -164,118 -248,183 v 2 c 206,37 396,107 582,191 31,11 61,25 90,42 h 5 c 23,20 59,17 59,51 -3,14 -3,22 -14,31 -28,36 -31,87 -62,123 -17,14 -36,28 -59,28 -16,9 -30,3 -50,11 -6,-8 -17,-16 -31,-11 -31,14 -73,26 -107,11 -64,-33 -129,-70 -193,-95 -142,-50 -282,-87 -436,-95 l -99,2 c -8,3 -8,12 -8,20 11,20 31,28 48,42 70,82 160,171 241,239 81,76 164,140 237,214 53,42 28,112 45,166 0,14 0,28 -11,33 -9,0 -15,6 -17,12 -31,8 -51,28 -73,42 -12,11 -14,19 -24,28 v 5 c -17,28 -45,40 -76,42 -8,3 -16,6 -22,9 -17,-6 -22,20 -34,8 -53,-59 -120,-98 -171,-160 -31,-19 -53,-47 -84,-67 -87,-87 -152,-168 -241,-254 -3,9 -3,12 0,23 -9,68 11,136 16,197 14,73 26,146 40,222 14,48 19,93 14,149 -3,5 0,17 -12,19 -28,14 -56,0 -84,-5 -5,-11 -19,-9 -28,-14 -17,3 -36,-3 -50,3 -9,-3 -14,8 -23,2 -3,9 -5,-2 -11,0 -20,-2 -39,-5 -59,-8 -20,-8 -42,-8 -62,-17 -5,-11 -5,-25 -11,-39 -28,-132 -56,-275 -59,-410 -8,-25 0,-51 -5,-74 -87,88 -163,186 -225,293 -22,17 -32,65 -68,48 -3,0 -6,-6 -9,-3 -5,-3 -8,-11 -8,-17 -9,-14 -20,-17 -28,-25 -37,-3 -70,-17 -104,-25 -20,-9 -23,-31 -37,-40 -5,-25 -42,-25 -42,-48 -5,-11 -5,-16 0,-25 14,-11 17,-31 28,-45 71,-99 141,-192 216,-279 63,-81 147,-162 204,-249 14,-20 -17,-20 -20,-34 -23,-8 -51,0 -70,-8 -56,0 -102,-12 -156,-3 -36,-9 -81,31 -106,-14 -3,-6 -6,-14 -14,-14 -12,8 -28,8 -34,19 -14,3 -36,0 -53,3 -65,11 -135,17 -197,25 -19,3 -42,12 -59,6 -22,-14 -19,-39 -22,-62 -20,-8 -25,-28 -37,-42 -5,-31 -11,-56 -16,-84 2,-3 5,-11 11,-11 3,0 8,0 11,-6 l -6,-14 c 14,-17 34,-17 51,-31 48,-19 104,-19 157,-33 109,-20 230,-17 348,-20 6,-6 -6,-11 -3,-17 -25,-34 -45,-70 -64,-109 -34,-54 -79,-101 -110,-158 -14,-14 -19,-29 -33,-37 -9,-11 -14,-28 -23,-42 -3,-23 -22,-62 6,-76 61,-56 120,-115 193,-154 -2,-14 14,-6 20,-14 3,8 11,2 17,2 28,6 40,37 51,57 12,16 6,50 31,59 59,36 65,109 110,160 39,76 104,132 154,200 9,3 11,14 20,17 0,8 11,5 11,14 14,-45 31,-96 48,-143 25,-80 42,-161 70,-240 3,-34 22,-62 28,-95 17,-31 22,-68 39,-102 0,-19 20,-33 20,-53 0,-3 42,-70 42,-76 14,-11 25,-30 45,-30 67,5 132,28 199,28 z"
   id="path42" />
        </g>
       </g>
       <g
   class="Group"
   id="g47">
        <g
   class="com.sun.star.drawing.ClosedBezierShape"
   id="g44">
         <g
   id="id31">
          <rect
   class="BoundingBox"
   stroke="none"
   fill="none"
   x="6610"
   y="12818"
   width="1507"
   height="136"
   id="rect43" />
          <path
   fill="#ffffff"
   stroke="none"
   d="m 8068,12953 c 27,0 47,-22 47,-48 v -39 c 0,-28 -20,-48 -47,-48 H 6657 c -27,0 -47,20 -47,48 v 39 c 0,26 20,48 47,48 z"
   id="path43" />
         </g>
        </g>
        <g
   class="com.sun.star.drawing.ClosedBezierShape"
   id="g45">
         <g
   id="id32">
          <rect
   class="BoundingBox"
   stroke="none"
   fill="none"
   x="6510"
   y="12576"
   width="1706"
   height="119"
   id="rect44" />
          <path
   fill="#ffffff"
   stroke="none"
   d="m 8167,12693 c 28,0 48,-20 48,-46 v -23 c 0,-28 -20,-48 -48,-48 H 6557 c -27,0 -47,20 -47,48 v 23 c 0,26 20,46 47,46 z"
   id="path44" />
         </g>
        </g>
        <g
   class="com.sun.star.drawing.ClosedBezierShape"
   id="g46">
         <g
   id="id33">
          <rect
   class="BoundingBox"
   stroke="none"
   fill="none"
   x="6610"
   y="10972"
   width="1505"
   height="1445"
   id="rect45" />
          <path
   fill="#ffffff"
   stroke="none"
   d="m 7336,10992 c 13,-26 38,-26 52,0 l 720,1374 c 14,27 0,50 -29,50 H 6645 c -29,0 -42,-23 -29,-50 z"
   id="path45" />
         </g>
        </g>
       </g>
      </g>
     </g>
    </g>
   </g>
  </g>
 </g>
</svg>
