<?xml version="1.0" encoding="UTF-8" standalone="no"?>
<svg
   version="1.2"
   width="150.00999mm"
   height="149.95999mm"
   viewBox="0 0 15001 14995.999"
   preserveAspectRatio="xMidYMid"
   fill-rule="evenodd"
   stroke-width="28.222"
   stroke-linejoin="round"
   xml:space="preserve"
   id="svg26"
   sodipodi:docname="ID15a45.svg"
   inkscape:version="1.2.2 (b0a8486541, 2022-12-01)"
   xmlns:inkscape="http://www.inkscape.org/namespaces/inkscape"
   xmlns:sodipodi="http://sodipodi.sourceforge.net/DTD/sodipodi-0.dtd"
   xmlns="http://www.w3.org/2000/svg"
   xmlns:svg="http://www.w3.org/2000/svg"
   xmlns:ooo="http://xml.openoffice.org/svg/export"><sodipodi:namedview
   id="namedview26"
   pagecolor="#ffffff"
   bordercolor="#000000"
   borderopacity="0.25"
   inkscape:showpageshadow="2"
   inkscape:pageopacity="0.0"
   inkscape:pagecheckerboard="true"
   inkscape:deskcolor="#d1d1d1"
   inkscape:document-units="mm"
   fit-margin-top="50"
   fit-margin-left="50"
   fit-margin-right="50"
   fit-margin-bottom="50"
   showgrid="false"
   inkscape:zoom="5.9439031"
   inkscape:cx="538.28266"
   inkscape:cy="12.113253"
   inkscape:window-width="1280"
   inkscape:window-height="731"
   inkscape:window-x="0"
   inkscape:window-y="0"
   inkscape:window-maximized="1"
   inkscape:current-layer="svg26" />
 <defs
   class="ClipPathGroup"
   id="defs2">
  <clipPath
   id="presentation_clip_path"
   clipPathUnits="userSpaceOnUse">
   <rect
   x="0"
   y="0"
   width="21000"
   height="29700"
   id="rect1" />
  </clipPath>
  <clipPath
   id="presentation_clip_path_shrink"
   clipPathUnits="userSpaceOnUse">
   <rect
   x="21"
   y="29"
   width="20958"
   height="29641"
   id="rect2" />
  </clipPath>
 </defs>
 <defs
   class="TextShapeIndex"
   id="defs3">
  <g
   ooo:slide="id1"
   ooo:id-list="id3 id4 id5 id6 id7 id8 id9 id10 id11"
   id="g2" />
 </defs>
 <defs
   class="EmbeddedBulletChars"
   id="defs12">
  <g
   id="bullet-char-template-57356"
   transform="matrix(4.8828125e-4,0,0,-4.8828125e-4,0,0)">
   <path
   d="M 580,1141 1163,571 580,0 -4,571 Z"
   id="path3" />
  </g>
  <g
   id="bullet-char-template-57354"
   transform="matrix(4.8828125e-4,0,0,-4.8828125e-4,0,0)">
   <path
   d="M 8,1128 H 1137 V 0 H 8 Z"
   id="path4" />
  </g>
  <g
   id="bullet-char-template-10146"
   transform="matrix(4.8828125e-4,0,0,-4.8828125e-4,0,0)">
   <path
   d="M 174,0 602,739 174,1481 1456,739 Z M 1358,739 309,1346 659,739 Z"
   id="path5" />
  </g>
  <g
   id="bullet-char-template-10132"
   transform="matrix(4.8828125e-4,0,0,-4.8828125e-4,0,0)">
   <path
   d="M 2015,739 1276,0 H 717 l 543,543 H 174 v 393 h 1086 l -543,545 h 557 z"
   id="path6" />
  </g>
  <g
   id="bullet-char-template-10007"
   transform="matrix(4.8828125e-4,0,0,-4.8828125e-4,0,0)">
   <path
   d="m 0,-2 c -7,16 -16,29 -25,39 l 381,530 c -94,256 -141,385 -141,387 0,25 13,38 40,38 9,0 21,-2 34,-5 21,4 42,12 65,25 l 27,-13 111,-251 280,301 64,-25 24,25 c 21,-10 41,-24 62,-43 C 886,937 835,863 770,784 769,783 710,716 594,584 L 774,223 c 0,-27 -21,-55 -63,-84 l 16,-20 C 717,90 699,76 672,76 641,76 570,178 457,381 L 164,-76 c -22,-34 -53,-51 -92,-51 -42,0 -63,17 -64,51 -7,9 -10,24 -10,44 0,9 1,19 2,30 z"
   id="path7" />
  </g>
  <g
   id="bullet-char-template-10004"
   transform="matrix(4.8828125e-4,0,0,-4.8828125e-4,0,0)">
   <path
   d="M 285,-33 C 182,-33 111,30 74,156 52,228 41,333 41,471 c 0,78 14,145 41,201 34,71 87,106 158,106 53,0 88,-31 106,-94 l 23,-176 c 8,-64 28,-97 59,-98 l 735,706 c 11,11 33,17 66,17 42,0 63,-15 63,-46 V 965 c 0,-36 -10,-64 -30,-84 L 442,47 C 390,-6 338,-33 285,-33 Z"
   id="path8" />
  </g>
  <g
   id="bullet-char-template-9679"
   transform="matrix(4.8828125e-4,0,0,-4.8828125e-4,0,0)">
   <path
   d="M 813,0 C 632,0 489,54 383,161 276,268 223,411 223,592 c 0,181 53,324 160,431 106,107 249,161 430,161 179,0 323,-54 432,-161 108,-107 162,-251 162,-431 0,-180 -54,-324 -162,-431 C 1136,54 992,0 813,0 Z"
   id="path9" />
  </g>
  <g
   id="bullet-char-template-8226"
   transform="matrix(4.8828125e-4,0,0,-4.8828125e-4,0,0)">
   <path
   d="m 346,457 c -73,0 -137,26 -191,78 -54,51 -81,114 -81,188 0,73 27,136 81,188 54,52 118,78 191,78 73,0 134,-26 185,-79 51,-51 77,-114 77,-187 0,-75 -25,-137 -76,-188 -50,-52 -112,-78 -186,-78 z"
   id="path10" />
  </g>
  <g
   id="bullet-char-template-8211"
   transform="matrix(4.8828125e-4,0,0,-4.8828125e-4,0,0)">
   <path
   d="M -4,459 H 1135 V 606 H -4 Z"
   id="path11" />
  </g>
  <g
   id="bullet-char-template-61548"
   transform="matrix(4.8828125e-4,0,0,-4.8828125e-4,0,0)">
   <path
   d="m 173,740 c 0,163 58,303 173,419 116,115 255,173 419,173 163,0 302,-58 418,-173 116,-116 174,-256 174,-419 0,-163 -58,-303 -174,-418 C 1067,206 928,148 765,148 601,148 462,206 346,322 231,437 173,577 173,740 Z"
   id="path12" />
  </g>
 </defs>
 <g
   id="g12"
   transform="translate(-2651,-5768)">
  <g
   id="id2"
   class="Master_Slide">
   <g
   id="bg-id2"
   class="Background" />
   <g
   id="bo-id2"
   class="BackgroundObjects" />
  </g>
 </g>
 <g
   class="SlideGroup"
   id="g26"
   transform="translate(-2651,-5768)">
  <g
   id="g25">
   <g
   id="container-id1">
    <g
   id="id1"
   class="Slide"
   clip-path="url(#presentation_clip_path)">
     <g
   class="Page"
   id="g24">
      <g
   class="Group"
   id="g23">
       <g
   class="com.sun.star.drawing.PolyPolygonShape"
   id="g13">
        <g
   id="id3">
         <rect
   class="BoundingBox"
   stroke="none"
   fill="none"
   x="2651"
   y="5768"
   width="15001"
   height="14996"
   id="rect12" />
         <path
   fill="#fefefe"
   stroke="none"
   d="M 2652,5768 V 20763 H 17651 V 5768 Z"
   id="path13" />
        </g>
       </g>
       <g
   class="com.sun.star.drawing.ClosedBezierShape"
   id="g14"
   style="display:inline">
        <g
   id="id4">
         <rect
   class="BoundingBox"
   stroke="none"
   fill="none"
   x="5886"
   y="6274"
   width="8516"
   height="13981"
   id="rect13" />
         <path
   fill="#826500"
   stroke="none"
   d="m 10319,20253 c 5,-760 -27,-1726 618,-2275 353,-224 628,-103 916,175 67,93 135,185 202,278 140,269 222,515 305,809 -522,560 -1258,949 -2041,1013 z m 0,0 z m -631,-30 c -530,-133 -953,-307 -1371,-645 0,-174 0,-347 0,-520 48,-357 186,-1477 827,-1200 637,537 576,1627 569,2365 -9,0 -17,0 -25,0 z m 0,0 z M 7868,19185 c -19,-42 -221,-272 -424,-524 -201,-290 -201,-290 -378,-580 0,-148 124,-250 245,-319 265,0 380,347 449,548 72,292 106,575 133,881 -9,-2 -17,-4 -25,-6 z m 0,0 z m 4864,-567 c -97,-6 -193,-12 -290,-18 -57,-129 -114,-258 -172,-386 108,-339 297,-585 689,-585 114,32 386,118 386,259 -142,247 -293,484 -455,724 -53,2 -106,4 -158,6 z m 0,0 z m -2489,-193 c -177,-15 -354,-28 -530,-42 -36,-109 -72,-218 -108,-326 48,-142 106,-258 203,-374 239,-130 365,-59 517,157 101,253 101,253 101,289 -42,97 -85,193 -126,290 -19,2 -38,4 -57,6 z m 0,0 z m -2021,-157 c -114,-10 -229,-21 -342,-30 -23,-81 -47,-161 -69,-242 30,-201 146,-505 398,-343 91,132 138,215 158,380 -25,76 -50,152 -76,229 -23,2 -47,4 -69,6 z m 0,0 z m -1529,-923 c -30,-77 -60,-154 -89,-230 750,-25 1500,-51 2250,-77 315,-65 631,-130 947,-193 2,-366 4,-730 7,-1094 -113,-108 -497,-78 -614,-78 -993,82 -1987,165 -2981,247 -126,-566 -226,-1132 -271,-1701 44,-54 208,-175 252,-230 167,-119 163,-247 385,-247 27,-23 54,-45 82,-67 134,-169 259,-321 449,-415 201,-49 239,-73 315,-97 114,-97 114,-97 259,-260 140,-57 233,-178 310,-295 26,-4 52,-8 77,-12 89,68 168,160 296,151 0,-220 148,-245 348,-272 41,-39 92,30 126,-42 89,7 129,-38 215,-48 0,-30 155,-79 202,-79 194,260 449,531 708,748 241,155 473,334 694,532 119,75 220,137 328,240 152,97 152,97 171,127 107,42 107,42 183,91 164,48 164,48 202,72 24,62 261,165 353,175 29,55 54,44 114,61 17,98 182,51 267,30 6,-54 -8,-66 0,-109 308,-117 587,-339 858,-519 29,0 59,0 89,0 606,290 606,290 1131,525 -48,509 -130,1012 -241,1521 -202,723 -202,723 -221,742 -1289,66 -2578,132 -3866,199 0,33 0,65 0,97 3588,-115 3588,-115 3815,-133 -94,291 -94,291 -170,471 -221,18 -221,18 -6980,169 z m 0,0 z m 404,-325 c 0,-340 0,-678 0,-1015 88,-4 177,-9 265,-12 -4,335 -9,671 -13,1009 -84,6 -168,12 -252,18 z m 0,0 z m 1921,-73 c 0,-28 0,-57 0,-84 29,-5 58,-9 88,-12 -5,30 -9,60 -13,90 -25,2 -50,4 -75,6 z m 0,0 z m 594,-121 c 0,-28 0,-57 0,-85 20,-4 41,-9 63,-12 -6,67 2,84 -63,97 z m 0,0 z m -657,-127 c -48,-46 -35,-96 -13,-139 17,-3 34,-5 51,-6 58,55 45,124 -38,145 z m 0,0 z m 126,-43 c -5,-55 -17,-89 50,-102 19,18 19,18 19,78 -19,18 -19,18 -69,24 z m 0,0 z m -2666,-66 c -94,-284 -94,-284 -151,-513 189,-18 189,-18 245,-12 -4,169 -8,338 -12,507 -44,18 -44,18 -82,18 z m 0,0 z m 3159,-12 c -3,-27 -5,-53 -7,-79 15,-2 29,-4 45,-6 2,22 3,44 6,67 -19,18 -19,18 -44,18 z m 0,0 z m 114,0 c -33,-52 -23,-76 6,-115 14,-2 29,-4 44,-6 25,55 27,121 -50,121 z m 0,0 z m -3071,-6 c 4,-175 8,-351 13,-525 117,-10 235,-21 354,-30 -5,174 -9,349 -13,525 -38,12 -38,12 -354,30 z m 0,0 z m 859,-61 c 3,-179 8,-358 12,-536 114,-11 228,-21 342,-30 2,176 3,353 6,530 -120,12 -240,24 -360,36 z m 0,0 z m 480,-36 c -2,-177 -4,-354 -6,-530 125,-13 248,-25 373,-37 -5,179 -9,357 -13,537 -118,9 -235,20 -354,30 z m 0,0 z m 658,-48 c -5,-181 -9,-363 -13,-543 54,-4 109,-9 164,-12 2,177 4,354 7,531 -53,7 -106,15 -158,24 z m 0,0 z m 303,-30 c -3,-116 -48,-452 0,-531 80,-4 159,-9 240,-12 42,41 19,427 19,512 -46,44 -202,31 -259,31 z m 0,0 z m 341,-37 c -3,-167 -5,-334 -7,-500 57,-6 114,-12 171,-18 42,40 14,423 13,506 -64,12 -64,12 -177,12 z m 0,0 z m 265,-24 c -9,-115 -53,-407 0,-494 67,-4 135,-9 202,-12 21,111 55,392 0,482 -139,24 -139,24 -202,24 z m 0,0 z m 2298,-2316 c -114,-63 -418,-163 -454,-248 -50,-18 -101,-66 -404,-259 -19,-30 -76,-72 -94,-102 -320,-271 -673,-513 -1030,-718 -76,-73 -76,-73 -101,-79 0,-8 0,-16 0,-24 -25,-15 -50,-28 -76,-42 -177,-281 -488,-628 -846,-628 -209,132 -409,272 -594,434 -126,73 -126,73 -151,73 -271,-258 -660,110 -885,242 -266,192 -266,192 -733,578 -177,170 -398,361 -524,573 -11,4 -22,8 -32,12 -131,-2474 931,-7546 4309,-7558 2065,-7 3484,2483 3901,4392 -22,4 -53,13 -74,17 4,-16 8,-33 13,-48 -13,6 -26,12 -38,18 -5,22 -9,44 -13,66 -189,-7 -259,69 -422,133 1,16 3,32 6,49 -84,-5 -103,-16 -127,60 -9,0 -17,0 -25,0 0,8 0,16 0,24 -12,0 -25,0 -38,0 0,8 0,16 0,24 -17,0 -34,0 -50,0 0,8 0,16 0,24 -165,18 -165,18 -228,42 -25,24 -25,24 -63,30 0,8 0,16 0,24 8,0 16,0 25,0 0,8 0,16 0,24 -9,0 -17,0 -25,0 0,-8 0,-16 0,-24 -30,4 -60,8 -89,12 0,20 0,40 0,61 -12,0 -25,0 -38,0 0,-12 0,-24 0,-36 -12,0 -25,0 -37,0 0,27 0,56 0,84 -38,12 -76,24 -114,36 19,-45 38,-22 38,-72 -55,30 -71,25 -89,84 -38,0 -76,0 -113,0 0,8 0,16 0,25 8,0 17,0 26,0 0,7 0,15 0,24 -9,0 -18,0 -26,0 0,-9 0,-17 0,-24 -23,3 -47,7 -69,12 2,27 3,56 6,84 -17,0 -34,0 -50,0 0,-8 0,-16 0,-24 8,0 16,0 25,0 0,-9 0,-16 0,-24 -91,4 -128,37 -202,48 -5,16 -10,32 -13,49 13,0 25,0 38,0 0,12 0,24 0,36 -38,-6 -77,-12 -115,-18 -19,18 -19,18 -25,66 -9,0 -17,0 -26,0 0,-12 0,-24 0,-36 -67,19 -63,17 -101,72 -9,0 -17,0 -25,0 0,-20 0,-40 0,-60 -90,59 -159,122 -265,109 -24,65 -154,88 -215,102 -59,43 -91,81 -164,91 -52,100 -216,42 -265,162 -139,48 -139,48 -190,54 0,8 0,16 0,25 -76,18 -70,11 -113,72 -87,9 -153,60 -227,97 3,15 8,32 12,48 -9,0 -17,0 -25,0 0,-12 0,-24 0,-36 -9,0 -17,0 -25,0 0,8 0,15 0,24 -121,19 -184,159 -279,181 0,12 0,24 0,36 154,-24 258,-175 430,-175 66,-45 108,-90 189,-102 0,7 0,15 0,24 29,1 59,3 89,6 25,-41 55,-69 101,-79 0,8 0,16 0,24 48,-22 45,-38 63,-84 22,-4 46,-9 69,-12 2,-12 4,-24 7,-36 -17,3 -35,7 -51,12 0,-12 0,-25 0,-37 72,4 143,8 215,12 -4,-24 -9,-48 -13,-72 9,0 17,0 26,0 0,-12 0,-24 0,-36 8,0 16,0 25,0 0,8 0,15 0,24 38,-6 51,-18 126,-24 0,15 0,32 0,48 15,-4 29,-9 45,-12 -3,-27 -5,-53 -7,-79 -9,-1 -17,-3 -25,-5 0,-8 0,-16 0,-24 55,9 54,13 63,72 17,1 34,3 51,6 4,-11 8,-21 13,-30 -11,-5 -22,-9 -32,-12 -3,-17 -5,-32 -6,-48 12,0 25,0 38,0 0,8 0,16 0,24 20,0 41,0 63,0 0,8 0,16 0,24 8,0 16,0 24,0 0,-8 0,-16 0,-24 23,-4 46,-8 70,-12 1,-12 3,-24 6,-36 10,-4 21,-9 32,-12 6,-23 12,-45 19,-67 64,-30 72,-38 151,-30 0,-12 0,-24 0,-36 21,0 42,0 64,0 0,12 0,24 0,36 9,-4 20,-8 31,-12 0,-33 0,-65 0,-97 10,-4 21,-8 32,-12 0,20 0,40 0,61 90,14 121,-8 216,-30 12,12 12,12 38,12 8,-15 16,-29 25,-43 -9,0 -17,0 -25,0 0,-8 0,-16 0,-24 54,-8 109,-16 164,-24 29,-110 119,-104 227,-121 -19,-36 -19,-36 -13,-78 21,-6 41,-12 63,-18 -19,36 -19,36 -25,84 14,-4 29,-8 44,-12 2,-12 4,-24 6,-36 21,2 42,3 64,6 61,-59 36,-130 126,-187 -4,39 -13,49 13,90 12,0 25,0 38,0 37,-35 33,-34 88,-42 0,-9 0,-16 0,-24 19,-4 38,-9 57,-12 0,-110 40,-82 145,-97 4,-10 9,-21 13,-30 16,-3 34,-4 51,-6 0,8 0,15 0,24 -11,4 -22,8 -32,12 2,14 4,28 6,42 13,2 26,4 38,6 4,-10 8,-20 13,-30 16,-6 33,-12 51,-18 0,-8 0,-16 0,-24 -10,0 -18,0 -26,0 0,-9 0,-16 0,-24 8,0 16,0 26,0 0,12 0,24 0,36 8,0 16,0 24,0 0,-9 0,-16 0,-24 25,-9 50,-16 76,-24 2,-24 3,-49 6,-72 44,-30 89,-60 133,-90 38,-61 38,-61 63,-67 0,8 0,16 0,24 16,0 33,0 51,0 0,8 0,16 0,24 -9,0 -18,0 -26,0 0,8 0,16 0,25 17,1 34,3 51,6 58,-97 53,-140 164,-127 206,1077 323,2154 240,3258 -341,-144 -682,-286 -1023,-428 -274,-73 -318,-57 -581,47 -243,124 -662,375 -949,375 z m 0,0 z m -138,-1032 c 28,-74 298,-164 398,-194 1,-8 3,-16 6,-24 88,-23 150,-39 228,-89 21,6 42,12 64,18 -5,-11 -9,-21 -13,-30 57,-43 74,-39 152,-49 51,-30 100,-79 164,-66 -4,-11 -9,-21 -12,-30 138,-49 163,-73 213,-79 0,8 0,16 0,24 -12,0 -25,0 -37,0 3,20 8,40 12,61 27,-12 54,-25 83,-37 1,-8 3,-16 6,-24 -11,4 -22,8 -32,12 2,-22 4,-45 6,-66 13,-3 26,-4 38,-6 0,12 0,24 0,36 21,2 42,4 64,6 60,-87 102,-73 214,-84 26,-25 26,-25 64,-31 0,-8 0,-16 0,-24 -38,12 -76,24 -114,37 -3,-13 -5,-25 -6,-37 95,-33 191,-88 284,-121 -15,40 -30,81 -44,121 -122,55 -197,127 -335,127 -105,100 -294,160 -429,181 -88,42 -132,76 -228,67 0,91 -65,32 -101,24 8,14 16,27 25,41 -75,32 -123,61 -203,61 -9,7 -17,15 -25,24 -9,-3 -17,-5 -25,-6 0,9 0,20 0,30 -291,97 -291,97 -417,127 z m 0,0 z m -607,-218 c 0,-12 0,-24 0,-35 93,-41 217,-80 291,-151 81,0 127,9 177,-73 42,-14 84,-28 127,-42 0,8 0,16 0,24 8,0 16,0 25,0 4,-47 -5,-78 50,-78 -4,9 -9,20 -12,30 12,0 25,0 38,0 14,-57 30,-52 87,-78 13,6 26,12 38,18 -4,-11 -9,-21 -12,-31 12,-2 25,-4 38,-5 0,-9 0,-17 0,-25 57,-20 138,-77 189,-84 0,15 0,32 0,48 8,0 16,0 25,0 22,-129 207,-150 318,-133 0,-12 0,-24 0,-36 6,0 12,0 19,0 -8,49 -35,34 -45,72 100,-37 83,-139 222,-157 -13,12 -13,12 0,61 -77,24 -78,27 -102,96 -59,34 -124,30 -183,25 -32,81 -54,75 -140,90 -51,28 -101,56 -152,85 -148,46 -275,117 -416,157 -183,108 -376,181 -582,222 z m 0,0 z m 2389,-488 c 8,-30 16,-60 25,-91 42,-8 83,-16 126,-24 -26,64 -89,107 -151,115 z m 0,0 z m -884,-91 c 8,-20 16,-40 25,-60 78,-7 139,-49 214,-60 -21,83 -162,102 -239,120 z m 0,0 z m 101,-108 c 4,-23 7,-45 12,-67 44,-18 63,-48 101,-54 0,28 0,56 0,84 -38,13 -76,25 -113,37 z m 0,0 z m 164,-18 c 19,-19 19,-19 25,-55 40,-14 73,-55 88,-90 21,-3 42,-5 64,-6 0,-8 0,-16 0,-24 -9,0 -18,0 -26,0 4,-10 8,-20 13,-30 97,-8 148,-9 202,-97 51,12 51,12 51,25 -52,12 -72,63 -89,102 51,-30 51,-30 133,-48 2,-12 4,-24 6,-36 13,0 26,0 38,0 0,-9 0,-17 0,-24 -12,0 -25,0 -38,0 0,-9 0,-17 0,-25 17,0 34,0 51,0 0,-16 0,-32 0,-48 27,4 54,8 82,12 -19,30 -19,30 -44,36 0,12 0,25 0,37 16,-5 33,-9 50,-12 4,-11 9,-21 13,-31 13,12 13,12 44,6 -4,16 -9,32 -12,49 -16,-5 -30,-9 -45,-12 -4,13 -9,27 -12,42 -13,2 -25,3 -38,6 0,-9 0,-16 0,-24 -9,0 -17,0 -25,0 0,12 0,24 0,36 -13,0 -26,0 -38,0 0,10 0,20 0,30 -18,4 -35,7 -51,11 4,-10 8,-19 13,-29 -13,0 -26,0 -38,0 -5,10 -9,19 -13,29 -55,20 -144,67 -196,55 2,-9 4,-17 6,-24 -12,0 -25,0 -37,0 0,7 0,15 0,24 -11,3 -22,8 -32,12 -3,20 -4,40 -6,60 -102,43 -102,43 -139,43 z m 0,0 z m 0,-73 c -9,-2 -18,-4 -26,-6 2,-12 4,-24 7,-36 14,-9 28,-17 44,-24 2,15 4,32 6,48 -11,6 -22,12 -31,18 z m 0,0 z m -797,-204 c -17,-13 -34,-25 -51,-37 26,2 51,4 76,6 -6,25 -6,25 -25,31 z m 0,0 z m 1492,6 c 0,-25 0,-49 0,-73 13,0 25,0 38,0 0,-8 0,-16 0,-24 -34,8 -68,16 -101,24 0,-12 0,-24 0,-36 52,-35 57,-41 125,-48 19,-37 19,-37 51,-49 0,12 0,25 0,37 8,0 16,0 25,0 0,7 0,15 0,24 -17,6 -34,12 -50,18 -17,89 -2,114 -88,127 z m 0,0 z m -3387,-37 c 0,-12 0,-24 0,-36 67,-25 150,-50 190,-115 16,-2 33,-4 51,-6 3,-16 8,-32 12,-48 13,0 25,0 38,0 4,14 8,28 13,42 74,0 95,-44 120,-102 61,-17 67,-18 133,0 0,-33 0,-65 0,-97 14,0 29,0 44,0 -3,12 -5,24 -6,36 16,-4 33,-8 50,-12 -4,-10 -9,-20 -13,-30 44,-16 57,-47 89,-54 0,7 0,15 0,24 8,0 16,0 24,0 12,-91 41,-74 127,-85 3,-18 8,-36 12,-54 10,-3 21,-4 32,-6 2,20 4,40 6,60 10,-4 21,-8 32,-12 41,-99 130,-102 234,-145 0,8 0,16 0,24 8,0 16,0 25,0 0,-8 0,-16 0,-24 21,-4 42,-8 63,-12 -6,36 -19,49 -25,97 8,0 16,0 25,0 14,-80 57,-193 146,-193 -3,12 -5,24 -6,36 8,-3 16,-5 25,-6 -5,20 -9,39 -13,60 -12,-12 -12,-12 -44,-6 -3,12 -5,24 -7,36 11,0 21,0 32,0 -9,28 -17,56 -25,85 -11,-4 -22,-9 -32,-12 0,12 0,24 0,36 -76,-18 -76,-18 -145,-12 -6,26 -13,52 -19,78 -17,7 -34,13 -51,19 0,-9 0,-17 0,-24 -50,6 -63,-7 -101,-25 13,18 25,37 38,55 -17,1 -34,3 -50,6 -5,13 -9,27 -13,42 -17,-3 -34,-4 -51,-6 -4,9 -9,20 -12,30 -84,0 -136,48 -215,67 -5,9 -8,19 -12,30 -47,18 -93,36 -139,54 0,-9 0,-16 0,-24 -9,0 -17,0 -25,0 -36,70 -110,60 -139,127 -165,48 -165,48 -253,96 -55,2 -110,4 -165,6 z m 0,0 z m 3500,-12 c -3,-16 -5,-32 -6,-48 18,-18 18,-18 221,-48 0,-9 0,-17 0,-24 16,0 33,0 50,0 0,-9 0,-17 0,-25 -12,-2 -25,-4 -38,-6 79,-45 135,-49 228,-66 -72,104 -273,154 -392,205 0,-8 0,-16 0,-24 -9,0 -17,0 -25,0 0,12 0,24 0,36 -13,0 -26,0 -38,0 z m 0,0 z m 152,-108 c -7,-57 -1,-62 19,-109 14,-4 29,-9 44,-12 6,36 6,36 -25,109 -26,0 -26,0 -38,12 z m 0,0 z m -1024,-145 c 0,-12 0,-24 0,-37 29,0 59,0 89,0 -5,10 -9,20 -13,31 -25,1 -50,3 -76,6 z m 0,0 z m 278,-133 c -2,-21 -4,-41 -6,-60 15,-3 29,-5 44,-7 2,19 4,37 7,55 -16,3 -30,8 -45,12 z m 0,0 z m -1465,-163 c -9,-9 -17,-17 -25,-24 44,-43 113,-49 176,-55 0,-8 0,-16 0,-24 19,4 37,8 56,12 0,81 -153,91 -207,91 z m 0,0 z m 227,-109 c -7,-30 -7,-30 12,-102 10,-4 21,-8 32,-12 2,-16 3,-33 6,-48 8,0 16,0 25,0 0,-9 0,-16 0,-24 61,-14 64,-62 114,-73 0,8 0,16 0,24 8,0 16,0 25,0 13,-40 26,-81 38,-120 26,6 51,12 76,18 7,30 7,30 -6,42 -11,-4 -22,-9 -32,-12 7,36 7,36 -12,109 8,0 16,0 25,0 0,-12 0,-25 0,-37 32,-4 63,-8 95,-12 6,-24 12,-48 19,-72 -9,1 -18,3 -26,6 8,-3 17,-5 26,-6 3,-17 8,-33 12,-49 -9,0 -17,0 -25,0 0,-12 0,-24 0,-36 89,18 89,18 102,30 -11,6 -22,13 -31,19 -3,15 -5,32 -7,48 8,0 16,0 25,0 0,12 0,24 0,36 -9,0 -17,0 -25,0 2,8 4,16 7,24 -7,0 -13,0 -19,0 -6,16 -10,32 -14,49 14,1 26,3 39,6 -13,12 -13,12 -45,6 -3,-9 -5,-17 -7,-24 -28,3 -55,7 -82,12 -3,12 -4,24 -6,36 -66,5 -63,5 -108,48 -6,-15 -12,-28 -19,-42 -25,-3 -50,-4 -75,-6 -18,32 -35,64 -51,96 10,-4 21,-8 32,-12 1,8 3,16 6,24 -9,0 -17,0 -25,0 -17,45 -57,54 -101,54 z m 0,0 z m -202,-6 c -3,-24 -4,-48 -6,-72 14,-6 29,-12 44,-18 4,-18 8,-36 13,-54 12,0 25,0 38,0 19,60 19,60 12,84 8,0 16,0 25,0 0,12 0,24 0,36 -25,-3 -50,-4 -75,-6 -5,9 -9,20 -13,30 -13,0 -25,0 -38,0 z m 0,0 z m 353,-36 c -4,-18 -9,-36 -12,-54 63,0 63,0 88,12 -25,24 -25,24 -76,42 z m 0,0 z m -227,-60 c -4,-24 -9,-48 -12,-72 12,0 25,0 38,0 3,15 8,32 12,48 12,2 25,4 38,6 -13,12 -13,12 -76,18 z m 0,0 z m 582,-121 c 13,-42 25,-84 38,-126 10,-3 21,-5 32,-6 -3,7 -5,15 -7,24 9,0 17,0 26,0 -7,36 -32,60 -38,96 -17,4 -35,8 -51,12 z m 0,0 z m 1705,-18 c 19,-22 38,-45 57,-66 4,8 8,15 13,24 -7,14 -13,28 -19,42 -18,0 -35,0 -51,0 z m 0,0 z m -1566,-30 c 0,-9 0,-16 0,-24 -9,0 -17,0 -25,0 6,-24 13,-48 19,-73 19,19 19,19 69,19 2,18 4,36 7,54 -19,18 -19,18 -70,24 z m 0,0 z m 127,-54 c -22,-21 -43,-41 -64,-61 10,-10 21,-20 32,-30 2,16 4,32 6,48 10,4 21,8 32,13 -3,9 -4,19 -6,30 z m 0,0 z m 38,-6 c 3,-24 8,-49 12,-73 37,-8 75,-16 113,-24 0,-9 0,-16 0,-24 16,0 34,0 51,0 0,-9 0,-16 0,-24 -13,0 -26,0 -38,0 0,-9 0,-17 0,-24 77,-37 122,-50 221,-37 0,67 -82,75 -133,85 -4,9 -9,20 -12,30 -85,23 -139,69 -214,91 z m 0,0 z m -140,-37 c 0,-8 0,-16 0,-24 -46,0 -92,0 -139,0 2,-16 4,-33 7,-48 14,3 29,8 44,12 0,-12 0,-24 0,-36 16,3 33,8 51,12 3,-23 8,-45 12,-66 8,-3 16,-5 25,-7 0,16 0,32 0,49 17,0 34,0 51,0 -6,36 -31,60 -51,108 z m 0,0 z m 215,-90 c -9,-3 -17,-4 -25,-6 0,-9 0,-17 0,-24 -12,0 -25,0 -38,0 4,-33 8,-65 13,-97 16,0 32,0 50,0 0,28 0,56 0,85 8,0 16,0 25,0 2,12 3,24 6,36 -11,2 -21,3 -31,6 z"
   id="path14" />
        </g>
       </g>
       <g
   class="Group"
   id="g19"
   style="display:none">
        <g
   class="com.sun.star.drawing.LineShape"
   id="g15">
         <g
   id="id5">
          <rect
   class="BoundingBox"
   stroke="none"
   fill="none"
   x="2628"
   y="5770"
   width="53"
   height="14994"
   id="rect14" />
          <path
   fill="none"
   stroke="#1b1918"
   stroke-width="51"
   stroke-linejoin="miter"
   d="M 2654,20763 V 5770"
   id="path15" />
         </g>
        </g>
        <g
   class="com.sun.star.drawing.LineShape"
   id="g16">
         <g
   id="id6">
          <rect
   class="BoundingBox"
   stroke="none"
   fill="none"
   x="2654"
   y="20737"
   width="14997"
   height="53"
   id="rect15" />
          <path
   fill="none"
   stroke="#1b1918"
   stroke-width="51"
   stroke-linejoin="miter"
   d="M 17650,20763 H 2654"
   id="path16" />
         </g>
        </g>
        <g
   class="com.sun.star.drawing.LineShape"
   id="g17">
         <g
   id="id7">
          <rect
   class="BoundingBox"
   stroke="none"
   fill="none"
   x="17624"
   y="5770"
   width="53"
   height="14994"
   id="rect16" />
          <path
   fill="none"
   stroke="#1b1918"
   stroke-width="51"
   stroke-linejoin="miter"
   d="M 17650,5770 V 20763"
   id="path17" />
         </g>
        </g>
        <g
   class="com.sun.star.drawing.LineShape"
   id="g18">
         <g
   id="id8">
          <rect
   class="BoundingBox"
   stroke="none"
   fill="none"
   x="2654"
   y="5744"
   width="14997"
   height="53"
   id="rect17" />
          <path
   fill="none"
   stroke="#1b1918"
   stroke-width="51"
   stroke-linejoin="miter"
   d="M 2654,5770 H 17650"
   id="path18" />
         </g>
        </g>
       </g>
       <g
   class="com.sun.star.drawing.ClosedBezierShape"
   id="g20">
        <g
   id="id9">
         <rect
   class="BoundingBox"
   stroke="none"
   fill="none"
   x="11747"
   y="6270"
   width="5405"
   height="13995"
   id="rect19" />
         <path
   fill="#826500"
   stroke="none"
   d="m 11747,20264 5404,-2 V 6270 l -5404,2 c 449,279 807,536 1198,993 l 3208,3 v 11996 h -3208 c -322,398 -762,723 -1198,1000 z"
   id="path19" />
        </g>
       </g>
       <g
   class="com.sun.star.drawing.ClosedBezierShape"
   id="g21">
        <g
   id="id10">
         <rect
   class="BoundingBox"
   stroke="none"
   fill="none"
   x="3154"
   y="6269"
   width="5394"
   height="13996"
   id="rect20" />
         <path
   fill="#826500"
   stroke="none"
   d="m 8547,20264 -5393,-2 V 6270 l 5393,2 c -427,251 -843,561 -1199,993 l -3196,3 v 11996 h 3196 c 320,403 775,726 1199,1000 z"
   id="path20" />
        </g>
       </g>
       <g
   class="com.sun.star.drawing.ClosedBezierShape"
   id="g22">
        <g
   id="id11">
         <rect
   class="BoundingBox"
   stroke="none"
   fill="none"
   x="8000"
   y="7212"
   width="2433"
   height="2145"
   id="rect21" />
         <path
   fill="#ffffff"
   stroke="none"
   d="m 9443,7240 c 48,5 93,11 140,22 9,6 17,11 26,20 3,42 -270,554 -292,618 5,-3 17,17 31,9 45,-59 64,-65 73,-68 39,-39 146,-105 146,-105 31,-22 182,-126 233,-154 34,-6 51,-28 82,-34 20,-5 45,-5 59,12 17,22 45,42 48,75 19,54 47,99 59,156 14,5 -3,17 0,25 -17,14 -37,22 -51,39 -6,-3 -8,6 -14,9 -14,2 -22,22 -39,22 -82,67 -164,118 -248,183 v 2 c 206,37 396,107 582,191 31,11 61,25 90,42 h 5 c 23,20 59,17 59,51 -3,14 -3,22 -14,31 -28,36 -31,87 -62,123 -17,14 -36,28 -59,28 -16,9 -30,3 -50,11 -6,-8 -17,-16 -31,-11 -31,14 -73,26 -107,11 -64,-33 -129,-70 -193,-95 -142,-50 -282,-87 -436,-95 l -99,2 c -8,3 -8,12 -8,20 11,20 31,28 48,42 70,82 160,171 241,239 81,76 164,140 237,214 53,42 28,112 45,166 0,14 0,28 -11,33 -9,0 -15,6 -17,12 -31,8 -51,28 -73,42 -12,11 -14,19 -24,28 v 5 c -17,28 -45,40 -76,42 -8,3 -16,6 -22,9 -17,-6 -22,20 -34,8 -53,-59 -120,-98 -171,-160 -31,-19 -53,-47 -84,-67 -87,-87 -152,-168 -241,-254 -3,9 -3,12 0,23 -9,68 11,136 16,197 14,73 26,146 40,222 14,48 19,93 14,149 -3,5 0,17 -12,19 -28,14 -56,0 -84,-5 -5,-11 -19,-9 -28,-14 -17,3 -36,-3 -50,3 -9,-3 -14,8 -23,2 -3,9 -5,-2 -11,0 -20,-2 -39,-5 -59,-8 -20,-8 -42,-8 -62,-17 -5,-11 -5,-25 -11,-39 -28,-132 -56,-275 -59,-410 -8,-25 0,-51 -5,-74 -87,88 -163,186 -225,293 -22,17 -32,65 -68,48 -3,0 -6,-6 -9,-3 -5,-3 -8,-11 -8,-17 -9,-14 -20,-17 -28,-25 -37,-3 -70,-17 -104,-25 -20,-9 -23,-31 -37,-40 -5,-25 -42,-25 -42,-48 -5,-11 -5,-16 0,-25 14,-11 17,-31 28,-45 71,-99 141,-192 216,-279 63,-81 147,-162 204,-249 14,-20 -17,-20 -20,-34 -23,-8 -51,0 -70,-8 -56,0 -102,-12 -156,-3 -36,-9 -81,31 -106,-14 -3,-6 -6,-14 -14,-14 -12,8 -28,8 -34,19 -14,3 -36,0 -53,3 -65,11 -135,17 -197,25 -19,3 -42,12 -59,6 -22,-14 -19,-39 -22,-62 -20,-8 -25,-28 -37,-42 -5,-31 -11,-56 -16,-84 2,-3 5,-11 11,-11 3,0 8,0 11,-6 l -6,-14 c 14,-17 34,-17 51,-31 48,-19 104,-19 157,-33 109,-20 230,-17 348,-20 6,-6 -6,-11 -3,-17 -25,-34 -45,-70 -64,-109 -34,-54 -79,-101 -110,-158 -14,-14 -19,-29 -33,-37 -9,-11 -14,-28 -23,-42 -3,-23 -22,-62 6,-76 61,-56 120,-115 193,-154 -2,-14 14,-6 20,-14 3,8 11,2 17,2 28,6 40,37 51,57 12,16 6,50 31,59 59,36 65,109 110,160 39,76 104,132 154,200 9,3 11,14 20,17 0,8 11,5 11,14 14,-45 31,-96 48,-143 25,-80 42,-161 70,-240 3,-34 22,-62 28,-95 17,-31 22,-68 39,-102 0,-19 20,-33 20,-53 0,-3 42,-70 42,-76 14,-11 25,-30 45,-30 67,5 132,28 199,28 z"
   id="path21" />
        </g>
       </g>
      </g>
     </g>
    </g>
   </g>
  </g>
 </g>
</svg>
