<?xml version="1.0" encoding="UTF-8" standalone="no"?>
<svg
   version="1.2"
   width="150.00999mm"
   height="149.95999mm"
   viewBox="0 0 15001 14995.999"
   preserveAspectRatio="xMidYMid"
   fill-rule="evenodd"
   stroke-width="28.222"
   stroke-linejoin="round"
   xml:space="preserve"
   id="svg26"
   sodipodi:docname="ID15a22.svg"
   inkscape:version="1.2.2 (b0a8486541, 2022-12-01)"
   xmlns:inkscape="http://www.inkscape.org/namespaces/inkscape"
   xmlns:sodipodi="http://sodipodi.sourceforge.net/DTD/sodipodi-0.dtd"
   xmlns="http://www.w3.org/2000/svg"
   xmlns:svg="http://www.w3.org/2000/svg"
   xmlns:ooo="http://xml.openoffice.org/svg/export"><sodipodi:namedview
   id="namedview26"
   pagecolor="#ffffff"
   bordercolor="#000000"
   borderopacity="0.25"
   inkscape:showpageshadow="2"
   inkscape:pageopacity="0.0"
   inkscape:pagecheckerboard="true"
   inkscape:deskcolor="#d1d1d1"
   inkscape:document-units="mm"
   fit-margin-top="50"
   fit-margin-left="50"
   fit-margin-right="50"
   fit-margin-bottom="50"
   showgrid="false"
   inkscape:zoom="6.6724731"
   inkscape:cx="555.79092"
   inkscape:cy="36.268411"
   inkscape:window-width="1280"
   inkscape:window-height="731"
   inkscape:window-x="0"
   inkscape:window-y="0"
   inkscape:window-maximized="1"
   inkscape:current-layer="svg26" />
 <defs
   class="ClipPathGroup"
   id="defs2">
  <clipPath
   id="presentation_clip_path"
   clipPathUnits="userSpaceOnUse">
   <rect
   x="0"
   y="0"
   width="21001"
   height="29703"
   id="rect1" />
  </clipPath>
  <clipPath
   id="presentation_clip_path_shrink"
   clipPathUnits="userSpaceOnUse">
   <rect
   x="21"
   y="29"
   width="20959"
   height="29644"
   id="rect2" />
  </clipPath>
 </defs>
 <defs
   class="TextShapeIndex"
   id="defs3">
  <g
   ooo:slide="id1"
   ooo:id-list="id3 id4 id5 id6 id7 id8 id9 id10 id11"
   id="g2" />
 </defs>
 <defs
   class="EmbeddedBulletChars"
   id="defs12">
  <g
   id="bullet-char-template-57356"
   transform="matrix(4.8828125e-4,0,0,-4.8828125e-4,0,0)">
   <path
   d="M 580,1141 1163,571 580,0 -4,571 Z"
   id="path3" />
  </g>
  <g
   id="bullet-char-template-57354"
   transform="matrix(4.8828125e-4,0,0,-4.8828125e-4,0,0)">
   <path
   d="M 8,1128 H 1137 V 0 H 8 Z"
   id="path4" />
  </g>
  <g
   id="bullet-char-template-10146"
   transform="matrix(4.8828125e-4,0,0,-4.8828125e-4,0,0)">
   <path
   d="M 174,0 602,739 174,1481 1456,739 Z M 1358,739 309,1346 659,739 Z"
   id="path5" />
  </g>
  <g
   id="bullet-char-template-10132"
   transform="matrix(4.8828125e-4,0,0,-4.8828125e-4,0,0)">
   <path
   d="M 2015,739 1276,0 H 717 l 543,543 H 174 v 393 h 1086 l -543,545 h 557 z"
   id="path6" />
  </g>
  <g
   id="bullet-char-template-10007"
   transform="matrix(4.8828125e-4,0,0,-4.8828125e-4,0,0)">
   <path
   d="m 0,-2 c -7,16 -16,29 -25,39 l 381,530 c -94,256 -141,385 -141,387 0,25 13,38 40,38 9,0 21,-2 34,-5 21,4 42,12 65,25 l 27,-13 111,-251 280,301 64,-25 24,25 c 21,-10 41,-24 62,-43 C 886,937 835,863 770,784 769,783 710,716 594,584 L 774,223 c 0,-27 -21,-55 -63,-84 l 16,-20 C 717,90 699,76 672,76 641,76 570,178 457,381 L 164,-76 c -22,-34 -53,-51 -92,-51 -42,0 -63,17 -64,51 -7,9 -10,24 -10,44 0,9 1,19 2,30 z"
   id="path7" />
  </g>
  <g
   id="bullet-char-template-10004"
   transform="matrix(4.8828125e-4,0,0,-4.8828125e-4,0,0)">
   <path
   d="M 285,-33 C 182,-33 111,30 74,156 52,228 41,333 41,471 c 0,78 14,145 41,201 34,71 87,106 158,106 53,0 88,-31 106,-94 l 23,-176 c 8,-64 28,-97 59,-98 l 735,706 c 11,11 33,17 66,17 42,0 63,-15 63,-46 V 965 c 0,-36 -10,-64 -30,-84 L 442,47 C 390,-6 338,-33 285,-33 Z"
   id="path8" />
  </g>
  <g
   id="bullet-char-template-9679"
   transform="matrix(4.8828125e-4,0,0,-4.8828125e-4,0,0)">
   <path
   d="M 813,0 C 632,0 489,54 383,161 276,268 223,411 223,592 c 0,181 53,324 160,431 106,107 249,161 430,161 179,0 323,-54 432,-161 108,-107 162,-251 162,-431 0,-180 -54,-324 -162,-431 C 1136,54 992,0 813,0 Z"
   id="path9" />
  </g>
  <g
   id="bullet-char-template-8226"
   transform="matrix(4.8828125e-4,0,0,-4.8828125e-4,0,0)">
   <path
   d="m 346,457 c -73,0 -137,26 -191,78 -54,51 -81,114 -81,188 0,73 27,136 81,188 54,52 118,78 191,78 73,0 134,-26 185,-79 51,-51 77,-114 77,-187 0,-75 -25,-137 -76,-188 -50,-52 -112,-78 -186,-78 z"
   id="path10" />
  </g>
  <g
   id="bullet-char-template-8211"
   transform="matrix(4.8828125e-4,0,0,-4.8828125e-4,0,0)">
   <path
   d="M -4,459 H 1135 V 606 H -4 Z"
   id="path11" />
  </g>
  <g
   id="bullet-char-template-61548"
   transform="matrix(4.8828125e-4,0,0,-4.8828125e-4,0,0)">
   <path
   d="m 173,740 c 0,163 58,303 173,419 116,115 255,173 419,173 163,0 302,-58 418,-173 116,-116 174,-256 174,-419 0,-163 -58,-303 -174,-418 C 1067,206 928,148 765,148 601,148 462,206 346,322 231,437 173,577 173,740 Z"
   id="path12" />
  </g>
 </defs>
 <g
   id="g12"
   transform="translate(-2652,-5770)">
  <g
   id="id2"
   class="Master_Slide">
   <g
   id="bg-id2"
   class="Background" />
   <g
   id="bo-id2"
   class="BackgroundObjects" />
  </g>
 </g>
 <g
   class="SlideGroup"
   id="g26"
   transform="translate(-2652,-5770)">
  <g
   id="g25">
   <g
   id="container-id1">
    <g
   id="id1"
   class="Slide"
   clip-path="url(#presentation_clip_path)">
     <g
   class="Page"
   id="g24">
      <g
   class="Group"
   id="g23">
       <g
   class="com.sun.star.drawing.PolyPolygonShape"
   id="g13">
        <g
   id="id3">
         <rect
   class="BoundingBox"
   stroke="none"
   fill="none"
   x="2652"
   y="5770"
   width="15001"
   height="14996"
   id="rect12" />
         <path
   fill="#fefefe"
   stroke="none"
   d="M 2653,5770 V 20765 H 17652 V 5770 Z"
   id="path13" />
        </g>
       </g>
       <g
   class="Group"
   id="g18"
   style="display:none">
        <g
   class="com.sun.star.drawing.LineShape"
   id="g14">
         <g
   id="id4">
          <rect
   class="BoundingBox"
   stroke="none"
   fill="none"
   x="2628"
   y="5771"
   width="53"
   height="14994"
   id="rect13" />
          <path
   fill="none"
   stroke="#1b1918"
   stroke-width="51"
   stroke-linejoin="miter"
   d="M 2654,20764 V 5771"
   id="path14" />
         </g>
        </g>
        <g
   class="com.sun.star.drawing.LineShape"
   id="g15">
         <g
   id="id5">
          <rect
   class="BoundingBox"
   stroke="none"
   fill="none"
   x="2654"
   y="20739"
   width="14997"
   height="53"
   id="rect14" />
          <path
   fill="none"
   stroke="#1b1918"
   stroke-width="51"
   stroke-linejoin="miter"
   d="M 17650,20765 H 2654"
   id="path15" />
         </g>
        </g>
        <g
   class="com.sun.star.drawing.LineShape"
   id="g16">
         <g
   id="id6">
          <rect
   class="BoundingBox"
   stroke="none"
   fill="none"
   x="17624"
   y="5771"
   width="53"
   height="14994"
   id="rect15" />
          <path
   fill="none"
   stroke="#1b1918"
   stroke-width="51"
   stroke-linejoin="miter"
   d="M 17650,5771 V 20764"
   id="path16" />
         </g>
        </g>
        <g
   class="com.sun.star.drawing.LineShape"
   id="g17">
         <g
   id="id7">
          <rect
   class="BoundingBox"
   stroke="none"
   fill="none"
   x="2654"
   y="5745"
   width="14997"
   height="53"
   id="rect16" />
          <path
   fill="none"
   stroke="#1b1918"
   stroke-width="51"
   stroke-linejoin="miter"
   d="M 2654,5771 H 17650"
   id="path17" />
         </g>
        </g>
       </g>
       <g
   class="com.sun.star.drawing.ClosedBezierShape"
   id="g19">
        <g
   id="id8">
         <rect
   class="BoundingBox"
   stroke="none"
   fill="none"
   x="11747"
   y="6271"
   width="5405"
   height="13995"
   id="rect18" />
         <path
   fill="#826500"
   stroke="none"
   d="m 11747,20265 5404,-2 V 6271 l -5404,2 c 449,279 807,536 1198,993 l 3208,3 v 11996 h -3208 c -322,398 -762,724 -1198,1000 z"
   id="path18" />
        </g>
       </g>
       <g
   class="com.sun.star.drawing.ClosedBezierShape"
   id="g20">
        <g
   id="id9">
         <rect
   class="BoundingBox"
   stroke="none"
   fill="none"
   x="3155"
   y="6270"
   width="5394"
   height="13996"
   id="rect19" />
         <path
   fill="#826500"
   stroke="none"
   d="m 8548,20265 -5393,-2 V 6271 l 5393,2 c -427,252 -843,561 -1199,993 l -3196,3 v 11996 h 3196 c 320,403 775,726 1199,1000 z"
   id="path19" />
        </g>
       </g>
       <g
   class="com.sun.star.drawing.ClosedBezierShape"
   id="g21">
        <g
   id="id10">
         <rect
   class="BoundingBox"
   stroke="none"
   fill="none"
   x="5899"
   y="6271"
   width="8469"
   height="13996"
   id="rect20" />
         <path
   fill="#826500"
   stroke="none"
   d="m 14367,12346 c -142,-167 -142,-384 -158,-501 -48,-327 -237,-841 -628,-922 -367,14 -631,239 -781,492 l 8,8 c -44,42 -83,142 -97,211 -81,225 -42,437 -22,720 27,294 114,1062 139,1246 -11,175 75,383 -87,430 -72,17 -122,-22 -169,-77 -103,-120 -306,-317 -465,-378 -186,-70 -225,-42 -395,-17 -241,33 -894,203 -1208,289 -189,25 -317,47 -517,25 -339,14 -528,-183 -528,-183 -131,-136 -322,-259 -384,-485 -44,-192 62,-328 170,-464 119,-108 320,-94 456,-44 105,55 664,472 1000,483 306,3 536,-189 759,-508 0,0 280,-414 633,-667 106,-75 232,-114 229,-106 144,-3 19,-147 122,-361 61,-211 100,-306 272,-506 276,-311 640,-461 765,-525 0,0 11,-89 -462,122 -241,109 -255,164 -422,289 -106,81 -153,153 -270,278 -139,145 -231,336 -442,606 -212,267 -489,520 -984,578 -69,8 -353,50 -647,-86 -295,-139 -751,-506 -870,-578 -122,-72 -161,-103 -411,-220 -253,-116 -270,-33 -392,28 -89,45 -704,725 -704,725 -50,45 -95,89 -156,98 -105,-92 -14,-250 -97,-298 -156,0 -114,236 -242,261 -78,62 -111,153 -169,237 -172,189 -553,809 -595,879 -67,125 -164,214 -236,325 3,50 -53,91 67,203 116,111 369,-195 514,-292 0,0 414,-331 661,-297 170,69 275,241 398,402 75,128 234,426 267,537 92,216 6,467 45,700 19,64 55,147 22,203 -42,53 -404,239 -479,255 -75,17 -242,92 -361,123 -42,19 -134,52 -134,52 -178,198 -27,478 -72,754 0,0 3,225 50,316 0,0 150,89 222,139 73,6 150,36 198,-33 0,0 11,-50 8,-61 -92,-89 -189,91 -267,-81 3,-30 -75,-817 39,-825 l 22,-8 c 0,0 699,-220 810,-228 75,-3 125,-34 183,19 39,106 -433,592 -500,709 -68,116 11,280 81,394 50,78 408,134 514,150 172,-25 347,98 486,-69 25,-92 128,-195 67,-272 0,0 -78,-100 -139,-98 -70,17 -75,220 -75,220 -114,139 -350,36 -500,16 -36,-2 -203,-44 -206,-166 25,-103 94,-161 170,-220 13,-19 216,-147 308,-236 0,0 172,-128 258,-183 36,-3 81,-39 103,0 0,0 150,94 286,175 142,80 484,164 603,89 159,-75 423,-273 531,-342 75,-22 178,-167 228,-97 50,64 50,408 42,428 8,136 61,261 -45,377 0,0 -567,453 -786,748 -17,47 -36,103 -81,130 0,0 -69,109 -94,167 -25,95 -75,134 -31,220 14,58 122,58 150,44 125,-55 20,-255 145,-325 69,-69 147,-122 191,-194 178,-206 387,-364 589,-517 62,-56 92,-78 139,-78 50,0 237,169 231,333 -8,142 -158,495 -169,489 0,0 -187,398 -206,423 0,0 -75,116 -89,183 -67,56 -81,164 -103,239 -19,42 -5,122 45,147 27,23 97,23 166,-25 0,0 28,-91 31,-105 19,-223 108,-398 250,-581 0,0 264,-517 339,-603 17,-128 36,-475 36,-475 -19,-142 11,-214 53,-378 55,-203 222,-539 456,-578 22,22 251,-150 381,-264 181,-208 256,-472 370,-720 111,-247 8,-314 36,-472 19,-53 50,-100 89,-142 178,-100 150,-391 139,-611 -6,-89 -36,-837 -45,-887 34,-200 23,-706 237,-762 858,-214 130,2499 1058,2610 -219,2585 -1739,5747 -4122,5747 -2382,0 -4293,-3062 -4293,-6902 0,-4011 1867,-7092 4271,-7092 2405,0 3964,3064 4197,6074 z"
   id="path20" />
        </g>
       </g>
       <g
   class="com.sun.star.drawing.ClosedBezierShape"
   id="g22">
        <g
   id="id11">
         <rect
   class="BoundingBox"
   stroke="none"
   fill="none"
   x="8195"
   y="7129"
   width="2408"
   height="2127"
   id="rect21" />
         <path
   fill="#ffffff"
   stroke="none"
   d="m 9624,7160 c 47,3 91,11 139,25 8,6 16,8 22,20 5,41 -264,545 -286,606 5,0 16,17 30,11 42,-58 64,-64 72,-69 39,-36 145,-101 145,-101 31,-22 181,-125 228,-156 36,-2 53,-25 83,-30 20,-9 45,-9 59,8 16,25 44,45 47,78 19,50 47,97 58,151 14,5 -3,19 0,28 -19,14 -36,19 -53,36 -2,0 -5,8 -11,11 -14,3 -22,19 -39,19 -83,70 -161,117 -244,181 v 3 c 203,36 389,108 575,191 31,12 61,25 89,42 h 5 c 23,17 59,14 59,50 -3,11 -3,22 -14,28 -28,36 -33,86 -61,125 -17,11 -36,28 -59,28 -16,8 -30,3 -50,8 -8,-8 -16,-14 -30,-8 -31,11 -72,25 -106,8 -64,-33 -128,-67 -194,-89 -136,-53 -275,-89 -428,-97 h -97 c -12,3 -12,14 -9,22 11,20 31,25 47,42 70,80 159,167 239,236 78,75 162,136 234,212 53,42 28,111 44,164 0,14 0,28 -11,34 -8,-3 -14,5 -19,8 -28,8 -47,28 -70,44 -11,11 -14,17 -22,28 v 6 c -17,27 -44,36 -78,41 -5,3 -14,6 -19,9 -17,-6 -22,16 -36,8 -50,-58 -117,-100 -170,-158 -28,-23 -50,-50 -80,-67 -87,-86 -150,-170 -240,-254 -3,11 -3,14 0,25 -9,65 11,132 16,193 15,75 26,147 40,219 11,48 20,98 14,148 -3,8 0,19 -11,22 -28,14 -57,-3 -84,-6 -6,-11 -20,-8 -28,-16 -17,2 -36,-3 -50,5 -9,-5 -14,6 -22,3 -3,5 -6,-3 -12,0 -19,-3 -38,-8 -58,-8 -19,-9 -42,-12 -61,-17 -6,-14 -8,-28 -11,-42 -28,-130 -56,-272 -61,-405 -6,-23 3,-51 -3,-71 -86,87 -164,184 -222,287 -23,17 -31,64 -67,48 -3,0 -6,-3 -8,0 -6,-3 -9,-14 -9,-20 -8,-11 -19,-17 -27,-22 -37,-6 -70,-17 -103,-28 -20,-5 -22,-28 -36,-39 -6,-22 -42,-25 -42,-47 -8,-8 -6,-17 0,-22 14,-14 17,-31 28,-45 66,-95 139,-192 214,-279 61,-80 144,-158 200,-247 11,-17 -17,-17 -22,-28 -20,-11 -48,-2 -67,-11 -56,0 -100,-11 -153,-5 -36,-6 -83,33 -106,-14 -2,-3 -8,-14 -13,-11 -12,8 -28,5 -34,19 -14,3 -36,-3 -53,3 -64,11 -133,17 -197,25 -17,0 -39,11 -55,3 -23,-11 -20,-39 -25,-59 -17,-11 -23,-28 -34,-44 -5,-28 -11,-56 -16,-81 0,-5 5,-11 8,-14 5,3 11,0 14,-2 l -6,-17 c 14,-17 34,-14 50,-25 47,-22 103,-22 153,-36 111,-20 231,-17 347,-22 6,-6 -5,-9 -5,-14 -22,-36 -42,-73 -61,-109 -34,-55 -78,-103 -109,-158 -14,-11 -22,-26 -33,-34 -8,-14 -14,-28 -25,-42 0,-25 -20,-61 8,-78 61,-53 120,-111 192,-150 -3,-14 14,-6 19,-14 3,6 12,0 17,0 28,6 36,36 50,58 8,20 6,48 31,59 58,36 64,108 108,155 39,79 103,135 153,201 8,3 8,14 19,17 0,9 11,6 9,14 16,-47 30,-94 47,-142 28,-78 42,-162 72,-240 3,-33 22,-61 28,-94 17,-31 22,-67 39,-100 0,-20 17,-31 17,-47 2,-6 44,-73 44,-81 11,-11 26,-30 45,-30 67,8 131,30 198,30 z"
   id="path21" />
        </g>
       </g>
      </g>
     </g>
    </g>
   </g>
  </g>
 </g>
</svg>
