<?xml version="1.0" encoding="UTF-8" standalone="no"?>
<svg
   version="1.2"
   width="150.00999mm"
   height="149.95999mm"
   viewBox="0 0 15001 14995.999"
   preserveAspectRatio="xMidYMid"
   fill-rule="evenodd"
   stroke-width="28.222"
   stroke-linejoin="round"
   xml:space="preserve"
   id="svg41"
   sodipodi:docname="ID15a36.svg"
   inkscape:version="1.2.2 (b0a8486541, 2022-12-01)"
   xmlns:inkscape="http://www.inkscape.org/namespaces/inkscape"
   xmlns:sodipodi="http://sodipodi.sourceforge.net/DTD/sodipodi-0.dtd"
   xmlns="http://www.w3.org/2000/svg"
   xmlns:svg="http://www.w3.org/2000/svg"
   xmlns:ooo="http://xml.openoffice.org/svg/export"><sodipodi:namedview
   id="namedview41"
   pagecolor="#ffffff"
   bordercolor="#000000"
   borderopacity="0.25"
   inkscape:showpageshadow="2"
   inkscape:pageopacity="0.0"
   inkscape:pagecheckerboard="true"
   inkscape:deskcolor="#d1d1d1"
   inkscape:document-units="mm"
   fit-margin-top="50"
   fit-margin-left="50"
   fit-margin-right="50"
   fit-margin-bottom="50"
   showgrid="false"
   inkscape:zoom="5.0901708"
   inkscape:cx="536.03309"
   inkscape:cy="17.877593"
   inkscape:window-width="1280"
   inkscape:window-height="731"
   inkscape:window-x="0"
   inkscape:window-y="0"
   inkscape:window-maximized="1"
   inkscape:current-layer="svg41" />
 <defs
   class="ClipPathGroup"
   id="defs2">
  <clipPath
   id="presentation_clip_path"
   clipPathUnits="userSpaceOnUse">
   <rect
   x="0"
   y="0"
   width="21001"
   height="29703"
   id="rect1" />
  </clipPath>
  <clipPath
   id="presentation_clip_path_shrink"
   clipPathUnits="userSpaceOnUse">
   <rect
   x="21"
   y="29"
   width="20959"
   height="29644"
   id="rect2" />
  </clipPath>
 </defs>
 <defs
   class="TextShapeIndex"
   id="defs3">
  <g
   ooo:slide="id1"
   ooo:id-list="id3 id4 id5 id6 id7 id8 id9 id10 id11 id12 id13 id14 id15 id16 id17 id18 id19 id20 id21 id22 id23 id24 id25 id26 id27"
   id="g2" />
 </defs>
 <defs
   class="EmbeddedBulletChars"
   id="defs12">
  <g
   id="bullet-char-template-57356"
   transform="matrix(4.8828125e-4,0,0,-4.8828125e-4,0,0)">
   <path
   d="M 580,1141 1163,571 580,0 -4,571 Z"
   id="path3" />
  </g>
  <g
   id="bullet-char-template-57354"
   transform="matrix(4.8828125e-4,0,0,-4.8828125e-4,0,0)">
   <path
   d="M 8,1128 H 1137 V 0 H 8 Z"
   id="path4" />
  </g>
  <g
   id="bullet-char-template-10146"
   transform="matrix(4.8828125e-4,0,0,-4.8828125e-4,0,0)">
   <path
   d="M 174,0 602,739 174,1481 1456,739 Z M 1358,739 309,1346 659,739 Z"
   id="path5" />
  </g>
  <g
   id="bullet-char-template-10132"
   transform="matrix(4.8828125e-4,0,0,-4.8828125e-4,0,0)">
   <path
   d="M 2015,739 1276,0 H 717 l 543,543 H 174 v 393 h 1086 l -543,545 h 557 z"
   id="path6" />
  </g>
  <g
   id="bullet-char-template-10007"
   transform="matrix(4.8828125e-4,0,0,-4.8828125e-4,0,0)">
   <path
   d="m 0,-2 c -7,16 -16,29 -25,39 l 381,530 c -94,256 -141,385 -141,387 0,25 13,38 40,38 9,0 21,-2 34,-5 21,4 42,12 65,25 l 27,-13 111,-251 280,301 64,-25 24,25 c 21,-10 41,-24 62,-43 C 886,937 835,863 770,784 769,783 710,716 594,584 L 774,223 c 0,-27 -21,-55 -63,-84 l 16,-20 C 717,90 699,76 672,76 641,76 570,178 457,381 L 164,-76 c -22,-34 -53,-51 -92,-51 -42,0 -63,17 -64,51 -7,9 -10,24 -10,44 0,9 1,19 2,30 z"
   id="path7" />
  </g>
  <g
   id="bullet-char-template-10004"
   transform="matrix(4.8828125e-4,0,0,-4.8828125e-4,0,0)">
   <path
   d="M 285,-33 C 182,-33 111,30 74,156 52,228 41,333 41,471 c 0,78 14,145 41,201 34,71 87,106 158,106 53,0 88,-31 106,-94 l 23,-176 c 8,-64 28,-97 59,-98 l 735,706 c 11,11 33,17 66,17 42,0 63,-15 63,-46 V 965 c 0,-36 -10,-64 -30,-84 L 442,47 C 390,-6 338,-33 285,-33 Z"
   id="path8" />
  </g>
  <g
   id="bullet-char-template-9679"
   transform="matrix(4.8828125e-4,0,0,-4.8828125e-4,0,0)">
   <path
   d="M 813,0 C 632,0 489,54 383,161 276,268 223,411 223,592 c 0,181 53,324 160,431 106,107 249,161 430,161 179,0 323,-54 432,-161 108,-107 162,-251 162,-431 0,-180 -54,-324 -162,-431 C 1136,54 992,0 813,0 Z"
   id="path9" />
  </g>
  <g
   id="bullet-char-template-8226"
   transform="matrix(4.8828125e-4,0,0,-4.8828125e-4,0,0)">
   <path
   d="m 346,457 c -73,0 -137,26 -191,78 -54,51 -81,114 -81,188 0,73 27,136 81,188 54,52 118,78 191,78 73,0 134,-26 185,-79 51,-51 77,-114 77,-187 0,-75 -25,-137 -76,-188 -50,-52 -112,-78 -186,-78 z"
   id="path10" />
  </g>
  <g
   id="bullet-char-template-8211"
   transform="matrix(4.8828125e-4,0,0,-4.8828125e-4,0,0)">
   <path
   d="M -4,459 H 1135 V 606 H -4 Z"
   id="path11" />
  </g>
  <g
   id="bullet-char-template-61548"
   transform="matrix(4.8828125e-4,0,0,-4.8828125e-4,0,0)">
   <path
   d="m 173,740 c 0,163 58,303 173,419 116,115 255,173 419,173 163,0 302,-58 418,-173 116,-116 174,-256 174,-419 0,-163 -58,-303 -174,-418 C 1067,206 928,148 765,148 601,148 462,206 346,322 231,437 173,577 173,740 Z"
   id="path12" />
  </g>
 </defs>
 <g
   id="g12"
   transform="translate(-2652,-5770)">
  <g
   id="id2"
   class="Master_Slide">
   <g
   id="bg-id2"
   class="Background" />
   <g
   id="bo-id2"
   class="BackgroundObjects" />
  </g>
 </g>
 <g
   class="SlideGroup"
   id="g41"
   transform="translate(-2652,-5770)">
  <g
   id="g40">
   <g
   id="container-id1">
    <g
   id="id1"
   class="Slide"
   clip-path="url(#presentation_clip_path)">
     <g
   class="Page"
   id="g39">
      <g
   class="Group"
   id="g38">
       <g
   class="com.sun.star.drawing.PolyPolygonShape"
   id="g13">
        <g
   id="id3">
         <rect
   class="BoundingBox"
   stroke="none"
   fill="none"
   x="2652"
   y="5770"
   width="15001"
   height="14996"
   id="rect12" />
         <path
   fill="#fefefe"
   stroke="none"
   d="M 2653,5770 V 20765 H 17652 V 5770 Z"
   id="path13" />
        </g>
       </g>
       <g
   class="com.sun.star.drawing.LineShape"
   id="g14"
   style="display:none">
        <g
   id="id4">
         <rect
   class="BoundingBox"
   stroke="none"
   fill="none"
   x="2628"
   y="5771"
   width="53"
   height="14994"
   id="rect13" />
         <path
   fill="none"
   stroke="#1b1918"
   stroke-width="51"
   stroke-linejoin="miter"
   d="M 2654,20764 V 5771"
   id="path14" />
        </g>
       </g>
       <g
   class="com.sun.star.drawing.LineShape"
   id="g15"
   style="display:none">
        <g
   id="id5">
         <rect
   class="BoundingBox"
   stroke="none"
   fill="none"
   x="2654"
   y="20739"
   width="14997"
   height="53"
   id="rect14" />
         <path
   fill="none"
   stroke="#1b1918"
   stroke-width="51"
   stroke-linejoin="miter"
   d="M 17650,20765 H 2654"
   id="path15" />
        </g>
       </g>
       <g
   class="com.sun.star.drawing.LineShape"
   id="g16"
   style="display:none">
        <g
   id="id6">
         <rect
   class="BoundingBox"
   stroke="none"
   fill="none"
   x="17624"
   y="5771"
   width="53"
   height="14994"
   id="rect15" />
         <path
   fill="none"
   stroke="#1b1918"
   stroke-width="51"
   stroke-linejoin="miter"
   d="M 17650,5771 V 20764"
   id="path16" />
        </g>
       </g>
       <g
   class="com.sun.star.drawing.LineShape"
   id="g17"
   style="display:none">
        <g
   id="id7">
         <rect
   class="BoundingBox"
   stroke="none"
   fill="none"
   x="2654"
   y="5745"
   width="14997"
   height="53"
   id="rect16" />
         <path
   fill="none"
   stroke="#1b1918"
   stroke-width="51"
   stroke-linejoin="miter"
   d="M 2654,5771 H 17650"
   id="path17" />
        </g>
       </g>
       <g
   class="com.sun.star.drawing.ClosedBezierShape"
   id="g18">
        <g
   id="id8">
         <rect
   class="BoundingBox"
   stroke="none"
   fill="none"
   x="11747"
   y="6271"
   width="5405"
   height="13995"
   id="rect17" />
         <path
   fill="#826500"
   stroke="none"
   d="m 11747,20265 5404,-2 V 6271 l -5404,2 c 449,279 807,536 1198,993 l 3208,3 v 11996 h -3208 c -322,398 -762,724 -1198,1000 z"
   id="path18" />
        </g>
       </g>
       <g
   class="com.sun.star.drawing.ClosedBezierShape"
   id="g19">
        <g
   id="id9">
         <rect
   class="BoundingBox"
   stroke="none"
   fill="none"
   x="3155"
   y="6270"
   width="5394"
   height="13996"
   id="rect18" />
         <path
   fill="#826500"
   stroke="none"
   d="m 8548,20265 -5393,-2 V 6271 l 5393,2 c -427,252 -843,561 -1199,993 l -3196,3 v 11996 h 3196 c 320,403 775,726 1199,1000 z"
   id="path19" />
        </g>
       </g>
       <g
   class="com.sun.star.drawing.ClosedBezierShape"
   id="g20">
        <g
   id="id10">
         <rect
   class="BoundingBox"
   stroke="none"
   fill="none"
   x="7145"
   y="17086"
   width="6530"
   height="3180"
   id="rect19" />
         <path
   fill="#826500"
   stroke="none"
   d="m 13674,17169 c -360,-88 -848,-103 -1133,-61 -495,73 -1286,205 -1359,398 -74,194 -882,181 -671,92 206,-92 -625,-43 -879,0 -193,33 -1687,306 -2487,628 772,1261 1829,2038 2998,2038 1722,0 2957,-1647 3531,-3095 z"
   id="path20" />
        </g>
       </g>
       <g
   class="com.sun.star.drawing.ClosedBezierShape"
   id="g21">
        <g
   id="id11">
         <rect
   class="BoundingBox"
   stroke="none"
   fill="none"
   x="5895"
   y="6266"
   width="8506"
   height="11681"
   id="rect20" />
         <path
   fill="#826500"
   stroke="none"
   d="m 6115,11138 c 463,-2330 1692,-4872 4027,-4872 2173,0 3969,2674 4228,6142 h -902 c -73,0 -73,165 0,165 h 912 c 15,226 20,460 20,691 0,1207 -188,2343 -513,3336 l -6908,1346 c -147,-269 -284,-563 -406,-878 45,7 249,66 274,73 81,31 74,-94 150,-81 56,13 109,38 173,33 10,-3 12,-15 12,-30 -25,-39 -73,-64 -106,-89 -122,-94 -186,-229 -272,-346 -56,-96 -51,-218 -87,-330 -50,-211 -12,-447 13,-663 15,-112 48,-211 112,-300 71,-56 122,-147 198,-185 84,-76 178,-120 272,-176 43,-5 73,-41 117,-54 299,-142 598,-305 839,-584 l -66,-46 -145,130 c -174,112 -509,333 -689,419 -21,10 -43,25 -69,13 -25,-13 -43,-38 -43,-64 13,-48 241,-150 284,-178 107,-76 224,-155 318,-261 237,-188 443,-399 532,-661 5,-12 -5,-53 -23,-61 -10,-5 -74,-7 -76,0 -54,130 -122,211 -206,323 -169,155 -311,348 -489,485 -30,13 -297,193 -332,193 5,-33 279,-221 292,-251 116,-130 249,-264 307,-414 63,-196 122,-407 176,-607 23,-155 61,-341 87,-491 0,-53 -61,-111 -77,-160 -10,-2 -17,0 -22,11 -19,213 -32,434 -88,632 -46,157 -86,325 -173,472 -223,511 -416,554 -584,691 -2,-2 -12,5 -17,-2 17,-74 320,-508 340,-589 104,-249 183,-290 239,-557 17,-71 111,-678 116,-678 l -40,-43 v 0 c -5,-5 -18,-8 -23,0 -13,180 -91,328 -130,495 -91,399 -299,927 -609,1237 v 0 l -13,5 v 0 c -13,-5 -8,-12 -8,-23 39,-114 163,-363 214,-475 99,-177 173,-365 234,-563 55,-267 172,-503 198,-778 0,-35 -28,-101 -54,-127 -2,-2 -12,-2 -15,0 0,155 -89,280 -127,422 -51,160 -102,312 -168,472 -48,112 -38,247 -106,351 -82,114 -231,460 -328,571 -2,3 -13,3 -15,0 56,-264 256,-726 325,-985 74,-163 124,-330 168,-503 68,-163 139,-328 160,-513 0,-26 -5,-69 -26,-84 -23,-10 -165,343 -170,379 -51,144 -71,284 -127,439 -81,185 -119,401 -206,587 -56,91 -109,302 -155,391 -5,5 -129,277 -129,272 0,0 175,-676 206,-813 5,-224 104,-414 129,-628 8,-152 43,-284 69,-431 17,-125 56,-244 56,-369 0,-12 -13,-25 -31,-23 -8,11 -76,26 -81,41 -51,267 -109,516 -165,777 -31,163 -26,351 -76,506 -36,155 -49,320 -102,470 -43,152 -86,345 -125,383 -5,0 -5,0 -10,-5 5,-157 163,-708 155,-868 15,-168 71,-506 74,-615 -26,-206 -43,-412 -61,-628 0,-33 -142,-558 -163,-566 41,704 44,1430 13,2068 -28,76 -74,515 -112,584 -5,5 -25,10 -25,5 2,-285 69,-876 48,-1161 -13,-135 21,-259 3,-389 -8,-137 -28,-289 -46,-421 5,-130 3,-894 -185,-894 -13,23 -6,56 0,78 30,262 68,516 86,778 -5,193 15,378 8,564 5,231 25,464 12,701 0,355 -30,485 -198,764 -18,-2 -13,-28 -18,-43 0,-114 66,-450 79,-566 -13,-107 -28,-219 -41,-323 11,-274 11,-470 -15,-752 -2,-147 18,-272 26,-427 -18,-43 -97,-823 -105,-871 z m 0,0 z m -40,224 c -125,683 -180,1343 -180,1902 40,160 2,87 38,252 15,83 94,492 119,576 v 0 0 l 38,-429 c -8,-221 -28,-300 -20,-503 -49,-338 12,-475 -31,-698 -5,-72 26,-1029 36,-1100 z"
   id="path21" />
        </g>
       </g>
       <g
   class="com.sun.star.drawing.ClosedBezierShape"
   id="g22">
        <g
   id="id12">
         <rect
   class="BoundingBox"
   stroke="none"
   fill="none"
   x="8727"
   y="17941"
   width="1629"
   height="147"
   id="rect21" />
         <path
   fill="#ffffff"
   stroke="none"
   d="m 10018,18036 c -232,19 -945,-88 -1043,-94 -93,-5 -283,81 -243,81 42,7 331,63 578,63 254,0 982,-63 1033,-69 52,-6 -93,6 -325,19 z"
   id="path22" />
        </g>
       </g>
       <g
   class="com.sun.star.drawing.ClosedBezierShape"
   id="g23">
        <g
   id="id13">
         <rect
   class="BoundingBox"
   stroke="none"
   fill="none"
   x="10413"
   y="18105"
   width="1133"
   height="79"
   id="rect22" />
         <path
   fill="#ffffff"
   stroke="none"
   d="m 10828,18107 c -140,7 -295,7 -341,0 -47,-11 -108,39 -52,45 52,0 295,0 430,-6 134,-14 527,37 579,37 46,-6 134,-45 87,-45 -46,-6 -285,-12 -429,-12 v 0 z"
   id="path23" />
        </g>
       </g>
       <g
   class="com.sun.star.drawing.ClosedBezierShape"
   id="g24">
        <g
   id="id14">
         <rect
   class="BoundingBox"
   stroke="none"
   fill="none"
   x="9849"
   y="19659"
   width="740"
   height="100"
   id="rect23" />
         <path
   fill="#ffffff"
   stroke="none"
   d="m 10587,19707 c 5,-6 -62,-19 -155,-26 -94,-6 -352,-6 -388,-19 -37,-11 -166,19 -192,32 -19,13 47,63 192,63 v 0 l 274,-12 v 0 c 145,-20 264,-32 269,-38 z"
   id="path24" />
        </g>
       </g>
       <g
   class="com.sun.star.drawing.ClosedBezierShape"
   id="g25">
        <g
   id="id15">
         <rect
   class="BoundingBox"
   stroke="none"
   fill="none"
   x="9201"
   y="18241"
   width="1781"
   height="126"
   id="rect24" />
         <path
   fill="#ffffff"
   stroke="none"
   d="m 10250,18249 c -82,-6 -201,-11 -273,-6 -67,0 -315,0 -404,12 -87,13 -335,26 -361,26 -25,-6 -10,19 62,6 72,-12 373,31 512,38 v 0 l 578,-25 v 0 c 144,0 295,57 316,63 20,0 108,6 144,0 31,-6 171,-69 155,-88 -15,-13 -103,12 -170,0 -67,-7 -471,-13 -559,-26 z"
   id="path25" />
        </g>
       </g>
       <g
   class="com.sun.star.drawing.ClosedBezierShape"
   id="g26">
        <g
   id="id16">
         <rect
   class="BoundingBox"
   stroke="none"
   fill="none"
   x="10234"
   y="18532"
   width="1353"
   height="122"
   id="rect25" />
         <path
   fill="#ffffff"
   stroke="none"
   d="m 11242,18556 c -21,6 -207,-24 -279,-18 -73,12 -316,-6 -409,-6 -98,0 -319,62 -319,69 0,6 139,37 294,49 160,13 635,-25 687,-43 46,-13 325,-13 366,-26 42,-6 -320,-25 -340,-25 z"
   id="path26" />
        </g>
       </g>
       <g
   class="com.sun.star.drawing.ClosedBezierShape"
   id="g27">
        <g
   id="id17">
         <rect
   class="BoundingBox"
   stroke="none"
   fill="none"
   x="8899"
   y="18445"
   width="1147"
   height="116"
   id="rect26" />
         <path
   fill="#ffffff"
   stroke="none"
   d="m 8986,18470 c 21,0 206,-30 284,-19 72,6 310,-6 408,-6 93,-5 367,63 367,69 -5,6 -186,31 -346,43 -155,13 -636,-24 -682,-37 -52,-19 -62,-19 -108,-26 -41,-12 56,-31 77,-24 z"
   id="path27" />
        </g>
       </g>
       <g
   class="com.sun.star.drawing.ClosedBezierShape"
   id="g28">
        <g
   id="id18">
         <rect
   class="BoundingBox"
   stroke="none"
   fill="none"
   x="10266"
   y="19319"
   width="986"
   height="138"
   id="rect27" />
         <path
   fill="#ffffff"
   stroke="none"
   d="m 10824,19372 c -57,6 -237,-6 -316,-6 -72,0 -247,51 -242,51 0,6 103,31 227,37 119,12 470,-37 513,-50 36,-12 175,-19 206,-32 36,-6 62,-43 5,-49 -62,-12 -228,6 -233,12 -5,12 -103,31 -160,37 z"
   id="path28" />
        </g>
       </g>
       <g
   class="com.sun.star.drawing.ClosedBezierShape"
   id="g29">
        <g
   id="id19">
         <rect
   class="BoundingBox"
   stroke="none"
   fill="none"
   x="10064"
   y="19014"
   width="1251"
   height="120"
   id="rect28" />
         <path
   fill="#ffffff"
   stroke="none"
   d="m 11176,19014 c -88,0 -476,31 -605,18 -129,-12 -470,6 -481,6 -15,0 -30,32 -25,38 5,7 15,7 25,0 11,0 155,0 301,0 v 0 l 656,57 v 0 c 139,-6 263,-18 263,-18 5,-7 5,-39 0,-45 -5,-6 -41,-56 -134,-56 z"
   id="path29" />
        </g>
       </g>
       <g
   class="com.sun.star.drawing.ClosedBezierShape"
   id="g30">
        <g
   id="id20">
         <rect
   class="BoundingBox"
   stroke="none"
   fill="none"
   x="8818"
   y="18737"
   width="2090"
   height="199"
   id="rect29" />
         <path
   fill="#ffffff"
   stroke="none"
   d="m 8954,18918 c 67,19 274,13 305,0 31,-6 285,-6 285,-6 31,25 93,25 103,19 5,-6 36,-31 113,-44 83,-13 336,-25 393,-31 51,-7 264,18 362,18 93,-6 361,-25 366,-31 5,0 57,-43 -5,-49 -67,-7 -341,18 -356,24 -21,13 -129,-18 -207,-12 -93,0 -429,-74 -604,-69 -119,6 -502,94 -584,100 -78,6 -191,25 -227,12 -6,0 -73,25 -78,25 -14,20 83,32 134,44 z"
   id="path30" />
        </g>
       </g>
       <g
   class="com.sun.star.drawing.ClosedBezierShape"
   id="g31">
        <g
   id="id21">
         <rect
   class="BoundingBox"
   stroke="none"
   fill="none"
   x="10157"
   y="17752"
   width="1043"
   height="167"
   id="rect30" />
         <path
   fill="#ffffff"
   stroke="none"
   d="m 10260,17842 c 67,-19 290,-37 316,-44 21,-13 119,-32 217,-44 93,-17 331,69 388,82 57,6 -26,87 -238,81 -207,-6 -771,-25 -786,-31 -4,-6 36,-26 103,-44 z"
   id="path31" />
        </g>
       </g>
       <g
   class="com.sun.star.drawing.ClosedBezierShape"
   id="g32">
        <g
   id="id22">
         <rect
   class="BoundingBox"
   stroke="none"
   fill="none"
   x="9126"
   y="19164"
   width="736"
   height="147"
   id="rect31" />
         <path
   fill="#ffffff"
   stroke="none"
   d="m 9731,19228 c -31,-13 -165,-19 -176,-25 -10,-6 -62,-25 -109,-37 -46,-12 -289,62 -315,75 -30,13 134,75 238,68 108,-6 486,-24 491,-31 10,0 -93,-31 -129,-50 z"
   id="path32" />
        </g>
       </g>
       <g
   class="com.sun.star.drawing.ClosedBezierShape"
   id="g33">
        <g
   id="id23">
         <rect
   class="BoundingBox"
   stroke="none"
   fill="none"
   x="9340"
   y="17649"
   width="739"
   height="154"
   id="rect32" />
         <path
   fill="#ffffff"
   stroke="none"
   d="m 9949,17713 c -31,-13 -166,-13 -176,-25 -11,-6 -62,-25 -109,-37 -51,-12 -290,62 -321,75 -25,13 140,81 244,75 108,-7 486,-31 491,-31 5,-7 -93,-38 -129,-57 z"
   id="path33" />
        </g>
       </g>
       <g
   class="com.sun.star.drawing.ClosedBezierShape"
   id="g34">
        <g
   id="id24">
         <rect
   class="BoundingBox"
   stroke="none"
   fill="none"
   x="8601"
   y="13603"
   width="2918"
   height="3126"
   id="rect33" />
         <path
   fill="#ffffff"
   stroke="none"
   d="m 11513,13820 c 0,10 -29,14 -24,24 -9,14 -19,19 -33,33 -14,5 -28,14 -38,24 -14,0 -23,18 -38,23 -9,24 -33,33 -47,57 -24,9 -43,33 -66,38 -14,5 -14,14 -10,23 19,24 -14,38 -28,52 -5,5 -5,10 -14,15 -10,33 -48,52 -62,85 -19,19 -38,42 -47,66 v 0 5 h -5 v 0 c -23,47 -52,75 -71,124 -23,28 -33,71 -56,99 -10,47 -24,104 -19,151 -5,24 -5,43 0,67 v 0 l -5,4 v 0 c -5,62 -10,105 -19,171 0,85 -14,161 24,236 4,29 -5,48 4,67 10,52 -56,56 -75,89 23,104 28,204 42,313 19,142 52,283 76,426 24,119 57,223 85,336 10,48 19,95 28,142 5,10 19,29 5,43 29,19 57,28 85,42 15,5 29,0 43,5 5,9 14,19 19,28 19,15 9,48 28,62 5,9 0,14 -5,24 -23,28 -70,23 -108,33 -33,0 -76,4 -104,-10 -38,-5 -71,-23 -104,-23 -15,-15 -38,-5 -53,-15 -14,-14 -33,0 -42,-14 -19,-23 -14,-57 -19,-90 -43,-28 -43,-85 -52,-127 -25,-48 -25,-109 -34,-161 -10,-52 -24,-104 -29,-156 -9,-95 -33,-186 -47,-280 -24,-76 -57,-147 -90,-218 -38,33 -33,95 -47,147 -10,52 -19,104 -28,156 -5,4 0,20 -5,24 -14,104 -19,208 -24,313 -19,18 -5,42 -14,61 9,52 -14,104 5,151 -5,10 0,15 0,24 -24,19 -19,47 -29,71 5,14 5,28 10,43 -24,19 -57,19 -85,23 -15,5 -19,19 -38,19 -5,14 -19,5 -29,10 -28,23 -61,9 -94,19 -57,9 -114,0 -166,-24 -14,-10 0,-19 -4,-33 -5,-33 4,-62 18,-85 24,0 43,-24 67,-19 14,-5 23,-14 42,-10 5,-9 14,-14 19,-19 5,-9 -5,-9 -5,-14 5,-61 24,-118 24,-184 0,-161 28,-322 38,-484 -5,-66 14,-132 19,-194 v 0 h 5 v 0 c 9,-61 -5,-128 19,-184 0,-19 4,-38 9,-57 -9,-28 -52,-33 -43,-71 0,-5 10,-14 10,-24 5,-38 19,-75 14,-118 19,-90 14,-189 14,-274 -19,0 -23,28 -38,42 -28,43 -71,85 -89,133 -15,14 -24,38 -38,52 -24,42 -48,85 -67,118 -9,47 -66,71 -37,128 4,28 19,57 23,85 -4,5 -4,5 -9,5 -5,0 -5,-19 -14,-10 0,38 -19,71 -52,81 -29,0 -48,18 -76,4 -14,-19 -43,24 -47,-19 4,-9 -5,-9 -15,-19 -9,5 -14,-4 -19,-9 0,-24 -9,-38 -18,-57 4,-28 -29,-28 -43,-42 -52,-33 -109,-52 -156,-95 -14,43 -5,99 -10,137 10,29 19,52 24,85 14,38 -9,76 -24,109 19,161 62,312 90,470 24,94 33,193 71,288 14,38 0,80 -5,123 34,14 76,19 105,43 9,4 18,9 28,14 19,14 14,42 28,57 0,14 -4,28 -9,42 -24,14 -43,29 -71,29 -19,14 -43,9 -62,14 -52,-5 -99,-24 -142,-48 v 0 l -66,-18 v 0 c -4,0 0,-10 0,-15 5,-14 0,-28 -9,-38 -10,-18 5,-42 -5,-66 -9,-9 -38,-4 -42,-23 -15,-90 -29,-175 -24,-270 -5,-14 -5,-28 -10,-47 -19,-67 -33,-142 -61,-208 -5,-19 -5,-44 -14,-58 -14,86 -33,166 -43,251 -9,57 -24,133 14,185 15,33 -9,61 -23,90 -19,23 4,52 14,76 -5,18 9,37 5,52 14,18 -5,42 0,61 -19,19 -49,19 -68,33 -47,0 -80,24 -118,33 -24,10 -52,5 -76,10 -42,-14 -85,4 -123,-19 -19,0 -37,0 -52,-10 0,-33 10,-71 38,-90 19,-14 48,-18 66,-33 24,-9 52,5 71,-9 0,-10 0,-14 0,-24 v 0 l -9,-4 v 0 c 9,-24 0,-57 14,-76 19,-66 14,-142 19,-213 19,-170 14,-346 43,-517 0,-38 9,-80 9,-118 -9,-24 -47,-24 -42,-52 9,-57 0,-113 14,-166 4,-70 23,-151 0,-217 -14,-29 0,-66 -24,-90 -28,-52 -57,-109 -95,-151 -56,-52 -80,-114 -127,-171 -48,-66 -100,-123 -152,-184 0,-24 10,-43 29,-62 -5,-9 -14,-14 -24,-14 -52,-28 -61,-85 -118,-119 -14,-14 -51,-14 -43,-43 -4,-4 -4,-4 -4,-9 0,-118 70,-189 132,-170 0,-24 57,42 76,123 14,9 14,23 33,33 19,-15 38,-29 61,-43 10,-5 14,10 19,14 5,19 -14,33 -14,52 -14,29 -24,63 -33,96 0,9 5,19 9,33 19,-9 38,5 57,0 5,5 -5,19 5,14 33,48 47,104 90,142 47,57 90,118 132,175 33,29 62,52 90,85 33,-4 62,-9 81,-33 10,-33 -34,-19 -48,-42 -19,-29 -19,-71 -38,-100 -4,-38 -9,-75 -4,-118 -15,-61 4,-123 42,-166 24,-23 63,-23 91,-29 33,-14 62,20 90,25 33,23 80,56 85,104 14,14 10,33 14,47 0,57 -4,118 -28,170 0,5 -10,10 -14,5 -24,43 -52,90 -38,142 9,9 28,9 38,19 19,5 33,24 56,28 38,52 86,85 123,147 52,66 100,137 166,194 14,-33 43,-57 52,-90 24,-80 62,-147 85,-227 33,-99 85,-185 128,-279 47,-81 76,-166 132,-241 57,-58 161,-72 175,-162 -4,-10 -4,-24 -14,-29 -9,5 -14,-9 -23,-9 -24,-43 -38,-80 -57,-118 -43,-90 -29,-204 14,-294 14,-19 28,-47 57,-56 v 0 -5 0 c 14,-5 28,-10 42,-10 52,-33 133,-9 185,15 85,75 90,198 66,298 -9,19 0,42 -19,56 -14,57 -42,109 -47,166 0,19 14,33 23,47 43,-14 81,-33 109,-66 20,-9 30,-24 49,-28 47,-33 56,-100 104,-128 52,-66 99,-114 151,-175 14,-5 38,-10 52,5 14,-19 0,-48 -5,-67 -23,-37 -19,-89 -28,-132 14,-5 5,-28 24,-24 4,0 4,-9 9,-9 0,14 14,14 14,28 5,29 19,57 43,66 5,-14 19,-18 24,-28 18,5 18,-19 23,-28 24,-48 52,-95 95,-137 265,0 151,193 175,217 z"
   id="path34" />
        </g>
       </g>
       <g
   class="com.sun.star.drawing.ClosedBezierShape"
   id="g35">
        <g
   id="id25">
         <rect
   class="BoundingBox"
   stroke="none"
   fill="none"
   x="11862"
   y="11981"
   width="2466"
   height="4147"
   id="rect34" />
         <path
   fill="#ffffff"
   stroke="none"
   d="m 12816,12015 c 35,120 73,241 95,365 26,117 56,250 69,366 0,112 13,237 13,354 17,180 43,331 34,503 9,69 13,137 21,202 -8,73 13,288 18,361 0,9 -5,26 8,26 17,-17 17,-34 17,-56 10,-181 0,-499 10,-684 9,-236 -27,-465 -48,-697 -13,-172 -60,-336 -91,-504 0,-4 9,-8 13,-4 30,26 48,82 65,121 47,172 57,331 87,511 4,134 17,259 30,388 4,65 -4,125 0,190 4,206 -13,425 -4,636 4,4 4,4 4,9 9,-5 13,-13 13,-22 34,-116 26,-241 30,-370 9,-150 -4,-292 -9,-443 9,-116 -8,-236 -4,-358 -13,-163 -34,-322 -56,-486 -4,-12 -8,-34 0,-47 13,-4 17,9 22,13 17,99 64,198 73,301 13,77 26,155 17,241 13,87 13,182 17,272 13,82 -4,163 4,249 13,181 -17,551 -17,727 h 13 c 26,-47 52,-327 69,-378 4,-91 9,-181 17,-293 22,-185 13,-374 -4,-560 4,-112 -22,-219 -13,-331 -9,-34 9,-52 17,-86 90,99 90,258 82,335 13,134 -17,255 0,388 -4,74 -9,52 -4,121 -9,94 -18,176 -26,271 4,99 -73,447 -78,546 5,0 5,4 9,0 21,-22 60,-151 90,-249 30,-91 39,-194 65,-293 30,-99 47,-198 69,-301 34,-168 56,-336 86,-504 4,-9 30,-17 34,-26 9,0 17,4 22,13 -5,82 -18,168 -26,250 -22,91 -39,177 -48,271 -17,138 -77,241 -81,383 -17,90 -138,512 -138,512 0,4 82,-168 82,-168 30,-60 64,-193 99,-249 56,-116 77,-241 129,-362 34,-94 56,-180 90,-279 0,-26 60,-246 77,-246 18,13 43,30 43,47 -17,117 -64,225 -107,332 -30,108 -60,215 -108,314 -43,168 -167,456 -206,624 4,4 13,0 13,0 60,-73 155,-288 206,-361 43,-65 61,-142 86,-211 43,-99 86,-189 121,-293 26,-90 43,-185 47,-279 0,-9 9,-4 9,-4 17,17 34,51 34,73 -13,176 -90,339 -125,507 -38,125 -86,237 -146,348 -34,69 -112,228 -137,301 0,5 0,9 4,13 v 0 l 8,-4 v 0 c 198,-193 349,-512 405,-765 21,-104 56,-211 64,-327 0,-5 9,0 13,0 v 0 l 4,13 v 0 c 9,159 -13,305 -51,447 -39,168 -73,202 -138,361 -13,47 -219,310 -228,357 0,4 9,0 13,0 103,-86 224,-112 366,-434 56,-95 77,-198 111,-297 31,-129 43,-262 52,-400 0,-9 9,-9 13,-4 13,26 47,73 43,107 -13,95 -13,198 -30,297 -30,116 -78,224 -121,335 0,61 -184,267 -219,306 -4,17 -163,142 -163,163 21,5 193,-112 210,-125 112,-86 215,-249 319,-348 l 43,35 c -56,163 -65,137 -190,279 -64,65 -141,99 -210,151 -30,17 -172,81 -181,111 0,18 9,31 26,39 17,9 30,-4 47,-8 146,-74 301,-224 435,-289 l 30,69 c -168,155 -241,185 -430,271 -26,9 -43,30 -73,35 -56,34 -117,60 -168,111 -52,26 -82,78 -125,116 -43,56 -64,121 -73,191 -17,133 -39,284 -9,417 26,69 22,146 56,206 52,73 95,159 172,215 22,22 48,35 65,60 4,9 0,18 -9,22 -38,0 -69,-17 -107,-26 -48,-4 -39,73 -91,52 -56,-13 -176,-78 -240,-65 -31,26 -48,43 -69,78 -13,8 -48,26 -65,17 -31,-34 -108,-86 -117,-133 -8,-9 -94,-22 -120,-13 -82,43 -220,94 -297,142 -13,0 -26,-9 -34,-22 4,-34 43,-56 64,-86 56,-52 125,-107 146,-172 48,-99 61,-215 86,-327 26,-137 9,-297 0,-439 -8,-108 -51,-224 -159,-276 -163,-77 -322,-163 -456,-309 -73,-69 -120,-147 -176,-220 -64,-90 -125,-185 -159,-292 0,0 0,-9 4,-4 13,0 60,-5 65,4 60,168 193,288 331,421 103,69 168,211 301,215 13,-8 8,-25 13,-43 -9,-34 -60,-55 -82,-86 -107,-107 -241,-245 -335,-365 -73,-90 -112,-181 -159,-284 -82,-206 -151,-413 -172,-645 0,-9 38,-39 43,-39 25,5 21,39 30,56 8,116 56,211 73,318 34,99 69,203 116,297 64,116 112,241 215,340 51,73 129,125 198,185 47,38 94,86 146,116 13,0 21,-4 26,-13 4,-17 4,-39 -5,-56 -116,-129 -223,-288 -296,-447 -73,-125 -147,-262 -185,-400 -39,-103 -73,-194 -91,-305 -47,-168 -68,-324 -98,-500 4,-5 55,-48 60,-48 21,56 21,125 34,185 26,203 73,393 146,578 52,124 121,245 181,369 56,151 155,280 237,418 38,47 86,90 137,120 4,0 9,0 13,-9 4,-21 -9,-34 -13,-56 -8,-68 -56,-124 -86,-184 -95,-134 -146,-289 -219,-435 -52,-155 -142,-292 -177,-456 -51,-111 -60,-237 -90,-358 -26,-103 -39,-219 -34,-331 0,-4 99,-4 17,-4 l 9,9 v 0 c 12,64 51,137 60,202 64,245 69,495 180,723 35,108 86,215 142,314 52,112 198,379 267,482 9,0 17,0 17,-5 -8,-103 -168,-352 -185,-455 -21,-78 -51,-147 -64,-228 -35,-86 -48,-181 -73,-271 -18,-108 -69,-224 -91,-337 -34,-154 -56,-296 -81,-456 -5,-38 -13,-60 -18,-94 -13,-43 -25,-112 30,-189 13,17 69,47 74,73 12,150 4,296 21,443 26,120 47,241 82,358 17,86 38,167 60,249 9,56 39,103 52,159 34,82 64,168 90,254 4,13 9,26 17,30 4,-9 4,-26 0,-34 -13,-82 -39,-160 -34,-250 -35,-146 -48,-297 -73,-447 -5,-164 -74,-324 -35,-487 l -8,-224 47,-133 c 0,-9 0,-17 4,-21 9,-5 9,0 13,4 9,202 13,404 39,598 26,202 43,405 56,611 21,134 47,267 73,400 13,56 60,314 77,361 v 0 0 l -21,-275 v 0 c -5,-137 -13,-185 -5,-309 -30,-215 -21,-314 -47,-456 -17,-199 -43,-384 -51,-582 -22,-168 -26,-327 -82,-477 -4,-26 0,-60 -9,-82 0,-4 0,-8 5,-8 17,4 34,17 38,34 z"
   id="path35" />
        </g>
       </g>
       <g
   class="com.sun.star.drawing.ClosedBezierShape"
   id="g36">
        <g
   id="id26">
         <rect
   class="BoundingBox"
   stroke="none"
   fill="none"
   x="7991"
   y="7213"
   width="2433"
   height="2145"
   id="rect35" />
         <path
   fill="#ffffff"
   stroke="none"
   d="m 9434,7241 c 48,5 93,11 140,22 9,6 17,11 26,20 3,42 -270,554 -292,618 5,-3 17,17 31,9 45,-59 64,-65 73,-68 39,-39 146,-105 146,-105 31,-22 182,-126 233,-154 34,-6 51,-28 82,-34 20,-5 45,-5 59,12 17,22 45,42 48,75 19,54 47,99 59,156 14,5 -3,17 0,25 -17,14 -37,22 -51,39 -6,-3 -8,6 -14,9 -14,2 -22,22 -39,22 -82,67 -164,118 -248,183 v 2 c 206,37 396,107 582,191 31,11 61,25 90,42 h 5 c 23,20 59,17 59,51 -3,14 -3,22 -14,31 -28,36 -31,87 -62,123 -17,14 -36,28 -59,28 -16,9 -30,3 -50,11 -6,-8 -17,-16 -31,-11 -31,14 -73,26 -107,11 -64,-33 -129,-70 -193,-95 -142,-50 -282,-87 -436,-95 l -99,2 c -8,3 -8,12 -8,20 11,20 31,28 48,42 70,82 160,171 241,239 81,76 164,140 237,214 53,42 28,112 45,166 0,14 0,28 -11,33 -9,0 -15,6 -17,12 -31,8 -51,28 -73,42 -12,11 -14,19 -24,28 v 5 c -17,28 -45,40 -76,42 -8,3 -16,6 -22,9 -17,-6 -22,20 -34,8 -53,-59 -120,-98 -171,-160 -31,-19 -53,-47 -84,-67 -87,-87 -152,-168 -241,-254 -3,9 -3,12 0,23 -9,68 11,136 16,197 14,73 26,146 40,222 14,48 19,93 14,149 -3,5 0,17 -12,19 -28,14 -56,0 -84,-5 -5,-11 -19,-9 -28,-14 -17,3 -36,-3 -50,3 -9,-3 -14,8 -23,2 -3,9 -5,-2 -11,0 -20,-2 -39,-5 -59,-8 -20,-8 -42,-8 -62,-17 -5,-11 -5,-25 -11,-39 -28,-132 -56,-275 -59,-410 -8,-25 0,-51 -5,-74 -87,88 -163,186 -225,293 -22,17 -32,65 -68,48 -3,0 -6,-6 -9,-3 -5,-3 -8,-11 -8,-17 -9,-14 -20,-17 -28,-25 -37,-3 -70,-17 -104,-25 -20,-9 -23,-31 -37,-40 -5,-25 -42,-25 -42,-48 -5,-11 -5,-16 0,-25 14,-11 17,-31 28,-45 71,-99 141,-192 216,-279 63,-81 147,-162 204,-249 14,-20 -17,-20 -20,-34 -23,-8 -51,0 -70,-8 -56,0 -102,-12 -156,-3 -36,-9 -81,31 -106,-14 -3,-6 -6,-14 -14,-14 -12,8 -28,8 -34,19 -14,3 -36,0 -53,3 -65,11 -135,17 -197,25 -19,3 -42,12 -59,6 -22,-14 -19,-39 -22,-62 -20,-8 -25,-28 -37,-42 -5,-31 -11,-56 -16,-84 2,-3 5,-11 11,-11 3,0 8,0 11,-6 l -6,-14 c 14,-17 34,-17 51,-31 48,-19 104,-19 157,-33 109,-20 230,-17 348,-20 6,-6 -6,-11 -3,-17 -25,-34 -45,-70 -64,-109 -34,-54 -79,-101 -110,-158 -14,-14 -19,-29 -33,-37 -9,-11 -14,-28 -23,-42 -3,-23 -22,-62 6,-76 61,-56 120,-115 193,-154 -2,-14 14,-6 20,-14 3,8 11,2 17,2 28,6 40,37 51,57 12,16 6,50 31,59 59,36 65,109 110,160 39,76 104,132 154,200 9,3 11,14 20,17 0,8 11,5 11,14 14,-45 31,-96 48,-143 25,-80 42,-161 70,-240 3,-34 22,-62 28,-95 17,-31 22,-68 39,-102 0,-19 20,-33 20,-53 0,-3 42,-70 42,-76 14,-11 25,-30 45,-30 67,5 132,28 199,28 z"
   id="path36" />
        </g>
       </g>
       <g
   class="com.sun.star.drawing.ClosedBezierShape"
   id="g37">
        <g
   id="id27">
         <rect
   class="BoundingBox"
   stroke="none"
   fill="none"
   x="8085"
   y="11801"
   width="3952"
   height="774"
   id="rect36" />
         <path
   fill="#ffffff"
   stroke="none"
   d="m 8166,12574 c -101,0 -111,-165 -8,-165 h 109 l 640,-575 c 74,-55 174,-31 250,0 l 1095,575 h 1726 c 86,5 73,162 -16,165 z"
   id="path37" />
        </g>
       </g>
      </g>
     </g>
    </g>
   </g>
  </g>
 </g>
</svg>
