<?xml version="1.0" encoding="UTF-8" standalone="no"?>
<svg
   version="1.2"
   width="150.49001mm"
   height="150.47mm"
   viewBox="0 0 15049.001 15047"
   preserveAspectRatio="xMidYMid"
   fill-rule="evenodd"
   stroke-width="28.222"
   stroke-linejoin="round"
   xml:space="preserve"
   id="svg36"
   sodipodi:docname="ID37.svg"
   inkscape:version="1.2.2 (b0a8486541, 2022-12-01)"
   xmlns:inkscape="http://www.inkscape.org/namespaces/inkscape"
   xmlns:sodipodi="http://sodipodi.sourceforge.net/DTD/sodipodi-0.dtd"
   xmlns="http://www.w3.org/2000/svg"
   xmlns:svg="http://www.w3.org/2000/svg"
   xmlns:ooo="http://xml.openoffice.org/svg/export"><sodipodi:namedview
   id="namedview36"
   pagecolor="#ffffff"
   bordercolor="#000000"
   borderopacity="0.25"
   inkscape:showpageshadow="2"
   inkscape:pageopacity="0.0"
   inkscape:pagecheckerboard="true"
   inkscape:deskcolor="#d1d1d1"
   inkscape:document-units="mm"
   fit-margin-top="50"
   fit-margin-left="50"
   fit-margin-right="50"
   fit-margin-bottom="50"
   showgrid="false"
   inkscape:zoom="4.3207309"
   inkscape:cx="502.69272"
   inkscape:cy="572.58831"
   inkscape:window-width="1280"
   inkscape:window-height="731"
   inkscape:window-x="0"
   inkscape:window-y="0"
   inkscape:window-maximized="1"
   inkscape:current-layer="svg36" />
 <defs
   class="ClipPathGroup"
   id="defs2">
  <clipPath
   id="presentation_clip_path"
   clipPathUnits="userSpaceOnUse">
   <rect
   x="0"
   y="0"
   width="21001"
   height="29703"
   id="rect1" />
  </clipPath>
  <clipPath
   id="presentation_clip_path_shrink"
   clipPathUnits="userSpaceOnUse">
   <rect
   x="21"
   y="29"
   width="20959"
   height="29644"
   id="rect2" />
  </clipPath>
 </defs>
 <defs
   class="TextShapeIndex"
   id="defs3">
  <g
   ooo:slide="id1"
   ooo:id-list="id3 id4 id5 id6 id7 id8 id9 id10 id11 id12 id13 id14 id15 id16 id17"
   id="g2" />
 </defs>
 <defs
   class="EmbeddedBulletChars"
   id="defs12">
  <g
   id="bullet-char-template-57356"
   transform="matrix(4.8828125e-4,0,0,-4.8828125e-4,0,0)">
   <path
   d="M 580,1141 1163,571 580,0 -4,571 Z"
   id="path3" />
  </g>
  <g
   id="bullet-char-template-57354"
   transform="matrix(4.8828125e-4,0,0,-4.8828125e-4,0,0)">
   <path
   d="M 8,1128 H 1137 V 0 H 8 Z"
   id="path4" />
  </g>
  <g
   id="bullet-char-template-10146"
   transform="matrix(4.8828125e-4,0,0,-4.8828125e-4,0,0)">
   <path
   d="M 174,0 602,739 174,1481 1456,739 Z M 1358,739 309,1346 659,739 Z"
   id="path5" />
  </g>
  <g
   id="bullet-char-template-10132"
   transform="matrix(4.8828125e-4,0,0,-4.8828125e-4,0,0)">
   <path
   d="M 2015,739 1276,0 H 717 l 543,543 H 174 v 393 h 1086 l -543,545 h 557 z"
   id="path6" />
  </g>
  <g
   id="bullet-char-template-10007"
   transform="matrix(4.8828125e-4,0,0,-4.8828125e-4,0,0)">
   <path
   d="m 0,-2 c -7,16 -16,29 -25,39 l 381,530 c -94,256 -141,385 -141,387 0,25 13,38 40,38 9,0 21,-2 34,-5 21,4 42,12 65,25 l 27,-13 111,-251 280,301 64,-25 24,25 c 21,-10 41,-24 62,-43 C 886,937 835,863 770,784 769,783 710,716 594,584 L 774,223 c 0,-27 -21,-55 -63,-84 l 16,-20 C 717,90 699,76 672,76 641,76 570,178 457,381 L 164,-76 c -22,-34 -53,-51 -92,-51 -42,0 -63,17 -64,51 -7,9 -10,24 -10,44 0,9 1,19 2,30 z"
   id="path7" />
  </g>
  <g
   id="bullet-char-template-10004"
   transform="matrix(4.8828125e-4,0,0,-4.8828125e-4,0,0)">
   <path
   d="M 285,-33 C 182,-33 111,30 74,156 52,228 41,333 41,471 c 0,78 14,145 41,201 34,71 87,106 158,106 53,0 88,-31 106,-94 l 23,-176 c 8,-64 28,-97 59,-98 l 735,706 c 11,11 33,17 66,17 42,0 63,-15 63,-46 V 965 c 0,-36 -10,-64 -30,-84 L 442,47 C 390,-6 338,-33 285,-33 Z"
   id="path8" />
  </g>
  <g
   id="bullet-char-template-9679"
   transform="matrix(4.8828125e-4,0,0,-4.8828125e-4,0,0)">
   <path
   d="M 813,0 C 632,0 489,54 383,161 276,268 223,411 223,592 c 0,181 53,324 160,431 106,107 249,161 430,161 179,0 323,-54 432,-161 108,-107 162,-251 162,-431 0,-180 -54,-324 -162,-431 C 1136,54 992,0 813,0 Z"
   id="path9" />
  </g>
  <g
   id="bullet-char-template-8226"
   transform="matrix(4.8828125e-4,0,0,-4.8828125e-4,0,0)">
   <path
   d="m 346,457 c -73,0 -137,26 -191,78 -54,51 -81,114 -81,188 0,73 27,136 81,188 54,52 118,78 191,78 73,0 134,-26 185,-79 51,-51 77,-114 77,-187 0,-75 -25,-137 -76,-188 -50,-52 -112,-78 -186,-78 z"
   id="path10" />
  </g>
  <g
   id="bullet-char-template-8211"
   transform="matrix(4.8828125e-4,0,0,-4.8828125e-4,0,0)">
   <path
   d="M -4,459 H 1135 V 606 H -4 Z"
   id="path11" />
  </g>
  <g
   id="bullet-char-template-61548"
   transform="matrix(4.8828125e-4,0,0,-4.8828125e-4,0,0)">
   <path
   d="m 173,740 c 0,163 58,303 173,419 116,115 255,173 419,173 163,0 302,-58 418,-173 116,-116 174,-256 174,-419 0,-163 -58,-303 -174,-418 C 1067,206 928,148 765,148 601,148 462,206 346,322 231,437 173,577 173,740 Z"
   id="path12" />
  </g>
 </defs>
 <g
   id="g12"
   transform="translate(-2628,-5745)">
  <g
   id="id2"
   class="Master_Slide">
   <g
   id="bg-id2"
   class="Background" />
   <g
   id="bo-id2"
   class="BackgroundObjects" />
  </g>
 </g>
 <g
   class="SlideGroup"
   id="g36"
   transform="translate(-2628,-5745)">
  <g
   id="g35">
   <g
   id="container-id1">
    <g
   id="id1"
   class="Slide"
   clip-path="url(#presentation_clip_path)">
     <g
   class="Page"
   id="g34">
      <g
   class="Group"
   id="g33">
       <g
   class="Group"
   id="g20"
   style="display:inline">
        <g
   class="com.sun.star.drawing.PolyPolygonShape"
   id="g13"
   transform="matrix(1.0033336,0,0,1.003334,-34.84755,-44.237323)">
         <g
   id="id3">
          <rect
   class="BoundingBox"
   stroke="none"
   fill="none"
   x="2654"
   y="5770"
   width="14999"
   height="14997"
   id="rect12" />
          <path
   fill="#fefefe"
   stroke="none"
   d="M 17651,20766 V 5771 H 2654 v 14995 z"
   id="path13" />
         </g>
        </g>
        <g
   class="com.sun.star.drawing.PolyPolygonShape"
   id="g14">
         <g
   id="id4">
          <rect
   class="BoundingBox"
   stroke="none"
   fill="none"
   x="3155"
   y="6271"
   width="13998"
   height="13992"
   id="rect13" />
          <path
   fill="#000000"
   stroke="none"
   d="M 3155,6271 V 20262 H 17151 V 6271 Z"
   id="path14" />
         </g>
        </g>
        <g
   class="com.sun.star.drawing.PolyPolygonShape"
   id="g15">
         <g
   id="id5">
          <rect
   class="BoundingBox"
   stroke="none"
   fill="none"
   x="4152"
   y="7269"
   width="12002"
   height="11996"
   id="rect14" />
          <path
   fill="#fefefe"
   stroke="none"
   d="M 4153,7269 V 19264 H 16153 V 7269 Z"
   id="path15" />
         </g>
        </g>
        <g
   class="com.sun.star.drawing.LineShape"
   id="g16"
   style="display:none">
         <g
   id="id6">
          <rect
   class="BoundingBox"
   stroke="none"
   fill="none"
   x="2628"
   y="5771"
   width="53"
   height="14994"
   id="rect15" />
          <path
   fill="none"
   stroke="#1b1918"
   stroke-width="51"
   stroke-linejoin="miter"
   d="M 2654,20764 V 5771"
   id="path16" />
         </g>
        </g>
        <g
   class="com.sun.star.drawing.LineShape"
   id="g17"
   style="display:none">
         <g
   id="id7">
          <rect
   class="BoundingBox"
   stroke="none"
   fill="none"
   x="2654"
   y="20739"
   width="14997"
   height="53"
   id="rect16" />
          <path
   fill="none"
   stroke="#1b1918"
   stroke-width="51"
   stroke-linejoin="miter"
   d="M 17650,20765 H 2654"
   id="path17" />
         </g>
        </g>
        <g
   class="com.sun.star.drawing.LineShape"
   id="g18"
   style="display:none">
         <g
   id="id8">
          <rect
   class="BoundingBox"
   stroke="none"
   fill="none"
   x="17624"
   y="5771"
   width="53"
   height="14994"
   id="rect17" />
          <path
   fill="none"
   stroke="#1b1918"
   stroke-width="51"
   stroke-linejoin="miter"
   d="M 17650,5771 V 20764"
   id="path18" />
         </g>
        </g>
        <g
   class="com.sun.star.drawing.LineShape"
   id="g19"
   style="display:none">
         <g
   id="id9">
          <rect
   class="BoundingBox"
   stroke="none"
   fill="none"
   x="2654"
   y="5745"
   width="14997"
   height="53"
   id="rect18" />
          <path
   fill="none"
   stroke="#1b1918"
   stroke-width="51"
   stroke-linejoin="miter"
   d="M 2654,5771 H 17650"
   id="path19" />
         </g>
        </g>
       </g>
       <g
   class="Group"
   id="g32">
        <g
   class="Group"
   id="g27">
         <g
   class="com.sun.star.drawing.ClosedBezierShape"
   id="g21">
          <g
   id="id10">
           <rect
   class="BoundingBox"
   stroke="none"
   fill="none"
   x="8729"
   y="13223"
   width="2578"
   height="2202"
   id="rect20" />
           <path
   fill="#000000"
   stroke="none"
   d="m 10780,14843 v 487 c 0,35 33,94 68,94 h 230 c 35,0 76,-49 74,-83 v -497 c 76,-1 150,-74 153,-147 l -1,-535 c -1,-71 -96,-149 -171,-149 l -129,-544 c -30,-129 -141,-243 -251,-246 H 9286 c -136,1 -221,115 -256,247 l -130,543 c -75,0 -170,78 -171,149 v 535 c 2,73 77,146 152,147 v 497 c -1,33 39,83 74,83 h 230 c 35,0 77,-59 77,-91 l -1,-490 z m 0,0 z m 101,-829 c 31,0 53,-52 46,-86 l -109,-446 c -8,-33 -53,-77 -82,-77 H 9295 c -28,0 -74,44 -81,77 l -103,445 c -7,35 13,86 44,86 z m 0,0 z m 86,272 c -79,0 -144,64 -144,143 0,79 65,144 144,144 79,0 143,-65 143,-144 0,-79 -64,-143 -143,-143 z m 0,0 z m -1890,0 c -79,0 -143,64 -143,143 0,79 64,144 143,144 79,0 144,-65 144,-144 0,-79 -65,-143 -144,-143 z"
   id="path20" />
          </g>
         </g>
         <g
   class="com.sun.star.drawing.ClosedBezierShape"
   id="g22">
          <g
   id="id11">
           <rect
   class="BoundingBox"
   stroke="none"
   fill="none"
   x="9757"
   y="11773"
   width="440"
   height="470"
   id="rect21" />
           <path
   fill="#000000"
   stroke="none"
   d="m 9975,11777 v 0 c 1,0 1,0 2,0 37,0 74,11 107,31 33,20 60,49 79,84 19,35 29,75 29,115 v 0 0 c 0,40 -10,80 -29,115 -19,35 -46,64 -79,84 -33,20 -70,31 -107,31 -38,0 -75,-11 -108,-31 -33,-20 -60,-49 -79,-84 -19,-35 -29,-75 -29,-115 0,-40 10,-80 29,-115 19,-35 46,-64 79,-84 32,-20 69,-31 106,-31 z"
   id="path21" />
           <path
   fill="none"
   stroke="#ffffff"
   stroke-width="8"
   stroke-linejoin="miter"
   d="m 9975,11777 v 0 h 2 c 37,0 74,11 107,31 33,20 60,49 79,84 19,35 29,75 29,115 v 0 0 c 0,40 -10,80 -29,115 -19,35 -46,64 -79,84 -33,20 -70,31 -107,31 -38,0 -75,-11 -108,-31 -33,-20 -60,-49 -79,-84 -19,-35 -29,-75 -29,-115 0,-40 10,-80 29,-115 19,-35 46,-64 79,-84 32,-20 69,-31 106,-31 z"
   id="path22" />
          </g>
         </g>
         <g
   class="com.sun.star.drawing.ClosedBezierShape"
   id="g24">
          <g
   id="id12">
           <rect
   class="BoundingBox"
   stroke="none"
   fill="none"
   x="9756"
   y="12253"
   width="440"
   height="469"
   id="rect22" />
           <path
   fill="#000000"
   stroke="none"
   d="m 9974,12257 v 0 c 1,0 1,0 2,0 37,0 74,11 107,31 33,20 60,49 79,84 19,35 29,75 29,115 v 0 0 c 0,40 -10,80 -29,115 -19,35 -46,64 -79,84 -33,20 -70,31 -107,31 -38,0 -75,-11 -108,-31 -33,-20 -60,-49 -79,-84 -19,-35 -29,-75 -29,-115 0,-40 10,-80 29,-115 19,-35 46,-64 79,-84 32,-20 69,-31 106,-31 z"
   id="path23" />
           <path
   fill="none"
   stroke="#ffffff"
   stroke-width="8"
   stroke-linejoin="miter"
   d="m 9974,12257 v 0 h 2 c 37,0 74,11 107,31 33,20 60,49 79,84 19,35 29,75 29,115 v 0 0 c 0,40 -10,80 -29,115 -19,35 -46,64 -79,84 -33,20 -70,31 -107,31 -38,0 -75,-11 -108,-31 -33,-20 -60,-49 -79,-84 -19,-35 -29,-75 -29,-115 0,-40 10,-80 29,-115 19,-35 46,-64 79,-84 32,-20 69,-31 106,-31 z"
   id="path24" />
          </g>
         </g>
         <g
   class="com.sun.star.drawing.ClosedBezierShape"
   id="g26">
          <g
   id="id13">
           <rect
   class="BoundingBox"
   stroke="none"
   fill="none"
   x="9758"
   y="12730"
   width="441"
   height="469"
   id="rect24" />
           <path
   fill="#000000"
   stroke="none"
   d="m 9976,12734 v 0 c 1,0 1,0 2,0 37,0 74,11 107,31 33,20 60,49 79,84 19,35 29,75 29,115 v 0 0 c 0,40 -10,80 -29,115 -19,35 -46,64 -79,84 -33,20 -70,31 -107,31 -38,0 -75,-11 -108,-31 -33,-20 -60,-49 -79,-84 -19,-35 -29,-75 -29,-115 0,-40 10,-80 29,-115 19,-35 46,-64 79,-84 32,-20 69,-31 106,-31 z"
   id="path25" />
           <path
   fill="none"
   stroke="#ffffff"
   stroke-width="8"
   stroke-linejoin="miter"
   d="m 9976,12734 v 0 h 2 c 37,0 74,11 107,31 33,20 60,49 79,84 19,35 29,75 29,115 v 0 0 c 0,40 -10,80 -29,115 -19,35 -46,64 -79,84 -33,20 -70,31 -107,31 -38,0 -75,-11 -108,-31 -33,-20 -60,-49 -79,-84 -19,-35 -29,-75 -29,-115 0,-40 10,-80 29,-115 19,-35 46,-64 79,-84 32,-20 69,-31 106,-31 z"
   id="path26" />
          </g>
         </g>
        </g>
        <g
   class="com.sun.star.drawing.ClosedBezierShape"
   id="g28">
         <g
   id="id14">
          <rect
   class="BoundingBox"
   stroke="none"
   fill="none"
   x="5300"
   y="15628"
   width="7761"
   height="2874"
   id="rect27" />
          <path
   fill="#000000"
   stroke="none"
   d="m 8116,18462 c -375,0 -783,-303 -1131,-462 -121,-78 -801,-376 -1019,-444 -190,-106 -455,-75 -666,-75 0,-92 19,-184 19,-277 28,-257 25,-635 82,-985 29,-183 38,-408 158,-497 173,-91 479,-93 667,-93 338,0 657,-28 964,165 314,315 1593,350 1884,350 158,17 801,76 801,337 0,43 0,86 0,130 0,219 -233,386 -407,481 -7,0 -14,0 -19,0 0,5 0,12 0,19 50,0 98,18 149,18 73,0 142,3 204,-6 171,-25 437,-79 592,-180 155,-75 594,-338 680,-396 249,-166 522,-324 597,-381 48,-43 304,-193 397,-218 211,-56 444,-61 547,-61 171,17 245,20 372,92 26,26 70,56 73,95 0,42 0,85 0,128 -34,174 -160,211 -333,334 -237,178 -580,372 -907,648 -128,96 -242,179 -352,297 -388,291 -834,413 -1223,667 -131,66 -271,137 -444,222 -225,111 -544,130 -798,130 -294,0 -597,-9 -887,-38 z"
   id="path27" />
         </g>
        </g>
        <g
   class="com.sun.star.drawing.ClosedBezierShape"
   id="g29">
         <g
   id="id15">
          <rect
   class="BoundingBox"
   stroke="none"
   fill="none"
   x="8845"
   y="7883"
   width="6384"
   height="3867"
   id="rect28" />
          <path
   fill="#000000"
   stroke="none"
   d="m 9912,11748 c -41,-15 -54,-22 -75,-37 -40,-40 -81,-80 -110,-130 -18,-21 -52,-102 -52,-128 -6,-42 12,-149 -23,-169 -74,0 -123,57 -204,57 -68,0 -132,5 -203,0 -118,-20 -169,-83 -222,-185 -210,-605 -255,-1141 -20,-1761 338,-593 1304,-1378 2013,-1512 487,0 1030,69 1481,253 182,74 359,192 563,192 298,33 609,67 910,67 172,0 344,18 517,18 173,0 346,17 519,17 0,6 0,13 0,20 0,605 222,1215 222,1816 -36,0 -73,0 -110,0 -401,0 -733,192 -1093,333 -336,103 -793,260 -1150,260 -358,0 -718,-142 -1074,-74 -192,35 -538,105 -722,277 -268,202 -445,297 -778,297 -7,5 -14,11 -19,18 -56,42 -27,156 -75,222 -42,57 -109,142 -185,149 -37,0 -75,0 -110,0 z"
   id="path28" />
         </g>
        </g>
        <g
   class="com.sun.star.drawing.ClosedBezierShape"
   id="g30">
         <g
   id="id16">
          <rect
   class="BoundingBox"
   stroke="none"
   fill="none"
   x="9868"
   y="10916"
   width="177"
   height="612"
   id="rect29" />
          <path
   fill="#fefefe"
   stroke="none"
   d="m 9950,11527 c -22,-22 -49,-63 -56,-92 -34,-149 -48,-368 38,-502 5,-7 11,-12 18,-17 91,0 93,354 93,408 -8,65 -14,99 -37,148 -10,25 -29,55 -56,55 z"
   id="path29" />
         </g>
        </g>
        <g
   class="com.sun.star.drawing.ClosedBezierShape"
   id="g31">
         <g
   id="id17">
          <rect
   class="BoundingBox"
   stroke="none"
   fill="none"
   x="9809"
   y="9307"
   width="1845"
   height="1503"
   id="rect30" />
          <path
   fill="#fefefe"
   stroke="none"
   d="m 9814,10734 c 0,-179 -11,-361 0,-538 33,-91 137,-207 216,-289 188,-196 507,-444 784,-488 152,-48 289,-64 408,-93 85,-16 170,-19 260,-19 55,3 57,12 92,19 25,25 50,50 75,75 0,108 15,227 -19,333 -7,45 -18,85 -18,130 -29,21 -37,18 -75,18 -90,0 -192,52 -277,74 -51,23 -116,39 -168,56 -111,41 -219,103 -315,149 -34,25 -87,47 -141,86 -112,85 -190,167 -304,247 -29,22 -71,63 -93,93 -66,66 -115,140 -185,204 -16,-15 -14,-19 -37,-19 -38,0 -75,0 -111,0 -17,13 -43,21 -55,37 -40,0 -37,-46 -37,-75 z"
   id="path30" />
         </g>
        </g>
       </g>
      </g>
     </g>
    </g>
   </g>
  </g>
 </g>
</svg>
