<?xml version="1.0" encoding="UTF-8" standalone="no"?>
<svg
   version="1.2"
   width="150.01999mm"
   height="150.01999mm"
   viewBox="0 0 15001.999 15002"
   preserveAspectRatio="xMidYMid"
   fill-rule="evenodd"
   stroke-width="28.222"
   stroke-linejoin="round"
   xml:space="preserve"
   id="svg29"
   sodipodi:docname="ID15a39.svg"
   inkscape:version="1.2.2 (b0a8486541, 2022-12-01)"
   xmlns:inkscape="http://www.inkscape.org/namespaces/inkscape"
   xmlns:sodipodi="http://sodipodi.sourceforge.net/DTD/sodipodi-0.dtd"
   xmlns="http://www.w3.org/2000/svg"
   xmlns:svg="http://www.w3.org/2000/svg"><sodipodi:namedview
   id="namedview29"
   pagecolor="#ffffff"
   bordercolor="#000000"
   borderopacity="0.25"
   inkscape:showpageshadow="2"
   inkscape:pageopacity="0.0"
   inkscape:pagecheckerboard="true"
   inkscape:deskcolor="#d1d1d1"
   inkscape:document-units="mm"
   fit-margin-top="50"
   fit-margin-left="50"
   fit-margin-right="50"
   fit-margin-bottom="50"
   showgrid="false"
   inkscape:zoom="1.3744627"
   inkscape:cx="297.20706"
   inkscape:cy="593.68655"
   inkscape:window-width="1280"
   inkscape:window-height="731"
   inkscape:window-x="0"
   inkscape:window-y="0"
   inkscape:window-maximized="1"
   inkscape:current-layer="svg29" />
 <defs
   class="ClipPathGroup"
   id="defs2"><clipPath
     id="presentation_clip_path"
     clipPathUnits="userSpaceOnUse">
   <rect
   x="0"
   y="0"
   width="21000"
   height="29700"
   id="rect1" />
  </clipPath></defs>
 <defs
   class="TextShapeIndex"
   id="defs3" />
 <defs
   class="EmbeddedBulletChars"
   id="defs12" />
 <g
   id="g12"
   transform="translate(-2631,-5744)"
   style="display:inline">
  <g
   id="id2"
   class="Master_Slide">
   <g
   id="bg-id2"
   class="Background" />
   <g
   id="bo-id2"
   class="BackgroundObjects" />
  </g>
 </g>
 <g
   class="SlideGroup"
   id="g29"
   transform="translate(-2631,-5744)"
   style="display:inline">
  <g
   id="g28">
   <g
   id="container-id1">
    <g
   id="id1"
   class="Slide"
   clip-path="url(#presentation_clip_path)">
     <g
   class="Page"
   id="g27">
      
      
      <g
   class="Group"
   id="g26"
   style="display:inline">
       <g
   class="com.sun.star.drawing.PolyPolygonShape"
   id="g16">
        <g
   id="id4">
         <rect
   class="BoundingBox"
   stroke="none"
   fill="none"
   x="2651"
   y="5768"
   width="15001"
   height="14996"
   id="rect15" />
         <path
   fill="#fefefe"
   stroke="none"
   d="M 2652,5768 V 20763 H 17651 V 5768 Z"
   id="path15" />
        </g>
       </g>
       <g
   class="com.sun.star.drawing.PolyPolygonShape"
   id="g17">
        <g
   id="id5">
         <rect
   class="BoundingBox"
   stroke="none"
   fill="none"
   x="2631"
   y="5744"
   width="15002"
   height="15002"
   id="rect16" />
         <path
   fill="#fefefe"
   stroke="none"
   d="m 2631,5744 v 0 15001 0 h 15001 v 0 -15001 0 z"
   id="path16" />
        </g>
       </g>
       <g
   class="com.sun.star.drawing.ClosedBezierShape"
   id="g18">
        <g
   id="id6">
         <rect
   class="BoundingBox"
   stroke="none"
   fill="none"
   x="11747"
   y="6270"
   width="5405"
   height="13995"
   id="rect17" />
         <path
   fill="#826500"
   stroke="none"
   d="m 11747,20264 5404,-2 V 6270 l -5404,2 c 449,279 807,536 1198,993 l 3208,3 v 11996 h -3208 c -322,398 -762,723 -1198,1000 z"
   id="path17" />
        </g>
       </g>
       <g
   class="com.sun.star.drawing.ClosedBezierShape"
   id="g19">
        <g
   id="id7">
         <rect
   class="BoundingBox"
   stroke="none"
   fill="none"
   x="3154"
   y="6269"
   width="5394"
   height="13996"
   id="rect18" />
         <path
   fill="#826500"
   stroke="none"
   d="m 8547,20264 -5393,-2 V 6270 l 5393,2 c -427,251 -843,561 -1199,993 l -3196,3 v 11996 h 3196 c 320,403 775,726 1199,1000 z"
   id="path18" />
        </g>
       </g>
       <g
   class="com.sun.star.drawing.ClosedBezierShape"
   id="g20">
        <g
   id="id8">
         <rect
   class="BoundingBox"
   stroke="none"
   fill="none"
   x="5894"
   y="6268"
   width="8518"
   height="13999"
   id="rect19" />
         <path
   fill="#826500"
   stroke="none"
   d="m 6553,17014 c 73,19 449,-19 822,53 367,71 924,245 1286,335 568,169 844,441 1734,314 889,-127 1527,-630 1980,-992 474,-364 885,-794 1090,-1043 234,-227 632,-853 340,-1365 -159,-332 -315,-464 -893,-910 -577,-448 -888,-761 -1082,-1113 -158,-285 -150,-598 -196,-675 -45,-76 -133,-44 -225,41 -92,86 -226,192 -255,454 -28,262 137,367 492,626 229,166 509,458 909,826 240,220 641,803 584,1336 -15,131 -34,314 -102,500 -14,-14 -97,-90 -310,-162 -236,-80 -549,-144 -746,-177 -196,-32 -516,-65 -935,-93 -419,-29 -1169,21 -1677,174 -507,154 -696,311 -717,301 -21,-10 -50,-79 -66,-206 -16,-126 -10,-219 54,-551 63,-332 442,-789 662,-1039 210,-238 668,-575 811,-663 168,-103 656,-368 629,-427 -26,-59 -524,222 -882,411 -338,179 -681,436 -1045,790 -363,354 -682,861 -669,1429 13,568 190,703 466,904 275,201 1053,298 1709,259 656,-39 1574,-146 1579,-208 6,-59 -640,-24 -957,-11 -308,-8 -751,-8 -1139,-63 -387,-56 -582,-127 -767,-230 -212,-102 -350,-260 -328,-316 23,-56 470,-193 921,-251 451,-67 1100,-121 1574,-97 475,24 1070,100 1237,135 141,30 460,96 579,140 -41,106 -86,182 -167,281 -281,342 -693,632 -1131,819 -696,297 -891,421 -1939,436 -1049,15 -1736,-254 -2176,-534 -439,-281 -1254,-907 -1467,-850 -162,-738 -246,-1521 -246,-2337 0,-3868 1908,-6997 4258,-6997 2350,0 4259,3129 4259,6997 0,3865 -1909,7001 -4259,7001 -1510,0 -2839,-1296 -3599,-3252 z"
   id="path19" />
        </g>
       </g>
       <g
   class="com.sun.star.drawing.ClosedBezierShape"
   id="g21">
        <g
   id="id9">
         <rect
   class="BoundingBox"
   stroke="none"
   fill="none"
   x="8002"
   y="7216"
   width="2433"
   height="2145"
   id="rect20" />
         <path
   fill="#fefefe"
   stroke="none"
   d="m 9445,7244 c 48,5 93,11 140,22 9,6 17,11 26,20 3,42 -270,554 -292,618 5,-3 17,17 31,9 45,-59 64,-65 73,-68 39,-39 146,-105 146,-105 31,-22 182,-126 233,-154 34,-6 51,-28 82,-34 20,-5 45,-5 59,12 17,22 45,42 48,75 19,54 47,99 59,156 14,5 -3,17 0,25 -17,14 -37,22 -51,39 -6,-3 -8,6 -14,9 -14,2 -22,22 -39,22 -82,67 -164,118 -248,183 v 2 c 206,37 396,107 582,191 31,11 61,25 90,42 h 5 c 23,20 59,17 59,51 -3,14 -3,22 -14,31 -28,36 -31,87 -62,123 -17,14 -36,28 -59,28 -16,9 -30,3 -50,11 -6,-8 -17,-16 -31,-11 -31,14 -73,26 -107,11 -64,-33 -129,-70 -193,-95 -142,-50 -282,-87 -436,-95 l -99,2 c -8,3 -8,12 -8,20 11,20 31,28 48,42 70,82 160,171 241,239 81,76 164,140 237,214 53,42 28,112 45,166 0,14 0,28 -11,33 -9,0 -15,6 -17,12 -31,8 -51,28 -73,42 -12,11 -14,19 -24,28 v 5 c -17,28 -45,40 -76,42 -8,3 -16,6 -22,9 -17,-6 -22,20 -34,8 -53,-59 -120,-98 -171,-160 -31,-19 -53,-47 -84,-67 -87,-87 -152,-168 -241,-254 -3,9 -3,12 0,23 -9,68 11,136 16,197 14,73 26,146 40,222 14,48 19,93 14,149 -3,5 0,17 -12,19 -28,14 -56,0 -84,-5 -5,-11 -19,-9 -28,-14 -17,3 -36,-3 -50,3 -9,-3 -14,8 -23,2 -3,9 -5,-2 -11,0 -20,-2 -39,-5 -59,-8 -20,-8 -42,-8 -62,-17 -5,-11 -5,-25 -11,-39 -28,-132 -56,-275 -59,-410 -8,-25 0,-51 -5,-74 -87,88 -163,186 -225,293 -22,17 -32,65 -68,48 -3,0 -6,-6 -9,-3 -5,-3 -8,-11 -8,-17 -9,-14 -20,-17 -28,-25 -37,-3 -70,-17 -104,-25 -20,-9 -23,-31 -37,-40 -5,-25 -42,-25 -42,-48 -5,-11 -5,-16 0,-25 14,-11 17,-31 28,-45 71,-99 141,-192 216,-279 63,-81 147,-162 204,-249 14,-20 -17,-20 -20,-34 -23,-8 -51,0 -70,-8 -56,0 -102,-12 -156,-3 -36,-9 -81,31 -106,-14 -3,-6 -6,-14 -14,-14 -12,8 -28,8 -34,19 -14,3 -36,0 -53,3 -65,11 -135,17 -197,25 -19,3 -42,12 -59,6 -22,-14 -19,-39 -22,-62 -20,-8 -25,-28 -37,-42 -5,-31 -11,-56 -16,-84 2,-3 5,-11 11,-11 3,0 8,0 11,-6 l -6,-14 c 14,-17 34,-17 51,-31 48,-19 104,-19 157,-33 109,-20 230,-17 348,-20 6,-6 -6,-11 -3,-17 -25,-34 -45,-70 -64,-109 -34,-54 -79,-101 -110,-158 -14,-14 -19,-29 -33,-37 -9,-11 -14,-28 -23,-42 -3,-23 -22,-62 6,-76 61,-56 120,-115 193,-154 -2,-14 14,-6 20,-14 3,8 11,2 17,2 28,6 40,37 51,57 12,16 6,50 31,59 59,36 65,109 110,160 39,76 104,132 154,200 9,3 11,14 20,17 0,8 11,5 11,14 14,-45 31,-96 48,-143 25,-80 42,-161 70,-240 3,-34 22,-62 28,-95 17,-31 22,-68 39,-102 0,-19 20,-33 20,-53 0,-3 42,-70 42,-76 14,-11 25,-30 45,-30 67,5 132,28 199,28 z"
   id="path20" />
        </g>
       </g>
       <g
   class="com.sun.star.drawing.LineShape"
   id="g22"
   style="display:none">
        <g
   id="id10">
         <rect
   class="BoundingBox"
   stroke="none"
   fill="none"
   x="2607"
   y="5747"
   width="53"
   height="14994"
   id="rect21" />
         <path
   fill="none"
   stroke="#1b1918"
   stroke-width="51"
   stroke-linejoin="miter"
   d="M 2633,20740 V 5747"
   id="path21" />
        </g>
       </g>
       <g
   class="com.sun.star.drawing.LineShape"
   id="g23"
   style="display:none">
        <g
   id="id11">
         <rect
   class="BoundingBox"
   stroke="none"
   fill="none"
   x="2633"
   y="20715"
   width="14997"
   height="53"
   id="rect22" />
         <path
   fill="none"
   stroke="#1b1918"
   stroke-width="51"
   stroke-linejoin="miter"
   d="M 17629,20741 H 2633"
   id="path22" />
        </g>
       </g>
       <g
   class="com.sun.star.drawing.LineShape"
   id="g24"
   style="display:none">
        <g
   id="id12">
         <rect
   class="BoundingBox"
   stroke="none"
   fill="none"
   x="17604"
   y="5747"
   width="53"
   height="14994"
   id="rect23" />
         <path
   fill="none"
   stroke="#1b1918"
   stroke-width="51"
   stroke-linejoin="miter"
   d="M 17630,5747 V 20740"
   id="path23" />
        </g>
       </g>
       <g
   class="com.sun.star.drawing.LineShape"
   id="g25"
   style="display:none">
        <g
   id="id13">
         <rect
   class="BoundingBox"
   stroke="none"
   fill="none"
   x="2633"
   y="5721"
   width="14997"
   height="53"
   id="rect24" />
         <path
   fill="none"
   stroke="#1b1918"
   stroke-width="51"
   stroke-linejoin="miter"
   d="M 2633,5747 H 17629"
   id="path24" />
        </g>
       </g>
      </g>
     </g>
    </g>
   </g>
  </g>
 </g>
</svg>
