<?xml version="1.0" encoding="UTF-8" standalone="no"?>
<svg
   version="1.2"
   width="100.02mm"
   height="37.52mm"
   viewBox="0 0 10002 3752"
   preserveAspectRatio="xMidYMid"
   fill-rule="evenodd"
   stroke-width="28.222"
   stroke-linejoin="round"
   xml:space="preserve"
   id="svg19"
   sodipodi:docname="FR_SU5.svg"
   inkscape:version="1.2.2 (b0a8486541, 2022-12-01)"
   xmlns:inkscape="http://www.inkscape.org/namespaces/inkscape"
   xmlns:sodipodi="http://sodipodi.sourceforge.net/DTD/sodipodi-0.dtd"
   xmlns="http://www.w3.org/2000/svg"
   xmlns:svg="http://www.w3.org/2000/svg"
   xmlns:ooo="http://xml.openoffice.org/svg/export"><sodipodi:namedview
   id="namedview19"
   pagecolor="#ffffff"
   bordercolor="#000000"
   borderopacity="0.25"
   inkscape:showpageshadow="2"
   inkscape:pageopacity="0.0"
   inkscape:pagecheckerboard="true"
   inkscape:deskcolor="#d1d1d1"
   inkscape:document-units="mm"
   fit-margin-top="50"
   fit-margin-left="50"
   fit-margin-right="50"
   fit-margin-bottom="50"
   showgrid="false"
   inkscape:zoom="2.2926552"
   inkscape:cx="103.37359"
   inkscape:cy="105.99064"
   inkscape:window-width="1280"
   inkscape:window-height="731"
   inkscape:window-x="0"
   inkscape:window-y="0"
   inkscape:window-maximized="1"
   inkscape:current-layer="svg19" />
 <defs
   class="ClipPathGroup"
   id="defs2">
  <clipPath
   id="presentation_clip_path"
   clipPathUnits="userSpaceOnUse">
   <rect
   x="0"
   y="0"
   width="21000"
   height="29700"
   id="rect1" />
  </clipPath>
  <clipPath
   id="presentation_clip_path_shrink"
   clipPathUnits="userSpaceOnUse">
   <rect
   x="21"
   y="29"
   width="20958"
   height="29641"
   id="rect2" />
  </clipPath>
 </defs>
 <defs
   class="TextShapeIndex"
   id="defs3">
  <g
   ooo:slide="id1"
   ooo:id-list="id3 id4 id5"
   id="g2" />
 </defs>
 <defs
   class="EmbeddedBulletChars"
   id="defs12">
  <g
   id="bullet-char-template-57356"
   transform="matrix(4.8828125e-4,0,0,-4.8828125e-4,0,0)">
   <path
   d="M 580,1141 1163,571 580,0 -4,571 Z"
   id="path3" />
  </g>
  <g
   id="bullet-char-template-57354"
   transform="matrix(4.8828125e-4,0,0,-4.8828125e-4,0,0)">
   <path
   d="M 8,1128 H 1137 V 0 H 8 Z"
   id="path4" />
  </g>
  <g
   id="bullet-char-template-10146"
   transform="matrix(4.8828125e-4,0,0,-4.8828125e-4,0,0)">
   <path
   d="M 174,0 602,739 174,1481 1456,739 Z M 1358,739 309,1346 659,739 Z"
   id="path5" />
  </g>
  <g
   id="bullet-char-template-10132"
   transform="matrix(4.8828125e-4,0,0,-4.8828125e-4,0,0)">
   <path
   d="M 2015,739 1276,0 H 717 l 543,543 H 174 v 393 h 1086 l -543,545 h 557 z"
   id="path6" />
  </g>
  <g
   id="bullet-char-template-10007"
   transform="matrix(4.8828125e-4,0,0,-4.8828125e-4,0,0)">
   <path
   d="m 0,-2 c -7,16 -16,29 -25,39 l 381,530 c -94,256 -141,385 -141,387 0,25 13,38 40,38 9,0 21,-2 34,-5 21,4 42,12 65,25 l 27,-13 111,-251 280,301 64,-25 24,25 c 21,-10 41,-24 62,-43 C 886,937 835,863 770,784 769,783 710,716 594,584 L 774,223 c 0,-27 -21,-55 -63,-84 l 16,-20 C 717,90 699,76 672,76 641,76 570,178 457,381 L 164,-76 c -22,-34 -53,-51 -92,-51 -42,0 -63,17 -64,51 -7,9 -10,24 -10,44 0,9 1,19 2,30 z"
   id="path7" />
  </g>
  <g
   id="bullet-char-template-10004"
   transform="matrix(4.8828125e-4,0,0,-4.8828125e-4,0,0)">
   <path
   d="M 285,-33 C 182,-33 111,30 74,156 52,228 41,333 41,471 c 0,78 14,145 41,201 34,71 87,106 158,106 53,0 88,-31 106,-94 l 23,-176 c 8,-64 28,-97 59,-98 l 735,706 c 11,11 33,17 66,17 42,0 63,-15 63,-46 V 965 c 0,-36 -10,-64 -30,-84 L 442,47 C 390,-6 338,-33 285,-33 Z"
   id="path8" />
  </g>
  <g
   id="bullet-char-template-9679"
   transform="matrix(4.8828125e-4,0,0,-4.8828125e-4,0,0)">
   <path
   d="M 813,0 C 632,0 489,54 383,161 276,268 223,411 223,592 c 0,181 53,324 160,431 106,107 249,161 430,161 179,0 323,-54 432,-161 108,-107 162,-251 162,-431 0,-180 -54,-324 -162,-431 C 1136,54 992,0 813,0 Z"
   id="path9" />
  </g>
  <g
   id="bullet-char-template-8226"
   transform="matrix(4.8828125e-4,0,0,-4.8828125e-4,0,0)">
   <path
   d="m 346,457 c -73,0 -137,26 -191,78 -54,51 -81,114 -81,188 0,73 27,136 81,188 54,52 118,78 191,78 73,0 134,-26 185,-79 51,-51 77,-114 77,-187 0,-75 -25,-137 -76,-188 -50,-52 -112,-78 -186,-78 z"
   id="path10" />
  </g>
  <g
   id="bullet-char-template-8211"
   transform="matrix(4.8828125e-4,0,0,-4.8828125e-4,0,0)">
   <path
   d="M -4,459 H 1135 V 606 H -4 Z"
   id="path11" />
  </g>
  <g
   id="bullet-char-template-61548"
   transform="matrix(4.8828125e-4,0,0,-4.8828125e-4,0,0)">
   <path
   d="m 173,740 c 0,163 58,303 173,419 116,115 255,173 419,173 163,0 302,-58 418,-173 116,-116 174,-256 174,-419 0,-163 -58,-303 -174,-418 C 1067,206 928,148 765,148 601,148 462,206 346,322 231,437 173,577 173,740 Z"
   id="path12" />
  </g>
 </defs>
 <g
   id="g12"
   transform="translate(-5741,-8247)">
  <g
   id="id2"
   class="Master_Slide">
   <g
   id="bg-id2"
   class="Background" />
   <g
   id="bo-id2"
   class="BackgroundObjects" />
  </g>
 </g>
 <g
   class="SlideGroup"
   id="g19"
   transform="translate(-5741,-8247)">
  <g
   id="g18">
   <g
   id="container-id1">
    <g
   id="id1"
   class="Slide"
   clip-path="url(#presentation_clip_path)">
     <g
   class="Page"
   id="g17">
      <g
   class="Group"
   id="g16">
       <g
   class="com.sun.star.drawing.PolyPolygonShape"
   id="g13">
        <g
   id="id3">
         <rect
   class="BoundingBox"
   stroke="none"
   fill="none"
   x="5741"
   y="8247"
   width="10002"
   height="3752"
   id="rect12" />
         <path
   fill="#fefefe"
   stroke="none"
   d="M 5741,11998 H 15742 V 8247 H 5741 Z"
   id="path13" />
        </g>
       </g>
       <g
   class="com.sun.star.drawing.PolyPolygonShape"
   id="g14">
        <g
   id="id4">
         <rect
   class="BoundingBox"
   stroke="none"
   fill="none"
   x="5866"
   y="8372"
   width="9752"
   height="3502"
   id="rect13" />
         <path
   fill="#0000ff"
   stroke="none"
   d="m 5866,11873 h 9751 V 8372 H 5866 Z"
   id="path14" />
        </g>
       </g>
       <g
   class="com.sun.star.drawing.ClosedBezierShape"
   id="g15">
        <g
   id="id5">
         <rect
   class="BoundingBox"
   stroke="none"
   fill="none"
   x="6290"
   y="8436"
   width="8929"
   height="3368"
   id="rect14" />
         <path
   fill="#fefefe"
   stroke="none"
   d="m 6290,11618 455,-2480 h 388 l -29,216 c 18,-34 43,-67 76,-101 32,-34 64,-62 97,-86 51,-31 101,-53 150,-64 59,-10 113,-10 162,0 33,10 67,23 103,41 37,21 67,42 91,62 21,21 45,49 71,83 19,25 36,59 49,103 28,78 46,152 56,220 10,85 11,161 3,230 -6,117 -24,233 -53,346 -29,108 -69,217 -120,327 -28,56 -55,103 -82,138 -20,29 -56,69 -106,120 -41,41 -83,73 -127,94 -47,28 -97,45 -150,53 -56,12 -104,13 -144,3 -39,-4 -83,-18 -132,-44 -43,-22 -79,-50 -109,-85 -35,-35 -61,-76 -76,-121 l -179,945 z m 0,0 z m 670,-1153 c 2,23 12,47 29,70 10,20 27,37 50,53 18,14 41,24 68,30 29,7 56,9 79,5 4,0 8,-1 12,-3 4,-1 9,-3 15,-5 12,-4 20,-8 26,-12 28,-12 57,-34 88,-65 25,-29 48,-59 68,-88 29,-55 56,-114 79,-176 24,-59 44,-121 59,-186 20,-72 31,-146 35,-220 4,-69 0,-144 -11,-227 -4,-25 -11,-47 -21,-67 -12,-23 -22,-44 -33,-62 -13,-20 -30,-36 -49,-50 -16,-12 -36,-21 -59,-29 -33,-8 -64,-8 -91,0 -26,6 -53,17 -82,35 -38,27 -67,58 -89,91 -29,36 -51,72 -64,109 -34,78 -61,161 -83,247 -19,90 -33,175 -41,256 -6,64 -7,114 -3,147 0,51 6,99 18,147 z m 0,0 z m 2214,-121 h 429 c -12,35 -21,63 -27,83 -5,13 -11,27 -16,41 -5,13 -9,26 -13,38 -25,62 -56,115 -91,158 -33,45 -75,87 -127,124 -56,45 -115,79 -176,103 -72,27 -138,43 -197,47 -62,4 -129,2 -199,-6 -71,-12 -138,-32 -201,-62 -27,-10 -53,-26 -77,-50 -29,-19 -50,-42 -62,-67 -25,-32 -49,-69 -70,-112 -24,-55 -39,-96 -47,-124 -14,-44 -22,-85 -24,-123 -5,-37 -6,-80 -2,-130 5,-123 21,-237 46,-343 26,-116 61,-226 106,-332 26,-67 65,-133 119,-197 51,-59 108,-109 170,-151 65,-44 133,-74 206,-91 68,-20 146,-30 232,-30 23,4 44,6 62,6 10,2 20,4 29,5 10,1 21,1 33,1 41,8 81,20 120,35 39,20 74,42 106,65 31,26 56,50 73,71 14,18 33,46 56,86 14,31 26,61 36,91 9,30 16,64 20,103 6,94 6,188 0,282 -6,94 -17,188 -35,282 l -985,9 c -2,14 -3,26 -4,38 -1,12 -2,23 -2,32 0,12 0,24 -1,36 -1,12 -2,23 -2,35 0,26 2,62 6,109 6,35 15,70 27,106 2,21 12,43 32,64 14,22 33,39 59,50 19,14 44,22 73,24 20,6 46,5 77,-3 25,-10 49,-23 70,-38 27,-20 52,-45 74,-74 19,-23 38,-55 56,-94 5,-9 12,-27 20,-50 2,-6 9,-22 21,-47 z m 0,0 z m 117,-520 c 6,-38 9,-77 9,-118 0,-17 0,-36 1,-56 1,-19 2,-39 2,-58 0,-16 -4,-38 -12,-65 -6,-12 -14,-30 -26,-53 -12,-18 -27,-32 -44,-44 -10,-8 -28,-18 -56,-29 -32,-8 -55,-12 -71,-12 -27,0 -50,3 -70,9 -26,8 -48,16 -68,26 -8,4 -26,19 -55,44 -24,25 -42,50 -54,74 -9,15 -22,41 -38,76 -17,39 -31,76 -41,109 -15,47 -27,83 -35,109 z m 0,0 z m -387,-824 314,-564 h 411 l -488,564 z m 0,0 z m 1928,1941 39,-238 c -32,53 -71,100 -118,141 -53,45 -106,77 -159,97 -57,12 -110,17 -161,17 -48,2 -100,-3 -159,-14 -36,-6 -69,-22 -100,-47 -35,-24 -62,-49 -80,-77 -29,-35 -47,-66 -55,-94 -16,-27 -28,-64 -35,-108 -10,-54 -12,-104 -6,-153 2,-50 12,-99 32,-150 16,-59 44,-115 85,-168 36,-53 80,-98 136,-135 54,-33 103,-59 146,-77 42,-17 94,-33 159,-47 39,-5 78,-11 118,-16 39,-5 77,-10 114,-16 37,-2 76,-4 115,-7 39,-3 79,-5 121,-7 l 38,-201 c 2,-9 3,-29 3,-58 -6,-20 -13,-38 -21,-56 -12,-17 -23,-33 -35,-44 -12,-6 -31,-18 -56,-35 -35,-10 -72,-14 -112,-12 -37,4 -73,15 -108,35 -44,33 -75,67 -95,100 -27,45 -43,87 -47,127 l -385,-3 c 4,-65 27,-133 68,-204 27,-54 70,-111 129,-170 53,-37 112,-73 177,-106 74,-30 138,-49 191,-57 68,-11 135,-15 199,-11 54,4 120,16 201,38 48,13 96,37 143,71 44,40 78,82 103,127 22,53 36,105 44,156 4,56 1,110 -9,161 l -214,1241 z m 0,0 z m 144,-823 c -11,0 -22,0 -32,0 -10,0 -19,0 -29,0 -12,0 -23,0 -32,1 -10,1 -19,2 -27,2 -57,4 -98,7 -123,9 -77,19 -140,42 -189,67 -21,12 -44,28 -67,50 -24,21 -43,42 -59,62 -12,21 -24,48 -36,79 -5,10 -13,39 -23,85 -4,22 -4,42 0,62 6,31 14,53 23,65 6,14 13,24 20,32 7,8 12,14 16,18 16,17 33,28 53,32 49,18 98,18 147,0 43,-10 84,-31 123,-64 32,-22 63,-59 94,-109 36,-65 65,-129 89,-191 21,-63 39,-130 52,-200 z m 0,0 z m 1199,1018 c -8,50 -6,98 6,141 10,47 30,92 62,135 16,18 36,31 61,41 22,10 46,14 74,12 31,2 60,1 85,-3 29,-10 56,-22 80,-35 27,-18 49,-35 64,-53 16,-18 32,-42 50,-71 6,-17 12,-34 19,-50 7,-15 14,-30 20,-44 11,-43 19,-75 23,-97 6,-31 12,-61 18,-91 5,-29 11,-59 17,-89 4,-29 8,-60 12,-91 4,-32 9,-63 15,-94 -36,41 -71,75 -106,102 -45,34 -89,60 -132,77 -36,12 -79,20 -130,24 -43,4 -87,2 -132,-6 -47,-6 -95,-27 -144,-62 -41,-28 -78,-65 -109,-112 -45,-67 -77,-137 -97,-212 -24,-80 -36,-155 -38,-226 -4,-80 -1,-160 9,-241 7,-80 22,-159 44,-235 14,-67 38,-143 73,-229 24,-63 58,-136 103,-218 22,-35 52,-76 91,-123 36,-40 75,-72 118,-98 49,-37 107,-63 173,-76 63,-14 127,-15 192,-3 41,9 78,22 111,38 23,9 57,30 100,62 29,27 55,55 76,86 17,25 35,61 54,106 l 53,-254 h 412 l -329,1794 c -16,73 -32,135 -48,186 -17,60 -38,123 -61,188 -28,57 -62,117 -104,179 -43,57 -89,107 -138,150 -36,26 -70,48 -103,68 -40,19 -78,37 -115,53 -51,13 -91,23 -120,29 -39,6 -79,9 -121,9 -51,0 -89,-1 -114,-3 -52,-8 -90,-16 -115,-24 -51,-11 -98,-32 -141,-61 -43,-28 -82,-62 -115,-103 -23,-33 -44,-71 -61,-112 -20,-49 -33,-88 -39,-117 -11,-55 -18,-96 -18,-124 0,-56 2,-98 7,-123 z m 0,0 z m 350,-518 c 35,-2 70,-11 106,-27 31,-12 62,-32 91,-59 23,-23 47,-52 70,-85 22,-32 38,-64 51,-97 29,-86 52,-172 70,-259 17,-105 26,-196 26,-270 0,-39 -2,-70 -6,-91 -4,-30 -9,-60 -17,-92 -2,-13 -10,-40 -24,-79 -13,-25 -28,-47 -44,-68 -16,-17 -37,-34 -65,-49 -25,-10 -50,-17 -76,-21 -28,-2 -54,1 -79,9 -30,8 -54,19 -74,35 -23,24 -40,41 -50,53 -16,18 -30,37 -44,59 -15,23 -25,42 -29,56 -12,21 -20,41 -24,59 -33,91 -59,179 -76,261 -22,110 -33,201 -35,273 0,45 1,79 3,101 1,35 7,68 17,100 4,25 13,49 26,73 14,25 30,45 48,58 19,18 40,32 61,42 20,10 44,16 74,18 z m 0,0 z m 2176,-262 h 429 c -16,43 -26,71 -30,82 -5,14 -10,28 -14,43 -4,14 -9,29 -15,42 -23,61 -53,112 -88,153 -33,45 -75,88 -126,127 -51,39 -110,72 -176,100 -67,27 -133,42 -198,44 -54,4 -121,3 -199,-3 -67,-8 -134,-28 -200,-59 -36,-20 -61,-36 -77,-50 -29,-26 -50,-49 -61,-70 -26,-32 -49,-69 -71,-112 -24,-47 -39,-88 -47,-121 -14,-41 -22,-82 -24,-123 -5,-40 -6,-83 -2,-132 5,-120 21,-234 46,-342 26,-113 61,-225 106,-335 30,-70 69,-135 118,-193 49,-63 106,-113 171,-151 62,-41 131,-73 205,-95 77,-19 154,-27 233,-23 7,0 17,0 27,0 11,0 21,0 31,0 10,2 20,4 31,6 11,2 22,3 34,3 37,6 77,16 120,32 39,19 75,41 106,65 31,25 56,50 73,71 16,24 35,53 57,89 13,29 25,60 35,93 9,30 16,62 20,98 4,98 4,192 0,285 -6,94 -17,188 -35,282 l -985,12 c -2,11 -3,23 -4,33 -1,11 -2,22 -2,34 0,12 0,23 -1,34 -1,11 -2,22 -2,34 0,23 2,60 6,111 6,42 15,77 27,106 2,24 13,44 32,62 14,24 33,41 59,53 25,14 49,21 71,23 29,4 54,2 76,-5 23,-4 48,-16 74,-36 27,-21 51,-47 73,-76 27,-39 46,-70 56,-91 1,-4 9,-21 21,-50 7,-16 14,-33 20,-50 z m 0,0 z m 121,-517 c 4,-52 6,-91 6,-118 0,-18 0,-37 1,-57 1,-21 1,-41 1,-61 0,-13 -3,-34 -11,-61 -5,-14 -14,-32 -30,-56 -8,-10 -22,-25 -41,-44 -14,-10 -32,-19 -56,-27 -32,-8 -55,-11 -71,-11 -25,-2 -48,0 -70,5 -27,8 -50,18 -68,30 -25,15 -44,30 -55,44 -24,26 -41,50 -53,73 -12,16 -26,41 -42,77 -7,17 -15,36 -22,54 -6,19 -13,37 -19,55 -13,35 -24,70 -32,105 z"
   id="path15" />
        </g>
       </g>
      </g>
     </g>
    </g>
   </g>
  </g>
 </g>
</svg>
