<?xml version="1.0" encoding="UTF-8" standalone="no"?>
<svg
   version="1.2"
   width="125.04mm"
   height="125.06mm"
   viewBox="0 0 12504 12506"
   preserveAspectRatio="xMidYMid"
   fill-rule="evenodd"
   stroke-width="28.222"
   stroke-linejoin="round"
   xml:space="preserve"
   id="svg19"
   sodipodi:docname="FR_SU2.svg"
   inkscape:version="1.2.2 (b0a8486541, 2022-12-01)"
   xmlns:inkscape="http://www.inkscape.org/namespaces/inkscape"
   xmlns:sodipodi="http://sodipodi.sourceforge.net/DTD/sodipodi-0.dtd"
   xmlns="http://www.w3.org/2000/svg"
   xmlns:svg="http://www.w3.org/2000/svg"><sodipodi:namedview
   id="namedview19"
   pagecolor="#ffffff"
   bordercolor="#000000"
   borderopacity="0.25"
   inkscape:showpageshadow="2"
   inkscape:pageopacity="0.0"
   inkscape:pagecheckerboard="true"
   inkscape:deskcolor="#d1d1d1"
   inkscape:document-units="mm"
   fit-margin-top="50"
   fit-margin-left="50"
   fit-margin-right="50"
   fit-margin-bottom="50"
   showgrid="false"
   inkscape:zoom="17.390555"
   inkscape:cx="481.00821"
   inkscape:cy="461.62988"
   inkscape:window-width="1280"
   inkscape:window-height="731"
   inkscape:window-x="0"
   inkscape:window-y="0"
   inkscape:window-maximized="1"
   inkscape:current-layer="svg19" />
 <defs
   class="ClipPathGroup"
   id="defs2"><clipPath
     id="presentation_clip_path"
     clipPathUnits="userSpaceOnUse">
   <rect
   x="0"
   y="0"
   width="21001"
   height="29703"
   id="rect1" />
  </clipPath></defs>
 <defs
   class="TextShapeIndex"
   id="defs3" />
 <defs
   class="EmbeddedBulletChars"
   id="defs12" />
 <g
   id="g12"
   transform="translate(-4162,-7275)">
  <g
   id="id2"
   class="Master_Slide">
   <g
   id="bg-id2"
   class="Background" />
   <g
   id="bo-id2"
   class="BackgroundObjects" />
  </g>
 </g>
 <g
   class="SlideGroup"
   id="g19"
   transform="translate(-4162,-7275)">
  <g
   id="g18">
   <g
   id="container-id1">
    <g
   id="id1"
   class="Slide"
   clip-path="url(#presentation_clip_path)">
     <g
   class="Page"
   id="g17">
      <g
   class="Group"
   id="g16">
       <g
   class="com.sun.star.drawing.PolyPolygonShape"
   id="g14">
        <g
   id="id3">
         <rect
   class="BoundingBox"
   stroke="none"
   fill="none"
   x="4160"
   y="7273"
   width="12509"
   height="12511"
   id="rect12" />
         <path
   fill="#000000"
   stroke="none"
   d="M 4162,7275 H 16666 V 19781 H 4162 Z"
   id="path13" />
         <path
   fill="none"
   stroke="#1b1918"
   stroke-width="3"
   stroke-linejoin="round"
   d="M 4162,7275 H 16666 V 19781 H 4162 Z"
   id="path14" />
        </g>
       </g>
       <g
   class="com.sun.star.drawing.PolyPolygonShape"
   id="g15">
        <g
   id="id4">
         <rect
   class="BoundingBox"
   stroke="none"
   fill="none"
   x="5388"
   y="10399"
   width="10044"
   height="6255"
   id="rect14" />
         <path
   fill="#ffff00"
   stroke="none"
   d="m 7152,12952 h 877 6 l 223,-41 218,-89 165,-147 123,-182 77,-194 h -12 l 59,-236 v -247 l -12,-35 v 0 l -53,-165 -100,-123 -153,-83 -135,-29 -983,12 z m 0,0 z m -535,2725 h 912 v 0 l 300,-42 271,-100 235,-135 -6,-6 165,-218 106,-241 53,-264 v -59 0 -224 l -59,-218 -112,-188 -12,-12 v 0 l -176,-82 -189,-35 h -23 l -1100,6 -365,1823 z m 0,0 z m -1229,976 1164,-6254 2277,11 v 0 l 288,30 277,100 94,47 h -6 l 182,159 147,200 h 6 v 0 l 130,276 53,312 v 306 l -24,176 v 0 l -94,336 -153,311 -100,159 -12,6 -206,206 -264,177 -277,111 -82,24 v 0 l 265,82 247,125 53,41 v 0 l 170,206 118,235 59,235 v 12 l 29,365 -23,371 -95,358 -141,336 -153,241 h 6 l -188,218 -224,194 -164,94 v 0 l -353,123 -371,71 h -123 z m 0,0 z m 7537,-1441 -877,-12 v 0 l -6,312 59,294 29,106 v 0 l 100,212 153,188 200,147 47,23 v 6 l 330,106 347,47 129,12 6,-12 336,-23 317,-77 306,-135 277,-200 v -6 0 l 194,-229 141,-277 88,-276 30,-312 -18,-177 v 0 l -94,-270 -159,-236 -194,-211 -41,-30 6,-6 -459,-276 -106,-53 h 6 l -324,-182 -100,-71 12,6 -118,-101 -76,-147 -6,-153 v -6 l 65,-159 117,-135 159,-94 159,-24 v -6 l 182,6 171,71 76,70 v 6 l 89,165 23,188 -23,130 h 941 l -12,-6 24,-289 -36,-288 -82,-229 h 12 l -147,-194 -183,-142 -123,-64 h -12 l -341,-94 -347,-36 -365,36 -347,88 -130,53 v 0 l -241,147 -217,182 -153,236 -112,252 -41,289 17,277 71,247 v 0 l 135,236 177,200 100,70 v 6 l 382,230 12,11 v 0 l 494,283 v 0 l 135,123 89,153 23,171 -29,176 -83,118 v 12 l -176,141 -188,88 -224,30 -82,-6 v 6 l -165,-47 -153,-95 v -5 l -112,-177 -53,-182 v -206 0 z m 0,0 z m -1889,-3813 183,-1000 994,11 -189,989 -1000,5 z m 0,0 z m -960,5254 825,-4378 971,-6 -806,4378 z"
   id="path15" />
        </g>
       </g>
      </g>
     </g>
    </g>
   </g>
  </g>
 </g>
</svg>
