<?xml version="1.0" encoding="utf-8"?>
<!-- Generator: Adobe Illustrator 15.0.0, SVG Export Plug-In  -->
<!DOCTYPE svg PUBLIC "-//W3C//DTD SVG 1.1//EN" "http://www.w3.org/Graphics/SVG/1.1/DTD/svg11.dtd" [
	<!ENTITY ns_flows "http://ns.adobe.com/Flows/1.0/">
]>
<svg version="1.1"
	 xmlns="http://www.w3.org/2000/svg" xmlns:xlink="http://www.w3.org/1999/xlink" xmlns:a="http://ns.adobe.com/AdobeSVGViewerExtensions/3.0/"
	 x="0px" y="0px" width="503px" height="505px" viewBox="0 -0.61 503 505" enable-background="new 0 -0.61 503 505"
	 xml:space="preserve">
<defs>
</defs>
<g>
	<rect x="0.5" y="0.5" fill="#FFFFFF" width="502" height="503"/>
	<g>
		<polyline fill="none" stroke="#000000" points="502.5,497.5 502.5,503.5 496.5,503.5 		"/>
		<line fill="none" stroke="#000000" stroke-dasharray="11.9512,11.9512" x1="484.549" y1="503.5" x2="12.476" y2="503.5"/>
		<polyline fill="none" stroke="#000000" points="6.5,503.5 0.5,503.5 0.5,497.5 		"/>
		<line fill="none" stroke="#000000" stroke-dasharray="11.9756,11.9756" x1="0.5" y1="485.524" x2="0.5" y2="12.488"/>
		<polyline fill="none" stroke="#000000" points="0.5,6.5 0.5,0.5 6.5,0.5 		"/>
		<line fill="none" stroke="#000000" stroke-dasharray="11.9512,11.9512" x1="18.451" y1="0.5" x2="490.524" y2="0.5"/>
		<polyline fill="none" stroke="#000000" points="496.5,0.5 502.5,0.5 502.5,6.5 		"/>
		<line fill="none" stroke="#000000" stroke-dasharray="11.9756,11.9756" x1="502.5" y1="18.476" x2="502.5" y2="491.512"/>
	</g>
</g>
<rect x="18.5" y="17.5" fill="#7C7635" width="467" height="469"/>
<polyline fill="#FFFFFF" stroke="#000000" stroke-width="2" stroke-miterlimit="10" points="65.296,304.92 35.505,275.129 
	35.333,275.125 35.333,230.167 35.501,230.335 65.657,200.179 66.332,200.455 108.039,200.455 108.686,200.476 108.686,192 
	110.46,190.423 186.49,114.395 189.75,110.988 198.188,110.988 198.478,110.777 198.478,69.07 198.632,67.965 228.358,38.239 
	230,38.39 272.667,38.39 273.353,38.572 303.079,68.298 303.233,69.403 303.233,111.11 303.523,111.321 311.961,111.321 
	315.221,114.728 391.251,190.756 393.025,192.333 393.025,200.809 393.929,200.977 435.636,200.977 436.311,200.702 
	466.467,230.857 466.635,230.689 466.635,275.647 466.463,275.652 436.672,305.441 "/>
<polyline fill="#FFFFFF" stroke="#000000" stroke-width="2" stroke-miterlimit="10" points="64.968,304.645 107.678,304.645 
	110.688,305.239 110.688,313.715 112.462,315.292 188.492,391.319 191.752,394.727 198.834,394.727 200.145,394.707 
	200.145,436.414 200.141,437.027 230.358,467.245 230.626,467.413 274.815,467.413 274.819,467.241 304.124,437.937 
	304.335,437.778 304.335,396.313 304.301,395.892 310.5,395.892 311.053,395.428 392.625,312.25 392.633,311.75 392.633,305.167 
	393,305.166 437,305.166 "/>
<line fill="none" stroke="#7C7634" stroke-width="2" stroke-linecap="round" stroke-linejoin="round" x1="147.5" y1="247.833" x2="137" y2="247.833"/>
<line fill="none" stroke="#7C7634" stroke-width="2" stroke-linecap="round" stroke-linejoin="round" x1="137" y1="247.833" x2="127.5" y2="247.833"/>
<line fill="none" stroke="#7C7634" stroke-width="2" stroke-linecap="round" stroke-linejoin="round" x1="127.5" y1="257.5" x2="137" y2="257.5"/>
<line fill="none" stroke="#7C7634" stroke-width="2" stroke-linecap="round" stroke-linejoin="round" x1="117" y1="247.833" x2="127.5" y2="247.833"/>
<line fill="none" stroke="#7C7634" stroke-width="2" stroke-linecap="round" stroke-linejoin="round" x1="137" y1="257.5" x2="147.5" y2="257.5"/>
<line fill="none" stroke="#7C7634" stroke-width="2" stroke-linecap="round" stroke-linejoin="round" x1="127.5" y1="257.5" x2="117" y2="257.5"/>
<polyline fill="none" stroke="#7C7634" stroke-width="2" stroke-linecap="round" stroke-linejoin="round" points="117,247.833 
	101,247.833 101,257.5 117,257.5 "/>
<line fill="none" stroke="#7C7634" stroke-width="2" stroke-linecap="round" stroke-linejoin="round" x1="147.5" y1="210.463" x2="147.5" y2="247.833"/>
<line fill="none" stroke="#7C7634" stroke-width="2" stroke-linecap="round" stroke-linejoin="round" x1="180.745" y1="329.964" x2="173.203" y2="322.422"/>
<polyline fill="none" stroke="#7C7634" stroke-width="2" stroke-miterlimit="10" points="173.203,322.422 148.146,297.364 
	147.5,294.303 147.5,257.5 "/>
<line fill="none" stroke="#7C7634" stroke-width="2" stroke-linecap="round" stroke-linejoin="round" x1="187.463" y1="323.247" x2="179.921" y2="315.705"/>
<polyline fill="none" stroke="#7C7634" stroke-width="2" stroke-miterlimit="10" points="179.921,315.705 157.637,293.421 
	157,290.757 157,214.387 "/>
<line fill="none" stroke="#7C7634" stroke-width="2" stroke-linecap="round" stroke-linejoin="round" x1="206.908" y1="303.802" x2="199.366" y2="296.26"/>
<line fill="none" stroke="#7C7634" stroke-width="2" stroke-linecap="round" stroke-linejoin="round" x1="194.18" y1="316.529" x2="200.897" y2="309.812"/>
<line fill="none" stroke="#7C7634" stroke-width="2" stroke-linecap="round" stroke-linejoin="round" x1="166.603" y1="344.106" x2="173.32" y2="337.389"/>
<line fill="none" stroke="#7C7634" stroke-width="2" stroke-linecap="round" stroke-linejoin="round" x1="214.687" y1="296.023" x2="221.757" y2="288.952"/>
<line fill="none" stroke="#7C7634" stroke-width="2" stroke-linecap="round" stroke-linejoin="round" x1="207.145" y1="288.481" x2="214.215" y2="281.41"/>
<line fill="none" stroke="#7C7634" stroke-width="2" stroke-linecap="round" stroke-linejoin="round" x1="186.639" y1="308.987" x2="193.355" y2="302.271"/>
<polyline fill="none" stroke="#7C7634" stroke-width="2" stroke-miterlimit="10" points="117,218.833 117,198.5 119.001,196.5 
	152.408,163.324 "/>
<polyline fill="none" stroke="#7C7634" stroke-width="2" stroke-linecap="round" stroke-linejoin="round" points="110.333,227.39 
	126.667,227.39 127.5,226.833 127.5,202.205 "/>
<polyline fill="none" stroke="#7C7634" stroke-width="2" stroke-miterlimit="10" points="107.5,237.556 135.834,237.556 137,237.5 
	137,206.127 139.867,204.15 203.75,139.5 204.15,139.738 235.523,139.738 235.579,138.572 235.579,110.238 234.939,109.321 
	226.234,99.46 225.979,98.938 225.979,80.313 226.017,79.806 240.048,65.776 "/>
<polyline fill="none" stroke="#7C7634" stroke-width="2" stroke-linecap="round" stroke-linejoin="round" points="110,277.367 
	126.492,277.367 127.333,277.97 127.333,304.667 128.163,305.667 159.061,336.564 "/>
<polyline fill="none" stroke="#7C7634" stroke-width="2" stroke-linecap="round" stroke-linejoin="round" points="107.167,267.201 
	135.82,267.201 137,267.262 137,300.813 137.654,301.724 165.778,329.848 159.061,336.564 "/>
<line fill="none" stroke="#7C7634" stroke-width="2" stroke-miterlimit="10" x1="44.5" y1="234.167" x2="44.5" y2="271.25"/>
<line fill="none" stroke="#7C7634" stroke-width="2" stroke-miterlimit="10" x1="53.667" y1="238.25" x2="53.667" y2="267.125"/>
<line fill="none" stroke="#7C7634" stroke-width="2" stroke-miterlimit="10" x1="62.834" y1="242.375" x2="62.834" y2="263.125"/>
<line fill="none" stroke="#7C7634" stroke-width="2" stroke-miterlimit="10" x1="44.638" y1="271.298" x2="69.209" y2="295.871"/>
<line fill="none" stroke="#7C7634" stroke-width="2" stroke-miterlimit="10" x1="53.568" y1="267.265" x2="72.957" y2="286.655"/>
<line fill="none" stroke="#7C7634" stroke-width="2" stroke-miterlimit="10" x1="62.958" y1="263.356" x2="76.707" y2="277.105"/>
<polyline fill="none" stroke="#7C7634" stroke-width="2" stroke-miterlimit="10" points="68.768,295.478 103.995,295.478 
	104.891,295.467 116.241,284.116 116.667,284.313 116.667,308.938 117.334,309.687 117.673,310.024 "/>
<line fill="none" stroke="#7C7634" stroke-width="2" stroke-miterlimit="10" x1="76.565" y1="277.144" x2="96.583" y2="277.144"/>
<polyline fill="none" stroke="#7C7634" stroke-width="2" stroke-miterlimit="10" points="109.639,277.39 100.736,286.291 
	100.077,286.311 72.646,286.311 "/>
<line fill="none" stroke="#7C7634" stroke-width="2" stroke-miterlimit="10" x1="96.828" y1="276.901" x2="106.619" y2="267.11"/>
<line fill="none" stroke="#7C7634" stroke-width="2" stroke-miterlimit="10" x1="44.566" y1="234.233" x2="69.57" y2="209.229"/>
<line fill="none" stroke="#7C7634" stroke-width="2" stroke-miterlimit="10" x1="53.591" y1="238.173" x2="73.318" y2="218.444"/>
<line fill="none" stroke="#7C7634" stroke-width="2" stroke-miterlimit="10" x1="63.038" y1="242.024" x2="77.068" y2="227.994"/>
<line fill="none" stroke="#7C7634" stroke-width="2" stroke-miterlimit="10" x1="70.053" y1="209.622" x2="104.356" y2="209.621"/>
<line fill="none" stroke="#7C7634" stroke-width="2" stroke-miterlimit="10" x1="73.604" y1="218.788" x2="100.438" y2="218.788"/>
<line fill="none" stroke="#7C7634" stroke-width="2" stroke-miterlimit="10" x1="76.927" y1="227.956" x2="96.944" y2="227.955"/>
<line fill="none" stroke="#7C7634" stroke-width="2" stroke-miterlimit="10" x1="106.583" y1="236.917" x2="96.723" y2="228.211"/>
<line fill="none" stroke="#7C7634" stroke-width="2" stroke-miterlimit="10" x1="110.583" y1="227.583" x2="100.723" y2="218.878"/>
<line fill="none" stroke="#7C7634" stroke-width="2" stroke-miterlimit="10" x1="116.667" y1="219.25" x2="104.333" y2="209.75"/>
<polyline fill="none" stroke="#7C7634" stroke-width="2" stroke-miterlimit="10" points="336.189,330.369 365.063,301.75 
	365,301.25 365,267.783 366.179,267.723 394.801,267.723 395.608,267.892 405.139,277.423 405.385,277.667 425.402,277.666 "/>
<line fill="none" stroke="#7C7634" stroke-width="2" stroke-linecap="round" stroke-linejoin="round" x1="328.796" y1="337.519" x2="321.625" y2="330"/>
<polyline fill="none" stroke="#7C7634" stroke-width="2" stroke-miterlimit="10" points="287.281,296.545 274.682,309.313 
	274.438,309.746 228.976,309.746 228.395,309.731 214.687,296.023 "/>
<polyline fill="none" stroke="#7C7634" stroke-width="2" stroke-linecap="round" stroke-linejoin="round" points="206.908,303.802 
	223.825,320.719 224.434,320.746 278.688,320.746 279.16,320.223 295.438,303.938 295.689,304.189 301,309.5 301.457,309.918 
	282.5,329.125 282.354,329.246 220.923,329.246 220.059,328.974 200.897,309.812 "/>
<line fill="none" stroke="#7C7634" stroke-width="2" stroke-linecap="round" stroke-linejoin="round" x1="343.584" y1="352.25" x2="335.25" y2="343.938"/>
<line fill="none" stroke="#7C7634" stroke-width="2" stroke-linecap="round" stroke-linejoin="round" x1="287.281" y1="296.545" x2="267.833" y2="277"/>
<line fill="none" stroke="#7C7634" stroke-width="2" stroke-linecap="round" stroke-linejoin="round" x1="355.75" y1="350.084" x2="336.189" y2="330.368"/>
<polyline fill="none" stroke="#7C7634" stroke-width="2" stroke-miterlimit="10" points="425.041,228.508 405.473,228.508 
	405.218,228.764 395.344,237.441 394.426,238.079 365.923,238.079 364.75,238.02 364.75,205.438 364.535,205.243 335.412,176.058 
	"/>
<line fill="none" stroke="#7C7634" stroke-width="2" stroke-miterlimit="10" x1="457.468" y1="234.689" x2="457.468" y2="271.772"/>
<line fill="none" stroke="#7C7634" stroke-width="2" stroke-miterlimit="10" x1="448.301" y1="238.772" x2="448.301" y2="267.647"/>
<line fill="none" stroke="#7C7634" stroke-width="2" stroke-miterlimit="10" x1="439.134" y1="242.897" x2="439.134" y2="263.647"/>
<line fill="none" stroke="#7C7634" stroke-width="2" stroke-miterlimit="10" x1="457.33" y1="271.82" x2="432.759" y2="296.393"/>
<line fill="none" stroke="#7C7634" stroke-width="2" stroke-miterlimit="10" x1="448.399" y1="267.787" x2="429.011" y2="287.177"/>
<line fill="none" stroke="#7C7634" stroke-width="2" stroke-miterlimit="10" x1="439.01" y1="263.878" x2="425.261" y2="277.628"/>
<polyline fill="none" stroke="#7C7634" stroke-width="2" stroke-miterlimit="10" points="433.2,296 394,296 393.704,295.732 
	383.66,285.84 383.467,285.946 383.467,310.063 383.333,310.666 357.125,337.125 356.708,336.625 349.833,329.833 350.5,328.875 
	374.333,305.5 374.688,305 374.688,278.488 375.525,277.89 391.968,277.89 392.49,278.073 401.231,286.813 401.688,286.833 
	429.321,286.833 "/>
<line fill="none" stroke="#7C7634" stroke-width="2" stroke-miterlimit="10" x1="457.401" y1="234.756" x2="432.397" y2="209.751"/>
<line fill="none" stroke="#7C7634" stroke-width="2" stroke-miterlimit="10" x1="448.377" y1="238.696" x2="428.649" y2="218.967"/>
<line fill="none" stroke="#7C7634" stroke-width="2" stroke-miterlimit="10" x1="438.93" y1="242.547" x2="424.899" y2="228.516"/>
<line fill="none" stroke="#7C7634" stroke-width="2" stroke-miterlimit="10" x1="431.915" y1="210.144" x2="397.611" y2="210.144"/>
<line fill="none" stroke="#7C7634" stroke-width="2" stroke-miterlimit="10" x1="385.301" y1="219.772" x2="397.635" y2="210.272"/>
<line fill="none" stroke="#7C7634" stroke-width="2" stroke-linecap="round" stroke-linejoin="round" x1="256.19" y1="377.746" x2="256.19" y2="388.246"/>
<polyline fill="none" stroke="#7C7634" stroke-width="2" stroke-linecap="round" stroke-linejoin="round" points="256.19,357.913 
	256.19,401.913 246.523,401.913 246.523,357.913 246.523,357.746 209.153,357.746 208.417,357.626 180.745,329.964 "/>
<polyline fill="none" stroke="#7C7634" stroke-width="2" stroke-miterlimit="10" points="321.5,330 294.439,357.184 
	294.063,357.746 256.19,357.746 "/>
<polyline fill="none" stroke="#7C7634" stroke-width="2" stroke-linecap="round" stroke-linejoin="round" points="194.18,316.529 
	216.292,338.542 217,338.746 285.9,338.746 286.119,338.721 307.875,316.938 307.938,316.688 315.146,323.792 315.313,323.938 
	290.548,348.234 289.447,348.246 213.077,348.246 212.334,348.167 187.463,323.247 "/>
<polyline fill="none" stroke="#7C7634" stroke-width="2" stroke-linecap="round" stroke-linejoin="round" points="214.215,281.41 
	206.094,273.289 205.5,272.652 205.5,234.415 205.542,234.083 214.709,223.958 215.042,224.208 221.768,230.566 221.959,230.875 
	215.126,238.083 215,238.338 215,268.667 215.585,269.345 236.599,290.358 237.028,290.246 267.796,290.246 268.207,290.29 
	272.54,294.396 272.71,294.77 268.001,299.333 267.688,299.746 233.105,299.746 232.591,299.786 221.757,288.952 "/>
<polyline fill="none" stroke="#7C7634" stroke-width="2" stroke-miterlimit="10" points="166.603,344.106 200.042,377.459 
	200.895,377.746 225.523,377.746 226.08,378.579 226.08,393.042 226.128,393.461 218.568,402.023 218.479,402.308 218.479,429.142 
	218.375,429.668 237.671,448.963 237.94,449.079 266.815,449.079 266.955,449.178 286.098,430.035 286.001,429.188 286.001,402.669 
	285.98,402.01 277.08,393.107 274.891,391.063 274.891,377.248 275.51,376.5 302.938,376.5 303,376.438 303.374,376.062 
	335.375,343.875 "/>
<polyline fill="none" stroke="#7C7634" stroke-width="2" stroke-miterlimit="10" points="173.32,337.389 204.084,368.167 
	204.817,368.246 236.19,368.246 236.246,369.412 236.246,396.584 235.959,396.876 227.901,406.023 227.646,406.251 227.646,425.542 
	227.837,425.831 241.398,439.392 242.065,439.912 242.875,439.912 262.815,439.912 263.046,439.788 276.796,426.039 276.834,425.5 
	276.834,406.163 276.591,405.918 266.8,396.127 265.891,395.438 265.891,369.069 265.95,367.875 298.688,367.875 299,367.833 
	328.938,337.438 "/>
<line fill="none" stroke="#7C7634" stroke-width="2" stroke-linecap="round" stroke-linejoin="round" x1="245.856" y1="150.238" x2="245.856" y2="139.738"/>
<line fill="none" stroke="#7C7634" stroke-width="2" stroke-linecap="round" stroke-linejoin="round" x1="245.856" y1="139.738" x2="245.856" y2="130.238"/>
<line fill="none" stroke="#7C7634" stroke-width="2" stroke-linecap="round" stroke-linejoin="round" x1="255.523" y1="130.238" x2="255.523" y2="139.738"/>
<line fill="none" stroke="#7C7634" stroke-width="2" stroke-linecap="round" stroke-linejoin="round" x1="245.856" y1="119.738" x2="245.856" y2="130.238"/>
<line fill="none" stroke="#7C7634" stroke-width="2" stroke-linecap="round" stroke-linejoin="round" x1="255.523" y1="139.738" x2="255.523" y2="150.238"/>
<line fill="none" stroke="#7C7634" stroke-width="2" stroke-linecap="round" stroke-linejoin="round" x1="255.523" y1="130.238" x2="255.523" y2="119.738"/>
<polyline fill="none" stroke="#7C7634" stroke-width="2" stroke-linecap="round" stroke-linejoin="round" points="245.856,119.738 
	245.856,103.738 255.523,103.738 255.523,119.738 "/>
<line fill="none" stroke="#7C7634" stroke-width="2" stroke-linecap="round" stroke-linejoin="round" x1="327.987" y1="183.483" x2="320.445" y2="175.941"/>
<polyline fill="none" stroke="#7C7634" stroke-width="2" stroke-linecap="round" stroke-linejoin="round" points="342.13,169.34 
	374.104,201.625 374.333,202 374.333,227.34 375.173,227.912 391.635,227.912 391.75,227.688 401.245,219.401 401.75,219.311 
	428.363,219.311 "/>
<polyline fill="none" stroke="#7C7634" stroke-width="2" stroke-linecap="round" stroke-linejoin="round" points="320.445,175.941 
	295.542,150.533 295,150.238 255.523,150.238 "/>
<polyline fill="none" stroke="#7C7634" stroke-width="2" stroke-linecap="round" stroke-linejoin="round" points="327.987,183.483 
	354.375,209.938 354.468,210.986 354.468,248.356 355.093,248.356 400.968,248.356 400.968,258.022 355.093,258.022 
	354.655,257.897 354.655,296.563 354.667,297.166 329.334,322.417 328.813,322.75 322.251,316.084 322.751,315.667 344.674,292.568 
	344.968,292.237 344.968,214.909 345.063,214.5 344.938,213.875 321.271,190.201 321.063,190.813 314.835,196.969 "/>
<line fill="none" stroke="#7C7634" stroke-width="2" stroke-linecap="round" stroke-linejoin="round" x1="342.13" y1="169.34" x2="335.412" y2="176.058"/>
<line fill="none" stroke="#7C7634" stroke-width="2" stroke-linecap="round" stroke-linejoin="round" x1="334.588" y1="161.798" x2="327.871" y2="168.516"/>
<line fill="none" stroke="#7C7634" stroke-width="2" stroke-linecap="round" stroke-linejoin="round" x1="286.505" y1="209.882" x2="279.434" y2="216.953"/>
<line fill="none" stroke="#7C7634" stroke-width="2" stroke-linecap="round" stroke-linejoin="round" x1="313.511" y1="182.876" x2="306.794" y2="189.593"/>
<line fill="none" stroke="#7C7634" stroke-width="2" stroke-linecap="round" stroke-linejoin="round" x1="313.729" y1="182.659" x2="307.011" y2="189.376"/>
<polyline fill="none" stroke="#7C7634" stroke-width="2" stroke-miterlimit="10" points="236.273,56.405 265.148,56.405 
	265.288,56.306 284.055,75.072 284.334,75.384 284.334,102.815 284.313,103.474 275.413,112.376 275.391,112.738 275.391,129.23 
	275.993,130.071 302.69,130.071 303.25,130.125 334.588,161.798 "/>
<polyline fill="none" stroke="#7C7634" stroke-width="2" stroke-miterlimit="10" points="232.189,47.238 269.273,47.238 
	269.321,47.375 293.191,71.245 293.501,71.505 293.501,106.733 293.519,109.456 283.913,119.064 283.946,119.405 307.356,119.405 
	307.75,119.563 385.063,197.612 384.968,198.438 384.968,219.356 "/>
<polyline fill="none" stroke="#7C7634" stroke-width="2" stroke-miterlimit="10" points="240.398,65.572 261.148,65.572 
	261.379,65.696 274.717,79.033 275.167,79.303 275.167,99.321 274.924,99.566 265.133,109.357 265.224,109.905 265.224,138.558 
	265.285,139.738 299.523,139.738 299.688,140 327.871,168.516 "/>
<polyline fill="none" stroke="#7C7634" stroke-width="2" stroke-miterlimit="10" points="225.606,113.321 216.901,103.46 
	216.812,103.176 216.812,76.342 216.794,75.73 236.196,56.329 "/>
<polyline fill="none" stroke="#7C7634" stroke-width="2" stroke-miterlimit="10" points="159.95,155.782 195.251,119.753 
	195.892,119.738 216.856,119.738 217.273,119.405 207.773,107.071 207.645,106.188 207.645,72.791 207.688,71.874 232.257,47.304 
	"/>
<polyline fill="none" stroke="#7C7634" stroke-width="2" stroke-miterlimit="10" points="166.667,162.5 198.392,130.396 
	198.978,130.238 224.829,130.238 225.413,129.405 225.413,113.071 "/>
<line fill="none" stroke="#7C7634" stroke-width="2" stroke-miterlimit="10" x1="159.126" y1="170.042" x2="127.5" y2="202.25"/>
<polyline fill="none" stroke="#7C7634" stroke-width="2" stroke-miterlimit="10" points="307.011,189.376 287.125,169.188 
	286.333,169.238 215.333,169.238 214.774,169.398 166.838,217.911 166.5,218.31 166.5,287.21 167.129,289.478 186.639,308.987 "/>
<polyline fill="none" stroke="#7C7634" stroke-width="2" stroke-miterlimit="10" points="199.366,296.26 185.112,282.006 
	184.5,280.491 184.5,226.375 185.25,225.75 200.5,210 200.388,209.355 193.964,202.589 193.619,202.928 175.993,221.494 
	176,222.233 176,283.665 176.62,285.534 193.355,302.271 "/>
<polyline fill="none" stroke="#7C7634" stroke-width="2" stroke-miterlimit="10" points="286.505,209.882 274.667,197.833 
	274.063,197.738 228.559,197.738 228,197.75 196.188,229.852 195.5,230.688 195.5,276.385 196.103,277.439 207.145,288.481 "/>
<polyline fill="none" stroke="#7C7634" stroke-width="2" stroke-linecap="round" stroke-linejoin="round" points="157.25,214.75 
	180.587,190.275 180.698,189.864 174.235,183.401 173.814,183.69 147.592,210.194 "/>
<polyline fill="none" stroke="#7C7634" stroke-width="2" stroke-linecap="round" stroke-linejoin="round" points="313.729,182.659 
	291,159.813 290.667,159.738 212.41,159.738 212.054,159.68 188.11,182.798 187.638,183.055 181.151,176.568 181.2,176.265 
	207.971,150.347 208.486,150.238 245.856,150.238 "/>
<line fill="none" stroke="#7C7634" stroke-width="2" stroke-linecap="round" stroke-linejoin="round" x1="152.408" y1="163.324" x2="159.126" y2="170.042"/>
<line fill="none" stroke="#7C7634" stroke-width="2" stroke-linecap="round" stroke-linejoin="round" x1="159.95" y1="155.782" x2="166.667" y2="162.5"/>
<polyline fill="none" stroke="#7C7634" stroke-width="2" stroke-linecap="round" stroke-linejoin="round" points="314.659,197.132 
	334.94,217.987 335.47,219.005 335.47,287.53 335.583,287.96 315.664,309.188 315.353,309.334 308.749,302.639 308.948,302.389 
	326.11,284.226 326.018,283.915 326.018,222.921 326.049,222.167 282.438,178.75 281.688,178.738 218.333,178.738 217.59,178.902 
	200.611,195.735 200.783,195.866 207.854,202.937 208.565,203.314 223.646,187.706 223.767,187.238 278.25,187.238 278.813,187.438 
	316.374,225.519 317.47,226.654 317.47,280.523 317.5,280.94 303.305,296.253 302.825,296.75 294.991,288.976 295.176,288.794 
	306.251,277.156 306.462,276.817 306.462,231.171 306.167,230.167 294.046,217.424 293.375,218 286.976,224.495 287.388,225.371 
	296.092,235.207 296.468,235.578 296.468,273.175 296.187,273.485 287.981,281.502 287.734,281.625 281.768,275.679 
	281.874,275.261 286.933,269.938 286.968,269.628 286.968,238.5 286.938,237.75 267.167,218 266.774,217.738 237.501,217.738 
	236.93,217.775 231.021,222.861 230.854,222.687 224.105,215.938 223.934,215.73 232.15,208.315 232.438,208.238 269.875,208.238 
	270.5,208.188 279.434,216.953 "/>
<polyline fill="none" stroke="#7C7634" stroke-width="2" stroke-miterlimit="10" points="117.673,310.024 195.709,388.084 
	196.559,388.246 217.523,388.246 217.023,388.568 209.44,398.413 209.312,398.39 209.312,432.693 209.289,433.546 233.621,457.877 
	233.856,458.246 270.94,458.246 270.988,458.108 295.018,434.08 295.168,433.979 295.168,398.751 295,398.375 284.438,386.313 
	285.113,386.079 308.938,386.079 309,386.166 309.494,385.677 343.438,352 "/>
<polyline fill="none" stroke="#7C7634" stroke-width="2" stroke-miterlimit="10" points="64.968,304.645 107.678,304.645 
	110.688,305.239 110.688,313.715 112.462,315.292 188.492,391.319 191.752,394.727 198.834,394.727 200.145,394.707 
	200.145,436.414 200.141,437.027 230.358,467.245 230.626,467.413 274.815,467.413 274.819,467.241 304.124,437.937 
	304.335,437.778 304.335,396.313 304.301,395.892 310.5,395.892 311.053,395.428 392.625,312.25 392.633,311.75 392.633,305.167 
	393,305.166 437,305.166 "/>
<polyline fill="none" stroke="#7C7634" stroke-width="2" stroke-miterlimit="10" points="65.296,304.92 35.505,275.129 
	35.333,275.125 35.333,230.167 35.501,230.335 65.657,200.179 66.332,200.455 108.039,200.455 108.686,200.476 108.686,192 
	110.46,190.423 186.49,114.395 189.75,110.988 198.188,110.988 198.478,110.777 198.478,69.07 198.632,67.965 228.358,38.239 
	230,38.39 272.667,38.39 273.353,38.572 303.079,68.298 303.233,69.403 303.233,111.11 303.523,111.321 311.961,111.321 
	315.221,114.728 391.251,190.756 393.025,192.333 393.025,200.809 393.929,200.977 435.636,200.977 436.311,200.702 
	466.467,230.857 466.635,230.689 466.635,275.647 466.463,275.652 436.672,305.441 "/>
<polygon fill="#7C7634" points="79.878,267.616 71.219,258.957 71.219,246.71 79.878,238.051 92.124,238.051 100.783,246.71 
	100.783,258.957 92.124,267.616 "/>
<polygon fill="#7C7634" points="408.878,267.616 400.219,258.957 400.219,246.71 408.878,238.051 421.124,238.051 429.783,246.71 
	429.783,258.957 421.124,267.616 "/>
<polygon fill="#7C7634" points="245.421,430.833 236.762,422.174 236.762,409.928 245.421,401.269 257.667,401.269 266.326,409.928 
	266.326,422.174 257.667,430.833 "/>
<polygon fill="#7C7634" points="244.878,104.283 236.219,95.624 236.219,83.377 244.878,74.718 257.124,74.718 265.783,83.377 
	265.783,95.624 257.124,104.283 "/>
<polygon fill="#7C7634" points="240.145,279.711 224.792,263.967 224.792,241.7 240.145,225.957 261.858,225.957 277.211,241.7 
	277.211,263.967 261.858,279.711 "/>
</svg>
