<?xml version="1.0" encoding="UTF-8" standalone="no"?>
<!-- Created with Inkscape (http://www.inkscape.org/) -->

<svg
   xmlns:dc="http://purl.org/dc/elements/1.1/"
   xmlns:cc="http://creativecommons.org/ns#"
   xmlns:rdf="http://www.w3.org/1999/02/22-rdf-syntax-ns#"
   xmlns:svg="http://www.w3.org/2000/svg"
   xmlns="http://www.w3.org/2000/svg"
   xmlns:sodipodi="http://sodipodi.sourceforge.net/DTD/sodipodi-0.dtd"
   xmlns:inkscape="http://www.inkscape.org/namespaces/inkscape"
   version="1.1"
   width="200"
   height="200"
   id="svg2"
   inkscape:version="0.47 r22583"
   sodipodi:docname="Italian traffic signs - icona gpl.svg"
   sodipodi:version="0.32"
   inkscape:output_extension="org.inkscape.output.svg.inkscape">
  <metadata
     id="metadata2877">
    <rdf:RDF>
      <cc:Work
         rdf:about="">
        <dc:format>image/svg+xml</dc:format>
        <dc:type
           rdf:resource="http://purl.org/dc/dcmitype/StillImage" />
        <dc:title></dc:title>
      </cc:Work>
    </rdf:RDF>
  </metadata>
  <sodipodi:namedview
     pagecolor="#ffffff"
     bordercolor="#666666"
     borderopacity="1"
     objecttolerance="10"
     gridtolerance="10"
     guidetolerance="10"
     inkscape:pageopacity="0"
     inkscape:pageshadow="2"
     inkscape:window-width="1600"
     inkscape:window-height="838"
     id="namedview2875"
     showgrid="false"
     inkscape:zoom="2.3765092"
     inkscape:cx="99.300142"
     inkscape:cy="99.214635"
     inkscape:window-x="-8"
     inkscape:window-y="-8"
     inkscape:window-maximized="1"
     inkscape:current-layer="svg2" />
  <defs
     id="defs4">
    <inkscape:perspective
       sodipodi:type="inkscape:persp3d"
       inkscape:vp_x="0 : 100 : 1"
       inkscape:vp_y="0 : 1000 : 0"
       inkscape:vp_z="200 : 100 : 1"
       inkscape:persp3d-origin="100 : 66.666667 : 1"
       id="perspective2879" />
    <inkscape:perspective
       id="perspective2839"
       inkscape:persp3d-origin="0.5 : 0.33333333 : 1"
       inkscape:vp_z="1 : 0.5 : 1"
       inkscape:vp_y="0 : 1000 : 0"
       inkscape:vp_x="0 : 0.5 : 1"
       sodipodi:type="inkscape:persp3d" />
    <inkscape:perspective
       id="perspective3649"
       inkscape:persp3d-origin="0.5 : 0.33333333 : 1"
       inkscape:vp_z="1 : 0.5 : 1"
       inkscape:vp_y="0 : 1000 : 0"
       inkscape:vp_x="0 : 0.5 : 1"
       sodipodi:type="inkscape:persp3d" />
    <inkscape:perspective
       id="perspective3679"
       inkscape:persp3d-origin="0.5 : 0.33333333 : 1"
       inkscape:vp_z="1 : 0.5 : 1"
       inkscape:vp_y="0 : 1000 : 0"
       inkscape:vp_x="0 : 0.5 : 1"
       sodipodi:type="inkscape:persp3d" />
    <inkscape:perspective
       id="perspective3713"
       inkscape:persp3d-origin="0.5 : 0.33333333 : 1"
       inkscape:vp_z="1 : 0.5 : 1"
       inkscape:vp_y="0 : 1000 : 0"
       inkscape:vp_x="0 : 0.5 : 1"
       sodipodi:type="inkscape:persp3d" />
    <inkscape:perspective
       id="perspective3741"
       inkscape:persp3d-origin="0.5 : 0.33333333 : 1"
       inkscape:vp_z="1 : 0.5 : 1"
       inkscape:vp_y="0 : 1000 : 0"
       inkscape:vp_x="0 : 0.5 : 1"
       sodipodi:type="inkscape:persp3d" />
    <inkscape:perspective
       id="perspective3765"
       inkscape:persp3d-origin="0.5 : 0.33333333 : 1"
       inkscape:vp_z="1 : 0.5 : 1"
       inkscape:vp_y="0 : 1000 : 0"
       inkscape:vp_x="0 : 0.5 : 1"
       sodipodi:type="inkscape:persp3d" />
    <inkscape:perspective
       id="perspective3801"
       inkscape:persp3d-origin="0.5 : 0.33333333 : 1"
       inkscape:vp_z="1 : 0.5 : 1"
       inkscape:vp_y="0 : 1000 : 0"
       inkscape:vp_x="0 : 0.5 : 1"
       sodipodi:type="inkscape:persp3d" />
    <inkscape:perspective
       id="perspective2863"
       inkscape:persp3d-origin="0.5 : 0.33333333 : 1"
       inkscape:vp_z="1 : 0.5 : 1"
       inkscape:vp_y="0 : 1000 : 0"
       inkscape:vp_x="0 : 0.5 : 1"
       sodipodi:type="inkscape:persp3d" />
    <inkscape:perspective
       id="perspective3859"
       inkscape:persp3d-origin="0.5 : 0.33333333 : 1"
       inkscape:vp_z="1 : 0.5 : 1"
       inkscape:vp_y="0 : 1000 : 0"
       inkscape:vp_x="0 : 0.5 : 1"
       sodipodi:type="inkscape:persp3d" />
    <inkscape:perspective
       id="perspective3964"
       inkscape:persp3d-origin="0.5 : 0.33333333 : 1"
       inkscape:vp_z="1 : 0.5 : 1"
       inkscape:vp_y="0 : 1000 : 0"
       inkscape:vp_x="0 : 0.5 : 1"
       sodipodi:type="inkscape:persp3d" />
    <inkscape:perspective
       id="perspective3988"
       inkscape:persp3d-origin="0.5 : 0.33333333 : 1"
       inkscape:vp_z="1 : 0.5 : 1"
       inkscape:vp_y="0 : 1000 : 0"
       inkscape:vp_x="0 : 0.5 : 1"
       sodipodi:type="inkscape:persp3d" />
    <inkscape:perspective
       id="perspective2879-7"
       inkscape:persp3d-origin="0.5 : 0.33333333 : 1"
       inkscape:vp_z="1 : 0.5 : 1"
       inkscape:vp_y="0 : 1000 : 0"
       inkscape:vp_x="0 : 0.5 : 1"
       sodipodi:type="inkscape:persp3d" />
    <inkscape:perspective
       id="perspective4031"
       inkscape:persp3d-origin="0.5 : 0.33333333 : 1"
       inkscape:vp_z="1 : 0.5 : 1"
       inkscape:vp_y="0 : 1000 : 0"
       inkscape:vp_x="0 : 0.5 : 1"
       sodipodi:type="inkscape:persp3d" />
    <inkscape:perspective
       id="perspective4047"
       inkscape:persp3d-origin="0.5 : 0.33333333 : 1"
       inkscape:vp_z="1 : 0.5 : 1"
       inkscape:vp_y="0 : 1000 : 0"
       inkscape:vp_x="0 : 0.5 : 1"
       sodipodi:type="inkscape:persp3d" />
    <inkscape:perspective
       id="perspective4063"
       inkscape:persp3d-origin="0.5 : 0.33333333 : 1"
       inkscape:vp_z="1 : 0.5 : 1"
       inkscape:vp_y="0 : 1000 : 0"
       inkscape:vp_x="0 : 0.5 : 1"
       sodipodi:type="inkscape:persp3d" />
    <inkscape:perspective
       id="perspective4079"
       inkscape:persp3d-origin="0.5 : 0.33333333 : 1"
       inkscape:vp_z="1 : 0.5 : 1"
       inkscape:vp_y="0 : 1000 : 0"
       inkscape:vp_x="0 : 0.5 : 1"
       sodipodi:type="inkscape:persp3d" />
    <inkscape:perspective
       id="perspective4097"
       inkscape:persp3d-origin="0.5 : 0.33333333 : 1"
       inkscape:vp_z="1 : 0.5 : 1"
       inkscape:vp_y="0 : 1000 : 0"
       inkscape:vp_x="0 : 0.5 : 1"
       sodipodi:type="inkscape:persp3d" />
    <inkscape:perspective
       id="perspective4115"
       inkscape:persp3d-origin="0.5 : 0.33333333 : 1"
       inkscape:vp_z="1 : 0.5 : 1"
       inkscape:vp_y="0 : 1000 : 0"
       inkscape:vp_x="0 : 0.5 : 1"
       sodipodi:type="inkscape:persp3d" />
    <inkscape:perspective
       id="perspective4129"
       inkscape:persp3d-origin="0.5 : 0.33333333 : 1"
       inkscape:vp_z="1 : 0.5 : 1"
       inkscape:vp_y="0 : 1000 : 0"
       inkscape:vp_x="0 : 0.5 : 1"
       sodipodi:type="inkscape:persp3d" />
    <inkscape:perspective
       id="perspective4153"
       inkscape:persp3d-origin="0.5 : 0.33333333 : 1"
       inkscape:vp_z="1 : 0.5 : 1"
       inkscape:vp_y="0 : 1000 : 0"
       inkscape:vp_x="0 : 0.5 : 1"
       sodipodi:type="inkscape:persp3d" />
    <inkscape:perspective
       id="perspective4179"
       inkscape:persp3d-origin="0.5 : 0.33333333 : 1"
       inkscape:vp_z="1 : 0.5 : 1"
       inkscape:vp_y="0 : 1000 : 0"
       inkscape:vp_x="0 : 0.5 : 1"
       sodipodi:type="inkscape:persp3d" />
    <inkscape:perspective
       id="perspective4195"
       inkscape:persp3d-origin="0.5 : 0.33333333 : 1"
       inkscape:vp_z="1 : 0.5 : 1"
       inkscape:vp_y="0 : 1000 : 0"
       inkscape:vp_x="0 : 0.5 : 1"
       sodipodi:type="inkscape:persp3d" />
    <inkscape:perspective
       id="perspective4213"
       inkscape:persp3d-origin="0.5 : 0.33333333 : 1"
       inkscape:vp_z="1 : 0.5 : 1"
       inkscape:vp_y="0 : 1000 : 0"
       inkscape:vp_x="0 : 0.5 : 1"
       sodipodi:type="inkscape:persp3d" />
  </defs>
  <path
     style="fill:#ffffff;fill-opacity:1;stroke:none"
     d="m -2.1039262,-3.1405409 207.7153762,0 0,207.3483909 -207.7153762,0 0,-207.3483909 z"
     id="rect2881" />
  <path
     style="fill:none;stroke:#000000;stroke-width:3;stroke-miterlimit:4;stroke-opacity:1"
     d="m 21.814432,2.8621521 157.645218,0 c 10.29357,0 18.58045,8.2868829 18.58045,18.5804539 l 0,157.645234 c 0,10.29357 -8.28688,18.58045 -18.58045,18.58045 l -157.645218,0 c -10.293571,0 -18.5804535,-8.28688 -18.5804535,-18.58045 l 0,-157.645234 c 0,-10.293571 8.2868825,-18.5804539 18.5804535,-18.5804539 z"
     id="rect4614" />
  <path
     style="fill:#000000"
     d="m 67.047646,97.94377 0,-27.858868 -3.376832,0 -3.376832,0 0,-24.482033 0,-24.482032 35.456734,0 35.456734,0 0,24.482032 0,24.482033 -3.23613,0.06167 -3.23613,0.06166 2.53262,0.49483 c 3.40393,0.665067 6.66648,3.068398 8.25817,6.083324 1.28878,2.441157 1.30952,2.754977 1.30952,19.812408 0,18.301826 0.2043,19.946276 2.55124,20.535316 2.41596,0.60637 4.90424,-0.0131 6.00546,-1.49509 1.06635,-1.43505 1.04919,-1.56315 -4.86145,-36.300942 -3.26236,-19.17345 -6.06638,-35.430657 -6.23115,-36.127128 -0.16476,-0.696472 -0.67464,-1.266312 -1.13305,-1.266312 -0.66202,0 -0.83349,-0.868343 -0.83349,-4.221041 l 0,-4.22104 3.56013,0 c 6.09454,0 5.20701,-2.922928 12.24929,40.340779 3.36689,20.684267 6.12576,38.857424 6.13081,40.384794 0.0194,5.85716 -3.54742,9.8961 -9.75215,11.04311 -6.50001,1.20159 -11.76125,-1.12077 -14.61316,-6.45039 -1.18099,-2.20703 -1.24063,-3.04789 -1.40996,-19.879727 l -0.17682,-17.575224 -1.4468,-1.138054 c -0.79574,-0.62593 -1.66591,-1.138054 -1.93371,-1.138054 -0.2678,0 -0.4869,10.510389 -0.4869,23.356419 l 0,23.35642 -28.703074,0 -28.70307,0 0,-27.85886 z m 54.873514,-52.622303 0,-13.788731 -25.889041,0 -25.889044,0 -0.151389,13.214281 c -0.08327,7.267855 -0.0269,13.53866 0.125219,13.935122 0.220405,0.57436 5.511845,0.691091 26.040432,0.57445 l 25.763823,-0.146391 0,-13.788731 z"
     id="path4219"
     sodipodi:nodetypes="cccccccccccccssssssscccsssscccsccccccccccsccc" />
  <g
     style="font-size:25.52583122px;font-style:normal;font-variant:normal;font-weight:normal;font-stretch:normal;text-align:start;line-height:100%;writing-mode:lr-tb;text-anchor:start;fill:#000000;fill-opacity:1;stroke:none;font-family:Transport Heavy;-inkscape-font-specification:'Transport Heavy,'"
     id="text4225">
    <path
       d="m 50.771627,140.91742 0.351563,0 0.439453,0 1.142578,0 0.351563,0 1.49414,0 0.263672,0 1.054688,0 0,33.48633 -1.494141,0 -0.351562,0 -0.439454,0 -1.142578,0 -0.351562,0 -1.494141,0 -0.263672,0 -1.054687,0 0,-1.49414 c -1.669939,1.28906 -3.42775,1.99219 -5.273438,2.10937 -3.955087,0.32227 -7.031256,-0.9082 -9.228515,-3.6914 -2.592775,-3.79394 -3.413087,-7.98339 -2.460938,-12.56836 0.864255,-4.46775 3.208003,-7.36814 7.03125,-8.70118 3.764636,-1.11325 7.07518,-0.6445 9.931641,1.40625 l 0,-0.52734 0,-1.14258 0,-0.35156 0,-1.49414 0,-0.26367 0,-1.05469 0,-0.9668 0,-0.43945 0,-1.14258 0,-0.35156 0,-1.49414 0,-0.26367 0,-1.05469 z m -7.558593,14.41406 c -2.490245,0.67385 -3.896493,2.16799 -4.21875,4.48242 -0.556649,2.37307 -0.410165,4.54103 0.439453,6.50391 0.834951,1.66993 2.094715,2.60743 3.779297,2.8125 2.373032,0.14649 4.189436,-0.70311 5.449218,-2.54883 0.146467,-0.45409 0.292951,-0.83495 0.439454,-1.14258 l 0,-0.26367 0.08789,-0.43945 0,-0.35156 0,-0.43946 0,-1.14257 0,-0.35157 0,-1.49414 0,-0.26367 0,-1.05469 c -0.908221,-3.0908 -2.900406,-4.52634 -5.976562,-4.30664 z"
       style="font-size:45px"
       id="path4230" />
    <path
       d="m 64.570456,140.65375 c 2.416984,-0.0439 3.911123,1.01078 4.482421,3.16406 0.04394,1.65531 -0.512704,2.94437 -1.669921,3.86719 -2.651373,1.05472 -4.526371,0.41018 -5.625,-1.9336 -0.58594,-2.63668 0.351559,-4.3359 2.8125,-5.09765 z m -1.054688,9.84375 0.351563,0 0.439453,0 1.142578,0 0.351562,0 1.494141,0 0.703125,0 0.615234,0 0,23.99414 -1.230468,0 -0.966797,0 -0.439453,0 -0.263672,0 -0.351563,0 -0.263672,0 -1.757812,0 -0.263672,0 -1.054688,0 0,-0.26367 0,-0.43946 0,-0.26367 0,-0.35156 0,-0.26367 0,-1.75782 0,-0.61523 0,-0.35156 0,-0.43946 0,-0.35156 0,-0.43945 0,-1.14258 0,-0.35156 0,-1.49414 0,-0.26367 0,-1.05469 0,-0.61524 0,-0.61523 0,-0.52734 0,-0.61524 0,-0.52734 0,-0.61524 0,-0.52734 0,-1.49414 0,-0.52734 0,-0.43946 0,-0.52734 0,-0.35156 0,-1.58204 0,-0.96679 0,-0.35156 0,-0.35157 0,-0.35156 0,-0.35156 0,-1.49414 0,-0.26367 0,-1.05469 z"
       style="font-size:45px"
       id="path4232" />
    <path
       d="m 83.642721,149.88226 c 7.163068,-0.10251 11.235329,3.38382 12.216797,10.45899 l 0.263672,1.14258 0,0.61523 c 0.117163,1.04006 0.14646,1.88966 0.08789,2.54883 l -0.263672,-0.0879 -0.263672,0 -1.757813,0 -0.263672,0 -0.263671,0 -2.72461,0 -0.615234,0 -0.527344,0 -0.615234,0 -0.527344,0 -0.439453,0 -0.527344,0 -0.351562,0 -1.582032,0 -0.966797,0 -0.351562,0 -0.351563,0 -0.351562,0 -0.351563,0 -1.49414,0 -0.263672,0 -1.054688,0 c 0.322258,2.54884 1.640616,4.07227 3.955079,4.57031 2.885727,0.43946 5.288068,-0.29296 7.207031,-2.19727 l 0.703125,0.79102 c 0.2783,0.19044 0.483378,0.39552 0.615234,0.61523 l 0.175781,0.0879 0.08789,0.17578 c 0.292948,0.21973 0.527322,0.42481 0.703125,0.61523 l 0.175781,0.26367 c 0.102518,0.0586 0.161111,0.1172 0.175782,0.17578 l 0.175781,0.0879 0.175781,0.17579 0.08789,0.17578 0.175781,0.0879 0.08789,0.17578 c 0.292945,0.21973 0.52732,0.42481 0.703125,0.61523 -2.768576,3.51563 -6.577166,4.83399 -11.425782,3.95508 -5.932623,-1.01074 -9.30176,-4.61425 -10.107422,-10.81055 -0.527345,-7.85154 2.695308,-12.59762 9.667969,-14.23828 z m 1.494141,5.44922 c -2.695323,0.42483 -4.277353,1.86038 -4.746094,4.30664 l 0.527344,0 0.615234,0 1.142578,0 2.72461,0 1.230468,0 0.263672,0 0.439453,0 0.263672,0 0.351563,0 0.263672,0 1.757812,0 c -0.659197,-2.63669 -2.270523,-4.07224 -4.833984,-4.30664 z"
       style="font-size:45px"
       id="path4234" />
    <path
       d="m 109.131,149.70648 c 4.48241,-0.26364 8.20311,0.93753 11.16211,3.60352 l -0.26367,0.26367 -0.26367,0.26367 c -0.19045,0.2637 -0.36623,0.46878 -0.52735,0.61524 l -0.35156,0.35156 -0.26367,0.26367 c -0.26369,0.35159 -0.52736,0.61526 -0.79102,0.79102 l -0.0879,0.17578 -0.17578,0.26367 -0.17578,0.0879 -1.14258,1.31836 c -3.82325,-3.17869 -6.78223,-3.50095 -8.87695,-0.9668 -0.0147,0.67385 0.13183,1.25979 0.43945,1.75781 l 0.35157,0.0879 0.26367,0.17578 0.26367,0 0.26367,0.0879 0.70313,0.0879 1.40625,0.35156 c 3.20799,0.0293 5.81541,1.02541 7.82226,2.98828 1.68455,2.5049 2.03611,5.02443 1.05469,7.5586 -0.96682,2.19727 -2.46096,3.66211 -4.48242,4.39453 -6.57716,1.86035 -12.08497,0.68848 -16.52344,-3.51563 0.278319,-0.3662 0.541991,-0.65917 0.791016,-0.8789 l 0.351564,-0.17579 c 0.36621,-0.49803 0.77636,-0.87889 1.23047,-1.14257 l 0.26367,-0.35157 0.17578,-0.17578 0.17578,-0.17578 0.17578,-0.17578 0.17578,-0.0879 0.17578,-0.0879 c 0.42481,-0.54198 0.83496,-0.95214 1.23047,-1.23047 2.92968,2.88575 5.88866,3.88184 8.87696,2.98828 l 0.0879,-0.17578 c 0.41014,-0.26366 0.7324,-0.58593 0.96679,-0.9668 0.0586,-0.89354 -0.23439,-1.56737 -0.8789,-2.02148 l -0.26367,0 -0.17579,-0.17578 -0.26367,0 -0.26367,-0.0879 -0.17578,-0.17578 c -0.89357,-0.14648 -1.62599,-0.32226 -2.19727,-0.52735 -5.1709,-0.23436 -8.07129,-2.51951 -8.70117,-6.85547 0.0732,-5.21482 2.88574,-8.05661 8.4375,-8.52539 z"
       style="font-size:45px"
       id="path4236" />
    <path
       d="m 133.65249,149.88226 c 7.16306,-0.10251 11.23533,3.38382 12.21679,10.45899 l 0.26368,1.14258 0,0.61523 c 0.11716,1.04006 0.14646,1.88966 0.0879,2.54883 l -0.26368,-0.0879 -0.26367,0 -1.75781,0 -0.26367,0 -0.26367,0 -2.72461,0 -0.61524,0 -0.52734,0 -0.61524,0 -0.52734,0 -0.43945,0 -0.52735,0 -0.35156,0 -1.58203,0 -0.9668,0 -0.35156,0 -0.35156,0 -0.35156,0 -0.35157,0 -1.49414,0 -0.26367,0 -1.05469,0 c 0.32226,2.54884 1.64062,4.07227 3.95508,4.57031 2.88573,0.43946 5.28807,-0.29296 7.20703,-2.19727 l 0.70313,0.79102 c 0.2783,0.19044 0.48338,0.39552 0.61523,0.61523 l 0.17578,0.0879 0.0879,0.17578 c 0.29295,0.21973 0.52733,0.42481 0.70313,0.61523 l 0.17578,0.26367 c 0.10252,0.0586 0.16111,0.1172 0.17578,0.17578 l 0.17578,0.0879 0.17578,0.17579 0.0879,0.17578 0.17579,0.0879 0.0879,0.17578 c 0.29294,0.21973 0.52732,0.42481 0.70312,0.61523 -2.76857,3.51563 -6.57716,4.83399 -11.42578,3.95508 -5.93262,-1.01074 -9.30176,-4.61425 -10.10742,-10.81055 -0.52735,-7.85154 2.69531,-12.59762 9.66797,-14.23828 z m 1.49414,5.44922 c -2.69533,0.42483 -4.27735,1.86038 -4.7461,4.30664 l 0.52735,0 0.61523,0 1.14258,0 2.72461,0 1.23047,0 0.26367,0 0.43945,0 0.26367,0 0.35157,0 0.26367,0 1.75781,0 c -0.65919,-2.63669 -2.27052,-4.07224 -4.83398,-4.30664 z"
       style="font-size:45px"
       id="path4238" />
    <path
       d="m 151.58217,140.91742 0.43946,0 0.35156,0 0.43945,0 0.35157,0 0.43945,0 1.14258,0 0.35156,0 1.49414,0 0.70312,0 0.61524,0 0,26.71875 c 0.90819,1.06935 2.19725,1.30372 3.86719,0.70312 l 0.0879,0.35157 0,0.43945 c 0.0732,0.32228 0.10252,0.64454 0.0879,0.9668 0.10252,0.36622 0.16112,0.68848 0.17578,0.96679 l 0.0879,0.79102 0,0.35156 c 0.0586,0.0879 0.0879,0.17579 0.0879,0.26367 l 0.17578,1.75782 -0.35156,0 -0.26367,0.0879 -0.35157,0.0879 -0.61523,0.0879 -0.26367,0 c -0.65919,0.16114 -1.21583,0.24903 -1.66992,0.26367 -3.91114,0.79102 -6.45997,-0.46875 -7.64649,-3.7793 -0.0146,-0.29296 -0.0439,-0.52733 -0.0879,-0.70312 l 0,-0.26367 0,-1.75782 0,-0.35156 0,-0.43945 0,-0.35156 0,-0.43946 0,-1.14258 0,-0.35156 0,-1.49414 0,-0.26367 0,-1.05469 0,-0.35156 0,-0.43945 0,-1.14258 0,-0.35156 0,-1.49414 0,-0.26368 0,-1.05468 0,-0.61524 0,-0.70312 0,-0.70313 0,-0.70312 0,-0.26368 0,-0.26367 0,-2.72461 0,-0.61523 0,-0.52734 0,-0.61524 0,-0.52734 0,-0.43946 0,-0.52734 0,-0.35156 0,-1.58203 0,-0.9668 0,-0.35156 0,-0.35157 0,-0.35156 0,-0.35156 0,-1.49414 0,-0.26367 0,-1.05469 z"
       style="font-size:45px"
       id="path4240" />
  </g>
</svg>
