<?xml version="1.0" encoding="utf-8"?>
<!-- Generator: Adobe Illustrator 15.0.0, SVG Export Plug-In  -->
<!DOCTYPE svg PUBLIC "-//W3C//DTD SVG 1.1//EN" "http://www.w3.org/Graphics/SVG/1.1/DTD/svg11.dtd" [
	<!ENTITY ns_flows "http://ns.adobe.com/Flows/1.0/">
]>
<svg version="1.1"
	 xmlns="http://www.w3.org/2000/svg" xmlns:xlink="http://www.w3.org/1999/xlink" xmlns:a="http://ns.adobe.com/AdobeSVGViewerExtensions/3.0/"
	 x="0px" y="0px" width="503px" height="505px" viewBox="0 -0.61 503 505" enable-background="new 0 -0.61 503 505"
	 xml:space="preserve">

<rect x="18.5" y="17.5" stroke="#000000" width="467" height="469"/>
<rect x="51" y="52.5" fill="#FFFFFF" stroke="#000000" width="401" height="399"/>
<path fill="#010101" d="M342.168,195.304V78.84h-146.79v32.736v40.465v43.264h18.966l0.047,3.283h-0.223v12.988h0.398l1.664,121.602
	h-20.853v25.263h146.79v-25.263h-21.771l5.445-137.873H342.168z M318.262,170.898h-98.559v-68.08h98.559V170.898z"/>
<path d="M216.568,221.528h-9.6v-0.066h-12.801v0.066v13v61.333h0.077c-0.947,6.051-6.4,10.694-13.01,10.694
	c-6.896,0-12.524-5.06-13.097-11.493h0.057V172.551l34.773-47.09l-4.761-21.333l-42.44,60.801v129.599h-0.252
	c0.3,13.301,11.695,24,25.72,24c13.553,0,24.647-9.991,25.649-22.667h0.084v-61.333h9.6V221.528z"/>
<path d="M168.054,428.082v-13.395h-13.145v-9.246h13.145v-13.395h8.763v13.395h13.179v9.246h-13.179v13.395H168.054z"/>
<path d="M240.861,416.551v-8.684H262.7v20.531c-2.122,2.109-5.198,3.967-9.226,5.572s-8.106,2.408-12.237,2.408
	c-5.249,0-9.823-1.131-13.726-3.393s-6.835-5.496-8.798-9.703s-2.943-8.783-2.943-13.729c0-5.367,1.096-10.137,3.286-14.309
	s5.396-7.371,9.618-9.598c3.218-1.711,7.223-2.566,12.016-2.566c6.229,0,11.096,1.342,14.599,4.025s5.756,6.393,6.761,11.127
	l-10.063,1.934c-0.708-2.531-2.037-4.529-3.988-5.994s-4.388-2.197-7.308-2.197c-4.428,0-7.947,1.441-10.561,4.324
	s-3.919,7.16-3.919,12.832c0,6.117,1.323,10.705,3.971,13.764c2.646,3.059,6.115,4.588,10.405,4.588c2.123,0,4.25-0.428,6.385-1.283
	c2.133-0.855,3.964-1.893,5.493-3.111v-6.539H240.861z"/>
<path d="M272.045,435.5v-51.539h16.259c6.161,0,10.178,0.258,12.049,0.773c2.876,0.773,5.283,2.455,7.223,5.045
	s2.91,5.936,2.91,10.037c0,3.164-0.56,5.824-1.678,7.98s-2.539,3.85-4.262,5.08c-1.724,1.23-3.475,2.045-5.254,2.443
	c-2.419,0.492-5.922,0.738-10.509,0.738h-6.606V435.5H272.045z M282.177,392.68v14.625h5.545c3.993,0,6.663-0.27,8.01-0.809
	s2.401-1.383,3.167-2.531c0.764-1.148,1.146-2.484,1.146-4.008c0-1.875-0.536-3.422-1.609-4.641c-1.072-1.219-2.43-1.98-4.073-2.285
	c-1.21-0.234-3.64-0.352-7.291-0.352H282.177z"/>
<path d="M319.076,435.5v-51.117h10.132v42.434h25.193v8.684H319.076z"/>
</svg>
