<?xml version="1.0" encoding="iso-8859-1"?>
<!-- Generator: Adobe Illustrator 13.0.2, SVG Export Plug-In . SVG Version: 6.00 Build 14948)  -->
<!DOCTYPE svg PUBLIC "-//W3C//DTD SVG 1.1//EN" "http://www.w3.org/Graphics/SVG/1.1/DTD/svg11.dtd">
<svg version="1.1" id="Layer_1" xmlns="http://www.w3.org/2000/svg" xmlns:xlink="http://www.w3.org/1999/xlink" x="0px" y="0px"
	 width="123.547px" height="123.539px" viewBox="-0.258 -0.548 123.547 123.539"
	 style="enable-background:new -0.258 -0.548 123.547 123.539;" xml:space="preserve">
<g>
	<path style="fill:#231F20;" d="M15.656-0.113c-8.484,0-15.391,6.93-15.391,15.414v92.812c0,8.492,6.906,15.406,15.391,15.406h92.82
		c8.5,0,15.406-6.914,15.406-15.406V15.301c0-8.484-6.906-15.414-15.406-15.414H15.656z"/>
	<path style="fill:#FFFFFF;" d="M15.656,2.387c-7.109,0-12.891,5.797-12.891,12.914v92.812c0,7.117,5.781,12.906,12.891,12.906
		h92.82c7.117,0,12.906-5.789,12.906-12.906V15.301c0-7.117-5.789-12.914-12.906-12.914H15.656z"/>
	<path style="fill:#231F20;" d="M54.477,26.043c-4.469,0-8.078,3.57-8.078,7.961c0,4.406,3.609,7.969,8.078,7.969
		c4.445,0,8.055-3.562,8.055-7.969C62.531,29.613,58.922,26.043,54.477,26.043z"/>
	<path style="fill:#231F20;" d="M95.406,41.793c-0.305-1.719-1.711-2.695-1.797-2.758L46.188,7.77l-4.406,6.383
		c-0.82,1.258-0.461,2.93,0.797,3.75c1.25,0.828,2.922,0.492,3.742-0.766l2.578-3.688l38.516,25.414l-31.555,5.68
		c-2.234,0.375-3.852,2.609-3.352,4.797l6.867,26.547l-22.211,33.312c-1.328,2.273-0.523,5.188,1.773,6.492
		c2.32,1.32,5.258,0.516,6.594-1.758c0,0,23.164-34.836,23.25-35.055c0,0,1.195,4.836,1.195,4.859L66.5,109.871
		c-0.438,2.602,1.328,5.031,3.953,5.469s5.117-1.305,5.555-3.891l3.594-26.883c0.109-0.688-0.031-2.195-0.188-2.859L71.492,50.23
		l20.609-3.711C94.305,46.129,95.797,44.004,95.406,41.793z"/>
</g>
</svg>
