<?xml version="1.0" encoding="UTF-8" standalone="no"?>
<!DOCTYPE svg PUBLIC "-//W3C//DTD SVG 1.1//EN" "http://www.w3.org/Graphics/SVG/1.1/DTD/svg11.dtd">
<!--
   ***************************************************************************
   Bundesanstalt fuer Strassenwesen
   RWBA-Symbol
   Bezeichnung:
   Gueterverkehrszentrum
   Ausdehnung in cm:
         X_min     X_max     Y_min     Y_max
         0.00000  15.00000   0.00000  15.00000
-->
<svg width="150" height="150" version="1.1" xmlns="http://www.w3.org/2000/svg"><script xmlns="" id="__gaOptOutExtension"/>
<!--
   ***************************************************************************
-->
<path fill="white" fill-rule="evenodd" stroke="black" stroke-width="0.25" d="M0 150L0 0L150 0L150 150L0 150Z"/>
<!--
      * Buchstabe "G"
-->
<path fill="black" fill-rule="evenodd" stroke="none" d="M29.4757 99.5762C29.4757 103.2778 29.9982 107.5958 32.6097 109.0356L32.6097 114.9997C21.2497 114.4859 12.5002 97.0055 12.5002 75.0002C12.5002 52.8913 21.2497 35.4109 32.6097 34.9993L32.6097 40.9632C29.9982 42.4022 29.4757 46.6193 29.4757 50.3207L29.4757 99.5762Z"/>
<path fill="black" fill-rule="evenodd" stroke="none" d="M35.5473 109.0356C38.4203 107.6988 38.5509 104.2023 38.5509 102.4553L38.5509 83.9466C38.5509 81.683 38.4856 81.17 35.8744 80.4486C34.8294 80.0378 34.176 79.1131 34.176 77.3656C34.176 74.588 36.4616 74.4853 36.7873 74.4853L52.3916 74.4853C52.7182 74.4853 54.6766 74.1773 54.6766 77.5696C54.6766 79.3181 54.0894 80.0378 53.5017 80.6546C52.1307 81.9925 52.3269 83.2259 52.3269 83.7392L52.3269 104.0999C47.7564 110.5781 41.7491 114.7949 35.5473 114.9997L35.5473 109.0356Z"/>
<path fill="black" fill-rule="evenodd" stroke="none" d="M35.5473 34.9993C42.403 35.9256 45.9285 38.8044 46.6463 38.8044C48.6057 38.8044 48.4101 34.9993 50.498 34.9993C52.4573 34.9993 52.3269 37.7756 52.3269 38.2897L52.3269 61.2206C52.3269 61.7341 52.3269 64.9229 50.3028 64.9229C48.6057 64.9229 48.1486 62.9688 47.822 60.8094C45.798 47.6468 40.8362 41.3748 35.5473 40.9632L35.5473 34.9993Z"/>
<!--
      * Buchstabe "V"
-->
<path fill="black" fill-rule="evenodd" stroke="none" d="M82.8697 113.4999L73.4692 113.4999L60.9334 47.308C60.4106 44.3232 60.6068 44.0148 58.8442 42.7787C58.0602 42.1619 57.5383 41.2357 57.5383 39.794C57.5383 36.3964 60.2806 36.4993 61.7821 36.4993L76.0809 36.4993C77.5821 36.4993 80.7161 35.8827 80.7161 39.5876C80.7161 43.6037 77.8438 41.8523 77.8438 46.0745C77.8438 47.308 77.9743 47.8236 78.1697 49.0589L86.2652 93.7358L82.8697 113.4999Z"/>
<path fill="black" fill-rule="evenodd" stroke="none" d="M85.7433 75.3087L89.5946 52.5588C89.9226 50.9121 90.0516 50.2937 90.0516 48.5439C90.0516 45.6614 89.2695 43.911 87.5711 42.9858C86.4609 42.3663 85.548 41.7497 85.548 39.6911C85.548 36.4993 87.898 36.4993 89.2695 36.4993L96.4517 36.4993C97.8876 36.4993 100.3027 36.0877 100.3027 39.3816C100.3027 41.647 99.3879 41.9564 98.2781 42.7787C96.5809 44.0148 95.9926 44.5294 94.9488 47.0002C94.1003 49.1623 93.5764 51.5287 93.1852 53.8962L87.702 85.9127L87.5711 85.9127L85.7433 75.3087Z"/>
<!--
      * Buchstabe "Z"
-->
<path fill="black" fill-rule="evenodd" stroke="none" d="M137.5006 113.4999L120.6567 113.4999L122.3543 107.5299C129.1435 105.2657 131.3638 102.0738 133.7141 92.6035C134.0401 90.8543 134.3679 89.5161 135.6066 89.5161C137.4366 89.5161 137.4366 91.8835 137.4366 92.501L137.5006 113.4999Z"/>
<path fill="black" fill-rule="evenodd" stroke="none" d="M103.2891 36.4993L119.0242 36.4993L117.3916 42.4693C112.0395 44.1183 108.3819 49.1623 107.0758 56.7792C106.7498 58.53 106.4254 59.8669 105.118 59.8669C103.2891 59.8669 103.2891 57.5001 103.2891 56.8827L103.2891 36.4993Z"/>
<path fill="black" fill-rule="evenodd" stroke="none" d="M137.5006 42.9858L117.7182 113.4999L102.0489 113.4999L102.0489 107.9426L121.9634 36.4993L137.5006 36.4993L137.5006 42.9858Z"/>
</svg>