<?xml version="1.0" encoding="UTF-8" standalone="no"?>
<!-- Created with Inkscape (http://www.inkscape.org/) -->

<svg
   xmlns:dc="http://purl.org/dc/elements/1.1/"
   xmlns:cc="http://creativecommons.org/ns#"
   xmlns:rdf="http://www.w3.org/1999/02/22-rdf-syntax-ns#"
   xmlns:svg="http://www.w3.org/2000/svg"
   xmlns="http://www.w3.org/2000/svg"
   version="1.1"
   width="150"
   height="150"
   id="svg3157"
   xml:space="preserve"><metadata
     id="metadata3163"><rdf:RDF><cc:Work
         rdf:about=""><dc:format>image/svg+xml</dc:format><dc:type
           rdf:resource="http://purl.org/dc/dcmitype/StillImage" /><dc:title></dc:title></cc:Work></rdf:RDF></metadata><defs
     id="defs3161" /><g
     transform="matrix(1.25,0,0,-1.25,0,150)"
     id="g3165"><g
       id="g3167"><path
         d="M 0,0 120,0 120,120 0,120 0,0 z"
         id="path3169"
         style="fill:#154889;fill-opacity:1;fill-rule:nonzero;stroke:none" /><path
         d="M 8,81.031 15.648,85.809 101.293,32.281 93.648,27.5 C 84.84,33.004 72.457,36.211 60,36.211 47.543,36.211 35.16,33.004 26.352,27.5 l -7.645,4.781 32.117,20.071 7.645,-4.778 -15.625,-9.769 c 11.019,2.359 23.293,2.359 34.312,0 L 23.418,71.391 c 4.324,-7.27 4.324,-15.512 0,-22.782 L 40.117,59.043 47.766,54.266 15.648,34.191 8,38.969 C 16.809,44.477 21.938,52.215 21.938,60 21.938,67.785 16.809,75.523 8,81.031 z M 26.352,92.5 18.707,87.719 104.352,34.191 112,38.969 C 103.191,44.477 98.063,52.215 98.063,60 c 0,7.785 5.128,15.523 13.937,21.031 l -7.648,4.778 -32.118,-20.075 7.649,-4.777 16.699,10.434 c -4.324,-7.27 -4.324,-15.512 0,-22.782 L 42.844,82.195 c 11.019,-2.359 23.293,-2.359 34.312,0 L 61.531,72.426 69.176,67.648 101.293,87.719 93.648,92.5 C 84.84,86.996 72.457,83.789 60,83.789 c -12.457,0 -24.84,3.207 -33.648,8.711 z"
         id="path3171"
         style="fill:#ffffff;fill-opacity:1;fill-rule:nonzero;stroke:none" /></g></g></svg>