<?xml version="1.0" encoding="UTF-8" standalone="no"?>
<!DOCTYPE svg PUBLIC "-//W3C//DTD SVG 1.1//EN" "http://www.w3.org/Graphics/SVG/1.1/DTD/svg11.dtd">
<!--
   ***************************************************************************
   Bundesanstalt fuer Strassenwesen
   RWB-Symbol
   Bezeichnung:
   Freizeitsportanlage
   Ausdehnung in cm:
         X_min     X_max     Y_min     Y_max
         0.00000  15.00000   0.00000  15.00000
-->
<svg width="150" height="150" version="1.1" xmlns="http://www.w3.org/2000/svg">
<!--
   ***************************************************************************
-->
<path fill="white" fill-rule="evenodd" stroke="black" stroke-width="0.25" d="M0 150L150 150L150 0L0 0L0 150Z"/>
<!--
      INHALT
-->
<path fill="black" fill-rule="evenodd" stroke="none" d="M142.024249313081 83.0000002511201A67.5 67.5 0 0 0 48.4160787912113 12.9552972997298A67.5 67.5 0 0 0 34.5596718957075 129.04470244915A67.5 67.5 0 0 0 134.432735194459 106.999999801646L129.847518114471 106.999996198168A63.5 63.5 0 0 1 19.8634313141454 106.499345922575A63.5 63.5 0 0 1 75.2890505713837 11.5006578792569A63.5 63.5 0 0 1 137.994047146849 83.0000015037884L142.0242 83Z"/>
<!--
      PERSON
      BEINE
-->
<path fill="black" fill-rule="evenodd" stroke="none" d="M79.5 84L79.5 130.5A4.5 4.5 0 0 1 72.75 134.39711431703A4.5 4.5 0 0 1 70.5 130.5L70.5 86L53.5 103L67.3179805153395 116.818019484661A4.5 4.5 0 0 1 65.3006857029613 124.346666218301A4.5 4.5 0 0 1 60.9540194846605 123.181980515339L43.9540194846605 106.181980515339A4.5 4.5 0 0 1 43.9540194846605 99.8180194846605L59.772 84L79.5 84Z   M79.5 81L59.772 81L59.772 54.5L26.272 54.5A4.5 4.5 0 0 1 22.37488568297 47.75A4.5 4.5 0 0 1 26.272 45.5L76.772 45.5L97.9852194846605 24.2868194846606A4.5 4.5 0 0 1 105.513866218301 26.3041142970387A4.5 4.5 0 0 1 104.349180515339 30.6507805153395L79.5 55.5L79.5 81Z"/>
<!--
      OBERKOERPER
      KOPF
-->
<path fill="black" fill-rule="evenodd" stroke="none" d="M77 32.5A10 10 0 0 0 62 23.8397459621556A10 10 0 0 0 62 41.1602540378444A10 10 0 0 0 77 32.5Z"/>
<!--
      BALL
-->
<path fill="black" fill-rule="evenodd" stroke="none" d="M43 79A8 8 0 0 0 31 72.0717967697245A8 8 0 0 0 31 85.9282032302755A8 8 0 0 0 43 79Z"/>
<!--
      TEXT
-->
<path fill="black" fill-rule="evenodd" stroke="none" d="M83 99.5L86 99.5L86 100.625A2.0625 2.0625 0 0 0 88.0625 102.6875L88.25 102.6875A2.0625 2.0625 0 0 0 90.3125 100.625L90.3125 98.375A2.0625 2.0625 0 0 0 89.0244347442293 96.463415035388L86.3491147187099 95.3795721858657A5.0625 5.0625 0 0 1 83.1875 90.6875L83.1875 89.375A5.0625 5.0625 0 0 1 90.78125 84.9907463933413A5.0625 5.0625 0 0 1 93.3125 89.375L93.3125 90.5L90.3125 90.5L90.3125 89.375A2.0625 2.0625 0 0 0 87.21875 87.5888226046946A2.0625 2.0625 0 0 0 86.1875 89.375L86.1875 90.6875A2.0625 2.0625 0 0 0 87.4755652557707 92.599084964612L90.1508852812901 93.6829278141343A5.0625 5.0625 0 0 1 93.3125 98.375L93.3125 100.625A5.0625 5.0625 0 0 1 88.25 105.6875L88.0625 105.6875A5.0625 5.0625 0 0 1 83 100.625L83 99.5Z   M95.9375 105.5L95.9375 84.5L100.8125 84.5A4.875 4.875 0 0 1 105.6875 89.375L105.6875 92.375A4.875 4.875 0 0 1 100.8125 97.25L98.9375 97.25L98.9375 105.5L95.9375 105.5Z   M98.9375 87.3125L100.8125 87.3125A2.0625 2.0625 0 0 1 102.875 89.375L102.875 92.375A2.0625 2.0625 0 0 1 100.8125 94.4375L98.9375 94.4375L98.9375 87.3125Z   M107.9375 100.625L107.9375 89.375A5.0625 5.0625 0 0 1 115.53125 84.9907463933413A5.0625 5.0625 0 0 1 118.0625 89.375L118.0625 100.625A5.0625 5.0625 0 0 1 110.46875 105.009253606659A5.0625 5.0625 0 0 1 107.9375 100.625Z   M110.9375 100.625L110.9375 89.375A2.0625 2.0625 0 0 1 114.03125 87.5888226046946A2.0625 2.0625 0 0 1 115.0625 89.375L115.0625 100.625A2.0625 2.0625 0 0 1 111.96875 102.411177395305A2.0625 2.0625 0 0 1 110.9375 100.625Z   M121.0625 105.5L121.0625 84.5L126.3125 84.5A4.875 4.875 0 0 1 131.1875 89.375L131.1875 91.625A4.875 4.875 0 0 1 128.676452916592 95.888490542752L131.9375 105.5L128.75 105.5L125.9375 96.5L124.0625 96.5L124.0625 105.5L121.0625 105.5Z   M124.0625 93.875L124.0625 87.3125L126.3125 87.3125A2.0625 2.0625 0 0 1 128.375 89.375L128.375 91.8125A2.0625 2.0625 0 0 1 126.3125 93.875L124.0625 93.875Z   M136.25 105.5L136.25 87.3125L132.6875 87.3125L132.6875 84.5L142.8125 84.5L142.8125 87.3125L139.25 87.3125L139.25 105.5L136.25 105.5Z"/>
</svg>