<?xml version="1.0" standalone="no"?>
<!DOCTYPE svg PUBLIC "-//W3C//DTD SVG 1.1//EN" "http://www.w3.org/Graphics/SVG/1.1/DTD/svg11.dtd">
<!--
   ***************************************************************************
   Bundesanstalt fuer Strassenwesen
   RWBA-Symbol
   Bezeichnung:
   Motel, Hotel
   Ausdehnung in cm:
         X_min     X_max     Y_min     Y_max
         0.00000  15.00000   0.00000  15.00000
-->
<svg width="150" height="150" version="1.1" xmlns="http://www.w3.org/2000/svg">
<!--
   ***************************************************************************
-->
<path fill="white" fill-rule="evenodd" stroke="black" stroke-width="0.25" d="M0 150L0 0L150 0L150 150L0 150Z" />
<!--
      * SYMBOL BETT *
-->
<path fill="black" fill-rule="evenodd" stroke="none" d="M135 107.5L125 107.5L125 97.5L25 97.5L25 107.5L15 107.5L15.0000001540792 62.4999997945611A6.25 6.25 0 0 1 24.9999998459208 62.4999997945611L25 82.5L105 82.5A20 20 0 0 0 125 62.5L125.000000154079 37.4999997945611A6.25 6.25 0 0 1 134.999999845921 37.4999997945611L135 107.5Z
  M91.25 80L31.25 80A3.75 3.75 0 0 1 28.0024047358084 74.375A3.75 3.75 0 0 1 29.0451524809729 73.2166606820469L29.0451231557469 73.2166330324381A35 35 0 0 1 40.5810484079222 67.7161089422565L40.5810820752508 67.7161347251577A80 80 0 0 1 81.9189179247493 67.7161347251577L81.9189515920778 67.7161089422565A35 35 0 0 1 93.4548768442531 73.2166330324381L93.4548475190271 73.2166606820469A3.75 3.75 0 0 1 92.7745251481319 79.6761236219251A3.75 3.75 0 0 1 91.25 80Z
  M121.136931803688 56.3630681963119A15.75 8.0273 135 0 1 109.347231351217 77.9841631549049A15.75 8.0273 135 0 1 99.5158368450951 68.1527686487832A15.75 8.0273 135 0 1 121.136931803688 56.3630681963119" />
<!--
       * BETTGESTELL *
       * BETTDECKE *
       * KOPFKISSEN *
-->
</svg>
