<?xml version="1.0" encoding="UTF-8" standalone="no"?>
<svg
   xmlns:dc="http://purl.org/dc/elements/1.1/"
   xmlns:cc="http://creativecommons.org/ns#"
   xmlns:rdf="http://www.w3.org/1999/02/22-rdf-syntax-ns#"
   xmlns:svg="http://www.w3.org/2000/svg"
   xmlns="http://www.w3.org/2000/svg"
   xmlns:sodipodi="http://sodipodi.sourceforge.net/DTD/sodipodi-0.dtd"
   xmlns:inkscape="http://www.inkscape.org/namespaces/inkscape"
   width="81.606789"
   height="81.606789"
   viewBox="0 0 230.31249 230.31249"
   version="1.1"
   id="svg2"
   inkscape:version="0.48.2 r9819"
   sodipodi:docname="AJAX1.svg">
  <metadata
     id="metadata62">
    <rdf:RDF>
      <cc:Work
         rdf:about="">
        <dc:format>image/svg+xml</dc:format>
        <dc:type
           rdf:resource="http://purl.org/dc/dcmitype/StillImage" />
        <dc:title />
      </cc:Work>
    </rdf:RDF>
  </metadata>
  <defs
     id="defs60">
    <clipPath
       clipPathUnits="userSpaceOnUse"
       id="clipPath3564">
      <path
         inkscape:connector-curvature="0"
         d="m 63,43 512.622,0 0,313.129 L 63,356.129 63,43 z"
         id="path3566" />
    </clipPath>
  </defs>
  <sodipodi:namedview
     pagecolor="#ffffff"
     bordercolor="#666666"
     borderopacity="1"
     objecttolerance="10"
     gridtolerance="10"
     guidetolerance="10"
     inkscape:pageopacity="0"
     inkscape:pageshadow="2"
     inkscape:window-width="1280"
     inkscape:window-height="1004"
     id="namedview58"
     showgrid="false"
     fit-margin-top="0"
     fit-margin-left="0"
     fit-margin-right="0"
     fit-margin-bottom="0"
     inkscape:zoom="5.4735946"
     inkscape:cx="56.771113"
     inkscape:cy="45.403816"
     inkscape:window-x="-8"
     inkscape:window-y="-8"
     inkscape:window-maximized="1"
     inkscape:current-layer="svg2"
     showguides="true"
     inkscape:guide-bbox="true" />
  <polygon
     points="315,545 235,375 315,205 395,375 "
     id="polygon10"
     style="fill:none;stroke:#ffffff;stroke-width:40"
     transform="translate(29238.834,3759.5537)" />
  <!-- draw the bicycle -->
  <!-- RIGHT -->
  <!-- LANE -->
  <!-- ONLY -->
  <path
     d="m 21.1977,0.86091856 187.9212,0 c 11.19011,0 20.34117,9.15105044 20.34117,20.33411044 l 0,187.924721 c 0,11.18658 -9.15106,20.33764 -20.34117,20.33764 l -187.9212,0 c -11.18305,0 -20.34116,-9.15106 -20.34116,-20.33764 l 0,-187.924721 c 0,-11.18306 9.15811,-20.33411044 20.34116,-20.33411044"
     style="fill:#ffffff;fill-opacity:1;fill-rule:nonzero;stroke:#000000;stroke-width:1.69333327;stroke-miterlimit:4;stroke-opacity:1;stroke-dasharray:none"
     id="path4320"
     inkscape:connector-curvature="0" />
  <path
     d="m 21.1977,5.9409186 187.9212,0 c 8.39258,0 15.26469,6.8615204 15.26469,15.2541104 l 0,187.924721 c 0,8.38906 -6.87211,15.25411 -15.26469,15.25411 l -187.9212,0 c -8.39258,0 -15.25411,-6.86505 -15.25411,-15.25411 l 0,-187.924721 c 0,-8.39259 6.86153,-15.2541104 15.25411,-15.2541104"
     style="fill:#155196;fill-opacity:1;fill-rule:evenodd;stroke:none"
     id="path4344"
     inkscape:connector-curvature="0" />
  <path
     style="fill:#ffffff;fill-opacity:1;fill-rule:nonzero;stroke:none"
     d="m 91.061812,31.331937 0,68.791663 11.553468,0 0,-28.134024 14.99306,0 c 6.93914,0 12.30842,-1.485195 16.05139,-4.586111 3.73239,-3.100917 5.55625,-8.466667 5.55625,-15.963195 0,-6.861527 -1.88736,-11.895666 -5.64445,-15.169444 -3.76061,-3.27025 -8.77005,-4.938889 -15.08125,-4.938889 l -27.428468,0 z m 11.553468,12.523611 13.05278,0 c 3.302,0 5.83847,0.53975 7.67292,1.675695 1.83444,1.139472 2.73403,3.065638 2.73403,5.732638 0,2.659945 -0.89959,4.593167 -2.73403,5.820834 -1.83445,1.227666 -4.37092,1.852083 -7.67292,1.852083 l -13.05278,0 0,-15.08125 z"
     id="path4348"
     inkscape:connector-curvature="0" />
  <path
     d="m 88.03958,182.84486 0.0776,0 12.66472,0 -5.29519,-5.80672 -36.33258,0 -0.0107,-32.83303 -17.22967,0 c -4.50497,0 -7.32014,0 -9.18986,6.3112 l -3.10797,12.33311 -7.18609,0 c -3.5313,0 -3.5313,0 -3.5313,3.45369 l 0,16.54175 -3.7712,0 0,3.83117 13.52198,0 c 0.68438,5.20347 3.96875,8.76653 9.144,8.76653 5.13644,0 8.62188,-3.64067 9.77547,-8.76653 l 5.42572,0 0,-3.83117 14.6685,0 c -0.0847,0.49742 -0.12347,1.57339 -0.12347,2.10256 0,5.78202 4.65314,10.49514 10.3505,10.49514 5.70089,0 10.3505,-4.71312 10.3505,-10.49514 0,-0.65617 -0.0811,-1.48167 -0.20109,-2.10256"
     style="fill:#ffffff;fill-opacity:1;fill-rule:evenodd;stroke:none"
     id="path4356"
     inkscape:connector-curvature="0" />
  <path
     d="m 186.89991,196.55733 c 6.10306,0 11.08075,-5.05177 11.08075,-11.2395 0,-0.78316 -0.0811,-1.54869 -0.23283,-2.29305 l 17.44486,0 0,-50.1262 -151.93786,0 0,40.56239 36.2338,0 8.58309,9.56381 67.98027,0 c -0.15522,0.74436 -0.23636,1.50989 -0.23636,2.29305 0,6.18773 4.9777,11.2395 11.08428,11.2395"
     style="fill:#ffffff;fill-opacity:1;fill-rule:evenodd;stroke:none"
     id="path4360"
     inkscape:connector-curvature="0" />
</svg>
