<?xml version="1.0" standalone="no"?>
<!DOCTYPE svg PUBLIC "-//W3C//DTD SVG 1.1//EN" "http://www.w3.org/Graphics/SVG/1.1/DTD/svg11.dtd">
<!--
   ***************************************************************************
   Bundesanstalt fuer Strassenwesen
   RWB-Symbol
   Bezeichnung:
   Parken und Reisen
   Ausdehnung in cm:
         X_min     X_max     Y_min     Y_max
         0.00000  15.00000   0.00000  15.00000
-->
<svg width="150" height="150" version="1.1" xmlns="http://www.w3.org/2000/svg">
<!--
   ***************************************************************************
-->
<path fill="white" fill-rule="evenodd" stroke="black" stroke-width="0.25" d="M0 150L0 0L150 0L150 150L0 150Z" />
<!--
      INHALT
-->
<path fill="black" fill-rule="evenodd" stroke="none" d="M12.1875 42A13.5 13.5 0 0 1 25.6875 28.5L124.3125 28.5A13.5 13.5 0 0 1 137.8125 42L12.1875 42Z
  M14.0625 103.875L14.0625 46.125L36.75 46.1249A17.5313 17.5313 0 0 1 51.9325511613661 72.42185A17.5313 17.5313 0 0 1 36.75 81.1875L22.8281 81.1875L22.8281 103.875L14.0625 103.875Z
  M22.8281 72.9375L36.2344 72.9374A9.2812 9.2812 0 0 0 44.2721549776041 59.0156A9.2812 9.2812 0 0 0 36.2344 54.375L22.8281 54.375L22.8281 72.9375Z
  M70.0312 86.8125L70.0312 78.9375L62.1563 78.9375L62.1563 71.0625L70.0312 71.0625L70.0312 63.1875L77.9063 63.1875L77.9063 71.0625L85.7813 71.0625L85.7813 78.9375L77.9063 78.9375L77.9063 86.8125L70.0312 86.8125Z
  M95.5313 103.875L95.5313 46.125L119.25 46.125A16.5 16.5 0 0 1 133.539419162443 70.875A16.5 16.5 0 0 1 124.543815779848 78.2527162275564L137.8126 103.875L127.5 103.875L115.6407 79.125L104.2969 79.125L104.2969 103.875L95.5313 103.875Z
  M104.2969 71.3906L104.2969 53.8594L118.7344 53.8594A8.7656 8.7656 0 0 1 126.325632279413 67.0078A8.7656 8.7656 0 0 1 118.7344 71.3906L104.2969 71.3906Z
  M12.1875 108A13.5 13.5 0 0 0 25.6875 121.5L124.3125 121.5A13.5 13.5 0 0 0 137.8125 108L12.1875 108Z" />
</svg>
