<?xml version="1.0" standalone="no"?>
<!DOCTYPE svg PUBLIC "-//W3C//DTD SVG 1.1//EN" "http://www.w3.org/Graphics/SVG/1.1/DTD/svg11.dtd">
<!--
   ***************************************************************************
   Bundesanstalt fuer Strassenwesen
   RWBA-Symbol
   Bezeichnung:
   Fernsprecher
   Ausdehnung in cm:
         X_min     X_max     Y_min     Y_max
         0.00000  15.00000   0.00000  15.00000
-->
<svg width="150" height="150" version="1.1" xmlns="http://www.w3.org/2000/svg">
<!--
   ***************************************************************************
-->
<path fill="white" fill-rule="evenodd" stroke="black" stroke-width="0.25" d="M0 150L0 0L150 0L150 150L0 150Z" />
<!--
      * SYMBOL TELEFONHOERER *
-->
<path fill="black" fill-rule="evenodd" stroke="none" d="M40 44.7375L39.9999307530208 12.2539679065969A35 35 0 0 0 14.0045287463415 43.0858554215078L14.0045821324043 43.0858440614508A100 100 0 0 0 56.3337340951943 133.685197779405L56.333831933318 133.685229222792A35 35 0 0 0 96.6617642486321 133.530024865785L71.7468 112.687L68.349415196279 114.274335371795A10 10 0 0 1 55.0565646282045 109.447315196279L31.7754646282046 59.617715196279A10 10 0 0 1 36.602484803721 46.3248646282046L40 44.7375Z
  M45 46.5801L45 10.1567L55 14.8288L55 41.908L45 46.5801Z
  M73.5418 107.6697L101.4786 131.0408L104.3115 120.3729L83.5418 102.9976L73.5418 107.6697Z" />
<!--
       * HOERER *
       * HOERMUSCHEL *
       * SPRECHMUSCHEL *
-->
<path fill="black" fill-rule="evenodd" stroke="none" d="M60.578911095796 82.6337008959338L63.5975189524466 79.2015851137147Q65.2929014472777 80.566161268091 67.5051688490696 81.3931771192281T72.1364576154376 82.2201929703653Q74.9276361130255 82.2201929703653 76.5196416264645 81.0623707787733T78.1116471399035 78.0230875258442Q78.1116471399035 74.4669193659545 74.1833218470021 73.9500344589938Q73.1495520330806 73.8259820813232 72.2605099931082 73.7019297036527T70.1929703652653 73.4124741557547Q66.2853204686423 72.8749138525155 64.2384562370779 70.5592694693315T62.1915920055134 64.9355616815989Q62.1915920055134 61.0899379738112 64.7553411440386 58.6088904203997T72.0124052377671 56.1278428669883Q74.8035837353549 56.1278428669883 77.2639558924879 57.0168849069607T81.7918676774638 59.2705031013094L79.2487939352171 63.0334252239835Q77.5947622329428 61.999655410062 75.6926257753274 61.3587181254307T71.8056512749828 60.7177808407994Q69.696760854583 60.7177808407994 68.2288077188146 61.7929014472777T66.7608545830462 65.0182632667126Q66.7608545830462 66.3001378359752 67.7532736044108 67.4166092350103T71.0406616126809 68.8845623707788Q71.6402481047553 68.9879393521709 72.4879393521709 69.0913163335631T74.4314266023432 69.3394210889042Q78.6492074431427 69.8563059958649 80.6547208821502 72.3993797381116T82.6809097174363 78.0230875258442Q82.6809097174363 82.1788421778084 79.8070296347347 84.473811164714T72.0951068228808 86.7687801516196Q65.2929014472777 86.7687801516196 60.578911095796 82.6337008959338ZM86.4851826326671 71.4689869055824Q86.4851826326671 66.0313576843556 86.7746381805651 64.4600275671951T87.8084079944866 61.565472088215Q88.8628532046864 59.6013094417643 91.2611991729841 57.8645761543763T97.23638869745 56.1278428669883Q100.771881461061 56.1278428669883 103.170227429359 57.8645761543763T106.685044796692 61.565472088215Q107.408683666437 62.8886974500345 107.698139214335 64.4600275671951T107.987594762233 71.4689869055824Q107.987594762233 76.9066161268091 107.698139214335 78.4779462439697T106.685044796692 81.3725017229497Q105.589248793935 83.3573397656788 103.190902825637 85.05272226051T97.23638869745 86.7687801516196Q93.6802205375603 86.7687801516196 91.2818745692626 85.0733976567884T87.8084079944866 81.3725017229497Q87.0640937284631 80.0492763611303 86.7746381805651 78.4779462439697T86.4851826326671 71.4689869055824ZM91.0544452101999 71.4689869055824Q91.0544452101999 76.1209510682288 91.3645761543763 77.5062026188835T92.5844245348036 80.0079255685734Q93.2667126119917 80.9176430048243 94.4452101998622 81.5585802894556T97.23638869745 82.2201929703653Q98.8490696071675 82.2201929703653 100.027567195038 81.579255685734T101.888352860096 80.0079255685734Q102.777394900069 78.8914541695382 103.087525844245 77.5062026188835T103.4183321847 71.4689869055824Q103.4183321847 66.8376981392143 103.108201240524 65.4524465885596T101.888352860096 62.9093728463129Q101.206064782908 62.0410062026189 100.027567195038 61.3793935217092T97.23638869745 60.7177808407994Q95.6237077877326 60.7177808407994 94.4452101998622 61.3793935217092T92.5844245348036 62.9093728463129Q91.6953824948311 64.0671950379049 91.3852515506547 65.4524465885596T91.0544452101999 71.4689869055824ZM110.696071674707 82.6337008959338L113.714679531358 79.2015851137147Q115.410062026189 80.566161268091 117.622329427981 81.3931771192281T122.253618194349 82.2201929703653Q125.044796691937 82.2201929703653 126.636802205376 81.0623707787733T128.228807718815 78.0230875258442Q128.228807718815 74.4669193659545 124.300482425913 73.9500344589938Q123.266712611992 73.8259820813232 122.377670572019 73.7019297036527T120.310130944176 73.4124741557547Q116.402481047553 72.8749138525155 114.355616815989 70.5592694693315T112.308752584425 64.9355616815989Q112.308752584425 61.0899379738112 114.87250172295 58.6088904203997T122.129565816678 56.1278428669883Q124.920744314266 56.1278428669883 127.381116471399 57.0168849069607T131.909028256375 59.2705031013094L129.365954514128 63.0334252239835Q127.711922811854 61.999655410062 125.809786354238 61.3587181254307T121.922811853894 60.7177808407994Q119.813921433494 60.7177808407994 118.345968297726 61.7929014472777T116.878015161957 65.0182632667126Q116.878015161957 66.3001378359752 117.870434183322 67.4166092350103T121.157822191592 68.8845623707788Q121.757408683666 68.9879393521709 122.605099931082 69.0913163335631T124.548587181254 69.3394210889042Q128.766368022054 69.8563059958649 130.771881461061 72.3993797381116T132.798070296347 78.0230875258442Q132.798070296347 82.1788421778084 129.924190213646 84.473811164714T122.212267401792 86.7687801516196Q115.410062026189 86.7687801516196 110.696071674707 82.6337008959338ZZ" />
</svg>
