<?xml version="1.0" encoding="utf-8"?>
<!-- Generator: Adobe Illustrator 15.0.0, SVG Export Plug-In  -->
<!DOCTYPE svg PUBLIC "-//W3C//DTD SVG 1.1//EN" "http://www.w3.org/Graphics/SVG/1.1/DTD/svg11.dtd" [
	<!ENTITY ns_flows "http://ns.adobe.com/Flows/1.0/">
]>
<svg version="1.1"
	 xmlns="http://www.w3.org/2000/svg" xmlns:xlink="http://www.w3.org/1999/xlink" xmlns:a="http://ns.adobe.com/AdobeSVGViewerExtensions/3.0/"
	 x="0px" y="0px" width="503px" height="505px" viewBox="0 -0.61 503 505" enable-background="new 0 -0.61 503 505"
	 xml:space="preserve">

<rect x="18.5" y="17.5" stroke="#000000" width="467" height="469"/>
<rect x="51" y="52.5" fill="#FFFFFF" stroke="#000000" width="401" height="399"/>
<path fill="#010101" d="M396.403,315.436c-11.234-29.336-27.884-61.988-49.363-85.297c-22.692-24.624-46.35-52.666-74.036-71.862
	c-6.48-4.493-12.961-8.986-19.44-13.479l-45.336-28.41c-9.466-3.878-19.525-6.988-28.373-10.665
	c-14.405-5.987-27.19-8.618-42.384-4.277c-14.092,4.026-24.51,22.277-32.971,32.944l-2.666,6l-0.668,10.667l2.668,9.333l6.666,8.667
	l27.334,17.333l36,20l8.666,4l8,2l6-2l4-2l28.297-27.093l19.93,22.085c0.876,1.199,1.794,2.365,2.771,3.486
	c8.544,9.81,16.339,18.99,26.47,27.095c18.604,14.882,34.366,31.744,53.866,45.761c-9.745,9.312-19.49,18.624-29.235,27.936
	c-2.513,2.401-8.603,5.79-7.752,9.62c0.888,3.994,0.53,11.021,2.651,14.285c7.944,12.222,15.888,24.443,23.831,36.664
	c5.901,9.079,11.43,21.853,19.172,29.495c10.343,10.211,22.23,8.478,33.086,1.454c7.469-4.833,21.266-10.671,26.066-18.217
	C414.035,358.354,405.227,338.474,396.403,315.436z"/>
</svg>
