<?xml version="1.0" standalone="no"?>
<!DOCTYPE svg PUBLIC "-//W3C//DTD SVG 1.1//EN" "http://www.w3.org/Graphics/SVG/1.1/DTD/svg11.dtd">
<!--
   ***************************************************************************
   Bundesanstalt fuer Strassenwesen
   RWBA-Symbol
   Bezeichnung:
   Gasthaus
   Ausdehnung in cm:
         X_min     X_max     Y_min     Y_max
         0.00000  15.00000   0.00000  15.00000
-->
<svg width="150" height="150" version="1.1" xmlns="http://www.w3.org/2000/svg">
<!--
   ***************************************************************************
-->
<path fill="white" fill-rule="evenodd" stroke="black" stroke-width="0.25" d="M0 150L0 0L150 0L150 150L0 150Z" />
<!--
      * SYMBOL MESSER + GABEL *
-->
<path fill="black" fill-rule="evenodd" stroke="none" d="M73.282 84.8162L65.4121 76.5021L15.0357321273517 124.155390171671A10 10 0 0 0 25.8446098283285 134.964267872648L73.282 84.8162Z
  M84.4898 72.968L94.6451737944695 62.2322021402805A15 15 0 0 1 105.271343984688 57.5426456320715L107.770856015312 57.4975543679284A15 15 0 0 0 119.725222712139 51.1916010975302L134.722522271214 30.097060109753A1.5 1.5 0 0 0 133.641453599395 27.73458460156A1.5 1.5 0 0 0 132.43933982822 28.1672398282202L113.86396017178 46.7426601717798A1.5 1.5 0 0 1 111.354411260566 46.0702285676538A1.5 1.5 0 0 1 111.74263982822 44.6213398282202L130.31796017178 26.0459601717798A1.5 1.5 0 0 0 129.645528567654 23.5364112605664A1.5 1.5 0 0 0 128.19663982822 23.9246398282202L109.62136017178 42.4999601717798A1.5 1.5 0 0 1 107.111811260566 41.8275285676538A1.5 1.5 0 0 1 107.50003982822 40.3786398282202L126.07536017178 21.8033601717798A1.5 1.5 0 0 0 125.402928567654 19.2938112605664A1.5 1.5 0 0 0 123.95403982822 19.6820398282202L105.37866017178 38.2573601717798A1.5 1.5 0 0 1 102.869111260566 37.5849285676538A1.5 1.5 0 0 1 103.25733982822 36.1360398282202L121.83276017178 17.5606601717798A1.5 1.5 0 0 0 121.160328567654 15.0511112605664A1.5 1.5 0 0 0 119.902939890247 15.2774777287861L98.8083989024698 30.2747772878605A15 15 0 0 0 92.5024456320716 42.2291439846883L92.4573543679284 44.7286560153117A15 15 0 0 1 87.7677978597195 55.3548262055305L76.8161 65.7144L84.4898 72.968Z
  M54.6147 72.6477L56.4230660940673 70.8394660940673A5 5 0 0 1 63.5909420685102 70.9390007134269L124.155390171671 134.964267872648A10 10 0 0 0 134.964267872648 124.155390171671L73.75 66.25L23.9645339059327 16.4644660940673A5 5 0 0 0 15.5993708685547 18.7059047744874A5 5 0 0 0 15.429 20L15.429 20A32.5 32.5 0 0 0 24.9480296114372 42.9809703885628L54.6147 72.6477Z" />
<!--
       * GABEL *
        * STIEL *
        * ZINKEN *
       * MESSER *
-->
</svg>
