<?xml version="1.0" encoding="UTF-8" standalone="no"?>
<!DOCTYPE svg PUBLIC "-//W3C//DTD SVG 1.1//EN" "http://www.w3.org/Graphics/SVG/1.1/DTD/svg11.dtd">
<!--
   ***************************************************************************
   Bundesanstalt fuer Strassenwesen
   RWB-Symbol
   Bezeichnung:
   Grosssportanlage, Stadion
   Ausdehnung in cm:
         X_min     X_max     Y_min     Y_max
         0.00000  15.00000   0.00000  15.00000
-->
<svg width="150" height="150" version="1.1" xmlns="http://www.w3.org/2000/svg">
<!--
   ***************************************************************************
-->
<path fill="white" fill-rule="evenodd" stroke="black" stroke-width="0.25" d="M0 150L150 150L150 0L0 0L0 150Z"/>
<!--
      INHALT
       RAENGE
-->
<path fill="black" fill-rule="evenodd" stroke="none" d="M136.002311481466 91.904730469628A40 40 0 0 0 136.002311481466 58.095269530372L131.470772546283 60.2083608390755A35 35 0 0 1 131.470772546283 89.7916391609245L136.0023 91.9047Z"/>
<path fill="black" fill-rule="evenodd" stroke="none" d="M126.939233611099 87.678547852221A30 30 0 0 0 126.939233611099 62.321452147779L122.407694675916 64.4345434564825A25 25 0 0 1 122.407694675916 85.5654565435175L126.9392 87.6785Z"/>
<path fill="black" fill-rule="evenodd" stroke="none" d="M117.876155740733 83.452365234814A20 20 0 0 0 117.876155740733 66.547634765186L113.34461680555 68.6607260738895A15 15 0 0 1 113.34461680555 81.3392739261105L117.8762 83.4524Z"/>
<path fill="black" fill-rule="evenodd" stroke="none" d="M109.426875823987 36.1881709489601A40 40 0 0 1 132.911502902202 52.6322838611701L128.766315039426 55.4282483785239A35 35 0 0 0 108.217266345988 41.0396495803401L109.4269 36.1882Z"/>
<path fill="black" fill-rule="evenodd" stroke="none" d="M107.00765686799 45.8911282117201A30 30 0 0 1 124.621127176651 58.2242128958776L120.475939313876 61.0201774132313A25 25 0 0 0 105.798047389992 50.7426068431001L107.0077 45.8911Z"/>
<path fill="black" fill-rule="evenodd" stroke="none" d="M104.588437911993 55.5940854744801A20 20 0 0 1 116.330751451101 63.8161419305851L112.185563588326 66.6121064479388A15 15 0 0 0 103.378828433995 60.44556410586L104.5884 55.5941Z"/>
<path fill="black" fill-rule="evenodd" stroke="none" d="M103.236229709906 35.1522120763302A40 40 0 0 0 99.75 35L77.6324 35L77.3704 40L99.75 40A35 35 0 0 1 102.800450996168 40.1331855667889L103.2362 35.1522Z"/>
<path fill="black" fill-rule="evenodd" stroke="none" d="M102.36467228243 45.1141590572476A30 30 0 0 0 99.75 45L77.1084 45L76.8463 50L99.75 50A25 25 0 0 1 101.928893568691 50.0951325477064L102.3647 45.1142Z"/>
<path fill="black" fill-rule="evenodd" stroke="none" d="M101.493114854953 55.0761060381651A20 20 0 0 0 99.75 55L76.5843 55L76.3222 60L99.75 60A15 15 0 0 1 101.057336141215 60.0570795286238L101.4931 55.0761Z"/>
<path fill="black" fill-rule="evenodd" stroke="none" d="M109.426875823987 113.81182905104A40 40 0 0 0 132.911502902202 97.3677161388299L128.766315039426 94.5717516214761A35 35 0 0 1 108.217266345988 108.96035041966L109.4269 113.8118Z"/>
<path fill="black" fill-rule="evenodd" stroke="none" d="M107.00765686799 104.10887178828A30 30 0 0 0 124.621127176651 91.7757871041224L120.475939313876 88.9798225867687A25 25 0 0 1 105.798047389992 99.2573931568999L107.0077 104.1089Z"/>
<path fill="black" fill-rule="evenodd" stroke="none" d="M104.588437911993 94.4059145255199A20 20 0 0 0 116.330751451101 86.1838580694149L112.185563588326 83.3878935520612A15 15 0 0 1 103.378828433995 89.55443589414L104.5884 94.4059Z"/>
<path fill="black" fill-rule="evenodd" stroke="none" d="M103.236229709906 114.84778792367A40 40 0 0 1 99.75 115L77.6324 115L77.3704 110L99.75 110A35 35 0 0 0 102.800450996168 109.866814433211L103.2362 114.8478Z"/>
<path fill="black" fill-rule="evenodd" stroke="none" d="M102.36467228243 104.885840942752A30 30 0 0 1 99.75 105L77.1084 105L76.8463 100L99.75 100A25 25 0 0 0 101.928893568691 99.9048674522936L102.3647 104.8858Z"/>
<path fill="black" fill-rule="evenodd" stroke="none" d="M101.493114854953 94.9238939618349A20 20 0 0 1 99.75 95L76.5843 95L76.3222 90L99.75 90A15 15 0 0 0 101.057336141215 89.9429204713762L101.4931 94.9239Z"/>
<path fill="black" fill-rule="evenodd" stroke="none" d="M13.997688518534 91.904730469628A40 40 0 0 1 13.997688518534 58.095269530372L18.5292274537173 60.2083608390755A35 35 0 0 0 18.5292274537173 89.7916391609245L13.9977 91.9047Z"/>
<path fill="black" fill-rule="evenodd" stroke="none" d="M23.0607663889005 87.678547852221A30 30 0 0 1 23.0607663889005 62.321452147779L27.5923053240838 64.4345434564825A25 25 0 0 0 27.5923053240838 85.5654565435175L23.0608 87.6785Z"/>
<path fill="black" fill-rule="evenodd" stroke="none" d="M32.123844259267 83.452365234814A20 20 0 0 1 32.123844259267 66.547634765186L36.6553831944503 68.6607260738895A15 15 0 0 0 36.6553831944503 81.3392739261105L32.1238 83.4524Z"/>
<path fill="black" fill-rule="evenodd" stroke="none" d="M40.5731241760133 36.1881709489601A40 40 0 0 0 17.0884970977983 52.6322838611701L21.2336849605735 55.4282483785239A35 35 0 0 1 41.7827336540116 41.0396495803401L40.5731 36.1882Z"/>
<path fill="black" fill-rule="evenodd" stroke="none" d="M42.99234313201 45.8911282117201A30 30 0 0 0 25.3788728233488 58.2242128958776L29.524060686124 61.0201774132313A25 25 0 0 1 44.2019526100083 50.7426068431001L42.9923 45.8911Z"/>
<path fill="black" fill-rule="evenodd" stroke="none" d="M45.4115620880066 55.5940854744801A20 20 0 0 0 33.6692485488992 63.8161419305851L37.8144364116744 66.6121064479388A15 15 0 0 1 46.621171566005 60.44556410586L45.4116 55.5941Z"/>
<path fill="black" fill-rule="evenodd" stroke="none" d="M46.7637702900937 35.1522120763302A40 40 0 0 1 50.25 35L72.3676 35L72.6296 40L50.25 40A35 35 0 0 0 47.199549003832 40.1331855667889L46.7638 35.1522Z"/>
<path fill="black" fill-rule="evenodd" stroke="none" d="M47.6353277175703 45.1141590572476A30 30 0 0 1 50.25 45L72.8916 45L73.1537 50L50.25 50A25 25 0 0 0 48.0711064313086 50.0951325477064L47.6353 45.1142Z"/>
<path fill="black" fill-rule="evenodd" stroke="none" d="M48.5068851450468 55.0761060381651A20 20 0 0 1 50.25 55L73.4157 55L73.6778 60L50.25 60A15 15 0 0 0 48.9426638587851 60.0570795286238L48.5069 55.0761Z"/>
<path fill="black" fill-rule="evenodd" stroke="none" d="M40.5731241760133 113.81182905104A40 40 0 0 1 17.0884970977983 97.3677161388299L21.2336849605735 94.5717516214761A35 35 0 0 0 41.7827336540116 108.96035041966L40.5731 113.8118Z"/>
<path fill="black" fill-rule="evenodd" stroke="none" d="M42.99234313201 104.10887178828A30 30 0 0 1 25.3788728233488 91.7757871041224L29.524060686124 88.9798225867686A25 25 0 0 0 44.2019526100083 99.2573931568999L42.9923 104.1089Z"/>
<path fill="black" fill-rule="evenodd" stroke="none" d="M45.4115620880066 94.4059145255199A20 20 0 0 1 33.6692485488992 86.1838580694149L37.8144364116744 83.3878935520612A15 15 0 0 0 46.621171566005 89.55443589414L45.4116 94.4059Z"/>
<path fill="black" fill-rule="evenodd" stroke="none" d="M46.7637702900937 114.84778792367A40 40 0 0 0 50.25 115L72.3676 115L72.6296 110L50.25 110A35 35 0 0 1 47.199549003832 109.866814433211L46.7638 114.8478Z"/>
<path fill="black" fill-rule="evenodd" stroke="none" d="M47.6353277175703 104.885840942752A30 30 0 0 0 50.25 105L72.8916 105L73.1537 100L50.25 100A25 25 0 0 1 48.0711064313086 99.9048674522936L47.6353 104.8858Z"/>
<path fill="black" fill-rule="evenodd" stroke="none" d="M48.5068851450468 94.9238939618349A20 20 0 0 0 50.25 95L73.4157 95L73.6778 90L50.25 90A15 15 0 0 1 48.9426638587851 89.9429204713762L48.5069 94.9239Z"/>
</svg>