<?xml version="1.0" encoding="UTF-8" standalone="no"?>
<!DOCTYPE svg PUBLIC "-//W3C//DTD SVG 1.1//EN" "http://www.w3.org/Graphics/SVG/1.1/DTD/svg11.dtd">
<!-- Created with Inkscape (http://www.inkscape.org/) by Marsupilami -->
<svg
   xmlns:svg="http://www.w3.org/2000/svg"
   xmlns="http://www.w3.org/2000/svg"
   version="1.1"
   id="svg4456"
   width="533.75"
   height="533.75">
  <defs
     id="defs4458" />
  <path
     d="m 266.99625,18.72375 248.03,106.29875 0,70.865 -248.03,-106.2975 -248.03,106.2975 0,-70.865 248.03,-106.29875 M 299.8975,344.4725 c -10.15125,-5.32125 -21.44,-8.1 -32.90125,-8.1 -12.44,0 -24.66,3.27375 -35.4325,9.49375 l 0,0 c -10.77375,6.22 -22.99375,9.49375 -35.4325,9.49375 -12.44,0 -24.66,-3.27375 -35.43375,-9.49375 l 0,0 c -10.7725,-6.22 -22.9925,-9.49375 -35.4325,-9.49375 -12.43975,0 -24.66,3.27375 -35.4325,9.49375 L 72.11625,355.36 c -29.3535,0 -53.15,-23.795 -53.15,-53.14875 l 248.03,-0.025 98.96,-98.96 c 6.645,-6.645 15.6575,-10.3775 25.055,-10.3775 9.3975,0 18.41,3.7325 25.055,10.3775 l 98.96,98.96 c -9.9675,9.9675 -23.48625,15.5675 -37.5825,15.5675 -14.09625,0 -27.615,-5.6 -37.5825,-15.5675 l -48.85,-48.85 -91.11375,91.13625 z m -9.105,-113.15125 c 0,29.3525 -23.79625,53.14875 -53.15,53.14875 -29.35375,0 -53.14875,-23.79625 -53.14875,-53.14875 0,-29.35375 23.795,-53.15 53.14875,-53.15 29.35375,0 53.15,23.79625 53.15,53.15 M 18.96625,399.015 l 0,-35.4325 c 10.7725,6.22 22.99375,9.495 35.432625,9.495 12.44,0 24.65975,-3.275 35.433625,-9.495 l 0,0 c 10.7725,-6.22 22.99275,-9.49375 35.4325,-9.49375 12.44,0 24.66,3.27375 35.4325,9.49375 l 0,0 c 10.77375,6.22 22.99375,9.495 35.43375,9.495 12.43875,0 24.65875,-3.275 35.4325,-9.495 l 0,0 c 10.7725,-6.22 22.9925,-9.49375 35.4325,-9.49375 12.44,0 24.66,3.27375 35.4325,9.49375 l 0,0 c 10.77375,6.22 22.99375,9.495 35.43375,9.495 12.43875,0 24.66,-3.275 35.4325,-9.495 l 0,0 c 10.7725,-6.22 22.99375,-9.49375 35.4325,-9.49375 12.44,0 24.66,3.27375 35.4325,9.49375 l 0,0 c 10.77375,6.22 22.99375,9.495 35.43375,9.495 12.43875,0 24.66,-3.275 35.4325,-9.495 l 0,35.43375 c -10.7725,6.21875 -22.99375,9.49375 -35.4325,9.49375 -12.44,0 -24.66,-3.275 -35.43375,-9.49375 l 0,-0.001 c -10.7725,-6.21875 -22.9925,-9.49375 -35.4325,-9.49375 -12.43875,0 -24.66,3.275 -35.4325,9.49375 l 0,0.001 c -10.7725,6.21875 -22.99375,9.49375 -35.4325,9.49375 -12.44,0 -24.66,-3.275 -35.43375,-9.49375 l 0,-0.001 c -10.7725,-6.219 -22.9925,-9.494 -35.4325,-9.494 -12.44,0 -24.66,3.275 -35.4325,9.49375 l 0,0.001 c -10.77375,6.21875 -22.99375,9.49375 -35.4325,9.49375 -12.44,0 -24.66,-3.275 -35.43375,-9.49375 l 0,-0.001 c -10.7725,-6.21875 -22.9925,-9.49375 -35.4325,-9.49375 -12.43975,0 -24.66,3.275 -35.4325,9.49375 l 0,0.001 c -10.773875,6.21875 -22.993625,9.49375 -35.433625,9.49375 C 41.96,408.51 29.73875,405.235 18.96625,399.01625 m 0,53.14875 0,-35.43263 c 10.7725,6.21875 22.99375,9.49376 35.432625,9.49376 12.44,0 24.65975,-3.27501 35.433625,-9.49376 l 0,0 c 10.7725,-6.21962 22.99275,-9.49487 35.4325,-9.49487 12.44,0 24.66,3.27525 35.4325,9.49487 l 0,0 c 10.77375,6.21875 22.99375,9.49376 35.43375,9.49376 12.43875,0 24.65875,-3.27501 35.4325,-9.49376 l 0,0 c 10.7725,-6.21962 22.9925,-9.49487 35.4325,-9.49487 12.44,0 24.66,3.27525 35.4325,9.49487 l 0,0 c 10.77375,6.21875 22.99375,9.49376 35.43375,9.49376 12.43875,0 24.66,-3.27501 35.4325,-9.49376 l 0,0 c 10.7725,-6.21962 22.99375,-9.49487 35.4325,-9.49487 12.44,0 24.66,3.27525 35.4325,9.49487 l 0,0 c 10.77375,6.21875 22.99375,9.49376 35.43375,9.49376 12.43875,0 24.66,-3.27501 35.4325,-9.49376 l 0,35.43263 c -10.7725,6.21975 -22.99375,9.49375 -35.4325,9.49375 -12.44,0 -24.66,-3.274 -35.43375,-9.49375 l 0,0 c -10.7725,-6.22012 -22.9925,-9.49362 -35.4325,-9.49362 -12.43875,0 -24.66,3.2735 -35.4325,9.49362 l 0,0 c -10.7725,6.21975 -22.99375,9.49375 -35.4325,9.49375 -12.44,0 -24.66,-3.274 -35.43375,-9.49375 l 0,0 c -10.7725,-6.22012 -22.9925,-9.49362 -35.4325,-9.49362 -12.44,0 -24.66,3.2735 -35.4325,9.49362 l 0,0 c -10.77375,6.21975 -22.99375,9.49375 -35.4325,9.49375 -12.44,0 -24.66,-3.274 -35.43375,-9.49375 l 0,0 c -10.7725,-6.22012 -22.9925,-9.49362 -35.4325,-9.49362 -12.43975,0 -24.66,3.2735 -35.4325,9.49362 l 0,0 c -10.773875,6.21975 -22.993625,9.49375 -35.433625,9.49375 -12.438875,0 -24.660125,-3.274 -35.432625,-9.49375 m 0,53.149 0,-35.43263 c 10.7725,6.21976 22.99375,9.49363 35.432625,9.49363 12.44,0 24.65975,-3.27387 35.433625,-9.49363 l 0,0 c 10.7725,-6.22025 22.99275,-9.49362 35.4325,-9.49362 12.44,0 24.66,3.27337 35.4325,9.49362 l 0,0 c 10.77375,6.21976 22.99375,9.49363 35.43375,9.49363 12.43875,0 24.65875,-3.27387 35.4325,-9.49363 l 0,0 c 10.7725,-6.22025 22.9925,-9.49362 35.4325,-9.49362 12.44,0 24.66,3.27337 35.4325,9.49362 l 0,0 c 10.77375,6.21976 22.99375,9.49363 35.43375,9.49363 12.43875,0 24.66,-3.27387 35.4325,-9.49363 l 0,0 c 10.7725,-6.22025 22.99375,-9.49362 35.4325,-9.49362 12.44,0 24.66,3.27337 35.4325,9.49362 l 0,0 c 10.77375,6.21976 22.99375,9.49363 35.43375,9.49363 12.43875,0 24.66,-3.27387 35.4325,-9.49363 l 0,35.43263 c -10.7725,6.21975 -22.99375,9.49462 -35.4325,9.49462 -12.44,0 -24.66,-3.27487 -35.43375,-9.49462 l 0,0 c -10.7725,-6.22025 -22.9925,-9.49412 -35.4325,-9.49412 -12.43875,0 -24.66,3.27387 -35.4325,9.49412 l 0,0 c -10.7725,6.21975 -22.99375,9.49462 -35.4325,9.49462 -12.44,0 -24.66,-3.27487 -35.43375,-9.49462 l 0,0 c -10.7725,-6.22025 -22.9925,-9.49412 -35.4325,-9.49412 -12.44,0 -24.66,3.27387 -35.4325,9.49412 l 0,0 c -10.77375,6.21975 -22.99375,9.49462 -35.4325,9.49462 -12.44,0 -24.66,-3.27487 -35.43375,-9.49462 l 0,0 c -10.7725,-6.22025 -22.9925,-9.49412 -35.4325,-9.49412 -12.43975,0 -24.66,3.27387 -35.4325,9.49412 l 0,0 c -10.773875,6.21975 -22.993625,9.49462 -35.433625,9.49462 -12.438875,0 -24.660125,-3.27487 -35.432625,-9.49462"
     style="fill:#231f20;fill-opacity:1;fill-rule:nonzero;stroke:none"
     id="path4454" />
</svg>
