<?xml version="1.0" standalone="no"?>
<!DOCTYPE svg PUBLIC "-//W3C//DTD SVG 1.1//EN" "http://www.w3.org/Graphics/SVG/1.1/DTD/svg11.dtd">
<!--
   ***************************************************************************
   Bundesanstalt fuer Strassenwesen
   RWBA-Symbol
   Bezeichnung:
   Toiletten
   Ausdehnung in cm:
         X_min     X_max     Y_min     Y_max
         0.00000  15.00000   0.00000  15.00000
-->
<svg width="150" height="150" version="1.1" xmlns="http://www.w3.org/2000/svg">
<!--
   ***************************************************************************
-->
<path fill="white" fill-rule="evenodd" stroke="black" stroke-width="0.25" d="M0 150L0 0L150 0L150 150L0 150Z" />
<!--
      * SYMBOL WC *
-->
<path fill="black" fill-rule="evenodd" stroke="none" d="M33.9015 102.5L20.1515 47.5L28.9908 47.5L37.8301 86.7857L48.6337 47.5L54.5266 47.5L65.3301 86.7857L74.1694 47.5L83.0087 47.5L69.2587 102.5L61.8926 102.5L51.5801 62.7232L41.2676 102.5L33.9015 102.5Z
  M126.902076766594 86.7857216404148A19.6429 19.6429 0 0 1 94.9154305500452 98.3781771631829A19.6429 19.6429 0 0 1 87.9194 83.3482L87.9194 66.6518A19.6429 19.6429 0 0 1 117.38375 49.6405495960026A19.6429 19.6429 0 0 1 126.902076766594 63.2142783595852L118.321097039211 63.2143190285524A11.2946 11.2946 0 0 0 99.2059556340953 59.0531489356063A11.2946 11.2946 0 0 0 96.2677 66.6518L96.2677 83.3482A11.2946 11.2946 0 0 0 113.2096 93.1296105255837A11.2946 11.2946 0 0 0 118.321097039211 86.7856809714476L126.902 86.7857Z" />
</svg>
