<?xml version="1.0" standalone="no"?>
<!DOCTYPE svg PUBLIC "-//W3C//DTD SVG 1.1//EN" "http://www.w3.org/Graphics/SVG/1.1/DTD/svg11.dtd">
<!--
   ***************************************************************************
   Bundesanstalt fuer Strassenwesen
   RWB-Symbol
   Bezeichnung:
   Bahnhof
   Ausdehnung in cm:
         X_min     X_max     Y_min     Y_max
         0.00000  15.00000   0.00000  15.00000
-->
<svg width="150" height="150" version="1.1" xmlns="http://www.w3.org/2000/svg">
<!--
   ***************************************************************************
-->
<path fill="white" fill-rule="evenodd" stroke="black" stroke-width="0.25" d="M0 150L150 150L150 0L0 0L0 150Z" />
<!--
      INHALT
      Dach
-->
<path fill="black" fill-rule="evenodd" stroke="none" d="M5 48L5 36L75 6L145 36L145 48L75 18L5 48Z" />
<!--
      ****       GLEIS     ******
-->
<path fill="black" fill-rule="evenodd" stroke="none" d="M17.5 144L17.5 137L27 137L27 132L41 132L41 137L70 137L70 132L84 132L84 137L101 137L101 114L145 114L145 144L17.5 144Z" />
<!--
      ****      LOKOMOTIVE   ****
-->
<path fill="black" fill-rule="evenodd" stroke="none" d="M31.5 129.5A14 14 0 0 1 17.5011994139639 115.316745662001L17.8098134485199 91.7382080885731A20 20 0 0 1 18.1119449397558 88.5270364466614L19.3462449397558 81.5270364466614A20 20 0 0 1 20.4987229086643 77.5078681316817L27.4954210907491 60.1904505493807A7.5 7.5 0 0 1 29.628392927351 57.2546666766077L29.6284 57.2547C32.6926 54.6835 40.5 51.5 52.918 50.9343L52.918047210099 50.9342715465213A13.1349 13.1349 0 0 0 42.7091162817485 41.3816164112058L36.3948 41.3816A1.4329 1.4329 0 0 1 35.1538721989173 39.23225A1.4329 1.4329 0 0 1 36.3948 38.5158L74.6052 38.5158A1.4329 1.4329 0 0 1 75.8461278010827 40.66515A1.4329 1.4329 0 0 1 74.6052 41.3816L68.2908837182515 41.3816164112058A13.1349 13.1349 0 0 0 58.081952789901 50.9342715465213L58.082 50.9343C70.5 51.5 78.3074 54.6835 81.3716 57.2547L81.371607072649 57.2546666766077A7.5 7.5 0 0 1 83.5045789092509 60.1904505493807L90.5012770913358 77.5078681316818A20 20 0 0 1 91.6537550602442 81.5270364466614L92.8880550602442 88.5270364466614A20 20 0 0 1 93.1901865514801 91.7382080885731L93.4988005860361 115.316745662001A14 14 0 0 1 79.5 129.5L31.5 129.5Z" />
<!--
      ****   SCHEINWERFER  ****
-->
<path fill="white" fill-rule="evenodd" stroke="none" d="M36.5 115A4.75 4.75 0 0 0 29.375 110.886379332024A4.75 4.75 0 0 0 29.375 119.113620667976A4.75 4.75 0 0 0 36.5 115Z" />
<path fill="white" fill-rule="evenodd" stroke="none" d="M84 115A4.75 4.75 0 0 0 76.875 110.886379332024A4.75 4.75 0 0 0 76.875 119.113620667976A4.75 4.75 0 0 0 84 115Z" />
<path fill="white" fill-rule="evenodd" stroke="none" d="M60.25 97A4.75 4.75 0 0 0 53.125 92.8863793320239A4.75 4.75 0 0 0 53.125 101.113620667976A4.75 4.75 0 0 0 60.25 97Z" />
<!--
      ****   FRONTSCHEIBE  ****
-->
<path fill="white" fill-rule="evenodd" stroke="none" d="M40 80.5491L29.261467228243 81.4885840942752A3 3 0 0 1 26.2184484362996 77.3761802197523L30.7378210907491 66.1904505493807A7.5 7.5 0 0 1 34.6411751769315 62.1484090676805L34.6412 62.1484C38.2954 60.5215 46.5 58.5 55.5 58.5C64.5 58.5 72.7046 60.5215 76.3588 62.1484L76.3588248230685 62.1484090676805A7.5 7.5 0 0 1 80.2621789092509 66.1904505493807L84.7815515637004 77.3761802197523A3 3 0 0 1 81.738532771757 81.4885840942752L71 80.5491C67.0152 80.2005 60.5 80 55.5 80C50.5 80 43.9848 80.2005 40 80.5491Z" />
<!--
      *****  INLAY STROMABNEHMER ****
-->
<path fill="white" fill-rule="evenodd" stroke="none" d="M49.6875 41.3816L61.3124907785263 41.3816104797676A16.0007 16.0007 0 0 0 55.4999481722692 49.5433524677091L55.500051001431 49.543349800104A16.0007 16.0007 0 0 0 49.6875069706814 41.3816088266426Z" />
</svg>
