<?xml version="1.0" encoding="UTF-8" standalone="no"?>
<!DOCTYPE svg PUBLIC "-//W3C//DTD SVG 1.1//EN" "http://www.w3.org/Graphics/SVG/1.1/DTD/svg11.dtd">
<!--
   ***************************************************************************
   Bundesanstalt fuer Strassenwesen
   RWBA-Symbol
   Bezeichnung:
   Rollstuhlfahrersymbol
   Ausdehnung in cm:
         X_min     X_max     Y_min     Y_max
         0.00000  15.00000   0.00000  15.00000
-->
<svg width="150" height="150" version="1.1" xmlns="http://www.w3.org/2000/svg">
<!--
   ***************************************************************************
-->
<path fill="white" fill-rule="evenodd" stroke="black" stroke-width="0.25" d="M0 150L0 0L150 0L150 150L0 150Z"/>
<!--
      * SYMBOL ROLLSTUHLFAHRER *
-->
<path fill="black" fill-rule="evenodd" stroke="none" d="M61.3043987879131 96.25000165275A30 30 0 0 0 96.7700797542531 134.22611880016A30 30 0 0 0 111.925521457834 84.5238795470902A30 30 0 0 0 99.9999996867814 76.7157286417986L99.999992610471 82.0871183001674A25 25 0 0 1 104.843141320727 125.116688488241A25 25 0 0 1 65.1568660688019 107.796193211592A25 25 0 0 1 66.5812582520676 96.2499980032203L61.3044 96.25Z   M77.5 80L54.8699 80A10 10 0 0 0 45.0939311128069 87.895140784605L35.000040784605 134.775968887193A10 10 0 0 0 46.8029888479424 127.438662071181L55.4275777880144 93.1403344822048A2.5 2.5 0 0 1 57.8521 91.25L86.25 91.25A8.75 8.75 0 0 0 95 82.5L95 48.75A8.75 8.75 0 0 0 81.875 41.1722777168862A8.75 8.75 0 0 0 77.5 48.75L77.5 63.75L61.25 63.75A8.75 8.75 0 0 0 52.5 72.5L77.5 72.5L77.5 80Z   M95 26.25A10 10 0 0 0 80 17.5897459621556A10 10 0 0 0 80 34.9102540378444A10 10 0 0 0 95 26.25"/>
<!--
       * ROLLSTUHL *
       * KOERPER *
       * KOPF *
-->
</svg>